%TF.GenerationSoftware,KiCad,Pcbnew,(5.1.9)-1*%
%TF.CreationDate,2021-02-15T19:25:36-05:00*%
%TF.ProjectId,60percent,36307065-7263-4656-9e74-2e6b69636164,rev?*%
%TF.SameCoordinates,Original*%
%TF.FileFunction,Paste,Top*%
%TF.FilePolarity,Positive*%
%FSLAX46Y46*%
G04 Gerber Fmt 4.6, Leading zero omitted, Abs format (unit mm)*
G04 Created by KiCad (PCBNEW (5.1.9)-1) date 2021-02-15 19:25:36*
%MOMM*%
%LPD*%
G01*
G04 APERTURE LIST*
%ADD10R,1.200000X1.200000*%
G04 APERTURE END LIST*
D10*
%TO.C,D1*%
X85725000Y-77005750D03*
X85725000Y-80155750D03*
%TD*%
%TO.C,D2*%
X96825000Y-78580750D03*
X93675000Y-78580750D03*
%TD*%
%TO.C,D3*%
X115875000Y-78580750D03*
X112725000Y-78580750D03*
%TD*%
%TO.C,D4*%
X131775000Y-78580750D03*
X134925000Y-78580750D03*
%TD*%
%TO.C,D5*%
X153974500Y-78580750D03*
X150824500Y-78580750D03*
%TD*%
%TO.C,D6*%
X173024500Y-78580750D03*
X169874500Y-78580750D03*
%TD*%
%TO.C,D7*%
X188924500Y-78580750D03*
X192074500Y-78580750D03*
%TD*%
%TO.C,D8*%
X211124500Y-78580750D03*
X207974500Y-78580750D03*
%TD*%
%TO.C,D9*%
X230174500Y-78580750D03*
X227024500Y-78580750D03*
%TD*%
%TO.C,D10*%
X246074500Y-78580750D03*
X249224500Y-78580750D03*
%TD*%
%TO.C,D11*%
X265124500Y-78580750D03*
X268274500Y-78580750D03*
%TD*%
%TO.C,D12*%
X287324500Y-78580750D03*
X284174500Y-78580750D03*
%TD*%
%TO.C,D13*%
X303224500Y-78580750D03*
X306374500Y-78580750D03*
%TD*%
%TO.C,D14*%
X331800500Y-78580750D03*
X334950500Y-78580750D03*
%TD*%
%TO.C,D15*%
X79387500Y-97630750D03*
X82537500Y-97630750D03*
%TD*%
%TO.C,D16*%
X103200000Y-97630750D03*
X106350000Y-97630750D03*
%TD*%
%TO.C,D17*%
X125400000Y-97630750D03*
X122250000Y-97630750D03*
%TD*%
%TO.C,D18*%
X141300000Y-97630750D03*
X144450000Y-97630750D03*
%TD*%
%TO.C,D19*%
X160350500Y-97630750D03*
X163500500Y-97630750D03*
%TD*%
%TO.C,D20*%
X182550500Y-97630750D03*
X179400500Y-97630750D03*
%TD*%
%TO.C,D21*%
X201600500Y-97630750D03*
X198450500Y-97630750D03*
%TD*%
%TO.C,D22*%
X220650500Y-97630750D03*
X217500500Y-97630750D03*
%TD*%
%TO.C,D23*%
X236550500Y-97630750D03*
X239700500Y-97630750D03*
%TD*%
%TO.C,D24*%
X258750500Y-97630750D03*
X255600500Y-97630750D03*
%TD*%
%TO.C,D25*%
X274650500Y-97630750D03*
X277800500Y-97630750D03*
%TD*%
%TO.C,D26*%
X296850500Y-97630750D03*
X293700500Y-97630750D03*
%TD*%
%TO.C,D27*%
X312750500Y-97630750D03*
X315900500Y-97630750D03*
%TD*%
%TO.C,D28*%
X339712500Y-97630750D03*
X336562500Y-97630750D03*
%TD*%
%TO.C,D29*%
X84918700Y-116680750D03*
X81768700Y-116680750D03*
%TD*%
%TO.C,D30*%
X111112500Y-116680750D03*
X107962500Y-116680750D03*
%TD*%
%TO.C,D31*%
X130162500Y-116680750D03*
X127012500Y-116680750D03*
%TD*%
%TO.C,D32*%
X146062500Y-116680750D03*
X149212500Y-116680750D03*
%TD*%
%TO.C,D33*%
X168262500Y-116680750D03*
X165112500Y-116680750D03*
%TD*%
%TO.C,D34*%
X184162500Y-116680750D03*
X187312500Y-116680750D03*
%TD*%
%TO.C,D35*%
X206362500Y-116680750D03*
X203212500Y-116680750D03*
%TD*%
%TO.C,D36*%
X222262500Y-116680750D03*
X225412500Y-116680750D03*
%TD*%
%TO.C,D37*%
X244462500Y-116680750D03*
X241312500Y-116680750D03*
%TD*%
%TO.C,D38*%
X260362500Y-116680750D03*
X263512500Y-116680750D03*
%TD*%
%TO.C,D39*%
X282678500Y-116680750D03*
X279528500Y-116680750D03*
%TD*%
%TO.C,D40*%
X298462500Y-116680750D03*
X301612500Y-116680750D03*
%TD*%
%TO.C,D41*%
X329418500Y-116680750D03*
X332568500Y-116680750D03*
%TD*%
%TO.C,D42*%
X86531300Y-135730750D03*
X89681300Y-135730750D03*
%TD*%
%TO.C,D43*%
X120637500Y-135730750D03*
X117487500Y-135730750D03*
%TD*%
%TO.C,D44*%
X136537500Y-135730750D03*
X139687500Y-135730750D03*
%TD*%
%TO.C,D45*%
X158737500Y-135730750D03*
X155587500Y-135730750D03*
%TD*%
%TO.C,D46*%
X174637500Y-135730750D03*
X177787500Y-135730750D03*
%TD*%
%TO.C,D47*%
X196837500Y-135730750D03*
X193687500Y-135730750D03*
%TD*%
%TO.C,D48*%
X212737500Y-135730750D03*
X215887500Y-135730750D03*
%TD*%
%TO.C,D49*%
X234937500Y-135730750D03*
X231787500Y-135730750D03*
%TD*%
%TO.C,D50*%
X250837500Y-135730750D03*
X253987500Y-135730750D03*
%TD*%
%TO.C,D51*%
X269887500Y-135730750D03*
X273037500Y-135730750D03*
%TD*%
%TO.C,D52*%
X288937500Y-135730750D03*
X292087500Y-135730750D03*
%TD*%
%TO.C,D53*%
X327806500Y-135730750D03*
X324656500Y-135730750D03*
%TD*%
%TO.C,D54*%
X77006300Y-154780750D03*
X80156300Y-154780750D03*
%TD*%
%TO.C,D55*%
X103968700Y-154780750D03*
X100818700Y-154780750D03*
%TD*%
%TO.C,D56*%
X124631300Y-154780750D03*
X127781300Y-154780750D03*
%TD*%
%TO.C,D57*%
X199218500Y-154780750D03*
X196068500Y-154780750D03*
%TD*%
%TO.C,D58*%
X267506500Y-154780750D03*
X270656500Y-154780750D03*
%TD*%
%TO.C,D59*%
X294468500Y-154780750D03*
X291318500Y-154780750D03*
%TD*%
%TO.C,D60*%
X315131500Y-154780750D03*
X318281500Y-154780750D03*
%TD*%
%TO.C,D61*%
X342093500Y-154780750D03*
X338943500Y-154780750D03*
%TD*%
M02*
