M48
; DRILL file {KiCad (5.1.9)-1} date 02/15/21 19:25:59
; FORMAT={-:-/ absolute / inch / decimal}
; #@! TF.CreationDate,2021-02-15T19:25:59-05:00
; #@! TF.GenerationSoftware,Kicad,Pcbnew,(5.1.9)-1
; #@! TF.FileFunction,Plated,1,2,PTH
FMAT,2
INCH
T1C0.0157
T2C0.0276
T3C0.0394
T4C0.0430
T5C0.0591
%
G90
G05
T1
X3.5864Y-4.2588
X3.6118Y-4.3048
X5.1868Y-4.7954
X5.967Y-4.814
X6.81Y-4.8428
X7.5061Y-4.7647
X8.5336Y-4.5062
X9.1911Y-4.7138
X9.8882Y-4.6813
X9.9167Y-4.1039
X11.231Y-4.1343
X11.8064Y-4.0127
X12.6628Y-4.0583
T2
X2.9402Y-6.0937
X3.034Y-3.8437
X3.1277Y-4.5937
X3.2473Y-6.0937
X3.3152Y-5.3437
X3.341Y-3.8437
X3.375Y-2.9402
X3.375Y-3.2473
X3.4348Y-4.5937
X3.5965Y-3.0937
X3.6223Y-5.3437
X3.8777Y-6.0937
X3.9035Y-3.0937
X3.9715Y-3.8437
X4.159Y-4.5937
X4.1848Y-6.0937
X4.2785Y-3.8437
X4.3465Y-3.0937
X4.466Y-4.5937
X4.534Y-5.3437
X4.6535Y-3.0937
X4.7215Y-3.8437
X4.8152Y-6.0937
X4.841Y-5.3437
X4.909Y-4.5937
X5.0285Y-3.8437
X5.0965Y-3.0937
X5.1223Y-6.0937
X5.216Y-4.5937
X5.284Y-5.3437
X5.4035Y-3.0937
X5.4715Y-3.8437
X5.591Y-5.3437
X5.659Y-4.5937
X5.7785Y-3.8437
X5.8464Y-3.0937
X5.966Y-4.5937
X6.034Y-5.3437
X6.1535Y-3.0937
X6.2215Y-3.8437
X6.341Y-5.3437
X6.409Y-4.5937
X6.5286Y-3.8437
X6.5964Y-3.0937
X6.716Y-4.5937
X6.784Y-5.3437
X6.9035Y-3.0937
X6.9715Y-3.8437
X7.091Y-5.3437
X7.159Y-4.5937
X7.2786Y-3.8437
X7.3464Y-3.0937
X7.466Y-4.5937
X7.534Y-5.3437
X7.6277Y-6.0937
X7.6535Y-3.0937
X7.7215Y-3.8437
X7.841Y-5.3437
X7.909Y-4.5937
X7.9348Y-6.0937
X8.0286Y-3.8437
X8.0964Y-3.0937
X8.216Y-4.5937
X8.284Y-5.3437
X8.4035Y-3.0937
X8.4715Y-3.8437
X8.591Y-5.3437
X8.659Y-4.5937
X8.7786Y-3.8437
X8.8464Y-3.0937
X8.966Y-4.5937
X9.034Y-5.3437
X9.1535Y-3.0937
X9.2215Y-3.8437
X9.341Y-5.3437
X9.409Y-4.5937
X9.5286Y-3.8437
X9.5964Y-3.0937
X9.716Y-4.5937
X9.784Y-5.3437
X9.9035Y-3.0937
X9.9715Y-3.8437
X10.091Y-5.3437
X10.159Y-4.5937
X10.2786Y-3.8437
X10.3464Y-3.0937
X10.4402Y-6.0937
X10.466Y-4.5937
X10.534Y-5.3437
X10.6535Y-3.0937
X10.7215Y-3.8437
X10.7473Y-6.0937
X10.841Y-5.3437
X10.9135Y-4.5937
X11.0286Y-3.8437
X11.0964Y-3.0937
X11.2206Y-4.5937
X11.284Y-5.3437
X11.3777Y-6.0937
X11.4035Y-3.0937
X11.4715Y-3.8437
X11.591Y-5.3437
X11.659Y-4.5937
X11.6848Y-6.0937
X11.7786Y-3.8437
X11.8464Y-3.0937
X11.966Y-4.5937
X12.1535Y-3.0937
X12.2215Y-3.8437
X12.3152Y-6.0937
X12.5286Y-3.8437
X12.6223Y-6.0937
X12.6902Y-5.3437
X12.8777Y-4.5937
X12.9715Y-3.0937
X12.9973Y-5.3437
X13.159Y-3.8437
X13.1848Y-4.5937
X13.2527Y-6.0937
X13.2786Y-3.0937
X13.466Y-3.8437
X13.5598Y-6.0937
T3
X2.9062Y-2.6166
X2.9062Y-3.1875
X3.0047Y-3.1875
X3.1031Y-2.6166
X3.1031Y-3.1875
T4
X2.825Y-4.1063
X2.825Y-4.7062
X2.925Y-4.1063
X2.925Y-4.7062
X3.025Y-4.1063
X3.025Y-4.7062
X3.125Y-4.1063
X3.125Y-4.7062
X3.225Y-4.1063
X3.225Y-4.7062
X3.325Y-4.1063
X3.325Y-4.7062
X3.425Y-4.1063
X3.425Y-4.7062
X3.525Y-4.1063
X3.525Y-4.7062
X3.625Y-4.1063
X3.625Y-4.7062
X3.725Y-4.1063
X3.725Y-4.7062
X3.825Y-4.1063
X3.825Y-4.7062
X3.925Y-4.1063
X3.925Y-4.2062
X3.925Y-4.3062
X3.925Y-4.4062
X3.925Y-4.5062
X3.925Y-4.6063
X3.925Y-4.6972
T5
G00X2.7842Y-2.9178
M15
G01X2.7842Y-2.8666
M16
G05
G00X3.2251Y-2.9178
M15
G01X3.2251Y-2.8666
M16
G05
T0
M30
