M48
; DRILL file {KiCad (5.1.9)-1} date 02/15/21 21:30:35
; FORMAT={-:-/ absolute / inch / decimal}
; #@! TF.CreationDate,2021-02-15T21:30:35-05:00
; #@! TF.GenerationSoftware,Kicad,Pcbnew,(5.1.9)-1
; #@! TF.FileFunction,Plated,1,2,PTH
FMAT,2
INCH
T1C0.0157
T2C0.0276
T3C0.0394
T4C0.0430
T5C0.0591
%
G90
G05
T1
X2.8471Y-5.7067
X3.8888Y-5.703
X4.8413Y-5.5812
X6.0147Y-6.159
X6.8264Y-6.2264
X9.4503Y-5.8478
X10.5265Y-5.7063
X13.1381Y-5.556
T2
X2.9402Y-6.0937
X3.034Y-3.8437
X3.1277Y-4.5937
X3.2473Y-6.0937
X3.3152Y-5.3437
X3.341Y-3.8437
X3.375Y-2.9402
X3.375Y-3.2473
X3.4348Y-4.5937
X3.5965Y-3.0937
X3.6223Y-5.3437
X3.8777Y-6.0937
X3.9035Y-3.0937
X3.9715Y-3.8437
X4.159Y-4.5937
X4.1848Y-6.0937
X4.2785Y-3.8437
X4.3465Y-3.0937
X4.4661Y-4.5937
X4.5339Y-5.3437
X4.6535Y-3.0937
X4.7215Y-3.8437
X4.8152Y-6.0937
X4.841Y-5.3437
X4.909Y-4.5937
X5.0285Y-3.8437
X5.0965Y-3.0937
X5.1223Y-6.0937
X5.2161Y-4.5937
X5.2839Y-5.3437
X5.4035Y-3.0937
X5.4715Y-3.8437
X5.591Y-5.3437
X5.659Y-4.5937
X5.7785Y-3.8437
X5.8465Y-3.0937
X5.9661Y-4.5937
X6.0339Y-5.3437
X6.1535Y-3.0937
X6.2215Y-3.8437
X6.341Y-5.3437
X6.409Y-4.5937
X6.5286Y-3.8437
X6.5965Y-3.0937
X6.7161Y-4.5937
X6.7839Y-5.3437
X6.9035Y-3.0937
X6.9715Y-3.8437
X7.091Y-5.3437
X7.159Y-4.5937
X7.2786Y-3.8437
X7.3465Y-3.0937
X7.4661Y-4.5937
X7.5339Y-5.3437
X7.6277Y-6.0937
X7.6535Y-3.0937
X7.7215Y-3.8437
X7.841Y-5.3437
X7.909Y-4.5937
X7.9348Y-6.0937
X8.0286Y-3.8437
X8.0965Y-3.0937
X8.2161Y-4.5937
X8.2839Y-5.3437
X8.4035Y-3.0937
X8.4715Y-3.8437
X8.591Y-5.3437
X8.659Y-4.5937
X8.7786Y-3.8437
X8.8465Y-3.0937
X8.9661Y-4.5937
X9.0339Y-5.3437
X9.1535Y-3.0937
X9.2215Y-3.8437
X9.341Y-5.3437
X9.409Y-4.5937
X9.5286Y-3.8437
X9.5965Y-3.0937
X9.7161Y-4.5937
X9.7839Y-5.3437
X9.9035Y-3.0937
X9.9715Y-3.8437
X10.091Y-5.3437
X10.159Y-4.5937
X10.2786Y-3.8437
X10.3465Y-3.0937
X10.4402Y-6.0937
X10.4661Y-4.5937
X10.5339Y-5.3437
X10.6535Y-3.0937
X10.7215Y-3.8437
X10.7473Y-6.0937
X10.841Y-5.3437
X10.9135Y-4.5937
X11.0286Y-3.8437
X11.0965Y-3.0937
X11.2206Y-4.5937
X11.2839Y-5.3437
X11.3777Y-6.0937
X11.4035Y-3.0937
X11.4715Y-3.8437
X11.591Y-5.3437
X11.659Y-4.5937
X11.6848Y-6.0937
X11.7786Y-3.8437
X11.8465Y-3.0937
X11.9661Y-4.5937
X12.1535Y-3.0937
X12.2215Y-3.8437
X12.3152Y-6.0937
X12.5286Y-3.8437
X12.6223Y-6.0937
X12.6902Y-5.3437
X12.8777Y-4.5937
X12.9715Y-3.0937
X12.9973Y-5.3437
X13.159Y-3.8437
X13.1848Y-4.5937
X13.2527Y-6.0937
X13.2786Y-3.0937
X13.4661Y-3.8437
X13.5598Y-6.0937
T3
X2.9062Y-2.6166
X2.9062Y-3.1875
X3.0047Y-3.1875
X3.1031Y-2.6166
X3.1031Y-3.1875
T4
X8.6375Y-5.6063
X8.6375Y-6.2063
X8.7375Y-5.6063
X8.7375Y-6.2063
X8.8375Y-5.6063
X8.8375Y-6.2063
X8.9375Y-5.6063
X8.9375Y-6.2063
X9.0375Y-5.6063
X9.0375Y-6.2063
X9.1375Y-5.6063
X9.1375Y-6.2063
X9.2375Y-5.6063
X9.2375Y-6.2063
X9.3375Y-5.6063
X9.3375Y-6.2063
X9.4375Y-5.6063
X9.4375Y-6.2063
X9.5375Y-5.6063
X9.5375Y-6.2063
X9.6375Y-5.6063
X9.6375Y-6.2063
X9.7375Y-5.6063
X9.7375Y-5.7063
X9.7375Y-5.8063
X9.7375Y-5.9063
X9.7375Y-6.0063
X9.7375Y-6.1063
X9.7375Y-6.1973
T5
G00X2.7842Y-2.9178
M15
G01X2.7842Y-2.8666
M16
G05
G00X3.2251Y-2.9178
M15
G01X3.2251Y-2.8666
M16
G05
T0
M30
