%TF.GenerationSoftware,KiCad,Pcbnew,(5.1.9)-1*%
%TF.CreationDate,2021-02-15T21:30:29-05:00*%
%TF.ProjectId,60percent - Copy,36307065-7263-4656-9e74-202d20436f70,rev?*%
%TF.SameCoordinates,Original*%
%TF.FileFunction,Copper,L1,Top*%
%TF.FilePolarity,Positive*%
%FSLAX46Y46*%
G04 Gerber Fmt 4.6, Leading zero omitted, Abs format (unit mm)*
G04 Created by KiCad (PCBNEW (5.1.9)-1) date 2021-02-15 21:30:29*
%MOMM*%
%LPD*%
G01*
G04 APERTURE LIST*
%TA.AperFunction,SMDPad,CuDef*%
%ADD10R,1.200000X1.200000*%
%TD*%
%TA.AperFunction,ComponentPad*%
%ADD11R,1.600000X1.600000*%
%TD*%
%TA.AperFunction,ComponentPad*%
%ADD12C,1.600000*%
%TD*%
%TA.AperFunction,SMDPad,CuDef*%
%ADD13R,0.500000X2.500000*%
%TD*%
%TA.AperFunction,SMDPad,CuDef*%
%ADD14R,2.500000X0.500000*%
%TD*%
%TA.AperFunction,ComponentPad*%
%ADD15C,2.000000*%
%TD*%
%TA.AperFunction,ComponentPad*%
%ADD16R,2.000000X3.200000*%
%TD*%
%TA.AperFunction,ComponentPad*%
%ADD17R,2.000000X2.000000*%
%TD*%
%TA.AperFunction,ComponentPad*%
%ADD18R,1.752600X1.752600*%
%TD*%
%TA.AperFunction,ComponentPad*%
%ADD19C,1.752600*%
%TD*%
%TA.AperFunction,ViaPad*%
%ADD20C,0.800000*%
%TD*%
%TA.AperFunction,Conductor*%
%ADD21C,0.250000*%
%TD*%
G04 APERTURE END LIST*
D10*
%TO.P,D1,2*%
%TO.N,Net-(D1-Pad2)*%
X85725000Y-77005800D03*
%TO.P,D1,1*%
%TO.N,/row0*%
X85725000Y-80155800D03*
D11*
X85725000Y-82480800D03*
D12*
%TO.P,D1,2*%
%TO.N,Net-(D1-Pad2)*%
X85725000Y-74680800D03*
D13*
%TO.P,D1,1*%
%TO.N,/row0*%
X85725000Y-81280800D03*
%TO.P,D1,2*%
%TO.N,Net-(D1-Pad2)*%
X85725000Y-75880800D03*
%TD*%
D10*
%TO.P,D2,2*%
%TO.N,Net-(D2-Pad2)*%
X96825000Y-78580800D03*
%TO.P,D2,1*%
%TO.N,/row0*%
X93675000Y-78580800D03*
D11*
X91350000Y-78580800D03*
D12*
%TO.P,D2,2*%
%TO.N,Net-(D2-Pad2)*%
X99150000Y-78580800D03*
D14*
%TO.P,D2,1*%
%TO.N,/row0*%
X92550000Y-78580800D03*
%TO.P,D2,2*%
%TO.N,Net-(D2-Pad2)*%
X97950000Y-78580800D03*
%TD*%
D10*
%TO.P,D3,2*%
%TO.N,Net-(D3-Pad2)*%
X115875000Y-78580800D03*
%TO.P,D3,1*%
%TO.N,/row0*%
X112725000Y-78580800D03*
D11*
X110400000Y-78580800D03*
D12*
%TO.P,D3,2*%
%TO.N,Net-(D3-Pad2)*%
X118200000Y-78580800D03*
D14*
%TO.P,D3,1*%
%TO.N,/row0*%
X111600000Y-78580800D03*
%TO.P,D3,2*%
%TO.N,Net-(D3-Pad2)*%
X117000000Y-78580800D03*
%TD*%
%TO.P,D4,2*%
%TO.N,Net-(D4-Pad2)*%
X136050000Y-78580800D03*
%TO.P,D4,1*%
%TO.N,/row0*%
X130650000Y-78580800D03*
D12*
%TO.P,D4,2*%
%TO.N,Net-(D4-Pad2)*%
X137250000Y-78580800D03*
D11*
%TO.P,D4,1*%
%TO.N,/row0*%
X129450000Y-78580800D03*
D10*
X131775000Y-78580800D03*
%TO.P,D4,2*%
%TO.N,Net-(D4-Pad2)*%
X134925000Y-78580800D03*
%TD*%
%TO.P,D5,2*%
%TO.N,Net-(D5-Pad2)*%
X153975000Y-78580800D03*
%TO.P,D5,1*%
%TO.N,/row0*%
X150825000Y-78580800D03*
D11*
X148500000Y-78580800D03*
D12*
%TO.P,D5,2*%
%TO.N,Net-(D5-Pad2)*%
X156300000Y-78580800D03*
D14*
%TO.P,D5,1*%
%TO.N,/row0*%
X149700000Y-78580800D03*
%TO.P,D5,2*%
%TO.N,Net-(D5-Pad2)*%
X155100000Y-78580800D03*
%TD*%
D10*
%TO.P,D6,2*%
%TO.N,Net-(D6-Pad2)*%
X173025000Y-78580800D03*
%TO.P,D6,1*%
%TO.N,/row0*%
X169875000Y-78580800D03*
D11*
X167550000Y-78580800D03*
D12*
%TO.P,D6,2*%
%TO.N,Net-(D6-Pad2)*%
X175350000Y-78580800D03*
D14*
%TO.P,D6,1*%
%TO.N,/row0*%
X168750000Y-78580800D03*
%TO.P,D6,2*%
%TO.N,Net-(D6-Pad2)*%
X174150000Y-78580800D03*
%TD*%
%TO.P,D7,2*%
%TO.N,Net-(D7-Pad2)*%
X193200000Y-78580800D03*
%TO.P,D7,1*%
%TO.N,/row0*%
X187800000Y-78580800D03*
D12*
%TO.P,D7,2*%
%TO.N,Net-(D7-Pad2)*%
X194400000Y-78580800D03*
D11*
%TO.P,D7,1*%
%TO.N,/row0*%
X186600000Y-78580800D03*
D10*
X188925000Y-78580800D03*
%TO.P,D7,2*%
%TO.N,Net-(D7-Pad2)*%
X192075000Y-78580800D03*
%TD*%
%TO.P,D8,2*%
%TO.N,Net-(D8-Pad2)*%
X211125000Y-78580800D03*
%TO.P,D8,1*%
%TO.N,/row0*%
X207975000Y-78580800D03*
D11*
X205650000Y-78580800D03*
D12*
%TO.P,D8,2*%
%TO.N,Net-(D8-Pad2)*%
X213450000Y-78580800D03*
D14*
%TO.P,D8,1*%
%TO.N,/row0*%
X206850000Y-78580800D03*
%TO.P,D8,2*%
%TO.N,Net-(D8-Pad2)*%
X212250000Y-78580800D03*
%TD*%
D10*
%TO.P,D9,2*%
%TO.N,Net-(D9-Pad2)*%
X230175000Y-78580800D03*
%TO.P,D9,1*%
%TO.N,/row0*%
X227025000Y-78580800D03*
D11*
X224700000Y-78580800D03*
D12*
%TO.P,D9,2*%
%TO.N,Net-(D9-Pad2)*%
X232500000Y-78580800D03*
D14*
%TO.P,D9,1*%
%TO.N,/row0*%
X225900000Y-78580800D03*
%TO.P,D9,2*%
%TO.N,Net-(D9-Pad2)*%
X231300000Y-78580800D03*
%TD*%
%TO.P,D10,2*%
%TO.N,Net-(D10-Pad2)*%
X250350000Y-78580800D03*
%TO.P,D10,1*%
%TO.N,/row0*%
X244950000Y-78580800D03*
D12*
%TO.P,D10,2*%
%TO.N,Net-(D10-Pad2)*%
X251550000Y-78580800D03*
D11*
%TO.P,D10,1*%
%TO.N,/row0*%
X243750000Y-78580800D03*
D10*
X246075000Y-78580800D03*
%TO.P,D10,2*%
%TO.N,Net-(D10-Pad2)*%
X249225000Y-78580800D03*
%TD*%
D14*
%TO.P,D11,2*%
%TO.N,Net-(D11-Pad2)*%
X269400000Y-78580800D03*
%TO.P,D11,1*%
%TO.N,/row0*%
X264000000Y-78580800D03*
D12*
%TO.P,D11,2*%
%TO.N,Net-(D11-Pad2)*%
X270600000Y-78580800D03*
D11*
%TO.P,D11,1*%
%TO.N,/row0*%
X262800000Y-78580800D03*
D10*
X265125000Y-78580800D03*
%TO.P,D11,2*%
%TO.N,Net-(D11-Pad2)*%
X268275000Y-78580800D03*
%TD*%
%TO.P,D12,2*%
%TO.N,Net-(D12-Pad2)*%
X287325000Y-78580800D03*
%TO.P,D12,1*%
%TO.N,/row0*%
X284175000Y-78580800D03*
D11*
X281850000Y-78580800D03*
D12*
%TO.P,D12,2*%
%TO.N,Net-(D12-Pad2)*%
X289650000Y-78580800D03*
D14*
%TO.P,D12,1*%
%TO.N,/row0*%
X283050000Y-78580800D03*
%TO.P,D12,2*%
%TO.N,Net-(D12-Pad2)*%
X288450000Y-78580800D03*
%TD*%
%TO.P,D13,2*%
%TO.N,Net-(D13-Pad2)*%
X307500000Y-78580800D03*
%TO.P,D13,1*%
%TO.N,/row0*%
X302100000Y-78580800D03*
D12*
%TO.P,D13,2*%
%TO.N,Net-(D13-Pad2)*%
X308700000Y-78580800D03*
D11*
%TO.P,D13,1*%
%TO.N,/row0*%
X300900000Y-78580800D03*
D10*
X303225000Y-78580800D03*
%TO.P,D13,2*%
%TO.N,Net-(D13-Pad2)*%
X306375000Y-78580800D03*
%TD*%
D14*
%TO.P,D14,2*%
%TO.N,Net-(D14-Pad2)*%
X336076000Y-78580800D03*
%TO.P,D14,1*%
%TO.N,/row0*%
X330676000Y-78580800D03*
D12*
%TO.P,D14,2*%
%TO.N,Net-(D14-Pad2)*%
X337276000Y-78580800D03*
D11*
%TO.P,D14,1*%
%TO.N,/row0*%
X329476000Y-78580800D03*
D10*
X331801000Y-78580800D03*
%TO.P,D14,2*%
%TO.N,Net-(D14-Pad2)*%
X334951000Y-78580800D03*
%TD*%
D14*
%TO.P,D15,2*%
%TO.N,Net-(D15-Pad2)*%
X83662500Y-97630800D03*
%TO.P,D15,1*%
%TO.N,/row1*%
X78262500Y-97630800D03*
D12*
%TO.P,D15,2*%
%TO.N,Net-(D15-Pad2)*%
X84862500Y-97630800D03*
D11*
%TO.P,D15,1*%
%TO.N,/row1*%
X77062500Y-97630800D03*
D10*
X79387500Y-97630800D03*
%TO.P,D15,2*%
%TO.N,Net-(D15-Pad2)*%
X82537500Y-97630800D03*
%TD*%
D14*
%TO.P,D16,2*%
%TO.N,Net-(D16-Pad2)*%
X107475000Y-97630800D03*
%TO.P,D16,1*%
%TO.N,/row1*%
X102075000Y-97630800D03*
D12*
%TO.P,D16,2*%
%TO.N,Net-(D16-Pad2)*%
X108675000Y-97630800D03*
D11*
%TO.P,D16,1*%
%TO.N,/row1*%
X100875000Y-97630800D03*
D10*
X103200000Y-97630800D03*
%TO.P,D16,2*%
%TO.N,Net-(D16-Pad2)*%
X106350000Y-97630800D03*
%TD*%
%TO.P,D17,2*%
%TO.N,Net-(D17-Pad2)*%
X125400000Y-97630800D03*
%TO.P,D17,1*%
%TO.N,/row1*%
X122250000Y-97630800D03*
D11*
X119925000Y-97630800D03*
D12*
%TO.P,D17,2*%
%TO.N,Net-(D17-Pad2)*%
X127725000Y-97630800D03*
D14*
%TO.P,D17,1*%
%TO.N,/row1*%
X121125000Y-97630800D03*
%TO.P,D17,2*%
%TO.N,Net-(D17-Pad2)*%
X126525000Y-97630800D03*
%TD*%
%TO.P,D18,2*%
%TO.N,Net-(D18-Pad2)*%
X145575000Y-97630800D03*
%TO.P,D18,1*%
%TO.N,/row1*%
X140175000Y-97630800D03*
D12*
%TO.P,D18,2*%
%TO.N,Net-(D18-Pad2)*%
X146775000Y-97630800D03*
D11*
%TO.P,D18,1*%
%TO.N,/row1*%
X138975000Y-97630800D03*
D10*
X141300000Y-97630800D03*
%TO.P,D18,2*%
%TO.N,Net-(D18-Pad2)*%
X144450000Y-97630800D03*
%TD*%
D14*
%TO.P,D19,2*%
%TO.N,Net-(D19-Pad2)*%
X164626000Y-97630800D03*
%TO.P,D19,1*%
%TO.N,/row1*%
X159226000Y-97630800D03*
D12*
%TO.P,D19,2*%
%TO.N,Net-(D19-Pad2)*%
X165826000Y-97630800D03*
D11*
%TO.P,D19,1*%
%TO.N,/row1*%
X158026000Y-97630800D03*
D10*
X160351000Y-97630800D03*
%TO.P,D19,2*%
%TO.N,Net-(D19-Pad2)*%
X163501000Y-97630800D03*
%TD*%
%TO.P,D20,2*%
%TO.N,Net-(D20-Pad2)*%
X182551000Y-97630800D03*
%TO.P,D20,1*%
%TO.N,/row1*%
X179401000Y-97630800D03*
D11*
X177076000Y-97630800D03*
D12*
%TO.P,D20,2*%
%TO.N,Net-(D20-Pad2)*%
X184876000Y-97630800D03*
D14*
%TO.P,D20,1*%
%TO.N,/row1*%
X178276000Y-97630800D03*
%TO.P,D20,2*%
%TO.N,Net-(D20-Pad2)*%
X183676000Y-97630800D03*
%TD*%
D10*
%TO.P,D21,2*%
%TO.N,Net-(D21-Pad2)*%
X201601000Y-97630800D03*
%TO.P,D21,1*%
%TO.N,/row1*%
X198451000Y-97630800D03*
D11*
X196126000Y-97630800D03*
D12*
%TO.P,D21,2*%
%TO.N,Net-(D21-Pad2)*%
X203926000Y-97630800D03*
D14*
%TO.P,D21,1*%
%TO.N,/row1*%
X197326000Y-97630800D03*
%TO.P,D21,2*%
%TO.N,Net-(D21-Pad2)*%
X202726000Y-97630800D03*
%TD*%
D10*
%TO.P,D22,2*%
%TO.N,Net-(D22-Pad2)*%
X220651000Y-97630800D03*
%TO.P,D22,1*%
%TO.N,/row1*%
X217501000Y-97630800D03*
D11*
X215176000Y-97630800D03*
D12*
%TO.P,D22,2*%
%TO.N,Net-(D22-Pad2)*%
X222976000Y-97630800D03*
D14*
%TO.P,D22,1*%
%TO.N,/row1*%
X216376000Y-97630800D03*
%TO.P,D22,2*%
%TO.N,Net-(D22-Pad2)*%
X221776000Y-97630800D03*
%TD*%
%TO.P,D23,2*%
%TO.N,Net-(D23-Pad2)*%
X240826000Y-97630800D03*
%TO.P,D23,1*%
%TO.N,/row1*%
X235426000Y-97630800D03*
D12*
%TO.P,D23,2*%
%TO.N,Net-(D23-Pad2)*%
X242026000Y-97630800D03*
D11*
%TO.P,D23,1*%
%TO.N,/row1*%
X234226000Y-97630800D03*
D10*
X236551000Y-97630800D03*
%TO.P,D23,2*%
%TO.N,Net-(D23-Pad2)*%
X239701000Y-97630800D03*
%TD*%
%TO.P,D24,2*%
%TO.N,Net-(D24-Pad2)*%
X258751000Y-97630800D03*
%TO.P,D24,1*%
%TO.N,/row1*%
X255601000Y-97630800D03*
D11*
X253276000Y-97630800D03*
D12*
%TO.P,D24,2*%
%TO.N,Net-(D24-Pad2)*%
X261076000Y-97630800D03*
D14*
%TO.P,D24,1*%
%TO.N,/row1*%
X254476000Y-97630800D03*
%TO.P,D24,2*%
%TO.N,Net-(D24-Pad2)*%
X259876000Y-97630800D03*
%TD*%
%TO.P,D25,2*%
%TO.N,Net-(D25-Pad2)*%
X278926000Y-97630800D03*
%TO.P,D25,1*%
%TO.N,/row1*%
X273526000Y-97630800D03*
D12*
%TO.P,D25,2*%
%TO.N,Net-(D25-Pad2)*%
X280126000Y-97630800D03*
D11*
%TO.P,D25,1*%
%TO.N,/row1*%
X272326000Y-97630800D03*
D10*
X274651000Y-97630800D03*
%TO.P,D25,2*%
%TO.N,Net-(D25-Pad2)*%
X277801000Y-97630800D03*
%TD*%
%TO.P,D26,2*%
%TO.N,Net-(D26-Pad2)*%
X296851000Y-97630800D03*
%TO.P,D26,1*%
%TO.N,/row1*%
X293701000Y-97630800D03*
D11*
X291376000Y-97630800D03*
D12*
%TO.P,D26,2*%
%TO.N,Net-(D26-Pad2)*%
X299176000Y-97630800D03*
D14*
%TO.P,D26,1*%
%TO.N,/row1*%
X292576000Y-97630800D03*
%TO.P,D26,2*%
%TO.N,Net-(D26-Pad2)*%
X297976000Y-97630800D03*
%TD*%
%TO.P,D27,2*%
%TO.N,Net-(D27-Pad2)*%
X317026000Y-97630800D03*
%TO.P,D27,1*%
%TO.N,/row1*%
X311626000Y-97630800D03*
D12*
%TO.P,D27,2*%
%TO.N,Net-(D27-Pad2)*%
X318226000Y-97630800D03*
D11*
%TO.P,D27,1*%
%TO.N,/row1*%
X310426000Y-97630800D03*
D10*
X312751000Y-97630800D03*
%TO.P,D27,2*%
%TO.N,Net-(D27-Pad2)*%
X315901000Y-97630800D03*
%TD*%
%TO.P,D28,2*%
%TO.N,Net-(D28-Pad2)*%
X339713000Y-97630800D03*
%TO.P,D28,1*%
%TO.N,/row1*%
X336563000Y-97630800D03*
D11*
X334238000Y-97630800D03*
D12*
%TO.P,D28,2*%
%TO.N,Net-(D28-Pad2)*%
X342038000Y-97630800D03*
D14*
%TO.P,D28,1*%
%TO.N,/row1*%
X335438000Y-97630800D03*
%TO.P,D28,2*%
%TO.N,Net-(D28-Pad2)*%
X340838000Y-97630800D03*
%TD*%
D10*
%TO.P,D29,2*%
%TO.N,Net-(D29-Pad2)*%
X84918700Y-116681000D03*
%TO.P,D29,1*%
%TO.N,/row2*%
X81768700Y-116681000D03*
D11*
X79443700Y-116681000D03*
D12*
%TO.P,D29,2*%
%TO.N,Net-(D29-Pad2)*%
X87243700Y-116681000D03*
D14*
%TO.P,D29,1*%
%TO.N,/row2*%
X80643700Y-116681000D03*
%TO.P,D29,2*%
%TO.N,Net-(D29-Pad2)*%
X86043700Y-116681000D03*
%TD*%
D10*
%TO.P,D30,2*%
%TO.N,Net-(D30-Pad2)*%
X111113000Y-116681000D03*
%TO.P,D30,1*%
%TO.N,/row2*%
X107963000Y-116681000D03*
D11*
X105638000Y-116681000D03*
D12*
%TO.P,D30,2*%
%TO.N,Net-(D30-Pad2)*%
X113438000Y-116681000D03*
D14*
%TO.P,D30,1*%
%TO.N,/row2*%
X106838000Y-116681000D03*
%TO.P,D30,2*%
%TO.N,Net-(D30-Pad2)*%
X112238000Y-116681000D03*
%TD*%
D10*
%TO.P,D31,2*%
%TO.N,Net-(D31-Pad2)*%
X130163000Y-116681000D03*
%TO.P,D31,1*%
%TO.N,/row2*%
X127013000Y-116681000D03*
D11*
X124688000Y-116681000D03*
D12*
%TO.P,D31,2*%
%TO.N,Net-(D31-Pad2)*%
X132488000Y-116681000D03*
D14*
%TO.P,D31,1*%
%TO.N,/row2*%
X125888000Y-116681000D03*
%TO.P,D31,2*%
%TO.N,Net-(D31-Pad2)*%
X131288000Y-116681000D03*
%TD*%
%TO.P,D32,2*%
%TO.N,Net-(D32-Pad2)*%
X150338000Y-116681000D03*
%TO.P,D32,1*%
%TO.N,/row2*%
X144938000Y-116681000D03*
D12*
%TO.P,D32,2*%
%TO.N,Net-(D32-Pad2)*%
X151538000Y-116681000D03*
D11*
%TO.P,D32,1*%
%TO.N,/row2*%
X143738000Y-116681000D03*
D10*
X146063000Y-116681000D03*
%TO.P,D32,2*%
%TO.N,Net-(D32-Pad2)*%
X149213000Y-116681000D03*
%TD*%
%TO.P,D33,2*%
%TO.N,Net-(D33-Pad2)*%
X168263000Y-116681000D03*
%TO.P,D33,1*%
%TO.N,/row2*%
X165113000Y-116681000D03*
D11*
X162788000Y-116681000D03*
D12*
%TO.P,D33,2*%
%TO.N,Net-(D33-Pad2)*%
X170588000Y-116681000D03*
D14*
%TO.P,D33,1*%
%TO.N,/row2*%
X163988000Y-116681000D03*
%TO.P,D33,2*%
%TO.N,Net-(D33-Pad2)*%
X169388000Y-116681000D03*
%TD*%
%TO.P,D34,2*%
%TO.N,Net-(D34-Pad2)*%
X188438000Y-116681000D03*
%TO.P,D34,1*%
%TO.N,/row2*%
X183038000Y-116681000D03*
D12*
%TO.P,D34,2*%
%TO.N,Net-(D34-Pad2)*%
X189638000Y-116681000D03*
D11*
%TO.P,D34,1*%
%TO.N,/row2*%
X181838000Y-116681000D03*
D10*
X184163000Y-116681000D03*
%TO.P,D34,2*%
%TO.N,Net-(D34-Pad2)*%
X187313000Y-116681000D03*
%TD*%
%TO.P,D35,2*%
%TO.N,Net-(D35-Pad2)*%
X206363000Y-116681000D03*
%TO.P,D35,1*%
%TO.N,/row2*%
X203213000Y-116681000D03*
D11*
X200888000Y-116681000D03*
D12*
%TO.P,D35,2*%
%TO.N,Net-(D35-Pad2)*%
X208688000Y-116681000D03*
D14*
%TO.P,D35,1*%
%TO.N,/row2*%
X202088000Y-116681000D03*
%TO.P,D35,2*%
%TO.N,Net-(D35-Pad2)*%
X207488000Y-116681000D03*
%TD*%
%TO.P,D36,2*%
%TO.N,Net-(D36-Pad2)*%
X226538000Y-116681000D03*
%TO.P,D36,1*%
%TO.N,/row2*%
X221138000Y-116681000D03*
D12*
%TO.P,D36,2*%
%TO.N,Net-(D36-Pad2)*%
X227738000Y-116681000D03*
D11*
%TO.P,D36,1*%
%TO.N,/row2*%
X219938000Y-116681000D03*
D10*
X222263000Y-116681000D03*
%TO.P,D36,2*%
%TO.N,Net-(D36-Pad2)*%
X225413000Y-116681000D03*
%TD*%
%TO.P,D37,2*%
%TO.N,Net-(D37-Pad2)*%
X244463000Y-116681000D03*
%TO.P,D37,1*%
%TO.N,/row2*%
X241313000Y-116681000D03*
D11*
X238988000Y-116681000D03*
D12*
%TO.P,D37,2*%
%TO.N,Net-(D37-Pad2)*%
X246788000Y-116681000D03*
D14*
%TO.P,D37,1*%
%TO.N,/row2*%
X240188000Y-116681000D03*
%TO.P,D37,2*%
%TO.N,Net-(D37-Pad2)*%
X245588000Y-116681000D03*
%TD*%
%TO.P,D38,2*%
%TO.N,Net-(D38-Pad2)*%
X264638000Y-116681000D03*
%TO.P,D38,1*%
%TO.N,/row2*%
X259238000Y-116681000D03*
D12*
%TO.P,D38,2*%
%TO.N,Net-(D38-Pad2)*%
X265838000Y-116681000D03*
D11*
%TO.P,D38,1*%
%TO.N,/row2*%
X258038000Y-116681000D03*
D10*
X260363000Y-116681000D03*
%TO.P,D38,2*%
%TO.N,Net-(D38-Pad2)*%
X263513000Y-116681000D03*
%TD*%
%TO.P,D39,2*%
%TO.N,Net-(D39-Pad2)*%
X282679000Y-116681000D03*
%TO.P,D39,1*%
%TO.N,/row2*%
X279529000Y-116681000D03*
D11*
X277204000Y-116681000D03*
D12*
%TO.P,D39,2*%
%TO.N,Net-(D39-Pad2)*%
X285004000Y-116681000D03*
D14*
%TO.P,D39,1*%
%TO.N,/row2*%
X278404000Y-116681000D03*
%TO.P,D39,2*%
%TO.N,Net-(D39-Pad2)*%
X283804000Y-116681000D03*
%TD*%
%TO.P,D40,2*%
%TO.N,Net-(D40-Pad2)*%
X302738000Y-116681000D03*
%TO.P,D40,1*%
%TO.N,/row2*%
X297338000Y-116681000D03*
D12*
%TO.P,D40,2*%
%TO.N,Net-(D40-Pad2)*%
X303938000Y-116681000D03*
D11*
%TO.P,D40,1*%
%TO.N,/row2*%
X296138000Y-116681000D03*
D10*
X298463000Y-116681000D03*
%TO.P,D40,2*%
%TO.N,Net-(D40-Pad2)*%
X301613000Y-116681000D03*
%TD*%
D14*
%TO.P,D41,2*%
%TO.N,Net-(D41-Pad2)*%
X333694000Y-116681000D03*
%TO.P,D41,1*%
%TO.N,/row2*%
X328294000Y-116681000D03*
D12*
%TO.P,D41,2*%
%TO.N,Net-(D41-Pad2)*%
X334894000Y-116681000D03*
D11*
%TO.P,D41,1*%
%TO.N,/row2*%
X327094000Y-116681000D03*
D10*
X329419000Y-116681000D03*
%TO.P,D41,2*%
%TO.N,Net-(D41-Pad2)*%
X332569000Y-116681000D03*
%TD*%
D14*
%TO.P,D42,2*%
%TO.N,Net-(D42-Pad2)*%
X90806300Y-135731000D03*
%TO.P,D42,1*%
%TO.N,/row3*%
X85406300Y-135731000D03*
D12*
%TO.P,D42,2*%
%TO.N,Net-(D42-Pad2)*%
X92006300Y-135731000D03*
D11*
%TO.P,D42,1*%
%TO.N,/row3*%
X84206300Y-135731000D03*
D10*
X86531300Y-135731000D03*
%TO.P,D42,2*%
%TO.N,Net-(D42-Pad2)*%
X89681300Y-135731000D03*
%TD*%
%TO.P,D43,2*%
%TO.N,Net-(D43-Pad2)*%
X120637000Y-135731000D03*
%TO.P,D43,1*%
%TO.N,/row3*%
X117487000Y-135731000D03*
D11*
X115162000Y-135731000D03*
D12*
%TO.P,D43,2*%
%TO.N,Net-(D43-Pad2)*%
X122962000Y-135731000D03*
D14*
%TO.P,D43,1*%
%TO.N,/row3*%
X116362000Y-135731000D03*
%TO.P,D43,2*%
%TO.N,Net-(D43-Pad2)*%
X121762000Y-135731000D03*
%TD*%
%TO.P,D44,2*%
%TO.N,Net-(D44-Pad2)*%
X140812000Y-135731000D03*
%TO.P,D44,1*%
%TO.N,/row3*%
X135412000Y-135731000D03*
D12*
%TO.P,D44,2*%
%TO.N,Net-(D44-Pad2)*%
X142012000Y-135731000D03*
D11*
%TO.P,D44,1*%
%TO.N,/row3*%
X134212000Y-135731000D03*
D10*
X136537000Y-135731000D03*
%TO.P,D44,2*%
%TO.N,Net-(D44-Pad2)*%
X139687000Y-135731000D03*
%TD*%
%TO.P,D45,2*%
%TO.N,Net-(D45-Pad2)*%
X158737000Y-135731000D03*
%TO.P,D45,1*%
%TO.N,/row3*%
X155587000Y-135731000D03*
D11*
X153262000Y-135731000D03*
D12*
%TO.P,D45,2*%
%TO.N,Net-(D45-Pad2)*%
X161062000Y-135731000D03*
D14*
%TO.P,D45,1*%
%TO.N,/row3*%
X154462000Y-135731000D03*
%TO.P,D45,2*%
%TO.N,Net-(D45-Pad2)*%
X159862000Y-135731000D03*
%TD*%
%TO.P,D46,2*%
%TO.N,Net-(D46-Pad2)*%
X178912000Y-135731000D03*
%TO.P,D46,1*%
%TO.N,/row3*%
X173512000Y-135731000D03*
D12*
%TO.P,D46,2*%
%TO.N,Net-(D46-Pad2)*%
X180112000Y-135731000D03*
D11*
%TO.P,D46,1*%
%TO.N,/row3*%
X172312000Y-135731000D03*
D10*
X174637000Y-135731000D03*
%TO.P,D46,2*%
%TO.N,Net-(D46-Pad2)*%
X177787000Y-135731000D03*
%TD*%
%TO.P,D47,2*%
%TO.N,Net-(D47-Pad2)*%
X196837000Y-135731000D03*
%TO.P,D47,1*%
%TO.N,/row3*%
X193687000Y-135731000D03*
D11*
X191362000Y-135731000D03*
D12*
%TO.P,D47,2*%
%TO.N,Net-(D47-Pad2)*%
X199162000Y-135731000D03*
D14*
%TO.P,D47,1*%
%TO.N,/row3*%
X192562000Y-135731000D03*
%TO.P,D47,2*%
%TO.N,Net-(D47-Pad2)*%
X197962000Y-135731000D03*
%TD*%
%TO.P,D48,2*%
%TO.N,Net-(D48-Pad2)*%
X217012000Y-135731000D03*
%TO.P,D48,1*%
%TO.N,/row3*%
X211612000Y-135731000D03*
D12*
%TO.P,D48,2*%
%TO.N,Net-(D48-Pad2)*%
X218212000Y-135731000D03*
D11*
%TO.P,D48,1*%
%TO.N,/row3*%
X210412000Y-135731000D03*
D10*
X212737000Y-135731000D03*
%TO.P,D48,2*%
%TO.N,Net-(D48-Pad2)*%
X215887000Y-135731000D03*
%TD*%
%TO.P,D49,2*%
%TO.N,Net-(D49-Pad2)*%
X234937000Y-135731000D03*
%TO.P,D49,1*%
%TO.N,/row3*%
X231787000Y-135731000D03*
D11*
X229462000Y-135731000D03*
D12*
%TO.P,D49,2*%
%TO.N,Net-(D49-Pad2)*%
X237262000Y-135731000D03*
D14*
%TO.P,D49,1*%
%TO.N,/row3*%
X230662000Y-135731000D03*
%TO.P,D49,2*%
%TO.N,Net-(D49-Pad2)*%
X236062000Y-135731000D03*
%TD*%
%TO.P,D50,2*%
%TO.N,Net-(D50-Pad2)*%
X255112000Y-135731000D03*
%TO.P,D50,1*%
%TO.N,/row3*%
X249712000Y-135731000D03*
D12*
%TO.P,D50,2*%
%TO.N,Net-(D50-Pad2)*%
X256312000Y-135731000D03*
D11*
%TO.P,D50,1*%
%TO.N,/row3*%
X248512000Y-135731000D03*
D10*
X250837000Y-135731000D03*
%TO.P,D50,2*%
%TO.N,Net-(D50-Pad2)*%
X253987000Y-135731000D03*
%TD*%
D14*
%TO.P,D51,2*%
%TO.N,Net-(D51-Pad2)*%
X274162000Y-135731000D03*
%TO.P,D51,1*%
%TO.N,/row3*%
X268762000Y-135731000D03*
D12*
%TO.P,D51,2*%
%TO.N,Net-(D51-Pad2)*%
X275362000Y-135731000D03*
D11*
%TO.P,D51,1*%
%TO.N,/row3*%
X267562000Y-135731000D03*
D10*
X269887000Y-135731000D03*
%TO.P,D51,2*%
%TO.N,Net-(D51-Pad2)*%
X273037000Y-135731000D03*
%TD*%
D14*
%TO.P,D52,2*%
%TO.N,Net-(D52-Pad2)*%
X293212000Y-135731000D03*
%TO.P,D52,1*%
%TO.N,/row3*%
X287812000Y-135731000D03*
D12*
%TO.P,D52,2*%
%TO.N,Net-(D52-Pad2)*%
X294412000Y-135731000D03*
D11*
%TO.P,D52,1*%
%TO.N,/row3*%
X286612000Y-135731000D03*
D10*
X288937000Y-135731000D03*
%TO.P,D52,2*%
%TO.N,Net-(D52-Pad2)*%
X292087000Y-135731000D03*
%TD*%
%TO.P,D53,2*%
%TO.N,Net-(D53-Pad2)*%
X327807000Y-135731000D03*
%TO.P,D53,1*%
%TO.N,/row3*%
X324657000Y-135731000D03*
D11*
X322332000Y-135731000D03*
D12*
%TO.P,D53,2*%
%TO.N,Net-(D53-Pad2)*%
X330132000Y-135731000D03*
D14*
%TO.P,D53,1*%
%TO.N,/row3*%
X323532000Y-135731000D03*
%TO.P,D53,2*%
%TO.N,Net-(D53-Pad2)*%
X328932000Y-135731000D03*
%TD*%
%TO.P,D54,2*%
%TO.N,Net-(D54-Pad2)*%
X81281300Y-154781000D03*
%TO.P,D54,1*%
%TO.N,/row4*%
X75881300Y-154781000D03*
D12*
%TO.P,D54,2*%
%TO.N,Net-(D54-Pad2)*%
X82481300Y-154781000D03*
D11*
%TO.P,D54,1*%
%TO.N,/row4*%
X74681300Y-154781000D03*
D10*
X77006300Y-154781000D03*
%TO.P,D54,2*%
%TO.N,Net-(D54-Pad2)*%
X80156300Y-154781000D03*
%TD*%
%TO.P,D55,2*%
%TO.N,Net-(D55-Pad2)*%
X103969000Y-154781000D03*
%TO.P,D55,1*%
%TO.N,/row4*%
X100819000Y-154781000D03*
D11*
X98494000Y-154781000D03*
D12*
%TO.P,D55,2*%
%TO.N,Net-(D55-Pad2)*%
X106294000Y-154781000D03*
D14*
%TO.P,D55,1*%
%TO.N,/row4*%
X99694000Y-154781000D03*
%TO.P,D55,2*%
%TO.N,Net-(D55-Pad2)*%
X105094000Y-154781000D03*
%TD*%
%TO.P,D56,2*%
%TO.N,Net-(D56-Pad2)*%
X128906000Y-154781000D03*
%TO.P,D56,1*%
%TO.N,/row4*%
X123506000Y-154781000D03*
D12*
%TO.P,D56,2*%
%TO.N,Net-(D56-Pad2)*%
X130106000Y-154781000D03*
D11*
%TO.P,D56,1*%
%TO.N,/row4*%
X122306000Y-154781000D03*
D10*
X124631000Y-154781000D03*
%TO.P,D56,2*%
%TO.N,Net-(D56-Pad2)*%
X127781000Y-154781000D03*
%TD*%
%TO.P,D57,2*%
%TO.N,Net-(D57-Pad2)*%
X199219000Y-154781000D03*
%TO.P,D57,1*%
%TO.N,/row4*%
X196069000Y-154781000D03*
D11*
X193744000Y-154781000D03*
D12*
%TO.P,D57,2*%
%TO.N,Net-(D57-Pad2)*%
X201544000Y-154781000D03*
D14*
%TO.P,D57,1*%
%TO.N,/row4*%
X194944000Y-154781000D03*
%TO.P,D57,2*%
%TO.N,Net-(D57-Pad2)*%
X200344000Y-154781000D03*
%TD*%
%TO.P,D58,2*%
%TO.N,Net-(D58-Pad2)*%
X271782000Y-154781000D03*
%TO.P,D58,1*%
%TO.N,/row4*%
X266382000Y-154781000D03*
D12*
%TO.P,D58,2*%
%TO.N,Net-(D58-Pad2)*%
X272982000Y-154781000D03*
D11*
%TO.P,D58,1*%
%TO.N,/row4*%
X265182000Y-154781000D03*
D10*
X267507000Y-154781000D03*
%TO.P,D58,2*%
%TO.N,Net-(D58-Pad2)*%
X270657000Y-154781000D03*
%TD*%
%TO.P,D59,2*%
%TO.N,Net-(D59-Pad2)*%
X294469000Y-154781000D03*
%TO.P,D59,1*%
%TO.N,/row4*%
X291319000Y-154781000D03*
D11*
X288994000Y-154781000D03*
D12*
%TO.P,D59,2*%
%TO.N,Net-(D59-Pad2)*%
X296794000Y-154781000D03*
D14*
%TO.P,D59,1*%
%TO.N,/row4*%
X290194000Y-154781000D03*
%TO.P,D59,2*%
%TO.N,Net-(D59-Pad2)*%
X295594000Y-154781000D03*
%TD*%
%TO.P,D60,2*%
%TO.N,Net-(D60-Pad2)*%
X319406000Y-154781000D03*
%TO.P,D60,1*%
%TO.N,/row4*%
X314006000Y-154781000D03*
D12*
%TO.P,D60,2*%
%TO.N,Net-(D60-Pad2)*%
X320606000Y-154781000D03*
D11*
%TO.P,D60,1*%
%TO.N,/row4*%
X312806000Y-154781000D03*
D10*
X315131000Y-154781000D03*
%TO.P,D60,2*%
%TO.N,Net-(D60-Pad2)*%
X318281000Y-154781000D03*
%TD*%
%TO.P,D61,2*%
%TO.N,Net-(D61-Pad2)*%
X342093000Y-154781000D03*
%TO.P,D61,1*%
%TO.N,/row4*%
X338943000Y-154781000D03*
D11*
X336618000Y-154781000D03*
D12*
%TO.P,D61,2*%
%TO.N,Net-(D61-Pad2)*%
X344418000Y-154781000D03*
D14*
%TO.P,D61,1*%
%TO.N,/row4*%
X337818000Y-154781000D03*
%TO.P,D61,2*%
%TO.N,Net-(D61-Pad2)*%
X343218000Y-154781000D03*
%TD*%
D15*
%TO.P,SW1,S1*%
%TO.N,/col0*%
X78818700Y-66462800D03*
%TO.P,SW1,S2*%
%TO.N,Net-(D1-Pad2)*%
X73818700Y-66462800D03*
D16*
%TO.P,SW1,MP*%
%TO.N,N/C*%
X81918700Y-73462800D03*
X70718700Y-73462800D03*
D15*
%TO.P,SW1,B*%
%TO.N,/rotA*%
X78818700Y-80962800D03*
%TO.P,SW1,C*%
%TO.N,/vcc*%
X76318700Y-80962800D03*
D17*
%TO.P,SW1,A*%
%TO.N,/rotB*%
X73818700Y-80962800D03*
%TD*%
D18*
%TO.P,U1,1*%
%TO.N,/col6*%
X219392000Y-157639000D03*
D19*
%TO.P,U1,2*%
%TO.N,/col5*%
X221932000Y-157639000D03*
%TO.P,U1,3*%
%TO.N,+5V*%
X224472000Y-157639000D03*
%TO.P,U1,4*%
%TO.N,Net-(U1-Pad4)*%
X227012000Y-157639000D03*
%TO.P,U1,5*%
%TO.N,/col4*%
X229552000Y-157639000D03*
%TO.P,U1,6*%
%TO.N,/col3*%
X232092000Y-157639000D03*
%TO.P,U1,7*%
%TO.N,/col7*%
X234632000Y-157639000D03*
%TO.P,U1,8*%
%TO.N,/col9*%
X237172000Y-157639000D03*
%TO.P,U1,9*%
%TO.N,/col10*%
X239712000Y-157639000D03*
%TO.P,U1,10*%
%TO.N,Net-(U1-Pad10)*%
X242252000Y-157639000D03*
%TO.P,U1,11*%
%TO.N,/row4*%
X244792000Y-157639000D03*
%TO.P,U1,13*%
%TO.N,/col1*%
X247332000Y-142399000D03*
%TO.P,U1,14*%
%TO.N,/row2*%
X244792000Y-142399000D03*
%TO.P,U1,15*%
%TO.N,/row3*%
X242252000Y-142399000D03*
%TO.P,U1,16*%
%TO.N,/row1*%
X239712000Y-142399000D03*
%TO.P,U1,17*%
%TO.N,/rotB*%
X237172000Y-142399000D03*
%TO.P,U1,18*%
%TO.N,/rotA*%
X234632000Y-142399000D03*
%TO.P,U1,19*%
%TO.N,/col14*%
X232092000Y-142399000D03*
%TO.P,U1,20*%
%TO.N,/col13*%
X229552000Y-142399000D03*
%TO.P,U1,21*%
%TO.N,/vcc*%
X227012000Y-142399000D03*
%TO.P,U1,22*%
%TO.N,Net-(U1-Pad22)*%
X224472000Y-142399000D03*
%TO.P,U1,23*%
%TO.N,Net-(U1-Pad23)*%
X221932000Y-142399000D03*
%TO.P,U1,12*%
%TO.N,/col0*%
X247332000Y-157410400D03*
%TO.P,U1,24*%
%TO.N,/row0*%
X219392000Y-142399000D03*
%TO.P,U1,29*%
%TO.N,/col11*%
X247332000Y-144939000D03*
%TO.P,U1,28*%
%TO.N,/col12*%
X247332000Y-147479000D03*
%TO.P,U1,27*%
%TO.N,Net-(U1-Pad27)*%
X247332000Y-150019000D03*
%TO.P,U1,26*%
%TO.N,/col8*%
X247332000Y-152559000D03*
%TO.P,U1,25*%
%TO.N,/col2*%
X247332000Y-155099000D03*
%TD*%
D20*
%TO.N,/col1*%
X98776600Y-144857300D03*
%TO.N,/col2*%
X122968500Y-141762800D03*
%TO.N,/col3*%
X152772600Y-156437400D03*
%TO.N,/col5*%
X173389800Y-158150400D03*
%TO.N,/col8*%
X240037100Y-148534900D03*
%TO.N,/col11*%
X267372000Y-144939000D03*
%TO.N,/col14*%
X333707100Y-141123300D03*
%TO.N,/col0*%
X72317100Y-144951000D03*
%TD*%
D21*
%TO.N,Net-(D1-Pad2)*%
X73818700Y-66462800D02*
X77166200Y-69810300D01*
X77166200Y-69810300D02*
X81377200Y-69810300D01*
X81377200Y-69810300D02*
X85725000Y-74158100D01*
X85725000Y-74158100D02*
X85725000Y-74680800D01*
X85725000Y-74680800D02*
X85725000Y-75880800D01*
X85725000Y-75880800D02*
X85725000Y-77005800D01*
%TO.N,/row0*%
X169875000Y-78580800D02*
X170800300Y-78580800D01*
X186600000Y-78580800D02*
X185474700Y-78580800D01*
X185474700Y-78580800D02*
X184334100Y-79721400D01*
X184334100Y-79721400D02*
X171940900Y-79721400D01*
X171940900Y-79721400D02*
X170800300Y-78580800D01*
X187800000Y-78580800D02*
X186600000Y-78580800D01*
X131775000Y-78580800D02*
X132700300Y-78580800D01*
X148500000Y-78580800D02*
X147374700Y-78580800D01*
X147374700Y-78580800D02*
X146234100Y-79721400D01*
X146234100Y-79721400D02*
X133840900Y-79721400D01*
X133840900Y-79721400D02*
X132700300Y-78580800D01*
X149700000Y-78580800D02*
X148500000Y-78580800D01*
X112725000Y-78580800D02*
X113650300Y-78580800D01*
X129450000Y-78580800D02*
X128324700Y-78580800D01*
X128324700Y-78580800D02*
X127184100Y-79721400D01*
X127184100Y-79721400D02*
X114790900Y-79721400D01*
X114790900Y-79721400D02*
X113650300Y-78580800D01*
X130650000Y-78580800D02*
X129450000Y-78580800D01*
X93675000Y-78580800D02*
X94600300Y-78580800D01*
X110400000Y-78580800D02*
X109274700Y-78580800D01*
X109274700Y-78580800D02*
X108134100Y-79721400D01*
X108134100Y-79721400D02*
X95740900Y-79721400D01*
X95740900Y-79721400D02*
X94600300Y-78580800D01*
X111600000Y-78580800D02*
X110400000Y-78580800D01*
X303225000Y-78580800D02*
X304150300Y-78580800D01*
X304150300Y-78580800D02*
X305275600Y-77455500D01*
X305275600Y-77455500D02*
X327225400Y-77455500D01*
X327225400Y-77455500D02*
X328350700Y-78580800D01*
X303225000Y-78580800D02*
X302100000Y-78580800D01*
X329476000Y-78580800D02*
X328350700Y-78580800D01*
X284175000Y-78580800D02*
X285100300Y-78580800D01*
X285100300Y-78580800D02*
X286225600Y-77455500D01*
X286225600Y-77455500D02*
X298649400Y-77455500D01*
X298649400Y-77455500D02*
X299774700Y-78580800D01*
X283050000Y-78580800D02*
X284175000Y-78580800D01*
X300900000Y-78580800D02*
X299774700Y-78580800D01*
X265125000Y-78580800D02*
X266050300Y-78580800D01*
X266050300Y-78580800D02*
X267175600Y-77455500D01*
X267175600Y-77455500D02*
X279599400Y-77455500D01*
X279599400Y-77455500D02*
X280724700Y-78580800D01*
X265125000Y-78580800D02*
X264000000Y-78580800D01*
X281850000Y-78580800D02*
X280724700Y-78580800D01*
X227025000Y-78580800D02*
X227950300Y-78580800D01*
X227950300Y-78580800D02*
X229075600Y-77455500D01*
X229075600Y-77455500D02*
X241499400Y-77455500D01*
X241499400Y-77455500D02*
X242624700Y-78580800D01*
X225900000Y-78580800D02*
X227025000Y-78580800D01*
X243750000Y-78580800D02*
X242624700Y-78580800D01*
X207975000Y-78580800D02*
X208900300Y-78580800D01*
X208900300Y-78580800D02*
X210025600Y-77455500D01*
X210025600Y-77455500D02*
X222449400Y-77455500D01*
X222449400Y-77455500D02*
X223574700Y-78580800D01*
X206850000Y-78580800D02*
X207975000Y-78580800D01*
X224700000Y-78580800D02*
X223574700Y-78580800D01*
X205650000Y-78580800D02*
X204524700Y-78580800D01*
X204524700Y-78580800D02*
X203382100Y-79723400D01*
X203382100Y-79723400D02*
X190992900Y-79723400D01*
X190992900Y-79723400D02*
X189850300Y-78580800D01*
X205650000Y-78580800D02*
X206850000Y-78580800D01*
X188925000Y-78580800D02*
X189850300Y-78580800D01*
X85725000Y-82480800D02*
X85725000Y-81280800D01*
X85725000Y-81280800D02*
X85725000Y-80155800D01*
X85725000Y-80155800D02*
X86650300Y-80155800D01*
X91350000Y-78580800D02*
X88225300Y-78580800D01*
X88225300Y-78580800D02*
X86650300Y-80155800D01*
X92550000Y-78580800D02*
X91350000Y-78580800D01*
X92550000Y-78580800D02*
X93675000Y-78580800D01*
X111600000Y-78580800D02*
X112725000Y-78580800D01*
X149700000Y-78580800D02*
X150825000Y-78580800D01*
X150825000Y-78580800D02*
X151750300Y-78580800D01*
X167550000Y-78580800D02*
X166424700Y-78580800D01*
X166424700Y-78580800D02*
X165299300Y-77455400D01*
X165299300Y-77455400D02*
X152875700Y-77455400D01*
X152875700Y-77455400D02*
X151750300Y-78580800D01*
X168750000Y-78580800D02*
X167550000Y-78580800D01*
X168750000Y-78580800D02*
X169875000Y-78580800D01*
X225900000Y-78580800D02*
X224700000Y-78580800D01*
X244950000Y-78580800D02*
X243750000Y-78580800D01*
X281850000Y-78580800D02*
X283050000Y-78580800D01*
X131775000Y-78580800D02*
X130650000Y-78580800D01*
X188925000Y-78580800D02*
X187800000Y-78580800D01*
X246075000Y-78580800D02*
X247000300Y-78580800D01*
X247000300Y-78580800D02*
X248125600Y-77455500D01*
X248125600Y-77455500D02*
X260549400Y-77455500D01*
X260549400Y-77455500D02*
X261674700Y-78580800D01*
X246075000Y-78580800D02*
X244950000Y-78580800D01*
X262800000Y-78580800D02*
X261674700Y-78580800D01*
X262800000Y-78580800D02*
X264000000Y-78580800D01*
X302100000Y-78580800D02*
X300900000Y-78580800D01*
X330676000Y-78580800D02*
X329476000Y-78580800D01*
X331801000Y-78580800D02*
X330676000Y-78580800D01*
%TO.N,Net-(D2-Pad2)*%
X99150000Y-78580800D02*
X97950000Y-78580800D01*
X97950000Y-78580800D02*
X96825000Y-78580800D01*
%TO.N,Net-(D3-Pad2)*%
X118200000Y-78580800D02*
X117000000Y-78580800D01*
X117000000Y-78580800D02*
X115875000Y-78580800D01*
%TO.N,Net-(D4-Pad2)*%
X137250000Y-78580800D02*
X136050000Y-78580800D01*
X134925000Y-78580800D02*
X136050000Y-78580800D01*
%TO.N,Net-(D5-Pad2)*%
X156300000Y-78580800D02*
X155100000Y-78580800D01*
X155100000Y-78580800D02*
X153975000Y-78580800D01*
%TO.N,Net-(D6-Pad2)*%
X175350000Y-78580800D02*
X174150000Y-78580800D01*
X174150000Y-78580800D02*
X173025000Y-78580800D01*
%TO.N,Net-(D7-Pad2)*%
X194400000Y-78580800D02*
X193200000Y-78580800D01*
X192075000Y-78580800D02*
X193200000Y-78580800D01*
%TO.N,Net-(D8-Pad2)*%
X213450000Y-78580800D02*
X212250000Y-78580800D01*
X212250000Y-78580800D02*
X211125000Y-78580800D01*
%TO.N,Net-(D9-Pad2)*%
X232500000Y-78580800D02*
X231300000Y-78580800D01*
X231300000Y-78580800D02*
X230175000Y-78580800D01*
%TO.N,Net-(D10-Pad2)*%
X251550000Y-78580800D02*
X250350000Y-78580800D01*
X249225000Y-78580800D02*
X250350000Y-78580800D01*
%TO.N,Net-(D11-Pad2)*%
X270600000Y-78580800D02*
X269400000Y-78580800D01*
X268275000Y-78580800D02*
X269400000Y-78580800D01*
%TO.N,Net-(D12-Pad2)*%
X289650000Y-78580800D02*
X288450000Y-78580800D01*
X288450000Y-78580800D02*
X287325000Y-78580800D01*
%TO.N,Net-(D13-Pad2)*%
X308700000Y-78580800D02*
X307500000Y-78580800D01*
X306375000Y-78580800D02*
X307500000Y-78580800D01*
%TO.N,Net-(D14-Pad2)*%
X337276000Y-78580800D02*
X336076000Y-78580800D01*
X334951000Y-78580800D02*
X336076000Y-78580800D01*
%TO.N,Net-(D15-Pad2)*%
X84862500Y-97630800D02*
X83662500Y-97630800D01*
X82537500Y-97630800D02*
X83662500Y-97630800D01*
%TO.N,/row1*%
X198451000Y-97630800D02*
X199376300Y-97630800D01*
X215176000Y-97630800D02*
X214050700Y-97630800D01*
X214050700Y-97630800D02*
X212894600Y-96474700D01*
X212894600Y-96474700D02*
X200532400Y-96474700D01*
X200532400Y-96474700D02*
X199376300Y-97630800D01*
X216376000Y-97630800D02*
X215176000Y-97630800D01*
X198451000Y-97630800D02*
X197326000Y-97630800D01*
X80312800Y-97630800D02*
X81438100Y-96505500D01*
X81438100Y-96505500D02*
X94961600Y-96505500D01*
X94961600Y-96505500D02*
X96086900Y-97630800D01*
X96086900Y-97630800D02*
X99749700Y-97630800D01*
X160351000Y-97630800D02*
X161276300Y-97630800D01*
X177076000Y-97630800D02*
X175950700Y-97630800D01*
X175950700Y-97630800D02*
X174825300Y-96505400D01*
X174825300Y-96505400D02*
X162401700Y-96505400D01*
X162401700Y-96505400D02*
X161276300Y-97630800D01*
X178276000Y-97630800D02*
X177076000Y-97630800D01*
X102075000Y-97630800D02*
X100875000Y-97630800D01*
X103200000Y-97630800D02*
X102075000Y-97630800D01*
X255601000Y-97630800D02*
X256526300Y-97630800D01*
X256526300Y-97630800D02*
X257651600Y-96505500D01*
X257651600Y-96505500D02*
X270075400Y-96505500D01*
X270075400Y-96505500D02*
X271200700Y-97630800D01*
X254476000Y-97630800D02*
X255601000Y-97630800D01*
X272326000Y-97630800D02*
X271200700Y-97630800D01*
X273526000Y-97630800D02*
X272326000Y-97630800D01*
X236551000Y-97630800D02*
X237476300Y-97630800D01*
X237476300Y-97630800D02*
X238601600Y-96505500D01*
X238601600Y-96505500D02*
X251025400Y-96505500D01*
X251025400Y-96505500D02*
X252150700Y-97630800D01*
X236551000Y-97630800D02*
X235426000Y-97630800D01*
X253276000Y-97630800D02*
X252150700Y-97630800D01*
X254476000Y-97630800D02*
X253276000Y-97630800D01*
X312751000Y-97630800D02*
X313676300Y-97630800D01*
X313676300Y-97630800D02*
X314801600Y-96505500D01*
X314801600Y-96505500D02*
X331987400Y-96505500D01*
X331987400Y-96505500D02*
X333112700Y-97630800D01*
X312751000Y-97630800D02*
X311626000Y-97630800D01*
X334238000Y-97630800D02*
X333112700Y-97630800D01*
X293701000Y-97630800D02*
X294626300Y-97630800D01*
X294626300Y-97630800D02*
X295751600Y-96505500D01*
X295751600Y-96505500D02*
X308175400Y-96505500D01*
X308175400Y-96505500D02*
X309300700Y-97630800D01*
X292576000Y-97630800D02*
X293701000Y-97630800D01*
X310426000Y-97630800D02*
X309300700Y-97630800D01*
X311626000Y-97630800D02*
X310426000Y-97630800D01*
X274651000Y-97630800D02*
X275576300Y-97630800D01*
X275576300Y-97630800D02*
X276701600Y-96505500D01*
X276701600Y-96505500D02*
X289125400Y-96505500D01*
X289125400Y-96505500D02*
X290250700Y-97630800D01*
X274651000Y-97630800D02*
X273526000Y-97630800D01*
X291376000Y-97630800D02*
X290250700Y-97630800D01*
X121125000Y-97630800D02*
X119925000Y-97630800D01*
X121125000Y-97630800D02*
X122250000Y-97630800D01*
X122250000Y-97630800D02*
X123175300Y-97630800D01*
X138975000Y-97630800D02*
X137849700Y-97630800D01*
X137849700Y-97630800D02*
X136724300Y-96505400D01*
X136724300Y-96505400D02*
X124300700Y-96505400D01*
X124300700Y-96505400D02*
X123175300Y-97630800D01*
X140175000Y-97630800D02*
X138975000Y-97630800D01*
X178276000Y-97630800D02*
X179401000Y-97630800D01*
X179401000Y-97630800D02*
X180326300Y-97630800D01*
X196126000Y-97630800D02*
X195000700Y-97630800D01*
X195000700Y-97630800D02*
X193875300Y-96505400D01*
X193875300Y-96505400D02*
X181451700Y-96505400D01*
X181451700Y-96505400D02*
X180326300Y-97630800D01*
X197326000Y-97630800D02*
X196126000Y-97630800D01*
X216376000Y-97630800D02*
X217501000Y-97630800D01*
X217501000Y-97630800D02*
X218426300Y-97630800D01*
X234226000Y-97630800D02*
X233100700Y-97630800D01*
X233100700Y-97630800D02*
X231975300Y-96505400D01*
X231975300Y-96505400D02*
X219551700Y-96505400D01*
X219551700Y-96505400D02*
X218426300Y-97630800D01*
X235426000Y-97630800D02*
X234226000Y-97630800D01*
X291376000Y-97630800D02*
X292576000Y-97630800D01*
X335438000Y-97630800D02*
X334238000Y-97630800D01*
X335438000Y-97630800D02*
X336563000Y-97630800D01*
X79387500Y-97630800D02*
X80312800Y-97630800D01*
X78262500Y-97630800D02*
X79387500Y-97630800D01*
X100875000Y-97630800D02*
X99749700Y-97630800D01*
X77062500Y-97630800D02*
X78262500Y-97630800D01*
X141300000Y-97630800D02*
X142225300Y-97630800D01*
X142225300Y-97630800D02*
X143350600Y-96505500D01*
X143350600Y-96505500D02*
X155775400Y-96505500D01*
X155775400Y-96505500D02*
X156900700Y-97630800D01*
X141300000Y-97630800D02*
X140175000Y-97630800D01*
X158026000Y-97630800D02*
X156900700Y-97630800D01*
X160351000Y-97630800D02*
X159226000Y-97630800D01*
X158026000Y-97630800D02*
X159226000Y-97630800D01*
%TO.N,Net-(D16-Pad2)*%
X108675000Y-97630800D02*
X107475000Y-97630800D01*
X106350000Y-97630800D02*
X107475000Y-97630800D01*
%TO.N,Net-(D17-Pad2)*%
X127725000Y-97630800D02*
X126525000Y-97630800D01*
X126525000Y-97630800D02*
X125400000Y-97630800D01*
%TO.N,Net-(D18-Pad2)*%
X146775000Y-97630800D02*
X145575000Y-97630800D01*
X144450000Y-97630800D02*
X145575000Y-97630800D01*
%TO.N,Net-(D19-Pad2)*%
X165826000Y-97630800D02*
X164626000Y-97630800D01*
X163501000Y-97630800D02*
X164626000Y-97630800D01*
%TO.N,Net-(D20-Pad2)*%
X184876000Y-97630800D02*
X183676000Y-97630800D01*
X183676000Y-97630800D02*
X182551000Y-97630800D01*
%TO.N,Net-(D21-Pad2)*%
X203926000Y-97630800D02*
X202726000Y-97630800D01*
X202726000Y-97630800D02*
X201601000Y-97630800D01*
%TO.N,Net-(D22-Pad2)*%
X222976000Y-97630800D02*
X221776000Y-97630800D01*
X221776000Y-97630800D02*
X220651000Y-97630800D01*
%TO.N,Net-(D23-Pad2)*%
X242026000Y-97630800D02*
X240826000Y-97630800D01*
X239701000Y-97630800D02*
X240826000Y-97630800D01*
%TO.N,Net-(D24-Pad2)*%
X261076000Y-97630800D02*
X259876000Y-97630800D01*
X259876000Y-97630800D02*
X258751000Y-97630800D01*
%TO.N,Net-(D25-Pad2)*%
X280126000Y-97630800D02*
X278926000Y-97630800D01*
X277801000Y-97630800D02*
X278926000Y-97630800D01*
%TO.N,Net-(D26-Pad2)*%
X299176000Y-97630800D02*
X297976000Y-97630800D01*
X297976000Y-97630800D02*
X296851000Y-97630800D01*
%TO.N,Net-(D27-Pad2)*%
X318226000Y-97630800D02*
X317026000Y-97630800D01*
X315901000Y-97630800D02*
X317026000Y-97630800D01*
%TO.N,Net-(D28-Pad2)*%
X342038000Y-97630800D02*
X340838000Y-97630800D01*
X340838000Y-97630800D02*
X339713000Y-97630800D01*
%TO.N,Net-(D29-Pad2)*%
X87243700Y-116681000D02*
X86043700Y-116681000D01*
X86043700Y-116681000D02*
X84918700Y-116681000D01*
%TO.N,/row2*%
X200888000Y-116681000D02*
X199762700Y-116681000D01*
X199762700Y-116681000D02*
X198632700Y-117811000D01*
X198632700Y-117811000D02*
X186218300Y-117811000D01*
X186218300Y-117811000D02*
X185088300Y-116681000D01*
X200888000Y-116681000D02*
X202088000Y-116681000D01*
X184163000Y-116681000D02*
X185088300Y-116681000D01*
X165113000Y-116681000D02*
X166038300Y-116681000D01*
X181838000Y-116681000D02*
X180712700Y-116681000D01*
X180712700Y-116681000D02*
X179580700Y-117813000D01*
X179580700Y-117813000D02*
X167170300Y-117813000D01*
X167170300Y-117813000D02*
X166038300Y-116681000D01*
X183038000Y-116681000D02*
X181838000Y-116681000D01*
X127013000Y-116681000D02*
X127938300Y-116681000D01*
X143738000Y-116681000D02*
X142612700Y-116681000D01*
X142612700Y-116681000D02*
X141473800Y-115542100D01*
X141473800Y-115542100D02*
X129077200Y-115542100D01*
X129077200Y-115542100D02*
X127938300Y-116681000D01*
X144938000Y-116681000D02*
X143738000Y-116681000D01*
X258038000Y-116681000D02*
X256912700Y-116681000D01*
X244792000Y-120875800D02*
X244582500Y-120875800D01*
X244582500Y-120875800D02*
X241313000Y-117606300D01*
X256912700Y-116681000D02*
X252717900Y-120875800D01*
X252717900Y-120875800D02*
X244792000Y-120875800D01*
X244792000Y-142399000D02*
X244792000Y-120875800D01*
X259238000Y-116681000D02*
X258038000Y-116681000D01*
X241313000Y-116681000D02*
X241313000Y-117606300D01*
X107963000Y-116681000D02*
X108888300Y-116681000D01*
X124688000Y-116681000D02*
X123562700Y-116681000D01*
X123562700Y-116681000D02*
X122423800Y-115542100D01*
X122423800Y-115542100D02*
X110027200Y-115542100D01*
X110027200Y-115542100D02*
X108888300Y-116681000D01*
X125888000Y-116681000D02*
X124688000Y-116681000D01*
X327094000Y-116681000D02*
X325968700Y-116681000D01*
X298463000Y-116681000D02*
X299388300Y-116681000D01*
X299388300Y-116681000D02*
X300513600Y-115555700D01*
X300513600Y-115555700D02*
X324843400Y-115555700D01*
X324843400Y-115555700D02*
X325968700Y-116681000D01*
X297338000Y-116681000D02*
X298463000Y-116681000D01*
X279529000Y-116681000D02*
X280454300Y-116681000D01*
X280454300Y-116681000D02*
X281579600Y-115555700D01*
X281579600Y-115555700D02*
X293887400Y-115555700D01*
X293887400Y-115555700D02*
X295012700Y-116681000D01*
X278404000Y-116681000D02*
X279529000Y-116681000D01*
X296138000Y-116681000D02*
X295012700Y-116681000D01*
X260363000Y-116681000D02*
X261288300Y-116681000D01*
X261288300Y-116681000D02*
X262413600Y-115555700D01*
X262413600Y-115555700D02*
X274953400Y-115555700D01*
X274953400Y-115555700D02*
X276078700Y-116681000D01*
X260363000Y-116681000D02*
X259238000Y-116681000D01*
X277204000Y-116681000D02*
X276078700Y-116681000D01*
X238988000Y-116681000D02*
X237862700Y-116681000D01*
X237862700Y-116681000D02*
X236720400Y-117823300D01*
X236720400Y-117823300D02*
X224330600Y-117823300D01*
X224330600Y-117823300D02*
X223188300Y-116681000D01*
X238988000Y-116681000D02*
X240188000Y-116681000D01*
X222263000Y-116681000D02*
X223188300Y-116681000D01*
X162788000Y-116681000D02*
X163988000Y-116681000D01*
X79443700Y-116681000D02*
X80643700Y-116681000D01*
X80643700Y-116681000D02*
X81768700Y-116681000D01*
X81768700Y-116681000D02*
X82694000Y-116681000D01*
X105638000Y-116681000D02*
X104512700Y-116681000D01*
X104512700Y-116681000D02*
X103356600Y-115524900D01*
X103356600Y-115524900D02*
X83850100Y-115524900D01*
X83850100Y-115524900D02*
X82694000Y-116681000D01*
X106838000Y-116681000D02*
X105638000Y-116681000D01*
X106838000Y-116681000D02*
X107963000Y-116681000D01*
X125888000Y-116681000D02*
X127013000Y-116681000D01*
X163988000Y-116681000D02*
X165113000Y-116681000D01*
X202088000Y-116681000D02*
X203213000Y-116681000D01*
X203213000Y-116681000D02*
X204138300Y-116681000D01*
X219938000Y-116681000D02*
X218812700Y-116681000D01*
X218812700Y-116681000D02*
X217687300Y-115555600D01*
X217687300Y-115555600D02*
X205263700Y-115555600D01*
X205263700Y-115555600D02*
X204138300Y-116681000D01*
X221138000Y-116681000D02*
X219938000Y-116681000D01*
X240188000Y-116681000D02*
X241313000Y-116681000D01*
X277204000Y-116681000D02*
X278404000Y-116681000D01*
X146063000Y-116681000D02*
X144938000Y-116681000D01*
X184163000Y-116681000D02*
X183038000Y-116681000D01*
X222263000Y-116681000D02*
X221138000Y-116681000D01*
X297338000Y-116681000D02*
X296138000Y-116681000D01*
X328294000Y-116681000D02*
X327094000Y-116681000D01*
X329419000Y-116681000D02*
X328294000Y-116681000D01*
%TO.N,Net-(D30-Pad2)*%
X113438000Y-116681000D02*
X112238000Y-116681000D01*
X112238000Y-116681000D02*
X111113000Y-116681000D01*
%TO.N,Net-(D31-Pad2)*%
X132488000Y-116681000D02*
X131288000Y-116681000D01*
X131288000Y-116681000D02*
X130163000Y-116681000D01*
%TO.N,Net-(D32-Pad2)*%
X151538000Y-116681000D02*
X150338000Y-116681000D01*
X149213000Y-116681000D02*
X150338000Y-116681000D01*
%TO.N,Net-(D33-Pad2)*%
X170588000Y-116681000D02*
X169388000Y-116681000D01*
X169388000Y-116681000D02*
X168263000Y-116681000D01*
%TO.N,Net-(D34-Pad2)*%
X189638000Y-116681000D02*
X188438000Y-116681000D01*
X187313000Y-116681000D02*
X188438000Y-116681000D01*
%TO.N,Net-(D35-Pad2)*%
X208688000Y-116681000D02*
X207488000Y-116681000D01*
X207488000Y-116681000D02*
X206363000Y-116681000D01*
%TO.N,Net-(D36-Pad2)*%
X227738000Y-116681000D02*
X226538000Y-116681000D01*
X225413000Y-116681000D02*
X226538000Y-116681000D01*
%TO.N,Net-(D37-Pad2)*%
X246788000Y-116681000D02*
X245588000Y-116681000D01*
X245588000Y-116681000D02*
X244463000Y-116681000D01*
%TO.N,Net-(D38-Pad2)*%
X265838000Y-116681000D02*
X264638000Y-116681000D01*
X263513000Y-116681000D02*
X264638000Y-116681000D01*
%TO.N,Net-(D39-Pad2)*%
X285004000Y-116681000D02*
X283804000Y-116681000D01*
X283804000Y-116681000D02*
X282679000Y-116681000D01*
%TO.N,Net-(D40-Pad2)*%
X303938000Y-116681000D02*
X302738000Y-116681000D01*
X301613000Y-116681000D02*
X302738000Y-116681000D01*
%TO.N,Net-(D41-Pad2)*%
X334894000Y-116681000D02*
X333694000Y-116681000D01*
X332569000Y-116681000D02*
X333694000Y-116681000D01*
%TO.N,Net-(D42-Pad2)*%
X92006300Y-135731000D02*
X90806300Y-135731000D01*
X89681300Y-135731000D02*
X90806300Y-135731000D01*
%TO.N,/row3*%
X174637000Y-135731000D02*
X175562300Y-135731000D01*
X191362000Y-135731000D02*
X190236700Y-135731000D01*
X190236700Y-135731000D02*
X189108800Y-136858900D01*
X189108800Y-136858900D02*
X176690200Y-136858900D01*
X176690200Y-136858900D02*
X175562300Y-135731000D01*
X192562000Y-135731000D02*
X191362000Y-135731000D01*
X155587000Y-135731000D02*
X156512300Y-135731000D01*
X172312000Y-135731000D02*
X171186700Y-135731000D01*
X171186700Y-135731000D02*
X170058800Y-136858900D01*
X170058800Y-136858900D02*
X157640200Y-136858900D01*
X157640200Y-136858900D02*
X156512300Y-135731000D01*
X173512000Y-135731000D02*
X172312000Y-135731000D01*
X136537000Y-135731000D02*
X137462300Y-135731000D01*
X153262000Y-135731000D02*
X152136700Y-135731000D01*
X152136700Y-135731000D02*
X151008800Y-136858900D01*
X151008800Y-136858900D02*
X138590200Y-136858900D01*
X138590200Y-136858900D02*
X137462300Y-135731000D01*
X154462000Y-135731000D02*
X153262000Y-135731000D01*
X117487000Y-135731000D02*
X118412300Y-135731000D01*
X134212000Y-135731000D02*
X133086700Y-135731000D01*
X133086700Y-135731000D02*
X131958800Y-136858900D01*
X131958800Y-136858900D02*
X119540200Y-136858900D01*
X119540200Y-136858900D02*
X118412300Y-135731000D01*
X135412000Y-135731000D02*
X134212000Y-135731000D01*
X231787000Y-135731000D02*
X232712300Y-135731000D01*
X242252000Y-142399000D02*
X236509300Y-136656300D01*
X236509300Y-136656300D02*
X233637600Y-136656300D01*
X233637600Y-136656300D02*
X232712300Y-135731000D01*
X86531300Y-135731000D02*
X87456600Y-135731000D01*
X115162000Y-135731000D02*
X114036700Y-135731000D01*
X114036700Y-135731000D02*
X112909700Y-136858000D01*
X112909700Y-136858000D02*
X88583600Y-136858000D01*
X88583600Y-136858000D02*
X87456600Y-135731000D01*
X115462000Y-135731000D02*
X115162000Y-135731000D01*
X288937000Y-135731000D02*
X289862300Y-135731000D01*
X289862300Y-135731000D02*
X290987600Y-134605700D01*
X290987600Y-134605700D02*
X320081400Y-134605700D01*
X320081400Y-134605700D02*
X321206700Y-135731000D01*
X288937000Y-135731000D02*
X287812000Y-135731000D01*
X322332000Y-135731000D02*
X321206700Y-135731000D01*
X286612000Y-135731000D02*
X285486700Y-135731000D01*
X269887000Y-135731000D02*
X270812300Y-135731000D01*
X270812300Y-135731000D02*
X271937600Y-136856300D01*
X271937600Y-136856300D02*
X284361400Y-136856300D01*
X284361400Y-136856300D02*
X285486700Y-135731000D01*
X268762000Y-135731000D02*
X269887000Y-135731000D01*
X250837000Y-135731000D02*
X251762300Y-135731000D01*
X251762300Y-135731000D02*
X252887600Y-134605700D01*
X252887600Y-134605700D02*
X265311400Y-134605700D01*
X265311400Y-134605700D02*
X266436700Y-135731000D01*
X250837000Y-135731000D02*
X249712000Y-135731000D01*
X267562000Y-135731000D02*
X266436700Y-135731000D01*
X249712000Y-135731000D02*
X248512000Y-135731000D01*
X212737000Y-135731000D02*
X213662300Y-135731000D01*
X229462000Y-135731000D02*
X228336700Y-135731000D01*
X228336700Y-135731000D02*
X227199600Y-136868100D01*
X227199600Y-136868100D02*
X214799400Y-136868100D01*
X214799400Y-136868100D02*
X213662300Y-135731000D01*
X230662000Y-135731000D02*
X229462000Y-135731000D01*
X115762000Y-135731000D02*
X115462000Y-135731000D01*
X116362000Y-135731000D02*
X117487000Y-135731000D01*
X115762000Y-135731000D02*
X116362000Y-135731000D01*
X154462000Y-135731000D02*
X155587000Y-135731000D01*
X192562000Y-135731000D02*
X193687000Y-135731000D01*
X211612000Y-135731000D02*
X210412000Y-135731000D01*
X230662000Y-135731000D02*
X231787000Y-135731000D01*
X323532000Y-135731000D02*
X322332000Y-135731000D01*
X323532000Y-135731000D02*
X324657000Y-135731000D01*
X86531300Y-135731000D02*
X85406300Y-135731000D01*
X84206300Y-135731000D02*
X85406300Y-135731000D01*
X136537000Y-135731000D02*
X135412000Y-135731000D01*
X174637000Y-135731000D02*
X173512000Y-135731000D01*
X212737000Y-135731000D02*
X211612000Y-135731000D01*
X268762000Y-135731000D02*
X267562000Y-135731000D01*
X287812000Y-135731000D02*
X286612000Y-135731000D01*
%TO.N,Net-(D43-Pad2)*%
X122962000Y-135731000D02*
X121762000Y-135731000D01*
X121762000Y-135731000D02*
X120637000Y-135731000D01*
%TO.N,Net-(D44-Pad2)*%
X142012000Y-135731000D02*
X140812000Y-135731000D01*
X139687000Y-135731000D02*
X140812000Y-135731000D01*
%TO.N,Net-(D45-Pad2)*%
X161062000Y-135731000D02*
X159862000Y-135731000D01*
X159862000Y-135731000D02*
X158737000Y-135731000D01*
%TO.N,Net-(D46-Pad2)*%
X180112000Y-135731000D02*
X178912000Y-135731000D01*
X177787000Y-135731000D02*
X178912000Y-135731000D01*
%TO.N,Net-(D47-Pad2)*%
X199162000Y-135731000D02*
X197962000Y-135731000D01*
X197962000Y-135731000D02*
X196837000Y-135731000D01*
%TO.N,Net-(D48-Pad2)*%
X218212000Y-135731000D02*
X217012000Y-135731000D01*
X215887000Y-135731000D02*
X217012000Y-135731000D01*
%TO.N,Net-(D49-Pad2)*%
X237262000Y-135731000D02*
X236062000Y-135731000D01*
X236062000Y-135731000D02*
X234937000Y-135731000D01*
%TO.N,Net-(D50-Pad2)*%
X256312000Y-135731000D02*
X255112000Y-135731000D01*
X253987000Y-135731000D02*
X255112000Y-135731000D01*
%TO.N,Net-(D51-Pad2)*%
X275362000Y-135731000D02*
X274162000Y-135731000D01*
X273037000Y-135731000D02*
X274162000Y-135731000D01*
%TO.N,Net-(D52-Pad2)*%
X294412000Y-135731000D02*
X293212000Y-135731000D01*
X292087000Y-135731000D02*
X293212000Y-135731000D01*
%TO.N,Net-(D53-Pad2)*%
X330132000Y-135731000D02*
X328932000Y-135731000D01*
X328932000Y-135731000D02*
X327807000Y-135731000D01*
%TO.N,Net-(D54-Pad2)*%
X82481300Y-154781000D02*
X81281300Y-154781000D01*
X80156300Y-154781000D02*
X81281300Y-154781000D01*
%TO.N,/row4*%
X125556300Y-154781000D02*
X126681600Y-153655700D01*
X126681600Y-153655700D02*
X191493400Y-153655700D01*
X191493400Y-153655700D02*
X192618700Y-154781000D01*
X196994300Y-154781000D02*
X198200300Y-155987000D01*
X198200300Y-155987000D02*
X243140000Y-155987000D01*
X243140000Y-155987000D02*
X244792000Y-157639000D01*
X100819000Y-154781000D02*
X101744300Y-154781000D01*
X122306000Y-154781000D02*
X121180700Y-154781000D01*
X121180700Y-154781000D02*
X120054400Y-153654700D01*
X120054400Y-153654700D02*
X102870600Y-153654700D01*
X102870600Y-153654700D02*
X101744300Y-154781000D01*
X123506000Y-154781000D02*
X122306000Y-154781000D01*
X77006300Y-154781000D02*
X77931600Y-154781000D01*
X98494000Y-154781000D02*
X97368700Y-154781000D01*
X97368700Y-154781000D02*
X96212600Y-153624900D01*
X96212600Y-153624900D02*
X79087700Y-153624900D01*
X79087700Y-153624900D02*
X77931600Y-154781000D01*
X99694000Y-154781000D02*
X98494000Y-154781000D01*
X315131000Y-154781000D02*
X316056300Y-154781000D01*
X316056300Y-154781000D02*
X317181600Y-153655700D01*
X317181600Y-153655700D02*
X334367400Y-153655700D01*
X334367400Y-153655700D02*
X335492700Y-154781000D01*
X315131000Y-154781000D02*
X314006000Y-154781000D01*
X336618000Y-154781000D02*
X335492700Y-154781000D01*
X291319000Y-154781000D02*
X292244300Y-154781000D01*
X292244300Y-154781000D02*
X293369600Y-153655700D01*
X293369600Y-153655700D02*
X310555400Y-153655700D01*
X310555400Y-153655700D02*
X311680700Y-154781000D01*
X290194000Y-154781000D02*
X291319000Y-154781000D01*
X312806000Y-154781000D02*
X311680700Y-154781000D01*
X265182000Y-154781000D02*
X264056700Y-154781000D01*
X244792000Y-157639000D02*
X245775500Y-158622500D01*
X245775500Y-158622500D02*
X260215200Y-158622500D01*
X260215200Y-158622500D02*
X264056700Y-154781000D01*
X124631000Y-154781000D02*
X125556300Y-154781000D01*
X124631000Y-154781000D02*
X123506000Y-154781000D01*
X193744000Y-154781000D02*
X192618700Y-154781000D01*
X99694000Y-154781000D02*
X100819000Y-154781000D01*
X196069000Y-154781000D02*
X196994300Y-154781000D01*
X194944000Y-154781000D02*
X196069000Y-154781000D01*
X193744000Y-154781000D02*
X194944000Y-154781000D01*
X266382000Y-154781000D02*
X265182000Y-154781000D01*
X288994000Y-154781000D02*
X290194000Y-154781000D01*
X288431400Y-154781000D02*
X288994000Y-154781000D01*
X288431400Y-154781000D02*
X287868700Y-154781000D01*
X314006000Y-154781000D02*
X312806000Y-154781000D01*
X336618000Y-154781000D02*
X337818000Y-154781000D01*
X337818000Y-154781000D02*
X338943000Y-154781000D01*
X75881300Y-154781000D02*
X77006300Y-154781000D01*
X74681300Y-154781000D02*
X75881300Y-154781000D01*
X267507000Y-154781000D02*
X268432300Y-154781000D01*
X268432300Y-154781000D02*
X269557600Y-153655700D01*
X269557600Y-153655700D02*
X286743400Y-153655700D01*
X286743400Y-153655700D02*
X287868700Y-154781000D01*
X267507000Y-154781000D02*
X266382000Y-154781000D01*
%TO.N,Net-(D55-Pad2)*%
X106294000Y-154781000D02*
X105094000Y-154781000D01*
X105094000Y-154781000D02*
X103969000Y-154781000D01*
%TO.N,Net-(D56-Pad2)*%
X130106000Y-154781000D02*
X128906000Y-154781000D01*
X127781000Y-154781000D02*
X128906000Y-154781000D01*
%TO.N,Net-(D57-Pad2)*%
X201544000Y-154781000D02*
X200344000Y-154781000D01*
X200344000Y-154781000D02*
X199219000Y-154781000D01*
%TO.N,Net-(D58-Pad2)*%
X272982000Y-154781000D02*
X271782000Y-154781000D01*
X270657000Y-154781000D02*
X271782000Y-154781000D01*
%TO.N,Net-(D59-Pad2)*%
X296794000Y-154781000D02*
X295594000Y-154781000D01*
X295594000Y-154781000D02*
X294469000Y-154781000D01*
%TO.N,Net-(D60-Pad2)*%
X320606000Y-154781000D02*
X319406000Y-154781000D01*
X318281000Y-154781000D02*
X319406000Y-154781000D01*
%TO.N,Net-(D61-Pad2)*%
X344418000Y-154781000D02*
X343218000Y-154781000D01*
X343218000Y-154781000D02*
X342093000Y-154781000D01*
%TO.N,/col1*%
X98776600Y-144857300D02*
X102599300Y-141034600D01*
X102599300Y-141034600D02*
X203510600Y-141034600D01*
X203510600Y-141034600D02*
X206535200Y-144059200D01*
X206535200Y-144059200D02*
X245671800Y-144059200D01*
X245671800Y-144059200D02*
X247332000Y-142399000D01*
%TO.N,/col2*%
X122968500Y-141762800D02*
X201630400Y-141762800D01*
X201630400Y-141762800D02*
X209498800Y-149631200D01*
X209498800Y-149631200D02*
X241864200Y-149631200D01*
X241864200Y-149631200D02*
X247332000Y-155099000D01*
%TO.N,/col3*%
X232092000Y-157639000D02*
X230890400Y-156437400D01*
X230890400Y-156437400D02*
X152772600Y-156437400D01*
%TO.N,/col5*%
X173389800Y-158150400D02*
X174080100Y-158840700D01*
X174080100Y-158840700D02*
X220730300Y-158840700D01*
X220730300Y-158840700D02*
X221932000Y-157639000D01*
%TO.N,/col8*%
X240037100Y-148534900D02*
X243307900Y-148534900D01*
X243307900Y-148534900D02*
X247332000Y-152559000D01*
%TO.N,/col11*%
X247332000Y-144939000D02*
X267372000Y-144939000D01*
%TO.N,/col14*%
X232092000Y-142399000D02*
X233301800Y-143608800D01*
X233301800Y-143608800D02*
X245281700Y-143608800D01*
X245281700Y-143608800D02*
X246062000Y-142828500D01*
X246062000Y-142828500D02*
X246062000Y-141963700D01*
X246062000Y-141963700D02*
X246902400Y-141123300D01*
X246902400Y-141123300D02*
X333707100Y-141123300D01*
%TO.N,/col0*%
X247332000Y-157410400D02*
X242879200Y-152957600D01*
X242879200Y-152957600D02*
X84816400Y-152957600D01*
X84816400Y-152957600D02*
X76809800Y-144951000D01*
X76809800Y-144951000D02*
X72317100Y-144951000D01*
%TO.N,/rotA*%
X234632000Y-142399000D02*
X230250900Y-138017900D01*
X230250900Y-138017900D02*
X204962500Y-138017900D01*
X204962500Y-138017900D02*
X200603500Y-133658900D01*
X200603500Y-133658900D02*
X191174400Y-133658900D01*
X191174400Y-133658900D02*
X177912500Y-120397000D01*
X177912500Y-120397000D02*
X163563600Y-120397000D01*
X163563600Y-120397000D02*
X152760200Y-109593600D01*
X152760200Y-109593600D02*
X148368200Y-109593600D01*
X148368200Y-109593600D02*
X143337800Y-104563200D01*
X143337800Y-104563200D02*
X120620200Y-104563200D01*
X120620200Y-104563200D02*
X111925300Y-95868300D01*
X111925300Y-95868300D02*
X96187300Y-95868300D01*
X96187300Y-95868300D02*
X81281800Y-80962800D01*
X81281800Y-80962800D02*
X78818700Y-80962800D01*
%TO.N,/vcc*%
X227012000Y-142399000D02*
X225810300Y-141197300D01*
X225810300Y-141197300D02*
X207087800Y-141197300D01*
X207087800Y-141197300D02*
X200407200Y-134516700D01*
X200407200Y-134516700D02*
X189829200Y-134516700D01*
X189829200Y-134516700D02*
X183031600Y-127719100D01*
X183031600Y-127719100D02*
X175169400Y-127719100D01*
X175169400Y-127719100D02*
X169793600Y-122343300D01*
X169793600Y-122343300D02*
X160482000Y-122343300D01*
X160482000Y-122343300D02*
X152996300Y-114857600D01*
X152996300Y-114857600D02*
X134823100Y-114857600D01*
X134823100Y-114857600D02*
X126062700Y-106097200D01*
X126062700Y-106097200D02*
X120350400Y-106097200D01*
X120350400Y-106097200D02*
X110758600Y-96505400D01*
X110758600Y-96505400D02*
X96187500Y-96505400D01*
X96187500Y-96505400D02*
X83040800Y-83358700D01*
X83040800Y-83358700D02*
X78714600Y-83358700D01*
X78714600Y-83358700D02*
X76318700Y-80962800D01*
%TO.N,/rotB*%
X237172000Y-142399000D02*
X232136300Y-137363300D01*
X232136300Y-137363300D02*
X204952800Y-137363300D01*
X204952800Y-137363300D02*
X186295600Y-118706100D01*
X186295600Y-118706100D02*
X162728800Y-118706100D01*
X162728800Y-118706100D02*
X153124600Y-109101900D01*
X153124600Y-109101900D02*
X149806800Y-109101900D01*
X149806800Y-109101900D02*
X140721200Y-100016300D01*
X140721200Y-100016300D02*
X118349300Y-100016300D01*
X118349300Y-100016300D02*
X113712500Y-95379500D01*
X113712500Y-95379500D02*
X96335400Y-95379500D01*
X96335400Y-95379500D02*
X80515300Y-79559400D01*
X80515300Y-79559400D02*
X75222100Y-79559400D01*
X75222100Y-79559400D02*
X73818700Y-80962800D01*
%TD*%
M02*
