%TF.GenerationSoftware,KiCad,Pcbnew,(5.1.9)-1*%
%TF.CreationDate,2021-02-15T21:30:30-05:00*%
%TF.ProjectId,60percent - Copy,36307065-7263-4656-9e74-202d20436f70,rev?*%
%TF.SameCoordinates,Original*%
%TF.FileFunction,Legend,Bot*%
%TF.FilePolarity,Positive*%
%FSLAX46Y46*%
G04 Gerber Fmt 4.6, Leading zero omitted, Abs format (unit mm)*
G04 Created by KiCad (PCBNEW (5.1.9)-1) date 2021-02-15 21:30:30*
%MOMM*%
%LPD*%
G01*
G04 APERTURE LIST*
%ADD10C,0.120000*%
%ADD11C,0.381000*%
%ADD12C,0.150000*%
G04 APERTURE END LIST*
D10*
%TO.C,K1*%
X95050000Y-71118800D02*
X100150000Y-71118800D01*
X91150000Y-66918800D02*
X96250000Y-66918800D01*
X93050000Y-73118800D02*
G75*
G02*
X95050000Y-71118800I2000000J0D01*
G01*
X89150000Y-68918800D02*
G75*
G02*
X91150000Y-66918800I2000000J0D01*
G01*
%TO.C,K2*%
X110200000Y-66918800D02*
X115300000Y-66918800D01*
X114100000Y-71118800D02*
X119200000Y-71118800D01*
X108200000Y-68918800D02*
G75*
G02*
X110200000Y-66918800I2000000J0D01*
G01*
X112100000Y-73118800D02*
G75*
G02*
X114100000Y-71118800I2000000J0D01*
G01*
%TO.C,K3*%
X129250000Y-66918800D02*
X134350000Y-66918800D01*
X133150000Y-71118800D02*
X138250000Y-71118800D01*
X127250000Y-68918800D02*
G75*
G02*
X129250000Y-66918800I2000000J0D01*
G01*
X131150000Y-73118800D02*
G75*
G02*
X133150000Y-71118800I2000000J0D01*
G01*
%TO.C,K4*%
X152200000Y-71118800D02*
X157300000Y-71118800D01*
X148300000Y-66918800D02*
X153400000Y-66918800D01*
X150200000Y-73118800D02*
G75*
G02*
X152200000Y-71118800I2000000J0D01*
G01*
X146300000Y-68918800D02*
G75*
G02*
X148300000Y-66918800I2000000J0D01*
G01*
%TO.C,K5*%
X167350000Y-66918800D02*
X172450000Y-66918800D01*
X171250000Y-71118800D02*
X176350000Y-71118800D01*
X165350000Y-68918800D02*
G75*
G02*
X167350000Y-66918800I2000000J0D01*
G01*
X169250000Y-73118800D02*
G75*
G02*
X171250000Y-71118800I2000000J0D01*
G01*
%TO.C,K6*%
X190300000Y-71118800D02*
X195400000Y-71118800D01*
X186400000Y-66918800D02*
X191500000Y-66918800D01*
X188300000Y-73118800D02*
G75*
G02*
X190300000Y-71118800I2000000J0D01*
G01*
X184400000Y-68918800D02*
G75*
G02*
X186400000Y-66918800I2000000J0D01*
G01*
%TO.C,K7*%
X209350000Y-71118800D02*
X214450000Y-71118800D01*
X205450000Y-66918800D02*
X210550000Y-66918800D01*
X207350000Y-73118800D02*
G75*
G02*
X209350000Y-71118800I2000000J0D01*
G01*
X203450000Y-68918800D02*
G75*
G02*
X205450000Y-66918800I2000000J0D01*
G01*
%TO.C,K8*%
X228400000Y-71118800D02*
X233500000Y-71118800D01*
X224500000Y-66918800D02*
X229600000Y-66918800D01*
X226400000Y-73118800D02*
G75*
G02*
X228400000Y-71118800I2000000J0D01*
G01*
X222500000Y-68918800D02*
G75*
G02*
X224500000Y-66918800I2000000J0D01*
G01*
%TO.C,K9*%
X243550000Y-66918800D02*
X248650000Y-66918800D01*
X247450000Y-71118800D02*
X252550000Y-71118800D01*
X241550000Y-68918800D02*
G75*
G02*
X243550000Y-66918800I2000000J0D01*
G01*
X245450000Y-73118800D02*
G75*
G02*
X247450000Y-71118800I2000000J0D01*
G01*
%TO.C,K10*%
X262600000Y-66918800D02*
X267700000Y-66918800D01*
X266500000Y-71118800D02*
X271600000Y-71118800D01*
X260600000Y-68918800D02*
G75*
G02*
X262600000Y-66918800I2000000J0D01*
G01*
X264500000Y-73118800D02*
G75*
G02*
X266500000Y-71118800I2000000J0D01*
G01*
%TO.C,K11*%
X285550000Y-71118800D02*
X290650000Y-71118800D01*
X281650000Y-66918800D02*
X286750000Y-66918800D01*
X283550000Y-73118800D02*
G75*
G02*
X285550000Y-71118800I2000000J0D01*
G01*
X279650000Y-68918800D02*
G75*
G02*
X281650000Y-66918800I2000000J0D01*
G01*
%TO.C,K12*%
X304600000Y-71118800D02*
X309700000Y-71118800D01*
X300700000Y-66918800D02*
X305800000Y-66918800D01*
X302600000Y-73118800D02*
G75*
G02*
X304600000Y-71118800I2000000J0D01*
G01*
X298700000Y-68918800D02*
G75*
G02*
X300700000Y-66918800I2000000J0D01*
G01*
%TO.C,K13*%
X329276000Y-66918800D02*
X334376000Y-66918800D01*
X333176000Y-71118800D02*
X338276000Y-71118800D01*
X327276000Y-68918800D02*
G75*
G02*
X329276000Y-66918800I2000000J0D01*
G01*
X331176000Y-73118800D02*
G75*
G02*
X333176000Y-71118800I2000000J0D01*
G01*
%TO.C,K14*%
X76862500Y-85968800D02*
X81962500Y-85968800D01*
X80762500Y-90168800D02*
X85862500Y-90168800D01*
X74862500Y-87968800D02*
G75*
G02*
X76862500Y-85968800I2000000J0D01*
G01*
X78762500Y-92168800D02*
G75*
G02*
X80762500Y-90168800I2000000J0D01*
G01*
%TO.C,K27*%
X337938000Y-90168800D02*
X343038000Y-90168800D01*
X334038000Y-85968800D02*
X339138000Y-85968800D01*
X335938000Y-92168800D02*
G75*
G02*
X337938000Y-90168800I2000000J0D01*
G01*
X332038000Y-87968800D02*
G75*
G02*
X334038000Y-85968800I2000000J0D01*
G01*
%TO.C,K28*%
X79243700Y-105019000D02*
X84343700Y-105019000D01*
X83143700Y-109219000D02*
X88243700Y-109219000D01*
X77243700Y-107019000D02*
G75*
G02*
X79243700Y-105019000I2000000J0D01*
G01*
X81143700Y-111219000D02*
G75*
G02*
X83143700Y-109219000I2000000J0D01*
G01*
%TO.C,K29*%
X105438000Y-105019000D02*
X110538000Y-105019000D01*
X109338000Y-109219000D02*
X114438000Y-109219000D01*
X103438000Y-107019000D02*
G75*
G02*
X105438000Y-105019000I2000000J0D01*
G01*
X107338000Y-111219000D02*
G75*
G02*
X109338000Y-109219000I2000000J0D01*
G01*
%TO.C,K30*%
X128388000Y-109219000D02*
X133488000Y-109219000D01*
X124488000Y-105019000D02*
X129588000Y-105019000D01*
X126388000Y-111219000D02*
G75*
G02*
X128388000Y-109219000I2000000J0D01*
G01*
X122488000Y-107019000D02*
G75*
G02*
X124488000Y-105019000I2000000J0D01*
G01*
%TO.C,K31*%
X147438000Y-109219000D02*
X152538000Y-109219000D01*
X143538000Y-105019000D02*
X148638000Y-105019000D01*
X145438000Y-111219000D02*
G75*
G02*
X147438000Y-109219000I2000000J0D01*
G01*
X141538000Y-107019000D02*
G75*
G02*
X143538000Y-105019000I2000000J0D01*
G01*
%TO.C,K32*%
X166328000Y-109219000D02*
X171428000Y-109219000D01*
X162428000Y-105019000D02*
X167528000Y-105019000D01*
X164328000Y-111219000D02*
G75*
G02*
X166328000Y-109219000I2000000J0D01*
G01*
X160428000Y-107019000D02*
G75*
G02*
X162428000Y-105019000I2000000J0D01*
G01*
%TO.C,K33*%
X181638000Y-105019000D02*
X186738000Y-105019000D01*
X185538000Y-109219000D02*
X190638000Y-109219000D01*
X179638000Y-107019000D02*
G75*
G02*
X181638000Y-105019000I2000000J0D01*
G01*
X183538000Y-111219000D02*
G75*
G02*
X185538000Y-109219000I2000000J0D01*
G01*
%TO.C,K34*%
X204588000Y-109219000D02*
X209688000Y-109219000D01*
X200688000Y-105019000D02*
X205788000Y-105019000D01*
X202588000Y-111219000D02*
G75*
G02*
X204588000Y-109219000I2000000J0D01*
G01*
X198688000Y-107019000D02*
G75*
G02*
X200688000Y-105019000I2000000J0D01*
G01*
%TO.C,K35*%
X223638000Y-109219000D02*
X228738000Y-109219000D01*
X219738000Y-105019000D02*
X224838000Y-105019000D01*
X221638000Y-111219000D02*
G75*
G02*
X223638000Y-109219000I2000000J0D01*
G01*
X217738000Y-107019000D02*
G75*
G02*
X219738000Y-105019000I2000000J0D01*
G01*
%TO.C,K36*%
X238788000Y-105019000D02*
X243888000Y-105019000D01*
X242688000Y-109219000D02*
X247788000Y-109219000D01*
X236788000Y-107019000D02*
G75*
G02*
X238788000Y-105019000I2000000J0D01*
G01*
X240688000Y-111219000D02*
G75*
G02*
X242688000Y-109219000I2000000J0D01*
G01*
%TO.C,K37*%
X257838000Y-105019000D02*
X262938000Y-105019000D01*
X261738000Y-109219000D02*
X266838000Y-109219000D01*
X255838000Y-107019000D02*
G75*
G02*
X257838000Y-105019000I2000000J0D01*
G01*
X259738000Y-111219000D02*
G75*
G02*
X261738000Y-109219000I2000000J0D01*
G01*
%TO.C,K38*%
X276888000Y-105019000D02*
X281988000Y-105019000D01*
X280788000Y-109219000D02*
X285888000Y-109219000D01*
X274888000Y-107019000D02*
G75*
G02*
X276888000Y-105019000I2000000J0D01*
G01*
X278788000Y-111219000D02*
G75*
G02*
X280788000Y-109219000I2000000J0D01*
G01*
%TO.C,K39*%
X295938000Y-105019000D02*
X301038000Y-105019000D01*
X299838000Y-109219000D02*
X304938000Y-109219000D01*
X293938000Y-107019000D02*
G75*
G02*
X295938000Y-105019000I2000000J0D01*
G01*
X297838000Y-111219000D02*
G75*
G02*
X299838000Y-109219000I2000000J0D01*
G01*
%TO.C,K40*%
X326894000Y-105019000D02*
X331994000Y-105019000D01*
X330794000Y-109219000D02*
X335894000Y-109219000D01*
X324894000Y-107019000D02*
G75*
G02*
X326894000Y-105019000I2000000J0D01*
G01*
X328794000Y-111219000D02*
G75*
G02*
X330794000Y-109219000I2000000J0D01*
G01*
%TO.C,K41*%
X87906300Y-128269000D02*
X93006300Y-128269000D01*
X84006300Y-124069000D02*
X89106300Y-124069000D01*
X85906300Y-130269000D02*
G75*
G02*
X87906300Y-128269000I2000000J0D01*
G01*
X82006300Y-126069000D02*
G75*
G02*
X84006300Y-124069000I2000000J0D01*
G01*
%TO.C,K42*%
X114904000Y-124069000D02*
X120004000Y-124069000D01*
X118804000Y-128269000D02*
X123904000Y-128269000D01*
X112904000Y-126069000D02*
G75*
G02*
X114904000Y-124069000I2000000J0D01*
G01*
X116804000Y-130269000D02*
G75*
G02*
X118804000Y-128269000I2000000J0D01*
G01*
%TO.C,K43*%
X134012000Y-124069000D02*
X139112000Y-124069000D01*
X137912000Y-128269000D02*
X143012000Y-128269000D01*
X132012000Y-126069000D02*
G75*
G02*
X134012000Y-124069000I2000000J0D01*
G01*
X135912000Y-130269000D02*
G75*
G02*
X137912000Y-128269000I2000000J0D01*
G01*
%TO.C,K44*%
X153062000Y-124069000D02*
X158162000Y-124069000D01*
X156962000Y-128269000D02*
X162062000Y-128269000D01*
X151062000Y-126069000D02*
G75*
G02*
X153062000Y-124069000I2000000J0D01*
G01*
X154962000Y-130269000D02*
G75*
G02*
X156962000Y-128269000I2000000J0D01*
G01*
%TO.C,K45*%
X176012000Y-128269000D02*
X181112000Y-128269000D01*
X172112000Y-124069000D02*
X177212000Y-124069000D01*
X174012000Y-130269000D02*
G75*
G02*
X176012000Y-128269000I2000000J0D01*
G01*
X170112000Y-126069000D02*
G75*
G02*
X172112000Y-124069000I2000000J0D01*
G01*
%TO.C,K46*%
X195062000Y-128269000D02*
X200162000Y-128269000D01*
X191162000Y-124069000D02*
X196262000Y-124069000D01*
X193062000Y-130269000D02*
G75*
G02*
X195062000Y-128269000I2000000J0D01*
G01*
X189162000Y-126069000D02*
G75*
G02*
X191162000Y-124069000I2000000J0D01*
G01*
%TO.C,K47*%
X214112000Y-128269000D02*
X219212000Y-128269000D01*
X210212000Y-124069000D02*
X215312000Y-124069000D01*
X212112000Y-130269000D02*
G75*
G02*
X214112000Y-128269000I2000000J0D01*
G01*
X208212000Y-126069000D02*
G75*
G02*
X210212000Y-124069000I2000000J0D01*
G01*
%TO.C,K48*%
X233162000Y-128269000D02*
X238262000Y-128269000D01*
X229262000Y-124069000D02*
X234362000Y-124069000D01*
X231162000Y-130269000D02*
G75*
G02*
X233162000Y-128269000I2000000J0D01*
G01*
X227262000Y-126069000D02*
G75*
G02*
X229262000Y-124069000I2000000J0D01*
G01*
%TO.C,K49*%
X248312000Y-124069000D02*
X253412000Y-124069000D01*
X252212000Y-128269000D02*
X257312000Y-128269000D01*
X246312000Y-126069000D02*
G75*
G02*
X248312000Y-124069000I2000000J0D01*
G01*
X250212000Y-130269000D02*
G75*
G02*
X252212000Y-128269000I2000000J0D01*
G01*
%TO.C,K50*%
X267362000Y-124069000D02*
X272462000Y-124069000D01*
X271262000Y-128269000D02*
X276362000Y-128269000D01*
X265362000Y-126069000D02*
G75*
G02*
X267362000Y-124069000I2000000J0D01*
G01*
X269262000Y-130269000D02*
G75*
G02*
X271262000Y-128269000I2000000J0D01*
G01*
%TO.C,K51*%
X286412000Y-124069000D02*
X291512000Y-124069000D01*
X290312000Y-128269000D02*
X295412000Y-128269000D01*
X284412000Y-126069000D02*
G75*
G02*
X286412000Y-124069000I2000000J0D01*
G01*
X288312000Y-130269000D02*
G75*
G02*
X290312000Y-128269000I2000000J0D01*
G01*
%TO.C,K52*%
X322132000Y-124069000D02*
X327232000Y-124069000D01*
X326032000Y-128269000D02*
X331132000Y-128269000D01*
X320132000Y-126069000D02*
G75*
G02*
X322132000Y-124069000I2000000J0D01*
G01*
X324032000Y-130269000D02*
G75*
G02*
X326032000Y-128269000I2000000J0D01*
G01*
%TO.C,K53*%
X78381300Y-147319000D02*
X83481300Y-147319000D01*
X74481300Y-143119000D02*
X79581300Y-143119000D01*
X76381300Y-149319000D02*
G75*
G02*
X78381300Y-147319000I2000000J0D01*
G01*
X72481300Y-145119000D02*
G75*
G02*
X74481300Y-143119000I2000000J0D01*
G01*
%TO.C,K54*%
X98294000Y-143119000D02*
X103394000Y-143119000D01*
X102194000Y-147319000D02*
X107294000Y-147319000D01*
X96294000Y-145119000D02*
G75*
G02*
X98294000Y-143119000I2000000J0D01*
G01*
X100194000Y-149319000D02*
G75*
G02*
X102194000Y-147319000I2000000J0D01*
G01*
%TO.C,K55*%
X122106000Y-143119000D02*
X127206000Y-143119000D01*
X126006000Y-147319000D02*
X131106000Y-147319000D01*
X120106000Y-145119000D02*
G75*
G02*
X122106000Y-143119000I2000000J0D01*
G01*
X124006000Y-149319000D02*
G75*
G02*
X126006000Y-147319000I2000000J0D01*
G01*
%TO.C,K56*%
X193544000Y-143119000D02*
X198644000Y-143119000D01*
X197444000Y-147319000D02*
X202544000Y-147319000D01*
X191544000Y-145119000D02*
G75*
G02*
X193544000Y-143119000I2000000J0D01*
G01*
X195444000Y-149319000D02*
G75*
G02*
X197444000Y-147319000I2000000J0D01*
G01*
%TO.C,K57*%
X264982000Y-143119000D02*
X270082000Y-143119000D01*
X268882000Y-147319000D02*
X273982000Y-147319000D01*
X262982000Y-145119000D02*
G75*
G02*
X264982000Y-143119000I2000000J0D01*
G01*
X266882000Y-149319000D02*
G75*
G02*
X268882000Y-147319000I2000000J0D01*
G01*
%TO.C,K58*%
X292694000Y-147319000D02*
X297794000Y-147319000D01*
X288794000Y-143119000D02*
X293894000Y-143119000D01*
X290694000Y-149319000D02*
G75*
G02*
X292694000Y-147319000I2000000J0D01*
G01*
X286794000Y-145119000D02*
G75*
G02*
X288794000Y-143119000I2000000J0D01*
G01*
%TO.C,K59*%
X312606000Y-143119000D02*
X317706000Y-143119000D01*
X316506000Y-147319000D02*
X321606000Y-147319000D01*
X310606000Y-145119000D02*
G75*
G02*
X312606000Y-143119000I2000000J0D01*
G01*
X314506000Y-149319000D02*
G75*
G02*
X316506000Y-147319000I2000000J0D01*
G01*
%TO.C,K60*%
X340318000Y-147319000D02*
X345418000Y-147319000D01*
X336418000Y-143119000D02*
X341518000Y-143119000D01*
X338318000Y-149319000D02*
G75*
G02*
X340318000Y-147319000I2000000J0D01*
G01*
X334418000Y-145119000D02*
G75*
G02*
X336418000Y-143119000I2000000J0D01*
G01*
D11*
%TO.C,U1*%
X220662000Y-156369000D02*
X220662000Y-158909000D01*
X218122000Y-156369000D02*
X220662000Y-156369000D01*
D12*
G36*
X224411030Y-143974365D02*
G01*
X224511030Y-143974365D01*
X224511030Y-143874365D01*
X224411030Y-143874365D01*
X224411030Y-143974365D01*
G37*
X224411030Y-143974365D02*
X224511030Y-143974365D01*
X224511030Y-143874365D01*
X224411030Y-143874365D01*
X224411030Y-143974365D01*
G36*
X224011030Y-143774365D02*
G01*
X224811030Y-143774365D01*
X224811030Y-143674365D01*
X224011030Y-143674365D01*
X224011030Y-143774365D01*
G37*
X224011030Y-143774365D02*
X224811030Y-143774365D01*
X224811030Y-143674365D01*
X224011030Y-143674365D01*
X224011030Y-143774365D01*
G36*
X224611030Y-144174365D02*
G01*
X224811030Y-144174365D01*
X224811030Y-144074365D01*
X224611030Y-144074365D01*
X224611030Y-144174365D01*
G37*
X224611030Y-144174365D02*
X224811030Y-144174365D01*
X224811030Y-144074365D01*
X224611030Y-144074365D01*
X224611030Y-144174365D01*
G36*
X224011030Y-144174365D02*
G01*
X224311030Y-144174365D01*
X224311030Y-144074365D01*
X224011030Y-144074365D01*
X224011030Y-144174365D01*
G37*
X224011030Y-144174365D02*
X224311030Y-144174365D01*
X224311030Y-144074365D01*
X224011030Y-144074365D01*
X224011030Y-144174365D01*
G36*
X224011030Y-144174365D02*
G01*
X224111030Y-144174365D01*
X224111030Y-143674365D01*
X224011030Y-143674365D01*
X224011030Y-144174365D01*
G37*
X224011030Y-144174365D02*
X224111030Y-144174365D01*
X224111030Y-143674365D01*
X224011030Y-143674365D01*
X224011030Y-144174365D01*
D11*
X248602000Y-141129000D02*
X215582000Y-141129000D01*
X248602000Y-158909000D02*
X248602000Y-141129000D01*
X215582000Y-158909000D02*
X248602000Y-158909000D01*
X215582000Y-141129000D02*
X215582000Y-158909000D01*
X218122000Y-156369000D02*
X218122000Y-158909000D01*
D10*
%TO.C,K15*%
X100675000Y-85968800D02*
X105775000Y-85968800D01*
X104575000Y-90168800D02*
X109675000Y-90168800D01*
X102575000Y-92168800D02*
G75*
G02*
X104575000Y-90168800I2000000J0D01*
G01*
X98675000Y-87968800D02*
G75*
G02*
X100675000Y-85968800I2000000J0D01*
G01*
%TO.C,K16*%
X123625000Y-90168800D02*
X128725000Y-90168800D01*
X119725000Y-85968800D02*
X124825000Y-85968800D01*
X117725000Y-87968800D02*
G75*
G02*
X119725000Y-85968800I2000000J0D01*
G01*
X121625000Y-92168800D02*
G75*
G02*
X123625000Y-90168800I2000000J0D01*
G01*
%TO.C,K17*%
X138775000Y-85968800D02*
X143875000Y-85968800D01*
X142675000Y-90168800D02*
X147775000Y-90168800D01*
X140675000Y-92168800D02*
G75*
G02*
X142675000Y-90168800I2000000J0D01*
G01*
X136775000Y-87968800D02*
G75*
G02*
X138775000Y-85968800I2000000J0D01*
G01*
%TO.C,K18*%
X161726000Y-90168800D02*
X166826000Y-90168800D01*
X157826000Y-85968800D02*
X162926000Y-85968800D01*
X155826000Y-87968800D02*
G75*
G02*
X157826000Y-85968800I2000000J0D01*
G01*
X159726000Y-92168800D02*
G75*
G02*
X161726000Y-90168800I2000000J0D01*
G01*
%TO.C,K19*%
X180776000Y-90168800D02*
X185876000Y-90168800D01*
X176876000Y-85968800D02*
X181976000Y-85968800D01*
X174876000Y-87968800D02*
G75*
G02*
X176876000Y-85968800I2000000J0D01*
G01*
X178776000Y-92168800D02*
G75*
G02*
X180776000Y-90168800I2000000J0D01*
G01*
%TO.C,K20*%
X195926000Y-85968800D02*
X201026000Y-85968800D01*
X199826000Y-90168800D02*
X204926000Y-90168800D01*
X197826000Y-92168800D02*
G75*
G02*
X199826000Y-90168800I2000000J0D01*
G01*
X193926000Y-87968800D02*
G75*
G02*
X195926000Y-85968800I2000000J0D01*
G01*
%TO.C,K21*%
X214976000Y-85968800D02*
X220076000Y-85968800D01*
X218876000Y-90168800D02*
X223976000Y-90168800D01*
X216876000Y-92168800D02*
G75*
G02*
X218876000Y-90168800I2000000J0D01*
G01*
X212976000Y-87968800D02*
G75*
G02*
X214976000Y-85968800I2000000J0D01*
G01*
%TO.C,K22*%
X237926000Y-90168800D02*
X243026000Y-90168800D01*
X234026000Y-85968800D02*
X239126000Y-85968800D01*
X232026000Y-87968800D02*
G75*
G02*
X234026000Y-85968800I2000000J0D01*
G01*
X235926000Y-92168800D02*
G75*
G02*
X237926000Y-90168800I2000000J0D01*
G01*
%TO.C,K23*%
X256976000Y-90168800D02*
X262076000Y-90168800D01*
X253076000Y-85968800D02*
X258176000Y-85968800D01*
X251076000Y-87968800D02*
G75*
G02*
X253076000Y-85968800I2000000J0D01*
G01*
X254976000Y-92168800D02*
G75*
G02*
X256976000Y-90168800I2000000J0D01*
G01*
%TO.C,K24*%
X276026000Y-90168800D02*
X281126000Y-90168800D01*
X272126000Y-85968800D02*
X277226000Y-85968800D01*
X270126000Y-87968800D02*
G75*
G02*
X272126000Y-85968800I2000000J0D01*
G01*
X274026000Y-92168800D02*
G75*
G02*
X276026000Y-90168800I2000000J0D01*
G01*
%TO.C,K25*%
X291176000Y-85968800D02*
X296276000Y-85968800D01*
X295076000Y-90168800D02*
X300176000Y-90168800D01*
X293076000Y-92168800D02*
G75*
G02*
X295076000Y-90168800I2000000J0D01*
G01*
X289176000Y-87968800D02*
G75*
G02*
X291176000Y-85968800I2000000J0D01*
G01*
%TO.C,K26*%
X310226000Y-85968800D02*
X315326000Y-85968800D01*
X314126000Y-90168800D02*
X319226000Y-90168800D01*
X312126000Y-92168800D02*
G75*
G02*
X314126000Y-90168800I2000000J0D01*
G01*
X308226000Y-87968800D02*
G75*
G02*
X310226000Y-85968800I2000000J0D01*
G01*
%TO.C,K1*%
D12*
X95988095Y-66271180D02*
X95988095Y-65271180D01*
X95416666Y-66271180D02*
X95845238Y-65699752D01*
X95416666Y-65271180D02*
X95988095Y-65842609D01*
X94464285Y-66271180D02*
X95035714Y-66271180D01*
X94750000Y-66271180D02*
X94750000Y-65271180D01*
X94845238Y-65414038D01*
X94940476Y-65509276D01*
X95035714Y-65556895D01*
%TO.C,K2*%
X115038095Y-66271180D02*
X115038095Y-65271180D01*
X114466666Y-66271180D02*
X114895238Y-65699752D01*
X114466666Y-65271180D02*
X115038095Y-65842609D01*
X114085714Y-65366419D02*
X114038095Y-65318800D01*
X113942857Y-65271180D01*
X113704761Y-65271180D01*
X113609523Y-65318800D01*
X113561904Y-65366419D01*
X113514285Y-65461657D01*
X113514285Y-65556895D01*
X113561904Y-65699752D01*
X114133333Y-66271180D01*
X113514285Y-66271180D01*
%TO.C,K3*%
X134088095Y-66271180D02*
X134088095Y-65271180D01*
X133516666Y-66271180D02*
X133945238Y-65699752D01*
X133516666Y-65271180D02*
X134088095Y-65842609D01*
X133183333Y-65271180D02*
X132564285Y-65271180D01*
X132897619Y-65652133D01*
X132754761Y-65652133D01*
X132659523Y-65699752D01*
X132611904Y-65747371D01*
X132564285Y-65842609D01*
X132564285Y-66080704D01*
X132611904Y-66175942D01*
X132659523Y-66223561D01*
X132754761Y-66271180D01*
X133040476Y-66271180D01*
X133135714Y-66223561D01*
X133183333Y-66175942D01*
%TO.C,K4*%
X153138095Y-66271180D02*
X153138095Y-65271180D01*
X152566666Y-66271180D02*
X152995238Y-65699752D01*
X152566666Y-65271180D02*
X153138095Y-65842609D01*
X151709523Y-65604514D02*
X151709523Y-66271180D01*
X151947619Y-65223561D02*
X152185714Y-65937847D01*
X151566666Y-65937847D01*
%TO.C,K5*%
X172188095Y-66271180D02*
X172188095Y-65271180D01*
X171616666Y-66271180D02*
X172045238Y-65699752D01*
X171616666Y-65271180D02*
X172188095Y-65842609D01*
X170711904Y-65271180D02*
X171188095Y-65271180D01*
X171235714Y-65747371D01*
X171188095Y-65699752D01*
X171092857Y-65652133D01*
X170854761Y-65652133D01*
X170759523Y-65699752D01*
X170711904Y-65747371D01*
X170664285Y-65842609D01*
X170664285Y-66080704D01*
X170711904Y-66175942D01*
X170759523Y-66223561D01*
X170854761Y-66271180D01*
X171092857Y-66271180D01*
X171188095Y-66223561D01*
X171235714Y-66175942D01*
%TO.C,K6*%
X191238095Y-66271180D02*
X191238095Y-65271180D01*
X190666666Y-66271180D02*
X191095238Y-65699752D01*
X190666666Y-65271180D02*
X191238095Y-65842609D01*
X189809523Y-65271180D02*
X190000000Y-65271180D01*
X190095238Y-65318800D01*
X190142857Y-65366419D01*
X190238095Y-65509276D01*
X190285714Y-65699752D01*
X190285714Y-66080704D01*
X190238095Y-66175942D01*
X190190476Y-66223561D01*
X190095238Y-66271180D01*
X189904761Y-66271180D01*
X189809523Y-66223561D01*
X189761904Y-66175942D01*
X189714285Y-66080704D01*
X189714285Y-65842609D01*
X189761904Y-65747371D01*
X189809523Y-65699752D01*
X189904761Y-65652133D01*
X190095238Y-65652133D01*
X190190476Y-65699752D01*
X190238095Y-65747371D01*
X190285714Y-65842609D01*
%TO.C,K7*%
X210288095Y-66271180D02*
X210288095Y-65271180D01*
X209716666Y-66271180D02*
X210145238Y-65699752D01*
X209716666Y-65271180D02*
X210288095Y-65842609D01*
X209383333Y-65271180D02*
X208716666Y-65271180D01*
X209145238Y-66271180D01*
%TO.C,K8*%
X229338095Y-66271180D02*
X229338095Y-65271180D01*
X228766666Y-66271180D02*
X229195238Y-65699752D01*
X228766666Y-65271180D02*
X229338095Y-65842609D01*
X228195238Y-65699752D02*
X228290476Y-65652133D01*
X228338095Y-65604514D01*
X228385714Y-65509276D01*
X228385714Y-65461657D01*
X228338095Y-65366419D01*
X228290476Y-65318800D01*
X228195238Y-65271180D01*
X228004761Y-65271180D01*
X227909523Y-65318800D01*
X227861904Y-65366419D01*
X227814285Y-65461657D01*
X227814285Y-65509276D01*
X227861904Y-65604514D01*
X227909523Y-65652133D01*
X228004761Y-65699752D01*
X228195238Y-65699752D01*
X228290476Y-65747371D01*
X228338095Y-65794990D01*
X228385714Y-65890228D01*
X228385714Y-66080704D01*
X228338095Y-66175942D01*
X228290476Y-66223561D01*
X228195238Y-66271180D01*
X228004761Y-66271180D01*
X227909523Y-66223561D01*
X227861904Y-66175942D01*
X227814285Y-66080704D01*
X227814285Y-65890228D01*
X227861904Y-65794990D01*
X227909523Y-65747371D01*
X228004761Y-65699752D01*
%TO.C,K9*%
X248388095Y-66271180D02*
X248388095Y-65271180D01*
X247816666Y-66271180D02*
X248245238Y-65699752D01*
X247816666Y-65271180D02*
X248388095Y-65842609D01*
X247340476Y-66271180D02*
X247150000Y-66271180D01*
X247054761Y-66223561D01*
X247007142Y-66175942D01*
X246911904Y-66033085D01*
X246864285Y-65842609D01*
X246864285Y-65461657D01*
X246911904Y-65366419D01*
X246959523Y-65318800D01*
X247054761Y-65271180D01*
X247245238Y-65271180D01*
X247340476Y-65318800D01*
X247388095Y-65366419D01*
X247435714Y-65461657D01*
X247435714Y-65699752D01*
X247388095Y-65794990D01*
X247340476Y-65842609D01*
X247245238Y-65890228D01*
X247054761Y-65890228D01*
X246959523Y-65842609D01*
X246911904Y-65794990D01*
X246864285Y-65699752D01*
%TO.C,K10*%
X267914285Y-66271180D02*
X267914285Y-65271180D01*
X267342857Y-66271180D02*
X267771428Y-65699752D01*
X267342857Y-65271180D02*
X267914285Y-65842609D01*
X266390476Y-66271180D02*
X266961904Y-66271180D01*
X266676190Y-66271180D02*
X266676190Y-65271180D01*
X266771428Y-65414038D01*
X266866666Y-65509276D01*
X266961904Y-65556895D01*
X265771428Y-65271180D02*
X265676190Y-65271180D01*
X265580952Y-65318800D01*
X265533333Y-65366419D01*
X265485714Y-65461657D01*
X265438095Y-65652133D01*
X265438095Y-65890228D01*
X265485714Y-66080704D01*
X265533333Y-66175942D01*
X265580952Y-66223561D01*
X265676190Y-66271180D01*
X265771428Y-66271180D01*
X265866666Y-66223561D01*
X265914285Y-66175942D01*
X265961904Y-66080704D01*
X266009523Y-65890228D01*
X266009523Y-65652133D01*
X265961904Y-65461657D01*
X265914285Y-65366419D01*
X265866666Y-65318800D01*
X265771428Y-65271180D01*
%TO.C,K11*%
X286964285Y-66271180D02*
X286964285Y-65271180D01*
X286392857Y-66271180D02*
X286821428Y-65699752D01*
X286392857Y-65271180D02*
X286964285Y-65842609D01*
X285440476Y-66271180D02*
X286011904Y-66271180D01*
X285726190Y-66271180D02*
X285726190Y-65271180D01*
X285821428Y-65414038D01*
X285916666Y-65509276D01*
X286011904Y-65556895D01*
X284488095Y-66271180D02*
X285059523Y-66271180D01*
X284773809Y-66271180D02*
X284773809Y-65271180D01*
X284869047Y-65414038D01*
X284964285Y-65509276D01*
X285059523Y-65556895D01*
%TO.C,K12*%
X306014285Y-66271180D02*
X306014285Y-65271180D01*
X305442857Y-66271180D02*
X305871428Y-65699752D01*
X305442857Y-65271180D02*
X306014285Y-65842609D01*
X304490476Y-66271180D02*
X305061904Y-66271180D01*
X304776190Y-66271180D02*
X304776190Y-65271180D01*
X304871428Y-65414038D01*
X304966666Y-65509276D01*
X305061904Y-65556895D01*
X304109523Y-65366419D02*
X304061904Y-65318800D01*
X303966666Y-65271180D01*
X303728571Y-65271180D01*
X303633333Y-65318800D01*
X303585714Y-65366419D01*
X303538095Y-65461657D01*
X303538095Y-65556895D01*
X303585714Y-65699752D01*
X304157142Y-66271180D01*
X303538095Y-66271180D01*
%TO.C,K13*%
X334590285Y-66271180D02*
X334590285Y-65271180D01*
X334018857Y-66271180D02*
X334447428Y-65699752D01*
X334018857Y-65271180D02*
X334590285Y-65842609D01*
X333066476Y-66271180D02*
X333637904Y-66271180D01*
X333352190Y-66271180D02*
X333352190Y-65271180D01*
X333447428Y-65414038D01*
X333542666Y-65509276D01*
X333637904Y-65556895D01*
X332733142Y-65271180D02*
X332114095Y-65271180D01*
X332447428Y-65652133D01*
X332304571Y-65652133D01*
X332209333Y-65699752D01*
X332161714Y-65747371D01*
X332114095Y-65842609D01*
X332114095Y-66080704D01*
X332161714Y-66175942D01*
X332209333Y-66223561D01*
X332304571Y-66271180D01*
X332590285Y-66271180D01*
X332685523Y-66223561D01*
X332733142Y-66175942D01*
%TO.C,K14*%
X82176785Y-85321180D02*
X82176785Y-84321180D01*
X81605357Y-85321180D02*
X82033928Y-84749752D01*
X81605357Y-84321180D02*
X82176785Y-84892609D01*
X80652976Y-85321180D02*
X81224404Y-85321180D01*
X80938690Y-85321180D02*
X80938690Y-84321180D01*
X81033928Y-84464038D01*
X81129166Y-84559276D01*
X81224404Y-84606895D01*
X79795833Y-84654514D02*
X79795833Y-85321180D01*
X80033928Y-84273561D02*
X80272023Y-84987847D01*
X79652976Y-84987847D01*
%TO.C,K27*%
X339352285Y-85321180D02*
X339352285Y-84321180D01*
X338780857Y-85321180D02*
X339209428Y-84749752D01*
X338780857Y-84321180D02*
X339352285Y-84892609D01*
X338399904Y-84416419D02*
X338352285Y-84368800D01*
X338257047Y-84321180D01*
X338018952Y-84321180D01*
X337923714Y-84368800D01*
X337876095Y-84416419D01*
X337828476Y-84511657D01*
X337828476Y-84606895D01*
X337876095Y-84749752D01*
X338447523Y-85321180D01*
X337828476Y-85321180D01*
X337495142Y-84321180D02*
X336828476Y-84321180D01*
X337257047Y-85321180D01*
%TO.C,K28*%
X84557985Y-104371380D02*
X84557985Y-103371380D01*
X83986557Y-104371380D02*
X84415128Y-103799952D01*
X83986557Y-103371380D02*
X84557985Y-103942809D01*
X83605604Y-103466619D02*
X83557985Y-103419000D01*
X83462747Y-103371380D01*
X83224652Y-103371380D01*
X83129414Y-103419000D01*
X83081795Y-103466619D01*
X83034176Y-103561857D01*
X83034176Y-103657095D01*
X83081795Y-103799952D01*
X83653223Y-104371380D01*
X83034176Y-104371380D01*
X82462747Y-103799952D02*
X82557985Y-103752333D01*
X82605604Y-103704714D01*
X82653223Y-103609476D01*
X82653223Y-103561857D01*
X82605604Y-103466619D01*
X82557985Y-103419000D01*
X82462747Y-103371380D01*
X82272271Y-103371380D01*
X82177033Y-103419000D01*
X82129414Y-103466619D01*
X82081795Y-103561857D01*
X82081795Y-103609476D01*
X82129414Y-103704714D01*
X82177033Y-103752333D01*
X82272271Y-103799952D01*
X82462747Y-103799952D01*
X82557985Y-103847571D01*
X82605604Y-103895190D01*
X82653223Y-103990428D01*
X82653223Y-104180904D01*
X82605604Y-104276142D01*
X82557985Y-104323761D01*
X82462747Y-104371380D01*
X82272271Y-104371380D01*
X82177033Y-104323761D01*
X82129414Y-104276142D01*
X82081795Y-104180904D01*
X82081795Y-103990428D01*
X82129414Y-103895190D01*
X82177033Y-103847571D01*
X82272271Y-103799952D01*
%TO.C,K29*%
X110752285Y-104371380D02*
X110752285Y-103371380D01*
X110180857Y-104371380D02*
X110609428Y-103799952D01*
X110180857Y-103371380D02*
X110752285Y-103942809D01*
X109799904Y-103466619D02*
X109752285Y-103419000D01*
X109657047Y-103371380D01*
X109418952Y-103371380D01*
X109323714Y-103419000D01*
X109276095Y-103466619D01*
X109228476Y-103561857D01*
X109228476Y-103657095D01*
X109276095Y-103799952D01*
X109847523Y-104371380D01*
X109228476Y-104371380D01*
X108752285Y-104371380D02*
X108561809Y-104371380D01*
X108466571Y-104323761D01*
X108418952Y-104276142D01*
X108323714Y-104133285D01*
X108276095Y-103942809D01*
X108276095Y-103561857D01*
X108323714Y-103466619D01*
X108371333Y-103419000D01*
X108466571Y-103371380D01*
X108657047Y-103371380D01*
X108752285Y-103419000D01*
X108799904Y-103466619D01*
X108847523Y-103561857D01*
X108847523Y-103799952D01*
X108799904Y-103895190D01*
X108752285Y-103942809D01*
X108657047Y-103990428D01*
X108466571Y-103990428D01*
X108371333Y-103942809D01*
X108323714Y-103895190D01*
X108276095Y-103799952D01*
%TO.C,K30*%
X129802285Y-104371380D02*
X129802285Y-103371380D01*
X129230857Y-104371380D02*
X129659428Y-103799952D01*
X129230857Y-103371380D02*
X129802285Y-103942809D01*
X128897523Y-103371380D02*
X128278476Y-103371380D01*
X128611809Y-103752333D01*
X128468952Y-103752333D01*
X128373714Y-103799952D01*
X128326095Y-103847571D01*
X128278476Y-103942809D01*
X128278476Y-104180904D01*
X128326095Y-104276142D01*
X128373714Y-104323761D01*
X128468952Y-104371380D01*
X128754666Y-104371380D01*
X128849904Y-104323761D01*
X128897523Y-104276142D01*
X127659428Y-103371380D02*
X127564190Y-103371380D01*
X127468952Y-103419000D01*
X127421333Y-103466619D01*
X127373714Y-103561857D01*
X127326095Y-103752333D01*
X127326095Y-103990428D01*
X127373714Y-104180904D01*
X127421333Y-104276142D01*
X127468952Y-104323761D01*
X127564190Y-104371380D01*
X127659428Y-104371380D01*
X127754666Y-104323761D01*
X127802285Y-104276142D01*
X127849904Y-104180904D01*
X127897523Y-103990428D01*
X127897523Y-103752333D01*
X127849904Y-103561857D01*
X127802285Y-103466619D01*
X127754666Y-103419000D01*
X127659428Y-103371380D01*
%TO.C,K31*%
X148852285Y-104371380D02*
X148852285Y-103371380D01*
X148280857Y-104371380D02*
X148709428Y-103799952D01*
X148280857Y-103371380D02*
X148852285Y-103942809D01*
X147947523Y-103371380D02*
X147328476Y-103371380D01*
X147661809Y-103752333D01*
X147518952Y-103752333D01*
X147423714Y-103799952D01*
X147376095Y-103847571D01*
X147328476Y-103942809D01*
X147328476Y-104180904D01*
X147376095Y-104276142D01*
X147423714Y-104323761D01*
X147518952Y-104371380D01*
X147804666Y-104371380D01*
X147899904Y-104323761D01*
X147947523Y-104276142D01*
X146376095Y-104371380D02*
X146947523Y-104371380D01*
X146661809Y-104371380D02*
X146661809Y-103371380D01*
X146757047Y-103514238D01*
X146852285Y-103609476D01*
X146947523Y-103657095D01*
%TO.C,K32*%
X167742285Y-104371380D02*
X167742285Y-103371380D01*
X167170857Y-104371380D02*
X167599428Y-103799952D01*
X167170857Y-103371380D02*
X167742285Y-103942809D01*
X166837523Y-103371380D02*
X166218476Y-103371380D01*
X166551809Y-103752333D01*
X166408952Y-103752333D01*
X166313714Y-103799952D01*
X166266095Y-103847571D01*
X166218476Y-103942809D01*
X166218476Y-104180904D01*
X166266095Y-104276142D01*
X166313714Y-104323761D01*
X166408952Y-104371380D01*
X166694666Y-104371380D01*
X166789904Y-104323761D01*
X166837523Y-104276142D01*
X165837523Y-103466619D02*
X165789904Y-103419000D01*
X165694666Y-103371380D01*
X165456571Y-103371380D01*
X165361333Y-103419000D01*
X165313714Y-103466619D01*
X165266095Y-103561857D01*
X165266095Y-103657095D01*
X165313714Y-103799952D01*
X165885142Y-104371380D01*
X165266095Y-104371380D01*
%TO.C,K33*%
X186952285Y-104371380D02*
X186952285Y-103371380D01*
X186380857Y-104371380D02*
X186809428Y-103799952D01*
X186380857Y-103371380D02*
X186952285Y-103942809D01*
X186047523Y-103371380D02*
X185428476Y-103371380D01*
X185761809Y-103752333D01*
X185618952Y-103752333D01*
X185523714Y-103799952D01*
X185476095Y-103847571D01*
X185428476Y-103942809D01*
X185428476Y-104180904D01*
X185476095Y-104276142D01*
X185523714Y-104323761D01*
X185618952Y-104371380D01*
X185904666Y-104371380D01*
X185999904Y-104323761D01*
X186047523Y-104276142D01*
X185095142Y-103371380D02*
X184476095Y-103371380D01*
X184809428Y-103752333D01*
X184666571Y-103752333D01*
X184571333Y-103799952D01*
X184523714Y-103847571D01*
X184476095Y-103942809D01*
X184476095Y-104180904D01*
X184523714Y-104276142D01*
X184571333Y-104323761D01*
X184666571Y-104371380D01*
X184952285Y-104371380D01*
X185047523Y-104323761D01*
X185095142Y-104276142D01*
%TO.C,K34*%
X206002285Y-104371380D02*
X206002285Y-103371380D01*
X205430857Y-104371380D02*
X205859428Y-103799952D01*
X205430857Y-103371380D02*
X206002285Y-103942809D01*
X205097523Y-103371380D02*
X204478476Y-103371380D01*
X204811809Y-103752333D01*
X204668952Y-103752333D01*
X204573714Y-103799952D01*
X204526095Y-103847571D01*
X204478476Y-103942809D01*
X204478476Y-104180904D01*
X204526095Y-104276142D01*
X204573714Y-104323761D01*
X204668952Y-104371380D01*
X204954666Y-104371380D01*
X205049904Y-104323761D01*
X205097523Y-104276142D01*
X203621333Y-103704714D02*
X203621333Y-104371380D01*
X203859428Y-103323761D02*
X204097523Y-104038047D01*
X203478476Y-104038047D01*
%TO.C,K35*%
X225052285Y-104371380D02*
X225052285Y-103371380D01*
X224480857Y-104371380D02*
X224909428Y-103799952D01*
X224480857Y-103371380D02*
X225052285Y-103942809D01*
X224147523Y-103371380D02*
X223528476Y-103371380D01*
X223861809Y-103752333D01*
X223718952Y-103752333D01*
X223623714Y-103799952D01*
X223576095Y-103847571D01*
X223528476Y-103942809D01*
X223528476Y-104180904D01*
X223576095Y-104276142D01*
X223623714Y-104323761D01*
X223718952Y-104371380D01*
X224004666Y-104371380D01*
X224099904Y-104323761D01*
X224147523Y-104276142D01*
X222623714Y-103371380D02*
X223099904Y-103371380D01*
X223147523Y-103847571D01*
X223099904Y-103799952D01*
X223004666Y-103752333D01*
X222766571Y-103752333D01*
X222671333Y-103799952D01*
X222623714Y-103847571D01*
X222576095Y-103942809D01*
X222576095Y-104180904D01*
X222623714Y-104276142D01*
X222671333Y-104323761D01*
X222766571Y-104371380D01*
X223004666Y-104371380D01*
X223099904Y-104323761D01*
X223147523Y-104276142D01*
%TO.C,K36*%
X244102285Y-104371380D02*
X244102285Y-103371380D01*
X243530857Y-104371380D02*
X243959428Y-103799952D01*
X243530857Y-103371380D02*
X244102285Y-103942809D01*
X243197523Y-103371380D02*
X242578476Y-103371380D01*
X242911809Y-103752333D01*
X242768952Y-103752333D01*
X242673714Y-103799952D01*
X242626095Y-103847571D01*
X242578476Y-103942809D01*
X242578476Y-104180904D01*
X242626095Y-104276142D01*
X242673714Y-104323761D01*
X242768952Y-104371380D01*
X243054666Y-104371380D01*
X243149904Y-104323761D01*
X243197523Y-104276142D01*
X241721333Y-103371380D02*
X241911809Y-103371380D01*
X242007047Y-103419000D01*
X242054666Y-103466619D01*
X242149904Y-103609476D01*
X242197523Y-103799952D01*
X242197523Y-104180904D01*
X242149904Y-104276142D01*
X242102285Y-104323761D01*
X242007047Y-104371380D01*
X241816571Y-104371380D01*
X241721333Y-104323761D01*
X241673714Y-104276142D01*
X241626095Y-104180904D01*
X241626095Y-103942809D01*
X241673714Y-103847571D01*
X241721333Y-103799952D01*
X241816571Y-103752333D01*
X242007047Y-103752333D01*
X242102285Y-103799952D01*
X242149904Y-103847571D01*
X242197523Y-103942809D01*
%TO.C,K37*%
X263152285Y-104371380D02*
X263152285Y-103371380D01*
X262580857Y-104371380D02*
X263009428Y-103799952D01*
X262580857Y-103371380D02*
X263152285Y-103942809D01*
X262247523Y-103371380D02*
X261628476Y-103371380D01*
X261961809Y-103752333D01*
X261818952Y-103752333D01*
X261723714Y-103799952D01*
X261676095Y-103847571D01*
X261628476Y-103942809D01*
X261628476Y-104180904D01*
X261676095Y-104276142D01*
X261723714Y-104323761D01*
X261818952Y-104371380D01*
X262104666Y-104371380D01*
X262199904Y-104323761D01*
X262247523Y-104276142D01*
X261295142Y-103371380D02*
X260628476Y-103371380D01*
X261057047Y-104371380D01*
%TO.C,K38*%
X282202285Y-104371380D02*
X282202285Y-103371380D01*
X281630857Y-104371380D02*
X282059428Y-103799952D01*
X281630857Y-103371380D02*
X282202285Y-103942809D01*
X281297523Y-103371380D02*
X280678476Y-103371380D01*
X281011809Y-103752333D01*
X280868952Y-103752333D01*
X280773714Y-103799952D01*
X280726095Y-103847571D01*
X280678476Y-103942809D01*
X280678476Y-104180904D01*
X280726095Y-104276142D01*
X280773714Y-104323761D01*
X280868952Y-104371380D01*
X281154666Y-104371380D01*
X281249904Y-104323761D01*
X281297523Y-104276142D01*
X280107047Y-103799952D02*
X280202285Y-103752333D01*
X280249904Y-103704714D01*
X280297523Y-103609476D01*
X280297523Y-103561857D01*
X280249904Y-103466619D01*
X280202285Y-103419000D01*
X280107047Y-103371380D01*
X279916571Y-103371380D01*
X279821333Y-103419000D01*
X279773714Y-103466619D01*
X279726095Y-103561857D01*
X279726095Y-103609476D01*
X279773714Y-103704714D01*
X279821333Y-103752333D01*
X279916571Y-103799952D01*
X280107047Y-103799952D01*
X280202285Y-103847571D01*
X280249904Y-103895190D01*
X280297523Y-103990428D01*
X280297523Y-104180904D01*
X280249904Y-104276142D01*
X280202285Y-104323761D01*
X280107047Y-104371380D01*
X279916571Y-104371380D01*
X279821333Y-104323761D01*
X279773714Y-104276142D01*
X279726095Y-104180904D01*
X279726095Y-103990428D01*
X279773714Y-103895190D01*
X279821333Y-103847571D01*
X279916571Y-103799952D01*
%TO.C,K39*%
X301252285Y-104371380D02*
X301252285Y-103371380D01*
X300680857Y-104371380D02*
X301109428Y-103799952D01*
X300680857Y-103371380D02*
X301252285Y-103942809D01*
X300347523Y-103371380D02*
X299728476Y-103371380D01*
X300061809Y-103752333D01*
X299918952Y-103752333D01*
X299823714Y-103799952D01*
X299776095Y-103847571D01*
X299728476Y-103942809D01*
X299728476Y-104180904D01*
X299776095Y-104276142D01*
X299823714Y-104323761D01*
X299918952Y-104371380D01*
X300204666Y-104371380D01*
X300299904Y-104323761D01*
X300347523Y-104276142D01*
X299252285Y-104371380D02*
X299061809Y-104371380D01*
X298966571Y-104323761D01*
X298918952Y-104276142D01*
X298823714Y-104133285D01*
X298776095Y-103942809D01*
X298776095Y-103561857D01*
X298823714Y-103466619D01*
X298871333Y-103419000D01*
X298966571Y-103371380D01*
X299157047Y-103371380D01*
X299252285Y-103419000D01*
X299299904Y-103466619D01*
X299347523Y-103561857D01*
X299347523Y-103799952D01*
X299299904Y-103895190D01*
X299252285Y-103942809D01*
X299157047Y-103990428D01*
X298966571Y-103990428D01*
X298871333Y-103942809D01*
X298823714Y-103895190D01*
X298776095Y-103799952D01*
%TO.C,K40*%
X332208285Y-104371380D02*
X332208285Y-103371380D01*
X331636857Y-104371380D02*
X332065428Y-103799952D01*
X331636857Y-103371380D02*
X332208285Y-103942809D01*
X330779714Y-103704714D02*
X330779714Y-104371380D01*
X331017809Y-103323761D02*
X331255904Y-104038047D01*
X330636857Y-104038047D01*
X330065428Y-103371380D02*
X329970190Y-103371380D01*
X329874952Y-103419000D01*
X329827333Y-103466619D01*
X329779714Y-103561857D01*
X329732095Y-103752333D01*
X329732095Y-103990428D01*
X329779714Y-104180904D01*
X329827333Y-104276142D01*
X329874952Y-104323761D01*
X329970190Y-104371380D01*
X330065428Y-104371380D01*
X330160666Y-104323761D01*
X330208285Y-104276142D01*
X330255904Y-104180904D01*
X330303523Y-103990428D01*
X330303523Y-103752333D01*
X330255904Y-103561857D01*
X330208285Y-103466619D01*
X330160666Y-103419000D01*
X330065428Y-103371380D01*
%TO.C,K41*%
X89320585Y-123421380D02*
X89320585Y-122421380D01*
X88749157Y-123421380D02*
X89177728Y-122849952D01*
X88749157Y-122421380D02*
X89320585Y-122992809D01*
X87892014Y-122754714D02*
X87892014Y-123421380D01*
X88130109Y-122373761D02*
X88368204Y-123088047D01*
X87749157Y-123088047D01*
X86844395Y-123421380D02*
X87415823Y-123421380D01*
X87130109Y-123421380D02*
X87130109Y-122421380D01*
X87225347Y-122564238D01*
X87320585Y-122659476D01*
X87415823Y-122707095D01*
%TO.C,K42*%
X120218285Y-123421380D02*
X120218285Y-122421380D01*
X119646857Y-123421380D02*
X120075428Y-122849952D01*
X119646857Y-122421380D02*
X120218285Y-122992809D01*
X118789714Y-122754714D02*
X118789714Y-123421380D01*
X119027809Y-122373761D02*
X119265904Y-123088047D01*
X118646857Y-123088047D01*
X118313523Y-122516619D02*
X118265904Y-122469000D01*
X118170666Y-122421380D01*
X117932571Y-122421380D01*
X117837333Y-122469000D01*
X117789714Y-122516619D01*
X117742095Y-122611857D01*
X117742095Y-122707095D01*
X117789714Y-122849952D01*
X118361142Y-123421380D01*
X117742095Y-123421380D01*
%TO.C,K43*%
X139326285Y-123421380D02*
X139326285Y-122421380D01*
X138754857Y-123421380D02*
X139183428Y-122849952D01*
X138754857Y-122421380D02*
X139326285Y-122992809D01*
X137897714Y-122754714D02*
X137897714Y-123421380D01*
X138135809Y-122373761D02*
X138373904Y-123088047D01*
X137754857Y-123088047D01*
X137469142Y-122421380D02*
X136850095Y-122421380D01*
X137183428Y-122802333D01*
X137040571Y-122802333D01*
X136945333Y-122849952D01*
X136897714Y-122897571D01*
X136850095Y-122992809D01*
X136850095Y-123230904D01*
X136897714Y-123326142D01*
X136945333Y-123373761D01*
X137040571Y-123421380D01*
X137326285Y-123421380D01*
X137421523Y-123373761D01*
X137469142Y-123326142D01*
%TO.C,K44*%
X158376285Y-123421380D02*
X158376285Y-122421380D01*
X157804857Y-123421380D02*
X158233428Y-122849952D01*
X157804857Y-122421380D02*
X158376285Y-122992809D01*
X156947714Y-122754714D02*
X156947714Y-123421380D01*
X157185809Y-122373761D02*
X157423904Y-123088047D01*
X156804857Y-123088047D01*
X155995333Y-122754714D02*
X155995333Y-123421380D01*
X156233428Y-122373761D02*
X156471523Y-123088047D01*
X155852476Y-123088047D01*
%TO.C,K45*%
X177426285Y-123421380D02*
X177426285Y-122421380D01*
X176854857Y-123421380D02*
X177283428Y-122849952D01*
X176854857Y-122421380D02*
X177426285Y-122992809D01*
X175997714Y-122754714D02*
X175997714Y-123421380D01*
X176235809Y-122373761D02*
X176473904Y-123088047D01*
X175854857Y-123088047D01*
X174997714Y-122421380D02*
X175473904Y-122421380D01*
X175521523Y-122897571D01*
X175473904Y-122849952D01*
X175378666Y-122802333D01*
X175140571Y-122802333D01*
X175045333Y-122849952D01*
X174997714Y-122897571D01*
X174950095Y-122992809D01*
X174950095Y-123230904D01*
X174997714Y-123326142D01*
X175045333Y-123373761D01*
X175140571Y-123421380D01*
X175378666Y-123421380D01*
X175473904Y-123373761D01*
X175521523Y-123326142D01*
%TO.C,K46*%
X196476285Y-123421380D02*
X196476285Y-122421380D01*
X195904857Y-123421380D02*
X196333428Y-122849952D01*
X195904857Y-122421380D02*
X196476285Y-122992809D01*
X195047714Y-122754714D02*
X195047714Y-123421380D01*
X195285809Y-122373761D02*
X195523904Y-123088047D01*
X194904857Y-123088047D01*
X194095333Y-122421380D02*
X194285809Y-122421380D01*
X194381047Y-122469000D01*
X194428666Y-122516619D01*
X194523904Y-122659476D01*
X194571523Y-122849952D01*
X194571523Y-123230904D01*
X194523904Y-123326142D01*
X194476285Y-123373761D01*
X194381047Y-123421380D01*
X194190571Y-123421380D01*
X194095333Y-123373761D01*
X194047714Y-123326142D01*
X194000095Y-123230904D01*
X194000095Y-122992809D01*
X194047714Y-122897571D01*
X194095333Y-122849952D01*
X194190571Y-122802333D01*
X194381047Y-122802333D01*
X194476285Y-122849952D01*
X194523904Y-122897571D01*
X194571523Y-122992809D01*
%TO.C,K47*%
X215526285Y-123421380D02*
X215526285Y-122421380D01*
X214954857Y-123421380D02*
X215383428Y-122849952D01*
X214954857Y-122421380D02*
X215526285Y-122992809D01*
X214097714Y-122754714D02*
X214097714Y-123421380D01*
X214335809Y-122373761D02*
X214573904Y-123088047D01*
X213954857Y-123088047D01*
X213669142Y-122421380D02*
X213002476Y-122421380D01*
X213431047Y-123421380D01*
%TO.C,K48*%
X234576285Y-123421380D02*
X234576285Y-122421380D01*
X234004857Y-123421380D02*
X234433428Y-122849952D01*
X234004857Y-122421380D02*
X234576285Y-122992809D01*
X233147714Y-122754714D02*
X233147714Y-123421380D01*
X233385809Y-122373761D02*
X233623904Y-123088047D01*
X233004857Y-123088047D01*
X232481047Y-122849952D02*
X232576285Y-122802333D01*
X232623904Y-122754714D01*
X232671523Y-122659476D01*
X232671523Y-122611857D01*
X232623904Y-122516619D01*
X232576285Y-122469000D01*
X232481047Y-122421380D01*
X232290571Y-122421380D01*
X232195333Y-122469000D01*
X232147714Y-122516619D01*
X232100095Y-122611857D01*
X232100095Y-122659476D01*
X232147714Y-122754714D01*
X232195333Y-122802333D01*
X232290571Y-122849952D01*
X232481047Y-122849952D01*
X232576285Y-122897571D01*
X232623904Y-122945190D01*
X232671523Y-123040428D01*
X232671523Y-123230904D01*
X232623904Y-123326142D01*
X232576285Y-123373761D01*
X232481047Y-123421380D01*
X232290571Y-123421380D01*
X232195333Y-123373761D01*
X232147714Y-123326142D01*
X232100095Y-123230904D01*
X232100095Y-123040428D01*
X232147714Y-122945190D01*
X232195333Y-122897571D01*
X232290571Y-122849952D01*
%TO.C,K49*%
X253626285Y-123421380D02*
X253626285Y-122421380D01*
X253054857Y-123421380D02*
X253483428Y-122849952D01*
X253054857Y-122421380D02*
X253626285Y-122992809D01*
X252197714Y-122754714D02*
X252197714Y-123421380D01*
X252435809Y-122373761D02*
X252673904Y-123088047D01*
X252054857Y-123088047D01*
X251626285Y-123421380D02*
X251435809Y-123421380D01*
X251340571Y-123373761D01*
X251292952Y-123326142D01*
X251197714Y-123183285D01*
X251150095Y-122992809D01*
X251150095Y-122611857D01*
X251197714Y-122516619D01*
X251245333Y-122469000D01*
X251340571Y-122421380D01*
X251531047Y-122421380D01*
X251626285Y-122469000D01*
X251673904Y-122516619D01*
X251721523Y-122611857D01*
X251721523Y-122849952D01*
X251673904Y-122945190D01*
X251626285Y-122992809D01*
X251531047Y-123040428D01*
X251340571Y-123040428D01*
X251245333Y-122992809D01*
X251197714Y-122945190D01*
X251150095Y-122849952D01*
%TO.C,K50*%
X272676285Y-123421380D02*
X272676285Y-122421380D01*
X272104857Y-123421380D02*
X272533428Y-122849952D01*
X272104857Y-122421380D02*
X272676285Y-122992809D01*
X271200095Y-122421380D02*
X271676285Y-122421380D01*
X271723904Y-122897571D01*
X271676285Y-122849952D01*
X271581047Y-122802333D01*
X271342952Y-122802333D01*
X271247714Y-122849952D01*
X271200095Y-122897571D01*
X271152476Y-122992809D01*
X271152476Y-123230904D01*
X271200095Y-123326142D01*
X271247714Y-123373761D01*
X271342952Y-123421380D01*
X271581047Y-123421380D01*
X271676285Y-123373761D01*
X271723904Y-123326142D01*
X270533428Y-122421380D02*
X270438190Y-122421380D01*
X270342952Y-122469000D01*
X270295333Y-122516619D01*
X270247714Y-122611857D01*
X270200095Y-122802333D01*
X270200095Y-123040428D01*
X270247714Y-123230904D01*
X270295333Y-123326142D01*
X270342952Y-123373761D01*
X270438190Y-123421380D01*
X270533428Y-123421380D01*
X270628666Y-123373761D01*
X270676285Y-123326142D01*
X270723904Y-123230904D01*
X270771523Y-123040428D01*
X270771523Y-122802333D01*
X270723904Y-122611857D01*
X270676285Y-122516619D01*
X270628666Y-122469000D01*
X270533428Y-122421380D01*
%TO.C,K51*%
X291726285Y-123421380D02*
X291726285Y-122421380D01*
X291154857Y-123421380D02*
X291583428Y-122849952D01*
X291154857Y-122421380D02*
X291726285Y-122992809D01*
X290250095Y-122421380D02*
X290726285Y-122421380D01*
X290773904Y-122897571D01*
X290726285Y-122849952D01*
X290631047Y-122802333D01*
X290392952Y-122802333D01*
X290297714Y-122849952D01*
X290250095Y-122897571D01*
X290202476Y-122992809D01*
X290202476Y-123230904D01*
X290250095Y-123326142D01*
X290297714Y-123373761D01*
X290392952Y-123421380D01*
X290631047Y-123421380D01*
X290726285Y-123373761D01*
X290773904Y-123326142D01*
X289250095Y-123421380D02*
X289821523Y-123421380D01*
X289535809Y-123421380D02*
X289535809Y-122421380D01*
X289631047Y-122564238D01*
X289726285Y-122659476D01*
X289821523Y-122707095D01*
%TO.C,K52*%
X327446285Y-123421380D02*
X327446285Y-122421380D01*
X326874857Y-123421380D02*
X327303428Y-122849952D01*
X326874857Y-122421380D02*
X327446285Y-122992809D01*
X325970095Y-122421380D02*
X326446285Y-122421380D01*
X326493904Y-122897571D01*
X326446285Y-122849952D01*
X326351047Y-122802333D01*
X326112952Y-122802333D01*
X326017714Y-122849952D01*
X325970095Y-122897571D01*
X325922476Y-122992809D01*
X325922476Y-123230904D01*
X325970095Y-123326142D01*
X326017714Y-123373761D01*
X326112952Y-123421380D01*
X326351047Y-123421380D01*
X326446285Y-123373761D01*
X326493904Y-123326142D01*
X325541523Y-122516619D02*
X325493904Y-122469000D01*
X325398666Y-122421380D01*
X325160571Y-122421380D01*
X325065333Y-122469000D01*
X325017714Y-122516619D01*
X324970095Y-122611857D01*
X324970095Y-122707095D01*
X325017714Y-122849952D01*
X325589142Y-123421380D01*
X324970095Y-123421380D01*
%TO.C,K53*%
X79795585Y-142471380D02*
X79795585Y-141471380D01*
X79224157Y-142471380D02*
X79652728Y-141899952D01*
X79224157Y-141471380D02*
X79795585Y-142042809D01*
X78319395Y-141471380D02*
X78795585Y-141471380D01*
X78843204Y-141947571D01*
X78795585Y-141899952D01*
X78700347Y-141852333D01*
X78462252Y-141852333D01*
X78367014Y-141899952D01*
X78319395Y-141947571D01*
X78271776Y-142042809D01*
X78271776Y-142280904D01*
X78319395Y-142376142D01*
X78367014Y-142423761D01*
X78462252Y-142471380D01*
X78700347Y-142471380D01*
X78795585Y-142423761D01*
X78843204Y-142376142D01*
X77938442Y-141471380D02*
X77319395Y-141471380D01*
X77652728Y-141852333D01*
X77509871Y-141852333D01*
X77414633Y-141899952D01*
X77367014Y-141947571D01*
X77319395Y-142042809D01*
X77319395Y-142280904D01*
X77367014Y-142376142D01*
X77414633Y-142423761D01*
X77509871Y-142471380D01*
X77795585Y-142471380D01*
X77890823Y-142423761D01*
X77938442Y-142376142D01*
%TO.C,K54*%
X103608285Y-142471380D02*
X103608285Y-141471380D01*
X103036857Y-142471380D02*
X103465428Y-141899952D01*
X103036857Y-141471380D02*
X103608285Y-142042809D01*
X102132095Y-141471380D02*
X102608285Y-141471380D01*
X102655904Y-141947571D01*
X102608285Y-141899952D01*
X102513047Y-141852333D01*
X102274952Y-141852333D01*
X102179714Y-141899952D01*
X102132095Y-141947571D01*
X102084476Y-142042809D01*
X102084476Y-142280904D01*
X102132095Y-142376142D01*
X102179714Y-142423761D01*
X102274952Y-142471380D01*
X102513047Y-142471380D01*
X102608285Y-142423761D01*
X102655904Y-142376142D01*
X101227333Y-141804714D02*
X101227333Y-142471380D01*
X101465428Y-141423761D02*
X101703523Y-142138047D01*
X101084476Y-142138047D01*
%TO.C,K55*%
X127420285Y-142471380D02*
X127420285Y-141471380D01*
X126848857Y-142471380D02*
X127277428Y-141899952D01*
X126848857Y-141471380D02*
X127420285Y-142042809D01*
X125944095Y-141471380D02*
X126420285Y-141471380D01*
X126467904Y-141947571D01*
X126420285Y-141899952D01*
X126325047Y-141852333D01*
X126086952Y-141852333D01*
X125991714Y-141899952D01*
X125944095Y-141947571D01*
X125896476Y-142042809D01*
X125896476Y-142280904D01*
X125944095Y-142376142D01*
X125991714Y-142423761D01*
X126086952Y-142471380D01*
X126325047Y-142471380D01*
X126420285Y-142423761D01*
X126467904Y-142376142D01*
X124991714Y-141471380D02*
X125467904Y-141471380D01*
X125515523Y-141947571D01*
X125467904Y-141899952D01*
X125372666Y-141852333D01*
X125134571Y-141852333D01*
X125039333Y-141899952D01*
X124991714Y-141947571D01*
X124944095Y-142042809D01*
X124944095Y-142280904D01*
X124991714Y-142376142D01*
X125039333Y-142423761D01*
X125134571Y-142471380D01*
X125372666Y-142471380D01*
X125467904Y-142423761D01*
X125515523Y-142376142D01*
%TO.C,K56*%
X198858285Y-142471380D02*
X198858285Y-141471380D01*
X198286857Y-142471380D02*
X198715428Y-141899952D01*
X198286857Y-141471380D02*
X198858285Y-142042809D01*
X197382095Y-141471380D02*
X197858285Y-141471380D01*
X197905904Y-141947571D01*
X197858285Y-141899952D01*
X197763047Y-141852333D01*
X197524952Y-141852333D01*
X197429714Y-141899952D01*
X197382095Y-141947571D01*
X197334476Y-142042809D01*
X197334476Y-142280904D01*
X197382095Y-142376142D01*
X197429714Y-142423761D01*
X197524952Y-142471380D01*
X197763047Y-142471380D01*
X197858285Y-142423761D01*
X197905904Y-142376142D01*
X196477333Y-141471380D02*
X196667809Y-141471380D01*
X196763047Y-141519000D01*
X196810666Y-141566619D01*
X196905904Y-141709476D01*
X196953523Y-141899952D01*
X196953523Y-142280904D01*
X196905904Y-142376142D01*
X196858285Y-142423761D01*
X196763047Y-142471380D01*
X196572571Y-142471380D01*
X196477333Y-142423761D01*
X196429714Y-142376142D01*
X196382095Y-142280904D01*
X196382095Y-142042809D01*
X196429714Y-141947571D01*
X196477333Y-141899952D01*
X196572571Y-141852333D01*
X196763047Y-141852333D01*
X196858285Y-141899952D01*
X196905904Y-141947571D01*
X196953523Y-142042809D01*
%TO.C,K57*%
X270296285Y-142471380D02*
X270296285Y-141471380D01*
X269724857Y-142471380D02*
X270153428Y-141899952D01*
X269724857Y-141471380D02*
X270296285Y-142042809D01*
X268820095Y-141471380D02*
X269296285Y-141471380D01*
X269343904Y-141947571D01*
X269296285Y-141899952D01*
X269201047Y-141852333D01*
X268962952Y-141852333D01*
X268867714Y-141899952D01*
X268820095Y-141947571D01*
X268772476Y-142042809D01*
X268772476Y-142280904D01*
X268820095Y-142376142D01*
X268867714Y-142423761D01*
X268962952Y-142471380D01*
X269201047Y-142471380D01*
X269296285Y-142423761D01*
X269343904Y-142376142D01*
X268439142Y-141471380D02*
X267772476Y-141471380D01*
X268201047Y-142471380D01*
%TO.C,K58*%
X294108285Y-142471380D02*
X294108285Y-141471380D01*
X293536857Y-142471380D02*
X293965428Y-141899952D01*
X293536857Y-141471380D02*
X294108285Y-142042809D01*
X292632095Y-141471380D02*
X293108285Y-141471380D01*
X293155904Y-141947571D01*
X293108285Y-141899952D01*
X293013047Y-141852333D01*
X292774952Y-141852333D01*
X292679714Y-141899952D01*
X292632095Y-141947571D01*
X292584476Y-142042809D01*
X292584476Y-142280904D01*
X292632095Y-142376142D01*
X292679714Y-142423761D01*
X292774952Y-142471380D01*
X293013047Y-142471380D01*
X293108285Y-142423761D01*
X293155904Y-142376142D01*
X292013047Y-141899952D02*
X292108285Y-141852333D01*
X292155904Y-141804714D01*
X292203523Y-141709476D01*
X292203523Y-141661857D01*
X292155904Y-141566619D01*
X292108285Y-141519000D01*
X292013047Y-141471380D01*
X291822571Y-141471380D01*
X291727333Y-141519000D01*
X291679714Y-141566619D01*
X291632095Y-141661857D01*
X291632095Y-141709476D01*
X291679714Y-141804714D01*
X291727333Y-141852333D01*
X291822571Y-141899952D01*
X292013047Y-141899952D01*
X292108285Y-141947571D01*
X292155904Y-141995190D01*
X292203523Y-142090428D01*
X292203523Y-142280904D01*
X292155904Y-142376142D01*
X292108285Y-142423761D01*
X292013047Y-142471380D01*
X291822571Y-142471380D01*
X291727333Y-142423761D01*
X291679714Y-142376142D01*
X291632095Y-142280904D01*
X291632095Y-142090428D01*
X291679714Y-141995190D01*
X291727333Y-141947571D01*
X291822571Y-141899952D01*
%TO.C,K59*%
X317920285Y-142471380D02*
X317920285Y-141471380D01*
X317348857Y-142471380D02*
X317777428Y-141899952D01*
X317348857Y-141471380D02*
X317920285Y-142042809D01*
X316444095Y-141471380D02*
X316920285Y-141471380D01*
X316967904Y-141947571D01*
X316920285Y-141899952D01*
X316825047Y-141852333D01*
X316586952Y-141852333D01*
X316491714Y-141899952D01*
X316444095Y-141947571D01*
X316396476Y-142042809D01*
X316396476Y-142280904D01*
X316444095Y-142376142D01*
X316491714Y-142423761D01*
X316586952Y-142471380D01*
X316825047Y-142471380D01*
X316920285Y-142423761D01*
X316967904Y-142376142D01*
X315920285Y-142471380D02*
X315729809Y-142471380D01*
X315634571Y-142423761D01*
X315586952Y-142376142D01*
X315491714Y-142233285D01*
X315444095Y-142042809D01*
X315444095Y-141661857D01*
X315491714Y-141566619D01*
X315539333Y-141519000D01*
X315634571Y-141471380D01*
X315825047Y-141471380D01*
X315920285Y-141519000D01*
X315967904Y-141566619D01*
X316015523Y-141661857D01*
X316015523Y-141899952D01*
X315967904Y-141995190D01*
X315920285Y-142042809D01*
X315825047Y-142090428D01*
X315634571Y-142090428D01*
X315539333Y-142042809D01*
X315491714Y-141995190D01*
X315444095Y-141899952D01*
%TO.C,K60*%
X341732285Y-142471380D02*
X341732285Y-141471380D01*
X341160857Y-142471380D02*
X341589428Y-141899952D01*
X341160857Y-141471380D02*
X341732285Y-142042809D01*
X340303714Y-141471380D02*
X340494190Y-141471380D01*
X340589428Y-141519000D01*
X340637047Y-141566619D01*
X340732285Y-141709476D01*
X340779904Y-141899952D01*
X340779904Y-142280904D01*
X340732285Y-142376142D01*
X340684666Y-142423761D01*
X340589428Y-142471380D01*
X340398952Y-142471380D01*
X340303714Y-142423761D01*
X340256095Y-142376142D01*
X340208476Y-142280904D01*
X340208476Y-142042809D01*
X340256095Y-141947571D01*
X340303714Y-141899952D01*
X340398952Y-141852333D01*
X340589428Y-141852333D01*
X340684666Y-141899952D01*
X340732285Y-141947571D01*
X340779904Y-142042809D01*
X339589428Y-141471380D02*
X339494190Y-141471380D01*
X339398952Y-141519000D01*
X339351333Y-141566619D01*
X339303714Y-141661857D01*
X339256095Y-141852333D01*
X339256095Y-142090428D01*
X339303714Y-142280904D01*
X339351333Y-142376142D01*
X339398952Y-142423761D01*
X339494190Y-142471380D01*
X339589428Y-142471380D01*
X339684666Y-142423761D01*
X339732285Y-142376142D01*
X339779904Y-142280904D01*
X339827523Y-142090428D01*
X339827523Y-141852333D01*
X339779904Y-141661857D01*
X339732285Y-141566619D01*
X339684666Y-141519000D01*
X339589428Y-141471380D01*
%TO.C,U1*%
X222293904Y-154889523D02*
X221493904Y-154889523D01*
X221493904Y-155080000D01*
X221532000Y-155194285D01*
X221608190Y-155270476D01*
X221684380Y-155308571D01*
X221836761Y-155346666D01*
X221951047Y-155346666D01*
X222103428Y-155308571D01*
X222179619Y-155270476D01*
X222255809Y-155194285D01*
X222293904Y-155080000D01*
X222293904Y-154889523D01*
X221570095Y-155651428D02*
X221532000Y-155689523D01*
X221493904Y-155765714D01*
X221493904Y-155956190D01*
X221532000Y-156032380D01*
X221570095Y-156070476D01*
X221646285Y-156108571D01*
X221722476Y-156108571D01*
X221836761Y-156070476D01*
X222293904Y-155613333D01*
X222293904Y-156108571D01*
X232453904Y-154889523D02*
X231653904Y-154889523D01*
X231653904Y-155080000D01*
X231692000Y-155194285D01*
X231768190Y-155270476D01*
X231844380Y-155308571D01*
X231996761Y-155346666D01*
X232111047Y-155346666D01*
X232263428Y-155308571D01*
X232339619Y-155270476D01*
X232415809Y-155194285D01*
X232453904Y-155080000D01*
X232453904Y-154889523D01*
X231653904Y-155841904D02*
X231653904Y-155918095D01*
X231692000Y-155994285D01*
X231730095Y-156032380D01*
X231806285Y-156070476D01*
X231958666Y-156108571D01*
X232149142Y-156108571D01*
X232301523Y-156070476D01*
X232377714Y-156032380D01*
X232415809Y-155994285D01*
X232453904Y-155918095D01*
X232453904Y-155841904D01*
X232415809Y-155765714D01*
X232377714Y-155727619D01*
X232301523Y-155689523D01*
X232149142Y-155651428D01*
X231958666Y-155651428D01*
X231806285Y-155689523D01*
X231730095Y-155727619D01*
X231692000Y-155765714D01*
X231653904Y-155841904D01*
X229913904Y-154889523D02*
X229113904Y-154889523D01*
X229113904Y-155080000D01*
X229152000Y-155194285D01*
X229228190Y-155270476D01*
X229304380Y-155308571D01*
X229456761Y-155346666D01*
X229571047Y-155346666D01*
X229723428Y-155308571D01*
X229799619Y-155270476D01*
X229875809Y-155194285D01*
X229913904Y-155080000D01*
X229913904Y-154889523D01*
X229913904Y-156108571D02*
X229913904Y-155651428D01*
X229913904Y-155880000D02*
X229113904Y-155880000D01*
X229228190Y-155803809D01*
X229304380Y-155727619D01*
X229342476Y-155651428D01*
X226612000Y-154870476D02*
X226573904Y-154794285D01*
X226573904Y-154680000D01*
X226612000Y-154565714D01*
X226688190Y-154489523D01*
X226764380Y-154451428D01*
X226916761Y-154413333D01*
X227031047Y-154413333D01*
X227183428Y-154451428D01*
X227259619Y-154489523D01*
X227335809Y-154565714D01*
X227373904Y-154680000D01*
X227373904Y-154756190D01*
X227335809Y-154870476D01*
X227297714Y-154908571D01*
X227031047Y-154908571D01*
X227031047Y-154756190D01*
X227373904Y-155251428D02*
X226573904Y-155251428D01*
X227373904Y-155708571D01*
X226573904Y-155708571D01*
X227373904Y-156089523D02*
X226573904Y-156089523D01*
X226573904Y-156280000D01*
X226612000Y-156394285D01*
X226688190Y-156470476D01*
X226764380Y-156508571D01*
X226916761Y-156546666D01*
X227031047Y-156546666D01*
X227183428Y-156508571D01*
X227259619Y-156470476D01*
X227335809Y-156394285D01*
X227373904Y-156280000D01*
X227373904Y-156089523D01*
X224072000Y-154870476D02*
X224033904Y-154794285D01*
X224033904Y-154680000D01*
X224072000Y-154565714D01*
X224148190Y-154489523D01*
X224224380Y-154451428D01*
X224376761Y-154413333D01*
X224491047Y-154413333D01*
X224643428Y-154451428D01*
X224719619Y-154489523D01*
X224795809Y-154565714D01*
X224833904Y-154680000D01*
X224833904Y-154756190D01*
X224795809Y-154870476D01*
X224757714Y-154908571D01*
X224491047Y-154908571D01*
X224491047Y-154756190D01*
X224833904Y-155251428D02*
X224033904Y-155251428D01*
X224833904Y-155708571D01*
X224033904Y-155708571D01*
X224833904Y-156089523D02*
X224033904Y-156089523D01*
X224033904Y-156280000D01*
X224072000Y-156394285D01*
X224148190Y-156470476D01*
X224224380Y-156508571D01*
X224376761Y-156546666D01*
X224491047Y-156546666D01*
X224643428Y-156508571D01*
X224719619Y-156470476D01*
X224795809Y-156394285D01*
X224833904Y-156280000D01*
X224833904Y-156089523D01*
X234993904Y-154889523D02*
X234193904Y-154889523D01*
X234193904Y-155080000D01*
X234232000Y-155194285D01*
X234308190Y-155270476D01*
X234384380Y-155308571D01*
X234536761Y-155346666D01*
X234651047Y-155346666D01*
X234803428Y-155308571D01*
X234879619Y-155270476D01*
X234955809Y-155194285D01*
X234993904Y-155080000D01*
X234993904Y-154889523D01*
X234460571Y-156032380D02*
X234993904Y-156032380D01*
X234155809Y-155841904D02*
X234727238Y-155651428D01*
X234727238Y-156146666D01*
X237457714Y-155346666D02*
X237495809Y-155308571D01*
X237533904Y-155194285D01*
X237533904Y-155118095D01*
X237495809Y-155003809D01*
X237419619Y-154927619D01*
X237343428Y-154889523D01*
X237191047Y-154851428D01*
X237076761Y-154851428D01*
X236924380Y-154889523D01*
X236848190Y-154927619D01*
X236772000Y-155003809D01*
X236733904Y-155118095D01*
X236733904Y-155194285D01*
X236772000Y-155308571D01*
X236810095Y-155346666D01*
X236733904Y-156032380D02*
X236733904Y-155880000D01*
X236772000Y-155803809D01*
X236810095Y-155765714D01*
X236924380Y-155689523D01*
X237076761Y-155651428D01*
X237381523Y-155651428D01*
X237457714Y-155689523D01*
X237495809Y-155727619D01*
X237533904Y-155803809D01*
X237533904Y-155956190D01*
X237495809Y-156032380D01*
X237457714Y-156070476D01*
X237381523Y-156108571D01*
X237191047Y-156108571D01*
X237114857Y-156070476D01*
X237076761Y-156032380D01*
X237038666Y-155956190D01*
X237038666Y-155803809D01*
X237076761Y-155727619D01*
X237114857Y-155689523D01*
X237191047Y-155651428D01*
X240073904Y-154889523D02*
X239273904Y-154889523D01*
X239273904Y-155080000D01*
X239312000Y-155194285D01*
X239388190Y-155270476D01*
X239464380Y-155308571D01*
X239616761Y-155346666D01*
X239731047Y-155346666D01*
X239883428Y-155308571D01*
X239959619Y-155270476D01*
X240035809Y-155194285D01*
X240073904Y-155080000D01*
X240073904Y-154889523D01*
X239273904Y-155613333D02*
X239273904Y-156146666D01*
X240073904Y-155803809D01*
X242194857Y-154927619D02*
X242194857Y-155194285D01*
X242613904Y-155308571D02*
X242613904Y-154927619D01*
X241813904Y-154927619D01*
X241813904Y-155308571D01*
X241813904Y-155994285D02*
X241813904Y-155841904D01*
X241852000Y-155765714D01*
X241890095Y-155727619D01*
X242004380Y-155651428D01*
X242156761Y-155613333D01*
X242461523Y-155613333D01*
X242537714Y-155651428D01*
X242575809Y-155689523D01*
X242613904Y-155765714D01*
X242613904Y-155918095D01*
X242575809Y-155994285D01*
X242537714Y-156032380D01*
X242461523Y-156070476D01*
X242271047Y-156070476D01*
X242194857Y-156032380D01*
X242156761Y-155994285D01*
X242118666Y-155918095D01*
X242118666Y-155765714D01*
X242156761Y-155689523D01*
X242194857Y-155651428D01*
X242271047Y-155613333D01*
X244734857Y-155156190D02*
X244772952Y-155270476D01*
X244811047Y-155308571D01*
X244887238Y-155346666D01*
X245001523Y-155346666D01*
X245077714Y-155308571D01*
X245115809Y-155270476D01*
X245153904Y-155194285D01*
X245153904Y-154889523D01*
X244353904Y-154889523D01*
X244353904Y-155156190D01*
X244392000Y-155232380D01*
X244430095Y-155270476D01*
X244506285Y-155308571D01*
X244582476Y-155308571D01*
X244658666Y-155270476D01*
X244696761Y-155232380D01*
X244734857Y-155156190D01*
X244734857Y-154889523D01*
X244620571Y-156032380D02*
X245153904Y-156032380D01*
X244315809Y-155841904D02*
X244887238Y-155651428D01*
X244887238Y-156146666D01*
X246226991Y-156183297D02*
X246179851Y-156277578D01*
X246179851Y-156324719D01*
X246203421Y-156395429D01*
X246274132Y-156466140D01*
X246344842Y-156489710D01*
X246391983Y-156489710D01*
X246462693Y-156466140D01*
X246651255Y-156277578D01*
X246156280Y-155782603D01*
X245991289Y-155947595D01*
X245967719Y-156018306D01*
X245967719Y-156065446D01*
X245991289Y-156136157D01*
X246038429Y-156183297D01*
X246109140Y-156206867D01*
X246156280Y-156206867D01*
X246226991Y-156183297D01*
X246391983Y-156018306D01*
X245425603Y-156513280D02*
X245661306Y-156277578D01*
X245920578Y-156489710D01*
X245873438Y-156489710D01*
X245802727Y-156513280D01*
X245684876Y-156631132D01*
X245661306Y-156701842D01*
X245661306Y-156748983D01*
X245684876Y-156819693D01*
X245802727Y-156937544D01*
X245873438Y-156961115D01*
X245920578Y-156961115D01*
X245991289Y-156937544D01*
X246109140Y-156819693D01*
X246132710Y-156748983D01*
X246132710Y-156701842D01*
X242194857Y-144234190D02*
X242232952Y-144348476D01*
X242271047Y-144386571D01*
X242347238Y-144424666D01*
X242461523Y-144424666D01*
X242537714Y-144386571D01*
X242575809Y-144348476D01*
X242613904Y-144272285D01*
X242613904Y-143967523D01*
X241813904Y-143967523D01*
X241813904Y-144234190D01*
X241852000Y-144310380D01*
X241890095Y-144348476D01*
X241966285Y-144386571D01*
X242042476Y-144386571D01*
X242118666Y-144348476D01*
X242156761Y-144310380D01*
X242194857Y-144234190D01*
X242194857Y-143967523D01*
X241813904Y-144691333D02*
X241813904Y-145186571D01*
X242118666Y-144919904D01*
X242118666Y-145034190D01*
X242156761Y-145110380D01*
X242194857Y-145148476D01*
X242271047Y-145186571D01*
X242461523Y-145186571D01*
X242537714Y-145148476D01*
X242575809Y-145110380D01*
X242613904Y-145034190D01*
X242613904Y-144805619D01*
X242575809Y-144729428D01*
X242537714Y-144691333D01*
X239654857Y-144234190D02*
X239692952Y-144348476D01*
X239731047Y-144386571D01*
X239807238Y-144424666D01*
X239921523Y-144424666D01*
X239997714Y-144386571D01*
X240035809Y-144348476D01*
X240073904Y-144272285D01*
X240073904Y-143967523D01*
X239273904Y-143967523D01*
X239273904Y-144234190D01*
X239312000Y-144310380D01*
X239350095Y-144348476D01*
X239426285Y-144386571D01*
X239502476Y-144386571D01*
X239578666Y-144348476D01*
X239616761Y-144310380D01*
X239654857Y-144234190D01*
X239654857Y-143967523D01*
X240073904Y-145186571D02*
X240073904Y-144729428D01*
X240073904Y-144958000D02*
X239273904Y-144958000D01*
X239388190Y-144881809D01*
X239464380Y-144805619D01*
X239502476Y-144729428D01*
X229494857Y-144291333D02*
X229494857Y-144024666D01*
X229913904Y-144024666D02*
X229113904Y-144024666D01*
X229113904Y-144405619D01*
X229380571Y-145053238D02*
X229913904Y-145053238D01*
X229075809Y-144862761D02*
X229647238Y-144672285D01*
X229647238Y-145167523D01*
X226573904Y-143491333D02*
X227373904Y-143758000D01*
X226573904Y-144024666D01*
X227297714Y-144748476D02*
X227335809Y-144710380D01*
X227373904Y-144596095D01*
X227373904Y-144519904D01*
X227335809Y-144405619D01*
X227259619Y-144329428D01*
X227183428Y-144291333D01*
X227031047Y-144253238D01*
X226916761Y-144253238D01*
X226764380Y-144291333D01*
X226688190Y-144329428D01*
X226612000Y-144405619D01*
X226573904Y-144519904D01*
X226573904Y-144596095D01*
X226612000Y-144710380D01*
X226650095Y-144748476D01*
X227297714Y-145548476D02*
X227335809Y-145510380D01*
X227373904Y-145396095D01*
X227373904Y-145319904D01*
X227335809Y-145205619D01*
X227259619Y-145129428D01*
X227183428Y-145091333D01*
X227031047Y-145053238D01*
X226916761Y-145053238D01*
X226764380Y-145091333D01*
X226688190Y-145129428D01*
X226612000Y-145205619D01*
X226573904Y-145319904D01*
X226573904Y-145396095D01*
X226612000Y-145510380D01*
X226650095Y-145548476D01*
X221532000Y-143948476D02*
X221493904Y-143872285D01*
X221493904Y-143758000D01*
X221532000Y-143643714D01*
X221608190Y-143567523D01*
X221684380Y-143529428D01*
X221836761Y-143491333D01*
X221951047Y-143491333D01*
X222103428Y-143529428D01*
X222179619Y-143567523D01*
X222255809Y-143643714D01*
X222293904Y-143758000D01*
X222293904Y-143834190D01*
X222255809Y-143948476D01*
X222217714Y-143986571D01*
X221951047Y-143986571D01*
X221951047Y-143834190D01*
X222293904Y-144329428D02*
X221493904Y-144329428D01*
X222293904Y-144786571D01*
X221493904Y-144786571D01*
X222293904Y-145167523D02*
X221493904Y-145167523D01*
X221493904Y-145358000D01*
X221532000Y-145472285D01*
X221608190Y-145548476D01*
X221684380Y-145586571D01*
X221836761Y-145624666D01*
X221951047Y-145624666D01*
X222103428Y-145586571D01*
X222179619Y-145548476D01*
X222255809Y-145472285D01*
X222293904Y-145358000D01*
X222293904Y-145167523D01*
X219334857Y-144234190D02*
X219372952Y-144348476D01*
X219411047Y-144386571D01*
X219487238Y-144424666D01*
X219601523Y-144424666D01*
X219677714Y-144386571D01*
X219715809Y-144348476D01*
X219753904Y-144272285D01*
X219753904Y-143967523D01*
X218953904Y-143967523D01*
X218953904Y-144234190D01*
X218992000Y-144310380D01*
X219030095Y-144348476D01*
X219106285Y-144386571D01*
X219182476Y-144386571D01*
X219258666Y-144348476D01*
X219296761Y-144310380D01*
X219334857Y-144234190D01*
X219334857Y-143967523D01*
X218953904Y-144919904D02*
X218953904Y-144996095D01*
X218992000Y-145072285D01*
X219030095Y-145110380D01*
X219106285Y-145148476D01*
X219258666Y-145186571D01*
X219449142Y-145186571D01*
X219601523Y-145148476D01*
X219677714Y-145110380D01*
X219715809Y-145072285D01*
X219753904Y-144996095D01*
X219753904Y-144919904D01*
X219715809Y-144843714D01*
X219677714Y-144805619D01*
X219601523Y-144767523D01*
X219449142Y-144729428D01*
X219258666Y-144729428D01*
X219106285Y-144767523D01*
X219030095Y-144805619D01*
X218992000Y-144843714D01*
X218953904Y-144919904D01*
X232034857Y-144291333D02*
X232034857Y-144024666D01*
X232453904Y-144024666D02*
X231653904Y-144024666D01*
X231653904Y-144405619D01*
X231653904Y-145091333D02*
X231653904Y-144710380D01*
X232034857Y-144672285D01*
X231996761Y-144710380D01*
X231958666Y-144786571D01*
X231958666Y-144977047D01*
X231996761Y-145053238D01*
X232034857Y-145091333D01*
X232111047Y-145129428D01*
X232301523Y-145129428D01*
X232377714Y-145091333D01*
X232415809Y-145053238D01*
X232453904Y-144977047D01*
X232453904Y-144786571D01*
X232415809Y-144710380D01*
X232377714Y-144672285D01*
X234574857Y-144291333D02*
X234574857Y-144024666D01*
X234993904Y-144024666D02*
X234193904Y-144024666D01*
X234193904Y-144405619D01*
X234193904Y-145053238D02*
X234193904Y-144900857D01*
X234232000Y-144824666D01*
X234270095Y-144786571D01*
X234384380Y-144710380D01*
X234536761Y-144672285D01*
X234841523Y-144672285D01*
X234917714Y-144710380D01*
X234955809Y-144748476D01*
X234993904Y-144824666D01*
X234993904Y-144977047D01*
X234955809Y-145053238D01*
X234917714Y-145091333D01*
X234841523Y-145129428D01*
X234651047Y-145129428D01*
X234574857Y-145091333D01*
X234536761Y-145053238D01*
X234498666Y-144977047D01*
X234498666Y-144824666D01*
X234536761Y-144748476D01*
X234574857Y-144710380D01*
X234651047Y-144672285D01*
X237114857Y-144291333D02*
X237114857Y-144024666D01*
X237533904Y-144024666D02*
X236733904Y-144024666D01*
X236733904Y-144405619D01*
X236733904Y-144634190D02*
X236733904Y-145167523D01*
X237533904Y-144824666D01*
X244734857Y-144234190D02*
X244772952Y-144348476D01*
X244811047Y-144386571D01*
X244887238Y-144424666D01*
X245001523Y-144424666D01*
X245077714Y-144386571D01*
X245115809Y-144348476D01*
X245153904Y-144272285D01*
X245153904Y-143967523D01*
X244353904Y-143967523D01*
X244353904Y-144234190D01*
X244392000Y-144310380D01*
X244430095Y-144348476D01*
X244506285Y-144386571D01*
X244582476Y-144386571D01*
X244658666Y-144348476D01*
X244696761Y-144310380D01*
X244734857Y-144234190D01*
X244734857Y-143967523D01*
X244430095Y-144729428D02*
X244392000Y-144767523D01*
X244353904Y-144843714D01*
X244353904Y-145034190D01*
X244392000Y-145110380D01*
X244430095Y-145148476D01*
X244506285Y-145186571D01*
X244582476Y-145186571D01*
X244696761Y-145148476D01*
X245153904Y-144691333D01*
X245153904Y-145186571D01*
X218953904Y-151400395D02*
X218953904Y-151857538D01*
X219753904Y-151628967D02*
X218953904Y-151628967D01*
X218953904Y-152048014D02*
X219753904Y-152581348D01*
X218953904Y-152581348D02*
X219753904Y-152048014D01*
X218953904Y-153038491D02*
X218953904Y-153114681D01*
X218992000Y-153190872D01*
X219030095Y-153228967D01*
X219106285Y-153267062D01*
X219258666Y-153305157D01*
X219449142Y-153305157D01*
X219601523Y-153267062D01*
X219677714Y-153228967D01*
X219715809Y-153190872D01*
X219753904Y-153114681D01*
X219753904Y-153038491D01*
X219715809Y-152962300D01*
X219677714Y-152924205D01*
X219601523Y-152886110D01*
X219449142Y-152848014D01*
X219258666Y-152848014D01*
X219106285Y-152886110D01*
X219030095Y-152924205D01*
X218992000Y-152962300D01*
X218953904Y-153038491D01*
X218915809Y-154219443D02*
X219944380Y-153533729D01*
X219753904Y-154486110D02*
X218953904Y-154486110D01*
X218953904Y-154676586D01*
X218992000Y-154790872D01*
X219068190Y-154867062D01*
X219144380Y-154905157D01*
X219296761Y-154943252D01*
X219411047Y-154943252D01*
X219563428Y-154905157D01*
X219639619Y-154867062D01*
X219715809Y-154790872D01*
X219753904Y-154676586D01*
X219753904Y-154486110D01*
X218953904Y-155209919D02*
X218953904Y-155705157D01*
X219258666Y-155438491D01*
X219258666Y-155552776D01*
X219296761Y-155628967D01*
X219334857Y-155667062D01*
X219411047Y-155705157D01*
X219601523Y-155705157D01*
X219677714Y-155667062D01*
X219715809Y-155628967D01*
X219753904Y-155552776D01*
X219753904Y-155324205D01*
X219715809Y-155248014D01*
X219677714Y-155209919D01*
X224775809Y-144445666D02*
X224813904Y-144559952D01*
X224813904Y-144750428D01*
X224775809Y-144826619D01*
X224737714Y-144864714D01*
X224661523Y-144902809D01*
X224585333Y-144902809D01*
X224509142Y-144864714D01*
X224471047Y-144826619D01*
X224432952Y-144750428D01*
X224394857Y-144598047D01*
X224356761Y-144521857D01*
X224318666Y-144483761D01*
X224242476Y-144445666D01*
X224166285Y-144445666D01*
X224090095Y-144483761D01*
X224052000Y-144521857D01*
X224013904Y-144598047D01*
X224013904Y-144788523D01*
X224052000Y-144902809D01*
X224013904Y-145131380D02*
X224013904Y-145588523D01*
X224813904Y-145359952D02*
X224013904Y-145359952D01*
X245912000Y-154235666D02*
X245945333Y-154335666D01*
X245978666Y-154369000D01*
X246045333Y-154402333D01*
X246145333Y-154402333D01*
X246212000Y-154369000D01*
X246245333Y-154335666D01*
X246278666Y-154269000D01*
X246278666Y-154002333D01*
X245578666Y-154002333D01*
X245578666Y-154235666D01*
X245612000Y-154302333D01*
X245645333Y-154335666D01*
X245712000Y-154369000D01*
X245778666Y-154369000D01*
X245845333Y-154335666D01*
X245878666Y-154302333D01*
X245912000Y-154235666D01*
X245912000Y-154002333D01*
X245578666Y-154635666D02*
X245578666Y-155102333D01*
X246278666Y-154802333D01*
X245912000Y-145285666D02*
X245912000Y-145052333D01*
X246278666Y-145052333D02*
X245578666Y-145052333D01*
X245578666Y-145385666D01*
X245578666Y-145785666D02*
X245578666Y-145852333D01*
X245612000Y-145919000D01*
X245645333Y-145952333D01*
X245712000Y-145985666D01*
X245845333Y-146019000D01*
X246012000Y-146019000D01*
X246145333Y-145985666D01*
X246212000Y-145952333D01*
X246245333Y-145919000D01*
X246278666Y-145852333D01*
X246278666Y-145785666D01*
X246245333Y-145719000D01*
X246212000Y-145685666D01*
X246145333Y-145652333D01*
X246012000Y-145619000D01*
X245845333Y-145619000D01*
X245712000Y-145652333D01*
X245645333Y-145685666D01*
X245612000Y-145719000D01*
X245578666Y-145785666D01*
X245826297Y-143454008D02*
X245920578Y-143501148D01*
X245967719Y-143501148D01*
X246038429Y-143477578D01*
X246109140Y-143406867D01*
X246132710Y-143336157D01*
X246132710Y-143289016D01*
X246109140Y-143218306D01*
X245920578Y-143029744D01*
X245425603Y-143524719D01*
X245590595Y-143689710D01*
X245661306Y-143713280D01*
X245708446Y-143713280D01*
X245779157Y-143689710D01*
X245826297Y-143642570D01*
X245849867Y-143571859D01*
X245849867Y-143524719D01*
X245826297Y-143454008D01*
X245661306Y-143289016D01*
X246132710Y-144231825D02*
X246038429Y-144137544D01*
X246014859Y-144066834D01*
X246014859Y-144019693D01*
X246038429Y-143901842D01*
X246109140Y-143783991D01*
X246297702Y-143595429D01*
X246368412Y-143571859D01*
X246415553Y-143571859D01*
X246486264Y-143595429D01*
X246580544Y-143689710D01*
X246604115Y-143760421D01*
X246604115Y-143807561D01*
X246580544Y-143878272D01*
X246462693Y-143996123D01*
X246391983Y-144019693D01*
X246344842Y-144019693D01*
X246274132Y-143996123D01*
X246179851Y-143901842D01*
X246156280Y-143831132D01*
X246156280Y-143783991D01*
X246179851Y-143713280D01*
X246047714Y-149885666D02*
X246085809Y-149847571D01*
X246123904Y-149733285D01*
X246123904Y-149657095D01*
X246085809Y-149542809D01*
X246009619Y-149466619D01*
X245933428Y-149428523D01*
X245781047Y-149390428D01*
X245666761Y-149390428D01*
X245514380Y-149428523D01*
X245438190Y-149466619D01*
X245362000Y-149542809D01*
X245323904Y-149657095D01*
X245323904Y-149733285D01*
X245362000Y-149847571D01*
X245400095Y-149885666D01*
X245323904Y-150152333D02*
X245323904Y-150685666D01*
X246123904Y-150342809D01*
X245704857Y-147212333D02*
X245704857Y-146945666D01*
X246123904Y-146945666D02*
X245323904Y-146945666D01*
X245323904Y-147326619D01*
X246123904Y-148050428D02*
X246123904Y-147593285D01*
X246123904Y-147821857D02*
X245323904Y-147821857D01*
X245438190Y-147745666D01*
X245514380Y-147669476D01*
X245552476Y-147593285D01*
X246123904Y-151968523D02*
X245323904Y-151968523D01*
X245323904Y-152159000D01*
X245362000Y-152273285D01*
X245438190Y-152349476D01*
X245514380Y-152387571D01*
X245666761Y-152425666D01*
X245781047Y-152425666D01*
X245933428Y-152387571D01*
X246009619Y-152349476D01*
X246085809Y-152273285D01*
X246123904Y-152159000D01*
X246123904Y-151968523D01*
X245323904Y-153149476D02*
X245323904Y-152768523D01*
X245704857Y-152730428D01*
X245666761Y-152768523D01*
X245628666Y-152844714D01*
X245628666Y-153035190D01*
X245666761Y-153111380D01*
X245704857Y-153149476D01*
X245781047Y-153187571D01*
X245971523Y-153187571D01*
X246047714Y-153149476D01*
X246085809Y-153111380D01*
X246123904Y-153035190D01*
X246123904Y-152844714D01*
X246085809Y-152768523D01*
X246047714Y-152730428D01*
%TO.C,K15*%
X105989285Y-85321180D02*
X105989285Y-84321180D01*
X105417857Y-85321180D02*
X105846428Y-84749752D01*
X105417857Y-84321180D02*
X105989285Y-84892609D01*
X104465476Y-85321180D02*
X105036904Y-85321180D01*
X104751190Y-85321180D02*
X104751190Y-84321180D01*
X104846428Y-84464038D01*
X104941666Y-84559276D01*
X105036904Y-84606895D01*
X103560714Y-84321180D02*
X104036904Y-84321180D01*
X104084523Y-84797371D01*
X104036904Y-84749752D01*
X103941666Y-84702133D01*
X103703571Y-84702133D01*
X103608333Y-84749752D01*
X103560714Y-84797371D01*
X103513095Y-84892609D01*
X103513095Y-85130704D01*
X103560714Y-85225942D01*
X103608333Y-85273561D01*
X103703571Y-85321180D01*
X103941666Y-85321180D01*
X104036904Y-85273561D01*
X104084523Y-85225942D01*
%TO.C,K16*%
X125039285Y-85321180D02*
X125039285Y-84321180D01*
X124467857Y-85321180D02*
X124896428Y-84749752D01*
X124467857Y-84321180D02*
X125039285Y-84892609D01*
X123515476Y-85321180D02*
X124086904Y-85321180D01*
X123801190Y-85321180D02*
X123801190Y-84321180D01*
X123896428Y-84464038D01*
X123991666Y-84559276D01*
X124086904Y-84606895D01*
X122658333Y-84321180D02*
X122848809Y-84321180D01*
X122944047Y-84368800D01*
X122991666Y-84416419D01*
X123086904Y-84559276D01*
X123134523Y-84749752D01*
X123134523Y-85130704D01*
X123086904Y-85225942D01*
X123039285Y-85273561D01*
X122944047Y-85321180D01*
X122753571Y-85321180D01*
X122658333Y-85273561D01*
X122610714Y-85225942D01*
X122563095Y-85130704D01*
X122563095Y-84892609D01*
X122610714Y-84797371D01*
X122658333Y-84749752D01*
X122753571Y-84702133D01*
X122944047Y-84702133D01*
X123039285Y-84749752D01*
X123086904Y-84797371D01*
X123134523Y-84892609D01*
%TO.C,K17*%
X144089285Y-85321180D02*
X144089285Y-84321180D01*
X143517857Y-85321180D02*
X143946428Y-84749752D01*
X143517857Y-84321180D02*
X144089285Y-84892609D01*
X142565476Y-85321180D02*
X143136904Y-85321180D01*
X142851190Y-85321180D02*
X142851190Y-84321180D01*
X142946428Y-84464038D01*
X143041666Y-84559276D01*
X143136904Y-84606895D01*
X142232142Y-84321180D02*
X141565476Y-84321180D01*
X141994047Y-85321180D01*
%TO.C,K18*%
X163140285Y-85321180D02*
X163140285Y-84321180D01*
X162568857Y-85321180D02*
X162997428Y-84749752D01*
X162568857Y-84321180D02*
X163140285Y-84892609D01*
X161616476Y-85321180D02*
X162187904Y-85321180D01*
X161902190Y-85321180D02*
X161902190Y-84321180D01*
X161997428Y-84464038D01*
X162092666Y-84559276D01*
X162187904Y-84606895D01*
X161045047Y-84749752D02*
X161140285Y-84702133D01*
X161187904Y-84654514D01*
X161235523Y-84559276D01*
X161235523Y-84511657D01*
X161187904Y-84416419D01*
X161140285Y-84368800D01*
X161045047Y-84321180D01*
X160854571Y-84321180D01*
X160759333Y-84368800D01*
X160711714Y-84416419D01*
X160664095Y-84511657D01*
X160664095Y-84559276D01*
X160711714Y-84654514D01*
X160759333Y-84702133D01*
X160854571Y-84749752D01*
X161045047Y-84749752D01*
X161140285Y-84797371D01*
X161187904Y-84844990D01*
X161235523Y-84940228D01*
X161235523Y-85130704D01*
X161187904Y-85225942D01*
X161140285Y-85273561D01*
X161045047Y-85321180D01*
X160854571Y-85321180D01*
X160759333Y-85273561D01*
X160711714Y-85225942D01*
X160664095Y-85130704D01*
X160664095Y-84940228D01*
X160711714Y-84844990D01*
X160759333Y-84797371D01*
X160854571Y-84749752D01*
%TO.C,K19*%
X182190285Y-85321180D02*
X182190285Y-84321180D01*
X181618857Y-85321180D02*
X182047428Y-84749752D01*
X181618857Y-84321180D02*
X182190285Y-84892609D01*
X180666476Y-85321180D02*
X181237904Y-85321180D01*
X180952190Y-85321180D02*
X180952190Y-84321180D01*
X181047428Y-84464038D01*
X181142666Y-84559276D01*
X181237904Y-84606895D01*
X180190285Y-85321180D02*
X179999809Y-85321180D01*
X179904571Y-85273561D01*
X179856952Y-85225942D01*
X179761714Y-85083085D01*
X179714095Y-84892609D01*
X179714095Y-84511657D01*
X179761714Y-84416419D01*
X179809333Y-84368800D01*
X179904571Y-84321180D01*
X180095047Y-84321180D01*
X180190285Y-84368800D01*
X180237904Y-84416419D01*
X180285523Y-84511657D01*
X180285523Y-84749752D01*
X180237904Y-84844990D01*
X180190285Y-84892609D01*
X180095047Y-84940228D01*
X179904571Y-84940228D01*
X179809333Y-84892609D01*
X179761714Y-84844990D01*
X179714095Y-84749752D01*
%TO.C,K20*%
X201240285Y-85321180D02*
X201240285Y-84321180D01*
X200668857Y-85321180D02*
X201097428Y-84749752D01*
X200668857Y-84321180D02*
X201240285Y-84892609D01*
X200287904Y-84416419D02*
X200240285Y-84368800D01*
X200145047Y-84321180D01*
X199906952Y-84321180D01*
X199811714Y-84368800D01*
X199764095Y-84416419D01*
X199716476Y-84511657D01*
X199716476Y-84606895D01*
X199764095Y-84749752D01*
X200335523Y-85321180D01*
X199716476Y-85321180D01*
X199097428Y-84321180D02*
X199002190Y-84321180D01*
X198906952Y-84368800D01*
X198859333Y-84416419D01*
X198811714Y-84511657D01*
X198764095Y-84702133D01*
X198764095Y-84940228D01*
X198811714Y-85130704D01*
X198859333Y-85225942D01*
X198906952Y-85273561D01*
X199002190Y-85321180D01*
X199097428Y-85321180D01*
X199192666Y-85273561D01*
X199240285Y-85225942D01*
X199287904Y-85130704D01*
X199335523Y-84940228D01*
X199335523Y-84702133D01*
X199287904Y-84511657D01*
X199240285Y-84416419D01*
X199192666Y-84368800D01*
X199097428Y-84321180D01*
%TO.C,K21*%
X220290285Y-85321180D02*
X220290285Y-84321180D01*
X219718857Y-85321180D02*
X220147428Y-84749752D01*
X219718857Y-84321180D02*
X220290285Y-84892609D01*
X219337904Y-84416419D02*
X219290285Y-84368800D01*
X219195047Y-84321180D01*
X218956952Y-84321180D01*
X218861714Y-84368800D01*
X218814095Y-84416419D01*
X218766476Y-84511657D01*
X218766476Y-84606895D01*
X218814095Y-84749752D01*
X219385523Y-85321180D01*
X218766476Y-85321180D01*
X217814095Y-85321180D02*
X218385523Y-85321180D01*
X218099809Y-85321180D02*
X218099809Y-84321180D01*
X218195047Y-84464038D01*
X218290285Y-84559276D01*
X218385523Y-84606895D01*
%TO.C,K22*%
X239340285Y-85321180D02*
X239340285Y-84321180D01*
X238768857Y-85321180D02*
X239197428Y-84749752D01*
X238768857Y-84321180D02*
X239340285Y-84892609D01*
X238387904Y-84416419D02*
X238340285Y-84368800D01*
X238245047Y-84321180D01*
X238006952Y-84321180D01*
X237911714Y-84368800D01*
X237864095Y-84416419D01*
X237816476Y-84511657D01*
X237816476Y-84606895D01*
X237864095Y-84749752D01*
X238435523Y-85321180D01*
X237816476Y-85321180D01*
X237435523Y-84416419D02*
X237387904Y-84368800D01*
X237292666Y-84321180D01*
X237054571Y-84321180D01*
X236959333Y-84368800D01*
X236911714Y-84416419D01*
X236864095Y-84511657D01*
X236864095Y-84606895D01*
X236911714Y-84749752D01*
X237483142Y-85321180D01*
X236864095Y-85321180D01*
%TO.C,K23*%
X258390285Y-85321180D02*
X258390285Y-84321180D01*
X257818857Y-85321180D02*
X258247428Y-84749752D01*
X257818857Y-84321180D02*
X258390285Y-84892609D01*
X257437904Y-84416419D02*
X257390285Y-84368800D01*
X257295047Y-84321180D01*
X257056952Y-84321180D01*
X256961714Y-84368800D01*
X256914095Y-84416419D01*
X256866476Y-84511657D01*
X256866476Y-84606895D01*
X256914095Y-84749752D01*
X257485523Y-85321180D01*
X256866476Y-85321180D01*
X256533142Y-84321180D02*
X255914095Y-84321180D01*
X256247428Y-84702133D01*
X256104571Y-84702133D01*
X256009333Y-84749752D01*
X255961714Y-84797371D01*
X255914095Y-84892609D01*
X255914095Y-85130704D01*
X255961714Y-85225942D01*
X256009333Y-85273561D01*
X256104571Y-85321180D01*
X256390285Y-85321180D01*
X256485523Y-85273561D01*
X256533142Y-85225942D01*
%TO.C,K24*%
X277440285Y-85321180D02*
X277440285Y-84321180D01*
X276868857Y-85321180D02*
X277297428Y-84749752D01*
X276868857Y-84321180D02*
X277440285Y-84892609D01*
X276487904Y-84416419D02*
X276440285Y-84368800D01*
X276345047Y-84321180D01*
X276106952Y-84321180D01*
X276011714Y-84368800D01*
X275964095Y-84416419D01*
X275916476Y-84511657D01*
X275916476Y-84606895D01*
X275964095Y-84749752D01*
X276535523Y-85321180D01*
X275916476Y-85321180D01*
X275059333Y-84654514D02*
X275059333Y-85321180D01*
X275297428Y-84273561D02*
X275535523Y-84987847D01*
X274916476Y-84987847D01*
%TO.C,K25*%
X296490285Y-85321180D02*
X296490285Y-84321180D01*
X295918857Y-85321180D02*
X296347428Y-84749752D01*
X295918857Y-84321180D02*
X296490285Y-84892609D01*
X295537904Y-84416419D02*
X295490285Y-84368800D01*
X295395047Y-84321180D01*
X295156952Y-84321180D01*
X295061714Y-84368800D01*
X295014095Y-84416419D01*
X294966476Y-84511657D01*
X294966476Y-84606895D01*
X295014095Y-84749752D01*
X295585523Y-85321180D01*
X294966476Y-85321180D01*
X294061714Y-84321180D02*
X294537904Y-84321180D01*
X294585523Y-84797371D01*
X294537904Y-84749752D01*
X294442666Y-84702133D01*
X294204571Y-84702133D01*
X294109333Y-84749752D01*
X294061714Y-84797371D01*
X294014095Y-84892609D01*
X294014095Y-85130704D01*
X294061714Y-85225942D01*
X294109333Y-85273561D01*
X294204571Y-85321180D01*
X294442666Y-85321180D01*
X294537904Y-85273561D01*
X294585523Y-85225942D01*
%TO.C,K26*%
X315540285Y-85321180D02*
X315540285Y-84321180D01*
X314968857Y-85321180D02*
X315397428Y-84749752D01*
X314968857Y-84321180D02*
X315540285Y-84892609D01*
X314587904Y-84416419D02*
X314540285Y-84368800D01*
X314445047Y-84321180D01*
X314206952Y-84321180D01*
X314111714Y-84368800D01*
X314064095Y-84416419D01*
X314016476Y-84511657D01*
X314016476Y-84606895D01*
X314064095Y-84749752D01*
X314635523Y-85321180D01*
X314016476Y-85321180D01*
X313159333Y-84321180D02*
X313349809Y-84321180D01*
X313445047Y-84368800D01*
X313492666Y-84416419D01*
X313587904Y-84559276D01*
X313635523Y-84749752D01*
X313635523Y-85130704D01*
X313587904Y-85225942D01*
X313540285Y-85273561D01*
X313445047Y-85321180D01*
X313254571Y-85321180D01*
X313159333Y-85273561D01*
X313111714Y-85225942D01*
X313064095Y-85130704D01*
X313064095Y-84892609D01*
X313111714Y-84797371D01*
X313159333Y-84749752D01*
X313254571Y-84702133D01*
X313445047Y-84702133D01*
X313540285Y-84749752D01*
X313587904Y-84797371D01*
X313635523Y-84892609D01*
%TD*%
M02*
