%TF.GenerationSoftware,KiCad,Pcbnew,(5.1.9)-1*%
%TF.CreationDate,2021-02-15T19:25:36-05:00*%
%TF.ProjectId,60percent,36307065-7263-4656-9e74-2e6b69636164,rev?*%
%TF.SameCoordinates,Original*%
%TF.FileFunction,Soldermask,Bot*%
%TF.FilePolarity,Negative*%
%FSLAX46Y46*%
G04 Gerber Fmt 4.6, Leading zero omitted, Abs format (unit mm)*
G04 Created by KiCad (PCBNEW (5.1.9)-1) date 2021-02-15 19:25:36*
%MOMM*%
%LPD*%
G01*
G04 APERTURE LIST*
%ADD10R,1.600000X1.600000*%
%ADD11C,1.600000*%
%ADD12R,2.550000X2.500000*%
%ADD13C,1.750000*%
%ADD14C,4.000000*%
%ADD15C,3.000000*%
%ADD16C,2.000000*%
%ADD17R,2.000000X3.200000*%
%ADD18R,2.000000X2.000000*%
%ADD19R,1.752600X1.752600*%
%ADD20C,1.752600*%
G04 APERTURE END LIST*
D10*
%TO.C,D1*%
X85725000Y-82480750D03*
D11*
X85725000Y-74680750D03*
%TD*%
D10*
%TO.C,D2*%
X91350000Y-78580750D03*
D11*
X99150000Y-78580750D03*
%TD*%
D10*
%TO.C,D3*%
X110400000Y-78580750D03*
D11*
X118200000Y-78580750D03*
%TD*%
%TO.C,D4*%
X137250000Y-78580750D03*
D10*
X129450000Y-78580750D03*
%TD*%
%TO.C,D5*%
X148499500Y-78580750D03*
D11*
X156299500Y-78580750D03*
%TD*%
D10*
%TO.C,D6*%
X167549500Y-78580750D03*
D11*
X175349500Y-78580750D03*
%TD*%
%TO.C,D7*%
X194399500Y-78580750D03*
D10*
X186599500Y-78580750D03*
%TD*%
%TO.C,D8*%
X205649500Y-78580750D03*
D11*
X213449500Y-78580750D03*
%TD*%
D10*
%TO.C,D9*%
X224699500Y-78580750D03*
D11*
X232499500Y-78580750D03*
%TD*%
%TO.C,D10*%
X251549500Y-78580750D03*
D10*
X243749500Y-78580750D03*
%TD*%
D11*
%TO.C,D11*%
X270599500Y-78580750D03*
D10*
X262799500Y-78580750D03*
%TD*%
%TO.C,D12*%
X281849500Y-78580750D03*
D11*
X289649500Y-78580750D03*
%TD*%
%TO.C,D13*%
X308699500Y-78580750D03*
D10*
X300899500Y-78580750D03*
%TD*%
D11*
%TO.C,D14*%
X337275500Y-78580750D03*
D10*
X329475500Y-78580750D03*
%TD*%
D11*
%TO.C,D15*%
X84862500Y-97630750D03*
D10*
X77062500Y-97630750D03*
%TD*%
D11*
%TO.C,D16*%
X108675000Y-97630750D03*
D10*
X100875000Y-97630750D03*
%TD*%
%TO.C,D17*%
X119925000Y-97630750D03*
D11*
X127725000Y-97630750D03*
%TD*%
%TO.C,D18*%
X146775000Y-97630750D03*
D10*
X138975000Y-97630750D03*
%TD*%
D11*
%TO.C,D19*%
X165825500Y-97630750D03*
D10*
X158025500Y-97630750D03*
%TD*%
%TO.C,D20*%
X177075500Y-97630750D03*
D11*
X184875500Y-97630750D03*
%TD*%
D10*
%TO.C,D21*%
X196125500Y-97630750D03*
D11*
X203925500Y-97630750D03*
%TD*%
D10*
%TO.C,D22*%
X215175500Y-97630750D03*
D11*
X222975500Y-97630750D03*
%TD*%
%TO.C,D23*%
X242025500Y-97630750D03*
D10*
X234225500Y-97630750D03*
%TD*%
%TO.C,D24*%
X253275500Y-97630750D03*
D11*
X261075500Y-97630750D03*
%TD*%
%TO.C,D25*%
X280125500Y-97630750D03*
D10*
X272325500Y-97630750D03*
%TD*%
%TO.C,D26*%
X291375500Y-97630750D03*
D11*
X299175500Y-97630750D03*
%TD*%
%TO.C,D27*%
X318225500Y-97630750D03*
D10*
X310425500Y-97630750D03*
%TD*%
%TO.C,D28*%
X334237500Y-97630750D03*
D11*
X342037500Y-97630750D03*
%TD*%
D10*
%TO.C,D29*%
X79443700Y-116680750D03*
D11*
X87243700Y-116680750D03*
%TD*%
D10*
%TO.C,D30*%
X105637500Y-116680750D03*
D11*
X113437500Y-116680750D03*
%TD*%
D10*
%TO.C,D31*%
X124687500Y-116680750D03*
D11*
X132487500Y-116680750D03*
%TD*%
%TO.C,D32*%
X151537500Y-116680750D03*
D10*
X143737500Y-116680750D03*
%TD*%
%TO.C,D33*%
X162787500Y-116680750D03*
D11*
X170587500Y-116680750D03*
%TD*%
%TO.C,D34*%
X189637500Y-116680750D03*
D10*
X181837500Y-116680750D03*
%TD*%
%TO.C,D35*%
X200887500Y-116680750D03*
D11*
X208687500Y-116680750D03*
%TD*%
%TO.C,D36*%
X227737500Y-116680750D03*
D10*
X219937500Y-116680750D03*
%TD*%
%TO.C,D37*%
X238987500Y-116680750D03*
D11*
X246787500Y-116680750D03*
%TD*%
%TO.C,D38*%
X265837500Y-116680750D03*
D10*
X258037500Y-116680750D03*
%TD*%
%TO.C,D39*%
X277203500Y-116680750D03*
D11*
X285003500Y-116680750D03*
%TD*%
%TO.C,D40*%
X303937500Y-116680750D03*
D10*
X296137500Y-116680750D03*
%TD*%
D11*
%TO.C,D41*%
X334893500Y-116680750D03*
D10*
X327093500Y-116680750D03*
%TD*%
D11*
%TO.C,D42*%
X92006300Y-135730750D03*
D10*
X84206300Y-135730750D03*
%TD*%
%TO.C,D43*%
X115162500Y-135730750D03*
D11*
X122962500Y-135730750D03*
%TD*%
%TO.C,D44*%
X142012500Y-135730750D03*
D10*
X134212500Y-135730750D03*
%TD*%
%TO.C,D45*%
X153262500Y-135730750D03*
D11*
X161062500Y-135730750D03*
%TD*%
%TO.C,D46*%
X180112500Y-135730750D03*
D10*
X172312500Y-135730750D03*
%TD*%
%TO.C,D47*%
X191362500Y-135730750D03*
D11*
X199162500Y-135730750D03*
%TD*%
%TO.C,D48*%
X218212500Y-135730750D03*
D10*
X210412500Y-135730750D03*
%TD*%
%TO.C,D49*%
X229462500Y-135730750D03*
D11*
X237262500Y-135730750D03*
%TD*%
%TO.C,D50*%
X256312500Y-135730750D03*
D10*
X248512500Y-135730750D03*
%TD*%
D11*
%TO.C,D51*%
X275362500Y-135730750D03*
D10*
X267562500Y-135730750D03*
%TD*%
D11*
%TO.C,D52*%
X294412500Y-135730750D03*
D10*
X286612500Y-135730750D03*
%TD*%
%TO.C,D53*%
X322331500Y-135730750D03*
D11*
X330131500Y-135730750D03*
%TD*%
%TO.C,D54*%
X82481300Y-154780750D03*
D10*
X74681300Y-154780750D03*
%TD*%
%TO.C,D55*%
X98493700Y-154780750D03*
D11*
X106293700Y-154780750D03*
%TD*%
%TO.C,D56*%
X130106300Y-154780750D03*
D10*
X122306300Y-154780750D03*
%TD*%
%TO.C,D57*%
X193743500Y-154780750D03*
D11*
X201543500Y-154780750D03*
%TD*%
%TO.C,D58*%
X272981500Y-154780750D03*
D10*
X265181500Y-154780750D03*
%TD*%
%TO.C,D59*%
X288993500Y-154780750D03*
D11*
X296793500Y-154780750D03*
%TD*%
%TO.C,D60*%
X320606500Y-154780750D03*
D10*
X312806500Y-154780750D03*
%TD*%
%TO.C,D61*%
X336618500Y-154780750D03*
D11*
X344418500Y-154780750D03*
%TD*%
D12*
%TO.C,K1*%
X101092000Y-68738750D03*
X88165000Y-71278750D03*
D13*
X100330000Y-73818750D03*
X90170000Y-73818750D03*
D14*
X95250000Y-73818750D03*
D15*
X97790000Y-68738750D03*
X91440000Y-71278750D03*
%TD*%
%TO.C,K2*%
X110490000Y-71278750D03*
X116840000Y-68738750D03*
D14*
X114300000Y-73818750D03*
D13*
X109220000Y-73818750D03*
X119380000Y-73818750D03*
D12*
X107215000Y-71278750D03*
X120142000Y-68738750D03*
%TD*%
D15*
%TO.C,K3*%
X129540000Y-71278750D03*
X135890000Y-68738750D03*
D14*
X133350000Y-73818750D03*
D13*
X128270000Y-73818750D03*
X138430000Y-73818750D03*
D12*
X126265000Y-71278750D03*
X139192000Y-68738750D03*
%TD*%
%TO.C,K4*%
X158241500Y-68738750D03*
X145314500Y-71278750D03*
D13*
X157479500Y-73818750D03*
X147319500Y-73818750D03*
D14*
X152399500Y-73818750D03*
D15*
X154939500Y-68738750D03*
X148589500Y-71278750D03*
%TD*%
%TO.C,K5*%
X167639500Y-71278750D03*
X173989500Y-68738750D03*
D14*
X171449500Y-73818750D03*
D13*
X166369500Y-73818750D03*
X176529500Y-73818750D03*
D12*
X164364500Y-71278750D03*
X177291500Y-68738750D03*
%TD*%
%TO.C,K6*%
X196341500Y-68738750D03*
X183414500Y-71278750D03*
D13*
X195579500Y-73818750D03*
X185419500Y-73818750D03*
D14*
X190499500Y-73818750D03*
D15*
X193039500Y-68738750D03*
X186689500Y-71278750D03*
%TD*%
D12*
%TO.C,K7*%
X215391500Y-68738750D03*
X202464500Y-71278750D03*
D13*
X214629500Y-73818750D03*
X204469500Y-73818750D03*
D14*
X209549500Y-73818750D03*
D15*
X212089500Y-68738750D03*
X205739500Y-71278750D03*
%TD*%
D12*
%TO.C,K8*%
X234441500Y-68738750D03*
X221514500Y-71278750D03*
D13*
X233679500Y-73818750D03*
X223519500Y-73818750D03*
D14*
X228599500Y-73818750D03*
D15*
X231139500Y-68738750D03*
X224789500Y-71278750D03*
%TD*%
%TO.C,K9*%
X243839500Y-71278750D03*
X250189500Y-68738750D03*
D14*
X247649500Y-73818750D03*
D13*
X242569500Y-73818750D03*
X252729500Y-73818750D03*
D12*
X240564500Y-71278750D03*
X253491500Y-68738750D03*
%TD*%
D15*
%TO.C,K10*%
X262889500Y-71278750D03*
X269239500Y-68738750D03*
D14*
X266699500Y-73818750D03*
D13*
X261619500Y-73818750D03*
X271779500Y-73818750D03*
D12*
X259614500Y-71278750D03*
X272541500Y-68738750D03*
%TD*%
%TO.C,K11*%
X291591500Y-68738750D03*
X278664500Y-71278750D03*
D13*
X290829500Y-73818750D03*
X280669500Y-73818750D03*
D14*
X285749500Y-73818750D03*
D15*
X288289500Y-68738750D03*
X281939500Y-71278750D03*
%TD*%
D12*
%TO.C,K12*%
X310641500Y-68738750D03*
X297714500Y-71278750D03*
D13*
X309879500Y-73818750D03*
X299719500Y-73818750D03*
D14*
X304799500Y-73818750D03*
D15*
X307339500Y-68738750D03*
X300989500Y-71278750D03*
%TD*%
%TO.C,K13*%
X329565500Y-71278750D03*
X335915500Y-68738750D03*
D14*
X333375500Y-73818750D03*
D13*
X328295500Y-73818750D03*
X338455500Y-73818750D03*
D12*
X326290500Y-71278750D03*
X339217500Y-68738750D03*
%TD*%
D15*
%TO.C,K14*%
X77152500Y-90328750D03*
X83502500Y-87788750D03*
D14*
X80962500Y-92868750D03*
D13*
X75882500Y-92868750D03*
X86042500Y-92868750D03*
D12*
X73877500Y-90328750D03*
X86804500Y-87788750D03*
%TD*%
%TO.C,K27*%
X343979500Y-87788750D03*
X331052500Y-90328750D03*
D13*
X343217500Y-92868750D03*
X333057500Y-92868750D03*
D14*
X338137500Y-92868750D03*
D15*
X340677500Y-87788750D03*
X334327500Y-90328750D03*
%TD*%
%TO.C,K28*%
X79533700Y-109378750D03*
X85883700Y-106838750D03*
D14*
X83343700Y-111918750D03*
D13*
X78263700Y-111918750D03*
X88423700Y-111918750D03*
D12*
X76258700Y-109378750D03*
X89185700Y-106838750D03*
%TD*%
D15*
%TO.C,K29*%
X105727500Y-109378750D03*
X112077500Y-106838750D03*
D14*
X109537500Y-111918750D03*
D13*
X104457500Y-111918750D03*
X114617500Y-111918750D03*
D12*
X102452500Y-109378750D03*
X115379500Y-106838750D03*
%TD*%
%TO.C,K30*%
X134429500Y-106838750D03*
X121502500Y-109378750D03*
D13*
X133667500Y-111918750D03*
X123507500Y-111918750D03*
D14*
X128587500Y-111918750D03*
D15*
X131127500Y-106838750D03*
X124777500Y-109378750D03*
%TD*%
D12*
%TO.C,K31*%
X153479500Y-106838750D03*
X140552500Y-109378750D03*
D13*
X152717500Y-111918750D03*
X142557500Y-111918750D03*
D14*
X147637500Y-111918750D03*
D15*
X150177500Y-106838750D03*
X143827500Y-109378750D03*
%TD*%
D12*
%TO.C,K32*%
X172370500Y-106838750D03*
X159443500Y-109378750D03*
D13*
X171608500Y-111918750D03*
X161448500Y-111918750D03*
D14*
X166528500Y-111918750D03*
D15*
X169068500Y-106838750D03*
X162718500Y-109378750D03*
%TD*%
%TO.C,K33*%
X181927500Y-109378750D03*
X188277500Y-106838750D03*
D14*
X185737500Y-111918750D03*
D13*
X180657500Y-111918750D03*
X190817500Y-111918750D03*
D12*
X178652500Y-109378750D03*
X191579500Y-106838750D03*
%TD*%
%TO.C,K34*%
X210629500Y-106838750D03*
X197702500Y-109378750D03*
D13*
X209867500Y-111918750D03*
X199707500Y-111918750D03*
D14*
X204787500Y-111918750D03*
D15*
X207327500Y-106838750D03*
X200977500Y-109378750D03*
%TD*%
D12*
%TO.C,K35*%
X229679500Y-106838750D03*
X216752500Y-109378750D03*
D13*
X228917500Y-111918750D03*
X218757500Y-111918750D03*
D14*
X223837500Y-111918750D03*
D15*
X226377500Y-106838750D03*
X220027500Y-109378750D03*
%TD*%
%TO.C,K36*%
X239077500Y-109378750D03*
X245427500Y-106838750D03*
D14*
X242887500Y-111918750D03*
D13*
X237807500Y-111918750D03*
X247967500Y-111918750D03*
D12*
X235802500Y-109378750D03*
X248729500Y-106838750D03*
%TD*%
D15*
%TO.C,K37*%
X258127500Y-109378750D03*
X264477500Y-106838750D03*
D14*
X261937500Y-111918750D03*
D13*
X256857500Y-111918750D03*
X267017500Y-111918750D03*
D12*
X254852500Y-109378750D03*
X267779500Y-106838750D03*
%TD*%
D15*
%TO.C,K38*%
X277177500Y-109378750D03*
X283527500Y-106838750D03*
D14*
X280987500Y-111918750D03*
D13*
X275907500Y-111918750D03*
X286067500Y-111918750D03*
D12*
X273902500Y-109378750D03*
X286829500Y-106838750D03*
%TD*%
D15*
%TO.C,K39*%
X296227500Y-109378750D03*
X302577500Y-106838750D03*
D14*
X300037500Y-111918750D03*
D13*
X294957500Y-111918750D03*
X305117500Y-111918750D03*
D12*
X292952500Y-109378750D03*
X305879500Y-106838750D03*
%TD*%
D15*
%TO.C,K40*%
X327183500Y-109378750D03*
X333533500Y-106838750D03*
D14*
X330993500Y-111918750D03*
D13*
X325913500Y-111918750D03*
X336073500Y-111918750D03*
D12*
X323908500Y-109378750D03*
X336835500Y-106838750D03*
%TD*%
%TO.C,K41*%
X93948300Y-125888750D03*
X81021300Y-128428750D03*
D13*
X93186300Y-130968750D03*
X83026300Y-130968750D03*
D14*
X88106300Y-130968750D03*
D15*
X90646300Y-125888750D03*
X84296300Y-128428750D03*
%TD*%
%TO.C,K42*%
X115193700Y-128428750D03*
X121543700Y-125888750D03*
D14*
X119003700Y-130968750D03*
D13*
X113923700Y-130968750D03*
X124083700Y-130968750D03*
D12*
X111918700Y-128428750D03*
X124845700Y-125888750D03*
%TD*%
D15*
%TO.C,K43*%
X134302500Y-128428750D03*
X140652500Y-125888750D03*
D14*
X138112500Y-130968750D03*
D13*
X133032500Y-130968750D03*
X143192500Y-130968750D03*
D12*
X131027500Y-128428750D03*
X143954500Y-125888750D03*
%TD*%
D15*
%TO.C,K44*%
X153352500Y-128428750D03*
X159702500Y-125888750D03*
D14*
X157162500Y-130968750D03*
D13*
X152082500Y-130968750D03*
X162242500Y-130968750D03*
D12*
X150077500Y-128428750D03*
X163004500Y-125888750D03*
%TD*%
%TO.C,K45*%
X182054500Y-125888750D03*
X169127500Y-128428750D03*
D13*
X181292500Y-130968750D03*
X171132500Y-130968750D03*
D14*
X176212500Y-130968750D03*
D15*
X178752500Y-125888750D03*
X172402500Y-128428750D03*
%TD*%
D12*
%TO.C,K46*%
X201104500Y-125888750D03*
X188177500Y-128428750D03*
D13*
X200342500Y-130968750D03*
X190182500Y-130968750D03*
D14*
X195262500Y-130968750D03*
D15*
X197802500Y-125888750D03*
X191452500Y-128428750D03*
%TD*%
D12*
%TO.C,K47*%
X220154500Y-125888750D03*
X207227500Y-128428750D03*
D13*
X219392500Y-130968750D03*
X209232500Y-130968750D03*
D14*
X214312500Y-130968750D03*
D15*
X216852500Y-125888750D03*
X210502500Y-128428750D03*
%TD*%
D12*
%TO.C,K48*%
X239204500Y-125888750D03*
X226277500Y-128428750D03*
D13*
X238442500Y-130968750D03*
X228282500Y-130968750D03*
D14*
X233362500Y-130968750D03*
D15*
X235902500Y-125888750D03*
X229552500Y-128428750D03*
%TD*%
%TO.C,K49*%
X248602500Y-128428750D03*
X254952500Y-125888750D03*
D14*
X252412500Y-130968750D03*
D13*
X247332500Y-130968750D03*
X257492500Y-130968750D03*
D12*
X245327500Y-128428750D03*
X258254500Y-125888750D03*
%TD*%
D15*
%TO.C,K50*%
X267652500Y-128428750D03*
X274002500Y-125888750D03*
D14*
X271462500Y-130968750D03*
D13*
X266382500Y-130968750D03*
X276542500Y-130968750D03*
D12*
X264377500Y-128428750D03*
X277304500Y-125888750D03*
%TD*%
D15*
%TO.C,K51*%
X286702500Y-128428750D03*
X293052500Y-125888750D03*
D14*
X290512500Y-130968750D03*
D13*
X285432500Y-130968750D03*
X295592500Y-130968750D03*
D12*
X283427500Y-128428750D03*
X296354500Y-125888750D03*
%TD*%
D15*
%TO.C,K52*%
X322421500Y-128428750D03*
X328771500Y-125888750D03*
D14*
X326231500Y-130968750D03*
D13*
X321151500Y-130968750D03*
X331311500Y-130968750D03*
D12*
X319146500Y-128428750D03*
X332073500Y-125888750D03*
%TD*%
%TO.C,K53*%
X84423300Y-144938750D03*
X71496300Y-147478750D03*
D13*
X83661300Y-150018750D03*
X73501300Y-150018750D03*
D14*
X78581300Y-150018750D03*
D15*
X81121300Y-144938750D03*
X74771300Y-147478750D03*
%TD*%
%TO.C,K54*%
X98583700Y-147478750D03*
X104933700Y-144938750D03*
D14*
X102393700Y-150018750D03*
D13*
X97313700Y-150018750D03*
X107473700Y-150018750D03*
D12*
X95308700Y-147478750D03*
X108235700Y-144938750D03*
%TD*%
D15*
%TO.C,K55*%
X122396300Y-147478750D03*
X128746300Y-144938750D03*
D14*
X126206300Y-150018750D03*
D13*
X121126300Y-150018750D03*
X131286300Y-150018750D03*
D12*
X119121300Y-147478750D03*
X132048300Y-144938750D03*
%TD*%
D15*
%TO.C,K56*%
X193833500Y-147478750D03*
X200183500Y-144938750D03*
D14*
X197643500Y-150018750D03*
D13*
X192563500Y-150018750D03*
X202723500Y-150018750D03*
D12*
X190558500Y-147478750D03*
X203485500Y-144938750D03*
%TD*%
D15*
%TO.C,K57*%
X265271500Y-147478750D03*
X271621500Y-144938750D03*
D14*
X269081500Y-150018750D03*
D13*
X264001500Y-150018750D03*
X274161500Y-150018750D03*
D12*
X261996500Y-147478750D03*
X274923500Y-144938750D03*
%TD*%
%TO.C,K58*%
X298735500Y-144938750D03*
X285808500Y-147478750D03*
D13*
X297973500Y-150018750D03*
X287813500Y-150018750D03*
D14*
X292893500Y-150018750D03*
D15*
X295433500Y-144938750D03*
X289083500Y-147478750D03*
%TD*%
%TO.C,K59*%
X312896500Y-147478750D03*
X319246500Y-144938750D03*
D14*
X316706500Y-150018750D03*
D13*
X311626500Y-150018750D03*
X321786500Y-150018750D03*
D12*
X309621500Y-147478750D03*
X322548500Y-144938750D03*
%TD*%
%TO.C,K60*%
X346360500Y-144938750D03*
X333433500Y-147478750D03*
D13*
X345598500Y-150018750D03*
X335438500Y-150018750D03*
D14*
X340518500Y-150018750D03*
D15*
X343058500Y-144938750D03*
X336708500Y-147478750D03*
%TD*%
D16*
%TO.C,SW1*%
X78818700Y-66462750D03*
X73818700Y-66462750D03*
D17*
X81918700Y-73462750D03*
X70718700Y-73462750D03*
D16*
X78818700Y-80962750D03*
X76318700Y-80962750D03*
D18*
X73818700Y-80962750D03*
%TD*%
D19*
%TO.C,U1*%
X71755000Y-119538750D03*
D20*
X74295000Y-119538750D03*
X76835000Y-119538750D03*
X79375000Y-119538750D03*
X81915000Y-119538750D03*
X84455000Y-119538750D03*
X86995000Y-119538750D03*
X89535000Y-119538750D03*
X92075000Y-119538750D03*
X94615000Y-119538750D03*
X97155000Y-119538750D03*
X99695000Y-104298750D03*
X97155000Y-104298750D03*
X94615000Y-104298750D03*
X92075000Y-104298750D03*
X89535000Y-104298750D03*
X86995000Y-104298750D03*
X84455000Y-104298750D03*
X81915000Y-104298750D03*
X79375000Y-104298750D03*
X76835000Y-104298750D03*
X74295000Y-104298750D03*
X99695000Y-119310150D03*
X71755000Y-104298750D03*
X99695000Y-106838750D03*
X99695000Y-109378750D03*
X99695000Y-111918750D03*
X99695000Y-114458750D03*
X99695000Y-116998750D03*
%TD*%
D12*
%TO.C,K15*%
X110617000Y-87788750D03*
X97690000Y-90328750D03*
D13*
X109855000Y-92868750D03*
X99695000Y-92868750D03*
D14*
X104775000Y-92868750D03*
D15*
X107315000Y-87788750D03*
X100965000Y-90328750D03*
%TD*%
%TO.C,K16*%
X120015000Y-90328750D03*
X126365000Y-87788750D03*
D14*
X123825000Y-92868750D03*
D13*
X118745000Y-92868750D03*
X128905000Y-92868750D03*
D12*
X116740000Y-90328750D03*
X129667000Y-87788750D03*
%TD*%
%TO.C,K17*%
X148717000Y-87788750D03*
X135790000Y-90328750D03*
D13*
X147955000Y-92868750D03*
X137795000Y-92868750D03*
D14*
X142875000Y-92868750D03*
D15*
X145415000Y-87788750D03*
X139065000Y-90328750D03*
%TD*%
%TO.C,K18*%
X158115500Y-90328750D03*
X164465500Y-87788750D03*
D14*
X161925500Y-92868750D03*
D13*
X156845500Y-92868750D03*
X167005500Y-92868750D03*
D12*
X154840500Y-90328750D03*
X167767500Y-87788750D03*
%TD*%
D15*
%TO.C,K19*%
X177165500Y-90328750D03*
X183515500Y-87788750D03*
D14*
X180975500Y-92868750D03*
D13*
X175895500Y-92868750D03*
X186055500Y-92868750D03*
D12*
X173890500Y-90328750D03*
X186817500Y-87788750D03*
%TD*%
%TO.C,K20*%
X205867500Y-87788750D03*
X192940500Y-90328750D03*
D13*
X205105500Y-92868750D03*
X194945500Y-92868750D03*
D14*
X200025500Y-92868750D03*
D15*
X202565500Y-87788750D03*
X196215500Y-90328750D03*
%TD*%
D12*
%TO.C,K21*%
X224917500Y-87788750D03*
X211990500Y-90328750D03*
D13*
X224155500Y-92868750D03*
X213995500Y-92868750D03*
D14*
X219075500Y-92868750D03*
D15*
X221615500Y-87788750D03*
X215265500Y-90328750D03*
%TD*%
%TO.C,K22*%
X234315500Y-90328750D03*
X240665500Y-87788750D03*
D14*
X238125500Y-92868750D03*
D13*
X233045500Y-92868750D03*
X243205500Y-92868750D03*
D12*
X231040500Y-90328750D03*
X243967500Y-87788750D03*
%TD*%
D15*
%TO.C,K23*%
X253365500Y-90328750D03*
X259715500Y-87788750D03*
D14*
X257175500Y-92868750D03*
D13*
X252095500Y-92868750D03*
X262255500Y-92868750D03*
D12*
X250090500Y-90328750D03*
X263017500Y-87788750D03*
%TD*%
D15*
%TO.C,K24*%
X272415500Y-90328750D03*
X278765500Y-87788750D03*
D14*
X276225500Y-92868750D03*
D13*
X271145500Y-92868750D03*
X281305500Y-92868750D03*
D12*
X269140500Y-90328750D03*
X282067500Y-87788750D03*
%TD*%
%TO.C,K25*%
X301117500Y-87788750D03*
X288190500Y-90328750D03*
D13*
X300355500Y-92868750D03*
X290195500Y-92868750D03*
D14*
X295275500Y-92868750D03*
D15*
X297815500Y-87788750D03*
X291465500Y-90328750D03*
%TD*%
D12*
%TO.C,K26*%
X320167500Y-87788750D03*
X307240500Y-90328750D03*
D13*
X319405500Y-92868750D03*
X309245500Y-92868750D03*
D14*
X314325500Y-92868750D03*
D15*
X316865500Y-87788750D03*
X310515500Y-90328750D03*
%TD*%
M02*
