M48
; DRILL file {KiCad (5.1.9)-1} date 02/15/21 21:30:35
; FORMAT={-:-/ absolute / inch / decimal}
; #@! TF.CreationDate,2021-02-15T21:30:35-05:00
; #@! TF.GenerationSoftware,Kicad,Pcbnew,(5.1.9)-1
; #@! TF.FileFunction,NonPlated,1,2,NPTH
FMAT,2
INCH
T1C0.0689
T2C0.1181
T3C0.1575
%
G90
G05
T1
X2.8938Y-5.9063
X2.9875Y-3.6563
X3.0812Y-4.4063
X3.2688Y-5.1563
X3.2938Y-5.9063
X3.3875Y-3.6563
X3.4812Y-4.4063
X3.55Y-2.9063
X3.6688Y-5.1563
X3.8313Y-5.9063
X3.925Y-3.6563
X3.95Y-2.9063
X4.1125Y-4.4063
X4.2313Y-5.9063
X4.3Y-2.9063
X4.325Y-3.6563
X4.4852Y-5.1563
X4.5125Y-4.4063
X4.675Y-3.6563
X4.7Y-2.9063
X4.7687Y-5.9063
X4.8625Y-4.4063
X4.8852Y-5.1563
X5.05Y-2.9063
X5.075Y-3.6563
X5.1687Y-5.9063
X5.2375Y-5.1563
X5.2625Y-4.4063
X5.425Y-3.6563
X5.45Y-2.9063
X5.6125Y-4.4063
X5.6375Y-5.1563
X5.8Y-2.9063
X5.825Y-3.6563
X5.9875Y-5.1563
X6.0125Y-4.4063
X6.175Y-3.6563
X6.2Y-2.9063
X6.3562Y-4.4063
X6.3875Y-5.1563
X6.55Y-2.9063
X6.575Y-3.6563
X6.7375Y-5.1563
X6.7562Y-4.4063
X6.925Y-3.6563
X6.95Y-2.9063
X7.1125Y-4.4063
X7.1375Y-5.1563
X7.3Y-2.9063
X7.325Y-3.6563
X7.4875Y-5.1563
X7.5125Y-4.4063
X7.5813Y-5.9063
X7.675Y-3.6563
X7.7Y-2.9063
X7.8625Y-4.4063
X7.8875Y-5.1563
X7.9813Y-5.9063
X8.05Y-2.9063
X8.075Y-3.6563
X8.2375Y-5.1563
X8.2625Y-4.4063
X8.425Y-3.6563
X8.45Y-2.9063
X8.6125Y-4.4063
X8.6375Y-5.1563
X8.8Y-2.9063
X8.825Y-3.6563
X8.9875Y-5.1563
X9.0125Y-4.4063
X9.175Y-3.6563
X9.2Y-2.9063
X9.3625Y-4.4063
X9.3875Y-5.1563
X9.55Y-2.9063
X9.575Y-3.6563
X9.7375Y-5.1563
X9.7625Y-4.4063
X9.925Y-3.6563
X9.95Y-2.9063
X10.1125Y-4.4063
X10.1375Y-5.1563
X10.3Y-2.9063
X10.325Y-3.6563
X10.3938Y-5.9063
X10.4875Y-5.1563
X10.5125Y-4.4063
X10.675Y-3.6563
X10.7Y-2.9063
X10.7938Y-5.9063
X10.8625Y-4.4063
X10.8875Y-5.1563
X11.05Y-2.9063
X11.075Y-3.6563
X11.2375Y-5.1563
X11.2625Y-4.4063
X11.3313Y-5.9063
X11.425Y-3.6563
X11.45Y-2.9063
X11.6125Y-4.4063
X11.6375Y-5.1563
X11.7313Y-5.9063
X11.8Y-2.9063
X11.825Y-3.6563
X12.0125Y-4.4063
X12.175Y-3.6563
X12.2Y-2.9063
X12.2687Y-5.9063
X12.575Y-3.6563
X12.6438Y-5.1563
X12.6687Y-5.9063
X12.8313Y-4.4063
X12.925Y-2.9063
X13.0438Y-5.1563
X13.1125Y-3.6563
X13.2062Y-5.9063
X13.2313Y-4.4063
X13.325Y-2.9063
X13.5125Y-3.6563
X13.6062Y-5.9063
T2
X2.9438Y-5.8063
X3.0375Y-3.5563
X3.1312Y-4.3063
X3.1938Y-5.7063
X3.2875Y-3.4563
X3.3188Y-5.0563
X3.3812Y-4.2063
X3.5688Y-4.9563
X3.6Y-2.8063
X3.85Y-2.7063
X3.8813Y-5.8063
X3.975Y-3.5563
X4.1313Y-5.7063
X4.1625Y-4.3063
X4.225Y-3.4563
X4.35Y-2.8063
X4.4125Y-4.2063
X4.5352Y-5.0563
X4.6Y-2.7063
X4.725Y-3.5563
X4.7852Y-4.9563
X4.8187Y-5.8063
X4.9125Y-4.3063
X4.975Y-3.4563
X5.0687Y-5.7063
X5.1Y-2.8063
X5.1625Y-4.2063
X5.2875Y-5.0563
X5.35Y-2.7063
X5.475Y-3.5563
X5.5375Y-4.9563
X5.6625Y-4.3063
X5.725Y-3.4563
X5.85Y-2.8063
X5.9125Y-4.2063
X6.0375Y-5.0563
X6.1Y-2.7063
X6.225Y-3.5563
X6.2875Y-4.9563
X6.4062Y-4.3063
X6.475Y-3.4563
X6.6Y-2.8063
X6.6562Y-4.2063
X6.7875Y-5.0563
X6.85Y-2.7063
X6.975Y-3.5563
X7.0375Y-4.9563
X7.1625Y-4.3063
X7.225Y-3.4563
X7.35Y-2.8063
X7.4125Y-4.2063
X7.5375Y-5.0563
X7.6Y-2.7063
X7.6313Y-5.8063
X7.725Y-3.5563
X7.7875Y-4.9563
X7.8813Y-5.7063
X7.9125Y-4.3063
X7.975Y-3.4563
X8.1Y-2.8063
X8.1625Y-4.2063
X8.2875Y-5.0563
X8.35Y-2.7063
X8.475Y-3.5563
X8.5375Y-4.9563
X8.6625Y-4.3063
X8.725Y-3.4563
X8.85Y-2.8063
X8.9125Y-4.2063
X9.0375Y-5.0563
X9.1Y-2.7063
X9.225Y-3.5563
X9.2875Y-4.9563
X9.4125Y-4.3063
X9.475Y-3.4563
X9.6Y-2.8063
X9.6625Y-4.2063
X9.7875Y-5.0563
X9.85Y-2.7063
X9.975Y-3.5563
X10.0375Y-4.9563
X10.1625Y-4.3063
X10.225Y-3.4563
X10.35Y-2.8063
X10.4125Y-4.2063
X10.4438Y-5.8063
X10.5375Y-5.0563
X10.6Y-2.7063
X10.6938Y-5.7063
X10.725Y-3.5563
X10.7875Y-4.9563
X10.9125Y-4.3063
X10.975Y-3.4563
X11.1Y-2.8063
X11.1625Y-4.2063
X11.2875Y-5.0563
X11.35Y-2.7063
X11.3813Y-5.8063
X11.475Y-3.5563
X11.5375Y-4.9563
X11.6313Y-5.7063
X11.6625Y-4.3063
X11.725Y-3.4563
X11.85Y-2.8063
X11.9125Y-4.2063
X12.1Y-2.7063
X12.225Y-3.5563
X12.3187Y-5.8063
X12.475Y-3.4563
X12.5687Y-5.7063
X12.6938Y-5.0563
X12.8813Y-4.3063
X12.9438Y-4.9563
X12.975Y-2.8063
X13.1313Y-4.2063
X13.1625Y-3.5563
X13.225Y-2.7063
X13.2562Y-5.8063
X13.4125Y-3.4563
X13.5062Y-5.7063
T3
X3.0938Y-5.9063
X3.1875Y-3.6563
X3.2812Y-4.4063
X3.4688Y-5.1563
X3.75Y-2.9063
X4.0313Y-5.9063
X4.125Y-3.6563
X4.3125Y-4.4063
X4.5Y-2.9063
X4.6852Y-5.1563
X4.875Y-3.6563
X4.9687Y-5.9063
X5.0625Y-4.4063
X5.25Y-2.9063
X5.4375Y-5.1563
X5.625Y-3.6563
X5.8125Y-4.4063
X6.0Y-2.9063
X6.1875Y-5.1563
X6.375Y-3.6563
X6.5562Y-4.4063
X6.75Y-2.9063
X6.9375Y-5.1563
X7.125Y-3.6563
X7.3125Y-4.4063
X7.5Y-2.9063
X7.6875Y-5.1563
X7.7813Y-5.9063
X7.875Y-3.6563
X8.0625Y-4.4063
X8.25Y-2.9063
X8.4375Y-5.1563
X8.625Y-3.6563
X8.8125Y-4.4063
X9.0Y-2.9063
X9.1875Y-5.1563
X9.375Y-3.6563
X9.5625Y-4.4063
X9.75Y-2.9063
X9.9375Y-5.1563
X10.125Y-3.6563
X10.3125Y-4.4063
X10.5Y-2.9063
X10.5938Y-5.9063
X10.6875Y-5.1563
X10.875Y-3.6563
X11.0625Y-4.4063
X11.25Y-2.9063
X11.4375Y-5.1563
X11.5313Y-5.9063
X11.625Y-3.6563
X11.8125Y-4.4063
X12.0Y-2.9063
X12.375Y-3.6563
X12.4687Y-5.9063
X12.8438Y-5.1563
X13.0313Y-4.4063
X13.125Y-2.9063
X13.3125Y-3.6563
X13.4062Y-5.9063
T0
M30
