%TF.GenerationSoftware,KiCad,Pcbnew,(5.1.9)-1*%
%TF.CreationDate,2021-02-15T19:25:36-05:00*%
%TF.ProjectId,60percent,36307065-7263-4656-9e74-2e6b69636164,rev?*%
%TF.SameCoordinates,Original*%
%TF.FileFunction,Legend,Top*%
%TF.FilePolarity,Positive*%
%FSLAX46Y46*%
G04 Gerber Fmt 4.6, Leading zero omitted, Abs format (unit mm)*
G04 Created by KiCad (PCBNEW (5.1.9)-1) date 2021-02-15 19:25:36*
%MOMM*%
%LPD*%
G01*
G04 APERTURE LIST*
%ADD10C,0.200000*%
%ADD11C,0.120000*%
%ADD12C,0.381000*%
%ADD13C,0.150000*%
G04 APERTURE END LIST*
D10*
%TO.C,D1*%
X84525000Y-80855750D02*
X86925000Y-80855750D01*
X84525000Y-81030750D02*
X86925000Y-81030750D01*
X84525000Y-81205750D02*
X86925000Y-81205750D01*
X86925000Y-81605750D02*
X84525000Y-81605750D01*
X84525000Y-81380750D02*
X86925000Y-81380750D01*
X84525000Y-81505750D02*
X86925000Y-81505750D01*
X84525000Y-81580750D02*
X84525000Y-75780750D01*
X84525000Y-75780750D02*
X86925000Y-75780750D01*
X86925000Y-75780750D02*
X86925000Y-81580750D01*
%TO.C,D2*%
X92975000Y-77380750D02*
X92975000Y-79780750D01*
X92800000Y-77380750D02*
X92800000Y-79780750D01*
X92625000Y-77380750D02*
X92625000Y-79780750D01*
X92225000Y-79780750D02*
X92225000Y-77380750D01*
X92450000Y-77380750D02*
X92450000Y-79780750D01*
X92325000Y-77380750D02*
X92325000Y-79780750D01*
X92250000Y-77380750D02*
X98050000Y-77380750D01*
X98050000Y-77380750D02*
X98050000Y-79780750D01*
X98050000Y-79780750D02*
X92250000Y-79780750D01*
%TO.C,D3*%
X112025000Y-77380750D02*
X112025000Y-79780750D01*
X111850000Y-77380750D02*
X111850000Y-79780750D01*
X111675000Y-77380750D02*
X111675000Y-79780750D01*
X111275000Y-79780750D02*
X111275000Y-77380750D01*
X111500000Y-77380750D02*
X111500000Y-79780750D01*
X111375000Y-77380750D02*
X111375000Y-79780750D01*
X111300000Y-77380750D02*
X117100000Y-77380750D01*
X117100000Y-77380750D02*
X117100000Y-79780750D01*
X117100000Y-79780750D02*
X111300000Y-79780750D01*
%TO.C,D4*%
X136150000Y-79780750D02*
X130350000Y-79780750D01*
X136150000Y-77380750D02*
X136150000Y-79780750D01*
X130350000Y-77380750D02*
X136150000Y-77380750D01*
X130425000Y-77380750D02*
X130425000Y-79780750D01*
X130550000Y-77380750D02*
X130550000Y-79780750D01*
X130325000Y-79780750D02*
X130325000Y-77380750D01*
X130725000Y-77380750D02*
X130725000Y-79780750D01*
X130900000Y-77380750D02*
X130900000Y-79780750D01*
X131075000Y-77380750D02*
X131075000Y-79780750D01*
%TO.C,D5*%
X150124500Y-77380750D02*
X150124500Y-79780750D01*
X149949500Y-77380750D02*
X149949500Y-79780750D01*
X149774500Y-77380750D02*
X149774500Y-79780750D01*
X149374500Y-79780750D02*
X149374500Y-77380750D01*
X149599500Y-77380750D02*
X149599500Y-79780750D01*
X149474500Y-77380750D02*
X149474500Y-79780750D01*
X149399500Y-77380750D02*
X155199500Y-77380750D01*
X155199500Y-77380750D02*
X155199500Y-79780750D01*
X155199500Y-79780750D02*
X149399500Y-79780750D01*
%TO.C,D6*%
X169174500Y-77380750D02*
X169174500Y-79780750D01*
X168999500Y-77380750D02*
X168999500Y-79780750D01*
X168824500Y-77380750D02*
X168824500Y-79780750D01*
X168424500Y-79780750D02*
X168424500Y-77380750D01*
X168649500Y-77380750D02*
X168649500Y-79780750D01*
X168524500Y-77380750D02*
X168524500Y-79780750D01*
X168449500Y-77380750D02*
X174249500Y-77380750D01*
X174249500Y-77380750D02*
X174249500Y-79780750D01*
X174249500Y-79780750D02*
X168449500Y-79780750D01*
%TO.C,D7*%
X193299500Y-79780750D02*
X187499500Y-79780750D01*
X193299500Y-77380750D02*
X193299500Y-79780750D01*
X187499500Y-77380750D02*
X193299500Y-77380750D01*
X187574500Y-77380750D02*
X187574500Y-79780750D01*
X187699500Y-77380750D02*
X187699500Y-79780750D01*
X187474500Y-79780750D02*
X187474500Y-77380750D01*
X187874500Y-77380750D02*
X187874500Y-79780750D01*
X188049500Y-77380750D02*
X188049500Y-79780750D01*
X188224500Y-77380750D02*
X188224500Y-79780750D01*
%TO.C,D8*%
X207274500Y-77380750D02*
X207274500Y-79780750D01*
X207099500Y-77380750D02*
X207099500Y-79780750D01*
X206924500Y-77380750D02*
X206924500Y-79780750D01*
X206524500Y-79780750D02*
X206524500Y-77380750D01*
X206749500Y-77380750D02*
X206749500Y-79780750D01*
X206624500Y-77380750D02*
X206624500Y-79780750D01*
X206549500Y-77380750D02*
X212349500Y-77380750D01*
X212349500Y-77380750D02*
X212349500Y-79780750D01*
X212349500Y-79780750D02*
X206549500Y-79780750D01*
%TO.C,D9*%
X226324500Y-77380750D02*
X226324500Y-79780750D01*
X226149500Y-77380750D02*
X226149500Y-79780750D01*
X225974500Y-77380750D02*
X225974500Y-79780750D01*
X225574500Y-79780750D02*
X225574500Y-77380750D01*
X225799500Y-77380750D02*
X225799500Y-79780750D01*
X225674500Y-77380750D02*
X225674500Y-79780750D01*
X225599500Y-77380750D02*
X231399500Y-77380750D01*
X231399500Y-77380750D02*
X231399500Y-79780750D01*
X231399500Y-79780750D02*
X225599500Y-79780750D01*
%TO.C,D10*%
X250449500Y-79780750D02*
X244649500Y-79780750D01*
X250449500Y-77380750D02*
X250449500Y-79780750D01*
X244649500Y-77380750D02*
X250449500Y-77380750D01*
X244724500Y-77380750D02*
X244724500Y-79780750D01*
X244849500Y-77380750D02*
X244849500Y-79780750D01*
X244624500Y-79780750D02*
X244624500Y-77380750D01*
X245024500Y-77380750D02*
X245024500Y-79780750D01*
X245199500Y-77380750D02*
X245199500Y-79780750D01*
X245374500Y-77380750D02*
X245374500Y-79780750D01*
%TO.C,D11*%
X269499500Y-79780750D02*
X263699500Y-79780750D01*
X269499500Y-77380750D02*
X269499500Y-79780750D01*
X263699500Y-77380750D02*
X269499500Y-77380750D01*
X263774500Y-77380750D02*
X263774500Y-79780750D01*
X263899500Y-77380750D02*
X263899500Y-79780750D01*
X263674500Y-79780750D02*
X263674500Y-77380750D01*
X264074500Y-77380750D02*
X264074500Y-79780750D01*
X264249500Y-77380750D02*
X264249500Y-79780750D01*
X264424500Y-77380750D02*
X264424500Y-79780750D01*
%TO.C,D12*%
X283474500Y-77380750D02*
X283474500Y-79780750D01*
X283299500Y-77380750D02*
X283299500Y-79780750D01*
X283124500Y-77380750D02*
X283124500Y-79780750D01*
X282724500Y-79780750D02*
X282724500Y-77380750D01*
X282949500Y-77380750D02*
X282949500Y-79780750D01*
X282824500Y-77380750D02*
X282824500Y-79780750D01*
X282749500Y-77380750D02*
X288549500Y-77380750D01*
X288549500Y-77380750D02*
X288549500Y-79780750D01*
X288549500Y-79780750D02*
X282749500Y-79780750D01*
%TO.C,D13*%
X307599500Y-79780750D02*
X301799500Y-79780750D01*
X307599500Y-77380750D02*
X307599500Y-79780750D01*
X301799500Y-77380750D02*
X307599500Y-77380750D01*
X301874500Y-77380750D02*
X301874500Y-79780750D01*
X301999500Y-77380750D02*
X301999500Y-79780750D01*
X301774500Y-79780750D02*
X301774500Y-77380750D01*
X302174500Y-77380750D02*
X302174500Y-79780750D01*
X302349500Y-77380750D02*
X302349500Y-79780750D01*
X302524500Y-77380750D02*
X302524500Y-79780750D01*
%TO.C,D14*%
X336175500Y-79780750D02*
X330375500Y-79780750D01*
X336175500Y-77380750D02*
X336175500Y-79780750D01*
X330375500Y-77380750D02*
X336175500Y-77380750D01*
X330450500Y-77380750D02*
X330450500Y-79780750D01*
X330575500Y-77380750D02*
X330575500Y-79780750D01*
X330350500Y-79780750D02*
X330350500Y-77380750D01*
X330750500Y-77380750D02*
X330750500Y-79780750D01*
X330925500Y-77380750D02*
X330925500Y-79780750D01*
X331100500Y-77380750D02*
X331100500Y-79780750D01*
%TO.C,D15*%
X83762500Y-98830750D02*
X77962500Y-98830750D01*
X83762500Y-96430750D02*
X83762500Y-98830750D01*
X77962500Y-96430750D02*
X83762500Y-96430750D01*
X78037500Y-96430750D02*
X78037500Y-98830750D01*
X78162500Y-96430750D02*
X78162500Y-98830750D01*
X77937500Y-98830750D02*
X77937500Y-96430750D01*
X78337500Y-96430750D02*
X78337500Y-98830750D01*
X78512500Y-96430750D02*
X78512500Y-98830750D01*
X78687500Y-96430750D02*
X78687500Y-98830750D01*
%TO.C,D16*%
X107575000Y-98830750D02*
X101775000Y-98830750D01*
X107575000Y-96430750D02*
X107575000Y-98830750D01*
X101775000Y-96430750D02*
X107575000Y-96430750D01*
X101850000Y-96430750D02*
X101850000Y-98830750D01*
X101975000Y-96430750D02*
X101975000Y-98830750D01*
X101750000Y-98830750D02*
X101750000Y-96430750D01*
X102150000Y-96430750D02*
X102150000Y-98830750D01*
X102325000Y-96430750D02*
X102325000Y-98830750D01*
X102500000Y-96430750D02*
X102500000Y-98830750D01*
%TO.C,D17*%
X121550000Y-96430750D02*
X121550000Y-98830750D01*
X121375000Y-96430750D02*
X121375000Y-98830750D01*
X121200000Y-96430750D02*
X121200000Y-98830750D01*
X120800000Y-98830750D02*
X120800000Y-96430750D01*
X121025000Y-96430750D02*
X121025000Y-98830750D01*
X120900000Y-96430750D02*
X120900000Y-98830750D01*
X120825000Y-96430750D02*
X126625000Y-96430750D01*
X126625000Y-96430750D02*
X126625000Y-98830750D01*
X126625000Y-98830750D02*
X120825000Y-98830750D01*
%TO.C,D18*%
X145675000Y-98830750D02*
X139875000Y-98830750D01*
X145675000Y-96430750D02*
X145675000Y-98830750D01*
X139875000Y-96430750D02*
X145675000Y-96430750D01*
X139950000Y-96430750D02*
X139950000Y-98830750D01*
X140075000Y-96430750D02*
X140075000Y-98830750D01*
X139850000Y-98830750D02*
X139850000Y-96430750D01*
X140250000Y-96430750D02*
X140250000Y-98830750D01*
X140425000Y-96430750D02*
X140425000Y-98830750D01*
X140600000Y-96430750D02*
X140600000Y-98830750D01*
%TO.C,D19*%
X164725500Y-98830750D02*
X158925500Y-98830750D01*
X164725500Y-96430750D02*
X164725500Y-98830750D01*
X158925500Y-96430750D02*
X164725500Y-96430750D01*
X159000500Y-96430750D02*
X159000500Y-98830750D01*
X159125500Y-96430750D02*
X159125500Y-98830750D01*
X158900500Y-98830750D02*
X158900500Y-96430750D01*
X159300500Y-96430750D02*
X159300500Y-98830750D01*
X159475500Y-96430750D02*
X159475500Y-98830750D01*
X159650500Y-96430750D02*
X159650500Y-98830750D01*
%TO.C,D20*%
X178700500Y-96430750D02*
X178700500Y-98830750D01*
X178525500Y-96430750D02*
X178525500Y-98830750D01*
X178350500Y-96430750D02*
X178350500Y-98830750D01*
X177950500Y-98830750D02*
X177950500Y-96430750D01*
X178175500Y-96430750D02*
X178175500Y-98830750D01*
X178050500Y-96430750D02*
X178050500Y-98830750D01*
X177975500Y-96430750D02*
X183775500Y-96430750D01*
X183775500Y-96430750D02*
X183775500Y-98830750D01*
X183775500Y-98830750D02*
X177975500Y-98830750D01*
%TO.C,D21*%
X197750500Y-96430750D02*
X197750500Y-98830750D01*
X197575500Y-96430750D02*
X197575500Y-98830750D01*
X197400500Y-96430750D02*
X197400500Y-98830750D01*
X197000500Y-98830750D02*
X197000500Y-96430750D01*
X197225500Y-96430750D02*
X197225500Y-98830750D01*
X197100500Y-96430750D02*
X197100500Y-98830750D01*
X197025500Y-96430750D02*
X202825500Y-96430750D01*
X202825500Y-96430750D02*
X202825500Y-98830750D01*
X202825500Y-98830750D02*
X197025500Y-98830750D01*
%TO.C,D22*%
X216800500Y-96430750D02*
X216800500Y-98830750D01*
X216625500Y-96430750D02*
X216625500Y-98830750D01*
X216450500Y-96430750D02*
X216450500Y-98830750D01*
X216050500Y-98830750D02*
X216050500Y-96430750D01*
X216275500Y-96430750D02*
X216275500Y-98830750D01*
X216150500Y-96430750D02*
X216150500Y-98830750D01*
X216075500Y-96430750D02*
X221875500Y-96430750D01*
X221875500Y-96430750D02*
X221875500Y-98830750D01*
X221875500Y-98830750D02*
X216075500Y-98830750D01*
%TO.C,D23*%
X240925500Y-98830750D02*
X235125500Y-98830750D01*
X240925500Y-96430750D02*
X240925500Y-98830750D01*
X235125500Y-96430750D02*
X240925500Y-96430750D01*
X235200500Y-96430750D02*
X235200500Y-98830750D01*
X235325500Y-96430750D02*
X235325500Y-98830750D01*
X235100500Y-98830750D02*
X235100500Y-96430750D01*
X235500500Y-96430750D02*
X235500500Y-98830750D01*
X235675500Y-96430750D02*
X235675500Y-98830750D01*
X235850500Y-96430750D02*
X235850500Y-98830750D01*
%TO.C,D24*%
X254900500Y-96430750D02*
X254900500Y-98830750D01*
X254725500Y-96430750D02*
X254725500Y-98830750D01*
X254550500Y-96430750D02*
X254550500Y-98830750D01*
X254150500Y-98830750D02*
X254150500Y-96430750D01*
X254375500Y-96430750D02*
X254375500Y-98830750D01*
X254250500Y-96430750D02*
X254250500Y-98830750D01*
X254175500Y-96430750D02*
X259975500Y-96430750D01*
X259975500Y-96430750D02*
X259975500Y-98830750D01*
X259975500Y-98830750D02*
X254175500Y-98830750D01*
%TO.C,D25*%
X279025500Y-98830750D02*
X273225500Y-98830750D01*
X279025500Y-96430750D02*
X279025500Y-98830750D01*
X273225500Y-96430750D02*
X279025500Y-96430750D01*
X273300500Y-96430750D02*
X273300500Y-98830750D01*
X273425500Y-96430750D02*
X273425500Y-98830750D01*
X273200500Y-98830750D02*
X273200500Y-96430750D01*
X273600500Y-96430750D02*
X273600500Y-98830750D01*
X273775500Y-96430750D02*
X273775500Y-98830750D01*
X273950500Y-96430750D02*
X273950500Y-98830750D01*
%TO.C,D26*%
X293000500Y-96430750D02*
X293000500Y-98830750D01*
X292825500Y-96430750D02*
X292825500Y-98830750D01*
X292650500Y-96430750D02*
X292650500Y-98830750D01*
X292250500Y-98830750D02*
X292250500Y-96430750D01*
X292475500Y-96430750D02*
X292475500Y-98830750D01*
X292350500Y-96430750D02*
X292350500Y-98830750D01*
X292275500Y-96430750D02*
X298075500Y-96430750D01*
X298075500Y-96430750D02*
X298075500Y-98830750D01*
X298075500Y-98830750D02*
X292275500Y-98830750D01*
%TO.C,D27*%
X317125500Y-98830750D02*
X311325500Y-98830750D01*
X317125500Y-96430750D02*
X317125500Y-98830750D01*
X311325500Y-96430750D02*
X317125500Y-96430750D01*
X311400500Y-96430750D02*
X311400500Y-98830750D01*
X311525500Y-96430750D02*
X311525500Y-98830750D01*
X311300500Y-98830750D02*
X311300500Y-96430750D01*
X311700500Y-96430750D02*
X311700500Y-98830750D01*
X311875500Y-96430750D02*
X311875500Y-98830750D01*
X312050500Y-96430750D02*
X312050500Y-98830750D01*
%TO.C,D28*%
X335862500Y-96430750D02*
X335862500Y-98830750D01*
X335687500Y-96430750D02*
X335687500Y-98830750D01*
X335512500Y-96430750D02*
X335512500Y-98830750D01*
X335112500Y-98830750D02*
X335112500Y-96430750D01*
X335337500Y-96430750D02*
X335337500Y-98830750D01*
X335212500Y-96430750D02*
X335212500Y-98830750D01*
X335137500Y-96430750D02*
X340937500Y-96430750D01*
X340937500Y-96430750D02*
X340937500Y-98830750D01*
X340937500Y-98830750D02*
X335137500Y-98830750D01*
%TO.C,D29*%
X81068700Y-115480750D02*
X81068700Y-117880750D01*
X80893700Y-115480750D02*
X80893700Y-117880750D01*
X80718700Y-115480750D02*
X80718700Y-117880750D01*
X80318700Y-117880750D02*
X80318700Y-115480750D01*
X80543700Y-115480750D02*
X80543700Y-117880750D01*
X80418700Y-115480750D02*
X80418700Y-117880750D01*
X80343700Y-115480750D02*
X86143700Y-115480750D01*
X86143700Y-115480750D02*
X86143700Y-117880750D01*
X86143700Y-117880750D02*
X80343700Y-117880750D01*
%TO.C,D30*%
X107262500Y-115480750D02*
X107262500Y-117880750D01*
X107087500Y-115480750D02*
X107087500Y-117880750D01*
X106912500Y-115480750D02*
X106912500Y-117880750D01*
X106512500Y-117880750D02*
X106512500Y-115480750D01*
X106737500Y-115480750D02*
X106737500Y-117880750D01*
X106612500Y-115480750D02*
X106612500Y-117880750D01*
X106537500Y-115480750D02*
X112337500Y-115480750D01*
X112337500Y-115480750D02*
X112337500Y-117880750D01*
X112337500Y-117880750D02*
X106537500Y-117880750D01*
%TO.C,D31*%
X126312500Y-115480750D02*
X126312500Y-117880750D01*
X126137500Y-115480750D02*
X126137500Y-117880750D01*
X125962500Y-115480750D02*
X125962500Y-117880750D01*
X125562500Y-117880750D02*
X125562500Y-115480750D01*
X125787500Y-115480750D02*
X125787500Y-117880750D01*
X125662500Y-115480750D02*
X125662500Y-117880750D01*
X125587500Y-115480750D02*
X131387500Y-115480750D01*
X131387500Y-115480750D02*
X131387500Y-117880750D01*
X131387500Y-117880750D02*
X125587500Y-117880750D01*
%TO.C,D32*%
X150437500Y-117880750D02*
X144637500Y-117880750D01*
X150437500Y-115480750D02*
X150437500Y-117880750D01*
X144637500Y-115480750D02*
X150437500Y-115480750D01*
X144712500Y-115480750D02*
X144712500Y-117880750D01*
X144837500Y-115480750D02*
X144837500Y-117880750D01*
X144612500Y-117880750D02*
X144612500Y-115480750D01*
X145012500Y-115480750D02*
X145012500Y-117880750D01*
X145187500Y-115480750D02*
X145187500Y-117880750D01*
X145362500Y-115480750D02*
X145362500Y-117880750D01*
%TO.C,D33*%
X164412500Y-115480750D02*
X164412500Y-117880750D01*
X164237500Y-115480750D02*
X164237500Y-117880750D01*
X164062500Y-115480750D02*
X164062500Y-117880750D01*
X163662500Y-117880750D02*
X163662500Y-115480750D01*
X163887500Y-115480750D02*
X163887500Y-117880750D01*
X163762500Y-115480750D02*
X163762500Y-117880750D01*
X163687500Y-115480750D02*
X169487500Y-115480750D01*
X169487500Y-115480750D02*
X169487500Y-117880750D01*
X169487500Y-117880750D02*
X163687500Y-117880750D01*
%TO.C,D34*%
X188537500Y-117880750D02*
X182737500Y-117880750D01*
X188537500Y-115480750D02*
X188537500Y-117880750D01*
X182737500Y-115480750D02*
X188537500Y-115480750D01*
X182812500Y-115480750D02*
X182812500Y-117880750D01*
X182937500Y-115480750D02*
X182937500Y-117880750D01*
X182712500Y-117880750D02*
X182712500Y-115480750D01*
X183112500Y-115480750D02*
X183112500Y-117880750D01*
X183287500Y-115480750D02*
X183287500Y-117880750D01*
X183462500Y-115480750D02*
X183462500Y-117880750D01*
%TO.C,D35*%
X202512500Y-115480750D02*
X202512500Y-117880750D01*
X202337500Y-115480750D02*
X202337500Y-117880750D01*
X202162500Y-115480750D02*
X202162500Y-117880750D01*
X201762500Y-117880750D02*
X201762500Y-115480750D01*
X201987500Y-115480750D02*
X201987500Y-117880750D01*
X201862500Y-115480750D02*
X201862500Y-117880750D01*
X201787500Y-115480750D02*
X207587500Y-115480750D01*
X207587500Y-115480750D02*
X207587500Y-117880750D01*
X207587500Y-117880750D02*
X201787500Y-117880750D01*
%TO.C,D36*%
X226637500Y-117880750D02*
X220837500Y-117880750D01*
X226637500Y-115480750D02*
X226637500Y-117880750D01*
X220837500Y-115480750D02*
X226637500Y-115480750D01*
X220912500Y-115480750D02*
X220912500Y-117880750D01*
X221037500Y-115480750D02*
X221037500Y-117880750D01*
X220812500Y-117880750D02*
X220812500Y-115480750D01*
X221212500Y-115480750D02*
X221212500Y-117880750D01*
X221387500Y-115480750D02*
X221387500Y-117880750D01*
X221562500Y-115480750D02*
X221562500Y-117880750D01*
%TO.C,D37*%
X240612500Y-115480750D02*
X240612500Y-117880750D01*
X240437500Y-115480750D02*
X240437500Y-117880750D01*
X240262500Y-115480750D02*
X240262500Y-117880750D01*
X239862500Y-117880750D02*
X239862500Y-115480750D01*
X240087500Y-115480750D02*
X240087500Y-117880750D01*
X239962500Y-115480750D02*
X239962500Y-117880750D01*
X239887500Y-115480750D02*
X245687500Y-115480750D01*
X245687500Y-115480750D02*
X245687500Y-117880750D01*
X245687500Y-117880750D02*
X239887500Y-117880750D01*
%TO.C,D38*%
X264737500Y-117880750D02*
X258937500Y-117880750D01*
X264737500Y-115480750D02*
X264737500Y-117880750D01*
X258937500Y-115480750D02*
X264737500Y-115480750D01*
X259012500Y-115480750D02*
X259012500Y-117880750D01*
X259137500Y-115480750D02*
X259137500Y-117880750D01*
X258912500Y-117880750D02*
X258912500Y-115480750D01*
X259312500Y-115480750D02*
X259312500Y-117880750D01*
X259487500Y-115480750D02*
X259487500Y-117880750D01*
X259662500Y-115480750D02*
X259662500Y-117880750D01*
%TO.C,D39*%
X278828500Y-115480750D02*
X278828500Y-117880750D01*
X278653500Y-115480750D02*
X278653500Y-117880750D01*
X278478500Y-115480750D02*
X278478500Y-117880750D01*
X278078500Y-117880750D02*
X278078500Y-115480750D01*
X278303500Y-115480750D02*
X278303500Y-117880750D01*
X278178500Y-115480750D02*
X278178500Y-117880750D01*
X278103500Y-115480750D02*
X283903500Y-115480750D01*
X283903500Y-115480750D02*
X283903500Y-117880750D01*
X283903500Y-117880750D02*
X278103500Y-117880750D01*
%TO.C,D40*%
X302837500Y-117880750D02*
X297037500Y-117880750D01*
X302837500Y-115480750D02*
X302837500Y-117880750D01*
X297037500Y-115480750D02*
X302837500Y-115480750D01*
X297112500Y-115480750D02*
X297112500Y-117880750D01*
X297237500Y-115480750D02*
X297237500Y-117880750D01*
X297012500Y-117880750D02*
X297012500Y-115480750D01*
X297412500Y-115480750D02*
X297412500Y-117880750D01*
X297587500Y-115480750D02*
X297587500Y-117880750D01*
X297762500Y-115480750D02*
X297762500Y-117880750D01*
%TO.C,D41*%
X333793500Y-117880750D02*
X327993500Y-117880750D01*
X333793500Y-115480750D02*
X333793500Y-117880750D01*
X327993500Y-115480750D02*
X333793500Y-115480750D01*
X328068500Y-115480750D02*
X328068500Y-117880750D01*
X328193500Y-115480750D02*
X328193500Y-117880750D01*
X327968500Y-117880750D02*
X327968500Y-115480750D01*
X328368500Y-115480750D02*
X328368500Y-117880750D01*
X328543500Y-115480750D02*
X328543500Y-117880750D01*
X328718500Y-115480750D02*
X328718500Y-117880750D01*
%TO.C,D42*%
X90906300Y-136930750D02*
X85106300Y-136930750D01*
X90906300Y-134530750D02*
X90906300Y-136930750D01*
X85106300Y-134530750D02*
X90906300Y-134530750D01*
X85181300Y-134530750D02*
X85181300Y-136930750D01*
X85306300Y-134530750D02*
X85306300Y-136930750D01*
X85081300Y-136930750D02*
X85081300Y-134530750D01*
X85481300Y-134530750D02*
X85481300Y-136930750D01*
X85656300Y-134530750D02*
X85656300Y-136930750D01*
X85831300Y-134530750D02*
X85831300Y-136930750D01*
%TO.C,D43*%
X116787500Y-134530750D02*
X116787500Y-136930750D01*
X116612500Y-134530750D02*
X116612500Y-136930750D01*
X116437500Y-134530750D02*
X116437500Y-136930750D01*
X116037500Y-136930750D02*
X116037500Y-134530750D01*
X116262500Y-134530750D02*
X116262500Y-136930750D01*
X116137500Y-134530750D02*
X116137500Y-136930750D01*
X116062500Y-134530750D02*
X121862500Y-134530750D01*
X121862500Y-134530750D02*
X121862500Y-136930750D01*
X121862500Y-136930750D02*
X116062500Y-136930750D01*
%TO.C,D44*%
X140912500Y-136930750D02*
X135112500Y-136930750D01*
X140912500Y-134530750D02*
X140912500Y-136930750D01*
X135112500Y-134530750D02*
X140912500Y-134530750D01*
X135187500Y-134530750D02*
X135187500Y-136930750D01*
X135312500Y-134530750D02*
X135312500Y-136930750D01*
X135087500Y-136930750D02*
X135087500Y-134530750D01*
X135487500Y-134530750D02*
X135487500Y-136930750D01*
X135662500Y-134530750D02*
X135662500Y-136930750D01*
X135837500Y-134530750D02*
X135837500Y-136930750D01*
%TO.C,D45*%
X154887500Y-134530750D02*
X154887500Y-136930750D01*
X154712500Y-134530750D02*
X154712500Y-136930750D01*
X154537500Y-134530750D02*
X154537500Y-136930750D01*
X154137500Y-136930750D02*
X154137500Y-134530750D01*
X154362500Y-134530750D02*
X154362500Y-136930750D01*
X154237500Y-134530750D02*
X154237500Y-136930750D01*
X154162500Y-134530750D02*
X159962500Y-134530750D01*
X159962500Y-134530750D02*
X159962500Y-136930750D01*
X159962500Y-136930750D02*
X154162500Y-136930750D01*
%TO.C,D46*%
X179012500Y-136930750D02*
X173212500Y-136930750D01*
X179012500Y-134530750D02*
X179012500Y-136930750D01*
X173212500Y-134530750D02*
X179012500Y-134530750D01*
X173287500Y-134530750D02*
X173287500Y-136930750D01*
X173412500Y-134530750D02*
X173412500Y-136930750D01*
X173187500Y-136930750D02*
X173187500Y-134530750D01*
X173587500Y-134530750D02*
X173587500Y-136930750D01*
X173762500Y-134530750D02*
X173762500Y-136930750D01*
X173937500Y-134530750D02*
X173937500Y-136930750D01*
%TO.C,D47*%
X192987500Y-134530750D02*
X192987500Y-136930750D01*
X192812500Y-134530750D02*
X192812500Y-136930750D01*
X192637500Y-134530750D02*
X192637500Y-136930750D01*
X192237500Y-136930750D02*
X192237500Y-134530750D01*
X192462500Y-134530750D02*
X192462500Y-136930750D01*
X192337500Y-134530750D02*
X192337500Y-136930750D01*
X192262500Y-134530750D02*
X198062500Y-134530750D01*
X198062500Y-134530750D02*
X198062500Y-136930750D01*
X198062500Y-136930750D02*
X192262500Y-136930750D01*
%TO.C,D48*%
X217112500Y-136930750D02*
X211312500Y-136930750D01*
X217112500Y-134530750D02*
X217112500Y-136930750D01*
X211312500Y-134530750D02*
X217112500Y-134530750D01*
X211387500Y-134530750D02*
X211387500Y-136930750D01*
X211512500Y-134530750D02*
X211512500Y-136930750D01*
X211287500Y-136930750D02*
X211287500Y-134530750D01*
X211687500Y-134530750D02*
X211687500Y-136930750D01*
X211862500Y-134530750D02*
X211862500Y-136930750D01*
X212037500Y-134530750D02*
X212037500Y-136930750D01*
%TO.C,D49*%
X231087500Y-134530750D02*
X231087500Y-136930750D01*
X230912500Y-134530750D02*
X230912500Y-136930750D01*
X230737500Y-134530750D02*
X230737500Y-136930750D01*
X230337500Y-136930750D02*
X230337500Y-134530750D01*
X230562500Y-134530750D02*
X230562500Y-136930750D01*
X230437500Y-134530750D02*
X230437500Y-136930750D01*
X230362500Y-134530750D02*
X236162500Y-134530750D01*
X236162500Y-134530750D02*
X236162500Y-136930750D01*
X236162500Y-136930750D02*
X230362500Y-136930750D01*
%TO.C,D50*%
X255212500Y-136930750D02*
X249412500Y-136930750D01*
X255212500Y-134530750D02*
X255212500Y-136930750D01*
X249412500Y-134530750D02*
X255212500Y-134530750D01*
X249487500Y-134530750D02*
X249487500Y-136930750D01*
X249612500Y-134530750D02*
X249612500Y-136930750D01*
X249387500Y-136930750D02*
X249387500Y-134530750D01*
X249787500Y-134530750D02*
X249787500Y-136930750D01*
X249962500Y-134530750D02*
X249962500Y-136930750D01*
X250137500Y-134530750D02*
X250137500Y-136930750D01*
%TO.C,D51*%
X274262500Y-136930750D02*
X268462500Y-136930750D01*
X274262500Y-134530750D02*
X274262500Y-136930750D01*
X268462500Y-134530750D02*
X274262500Y-134530750D01*
X268537500Y-134530750D02*
X268537500Y-136930750D01*
X268662500Y-134530750D02*
X268662500Y-136930750D01*
X268437500Y-136930750D02*
X268437500Y-134530750D01*
X268837500Y-134530750D02*
X268837500Y-136930750D01*
X269012500Y-134530750D02*
X269012500Y-136930750D01*
X269187500Y-134530750D02*
X269187500Y-136930750D01*
%TO.C,D52*%
X293312500Y-136930750D02*
X287512500Y-136930750D01*
X293312500Y-134530750D02*
X293312500Y-136930750D01*
X287512500Y-134530750D02*
X293312500Y-134530750D01*
X287587500Y-134530750D02*
X287587500Y-136930750D01*
X287712500Y-134530750D02*
X287712500Y-136930750D01*
X287487500Y-136930750D02*
X287487500Y-134530750D01*
X287887500Y-134530750D02*
X287887500Y-136930750D01*
X288062500Y-134530750D02*
X288062500Y-136930750D01*
X288237500Y-134530750D02*
X288237500Y-136930750D01*
%TO.C,D53*%
X323956500Y-134530750D02*
X323956500Y-136930750D01*
X323781500Y-134530750D02*
X323781500Y-136930750D01*
X323606500Y-134530750D02*
X323606500Y-136930750D01*
X323206500Y-136930750D02*
X323206500Y-134530750D01*
X323431500Y-134530750D02*
X323431500Y-136930750D01*
X323306500Y-134530750D02*
X323306500Y-136930750D01*
X323231500Y-134530750D02*
X329031500Y-134530750D01*
X329031500Y-134530750D02*
X329031500Y-136930750D01*
X329031500Y-136930750D02*
X323231500Y-136930750D01*
%TO.C,D54*%
X81381300Y-155980750D02*
X75581300Y-155980750D01*
X81381300Y-153580750D02*
X81381300Y-155980750D01*
X75581300Y-153580750D02*
X81381300Y-153580750D01*
X75656300Y-153580750D02*
X75656300Y-155980750D01*
X75781300Y-153580750D02*
X75781300Y-155980750D01*
X75556300Y-155980750D02*
X75556300Y-153580750D01*
X75956300Y-153580750D02*
X75956300Y-155980750D01*
X76131300Y-153580750D02*
X76131300Y-155980750D01*
X76306300Y-153580750D02*
X76306300Y-155980750D01*
%TO.C,D55*%
X100118700Y-153580750D02*
X100118700Y-155980750D01*
X99943700Y-153580750D02*
X99943700Y-155980750D01*
X99768700Y-153580750D02*
X99768700Y-155980750D01*
X99368700Y-155980750D02*
X99368700Y-153580750D01*
X99593700Y-153580750D02*
X99593700Y-155980750D01*
X99468700Y-153580750D02*
X99468700Y-155980750D01*
X99393700Y-153580750D02*
X105193700Y-153580750D01*
X105193700Y-153580750D02*
X105193700Y-155980750D01*
X105193700Y-155980750D02*
X99393700Y-155980750D01*
%TO.C,D56*%
X129006300Y-155980750D02*
X123206300Y-155980750D01*
X129006300Y-153580750D02*
X129006300Y-155980750D01*
X123206300Y-153580750D02*
X129006300Y-153580750D01*
X123281300Y-153580750D02*
X123281300Y-155980750D01*
X123406300Y-153580750D02*
X123406300Y-155980750D01*
X123181300Y-155980750D02*
X123181300Y-153580750D01*
X123581300Y-153580750D02*
X123581300Y-155980750D01*
X123756300Y-153580750D02*
X123756300Y-155980750D01*
X123931300Y-153580750D02*
X123931300Y-155980750D01*
%TO.C,D57*%
X195368500Y-153580750D02*
X195368500Y-155980750D01*
X195193500Y-153580750D02*
X195193500Y-155980750D01*
X195018500Y-153580750D02*
X195018500Y-155980750D01*
X194618500Y-155980750D02*
X194618500Y-153580750D01*
X194843500Y-153580750D02*
X194843500Y-155980750D01*
X194718500Y-153580750D02*
X194718500Y-155980750D01*
X194643500Y-153580750D02*
X200443500Y-153580750D01*
X200443500Y-153580750D02*
X200443500Y-155980750D01*
X200443500Y-155980750D02*
X194643500Y-155980750D01*
%TO.C,D58*%
X271881500Y-155980750D02*
X266081500Y-155980750D01*
X271881500Y-153580750D02*
X271881500Y-155980750D01*
X266081500Y-153580750D02*
X271881500Y-153580750D01*
X266156500Y-153580750D02*
X266156500Y-155980750D01*
X266281500Y-153580750D02*
X266281500Y-155980750D01*
X266056500Y-155980750D02*
X266056500Y-153580750D01*
X266456500Y-153580750D02*
X266456500Y-155980750D01*
X266631500Y-153580750D02*
X266631500Y-155980750D01*
X266806500Y-153580750D02*
X266806500Y-155980750D01*
%TO.C,D59*%
X290618500Y-153580750D02*
X290618500Y-155980750D01*
X290443500Y-153580750D02*
X290443500Y-155980750D01*
X290268500Y-153580750D02*
X290268500Y-155980750D01*
X289868500Y-155980750D02*
X289868500Y-153580750D01*
X290093500Y-153580750D02*
X290093500Y-155980750D01*
X289968500Y-153580750D02*
X289968500Y-155980750D01*
X289893500Y-153580750D02*
X295693500Y-153580750D01*
X295693500Y-153580750D02*
X295693500Y-155980750D01*
X295693500Y-155980750D02*
X289893500Y-155980750D01*
%TO.C,D60*%
X319506500Y-155980750D02*
X313706500Y-155980750D01*
X319506500Y-153580750D02*
X319506500Y-155980750D01*
X313706500Y-153580750D02*
X319506500Y-153580750D01*
X313781500Y-153580750D02*
X313781500Y-155980750D01*
X313906500Y-153580750D02*
X313906500Y-155980750D01*
X313681500Y-155980750D02*
X313681500Y-153580750D01*
X314081500Y-153580750D02*
X314081500Y-155980750D01*
X314256500Y-153580750D02*
X314256500Y-155980750D01*
X314431500Y-153580750D02*
X314431500Y-155980750D01*
%TO.C,D61*%
X338243500Y-153580750D02*
X338243500Y-155980750D01*
X338068500Y-153580750D02*
X338068500Y-155980750D01*
X337893500Y-153580750D02*
X337893500Y-155980750D01*
X337493500Y-155980750D02*
X337493500Y-153580750D01*
X337718500Y-153580750D02*
X337718500Y-155980750D01*
X337593500Y-153580750D02*
X337593500Y-155980750D01*
X337518500Y-153580750D02*
X343318500Y-153580750D01*
X343318500Y-153580750D02*
X343318500Y-155980750D01*
X343318500Y-155980750D02*
X337518500Y-155980750D01*
D11*
%TO.C,K1*%
X102350000Y-66718750D02*
X88150000Y-66718750D01*
X102350000Y-80918750D02*
X102350000Y-66718750D01*
X88150000Y-80918750D02*
X102350000Y-80918750D01*
X88150000Y-66718750D02*
X88150000Y-80918750D01*
%TO.C,K2*%
X107200000Y-66718750D02*
X107200000Y-80918750D01*
X107200000Y-80918750D02*
X121400000Y-80918750D01*
X121400000Y-80918750D02*
X121400000Y-66718750D01*
X121400000Y-66718750D02*
X107200000Y-66718750D01*
%TO.C,K3*%
X126250000Y-66718750D02*
X126250000Y-80918750D01*
X126250000Y-80918750D02*
X140450000Y-80918750D01*
X140450000Y-80918750D02*
X140450000Y-66718750D01*
X140450000Y-66718750D02*
X126250000Y-66718750D01*
%TO.C,K4*%
X159499500Y-66718750D02*
X145299500Y-66718750D01*
X159499500Y-80918750D02*
X159499500Y-66718750D01*
X145299500Y-80918750D02*
X159499500Y-80918750D01*
X145299500Y-66718750D02*
X145299500Y-80918750D01*
%TO.C,K5*%
X164349500Y-66718750D02*
X164349500Y-80918750D01*
X164349500Y-80918750D02*
X178549500Y-80918750D01*
X178549500Y-80918750D02*
X178549500Y-66718750D01*
X178549500Y-66718750D02*
X164349500Y-66718750D01*
%TO.C,K6*%
X197599500Y-66718750D02*
X183399500Y-66718750D01*
X197599500Y-80918750D02*
X197599500Y-66718750D01*
X183399500Y-80918750D02*
X197599500Y-80918750D01*
X183399500Y-66718750D02*
X183399500Y-80918750D01*
%TO.C,K7*%
X216649500Y-66718750D02*
X202449500Y-66718750D01*
X216649500Y-80918750D02*
X216649500Y-66718750D01*
X202449500Y-80918750D02*
X216649500Y-80918750D01*
X202449500Y-66718750D02*
X202449500Y-80918750D01*
%TO.C,K8*%
X235699500Y-66718750D02*
X221499500Y-66718750D01*
X235699500Y-80918750D02*
X235699500Y-66718750D01*
X221499500Y-80918750D02*
X235699500Y-80918750D01*
X221499500Y-66718750D02*
X221499500Y-80918750D01*
%TO.C,K9*%
X240549500Y-66718750D02*
X240549500Y-80918750D01*
X240549500Y-80918750D02*
X254749500Y-80918750D01*
X254749500Y-80918750D02*
X254749500Y-66718750D01*
X254749500Y-66718750D02*
X240549500Y-66718750D01*
%TO.C,K10*%
X259599500Y-66718750D02*
X259599500Y-80918750D01*
X259599500Y-80918750D02*
X273799500Y-80918750D01*
X273799500Y-80918750D02*
X273799500Y-66718750D01*
X273799500Y-66718750D02*
X259599500Y-66718750D01*
%TO.C,K11*%
X292849500Y-66718750D02*
X278649500Y-66718750D01*
X292849500Y-80918750D02*
X292849500Y-66718750D01*
X278649500Y-80918750D02*
X292849500Y-80918750D01*
X278649500Y-66718750D02*
X278649500Y-80918750D01*
%TO.C,K12*%
X311899500Y-66718750D02*
X297699500Y-66718750D01*
X311899500Y-80918750D02*
X311899500Y-66718750D01*
X297699500Y-80918750D02*
X311899500Y-80918750D01*
X297699500Y-66718750D02*
X297699500Y-80918750D01*
%TO.C,K13*%
X326275500Y-66718750D02*
X326275500Y-80918750D01*
X326275500Y-80918750D02*
X340475500Y-80918750D01*
X340475500Y-80918750D02*
X340475500Y-66718750D01*
X340475500Y-66718750D02*
X326275500Y-66718750D01*
%TO.C,K14*%
X73862500Y-85768750D02*
X73862500Y-99968750D01*
X73862500Y-99968750D02*
X88062500Y-99968750D01*
X88062500Y-99968750D02*
X88062500Y-85768750D01*
X88062500Y-85768750D02*
X73862500Y-85768750D01*
%TO.C,K27*%
X345237500Y-85768750D02*
X331037500Y-85768750D01*
X345237500Y-99968750D02*
X345237500Y-85768750D01*
X331037500Y-99968750D02*
X345237500Y-99968750D01*
X331037500Y-85768750D02*
X331037500Y-99968750D01*
%TO.C,K28*%
X76243700Y-104818750D02*
X76243700Y-119018750D01*
X76243700Y-119018750D02*
X90443700Y-119018750D01*
X90443700Y-119018750D02*
X90443700Y-104818750D01*
X90443700Y-104818750D02*
X76243700Y-104818750D01*
%TO.C,K29*%
X102437500Y-104818750D02*
X102437500Y-119018750D01*
X102437500Y-119018750D02*
X116637500Y-119018750D01*
X116637500Y-119018750D02*
X116637500Y-104818750D01*
X116637500Y-104818750D02*
X102437500Y-104818750D01*
%TO.C,K30*%
X135687500Y-104818750D02*
X121487500Y-104818750D01*
X135687500Y-119018750D02*
X135687500Y-104818750D01*
X121487500Y-119018750D02*
X135687500Y-119018750D01*
X121487500Y-104818750D02*
X121487500Y-119018750D01*
%TO.C,K31*%
X154737500Y-104818750D02*
X140537500Y-104818750D01*
X154737500Y-119018750D02*
X154737500Y-104818750D01*
X140537500Y-119018750D02*
X154737500Y-119018750D01*
X140537500Y-104818750D02*
X140537500Y-119018750D01*
%TO.C,K32*%
X173628500Y-104818750D02*
X159428500Y-104818750D01*
X173628500Y-119018750D02*
X173628500Y-104818750D01*
X159428500Y-119018750D02*
X173628500Y-119018750D01*
X159428500Y-104818750D02*
X159428500Y-119018750D01*
%TO.C,K33*%
X178637500Y-104818750D02*
X178637500Y-119018750D01*
X178637500Y-119018750D02*
X192837500Y-119018750D01*
X192837500Y-119018750D02*
X192837500Y-104818750D01*
X192837500Y-104818750D02*
X178637500Y-104818750D01*
%TO.C,K34*%
X211887500Y-104818750D02*
X197687500Y-104818750D01*
X211887500Y-119018750D02*
X211887500Y-104818750D01*
X197687500Y-119018750D02*
X211887500Y-119018750D01*
X197687500Y-104818750D02*
X197687500Y-119018750D01*
%TO.C,K35*%
X230937500Y-104818750D02*
X216737500Y-104818750D01*
X230937500Y-119018750D02*
X230937500Y-104818750D01*
X216737500Y-119018750D02*
X230937500Y-119018750D01*
X216737500Y-104818750D02*
X216737500Y-119018750D01*
%TO.C,K36*%
X235787500Y-104818750D02*
X235787500Y-119018750D01*
X235787500Y-119018750D02*
X249987500Y-119018750D01*
X249987500Y-119018750D02*
X249987500Y-104818750D01*
X249987500Y-104818750D02*
X235787500Y-104818750D01*
%TO.C,K37*%
X254837500Y-104818750D02*
X254837500Y-119018750D01*
X254837500Y-119018750D02*
X269037500Y-119018750D01*
X269037500Y-119018750D02*
X269037500Y-104818750D01*
X269037500Y-104818750D02*
X254837500Y-104818750D01*
%TO.C,K38*%
X273887500Y-104818750D02*
X273887500Y-119018750D01*
X273887500Y-119018750D02*
X288087500Y-119018750D01*
X288087500Y-119018750D02*
X288087500Y-104818750D01*
X288087500Y-104818750D02*
X273887500Y-104818750D01*
%TO.C,K39*%
X292937500Y-104818750D02*
X292937500Y-119018750D01*
X292937500Y-119018750D02*
X307137500Y-119018750D01*
X307137500Y-119018750D02*
X307137500Y-104818750D01*
X307137500Y-104818750D02*
X292937500Y-104818750D01*
%TO.C,K40*%
X323893500Y-104818750D02*
X323893500Y-119018750D01*
X323893500Y-119018750D02*
X338093500Y-119018750D01*
X338093500Y-119018750D02*
X338093500Y-104818750D01*
X338093500Y-104818750D02*
X323893500Y-104818750D01*
%TO.C,K41*%
X95206300Y-123868750D02*
X81006300Y-123868750D01*
X95206300Y-138068750D02*
X95206300Y-123868750D01*
X81006300Y-138068750D02*
X95206300Y-138068750D01*
X81006300Y-123868750D02*
X81006300Y-138068750D01*
%TO.C,K42*%
X111903700Y-123868750D02*
X111903700Y-138068750D01*
X111903700Y-138068750D02*
X126103700Y-138068750D01*
X126103700Y-138068750D02*
X126103700Y-123868750D01*
X126103700Y-123868750D02*
X111903700Y-123868750D01*
%TO.C,K43*%
X131012500Y-123868750D02*
X131012500Y-138068750D01*
X131012500Y-138068750D02*
X145212500Y-138068750D01*
X145212500Y-138068750D02*
X145212500Y-123868750D01*
X145212500Y-123868750D02*
X131012500Y-123868750D01*
%TO.C,K44*%
X150062500Y-123868750D02*
X150062500Y-138068750D01*
X150062500Y-138068750D02*
X164262500Y-138068750D01*
X164262500Y-138068750D02*
X164262500Y-123868750D01*
X164262500Y-123868750D02*
X150062500Y-123868750D01*
%TO.C,K45*%
X183312500Y-123868750D02*
X169112500Y-123868750D01*
X183312500Y-138068750D02*
X183312500Y-123868750D01*
X169112500Y-138068750D02*
X183312500Y-138068750D01*
X169112500Y-123868750D02*
X169112500Y-138068750D01*
%TO.C,K46*%
X202362500Y-123868750D02*
X188162500Y-123868750D01*
X202362500Y-138068750D02*
X202362500Y-123868750D01*
X188162500Y-138068750D02*
X202362500Y-138068750D01*
X188162500Y-123868750D02*
X188162500Y-138068750D01*
%TO.C,K47*%
X221412500Y-123868750D02*
X207212500Y-123868750D01*
X221412500Y-138068750D02*
X221412500Y-123868750D01*
X207212500Y-138068750D02*
X221412500Y-138068750D01*
X207212500Y-123868750D02*
X207212500Y-138068750D01*
%TO.C,K48*%
X240462500Y-123868750D02*
X226262500Y-123868750D01*
X240462500Y-138068750D02*
X240462500Y-123868750D01*
X226262500Y-138068750D02*
X240462500Y-138068750D01*
X226262500Y-123868750D02*
X226262500Y-138068750D01*
%TO.C,K49*%
X245312500Y-123868750D02*
X245312500Y-138068750D01*
X245312500Y-138068750D02*
X259512500Y-138068750D01*
X259512500Y-138068750D02*
X259512500Y-123868750D01*
X259512500Y-123868750D02*
X245312500Y-123868750D01*
%TO.C,K50*%
X264362500Y-123868750D02*
X264362500Y-138068750D01*
X264362500Y-138068750D02*
X278562500Y-138068750D01*
X278562500Y-138068750D02*
X278562500Y-123868750D01*
X278562500Y-123868750D02*
X264362500Y-123868750D01*
%TO.C,K51*%
X283412500Y-123868750D02*
X283412500Y-138068750D01*
X283412500Y-138068750D02*
X297612500Y-138068750D01*
X297612500Y-138068750D02*
X297612500Y-123868750D01*
X297612500Y-123868750D02*
X283412500Y-123868750D01*
%TO.C,K52*%
X319131500Y-123868750D02*
X319131500Y-138068750D01*
X319131500Y-138068750D02*
X333331500Y-138068750D01*
X333331500Y-138068750D02*
X333331500Y-123868750D01*
X333331500Y-123868750D02*
X319131500Y-123868750D01*
%TO.C,K53*%
X85681300Y-142918750D02*
X71481300Y-142918750D01*
X85681300Y-157118750D02*
X85681300Y-142918750D01*
X71481300Y-157118750D02*
X85681300Y-157118750D01*
X71481300Y-142918750D02*
X71481300Y-157118750D01*
%TO.C,K54*%
X95293700Y-142918750D02*
X95293700Y-157118750D01*
X95293700Y-157118750D02*
X109493700Y-157118750D01*
X109493700Y-157118750D02*
X109493700Y-142918750D01*
X109493700Y-142918750D02*
X95293700Y-142918750D01*
%TO.C,K55*%
X119106300Y-142918750D02*
X119106300Y-157118750D01*
X119106300Y-157118750D02*
X133306300Y-157118750D01*
X133306300Y-157118750D02*
X133306300Y-142918750D01*
X133306300Y-142918750D02*
X119106300Y-142918750D01*
%TO.C,K56*%
X190543500Y-142918750D02*
X190543500Y-157118750D01*
X190543500Y-157118750D02*
X204743500Y-157118750D01*
X204743500Y-157118750D02*
X204743500Y-142918750D01*
X204743500Y-142918750D02*
X190543500Y-142918750D01*
%TO.C,K57*%
X261981500Y-142918750D02*
X261981500Y-157118750D01*
X261981500Y-157118750D02*
X276181500Y-157118750D01*
X276181500Y-157118750D02*
X276181500Y-142918750D01*
X276181500Y-142918750D02*
X261981500Y-142918750D01*
%TO.C,K58*%
X299993500Y-142918750D02*
X285793500Y-142918750D01*
X299993500Y-157118750D02*
X299993500Y-142918750D01*
X285793500Y-157118750D02*
X299993500Y-157118750D01*
X285793500Y-142918750D02*
X285793500Y-157118750D01*
%TO.C,K59*%
X309606500Y-142918750D02*
X309606500Y-157118750D01*
X309606500Y-157118750D02*
X323806500Y-157118750D01*
X323806500Y-157118750D02*
X323806500Y-142918750D01*
X323806500Y-142918750D02*
X309606500Y-142918750D01*
%TO.C,K60*%
X347618500Y-142918750D02*
X333418500Y-142918750D01*
X347618500Y-157118750D02*
X347618500Y-142918750D01*
X333418500Y-157118750D02*
X347618500Y-157118750D01*
X333418500Y-142918750D02*
X333418500Y-157118750D01*
%TO.C,SW1*%
X76318700Y-73962750D02*
X76318700Y-72962750D01*
X75818700Y-73462750D02*
X76818700Y-73462750D01*
X79818700Y-67362750D02*
X82218700Y-67362750D01*
X75018700Y-67362750D02*
X77618700Y-67362750D01*
X70418700Y-67362750D02*
X72818700Y-67362750D01*
X72218700Y-80662750D02*
X72518700Y-80962750D01*
X72218700Y-81262750D02*
X72218700Y-80662750D01*
X72518700Y-80962750D02*
X72218700Y-81262750D01*
X70418700Y-79562750D02*
X82218700Y-79562750D01*
X70418700Y-75462750D02*
X70418700Y-79562750D01*
X82218700Y-75462750D02*
X82218700Y-79562750D01*
X82218700Y-67362750D02*
X82218700Y-71462750D01*
X70418700Y-71462750D02*
X70418700Y-67362750D01*
X79318700Y-73462750D02*
G75*
G03*
X79318700Y-73462750I-3000000J0D01*
G01*
D12*
%TO.C,U1*%
X70485000Y-120808750D02*
X100965000Y-120808750D01*
X100965000Y-120808750D02*
X100965000Y-103028750D01*
X100965000Y-103028750D02*
X70485000Y-103028750D01*
X70485000Y-118268750D02*
X73025000Y-118268750D01*
X73025000Y-118268750D02*
X73025000Y-120808750D01*
D13*
G36*
X76364360Y-106987182D02*
G01*
X76664360Y-106987182D01*
X76664360Y-107087182D01*
X76364360Y-107087182D01*
X76364360Y-106987182D01*
G37*
X76364360Y-106987182D02*
X76664360Y-106987182D01*
X76664360Y-107087182D01*
X76364360Y-107087182D01*
X76364360Y-106987182D01*
G36*
X76764360Y-107187182D02*
G01*
X76864360Y-107187182D01*
X76864360Y-107287182D01*
X76764360Y-107287182D01*
X76764360Y-107187182D01*
G37*
X76764360Y-107187182D02*
X76864360Y-107187182D01*
X76864360Y-107287182D01*
X76764360Y-107287182D01*
X76764360Y-107187182D01*
G36*
X76364360Y-106987182D02*
G01*
X76464360Y-106987182D01*
X76464360Y-107487182D01*
X76364360Y-107487182D01*
X76364360Y-106987182D01*
G37*
X76364360Y-106987182D02*
X76464360Y-106987182D01*
X76464360Y-107487182D01*
X76364360Y-107487182D01*
X76364360Y-106987182D01*
G36*
X76364360Y-107387182D02*
G01*
X77164360Y-107387182D01*
X77164360Y-107487182D01*
X76364360Y-107487182D01*
X76364360Y-107387182D01*
G37*
X76364360Y-107387182D02*
X77164360Y-107387182D01*
X77164360Y-107487182D01*
X76364360Y-107487182D01*
X76364360Y-107387182D01*
G36*
X76964360Y-106987182D02*
G01*
X77164360Y-106987182D01*
X77164360Y-107087182D01*
X76964360Y-107087182D01*
X76964360Y-106987182D01*
G37*
X76964360Y-106987182D02*
X77164360Y-106987182D01*
X77164360Y-107087182D01*
X76964360Y-107087182D01*
X76964360Y-106987182D01*
D12*
X70485000Y-103028750D02*
X67945000Y-103028750D01*
X67945000Y-103028750D02*
X67945000Y-120808750D01*
X67945000Y-120808750D02*
X70485000Y-120808750D01*
X70485000Y-118268750D02*
X70485000Y-120808750D01*
D11*
%TO.C,K15*%
X97675000Y-85768750D02*
X97675000Y-99968750D01*
X97675000Y-99968750D02*
X111875000Y-99968750D01*
X111875000Y-99968750D02*
X111875000Y-85768750D01*
X111875000Y-85768750D02*
X97675000Y-85768750D01*
%TO.C,K16*%
X130925000Y-85768750D02*
X116725000Y-85768750D01*
X130925000Y-99968750D02*
X130925000Y-85768750D01*
X116725000Y-99968750D02*
X130925000Y-99968750D01*
X116725000Y-85768750D02*
X116725000Y-99968750D01*
%TO.C,K17*%
X135775000Y-85768750D02*
X135775000Y-99968750D01*
X135775000Y-99968750D02*
X149975000Y-99968750D01*
X149975000Y-99968750D02*
X149975000Y-85768750D01*
X149975000Y-85768750D02*
X135775000Y-85768750D01*
%TO.C,K18*%
X169025500Y-85768750D02*
X154825500Y-85768750D01*
X169025500Y-99968750D02*
X169025500Y-85768750D01*
X154825500Y-99968750D02*
X169025500Y-99968750D01*
X154825500Y-85768750D02*
X154825500Y-99968750D01*
%TO.C,K19*%
X188075500Y-85768750D02*
X173875500Y-85768750D01*
X188075500Y-99968750D02*
X188075500Y-85768750D01*
X173875500Y-99968750D02*
X188075500Y-99968750D01*
X173875500Y-85768750D02*
X173875500Y-99968750D01*
%TO.C,K20*%
X192925500Y-85768750D02*
X192925500Y-99968750D01*
X192925500Y-99968750D02*
X207125500Y-99968750D01*
X207125500Y-99968750D02*
X207125500Y-85768750D01*
X207125500Y-85768750D02*
X192925500Y-85768750D01*
%TO.C,K21*%
X211975500Y-85768750D02*
X211975500Y-99968750D01*
X211975500Y-99968750D02*
X226175500Y-99968750D01*
X226175500Y-99968750D02*
X226175500Y-85768750D01*
X226175500Y-85768750D02*
X211975500Y-85768750D01*
%TO.C,K22*%
X245225500Y-85768750D02*
X231025500Y-85768750D01*
X245225500Y-99968750D02*
X245225500Y-85768750D01*
X231025500Y-99968750D02*
X245225500Y-99968750D01*
X231025500Y-85768750D02*
X231025500Y-99968750D01*
%TO.C,K23*%
X264275500Y-85768750D02*
X250075500Y-85768750D01*
X264275500Y-99968750D02*
X264275500Y-85768750D01*
X250075500Y-99968750D02*
X264275500Y-99968750D01*
X250075500Y-85768750D02*
X250075500Y-99968750D01*
%TO.C,K24*%
X283325500Y-85768750D02*
X269125500Y-85768750D01*
X283325500Y-99968750D02*
X283325500Y-85768750D01*
X269125500Y-99968750D02*
X283325500Y-99968750D01*
X269125500Y-85768750D02*
X269125500Y-99968750D01*
%TO.C,K25*%
X288175500Y-85768750D02*
X288175500Y-99968750D01*
X288175500Y-99968750D02*
X302375500Y-99968750D01*
X302375500Y-99968750D02*
X302375500Y-85768750D01*
X302375500Y-85768750D02*
X288175500Y-85768750D01*
%TO.C,K26*%
X307225500Y-85768750D02*
X307225500Y-99968750D01*
X307225500Y-99968750D02*
X321425500Y-99968750D01*
X321425500Y-99968750D02*
X321425500Y-85768750D01*
X321425500Y-85768750D02*
X307225500Y-85768750D01*
%TO.C,D1*%
D13*
X88011904Y-79171226D02*
X87211904Y-79171226D01*
X87211904Y-78980750D01*
X87250000Y-78866464D01*
X87326190Y-78790273D01*
X87402380Y-78752178D01*
X87554761Y-78714083D01*
X87669047Y-78714083D01*
X87821428Y-78752178D01*
X87897619Y-78790273D01*
X87973809Y-78866464D01*
X88011904Y-78980750D01*
X88011904Y-79171226D01*
X88011904Y-77952178D02*
X88011904Y-78409321D01*
X88011904Y-78180750D02*
X87211904Y-78180750D01*
X87326190Y-78256940D01*
X87402380Y-78333130D01*
X87440476Y-78409321D01*
%TO.C,D2*%
X94659523Y-80867654D02*
X94659523Y-80067654D01*
X94850000Y-80067654D01*
X94964285Y-80105750D01*
X95040476Y-80181940D01*
X95078571Y-80258130D01*
X95116666Y-80410511D01*
X95116666Y-80524797D01*
X95078571Y-80677178D01*
X95040476Y-80753369D01*
X94964285Y-80829559D01*
X94850000Y-80867654D01*
X94659523Y-80867654D01*
X95421428Y-80143845D02*
X95459523Y-80105750D01*
X95535714Y-80067654D01*
X95726190Y-80067654D01*
X95802380Y-80105750D01*
X95840476Y-80143845D01*
X95878571Y-80220035D01*
X95878571Y-80296226D01*
X95840476Y-80410511D01*
X95383333Y-80867654D01*
X95878571Y-80867654D01*
%TO.C,D3*%
X113709523Y-80867654D02*
X113709523Y-80067654D01*
X113900000Y-80067654D01*
X114014285Y-80105750D01*
X114090476Y-80181940D01*
X114128571Y-80258130D01*
X114166666Y-80410511D01*
X114166666Y-80524797D01*
X114128571Y-80677178D01*
X114090476Y-80753369D01*
X114014285Y-80829559D01*
X113900000Y-80867654D01*
X113709523Y-80867654D01*
X114433333Y-80067654D02*
X114928571Y-80067654D01*
X114661904Y-80372416D01*
X114776190Y-80372416D01*
X114852380Y-80410511D01*
X114890476Y-80448607D01*
X114928571Y-80524797D01*
X114928571Y-80715273D01*
X114890476Y-80791464D01*
X114852380Y-80829559D01*
X114776190Y-80867654D01*
X114547619Y-80867654D01*
X114471428Y-80829559D01*
X114433333Y-80791464D01*
%TO.C,D4*%
X132759523Y-80867654D02*
X132759523Y-80067654D01*
X132950000Y-80067654D01*
X133064285Y-80105750D01*
X133140476Y-80181940D01*
X133178571Y-80258130D01*
X133216666Y-80410511D01*
X133216666Y-80524797D01*
X133178571Y-80677178D01*
X133140476Y-80753369D01*
X133064285Y-80829559D01*
X132950000Y-80867654D01*
X132759523Y-80867654D01*
X133902380Y-80334321D02*
X133902380Y-80867654D01*
X133711904Y-80029559D02*
X133521428Y-80600988D01*
X134016666Y-80600988D01*
%TO.C,D5*%
X151809023Y-80867654D02*
X151809023Y-80067654D01*
X151999500Y-80067654D01*
X152113785Y-80105750D01*
X152189976Y-80181940D01*
X152228071Y-80258130D01*
X152266166Y-80410511D01*
X152266166Y-80524797D01*
X152228071Y-80677178D01*
X152189976Y-80753369D01*
X152113785Y-80829559D01*
X151999500Y-80867654D01*
X151809023Y-80867654D01*
X152989976Y-80067654D02*
X152609023Y-80067654D01*
X152570928Y-80448607D01*
X152609023Y-80410511D01*
X152685214Y-80372416D01*
X152875690Y-80372416D01*
X152951880Y-80410511D01*
X152989976Y-80448607D01*
X153028071Y-80524797D01*
X153028071Y-80715273D01*
X152989976Y-80791464D01*
X152951880Y-80829559D01*
X152875690Y-80867654D01*
X152685214Y-80867654D01*
X152609023Y-80829559D01*
X152570928Y-80791464D01*
%TO.C,D6*%
X170859023Y-80867654D02*
X170859023Y-80067654D01*
X171049500Y-80067654D01*
X171163785Y-80105750D01*
X171239976Y-80181940D01*
X171278071Y-80258130D01*
X171316166Y-80410511D01*
X171316166Y-80524797D01*
X171278071Y-80677178D01*
X171239976Y-80753369D01*
X171163785Y-80829559D01*
X171049500Y-80867654D01*
X170859023Y-80867654D01*
X172001880Y-80067654D02*
X171849500Y-80067654D01*
X171773309Y-80105750D01*
X171735214Y-80143845D01*
X171659023Y-80258130D01*
X171620928Y-80410511D01*
X171620928Y-80715273D01*
X171659023Y-80791464D01*
X171697119Y-80829559D01*
X171773309Y-80867654D01*
X171925690Y-80867654D01*
X172001880Y-80829559D01*
X172039976Y-80791464D01*
X172078071Y-80715273D01*
X172078071Y-80524797D01*
X172039976Y-80448607D01*
X172001880Y-80410511D01*
X171925690Y-80372416D01*
X171773309Y-80372416D01*
X171697119Y-80410511D01*
X171659023Y-80448607D01*
X171620928Y-80524797D01*
%TO.C,D7*%
X189909023Y-80867654D02*
X189909023Y-80067654D01*
X190099500Y-80067654D01*
X190213785Y-80105750D01*
X190289976Y-80181940D01*
X190328071Y-80258130D01*
X190366166Y-80410511D01*
X190366166Y-80524797D01*
X190328071Y-80677178D01*
X190289976Y-80753369D01*
X190213785Y-80829559D01*
X190099500Y-80867654D01*
X189909023Y-80867654D01*
X190632833Y-80067654D02*
X191166166Y-80067654D01*
X190823309Y-80867654D01*
%TO.C,D8*%
X208959023Y-80867654D02*
X208959023Y-80067654D01*
X209149500Y-80067654D01*
X209263785Y-80105750D01*
X209339976Y-80181940D01*
X209378071Y-80258130D01*
X209416166Y-80410511D01*
X209416166Y-80524797D01*
X209378071Y-80677178D01*
X209339976Y-80753369D01*
X209263785Y-80829559D01*
X209149500Y-80867654D01*
X208959023Y-80867654D01*
X209873309Y-80410511D02*
X209797119Y-80372416D01*
X209759023Y-80334321D01*
X209720928Y-80258130D01*
X209720928Y-80220035D01*
X209759023Y-80143845D01*
X209797119Y-80105750D01*
X209873309Y-80067654D01*
X210025690Y-80067654D01*
X210101880Y-80105750D01*
X210139976Y-80143845D01*
X210178071Y-80220035D01*
X210178071Y-80258130D01*
X210139976Y-80334321D01*
X210101880Y-80372416D01*
X210025690Y-80410511D01*
X209873309Y-80410511D01*
X209797119Y-80448607D01*
X209759023Y-80486702D01*
X209720928Y-80562892D01*
X209720928Y-80715273D01*
X209759023Y-80791464D01*
X209797119Y-80829559D01*
X209873309Y-80867654D01*
X210025690Y-80867654D01*
X210101880Y-80829559D01*
X210139976Y-80791464D01*
X210178071Y-80715273D01*
X210178071Y-80562892D01*
X210139976Y-80486702D01*
X210101880Y-80448607D01*
X210025690Y-80410511D01*
%TO.C,D9*%
X228009023Y-80867654D02*
X228009023Y-80067654D01*
X228199500Y-80067654D01*
X228313785Y-80105750D01*
X228389976Y-80181940D01*
X228428071Y-80258130D01*
X228466166Y-80410511D01*
X228466166Y-80524797D01*
X228428071Y-80677178D01*
X228389976Y-80753369D01*
X228313785Y-80829559D01*
X228199500Y-80867654D01*
X228009023Y-80867654D01*
X228847119Y-80867654D02*
X228999500Y-80867654D01*
X229075690Y-80829559D01*
X229113785Y-80791464D01*
X229189976Y-80677178D01*
X229228071Y-80524797D01*
X229228071Y-80220035D01*
X229189976Y-80143845D01*
X229151880Y-80105750D01*
X229075690Y-80067654D01*
X228923309Y-80067654D01*
X228847119Y-80105750D01*
X228809023Y-80143845D01*
X228770928Y-80220035D01*
X228770928Y-80410511D01*
X228809023Y-80486702D01*
X228847119Y-80524797D01*
X228923309Y-80562892D01*
X229075690Y-80562892D01*
X229151880Y-80524797D01*
X229189976Y-80486702D01*
X229228071Y-80410511D01*
%TO.C,D10*%
X246678071Y-80867654D02*
X246678071Y-80067654D01*
X246868547Y-80067654D01*
X246982833Y-80105750D01*
X247059023Y-80181940D01*
X247097119Y-80258130D01*
X247135214Y-80410511D01*
X247135214Y-80524797D01*
X247097119Y-80677178D01*
X247059023Y-80753369D01*
X246982833Y-80829559D01*
X246868547Y-80867654D01*
X246678071Y-80867654D01*
X247897119Y-80867654D02*
X247439976Y-80867654D01*
X247668547Y-80867654D02*
X247668547Y-80067654D01*
X247592357Y-80181940D01*
X247516166Y-80258130D01*
X247439976Y-80296226D01*
X248392357Y-80067654D02*
X248468547Y-80067654D01*
X248544738Y-80105750D01*
X248582833Y-80143845D01*
X248620928Y-80220035D01*
X248659023Y-80372416D01*
X248659023Y-80562892D01*
X248620928Y-80715273D01*
X248582833Y-80791464D01*
X248544738Y-80829559D01*
X248468547Y-80867654D01*
X248392357Y-80867654D01*
X248316166Y-80829559D01*
X248278071Y-80791464D01*
X248239976Y-80715273D01*
X248201880Y-80562892D01*
X248201880Y-80372416D01*
X248239976Y-80220035D01*
X248278071Y-80143845D01*
X248316166Y-80105750D01*
X248392357Y-80067654D01*
%TO.C,D11*%
X265728071Y-80867654D02*
X265728071Y-80067654D01*
X265918547Y-80067654D01*
X266032833Y-80105750D01*
X266109023Y-80181940D01*
X266147119Y-80258130D01*
X266185214Y-80410511D01*
X266185214Y-80524797D01*
X266147119Y-80677178D01*
X266109023Y-80753369D01*
X266032833Y-80829559D01*
X265918547Y-80867654D01*
X265728071Y-80867654D01*
X266947119Y-80867654D02*
X266489976Y-80867654D01*
X266718547Y-80867654D02*
X266718547Y-80067654D01*
X266642357Y-80181940D01*
X266566166Y-80258130D01*
X266489976Y-80296226D01*
X267709023Y-80867654D02*
X267251880Y-80867654D01*
X267480452Y-80867654D02*
X267480452Y-80067654D01*
X267404261Y-80181940D01*
X267328071Y-80258130D01*
X267251880Y-80296226D01*
%TO.C,D12*%
X284778071Y-80867654D02*
X284778071Y-80067654D01*
X284968547Y-80067654D01*
X285082833Y-80105750D01*
X285159023Y-80181940D01*
X285197119Y-80258130D01*
X285235214Y-80410511D01*
X285235214Y-80524797D01*
X285197119Y-80677178D01*
X285159023Y-80753369D01*
X285082833Y-80829559D01*
X284968547Y-80867654D01*
X284778071Y-80867654D01*
X285997119Y-80867654D02*
X285539976Y-80867654D01*
X285768547Y-80867654D02*
X285768547Y-80067654D01*
X285692357Y-80181940D01*
X285616166Y-80258130D01*
X285539976Y-80296226D01*
X286301880Y-80143845D02*
X286339976Y-80105750D01*
X286416166Y-80067654D01*
X286606642Y-80067654D01*
X286682833Y-80105750D01*
X286720928Y-80143845D01*
X286759023Y-80220035D01*
X286759023Y-80296226D01*
X286720928Y-80410511D01*
X286263785Y-80867654D01*
X286759023Y-80867654D01*
%TO.C,D13*%
X303828071Y-80867654D02*
X303828071Y-80067654D01*
X304018547Y-80067654D01*
X304132833Y-80105750D01*
X304209023Y-80181940D01*
X304247119Y-80258130D01*
X304285214Y-80410511D01*
X304285214Y-80524797D01*
X304247119Y-80677178D01*
X304209023Y-80753369D01*
X304132833Y-80829559D01*
X304018547Y-80867654D01*
X303828071Y-80867654D01*
X305047119Y-80867654D02*
X304589976Y-80867654D01*
X304818547Y-80867654D02*
X304818547Y-80067654D01*
X304742357Y-80181940D01*
X304666166Y-80258130D01*
X304589976Y-80296226D01*
X305313785Y-80067654D02*
X305809023Y-80067654D01*
X305542357Y-80372416D01*
X305656642Y-80372416D01*
X305732833Y-80410511D01*
X305770928Y-80448607D01*
X305809023Y-80524797D01*
X305809023Y-80715273D01*
X305770928Y-80791464D01*
X305732833Y-80829559D01*
X305656642Y-80867654D01*
X305428071Y-80867654D01*
X305351880Y-80829559D01*
X305313785Y-80791464D01*
%TO.C,D14*%
X332404071Y-80867654D02*
X332404071Y-80067654D01*
X332594547Y-80067654D01*
X332708833Y-80105750D01*
X332785023Y-80181940D01*
X332823119Y-80258130D01*
X332861214Y-80410511D01*
X332861214Y-80524797D01*
X332823119Y-80677178D01*
X332785023Y-80753369D01*
X332708833Y-80829559D01*
X332594547Y-80867654D01*
X332404071Y-80867654D01*
X333623119Y-80867654D02*
X333165976Y-80867654D01*
X333394547Y-80867654D02*
X333394547Y-80067654D01*
X333318357Y-80181940D01*
X333242166Y-80258130D01*
X333165976Y-80296226D01*
X334308833Y-80334321D02*
X334308833Y-80867654D01*
X334118357Y-80029559D02*
X333927880Y-80600988D01*
X334423119Y-80600988D01*
%TO.C,D15*%
X79991071Y-99917654D02*
X79991071Y-99117654D01*
X80181547Y-99117654D01*
X80295833Y-99155750D01*
X80372023Y-99231940D01*
X80410119Y-99308130D01*
X80448214Y-99460511D01*
X80448214Y-99574797D01*
X80410119Y-99727178D01*
X80372023Y-99803369D01*
X80295833Y-99879559D01*
X80181547Y-99917654D01*
X79991071Y-99917654D01*
X81210119Y-99917654D02*
X80752976Y-99917654D01*
X80981547Y-99917654D02*
X80981547Y-99117654D01*
X80905357Y-99231940D01*
X80829166Y-99308130D01*
X80752976Y-99346226D01*
X81933928Y-99117654D02*
X81552976Y-99117654D01*
X81514880Y-99498607D01*
X81552976Y-99460511D01*
X81629166Y-99422416D01*
X81819642Y-99422416D01*
X81895833Y-99460511D01*
X81933928Y-99498607D01*
X81972023Y-99574797D01*
X81972023Y-99765273D01*
X81933928Y-99841464D01*
X81895833Y-99879559D01*
X81819642Y-99917654D01*
X81629166Y-99917654D01*
X81552976Y-99879559D01*
X81514880Y-99841464D01*
%TO.C,D16*%
X103803571Y-99917654D02*
X103803571Y-99117654D01*
X103994047Y-99117654D01*
X104108333Y-99155750D01*
X104184523Y-99231940D01*
X104222619Y-99308130D01*
X104260714Y-99460511D01*
X104260714Y-99574797D01*
X104222619Y-99727178D01*
X104184523Y-99803369D01*
X104108333Y-99879559D01*
X103994047Y-99917654D01*
X103803571Y-99917654D01*
X105022619Y-99917654D02*
X104565476Y-99917654D01*
X104794047Y-99917654D02*
X104794047Y-99117654D01*
X104717857Y-99231940D01*
X104641666Y-99308130D01*
X104565476Y-99346226D01*
X105708333Y-99117654D02*
X105555952Y-99117654D01*
X105479761Y-99155750D01*
X105441666Y-99193845D01*
X105365476Y-99308130D01*
X105327380Y-99460511D01*
X105327380Y-99765273D01*
X105365476Y-99841464D01*
X105403571Y-99879559D01*
X105479761Y-99917654D01*
X105632142Y-99917654D01*
X105708333Y-99879559D01*
X105746428Y-99841464D01*
X105784523Y-99765273D01*
X105784523Y-99574797D01*
X105746428Y-99498607D01*
X105708333Y-99460511D01*
X105632142Y-99422416D01*
X105479761Y-99422416D01*
X105403571Y-99460511D01*
X105365476Y-99498607D01*
X105327380Y-99574797D01*
%TO.C,D17*%
X122853571Y-99917654D02*
X122853571Y-99117654D01*
X123044047Y-99117654D01*
X123158333Y-99155750D01*
X123234523Y-99231940D01*
X123272619Y-99308130D01*
X123310714Y-99460511D01*
X123310714Y-99574797D01*
X123272619Y-99727178D01*
X123234523Y-99803369D01*
X123158333Y-99879559D01*
X123044047Y-99917654D01*
X122853571Y-99917654D01*
X124072619Y-99917654D02*
X123615476Y-99917654D01*
X123844047Y-99917654D02*
X123844047Y-99117654D01*
X123767857Y-99231940D01*
X123691666Y-99308130D01*
X123615476Y-99346226D01*
X124339285Y-99117654D02*
X124872619Y-99117654D01*
X124529761Y-99917654D01*
%TO.C,D18*%
X141903571Y-99917654D02*
X141903571Y-99117654D01*
X142094047Y-99117654D01*
X142208333Y-99155750D01*
X142284523Y-99231940D01*
X142322619Y-99308130D01*
X142360714Y-99460511D01*
X142360714Y-99574797D01*
X142322619Y-99727178D01*
X142284523Y-99803369D01*
X142208333Y-99879559D01*
X142094047Y-99917654D01*
X141903571Y-99917654D01*
X143122619Y-99917654D02*
X142665476Y-99917654D01*
X142894047Y-99917654D02*
X142894047Y-99117654D01*
X142817857Y-99231940D01*
X142741666Y-99308130D01*
X142665476Y-99346226D01*
X143579761Y-99460511D02*
X143503571Y-99422416D01*
X143465476Y-99384321D01*
X143427380Y-99308130D01*
X143427380Y-99270035D01*
X143465476Y-99193845D01*
X143503571Y-99155750D01*
X143579761Y-99117654D01*
X143732142Y-99117654D01*
X143808333Y-99155750D01*
X143846428Y-99193845D01*
X143884523Y-99270035D01*
X143884523Y-99308130D01*
X143846428Y-99384321D01*
X143808333Y-99422416D01*
X143732142Y-99460511D01*
X143579761Y-99460511D01*
X143503571Y-99498607D01*
X143465476Y-99536702D01*
X143427380Y-99612892D01*
X143427380Y-99765273D01*
X143465476Y-99841464D01*
X143503571Y-99879559D01*
X143579761Y-99917654D01*
X143732142Y-99917654D01*
X143808333Y-99879559D01*
X143846428Y-99841464D01*
X143884523Y-99765273D01*
X143884523Y-99612892D01*
X143846428Y-99536702D01*
X143808333Y-99498607D01*
X143732142Y-99460511D01*
%TO.C,D19*%
X160954071Y-99917654D02*
X160954071Y-99117654D01*
X161144547Y-99117654D01*
X161258833Y-99155750D01*
X161335023Y-99231940D01*
X161373119Y-99308130D01*
X161411214Y-99460511D01*
X161411214Y-99574797D01*
X161373119Y-99727178D01*
X161335023Y-99803369D01*
X161258833Y-99879559D01*
X161144547Y-99917654D01*
X160954071Y-99917654D01*
X162173119Y-99917654D02*
X161715976Y-99917654D01*
X161944547Y-99917654D02*
X161944547Y-99117654D01*
X161868357Y-99231940D01*
X161792166Y-99308130D01*
X161715976Y-99346226D01*
X162554071Y-99917654D02*
X162706452Y-99917654D01*
X162782642Y-99879559D01*
X162820738Y-99841464D01*
X162896928Y-99727178D01*
X162935023Y-99574797D01*
X162935023Y-99270035D01*
X162896928Y-99193845D01*
X162858833Y-99155750D01*
X162782642Y-99117654D01*
X162630261Y-99117654D01*
X162554071Y-99155750D01*
X162515976Y-99193845D01*
X162477880Y-99270035D01*
X162477880Y-99460511D01*
X162515976Y-99536702D01*
X162554071Y-99574797D01*
X162630261Y-99612892D01*
X162782642Y-99612892D01*
X162858833Y-99574797D01*
X162896928Y-99536702D01*
X162935023Y-99460511D01*
%TO.C,D20*%
X180004071Y-99917654D02*
X180004071Y-99117654D01*
X180194547Y-99117654D01*
X180308833Y-99155750D01*
X180385023Y-99231940D01*
X180423119Y-99308130D01*
X180461214Y-99460511D01*
X180461214Y-99574797D01*
X180423119Y-99727178D01*
X180385023Y-99803369D01*
X180308833Y-99879559D01*
X180194547Y-99917654D01*
X180004071Y-99917654D01*
X180765976Y-99193845D02*
X180804071Y-99155750D01*
X180880261Y-99117654D01*
X181070738Y-99117654D01*
X181146928Y-99155750D01*
X181185023Y-99193845D01*
X181223119Y-99270035D01*
X181223119Y-99346226D01*
X181185023Y-99460511D01*
X180727880Y-99917654D01*
X181223119Y-99917654D01*
X181718357Y-99117654D02*
X181794547Y-99117654D01*
X181870738Y-99155750D01*
X181908833Y-99193845D01*
X181946928Y-99270035D01*
X181985023Y-99422416D01*
X181985023Y-99612892D01*
X181946928Y-99765273D01*
X181908833Y-99841464D01*
X181870738Y-99879559D01*
X181794547Y-99917654D01*
X181718357Y-99917654D01*
X181642166Y-99879559D01*
X181604071Y-99841464D01*
X181565976Y-99765273D01*
X181527880Y-99612892D01*
X181527880Y-99422416D01*
X181565976Y-99270035D01*
X181604071Y-99193845D01*
X181642166Y-99155750D01*
X181718357Y-99117654D01*
%TO.C,D21*%
X199054071Y-99917654D02*
X199054071Y-99117654D01*
X199244547Y-99117654D01*
X199358833Y-99155750D01*
X199435023Y-99231940D01*
X199473119Y-99308130D01*
X199511214Y-99460511D01*
X199511214Y-99574797D01*
X199473119Y-99727178D01*
X199435023Y-99803369D01*
X199358833Y-99879559D01*
X199244547Y-99917654D01*
X199054071Y-99917654D01*
X199815976Y-99193845D02*
X199854071Y-99155750D01*
X199930261Y-99117654D01*
X200120738Y-99117654D01*
X200196928Y-99155750D01*
X200235023Y-99193845D01*
X200273119Y-99270035D01*
X200273119Y-99346226D01*
X200235023Y-99460511D01*
X199777880Y-99917654D01*
X200273119Y-99917654D01*
X201035023Y-99917654D02*
X200577880Y-99917654D01*
X200806452Y-99917654D02*
X200806452Y-99117654D01*
X200730261Y-99231940D01*
X200654071Y-99308130D01*
X200577880Y-99346226D01*
%TO.C,D22*%
X218104071Y-99917654D02*
X218104071Y-99117654D01*
X218294547Y-99117654D01*
X218408833Y-99155750D01*
X218485023Y-99231940D01*
X218523119Y-99308130D01*
X218561214Y-99460511D01*
X218561214Y-99574797D01*
X218523119Y-99727178D01*
X218485023Y-99803369D01*
X218408833Y-99879559D01*
X218294547Y-99917654D01*
X218104071Y-99917654D01*
X218865976Y-99193845D02*
X218904071Y-99155750D01*
X218980261Y-99117654D01*
X219170738Y-99117654D01*
X219246928Y-99155750D01*
X219285023Y-99193845D01*
X219323119Y-99270035D01*
X219323119Y-99346226D01*
X219285023Y-99460511D01*
X218827880Y-99917654D01*
X219323119Y-99917654D01*
X219627880Y-99193845D02*
X219665976Y-99155750D01*
X219742166Y-99117654D01*
X219932642Y-99117654D01*
X220008833Y-99155750D01*
X220046928Y-99193845D01*
X220085023Y-99270035D01*
X220085023Y-99346226D01*
X220046928Y-99460511D01*
X219589785Y-99917654D01*
X220085023Y-99917654D01*
%TO.C,D23*%
X237154071Y-99917654D02*
X237154071Y-99117654D01*
X237344547Y-99117654D01*
X237458833Y-99155750D01*
X237535023Y-99231940D01*
X237573119Y-99308130D01*
X237611214Y-99460511D01*
X237611214Y-99574797D01*
X237573119Y-99727178D01*
X237535023Y-99803369D01*
X237458833Y-99879559D01*
X237344547Y-99917654D01*
X237154071Y-99917654D01*
X237915976Y-99193845D02*
X237954071Y-99155750D01*
X238030261Y-99117654D01*
X238220738Y-99117654D01*
X238296928Y-99155750D01*
X238335023Y-99193845D01*
X238373119Y-99270035D01*
X238373119Y-99346226D01*
X238335023Y-99460511D01*
X237877880Y-99917654D01*
X238373119Y-99917654D01*
X238639785Y-99117654D02*
X239135023Y-99117654D01*
X238868357Y-99422416D01*
X238982642Y-99422416D01*
X239058833Y-99460511D01*
X239096928Y-99498607D01*
X239135023Y-99574797D01*
X239135023Y-99765273D01*
X239096928Y-99841464D01*
X239058833Y-99879559D01*
X238982642Y-99917654D01*
X238754071Y-99917654D01*
X238677880Y-99879559D01*
X238639785Y-99841464D01*
%TO.C,D24*%
X256204071Y-99917654D02*
X256204071Y-99117654D01*
X256394547Y-99117654D01*
X256508833Y-99155750D01*
X256585023Y-99231940D01*
X256623119Y-99308130D01*
X256661214Y-99460511D01*
X256661214Y-99574797D01*
X256623119Y-99727178D01*
X256585023Y-99803369D01*
X256508833Y-99879559D01*
X256394547Y-99917654D01*
X256204071Y-99917654D01*
X256965976Y-99193845D02*
X257004071Y-99155750D01*
X257080261Y-99117654D01*
X257270738Y-99117654D01*
X257346928Y-99155750D01*
X257385023Y-99193845D01*
X257423119Y-99270035D01*
X257423119Y-99346226D01*
X257385023Y-99460511D01*
X256927880Y-99917654D01*
X257423119Y-99917654D01*
X258108833Y-99384321D02*
X258108833Y-99917654D01*
X257918357Y-99079559D02*
X257727880Y-99650988D01*
X258223119Y-99650988D01*
%TO.C,D25*%
X275254071Y-99917654D02*
X275254071Y-99117654D01*
X275444547Y-99117654D01*
X275558833Y-99155750D01*
X275635023Y-99231940D01*
X275673119Y-99308130D01*
X275711214Y-99460511D01*
X275711214Y-99574797D01*
X275673119Y-99727178D01*
X275635023Y-99803369D01*
X275558833Y-99879559D01*
X275444547Y-99917654D01*
X275254071Y-99917654D01*
X276015976Y-99193845D02*
X276054071Y-99155750D01*
X276130261Y-99117654D01*
X276320738Y-99117654D01*
X276396928Y-99155750D01*
X276435023Y-99193845D01*
X276473119Y-99270035D01*
X276473119Y-99346226D01*
X276435023Y-99460511D01*
X275977880Y-99917654D01*
X276473119Y-99917654D01*
X277196928Y-99117654D02*
X276815976Y-99117654D01*
X276777880Y-99498607D01*
X276815976Y-99460511D01*
X276892166Y-99422416D01*
X277082642Y-99422416D01*
X277158833Y-99460511D01*
X277196928Y-99498607D01*
X277235023Y-99574797D01*
X277235023Y-99765273D01*
X277196928Y-99841464D01*
X277158833Y-99879559D01*
X277082642Y-99917654D01*
X276892166Y-99917654D01*
X276815976Y-99879559D01*
X276777880Y-99841464D01*
%TO.C,D26*%
X294304071Y-99917654D02*
X294304071Y-99117654D01*
X294494547Y-99117654D01*
X294608833Y-99155750D01*
X294685023Y-99231940D01*
X294723119Y-99308130D01*
X294761214Y-99460511D01*
X294761214Y-99574797D01*
X294723119Y-99727178D01*
X294685023Y-99803369D01*
X294608833Y-99879559D01*
X294494547Y-99917654D01*
X294304071Y-99917654D01*
X295065976Y-99193845D02*
X295104071Y-99155750D01*
X295180261Y-99117654D01*
X295370738Y-99117654D01*
X295446928Y-99155750D01*
X295485023Y-99193845D01*
X295523119Y-99270035D01*
X295523119Y-99346226D01*
X295485023Y-99460511D01*
X295027880Y-99917654D01*
X295523119Y-99917654D01*
X296208833Y-99117654D02*
X296056452Y-99117654D01*
X295980261Y-99155750D01*
X295942166Y-99193845D01*
X295865976Y-99308130D01*
X295827880Y-99460511D01*
X295827880Y-99765273D01*
X295865976Y-99841464D01*
X295904071Y-99879559D01*
X295980261Y-99917654D01*
X296132642Y-99917654D01*
X296208833Y-99879559D01*
X296246928Y-99841464D01*
X296285023Y-99765273D01*
X296285023Y-99574797D01*
X296246928Y-99498607D01*
X296208833Y-99460511D01*
X296132642Y-99422416D01*
X295980261Y-99422416D01*
X295904071Y-99460511D01*
X295865976Y-99498607D01*
X295827880Y-99574797D01*
%TO.C,D27*%
X313354071Y-99917654D02*
X313354071Y-99117654D01*
X313544547Y-99117654D01*
X313658833Y-99155750D01*
X313735023Y-99231940D01*
X313773119Y-99308130D01*
X313811214Y-99460511D01*
X313811214Y-99574797D01*
X313773119Y-99727178D01*
X313735023Y-99803369D01*
X313658833Y-99879559D01*
X313544547Y-99917654D01*
X313354071Y-99917654D01*
X314115976Y-99193845D02*
X314154071Y-99155750D01*
X314230261Y-99117654D01*
X314420738Y-99117654D01*
X314496928Y-99155750D01*
X314535023Y-99193845D01*
X314573119Y-99270035D01*
X314573119Y-99346226D01*
X314535023Y-99460511D01*
X314077880Y-99917654D01*
X314573119Y-99917654D01*
X314839785Y-99117654D02*
X315373119Y-99117654D01*
X315030261Y-99917654D01*
%TO.C,D28*%
X337166071Y-99917654D02*
X337166071Y-99117654D01*
X337356547Y-99117654D01*
X337470833Y-99155750D01*
X337547023Y-99231940D01*
X337585119Y-99308130D01*
X337623214Y-99460511D01*
X337623214Y-99574797D01*
X337585119Y-99727178D01*
X337547023Y-99803369D01*
X337470833Y-99879559D01*
X337356547Y-99917654D01*
X337166071Y-99917654D01*
X337927976Y-99193845D02*
X337966071Y-99155750D01*
X338042261Y-99117654D01*
X338232738Y-99117654D01*
X338308928Y-99155750D01*
X338347023Y-99193845D01*
X338385119Y-99270035D01*
X338385119Y-99346226D01*
X338347023Y-99460511D01*
X337889880Y-99917654D01*
X338385119Y-99917654D01*
X338842261Y-99460511D02*
X338766071Y-99422416D01*
X338727976Y-99384321D01*
X338689880Y-99308130D01*
X338689880Y-99270035D01*
X338727976Y-99193845D01*
X338766071Y-99155750D01*
X338842261Y-99117654D01*
X338994642Y-99117654D01*
X339070833Y-99155750D01*
X339108928Y-99193845D01*
X339147023Y-99270035D01*
X339147023Y-99308130D01*
X339108928Y-99384321D01*
X339070833Y-99422416D01*
X338994642Y-99460511D01*
X338842261Y-99460511D01*
X338766071Y-99498607D01*
X338727976Y-99536702D01*
X338689880Y-99612892D01*
X338689880Y-99765273D01*
X338727976Y-99841464D01*
X338766071Y-99879559D01*
X338842261Y-99917654D01*
X338994642Y-99917654D01*
X339070833Y-99879559D01*
X339108928Y-99841464D01*
X339147023Y-99765273D01*
X339147023Y-99612892D01*
X339108928Y-99536702D01*
X339070833Y-99498607D01*
X338994642Y-99460511D01*
%TO.C,D29*%
X82372271Y-118967654D02*
X82372271Y-118167654D01*
X82562747Y-118167654D01*
X82677033Y-118205750D01*
X82753223Y-118281940D01*
X82791319Y-118358130D01*
X82829414Y-118510511D01*
X82829414Y-118624797D01*
X82791319Y-118777178D01*
X82753223Y-118853369D01*
X82677033Y-118929559D01*
X82562747Y-118967654D01*
X82372271Y-118967654D01*
X83134176Y-118243845D02*
X83172271Y-118205750D01*
X83248461Y-118167654D01*
X83438938Y-118167654D01*
X83515128Y-118205750D01*
X83553223Y-118243845D01*
X83591319Y-118320035D01*
X83591319Y-118396226D01*
X83553223Y-118510511D01*
X83096080Y-118967654D01*
X83591319Y-118967654D01*
X83972271Y-118967654D02*
X84124652Y-118967654D01*
X84200842Y-118929559D01*
X84238938Y-118891464D01*
X84315128Y-118777178D01*
X84353223Y-118624797D01*
X84353223Y-118320035D01*
X84315128Y-118243845D01*
X84277033Y-118205750D01*
X84200842Y-118167654D01*
X84048461Y-118167654D01*
X83972271Y-118205750D01*
X83934176Y-118243845D01*
X83896080Y-118320035D01*
X83896080Y-118510511D01*
X83934176Y-118586702D01*
X83972271Y-118624797D01*
X84048461Y-118662892D01*
X84200842Y-118662892D01*
X84277033Y-118624797D01*
X84315128Y-118586702D01*
X84353223Y-118510511D01*
%TO.C,D30*%
X108566071Y-118967654D02*
X108566071Y-118167654D01*
X108756547Y-118167654D01*
X108870833Y-118205750D01*
X108947023Y-118281940D01*
X108985119Y-118358130D01*
X109023214Y-118510511D01*
X109023214Y-118624797D01*
X108985119Y-118777178D01*
X108947023Y-118853369D01*
X108870833Y-118929559D01*
X108756547Y-118967654D01*
X108566071Y-118967654D01*
X109289880Y-118167654D02*
X109785119Y-118167654D01*
X109518452Y-118472416D01*
X109632738Y-118472416D01*
X109708928Y-118510511D01*
X109747023Y-118548607D01*
X109785119Y-118624797D01*
X109785119Y-118815273D01*
X109747023Y-118891464D01*
X109708928Y-118929559D01*
X109632738Y-118967654D01*
X109404166Y-118967654D01*
X109327976Y-118929559D01*
X109289880Y-118891464D01*
X110280357Y-118167654D02*
X110356547Y-118167654D01*
X110432738Y-118205750D01*
X110470833Y-118243845D01*
X110508928Y-118320035D01*
X110547023Y-118472416D01*
X110547023Y-118662892D01*
X110508928Y-118815273D01*
X110470833Y-118891464D01*
X110432738Y-118929559D01*
X110356547Y-118967654D01*
X110280357Y-118967654D01*
X110204166Y-118929559D01*
X110166071Y-118891464D01*
X110127976Y-118815273D01*
X110089880Y-118662892D01*
X110089880Y-118472416D01*
X110127976Y-118320035D01*
X110166071Y-118243845D01*
X110204166Y-118205750D01*
X110280357Y-118167654D01*
%TO.C,D31*%
X127616071Y-118967654D02*
X127616071Y-118167654D01*
X127806547Y-118167654D01*
X127920833Y-118205750D01*
X127997023Y-118281940D01*
X128035119Y-118358130D01*
X128073214Y-118510511D01*
X128073214Y-118624797D01*
X128035119Y-118777178D01*
X127997023Y-118853369D01*
X127920833Y-118929559D01*
X127806547Y-118967654D01*
X127616071Y-118967654D01*
X128339880Y-118167654D02*
X128835119Y-118167654D01*
X128568452Y-118472416D01*
X128682738Y-118472416D01*
X128758928Y-118510511D01*
X128797023Y-118548607D01*
X128835119Y-118624797D01*
X128835119Y-118815273D01*
X128797023Y-118891464D01*
X128758928Y-118929559D01*
X128682738Y-118967654D01*
X128454166Y-118967654D01*
X128377976Y-118929559D01*
X128339880Y-118891464D01*
X129597023Y-118967654D02*
X129139880Y-118967654D01*
X129368452Y-118967654D02*
X129368452Y-118167654D01*
X129292261Y-118281940D01*
X129216071Y-118358130D01*
X129139880Y-118396226D01*
%TO.C,D32*%
X146666071Y-118967654D02*
X146666071Y-118167654D01*
X146856547Y-118167654D01*
X146970833Y-118205750D01*
X147047023Y-118281940D01*
X147085119Y-118358130D01*
X147123214Y-118510511D01*
X147123214Y-118624797D01*
X147085119Y-118777178D01*
X147047023Y-118853369D01*
X146970833Y-118929559D01*
X146856547Y-118967654D01*
X146666071Y-118967654D01*
X147389880Y-118167654D02*
X147885119Y-118167654D01*
X147618452Y-118472416D01*
X147732738Y-118472416D01*
X147808928Y-118510511D01*
X147847023Y-118548607D01*
X147885119Y-118624797D01*
X147885119Y-118815273D01*
X147847023Y-118891464D01*
X147808928Y-118929559D01*
X147732738Y-118967654D01*
X147504166Y-118967654D01*
X147427976Y-118929559D01*
X147389880Y-118891464D01*
X148189880Y-118243845D02*
X148227976Y-118205750D01*
X148304166Y-118167654D01*
X148494642Y-118167654D01*
X148570833Y-118205750D01*
X148608928Y-118243845D01*
X148647023Y-118320035D01*
X148647023Y-118396226D01*
X148608928Y-118510511D01*
X148151785Y-118967654D01*
X148647023Y-118967654D01*
%TO.C,D33*%
X165716071Y-118967654D02*
X165716071Y-118167654D01*
X165906547Y-118167654D01*
X166020833Y-118205750D01*
X166097023Y-118281940D01*
X166135119Y-118358130D01*
X166173214Y-118510511D01*
X166173214Y-118624797D01*
X166135119Y-118777178D01*
X166097023Y-118853369D01*
X166020833Y-118929559D01*
X165906547Y-118967654D01*
X165716071Y-118967654D01*
X166439880Y-118167654D02*
X166935119Y-118167654D01*
X166668452Y-118472416D01*
X166782738Y-118472416D01*
X166858928Y-118510511D01*
X166897023Y-118548607D01*
X166935119Y-118624797D01*
X166935119Y-118815273D01*
X166897023Y-118891464D01*
X166858928Y-118929559D01*
X166782738Y-118967654D01*
X166554166Y-118967654D01*
X166477976Y-118929559D01*
X166439880Y-118891464D01*
X167201785Y-118167654D02*
X167697023Y-118167654D01*
X167430357Y-118472416D01*
X167544642Y-118472416D01*
X167620833Y-118510511D01*
X167658928Y-118548607D01*
X167697023Y-118624797D01*
X167697023Y-118815273D01*
X167658928Y-118891464D01*
X167620833Y-118929559D01*
X167544642Y-118967654D01*
X167316071Y-118967654D01*
X167239880Y-118929559D01*
X167201785Y-118891464D01*
%TO.C,D34*%
X184766071Y-118967654D02*
X184766071Y-118167654D01*
X184956547Y-118167654D01*
X185070833Y-118205750D01*
X185147023Y-118281940D01*
X185185119Y-118358130D01*
X185223214Y-118510511D01*
X185223214Y-118624797D01*
X185185119Y-118777178D01*
X185147023Y-118853369D01*
X185070833Y-118929559D01*
X184956547Y-118967654D01*
X184766071Y-118967654D01*
X185489880Y-118167654D02*
X185985119Y-118167654D01*
X185718452Y-118472416D01*
X185832738Y-118472416D01*
X185908928Y-118510511D01*
X185947023Y-118548607D01*
X185985119Y-118624797D01*
X185985119Y-118815273D01*
X185947023Y-118891464D01*
X185908928Y-118929559D01*
X185832738Y-118967654D01*
X185604166Y-118967654D01*
X185527976Y-118929559D01*
X185489880Y-118891464D01*
X186670833Y-118434321D02*
X186670833Y-118967654D01*
X186480357Y-118129559D02*
X186289880Y-118700988D01*
X186785119Y-118700988D01*
%TO.C,D35*%
X203816071Y-118967654D02*
X203816071Y-118167654D01*
X204006547Y-118167654D01*
X204120833Y-118205750D01*
X204197023Y-118281940D01*
X204235119Y-118358130D01*
X204273214Y-118510511D01*
X204273214Y-118624797D01*
X204235119Y-118777178D01*
X204197023Y-118853369D01*
X204120833Y-118929559D01*
X204006547Y-118967654D01*
X203816071Y-118967654D01*
X204539880Y-118167654D02*
X205035119Y-118167654D01*
X204768452Y-118472416D01*
X204882738Y-118472416D01*
X204958928Y-118510511D01*
X204997023Y-118548607D01*
X205035119Y-118624797D01*
X205035119Y-118815273D01*
X204997023Y-118891464D01*
X204958928Y-118929559D01*
X204882738Y-118967654D01*
X204654166Y-118967654D01*
X204577976Y-118929559D01*
X204539880Y-118891464D01*
X205758928Y-118167654D02*
X205377976Y-118167654D01*
X205339880Y-118548607D01*
X205377976Y-118510511D01*
X205454166Y-118472416D01*
X205644642Y-118472416D01*
X205720833Y-118510511D01*
X205758928Y-118548607D01*
X205797023Y-118624797D01*
X205797023Y-118815273D01*
X205758928Y-118891464D01*
X205720833Y-118929559D01*
X205644642Y-118967654D01*
X205454166Y-118967654D01*
X205377976Y-118929559D01*
X205339880Y-118891464D01*
%TO.C,D36*%
X222866071Y-118967654D02*
X222866071Y-118167654D01*
X223056547Y-118167654D01*
X223170833Y-118205750D01*
X223247023Y-118281940D01*
X223285119Y-118358130D01*
X223323214Y-118510511D01*
X223323214Y-118624797D01*
X223285119Y-118777178D01*
X223247023Y-118853369D01*
X223170833Y-118929559D01*
X223056547Y-118967654D01*
X222866071Y-118967654D01*
X223589880Y-118167654D02*
X224085119Y-118167654D01*
X223818452Y-118472416D01*
X223932738Y-118472416D01*
X224008928Y-118510511D01*
X224047023Y-118548607D01*
X224085119Y-118624797D01*
X224085119Y-118815273D01*
X224047023Y-118891464D01*
X224008928Y-118929559D01*
X223932738Y-118967654D01*
X223704166Y-118967654D01*
X223627976Y-118929559D01*
X223589880Y-118891464D01*
X224770833Y-118167654D02*
X224618452Y-118167654D01*
X224542261Y-118205750D01*
X224504166Y-118243845D01*
X224427976Y-118358130D01*
X224389880Y-118510511D01*
X224389880Y-118815273D01*
X224427976Y-118891464D01*
X224466071Y-118929559D01*
X224542261Y-118967654D01*
X224694642Y-118967654D01*
X224770833Y-118929559D01*
X224808928Y-118891464D01*
X224847023Y-118815273D01*
X224847023Y-118624797D01*
X224808928Y-118548607D01*
X224770833Y-118510511D01*
X224694642Y-118472416D01*
X224542261Y-118472416D01*
X224466071Y-118510511D01*
X224427976Y-118548607D01*
X224389880Y-118624797D01*
%TO.C,D37*%
X241916071Y-118967654D02*
X241916071Y-118167654D01*
X242106547Y-118167654D01*
X242220833Y-118205750D01*
X242297023Y-118281940D01*
X242335119Y-118358130D01*
X242373214Y-118510511D01*
X242373214Y-118624797D01*
X242335119Y-118777178D01*
X242297023Y-118853369D01*
X242220833Y-118929559D01*
X242106547Y-118967654D01*
X241916071Y-118967654D01*
X242639880Y-118167654D02*
X243135119Y-118167654D01*
X242868452Y-118472416D01*
X242982738Y-118472416D01*
X243058928Y-118510511D01*
X243097023Y-118548607D01*
X243135119Y-118624797D01*
X243135119Y-118815273D01*
X243097023Y-118891464D01*
X243058928Y-118929559D01*
X242982738Y-118967654D01*
X242754166Y-118967654D01*
X242677976Y-118929559D01*
X242639880Y-118891464D01*
X243401785Y-118167654D02*
X243935119Y-118167654D01*
X243592261Y-118967654D01*
%TO.C,D38*%
X260966071Y-118967654D02*
X260966071Y-118167654D01*
X261156547Y-118167654D01*
X261270833Y-118205750D01*
X261347023Y-118281940D01*
X261385119Y-118358130D01*
X261423214Y-118510511D01*
X261423214Y-118624797D01*
X261385119Y-118777178D01*
X261347023Y-118853369D01*
X261270833Y-118929559D01*
X261156547Y-118967654D01*
X260966071Y-118967654D01*
X261689880Y-118167654D02*
X262185119Y-118167654D01*
X261918452Y-118472416D01*
X262032738Y-118472416D01*
X262108928Y-118510511D01*
X262147023Y-118548607D01*
X262185119Y-118624797D01*
X262185119Y-118815273D01*
X262147023Y-118891464D01*
X262108928Y-118929559D01*
X262032738Y-118967654D01*
X261804166Y-118967654D01*
X261727976Y-118929559D01*
X261689880Y-118891464D01*
X262642261Y-118510511D02*
X262566071Y-118472416D01*
X262527976Y-118434321D01*
X262489880Y-118358130D01*
X262489880Y-118320035D01*
X262527976Y-118243845D01*
X262566071Y-118205750D01*
X262642261Y-118167654D01*
X262794642Y-118167654D01*
X262870833Y-118205750D01*
X262908928Y-118243845D01*
X262947023Y-118320035D01*
X262947023Y-118358130D01*
X262908928Y-118434321D01*
X262870833Y-118472416D01*
X262794642Y-118510511D01*
X262642261Y-118510511D01*
X262566071Y-118548607D01*
X262527976Y-118586702D01*
X262489880Y-118662892D01*
X262489880Y-118815273D01*
X262527976Y-118891464D01*
X262566071Y-118929559D01*
X262642261Y-118967654D01*
X262794642Y-118967654D01*
X262870833Y-118929559D01*
X262908928Y-118891464D01*
X262947023Y-118815273D01*
X262947023Y-118662892D01*
X262908928Y-118586702D01*
X262870833Y-118548607D01*
X262794642Y-118510511D01*
%TO.C,D39*%
X280132071Y-118967654D02*
X280132071Y-118167654D01*
X280322547Y-118167654D01*
X280436833Y-118205750D01*
X280513023Y-118281940D01*
X280551119Y-118358130D01*
X280589214Y-118510511D01*
X280589214Y-118624797D01*
X280551119Y-118777178D01*
X280513023Y-118853369D01*
X280436833Y-118929559D01*
X280322547Y-118967654D01*
X280132071Y-118967654D01*
X280855880Y-118167654D02*
X281351119Y-118167654D01*
X281084452Y-118472416D01*
X281198738Y-118472416D01*
X281274928Y-118510511D01*
X281313023Y-118548607D01*
X281351119Y-118624797D01*
X281351119Y-118815273D01*
X281313023Y-118891464D01*
X281274928Y-118929559D01*
X281198738Y-118967654D01*
X280970166Y-118967654D01*
X280893976Y-118929559D01*
X280855880Y-118891464D01*
X281732071Y-118967654D02*
X281884452Y-118967654D01*
X281960642Y-118929559D01*
X281998738Y-118891464D01*
X282074928Y-118777178D01*
X282113023Y-118624797D01*
X282113023Y-118320035D01*
X282074928Y-118243845D01*
X282036833Y-118205750D01*
X281960642Y-118167654D01*
X281808261Y-118167654D01*
X281732071Y-118205750D01*
X281693976Y-118243845D01*
X281655880Y-118320035D01*
X281655880Y-118510511D01*
X281693976Y-118586702D01*
X281732071Y-118624797D01*
X281808261Y-118662892D01*
X281960642Y-118662892D01*
X282036833Y-118624797D01*
X282074928Y-118586702D01*
X282113023Y-118510511D01*
%TO.C,D40*%
X299066071Y-118967654D02*
X299066071Y-118167654D01*
X299256547Y-118167654D01*
X299370833Y-118205750D01*
X299447023Y-118281940D01*
X299485119Y-118358130D01*
X299523214Y-118510511D01*
X299523214Y-118624797D01*
X299485119Y-118777178D01*
X299447023Y-118853369D01*
X299370833Y-118929559D01*
X299256547Y-118967654D01*
X299066071Y-118967654D01*
X300208928Y-118434321D02*
X300208928Y-118967654D01*
X300018452Y-118129559D02*
X299827976Y-118700988D01*
X300323214Y-118700988D01*
X300780357Y-118167654D02*
X300856547Y-118167654D01*
X300932738Y-118205750D01*
X300970833Y-118243845D01*
X301008928Y-118320035D01*
X301047023Y-118472416D01*
X301047023Y-118662892D01*
X301008928Y-118815273D01*
X300970833Y-118891464D01*
X300932738Y-118929559D01*
X300856547Y-118967654D01*
X300780357Y-118967654D01*
X300704166Y-118929559D01*
X300666071Y-118891464D01*
X300627976Y-118815273D01*
X300589880Y-118662892D01*
X300589880Y-118472416D01*
X300627976Y-118320035D01*
X300666071Y-118243845D01*
X300704166Y-118205750D01*
X300780357Y-118167654D01*
%TO.C,D41*%
X330022071Y-118967654D02*
X330022071Y-118167654D01*
X330212547Y-118167654D01*
X330326833Y-118205750D01*
X330403023Y-118281940D01*
X330441119Y-118358130D01*
X330479214Y-118510511D01*
X330479214Y-118624797D01*
X330441119Y-118777178D01*
X330403023Y-118853369D01*
X330326833Y-118929559D01*
X330212547Y-118967654D01*
X330022071Y-118967654D01*
X331164928Y-118434321D02*
X331164928Y-118967654D01*
X330974452Y-118129559D02*
X330783976Y-118700988D01*
X331279214Y-118700988D01*
X332003023Y-118967654D02*
X331545880Y-118967654D01*
X331774452Y-118967654D02*
X331774452Y-118167654D01*
X331698261Y-118281940D01*
X331622071Y-118358130D01*
X331545880Y-118396226D01*
%TO.C,D42*%
X87134871Y-138017654D02*
X87134871Y-137217654D01*
X87325347Y-137217654D01*
X87439633Y-137255750D01*
X87515823Y-137331940D01*
X87553919Y-137408130D01*
X87592014Y-137560511D01*
X87592014Y-137674797D01*
X87553919Y-137827178D01*
X87515823Y-137903369D01*
X87439633Y-137979559D01*
X87325347Y-138017654D01*
X87134871Y-138017654D01*
X88277728Y-137484321D02*
X88277728Y-138017654D01*
X88087252Y-137179559D02*
X87896776Y-137750988D01*
X88392014Y-137750988D01*
X88658680Y-137293845D02*
X88696776Y-137255750D01*
X88772966Y-137217654D01*
X88963442Y-137217654D01*
X89039633Y-137255750D01*
X89077728Y-137293845D01*
X89115823Y-137370035D01*
X89115823Y-137446226D01*
X89077728Y-137560511D01*
X88620585Y-138017654D01*
X89115823Y-138017654D01*
%TO.C,D43*%
X118091071Y-138017654D02*
X118091071Y-137217654D01*
X118281547Y-137217654D01*
X118395833Y-137255750D01*
X118472023Y-137331940D01*
X118510119Y-137408130D01*
X118548214Y-137560511D01*
X118548214Y-137674797D01*
X118510119Y-137827178D01*
X118472023Y-137903369D01*
X118395833Y-137979559D01*
X118281547Y-138017654D01*
X118091071Y-138017654D01*
X119233928Y-137484321D02*
X119233928Y-138017654D01*
X119043452Y-137179559D02*
X118852976Y-137750988D01*
X119348214Y-137750988D01*
X119576785Y-137217654D02*
X120072023Y-137217654D01*
X119805357Y-137522416D01*
X119919642Y-137522416D01*
X119995833Y-137560511D01*
X120033928Y-137598607D01*
X120072023Y-137674797D01*
X120072023Y-137865273D01*
X120033928Y-137941464D01*
X119995833Y-137979559D01*
X119919642Y-138017654D01*
X119691071Y-138017654D01*
X119614880Y-137979559D01*
X119576785Y-137941464D01*
%TO.C,D44*%
X137141071Y-138017654D02*
X137141071Y-137217654D01*
X137331547Y-137217654D01*
X137445833Y-137255750D01*
X137522023Y-137331940D01*
X137560119Y-137408130D01*
X137598214Y-137560511D01*
X137598214Y-137674797D01*
X137560119Y-137827178D01*
X137522023Y-137903369D01*
X137445833Y-137979559D01*
X137331547Y-138017654D01*
X137141071Y-138017654D01*
X138283928Y-137484321D02*
X138283928Y-138017654D01*
X138093452Y-137179559D02*
X137902976Y-137750988D01*
X138398214Y-137750988D01*
X139045833Y-137484321D02*
X139045833Y-138017654D01*
X138855357Y-137179559D02*
X138664880Y-137750988D01*
X139160119Y-137750988D01*
%TO.C,D45*%
X156191071Y-138017654D02*
X156191071Y-137217654D01*
X156381547Y-137217654D01*
X156495833Y-137255750D01*
X156572023Y-137331940D01*
X156610119Y-137408130D01*
X156648214Y-137560511D01*
X156648214Y-137674797D01*
X156610119Y-137827178D01*
X156572023Y-137903369D01*
X156495833Y-137979559D01*
X156381547Y-138017654D01*
X156191071Y-138017654D01*
X157333928Y-137484321D02*
X157333928Y-138017654D01*
X157143452Y-137179559D02*
X156952976Y-137750988D01*
X157448214Y-137750988D01*
X158133928Y-137217654D02*
X157752976Y-137217654D01*
X157714880Y-137598607D01*
X157752976Y-137560511D01*
X157829166Y-137522416D01*
X158019642Y-137522416D01*
X158095833Y-137560511D01*
X158133928Y-137598607D01*
X158172023Y-137674797D01*
X158172023Y-137865273D01*
X158133928Y-137941464D01*
X158095833Y-137979559D01*
X158019642Y-138017654D01*
X157829166Y-138017654D01*
X157752976Y-137979559D01*
X157714880Y-137941464D01*
%TO.C,D46*%
X175241071Y-138017654D02*
X175241071Y-137217654D01*
X175431547Y-137217654D01*
X175545833Y-137255750D01*
X175622023Y-137331940D01*
X175660119Y-137408130D01*
X175698214Y-137560511D01*
X175698214Y-137674797D01*
X175660119Y-137827178D01*
X175622023Y-137903369D01*
X175545833Y-137979559D01*
X175431547Y-138017654D01*
X175241071Y-138017654D01*
X176383928Y-137484321D02*
X176383928Y-138017654D01*
X176193452Y-137179559D02*
X176002976Y-137750988D01*
X176498214Y-137750988D01*
X177145833Y-137217654D02*
X176993452Y-137217654D01*
X176917261Y-137255750D01*
X176879166Y-137293845D01*
X176802976Y-137408130D01*
X176764880Y-137560511D01*
X176764880Y-137865273D01*
X176802976Y-137941464D01*
X176841071Y-137979559D01*
X176917261Y-138017654D01*
X177069642Y-138017654D01*
X177145833Y-137979559D01*
X177183928Y-137941464D01*
X177222023Y-137865273D01*
X177222023Y-137674797D01*
X177183928Y-137598607D01*
X177145833Y-137560511D01*
X177069642Y-137522416D01*
X176917261Y-137522416D01*
X176841071Y-137560511D01*
X176802976Y-137598607D01*
X176764880Y-137674797D01*
%TO.C,D47*%
X194291071Y-138017654D02*
X194291071Y-137217654D01*
X194481547Y-137217654D01*
X194595833Y-137255750D01*
X194672023Y-137331940D01*
X194710119Y-137408130D01*
X194748214Y-137560511D01*
X194748214Y-137674797D01*
X194710119Y-137827178D01*
X194672023Y-137903369D01*
X194595833Y-137979559D01*
X194481547Y-138017654D01*
X194291071Y-138017654D01*
X195433928Y-137484321D02*
X195433928Y-138017654D01*
X195243452Y-137179559D02*
X195052976Y-137750988D01*
X195548214Y-137750988D01*
X195776785Y-137217654D02*
X196310119Y-137217654D01*
X195967261Y-138017654D01*
%TO.C,D48*%
X213341071Y-138017654D02*
X213341071Y-137217654D01*
X213531547Y-137217654D01*
X213645833Y-137255750D01*
X213722023Y-137331940D01*
X213760119Y-137408130D01*
X213798214Y-137560511D01*
X213798214Y-137674797D01*
X213760119Y-137827178D01*
X213722023Y-137903369D01*
X213645833Y-137979559D01*
X213531547Y-138017654D01*
X213341071Y-138017654D01*
X214483928Y-137484321D02*
X214483928Y-138017654D01*
X214293452Y-137179559D02*
X214102976Y-137750988D01*
X214598214Y-137750988D01*
X215017261Y-137560511D02*
X214941071Y-137522416D01*
X214902976Y-137484321D01*
X214864880Y-137408130D01*
X214864880Y-137370035D01*
X214902976Y-137293845D01*
X214941071Y-137255750D01*
X215017261Y-137217654D01*
X215169642Y-137217654D01*
X215245833Y-137255750D01*
X215283928Y-137293845D01*
X215322023Y-137370035D01*
X215322023Y-137408130D01*
X215283928Y-137484321D01*
X215245833Y-137522416D01*
X215169642Y-137560511D01*
X215017261Y-137560511D01*
X214941071Y-137598607D01*
X214902976Y-137636702D01*
X214864880Y-137712892D01*
X214864880Y-137865273D01*
X214902976Y-137941464D01*
X214941071Y-137979559D01*
X215017261Y-138017654D01*
X215169642Y-138017654D01*
X215245833Y-137979559D01*
X215283928Y-137941464D01*
X215322023Y-137865273D01*
X215322023Y-137712892D01*
X215283928Y-137636702D01*
X215245833Y-137598607D01*
X215169642Y-137560511D01*
%TO.C,D49*%
X232391071Y-138017654D02*
X232391071Y-137217654D01*
X232581547Y-137217654D01*
X232695833Y-137255750D01*
X232772023Y-137331940D01*
X232810119Y-137408130D01*
X232848214Y-137560511D01*
X232848214Y-137674797D01*
X232810119Y-137827178D01*
X232772023Y-137903369D01*
X232695833Y-137979559D01*
X232581547Y-138017654D01*
X232391071Y-138017654D01*
X233533928Y-137484321D02*
X233533928Y-138017654D01*
X233343452Y-137179559D02*
X233152976Y-137750988D01*
X233648214Y-137750988D01*
X233991071Y-138017654D02*
X234143452Y-138017654D01*
X234219642Y-137979559D01*
X234257738Y-137941464D01*
X234333928Y-137827178D01*
X234372023Y-137674797D01*
X234372023Y-137370035D01*
X234333928Y-137293845D01*
X234295833Y-137255750D01*
X234219642Y-137217654D01*
X234067261Y-137217654D01*
X233991071Y-137255750D01*
X233952976Y-137293845D01*
X233914880Y-137370035D01*
X233914880Y-137560511D01*
X233952976Y-137636702D01*
X233991071Y-137674797D01*
X234067261Y-137712892D01*
X234219642Y-137712892D01*
X234295833Y-137674797D01*
X234333928Y-137636702D01*
X234372023Y-137560511D01*
%TO.C,D50*%
X251441071Y-138017654D02*
X251441071Y-137217654D01*
X251631547Y-137217654D01*
X251745833Y-137255750D01*
X251822023Y-137331940D01*
X251860119Y-137408130D01*
X251898214Y-137560511D01*
X251898214Y-137674797D01*
X251860119Y-137827178D01*
X251822023Y-137903369D01*
X251745833Y-137979559D01*
X251631547Y-138017654D01*
X251441071Y-138017654D01*
X252622023Y-137217654D02*
X252241071Y-137217654D01*
X252202976Y-137598607D01*
X252241071Y-137560511D01*
X252317261Y-137522416D01*
X252507738Y-137522416D01*
X252583928Y-137560511D01*
X252622023Y-137598607D01*
X252660119Y-137674797D01*
X252660119Y-137865273D01*
X252622023Y-137941464D01*
X252583928Y-137979559D01*
X252507738Y-138017654D01*
X252317261Y-138017654D01*
X252241071Y-137979559D01*
X252202976Y-137941464D01*
X253155357Y-137217654D02*
X253231547Y-137217654D01*
X253307738Y-137255750D01*
X253345833Y-137293845D01*
X253383928Y-137370035D01*
X253422023Y-137522416D01*
X253422023Y-137712892D01*
X253383928Y-137865273D01*
X253345833Y-137941464D01*
X253307738Y-137979559D01*
X253231547Y-138017654D01*
X253155357Y-138017654D01*
X253079166Y-137979559D01*
X253041071Y-137941464D01*
X253002976Y-137865273D01*
X252964880Y-137712892D01*
X252964880Y-137522416D01*
X253002976Y-137370035D01*
X253041071Y-137293845D01*
X253079166Y-137255750D01*
X253155357Y-137217654D01*
%TO.C,D51*%
X270491071Y-138017654D02*
X270491071Y-137217654D01*
X270681547Y-137217654D01*
X270795833Y-137255750D01*
X270872023Y-137331940D01*
X270910119Y-137408130D01*
X270948214Y-137560511D01*
X270948214Y-137674797D01*
X270910119Y-137827178D01*
X270872023Y-137903369D01*
X270795833Y-137979559D01*
X270681547Y-138017654D01*
X270491071Y-138017654D01*
X271672023Y-137217654D02*
X271291071Y-137217654D01*
X271252976Y-137598607D01*
X271291071Y-137560511D01*
X271367261Y-137522416D01*
X271557738Y-137522416D01*
X271633928Y-137560511D01*
X271672023Y-137598607D01*
X271710119Y-137674797D01*
X271710119Y-137865273D01*
X271672023Y-137941464D01*
X271633928Y-137979559D01*
X271557738Y-138017654D01*
X271367261Y-138017654D01*
X271291071Y-137979559D01*
X271252976Y-137941464D01*
X272472023Y-138017654D02*
X272014880Y-138017654D01*
X272243452Y-138017654D02*
X272243452Y-137217654D01*
X272167261Y-137331940D01*
X272091071Y-137408130D01*
X272014880Y-137446226D01*
%TO.C,D52*%
X289541071Y-138017654D02*
X289541071Y-137217654D01*
X289731547Y-137217654D01*
X289845833Y-137255750D01*
X289922023Y-137331940D01*
X289960119Y-137408130D01*
X289998214Y-137560511D01*
X289998214Y-137674797D01*
X289960119Y-137827178D01*
X289922023Y-137903369D01*
X289845833Y-137979559D01*
X289731547Y-138017654D01*
X289541071Y-138017654D01*
X290722023Y-137217654D02*
X290341071Y-137217654D01*
X290302976Y-137598607D01*
X290341071Y-137560511D01*
X290417261Y-137522416D01*
X290607738Y-137522416D01*
X290683928Y-137560511D01*
X290722023Y-137598607D01*
X290760119Y-137674797D01*
X290760119Y-137865273D01*
X290722023Y-137941464D01*
X290683928Y-137979559D01*
X290607738Y-138017654D01*
X290417261Y-138017654D01*
X290341071Y-137979559D01*
X290302976Y-137941464D01*
X291064880Y-137293845D02*
X291102976Y-137255750D01*
X291179166Y-137217654D01*
X291369642Y-137217654D01*
X291445833Y-137255750D01*
X291483928Y-137293845D01*
X291522023Y-137370035D01*
X291522023Y-137446226D01*
X291483928Y-137560511D01*
X291026785Y-138017654D01*
X291522023Y-138017654D01*
%TO.C,D53*%
X325260071Y-138017654D02*
X325260071Y-137217654D01*
X325450547Y-137217654D01*
X325564833Y-137255750D01*
X325641023Y-137331940D01*
X325679119Y-137408130D01*
X325717214Y-137560511D01*
X325717214Y-137674797D01*
X325679119Y-137827178D01*
X325641023Y-137903369D01*
X325564833Y-137979559D01*
X325450547Y-138017654D01*
X325260071Y-138017654D01*
X326441023Y-137217654D02*
X326060071Y-137217654D01*
X326021976Y-137598607D01*
X326060071Y-137560511D01*
X326136261Y-137522416D01*
X326326738Y-137522416D01*
X326402928Y-137560511D01*
X326441023Y-137598607D01*
X326479119Y-137674797D01*
X326479119Y-137865273D01*
X326441023Y-137941464D01*
X326402928Y-137979559D01*
X326326738Y-138017654D01*
X326136261Y-138017654D01*
X326060071Y-137979559D01*
X326021976Y-137941464D01*
X326745785Y-137217654D02*
X327241023Y-137217654D01*
X326974357Y-137522416D01*
X327088642Y-137522416D01*
X327164833Y-137560511D01*
X327202928Y-137598607D01*
X327241023Y-137674797D01*
X327241023Y-137865273D01*
X327202928Y-137941464D01*
X327164833Y-137979559D01*
X327088642Y-138017654D01*
X326860071Y-138017654D01*
X326783880Y-137979559D01*
X326745785Y-137941464D01*
%TO.C,D54*%
X77609871Y-157067654D02*
X77609871Y-156267654D01*
X77800347Y-156267654D01*
X77914633Y-156305750D01*
X77990823Y-156381940D01*
X78028919Y-156458130D01*
X78067014Y-156610511D01*
X78067014Y-156724797D01*
X78028919Y-156877178D01*
X77990823Y-156953369D01*
X77914633Y-157029559D01*
X77800347Y-157067654D01*
X77609871Y-157067654D01*
X78790823Y-156267654D02*
X78409871Y-156267654D01*
X78371776Y-156648607D01*
X78409871Y-156610511D01*
X78486061Y-156572416D01*
X78676538Y-156572416D01*
X78752728Y-156610511D01*
X78790823Y-156648607D01*
X78828919Y-156724797D01*
X78828919Y-156915273D01*
X78790823Y-156991464D01*
X78752728Y-157029559D01*
X78676538Y-157067654D01*
X78486061Y-157067654D01*
X78409871Y-157029559D01*
X78371776Y-156991464D01*
X79514633Y-156534321D02*
X79514633Y-157067654D01*
X79324157Y-156229559D02*
X79133680Y-156800988D01*
X79628919Y-156800988D01*
%TO.C,D55*%
X101422271Y-157067654D02*
X101422271Y-156267654D01*
X101612747Y-156267654D01*
X101727033Y-156305750D01*
X101803223Y-156381940D01*
X101841319Y-156458130D01*
X101879414Y-156610511D01*
X101879414Y-156724797D01*
X101841319Y-156877178D01*
X101803223Y-156953369D01*
X101727033Y-157029559D01*
X101612747Y-157067654D01*
X101422271Y-157067654D01*
X102603223Y-156267654D02*
X102222271Y-156267654D01*
X102184176Y-156648607D01*
X102222271Y-156610511D01*
X102298461Y-156572416D01*
X102488938Y-156572416D01*
X102565128Y-156610511D01*
X102603223Y-156648607D01*
X102641319Y-156724797D01*
X102641319Y-156915273D01*
X102603223Y-156991464D01*
X102565128Y-157029559D01*
X102488938Y-157067654D01*
X102298461Y-157067654D01*
X102222271Y-157029559D01*
X102184176Y-156991464D01*
X103365128Y-156267654D02*
X102984176Y-156267654D01*
X102946080Y-156648607D01*
X102984176Y-156610511D01*
X103060366Y-156572416D01*
X103250842Y-156572416D01*
X103327033Y-156610511D01*
X103365128Y-156648607D01*
X103403223Y-156724797D01*
X103403223Y-156915273D01*
X103365128Y-156991464D01*
X103327033Y-157029559D01*
X103250842Y-157067654D01*
X103060366Y-157067654D01*
X102984176Y-157029559D01*
X102946080Y-156991464D01*
%TO.C,D56*%
X125234871Y-157067654D02*
X125234871Y-156267654D01*
X125425347Y-156267654D01*
X125539633Y-156305750D01*
X125615823Y-156381940D01*
X125653919Y-156458130D01*
X125692014Y-156610511D01*
X125692014Y-156724797D01*
X125653919Y-156877178D01*
X125615823Y-156953369D01*
X125539633Y-157029559D01*
X125425347Y-157067654D01*
X125234871Y-157067654D01*
X126415823Y-156267654D02*
X126034871Y-156267654D01*
X125996776Y-156648607D01*
X126034871Y-156610511D01*
X126111061Y-156572416D01*
X126301538Y-156572416D01*
X126377728Y-156610511D01*
X126415823Y-156648607D01*
X126453919Y-156724797D01*
X126453919Y-156915273D01*
X126415823Y-156991464D01*
X126377728Y-157029559D01*
X126301538Y-157067654D01*
X126111061Y-157067654D01*
X126034871Y-157029559D01*
X125996776Y-156991464D01*
X127139633Y-156267654D02*
X126987252Y-156267654D01*
X126911061Y-156305750D01*
X126872966Y-156343845D01*
X126796776Y-156458130D01*
X126758680Y-156610511D01*
X126758680Y-156915273D01*
X126796776Y-156991464D01*
X126834871Y-157029559D01*
X126911061Y-157067654D01*
X127063442Y-157067654D01*
X127139633Y-157029559D01*
X127177728Y-156991464D01*
X127215823Y-156915273D01*
X127215823Y-156724797D01*
X127177728Y-156648607D01*
X127139633Y-156610511D01*
X127063442Y-156572416D01*
X126911061Y-156572416D01*
X126834871Y-156610511D01*
X126796776Y-156648607D01*
X126758680Y-156724797D01*
%TO.C,D57*%
X196672071Y-157067654D02*
X196672071Y-156267654D01*
X196862547Y-156267654D01*
X196976833Y-156305750D01*
X197053023Y-156381940D01*
X197091119Y-156458130D01*
X197129214Y-156610511D01*
X197129214Y-156724797D01*
X197091119Y-156877178D01*
X197053023Y-156953369D01*
X196976833Y-157029559D01*
X196862547Y-157067654D01*
X196672071Y-157067654D01*
X197853023Y-156267654D02*
X197472071Y-156267654D01*
X197433976Y-156648607D01*
X197472071Y-156610511D01*
X197548261Y-156572416D01*
X197738738Y-156572416D01*
X197814928Y-156610511D01*
X197853023Y-156648607D01*
X197891119Y-156724797D01*
X197891119Y-156915273D01*
X197853023Y-156991464D01*
X197814928Y-157029559D01*
X197738738Y-157067654D01*
X197548261Y-157067654D01*
X197472071Y-157029559D01*
X197433976Y-156991464D01*
X198157785Y-156267654D02*
X198691119Y-156267654D01*
X198348261Y-157067654D01*
%TO.C,D58*%
X268110071Y-157067654D02*
X268110071Y-156267654D01*
X268300547Y-156267654D01*
X268414833Y-156305750D01*
X268491023Y-156381940D01*
X268529119Y-156458130D01*
X268567214Y-156610511D01*
X268567214Y-156724797D01*
X268529119Y-156877178D01*
X268491023Y-156953369D01*
X268414833Y-157029559D01*
X268300547Y-157067654D01*
X268110071Y-157067654D01*
X269291023Y-156267654D02*
X268910071Y-156267654D01*
X268871976Y-156648607D01*
X268910071Y-156610511D01*
X268986261Y-156572416D01*
X269176738Y-156572416D01*
X269252928Y-156610511D01*
X269291023Y-156648607D01*
X269329119Y-156724797D01*
X269329119Y-156915273D01*
X269291023Y-156991464D01*
X269252928Y-157029559D01*
X269176738Y-157067654D01*
X268986261Y-157067654D01*
X268910071Y-157029559D01*
X268871976Y-156991464D01*
X269786261Y-156610511D02*
X269710071Y-156572416D01*
X269671976Y-156534321D01*
X269633880Y-156458130D01*
X269633880Y-156420035D01*
X269671976Y-156343845D01*
X269710071Y-156305750D01*
X269786261Y-156267654D01*
X269938642Y-156267654D01*
X270014833Y-156305750D01*
X270052928Y-156343845D01*
X270091023Y-156420035D01*
X270091023Y-156458130D01*
X270052928Y-156534321D01*
X270014833Y-156572416D01*
X269938642Y-156610511D01*
X269786261Y-156610511D01*
X269710071Y-156648607D01*
X269671976Y-156686702D01*
X269633880Y-156762892D01*
X269633880Y-156915273D01*
X269671976Y-156991464D01*
X269710071Y-157029559D01*
X269786261Y-157067654D01*
X269938642Y-157067654D01*
X270014833Y-157029559D01*
X270052928Y-156991464D01*
X270091023Y-156915273D01*
X270091023Y-156762892D01*
X270052928Y-156686702D01*
X270014833Y-156648607D01*
X269938642Y-156610511D01*
%TO.C,D59*%
X291922071Y-157067654D02*
X291922071Y-156267654D01*
X292112547Y-156267654D01*
X292226833Y-156305750D01*
X292303023Y-156381940D01*
X292341119Y-156458130D01*
X292379214Y-156610511D01*
X292379214Y-156724797D01*
X292341119Y-156877178D01*
X292303023Y-156953369D01*
X292226833Y-157029559D01*
X292112547Y-157067654D01*
X291922071Y-157067654D01*
X293103023Y-156267654D02*
X292722071Y-156267654D01*
X292683976Y-156648607D01*
X292722071Y-156610511D01*
X292798261Y-156572416D01*
X292988738Y-156572416D01*
X293064928Y-156610511D01*
X293103023Y-156648607D01*
X293141119Y-156724797D01*
X293141119Y-156915273D01*
X293103023Y-156991464D01*
X293064928Y-157029559D01*
X292988738Y-157067654D01*
X292798261Y-157067654D01*
X292722071Y-157029559D01*
X292683976Y-156991464D01*
X293522071Y-157067654D02*
X293674452Y-157067654D01*
X293750642Y-157029559D01*
X293788738Y-156991464D01*
X293864928Y-156877178D01*
X293903023Y-156724797D01*
X293903023Y-156420035D01*
X293864928Y-156343845D01*
X293826833Y-156305750D01*
X293750642Y-156267654D01*
X293598261Y-156267654D01*
X293522071Y-156305750D01*
X293483976Y-156343845D01*
X293445880Y-156420035D01*
X293445880Y-156610511D01*
X293483976Y-156686702D01*
X293522071Y-156724797D01*
X293598261Y-156762892D01*
X293750642Y-156762892D01*
X293826833Y-156724797D01*
X293864928Y-156686702D01*
X293903023Y-156610511D01*
%TO.C,D60*%
X315735071Y-157067654D02*
X315735071Y-156267654D01*
X315925547Y-156267654D01*
X316039833Y-156305750D01*
X316116023Y-156381940D01*
X316154119Y-156458130D01*
X316192214Y-156610511D01*
X316192214Y-156724797D01*
X316154119Y-156877178D01*
X316116023Y-156953369D01*
X316039833Y-157029559D01*
X315925547Y-157067654D01*
X315735071Y-157067654D01*
X316877928Y-156267654D02*
X316725547Y-156267654D01*
X316649357Y-156305750D01*
X316611261Y-156343845D01*
X316535071Y-156458130D01*
X316496976Y-156610511D01*
X316496976Y-156915273D01*
X316535071Y-156991464D01*
X316573166Y-157029559D01*
X316649357Y-157067654D01*
X316801738Y-157067654D01*
X316877928Y-157029559D01*
X316916023Y-156991464D01*
X316954119Y-156915273D01*
X316954119Y-156724797D01*
X316916023Y-156648607D01*
X316877928Y-156610511D01*
X316801738Y-156572416D01*
X316649357Y-156572416D01*
X316573166Y-156610511D01*
X316535071Y-156648607D01*
X316496976Y-156724797D01*
X317449357Y-156267654D02*
X317525547Y-156267654D01*
X317601738Y-156305750D01*
X317639833Y-156343845D01*
X317677928Y-156420035D01*
X317716023Y-156572416D01*
X317716023Y-156762892D01*
X317677928Y-156915273D01*
X317639833Y-156991464D01*
X317601738Y-157029559D01*
X317525547Y-157067654D01*
X317449357Y-157067654D01*
X317373166Y-157029559D01*
X317335071Y-156991464D01*
X317296976Y-156915273D01*
X317258880Y-156762892D01*
X317258880Y-156572416D01*
X317296976Y-156420035D01*
X317335071Y-156343845D01*
X317373166Y-156305750D01*
X317449357Y-156267654D01*
%TO.C,D61*%
X339547071Y-157067654D02*
X339547071Y-156267654D01*
X339737547Y-156267654D01*
X339851833Y-156305750D01*
X339928023Y-156381940D01*
X339966119Y-156458130D01*
X340004214Y-156610511D01*
X340004214Y-156724797D01*
X339966119Y-156877178D01*
X339928023Y-156953369D01*
X339851833Y-157029559D01*
X339737547Y-157067654D01*
X339547071Y-157067654D01*
X340689928Y-156267654D02*
X340537547Y-156267654D01*
X340461357Y-156305750D01*
X340423261Y-156343845D01*
X340347071Y-156458130D01*
X340308976Y-156610511D01*
X340308976Y-156915273D01*
X340347071Y-156991464D01*
X340385166Y-157029559D01*
X340461357Y-157067654D01*
X340613738Y-157067654D01*
X340689928Y-157029559D01*
X340728023Y-156991464D01*
X340766119Y-156915273D01*
X340766119Y-156724797D01*
X340728023Y-156648607D01*
X340689928Y-156610511D01*
X340613738Y-156572416D01*
X340461357Y-156572416D01*
X340385166Y-156610511D01*
X340347071Y-156648607D01*
X340308976Y-156724797D01*
X341528023Y-157067654D02*
X341070880Y-157067654D01*
X341299452Y-157067654D02*
X341299452Y-156267654D01*
X341223261Y-156381940D01*
X341147071Y-156458130D01*
X341070880Y-156496226D01*
%TO.C,SW1*%
X69523461Y-79496083D02*
X69571080Y-79353226D01*
X69571080Y-79115130D01*
X69523461Y-79019892D01*
X69475842Y-78972273D01*
X69380604Y-78924654D01*
X69285366Y-78924654D01*
X69190128Y-78972273D01*
X69142509Y-79019892D01*
X69094890Y-79115130D01*
X69047271Y-79305607D01*
X68999652Y-79400845D01*
X68952033Y-79448464D01*
X68856795Y-79496083D01*
X68761557Y-79496083D01*
X68666319Y-79448464D01*
X68618700Y-79400845D01*
X68571080Y-79305607D01*
X68571080Y-79067511D01*
X68618700Y-78924654D01*
X68571080Y-78591321D02*
X69571080Y-78353226D01*
X68856795Y-78162750D01*
X69571080Y-77972273D01*
X68571080Y-77734178D01*
X69571080Y-76829416D02*
X69571080Y-77400845D01*
X69571080Y-77115130D02*
X68571080Y-77115130D01*
X68713938Y-77210369D01*
X68809176Y-77305607D01*
X68856795Y-77400845D01*
%TO.C,U1*%
X97097857Y-106781559D02*
X97135952Y-106667273D01*
X97174047Y-106629178D01*
X97250238Y-106591083D01*
X97364523Y-106591083D01*
X97440714Y-106629178D01*
X97478809Y-106667273D01*
X97516904Y-106743464D01*
X97516904Y-107048226D01*
X96716904Y-107048226D01*
X96716904Y-106781559D01*
X96755000Y-106705369D01*
X96793095Y-106667273D01*
X96869285Y-106629178D01*
X96945476Y-106629178D01*
X97021666Y-106667273D01*
X97059761Y-106705369D01*
X97097857Y-106781559D01*
X97097857Y-107048226D01*
X96793095Y-106286321D02*
X96755000Y-106248226D01*
X96716904Y-106172035D01*
X96716904Y-105981559D01*
X96755000Y-105905369D01*
X96793095Y-105867273D01*
X96869285Y-105829178D01*
X96945476Y-105829178D01*
X97059761Y-105867273D01*
X97516904Y-106324416D01*
X97516904Y-105829178D01*
X89477857Y-106724416D02*
X89477857Y-106991083D01*
X89896904Y-106991083D02*
X89096904Y-106991083D01*
X89096904Y-106610130D01*
X89096904Y-106381559D02*
X89096904Y-105848226D01*
X89896904Y-106191083D01*
X86937857Y-106724416D02*
X86937857Y-106991083D01*
X87356904Y-106991083D02*
X86556904Y-106991083D01*
X86556904Y-106610130D01*
X86556904Y-105962511D02*
X86556904Y-106114892D01*
X86595000Y-106191083D01*
X86633095Y-106229178D01*
X86747380Y-106305369D01*
X86899761Y-106343464D01*
X87204523Y-106343464D01*
X87280714Y-106305369D01*
X87318809Y-106267273D01*
X87356904Y-106191083D01*
X87356904Y-106038702D01*
X87318809Y-105962511D01*
X87280714Y-105924416D01*
X87204523Y-105886321D01*
X87014047Y-105886321D01*
X86937857Y-105924416D01*
X86899761Y-105962511D01*
X86861666Y-106038702D01*
X86861666Y-106191083D01*
X86899761Y-106267273D01*
X86937857Y-106305369D01*
X87014047Y-106343464D01*
X84397857Y-106724416D02*
X84397857Y-106991083D01*
X84816904Y-106991083D02*
X84016904Y-106991083D01*
X84016904Y-106610130D01*
X84016904Y-105924416D02*
X84016904Y-106305369D01*
X84397857Y-106343464D01*
X84359761Y-106305369D01*
X84321666Y-106229178D01*
X84321666Y-106038702D01*
X84359761Y-105962511D01*
X84397857Y-105924416D01*
X84474047Y-105886321D01*
X84664523Y-105886321D01*
X84740714Y-105924416D01*
X84778809Y-105962511D01*
X84816904Y-106038702D01*
X84816904Y-106229178D01*
X84778809Y-106305369D01*
X84740714Y-106343464D01*
X71697857Y-106781559D02*
X71735952Y-106667273D01*
X71774047Y-106629178D01*
X71850238Y-106591083D01*
X71964523Y-106591083D01*
X72040714Y-106629178D01*
X72078809Y-106667273D01*
X72116904Y-106743464D01*
X72116904Y-107048226D01*
X71316904Y-107048226D01*
X71316904Y-106781559D01*
X71355000Y-106705369D01*
X71393095Y-106667273D01*
X71469285Y-106629178D01*
X71545476Y-106629178D01*
X71621666Y-106667273D01*
X71659761Y-106705369D01*
X71697857Y-106781559D01*
X71697857Y-107048226D01*
X71316904Y-106095845D02*
X71316904Y-106019654D01*
X71355000Y-105943464D01*
X71393095Y-105905369D01*
X71469285Y-105867273D01*
X71621666Y-105829178D01*
X71812142Y-105829178D01*
X71964523Y-105867273D01*
X72040714Y-105905369D01*
X72078809Y-105943464D01*
X72116904Y-106019654D01*
X72116904Y-106095845D01*
X72078809Y-106172035D01*
X72040714Y-106210130D01*
X71964523Y-106248226D01*
X71812142Y-106286321D01*
X71621666Y-106286321D01*
X71469285Y-106248226D01*
X71393095Y-106210130D01*
X71355000Y-106172035D01*
X71316904Y-106095845D01*
X73895000Y-107067273D02*
X73856904Y-107143464D01*
X73856904Y-107257750D01*
X73895000Y-107372035D01*
X73971190Y-107448226D01*
X74047380Y-107486321D01*
X74199761Y-107524416D01*
X74314047Y-107524416D01*
X74466428Y-107486321D01*
X74542619Y-107448226D01*
X74618809Y-107372035D01*
X74656904Y-107257750D01*
X74656904Y-107181559D01*
X74618809Y-107067273D01*
X74580714Y-107029178D01*
X74314047Y-107029178D01*
X74314047Y-107181559D01*
X74656904Y-106686321D02*
X73856904Y-106686321D01*
X74656904Y-106229178D01*
X73856904Y-106229178D01*
X74656904Y-105848226D02*
X73856904Y-105848226D01*
X73856904Y-105657750D01*
X73895000Y-105543464D01*
X73971190Y-105467273D01*
X74047380Y-105429178D01*
X74199761Y-105391083D01*
X74314047Y-105391083D01*
X74466428Y-105429178D01*
X74542619Y-105467273D01*
X74618809Y-105543464D01*
X74656904Y-105657750D01*
X74656904Y-105848226D01*
X77128809Y-106718963D02*
X77166904Y-106604677D01*
X77166904Y-106414201D01*
X77128809Y-106338010D01*
X77090714Y-106299915D01*
X77014523Y-106261820D01*
X76938333Y-106261820D01*
X76862142Y-106299915D01*
X76824047Y-106338010D01*
X76785952Y-106414201D01*
X76747857Y-106566582D01*
X76709761Y-106642772D01*
X76671666Y-106680868D01*
X76595476Y-106718963D01*
X76519285Y-106718963D01*
X76443095Y-106680868D01*
X76405000Y-106642772D01*
X76366904Y-106566582D01*
X76366904Y-106376106D01*
X76405000Y-106261820D01*
X76366904Y-106033249D02*
X76366904Y-105576106D01*
X77166904Y-105804677D02*
X76366904Y-105804677D01*
X78936904Y-107524416D02*
X79736904Y-107257750D01*
X78936904Y-106991083D01*
X79660714Y-106267273D02*
X79698809Y-106305369D01*
X79736904Y-106419654D01*
X79736904Y-106495845D01*
X79698809Y-106610130D01*
X79622619Y-106686321D01*
X79546428Y-106724416D01*
X79394047Y-106762511D01*
X79279761Y-106762511D01*
X79127380Y-106724416D01*
X79051190Y-106686321D01*
X78975000Y-106610130D01*
X78936904Y-106495845D01*
X78936904Y-106419654D01*
X78975000Y-106305369D01*
X79013095Y-106267273D01*
X79660714Y-105467273D02*
X79698809Y-105505369D01*
X79736904Y-105619654D01*
X79736904Y-105695845D01*
X79698809Y-105810130D01*
X79622619Y-105886321D01*
X79546428Y-105924416D01*
X79394047Y-105962511D01*
X79279761Y-105962511D01*
X79127380Y-105924416D01*
X79051190Y-105886321D01*
X78975000Y-105810130D01*
X78936904Y-105695845D01*
X78936904Y-105619654D01*
X78975000Y-105505369D01*
X79013095Y-105467273D01*
X81857857Y-106724416D02*
X81857857Y-106991083D01*
X82276904Y-106991083D02*
X81476904Y-106991083D01*
X81476904Y-106610130D01*
X81743571Y-105962511D02*
X82276904Y-105962511D01*
X81438809Y-106152988D02*
X82010238Y-106343464D01*
X82010238Y-105848226D01*
X92017857Y-106781559D02*
X92055952Y-106667273D01*
X92094047Y-106629178D01*
X92170238Y-106591083D01*
X92284523Y-106591083D01*
X92360714Y-106629178D01*
X92398809Y-106667273D01*
X92436904Y-106743464D01*
X92436904Y-107048226D01*
X91636904Y-107048226D01*
X91636904Y-106781559D01*
X91675000Y-106705369D01*
X91713095Y-106667273D01*
X91789285Y-106629178D01*
X91865476Y-106629178D01*
X91941666Y-106667273D01*
X91979761Y-106705369D01*
X92017857Y-106781559D01*
X92017857Y-107048226D01*
X92436904Y-105829178D02*
X92436904Y-106286321D01*
X92436904Y-106057750D02*
X91636904Y-106057750D01*
X91751190Y-106133940D01*
X91827380Y-106210130D01*
X91865476Y-106286321D01*
X94557857Y-106781559D02*
X94595952Y-106667273D01*
X94634047Y-106629178D01*
X94710238Y-106591083D01*
X94824523Y-106591083D01*
X94900714Y-106629178D01*
X94938809Y-106667273D01*
X94976904Y-106743464D01*
X94976904Y-107048226D01*
X94176904Y-107048226D01*
X94176904Y-106781559D01*
X94215000Y-106705369D01*
X94253095Y-106667273D01*
X94329285Y-106629178D01*
X94405476Y-106629178D01*
X94481666Y-106667273D01*
X94519761Y-106705369D01*
X94557857Y-106781559D01*
X94557857Y-107048226D01*
X94176904Y-106324416D02*
X94176904Y-105829178D01*
X94481666Y-106095845D01*
X94481666Y-105981559D01*
X94519761Y-105905369D01*
X94557857Y-105867273D01*
X94634047Y-105829178D01*
X94824523Y-105829178D01*
X94900714Y-105867273D01*
X94938809Y-105905369D01*
X94976904Y-105981559D01*
X94976904Y-106210130D01*
X94938809Y-106286321D01*
X94900714Y-106324416D01*
X98189297Y-118483741D02*
X98283578Y-118436601D01*
X98330719Y-118436601D01*
X98401429Y-118460171D01*
X98472140Y-118530882D01*
X98495710Y-118601592D01*
X98495710Y-118648733D01*
X98472140Y-118719443D01*
X98283578Y-118908005D01*
X97788603Y-118413030D01*
X97953595Y-118248039D01*
X98024306Y-118224469D01*
X98071446Y-118224469D01*
X98142157Y-118248039D01*
X98189297Y-118295179D01*
X98212867Y-118365890D01*
X98212867Y-118413030D01*
X98189297Y-118483741D01*
X98024306Y-118648733D01*
X98519280Y-117682353D02*
X98283578Y-117918056D01*
X98495710Y-118177328D01*
X98495710Y-118130188D01*
X98519280Y-118059477D01*
X98637132Y-117941626D01*
X98707842Y-117918056D01*
X98754983Y-117918056D01*
X98825693Y-117941626D01*
X98943544Y-118059477D01*
X98967115Y-118130188D01*
X98967115Y-118177328D01*
X98943544Y-118248039D01*
X98825693Y-118365890D01*
X98754983Y-118389460D01*
X98707842Y-118389460D01*
X97097857Y-117703559D02*
X97135952Y-117589273D01*
X97174047Y-117551178D01*
X97250238Y-117513083D01*
X97364523Y-117513083D01*
X97440714Y-117551178D01*
X97478809Y-117589273D01*
X97516904Y-117665464D01*
X97516904Y-117970226D01*
X96716904Y-117970226D01*
X96716904Y-117703559D01*
X96755000Y-117627369D01*
X96793095Y-117589273D01*
X96869285Y-117551178D01*
X96945476Y-117551178D01*
X97021666Y-117589273D01*
X97059761Y-117627369D01*
X97097857Y-117703559D01*
X97097857Y-117970226D01*
X96983571Y-116827369D02*
X97516904Y-116827369D01*
X96678809Y-117017845D02*
X97250238Y-117208321D01*
X97250238Y-116713083D01*
X94557857Y-117932130D02*
X94557857Y-117665464D01*
X94976904Y-117551178D02*
X94976904Y-117932130D01*
X94176904Y-117932130D01*
X94176904Y-117551178D01*
X94176904Y-116865464D02*
X94176904Y-117017845D01*
X94215000Y-117094035D01*
X94253095Y-117132130D01*
X94367380Y-117208321D01*
X94519761Y-117246416D01*
X94824523Y-117246416D01*
X94900714Y-117208321D01*
X94938809Y-117170226D01*
X94976904Y-117094035D01*
X94976904Y-116941654D01*
X94938809Y-116865464D01*
X94900714Y-116827369D01*
X94824523Y-116789273D01*
X94634047Y-116789273D01*
X94557857Y-116827369D01*
X94519761Y-116865464D01*
X94481666Y-116941654D01*
X94481666Y-117094035D01*
X94519761Y-117170226D01*
X94557857Y-117208321D01*
X94634047Y-117246416D01*
X92436904Y-117970226D02*
X91636904Y-117970226D01*
X91636904Y-117779750D01*
X91675000Y-117665464D01*
X91751190Y-117589273D01*
X91827380Y-117551178D01*
X91979761Y-117513083D01*
X92094047Y-117513083D01*
X92246428Y-117551178D01*
X92322619Y-117589273D01*
X92398809Y-117665464D01*
X92436904Y-117779750D01*
X92436904Y-117970226D01*
X91636904Y-117246416D02*
X91636904Y-116713083D01*
X92436904Y-117055940D01*
X89820714Y-117513083D02*
X89858809Y-117551178D01*
X89896904Y-117665464D01*
X89896904Y-117741654D01*
X89858809Y-117855940D01*
X89782619Y-117932130D01*
X89706428Y-117970226D01*
X89554047Y-118008321D01*
X89439761Y-118008321D01*
X89287380Y-117970226D01*
X89211190Y-117932130D01*
X89135000Y-117855940D01*
X89096904Y-117741654D01*
X89096904Y-117665464D01*
X89135000Y-117551178D01*
X89173095Y-117513083D01*
X89096904Y-116827369D02*
X89096904Y-116979750D01*
X89135000Y-117055940D01*
X89173095Y-117094035D01*
X89287380Y-117170226D01*
X89439761Y-117208321D01*
X89744523Y-117208321D01*
X89820714Y-117170226D01*
X89858809Y-117132130D01*
X89896904Y-117055940D01*
X89896904Y-116903559D01*
X89858809Y-116827369D01*
X89820714Y-116789273D01*
X89744523Y-116751178D01*
X89554047Y-116751178D01*
X89477857Y-116789273D01*
X89439761Y-116827369D01*
X89401666Y-116903559D01*
X89401666Y-117055940D01*
X89439761Y-117132130D01*
X89477857Y-117170226D01*
X89554047Y-117208321D01*
X87356904Y-117970226D02*
X86556904Y-117970226D01*
X86556904Y-117779750D01*
X86595000Y-117665464D01*
X86671190Y-117589273D01*
X86747380Y-117551178D01*
X86899761Y-117513083D01*
X87014047Y-117513083D01*
X87166428Y-117551178D01*
X87242619Y-117589273D01*
X87318809Y-117665464D01*
X87356904Y-117779750D01*
X87356904Y-117970226D01*
X86823571Y-116827369D02*
X87356904Y-116827369D01*
X86518809Y-117017845D02*
X87090238Y-117208321D01*
X87090238Y-116713083D01*
X76435000Y-117989273D02*
X76396904Y-118065464D01*
X76396904Y-118179750D01*
X76435000Y-118294035D01*
X76511190Y-118370226D01*
X76587380Y-118408321D01*
X76739761Y-118446416D01*
X76854047Y-118446416D01*
X77006428Y-118408321D01*
X77082619Y-118370226D01*
X77158809Y-118294035D01*
X77196904Y-118179750D01*
X77196904Y-118103559D01*
X77158809Y-117989273D01*
X77120714Y-117951178D01*
X76854047Y-117951178D01*
X76854047Y-118103559D01*
X77196904Y-117608321D02*
X76396904Y-117608321D01*
X77196904Y-117151178D01*
X76396904Y-117151178D01*
X77196904Y-116770226D02*
X76396904Y-116770226D01*
X76396904Y-116579750D01*
X76435000Y-116465464D01*
X76511190Y-116389273D01*
X76587380Y-116351178D01*
X76739761Y-116313083D01*
X76854047Y-116313083D01*
X77006428Y-116351178D01*
X77082619Y-116389273D01*
X77158809Y-116465464D01*
X77196904Y-116579750D01*
X77196904Y-116770226D01*
X78975000Y-117989273D02*
X78936904Y-118065464D01*
X78936904Y-118179750D01*
X78975000Y-118294035D01*
X79051190Y-118370226D01*
X79127380Y-118408321D01*
X79279761Y-118446416D01*
X79394047Y-118446416D01*
X79546428Y-118408321D01*
X79622619Y-118370226D01*
X79698809Y-118294035D01*
X79736904Y-118179750D01*
X79736904Y-118103559D01*
X79698809Y-117989273D01*
X79660714Y-117951178D01*
X79394047Y-117951178D01*
X79394047Y-118103559D01*
X79736904Y-117608321D02*
X78936904Y-117608321D01*
X79736904Y-117151178D01*
X78936904Y-117151178D01*
X79736904Y-116770226D02*
X78936904Y-116770226D01*
X78936904Y-116579750D01*
X78975000Y-116465464D01*
X79051190Y-116389273D01*
X79127380Y-116351178D01*
X79279761Y-116313083D01*
X79394047Y-116313083D01*
X79546428Y-116351178D01*
X79622619Y-116389273D01*
X79698809Y-116465464D01*
X79736904Y-116579750D01*
X79736904Y-116770226D01*
X82276904Y-117970226D02*
X81476904Y-117970226D01*
X81476904Y-117779750D01*
X81515000Y-117665464D01*
X81591190Y-117589273D01*
X81667380Y-117551178D01*
X81819761Y-117513083D01*
X81934047Y-117513083D01*
X82086428Y-117551178D01*
X82162619Y-117589273D01*
X82238809Y-117665464D01*
X82276904Y-117779750D01*
X82276904Y-117970226D01*
X82276904Y-116751178D02*
X82276904Y-117208321D01*
X82276904Y-116979750D02*
X81476904Y-116979750D01*
X81591190Y-117055940D01*
X81667380Y-117132130D01*
X81705476Y-117208321D01*
X84816904Y-117970226D02*
X84016904Y-117970226D01*
X84016904Y-117779750D01*
X84055000Y-117665464D01*
X84131190Y-117589273D01*
X84207380Y-117551178D01*
X84359761Y-117513083D01*
X84474047Y-117513083D01*
X84626428Y-117551178D01*
X84702619Y-117589273D01*
X84778809Y-117665464D01*
X84816904Y-117779750D01*
X84816904Y-117970226D01*
X84016904Y-117017845D02*
X84016904Y-116941654D01*
X84055000Y-116865464D01*
X84093095Y-116827369D01*
X84169285Y-116789273D01*
X84321666Y-116751178D01*
X84512142Y-116751178D01*
X84664523Y-116789273D01*
X84740714Y-116827369D01*
X84778809Y-116865464D01*
X84816904Y-116941654D01*
X84816904Y-117017845D01*
X84778809Y-117094035D01*
X84740714Y-117132130D01*
X84664523Y-117170226D01*
X84512142Y-117208321D01*
X84321666Y-117208321D01*
X84169285Y-117170226D01*
X84093095Y-117132130D01*
X84055000Y-117094035D01*
X84016904Y-117017845D01*
X74656904Y-117970226D02*
X73856904Y-117970226D01*
X73856904Y-117779750D01*
X73895000Y-117665464D01*
X73971190Y-117589273D01*
X74047380Y-117551178D01*
X74199761Y-117513083D01*
X74314047Y-117513083D01*
X74466428Y-117551178D01*
X74542619Y-117589273D01*
X74618809Y-117665464D01*
X74656904Y-117779750D01*
X74656904Y-117970226D01*
X73933095Y-117208321D02*
X73895000Y-117170226D01*
X73856904Y-117094035D01*
X73856904Y-116903559D01*
X73895000Y-116827369D01*
X73933095Y-116789273D01*
X74009285Y-116751178D01*
X74085476Y-116751178D01*
X74199761Y-116789273D01*
X74656904Y-117246416D01*
X74656904Y-116751178D01*
X71316904Y-117681098D02*
X71316904Y-117223955D01*
X72116904Y-117452526D02*
X71316904Y-117452526D01*
X71316904Y-117033479D02*
X72116904Y-116500145D01*
X71316904Y-116500145D02*
X72116904Y-117033479D01*
X71316904Y-116043002D02*
X71316904Y-115966812D01*
X71355000Y-115890622D01*
X71393095Y-115852526D01*
X71469285Y-115814431D01*
X71621666Y-115776336D01*
X71812142Y-115776336D01*
X71964523Y-115814431D01*
X72040714Y-115852526D01*
X72078809Y-115890622D01*
X72116904Y-115966812D01*
X72116904Y-116043002D01*
X72078809Y-116119193D01*
X72040714Y-116157288D01*
X71964523Y-116195383D01*
X71812142Y-116233479D01*
X71621666Y-116233479D01*
X71469285Y-116195383D01*
X71393095Y-116157288D01*
X71355000Y-116119193D01*
X71316904Y-116043002D01*
X71278809Y-114862050D02*
X72307380Y-115547764D01*
X72116904Y-114595383D02*
X71316904Y-114595383D01*
X71316904Y-114404907D01*
X71355000Y-114290622D01*
X71431190Y-114214431D01*
X71507380Y-114176336D01*
X71659761Y-114138241D01*
X71774047Y-114138241D01*
X71926428Y-114176336D01*
X72002619Y-114214431D01*
X72078809Y-114290622D01*
X72116904Y-114404907D01*
X72116904Y-114595383D01*
X71316904Y-113871574D02*
X71316904Y-113376336D01*
X71621666Y-113643002D01*
X71621666Y-113528717D01*
X71659761Y-113452526D01*
X71697857Y-113414431D01*
X71774047Y-113376336D01*
X71964523Y-113376336D01*
X72040714Y-113414431D01*
X72078809Y-113452526D01*
X72116904Y-113528717D01*
X72116904Y-113757288D01*
X72078809Y-113833479D01*
X72040714Y-113871574D01*
X98275000Y-116702083D02*
X98308333Y-116602083D01*
X98341666Y-116568750D01*
X98408333Y-116535416D01*
X98508333Y-116535416D01*
X98575000Y-116568750D01*
X98608333Y-116602083D01*
X98641666Y-116668750D01*
X98641666Y-116935416D01*
X97941666Y-116935416D01*
X97941666Y-116702083D01*
X97975000Y-116635416D01*
X98008333Y-116602083D01*
X98075000Y-116568750D01*
X98141666Y-116568750D01*
X98208333Y-116602083D01*
X98241666Y-116635416D01*
X98275000Y-116702083D01*
X98275000Y-116935416D01*
X97941666Y-116302083D02*
X97941666Y-115835416D01*
X98641666Y-116135416D01*
X98275000Y-107652083D02*
X98275000Y-107885416D01*
X98641666Y-107885416D02*
X97941666Y-107885416D01*
X97941666Y-107552083D01*
X97941666Y-107152083D02*
X97941666Y-107085416D01*
X97975000Y-107018750D01*
X98008333Y-106985416D01*
X98075000Y-106952083D01*
X98208333Y-106918750D01*
X98375000Y-106918750D01*
X98508333Y-106952083D01*
X98575000Y-106985416D01*
X98608333Y-107018750D01*
X98641666Y-107085416D01*
X98641666Y-107152083D01*
X98608333Y-107218750D01*
X98575000Y-107252083D01*
X98508333Y-107285416D01*
X98375000Y-107318750D01*
X98208333Y-107318750D01*
X98075000Y-107285416D01*
X98008333Y-107252083D01*
X97975000Y-107218750D01*
X97941666Y-107152083D01*
X98589991Y-105754452D02*
X98542851Y-105660171D01*
X98542851Y-105613030D01*
X98566421Y-105542320D01*
X98637132Y-105471609D01*
X98707842Y-105448039D01*
X98754983Y-105448039D01*
X98825693Y-105471609D01*
X99014255Y-105660171D01*
X98519280Y-106155146D01*
X98354289Y-105990154D01*
X98330719Y-105919443D01*
X98330719Y-105872303D01*
X98354289Y-105801592D01*
X98401429Y-105754452D01*
X98472140Y-105730882D01*
X98519280Y-105730882D01*
X98589991Y-105754452D01*
X98754983Y-105919443D01*
X97812174Y-105448039D02*
X97906455Y-105542320D01*
X97977165Y-105565890D01*
X98024306Y-105565890D01*
X98142157Y-105542320D01*
X98260008Y-105471609D01*
X98448570Y-105283047D01*
X98472140Y-105212337D01*
X98472140Y-105165196D01*
X98448570Y-105094485D01*
X98354289Y-105000205D01*
X98283578Y-104976634D01*
X98236438Y-104976634D01*
X98165727Y-105000205D01*
X98047876Y-105118056D01*
X98024306Y-105188766D01*
X98024306Y-105235907D01*
X98047876Y-105306617D01*
X98142157Y-105400898D01*
X98212867Y-105424469D01*
X98260008Y-105424469D01*
X98330719Y-105400898D01*
X98410714Y-112052083D02*
X98448809Y-112090178D01*
X98486904Y-112204464D01*
X98486904Y-112280654D01*
X98448809Y-112394940D01*
X98372619Y-112471130D01*
X98296428Y-112509226D01*
X98144047Y-112547321D01*
X98029761Y-112547321D01*
X97877380Y-112509226D01*
X97801190Y-112471130D01*
X97725000Y-112394940D01*
X97686904Y-112280654D01*
X97686904Y-112204464D01*
X97725000Y-112090178D01*
X97763095Y-112052083D01*
X97686904Y-111785416D02*
X97686904Y-111252083D01*
X98486904Y-111594940D01*
X98067857Y-109645416D02*
X98067857Y-109912083D01*
X98486904Y-109912083D02*
X97686904Y-109912083D01*
X97686904Y-109531130D01*
X98486904Y-108807321D02*
X98486904Y-109264464D01*
X98486904Y-109035892D02*
X97686904Y-109035892D01*
X97801190Y-109112083D01*
X97877380Y-109188273D01*
X97915476Y-109264464D01*
X98486904Y-115049226D02*
X97686904Y-115049226D01*
X97686904Y-114858750D01*
X97725000Y-114744464D01*
X97801190Y-114668273D01*
X97877380Y-114630178D01*
X98029761Y-114592083D01*
X98144047Y-114592083D01*
X98296428Y-114630178D01*
X98372619Y-114668273D01*
X98448809Y-114744464D01*
X98486904Y-114858750D01*
X98486904Y-115049226D01*
X97686904Y-113868273D02*
X97686904Y-114249226D01*
X98067857Y-114287321D01*
X98029761Y-114249226D01*
X97991666Y-114173035D01*
X97991666Y-113982559D01*
X98029761Y-113906369D01*
X98067857Y-113868273D01*
X98144047Y-113830178D01*
X98334523Y-113830178D01*
X98410714Y-113868273D01*
X98448809Y-113906369D01*
X98486904Y-113982559D01*
X98486904Y-114173035D01*
X98448809Y-114249226D01*
X98410714Y-114287321D01*
%TD*%
M02*
