%TF.GenerationSoftware,KiCad,Pcbnew,(5.1.9)-1*%
%TF.CreationDate,2021-02-15T19:25:36-05:00*%
%TF.ProjectId,60percent,36307065-7263-4656-9e74-2e6b69636164,rev?*%
%TF.SameCoordinates,Original*%
%TF.FileFunction,Copper,L2,Bot*%
%TF.FilePolarity,Positive*%
%FSLAX46Y46*%
G04 Gerber Fmt 4.6, Leading zero omitted, Abs format (unit mm)*
G04 Created by KiCad (PCBNEW (5.1.9)-1) date 2021-02-15 19:25:36*
%MOMM*%
%LPD*%
G01*
G04 APERTURE LIST*
%TA.AperFunction,ComponentPad*%
%ADD10R,1.600000X1.600000*%
%TD*%
%TA.AperFunction,ComponentPad*%
%ADD11C,1.600000*%
%TD*%
%TA.AperFunction,SMDPad,CuDef*%
%ADD12R,2.550000X2.500000*%
%TD*%
%TA.AperFunction,ComponentPad*%
%ADD13C,2.000000*%
%TD*%
%TA.AperFunction,ComponentPad*%
%ADD14R,2.000000X3.200000*%
%TD*%
%TA.AperFunction,ComponentPad*%
%ADD15R,2.000000X2.000000*%
%TD*%
%TA.AperFunction,ComponentPad*%
%ADD16R,1.752600X1.752600*%
%TD*%
%TA.AperFunction,ComponentPad*%
%ADD17C,1.752600*%
%TD*%
%TA.AperFunction,ViaPad*%
%ADD18C,0.800000*%
%TD*%
%TA.AperFunction,Conductor*%
%ADD19C,0.250000*%
%TD*%
G04 APERTURE END LIST*
D10*
%TO.P,D1,1*%
%TO.N,/row0*%
X85725000Y-82480750D03*
D11*
%TO.P,D1,2*%
%TO.N,Net-(D1-Pad2)*%
X85725000Y-74680750D03*
%TD*%
D10*
%TO.P,D2,1*%
%TO.N,/row0*%
X91350000Y-78580750D03*
D11*
%TO.P,D2,2*%
%TO.N,Net-(D2-Pad2)*%
X99150000Y-78580750D03*
%TD*%
D10*
%TO.P,D3,1*%
%TO.N,/row0*%
X110400000Y-78580750D03*
D11*
%TO.P,D3,2*%
%TO.N,Net-(D3-Pad2)*%
X118200000Y-78580750D03*
%TD*%
%TO.P,D4,2*%
%TO.N,Net-(D4-Pad2)*%
X137250000Y-78580750D03*
D10*
%TO.P,D4,1*%
%TO.N,/row0*%
X129450000Y-78580750D03*
%TD*%
%TO.P,D5,1*%
%TO.N,/row0*%
X148499500Y-78580750D03*
D11*
%TO.P,D5,2*%
%TO.N,Net-(D5-Pad2)*%
X156299500Y-78580750D03*
%TD*%
D10*
%TO.P,D6,1*%
%TO.N,/row0*%
X167549500Y-78580750D03*
D11*
%TO.P,D6,2*%
%TO.N,Net-(D6-Pad2)*%
X175349500Y-78580750D03*
%TD*%
%TO.P,D7,2*%
%TO.N,Net-(D7-Pad2)*%
X194399500Y-78580750D03*
D10*
%TO.P,D7,1*%
%TO.N,/row0*%
X186599500Y-78580750D03*
%TD*%
%TO.P,D8,1*%
%TO.N,/row0*%
X205649500Y-78580750D03*
D11*
%TO.P,D8,2*%
%TO.N,Net-(D8-Pad2)*%
X213449500Y-78580750D03*
%TD*%
D10*
%TO.P,D9,1*%
%TO.N,/row0*%
X224699500Y-78580750D03*
D11*
%TO.P,D9,2*%
%TO.N,Net-(D9-Pad2)*%
X232499500Y-78580750D03*
%TD*%
%TO.P,D10,2*%
%TO.N,Net-(D10-Pad2)*%
X251549500Y-78580750D03*
D10*
%TO.P,D10,1*%
%TO.N,/row0*%
X243749500Y-78580750D03*
%TD*%
D11*
%TO.P,D11,2*%
%TO.N,Net-(D11-Pad2)*%
X270599500Y-78580750D03*
D10*
%TO.P,D11,1*%
%TO.N,/row0*%
X262799500Y-78580750D03*
%TD*%
%TO.P,D12,1*%
%TO.N,/row0*%
X281849500Y-78580750D03*
D11*
%TO.P,D12,2*%
%TO.N,Net-(D12-Pad2)*%
X289649500Y-78580750D03*
%TD*%
%TO.P,D13,2*%
%TO.N,Net-(D13-Pad2)*%
X308699500Y-78580750D03*
D10*
%TO.P,D13,1*%
%TO.N,/row0*%
X300899500Y-78580750D03*
%TD*%
D11*
%TO.P,D14,2*%
%TO.N,Net-(D14-Pad2)*%
X337275500Y-78580750D03*
D10*
%TO.P,D14,1*%
%TO.N,/row0*%
X329475500Y-78580750D03*
%TD*%
D11*
%TO.P,D15,2*%
%TO.N,Net-(D15-Pad2)*%
X84862500Y-97630750D03*
D10*
%TO.P,D15,1*%
%TO.N,/row1*%
X77062500Y-97630750D03*
%TD*%
D11*
%TO.P,D16,2*%
%TO.N,Net-(D16-Pad2)*%
X108675000Y-97630750D03*
D10*
%TO.P,D16,1*%
%TO.N,/row1*%
X100875000Y-97630750D03*
%TD*%
%TO.P,D17,1*%
%TO.N,/row1*%
X119925000Y-97630750D03*
D11*
%TO.P,D17,2*%
%TO.N,Net-(D17-Pad2)*%
X127725000Y-97630750D03*
%TD*%
%TO.P,D18,2*%
%TO.N,Net-(D18-Pad2)*%
X146775000Y-97630750D03*
D10*
%TO.P,D18,1*%
%TO.N,/row1*%
X138975000Y-97630750D03*
%TD*%
D11*
%TO.P,D19,2*%
%TO.N,Net-(D19-Pad2)*%
X165825500Y-97630750D03*
D10*
%TO.P,D19,1*%
%TO.N,/row1*%
X158025500Y-97630750D03*
%TD*%
%TO.P,D20,1*%
%TO.N,/row1*%
X177075500Y-97630750D03*
D11*
%TO.P,D20,2*%
%TO.N,Net-(D20-Pad2)*%
X184875500Y-97630750D03*
%TD*%
D10*
%TO.P,D21,1*%
%TO.N,/row1*%
X196125500Y-97630750D03*
D11*
%TO.P,D21,2*%
%TO.N,Net-(D21-Pad2)*%
X203925500Y-97630750D03*
%TD*%
D10*
%TO.P,D22,1*%
%TO.N,/row1*%
X215175500Y-97630750D03*
D11*
%TO.P,D22,2*%
%TO.N,Net-(D22-Pad2)*%
X222975500Y-97630750D03*
%TD*%
%TO.P,D23,2*%
%TO.N,Net-(D23-Pad2)*%
X242025500Y-97630750D03*
D10*
%TO.P,D23,1*%
%TO.N,/row1*%
X234225500Y-97630750D03*
%TD*%
%TO.P,D24,1*%
%TO.N,/row1*%
X253275500Y-97630750D03*
D11*
%TO.P,D24,2*%
%TO.N,Net-(D24-Pad2)*%
X261075500Y-97630750D03*
%TD*%
%TO.P,D25,2*%
%TO.N,Net-(D25-Pad2)*%
X280125500Y-97630750D03*
D10*
%TO.P,D25,1*%
%TO.N,/row1*%
X272325500Y-97630750D03*
%TD*%
%TO.P,D26,1*%
%TO.N,/row1*%
X291375500Y-97630750D03*
D11*
%TO.P,D26,2*%
%TO.N,Net-(D26-Pad2)*%
X299175500Y-97630750D03*
%TD*%
%TO.P,D27,2*%
%TO.N,Net-(D27-Pad2)*%
X318225500Y-97630750D03*
D10*
%TO.P,D27,1*%
%TO.N,/row1*%
X310425500Y-97630750D03*
%TD*%
%TO.P,D28,1*%
%TO.N,/row1*%
X334237500Y-97630750D03*
D11*
%TO.P,D28,2*%
%TO.N,Net-(D28-Pad2)*%
X342037500Y-97630750D03*
%TD*%
D10*
%TO.P,D29,1*%
%TO.N,/row2*%
X79443700Y-116680750D03*
D11*
%TO.P,D29,2*%
%TO.N,Net-(D29-Pad2)*%
X87243700Y-116680750D03*
%TD*%
D10*
%TO.P,D30,1*%
%TO.N,/row2*%
X105637500Y-116680750D03*
D11*
%TO.P,D30,2*%
%TO.N,Net-(D30-Pad2)*%
X113437500Y-116680750D03*
%TD*%
D10*
%TO.P,D31,1*%
%TO.N,/row2*%
X124687500Y-116680750D03*
D11*
%TO.P,D31,2*%
%TO.N,Net-(D31-Pad2)*%
X132487500Y-116680750D03*
%TD*%
%TO.P,D32,2*%
%TO.N,Net-(D32-Pad2)*%
X151537500Y-116680750D03*
D10*
%TO.P,D32,1*%
%TO.N,/row2*%
X143737500Y-116680750D03*
%TD*%
%TO.P,D33,1*%
%TO.N,/row2*%
X162787500Y-116680750D03*
D11*
%TO.P,D33,2*%
%TO.N,Net-(D33-Pad2)*%
X170587500Y-116680750D03*
%TD*%
%TO.P,D34,2*%
%TO.N,Net-(D34-Pad2)*%
X189637500Y-116680750D03*
D10*
%TO.P,D34,1*%
%TO.N,/row2*%
X181837500Y-116680750D03*
%TD*%
%TO.P,D35,1*%
%TO.N,/row2*%
X200887500Y-116680750D03*
D11*
%TO.P,D35,2*%
%TO.N,Net-(D35-Pad2)*%
X208687500Y-116680750D03*
%TD*%
%TO.P,D36,2*%
%TO.N,Net-(D36-Pad2)*%
X227737500Y-116680750D03*
D10*
%TO.P,D36,1*%
%TO.N,/row2*%
X219937500Y-116680750D03*
%TD*%
%TO.P,D37,1*%
%TO.N,/row2*%
X238987500Y-116680750D03*
D11*
%TO.P,D37,2*%
%TO.N,Net-(D37-Pad2)*%
X246787500Y-116680750D03*
%TD*%
%TO.P,D38,2*%
%TO.N,Net-(D38-Pad2)*%
X265837500Y-116680750D03*
D10*
%TO.P,D38,1*%
%TO.N,/row2*%
X258037500Y-116680750D03*
%TD*%
%TO.P,D39,1*%
%TO.N,/row2*%
X277203500Y-116680750D03*
D11*
%TO.P,D39,2*%
%TO.N,Net-(D39-Pad2)*%
X285003500Y-116680750D03*
%TD*%
%TO.P,D40,2*%
%TO.N,Net-(D40-Pad2)*%
X303937500Y-116680750D03*
D10*
%TO.P,D40,1*%
%TO.N,/row2*%
X296137500Y-116680750D03*
%TD*%
D11*
%TO.P,D41,2*%
%TO.N,Net-(D41-Pad2)*%
X334893500Y-116680750D03*
D10*
%TO.P,D41,1*%
%TO.N,/row2*%
X327093500Y-116680750D03*
%TD*%
D11*
%TO.P,D42,2*%
%TO.N,Net-(D42-Pad2)*%
X92006300Y-135730750D03*
D10*
%TO.P,D42,1*%
%TO.N,/row3*%
X84206300Y-135730750D03*
%TD*%
%TO.P,D43,1*%
%TO.N,/row3*%
X115162500Y-135730750D03*
D11*
%TO.P,D43,2*%
%TO.N,Net-(D43-Pad2)*%
X122962500Y-135730750D03*
%TD*%
%TO.P,D44,2*%
%TO.N,Net-(D44-Pad2)*%
X142012500Y-135730750D03*
D10*
%TO.P,D44,1*%
%TO.N,/row3*%
X134212500Y-135730750D03*
%TD*%
%TO.P,D45,1*%
%TO.N,/row3*%
X153262500Y-135730750D03*
D11*
%TO.P,D45,2*%
%TO.N,Net-(D45-Pad2)*%
X161062500Y-135730750D03*
%TD*%
%TO.P,D46,2*%
%TO.N,Net-(D46-Pad2)*%
X180112500Y-135730750D03*
D10*
%TO.P,D46,1*%
%TO.N,/row3*%
X172312500Y-135730750D03*
%TD*%
%TO.P,D47,1*%
%TO.N,/row3*%
X191362500Y-135730750D03*
D11*
%TO.P,D47,2*%
%TO.N,Net-(D47-Pad2)*%
X199162500Y-135730750D03*
%TD*%
%TO.P,D48,2*%
%TO.N,Net-(D48-Pad2)*%
X218212500Y-135730750D03*
D10*
%TO.P,D48,1*%
%TO.N,/row3*%
X210412500Y-135730750D03*
%TD*%
%TO.P,D49,1*%
%TO.N,/row3*%
X229462500Y-135730750D03*
D11*
%TO.P,D49,2*%
%TO.N,Net-(D49-Pad2)*%
X237262500Y-135730750D03*
%TD*%
%TO.P,D50,2*%
%TO.N,Net-(D50-Pad2)*%
X256312500Y-135730750D03*
D10*
%TO.P,D50,1*%
%TO.N,/row3*%
X248512500Y-135730750D03*
%TD*%
D11*
%TO.P,D51,2*%
%TO.N,Net-(D51-Pad2)*%
X275362500Y-135730750D03*
D10*
%TO.P,D51,1*%
%TO.N,/row3*%
X267562500Y-135730750D03*
%TD*%
D11*
%TO.P,D52,2*%
%TO.N,Net-(D52-Pad2)*%
X294412500Y-135730750D03*
D10*
%TO.P,D52,1*%
%TO.N,/row3*%
X286612500Y-135730750D03*
%TD*%
%TO.P,D53,1*%
%TO.N,/row3*%
X322331500Y-135730750D03*
D11*
%TO.P,D53,2*%
%TO.N,Net-(D53-Pad2)*%
X330131500Y-135730750D03*
%TD*%
%TO.P,D54,2*%
%TO.N,Net-(D54-Pad2)*%
X82481300Y-154780750D03*
D10*
%TO.P,D54,1*%
%TO.N,/row4*%
X74681300Y-154780750D03*
%TD*%
%TO.P,D55,1*%
%TO.N,/row4*%
X98493700Y-154780750D03*
D11*
%TO.P,D55,2*%
%TO.N,Net-(D55-Pad2)*%
X106293700Y-154780750D03*
%TD*%
%TO.P,D56,2*%
%TO.N,Net-(D56-Pad2)*%
X130106300Y-154780750D03*
D10*
%TO.P,D56,1*%
%TO.N,/row4*%
X122306300Y-154780750D03*
%TD*%
%TO.P,D57,1*%
%TO.N,/row4*%
X193743500Y-154780750D03*
D11*
%TO.P,D57,2*%
%TO.N,Net-(D57-Pad2)*%
X201543500Y-154780750D03*
%TD*%
%TO.P,D58,2*%
%TO.N,Net-(D58-Pad2)*%
X272981500Y-154780750D03*
D10*
%TO.P,D58,1*%
%TO.N,/row4*%
X265181500Y-154780750D03*
%TD*%
%TO.P,D59,1*%
%TO.N,/row4*%
X288993500Y-154780750D03*
D11*
%TO.P,D59,2*%
%TO.N,Net-(D59-Pad2)*%
X296793500Y-154780750D03*
%TD*%
%TO.P,D60,2*%
%TO.N,Net-(D60-Pad2)*%
X320606500Y-154780750D03*
D10*
%TO.P,D60,1*%
%TO.N,/row4*%
X312806500Y-154780750D03*
%TD*%
%TO.P,D61,1*%
%TO.N,/row4*%
X336618500Y-154780750D03*
D11*
%TO.P,D61,2*%
%TO.N,Net-(D61-Pad2)*%
X344418500Y-154780750D03*
%TD*%
D12*
%TO.P,K1,2*%
%TO.N,Net-(D2-Pad2)*%
X101092000Y-68738750D03*
%TO.P,K1,1*%
%TO.N,/col1*%
X88165000Y-71278750D03*
%TD*%
%TO.P,K2,1*%
%TO.N,/col2*%
X107215000Y-71278750D03*
%TO.P,K2,2*%
%TO.N,Net-(D3-Pad2)*%
X120142000Y-68738750D03*
%TD*%
%TO.P,K3,1*%
%TO.N,/col3*%
X126265000Y-71278750D03*
%TO.P,K3,2*%
%TO.N,Net-(D4-Pad2)*%
X139192000Y-68738750D03*
%TD*%
%TO.P,K4,2*%
%TO.N,Net-(D5-Pad2)*%
X158241500Y-68738750D03*
%TO.P,K4,1*%
%TO.N,/col4*%
X145314500Y-71278750D03*
%TD*%
%TO.P,K5,1*%
%TO.N,/col5*%
X164364500Y-71278750D03*
%TO.P,K5,2*%
%TO.N,Net-(D6-Pad2)*%
X177291500Y-68738750D03*
%TD*%
%TO.P,K6,2*%
%TO.N,Net-(D7-Pad2)*%
X196341500Y-68738750D03*
%TO.P,K6,1*%
%TO.N,/col6*%
X183414500Y-71278750D03*
%TD*%
%TO.P,K7,2*%
%TO.N,Net-(D8-Pad2)*%
X215391500Y-68738750D03*
%TO.P,K7,1*%
%TO.N,/col7*%
X202464500Y-71278750D03*
%TD*%
%TO.P,K8,2*%
%TO.N,Net-(D9-Pad2)*%
X234441500Y-68738750D03*
%TO.P,K8,1*%
%TO.N,/col8*%
X221514500Y-71278750D03*
%TD*%
%TO.P,K9,1*%
%TO.N,/col9*%
X240564500Y-71278750D03*
%TO.P,K9,2*%
%TO.N,Net-(D10-Pad2)*%
X253491500Y-68738750D03*
%TD*%
%TO.P,K10,1*%
%TO.N,/col10*%
X259614500Y-71278750D03*
%TO.P,K10,2*%
%TO.N,Net-(D11-Pad2)*%
X272541500Y-68738750D03*
%TD*%
%TO.P,K11,2*%
%TO.N,Net-(D12-Pad2)*%
X291591500Y-68738750D03*
%TO.P,K11,1*%
%TO.N,/col11*%
X278664500Y-71278750D03*
%TD*%
%TO.P,K12,2*%
%TO.N,Net-(D13-Pad2)*%
X310641500Y-68738750D03*
%TO.P,K12,1*%
%TO.N,/col12*%
X297714500Y-71278750D03*
%TD*%
%TO.P,K13,1*%
%TO.N,/col14*%
X326290500Y-71278750D03*
%TO.P,K13,2*%
%TO.N,Net-(D14-Pad2)*%
X339217500Y-68738750D03*
%TD*%
%TO.P,K14,1*%
%TO.N,/col0*%
X73877500Y-90328750D03*
%TO.P,K14,2*%
%TO.N,Net-(D15-Pad2)*%
X86804500Y-87788750D03*
%TD*%
%TO.P,K27,2*%
%TO.N,Net-(D28-Pad2)*%
X343979500Y-87788750D03*
%TO.P,K27,1*%
%TO.N,/col14*%
X331052500Y-90328750D03*
%TD*%
%TO.P,K28,1*%
%TO.N,/col0*%
X76258700Y-109378750D03*
%TO.P,K28,2*%
%TO.N,Net-(D29-Pad2)*%
X89185700Y-106838750D03*
%TD*%
%TO.P,K29,1*%
%TO.N,/col2*%
X102452500Y-109378750D03*
%TO.P,K29,2*%
%TO.N,Net-(D30-Pad2)*%
X115379500Y-106838750D03*
%TD*%
%TO.P,K30,2*%
%TO.N,Net-(D31-Pad2)*%
X134429500Y-106838750D03*
%TO.P,K30,1*%
%TO.N,/col3*%
X121502500Y-109378750D03*
%TD*%
%TO.P,K31,2*%
%TO.N,Net-(D32-Pad2)*%
X153479500Y-106838750D03*
%TO.P,K31,1*%
%TO.N,/col4*%
X140552500Y-109378750D03*
%TD*%
%TO.P,K32,2*%
%TO.N,Net-(D33-Pad2)*%
X172370500Y-106838750D03*
%TO.P,K32,1*%
%TO.N,/col5*%
X159443500Y-109378750D03*
%TD*%
%TO.P,K33,1*%
%TO.N,/col6*%
X178652500Y-109378750D03*
%TO.P,K33,2*%
%TO.N,Net-(D34-Pad2)*%
X191579500Y-106838750D03*
%TD*%
%TO.P,K34,2*%
%TO.N,Net-(D35-Pad2)*%
X210629500Y-106838750D03*
%TO.P,K34,1*%
%TO.N,/col7*%
X197702500Y-109378750D03*
%TD*%
%TO.P,K35,2*%
%TO.N,Net-(D36-Pad2)*%
X229679500Y-106838750D03*
%TO.P,K35,1*%
%TO.N,/col8*%
X216752500Y-109378750D03*
%TD*%
%TO.P,K36,1*%
%TO.N,/col9*%
X235802500Y-109378750D03*
%TO.P,K36,2*%
%TO.N,Net-(D37-Pad2)*%
X248729500Y-106838750D03*
%TD*%
%TO.P,K37,1*%
%TO.N,/col10*%
X254852500Y-109378750D03*
%TO.P,K37,2*%
%TO.N,Net-(D38-Pad2)*%
X267779500Y-106838750D03*
%TD*%
%TO.P,K38,1*%
%TO.N,/col11*%
X273902500Y-109378750D03*
%TO.P,K38,2*%
%TO.N,Net-(D39-Pad2)*%
X286829500Y-106838750D03*
%TD*%
%TO.P,K39,1*%
%TO.N,/col12*%
X292952500Y-109378750D03*
%TO.P,K39,2*%
%TO.N,Net-(D40-Pad2)*%
X305879500Y-106838750D03*
%TD*%
%TO.P,K40,1*%
%TO.N,/col13*%
X323908500Y-109378750D03*
%TO.P,K40,2*%
%TO.N,Net-(D41-Pad2)*%
X336835500Y-106838750D03*
%TD*%
%TO.P,K41,2*%
%TO.N,Net-(D42-Pad2)*%
X93948300Y-125888750D03*
%TO.P,K41,1*%
%TO.N,/col1*%
X81021300Y-128428750D03*
%TD*%
%TO.P,K42,1*%
%TO.N,/col2*%
X111918700Y-128428750D03*
%TO.P,K42,2*%
%TO.N,Net-(D43-Pad2)*%
X124845700Y-125888750D03*
%TD*%
%TO.P,K43,1*%
%TO.N,/col3*%
X131027500Y-128428750D03*
%TO.P,K43,2*%
%TO.N,Net-(D44-Pad2)*%
X143954500Y-125888750D03*
%TD*%
%TO.P,K44,1*%
%TO.N,/col4*%
X150077500Y-128428750D03*
%TO.P,K44,2*%
%TO.N,Net-(D45-Pad2)*%
X163004500Y-125888750D03*
%TD*%
%TO.P,K45,2*%
%TO.N,Net-(D46-Pad2)*%
X182054500Y-125888750D03*
%TO.P,K45,1*%
%TO.N,/col5*%
X169127500Y-128428750D03*
%TD*%
%TO.P,K46,2*%
%TO.N,Net-(D47-Pad2)*%
X201104500Y-125888750D03*
%TO.P,K46,1*%
%TO.N,/col6*%
X188177500Y-128428750D03*
%TD*%
%TO.P,K47,2*%
%TO.N,Net-(D48-Pad2)*%
X220154500Y-125888750D03*
%TO.P,K47,1*%
%TO.N,/col7*%
X207227500Y-128428750D03*
%TD*%
%TO.P,K48,2*%
%TO.N,Net-(D49-Pad2)*%
X239204500Y-125888750D03*
%TO.P,K48,1*%
%TO.N,/col8*%
X226277500Y-128428750D03*
%TD*%
%TO.P,K49,1*%
%TO.N,/col9*%
X245327500Y-128428750D03*
%TO.P,K49,2*%
%TO.N,Net-(D50-Pad2)*%
X258254500Y-125888750D03*
%TD*%
%TO.P,K50,1*%
%TO.N,/col10*%
X264377500Y-128428750D03*
%TO.P,K50,2*%
%TO.N,Net-(D51-Pad2)*%
X277304500Y-125888750D03*
%TD*%
%TO.P,K51,1*%
%TO.N,/col11*%
X283427500Y-128428750D03*
%TO.P,K51,2*%
%TO.N,Net-(D52-Pad2)*%
X296354500Y-125888750D03*
%TD*%
%TO.P,K52,1*%
%TO.N,/col13*%
X319146500Y-128428750D03*
%TO.P,K52,2*%
%TO.N,Net-(D53-Pad2)*%
X332073500Y-125888750D03*
%TD*%
%TO.P,K53,2*%
%TO.N,Net-(D54-Pad2)*%
X84423300Y-144938750D03*
%TO.P,K53,1*%
%TO.N,/col0*%
X71496300Y-147478750D03*
%TD*%
%TO.P,K54,1*%
%TO.N,/col1*%
X95308700Y-147478750D03*
%TO.P,K54,2*%
%TO.N,Net-(D55-Pad2)*%
X108235700Y-144938750D03*
%TD*%
%TO.P,K55,1*%
%TO.N,/col3*%
X119121300Y-147478750D03*
%TO.P,K55,2*%
%TO.N,Net-(D56-Pad2)*%
X132048300Y-144938750D03*
%TD*%
%TO.P,K56,1*%
%TO.N,/col6*%
X190558500Y-147478750D03*
%TO.P,K56,2*%
%TO.N,Net-(D57-Pad2)*%
X203485500Y-144938750D03*
%TD*%
%TO.P,K57,1*%
%TO.N,/col10*%
X261996500Y-147478750D03*
%TO.P,K57,2*%
%TO.N,Net-(D58-Pad2)*%
X274923500Y-144938750D03*
%TD*%
%TO.P,K58,2*%
%TO.N,Net-(D59-Pad2)*%
X298735500Y-144938750D03*
%TO.P,K58,1*%
%TO.N,/col11*%
X285808500Y-147478750D03*
%TD*%
%TO.P,K59,1*%
%TO.N,/col13*%
X309621500Y-147478750D03*
%TO.P,K59,2*%
%TO.N,Net-(D60-Pad2)*%
X322548500Y-144938750D03*
%TD*%
%TO.P,K60,2*%
%TO.N,Net-(D61-Pad2)*%
X346360500Y-144938750D03*
%TO.P,K60,1*%
%TO.N,/col14*%
X333433500Y-147478750D03*
%TD*%
D13*
%TO.P,SW1,S1*%
%TO.N,/col0*%
X78818700Y-66462750D03*
%TO.P,SW1,S2*%
%TO.N,Net-(D1-Pad2)*%
X73818700Y-66462750D03*
D14*
%TO.P,SW1,MP*%
%TO.N,N/C*%
X81918700Y-73462750D03*
X70718700Y-73462750D03*
D13*
%TO.P,SW1,B*%
%TO.N,/rotA*%
X78818700Y-80962750D03*
%TO.P,SW1,C*%
%TO.N,/vcc*%
X76318700Y-80962750D03*
D15*
%TO.P,SW1,A*%
%TO.N,/rotB*%
X73818700Y-80962750D03*
%TD*%
D16*
%TO.P,U1,1*%
%TO.N,/col6*%
X71755000Y-119538750D03*
D17*
%TO.P,U1,2*%
%TO.N,/col5*%
X74295000Y-119538750D03*
%TO.P,U1,3*%
%TO.N,+5V*%
X76835000Y-119538750D03*
%TO.P,U1,4*%
%TO.N,Net-(U1-Pad4)*%
X79375000Y-119538750D03*
%TO.P,U1,5*%
%TO.N,/col4*%
X81915000Y-119538750D03*
%TO.P,U1,6*%
%TO.N,/col3*%
X84455000Y-119538750D03*
%TO.P,U1,7*%
%TO.N,/col7*%
X86995000Y-119538750D03*
%TO.P,U1,8*%
%TO.N,/col9*%
X89535000Y-119538750D03*
%TO.P,U1,9*%
%TO.N,/col10*%
X92075000Y-119538750D03*
%TO.P,U1,10*%
%TO.N,Net-(U1-Pad10)*%
X94615000Y-119538750D03*
%TO.P,U1,11*%
%TO.N,/row4*%
X97155000Y-119538750D03*
%TO.P,U1,13*%
%TO.N,/col1*%
X99695000Y-104298750D03*
%TO.P,U1,14*%
%TO.N,/row2*%
X97155000Y-104298750D03*
%TO.P,U1,15*%
%TO.N,/row3*%
X94615000Y-104298750D03*
%TO.P,U1,16*%
%TO.N,/row1*%
X92075000Y-104298750D03*
%TO.P,U1,17*%
%TO.N,/rotB*%
X89535000Y-104298750D03*
%TO.P,U1,18*%
%TO.N,/rotA*%
X86995000Y-104298750D03*
%TO.P,U1,19*%
%TO.N,/col14*%
X84455000Y-104298750D03*
%TO.P,U1,20*%
%TO.N,/col13*%
X81915000Y-104298750D03*
%TO.P,U1,21*%
%TO.N,/vcc*%
X79375000Y-104298750D03*
%TO.P,U1,22*%
%TO.N,Net-(U1-Pad22)*%
X76835000Y-104298750D03*
%TO.P,U1,23*%
%TO.N,Net-(U1-Pad23)*%
X74295000Y-104298750D03*
%TO.P,U1,12*%
%TO.N,/col0*%
X99695000Y-119310150D03*
%TO.P,U1,24*%
%TO.N,/row0*%
X71755000Y-104298750D03*
%TO.P,U1,29*%
%TO.N,/col11*%
X99695000Y-106838750D03*
%TO.P,U1,28*%
%TO.N,/col12*%
X99695000Y-109378750D03*
%TO.P,U1,27*%
%TO.N,Net-(U1-Pad27)*%
X99695000Y-111918750D03*
%TO.P,U1,26*%
%TO.N,/col8*%
X99695000Y-114458750D03*
%TO.P,U1,25*%
%TO.N,/col2*%
X99695000Y-116998750D03*
%TD*%
D12*
%TO.P,K15,2*%
%TO.N,Net-(D16-Pad2)*%
X110617000Y-87788750D03*
%TO.P,K15,1*%
%TO.N,/col2*%
X97690000Y-90328750D03*
%TD*%
%TO.P,K16,1*%
%TO.N,/col3*%
X116740000Y-90328750D03*
%TO.P,K16,2*%
%TO.N,Net-(D17-Pad2)*%
X129667000Y-87788750D03*
%TD*%
%TO.P,K17,2*%
%TO.N,Net-(D18-Pad2)*%
X148717000Y-87788750D03*
%TO.P,K17,1*%
%TO.N,/col4*%
X135790000Y-90328750D03*
%TD*%
%TO.P,K18,1*%
%TO.N,/col5*%
X154840500Y-90328750D03*
%TO.P,K18,2*%
%TO.N,Net-(D19-Pad2)*%
X167767500Y-87788750D03*
%TD*%
%TO.P,K19,1*%
%TO.N,/col6*%
X173890500Y-90328750D03*
%TO.P,K19,2*%
%TO.N,Net-(D20-Pad2)*%
X186817500Y-87788750D03*
%TD*%
%TO.P,K20,2*%
%TO.N,Net-(D21-Pad2)*%
X205867500Y-87788750D03*
%TO.P,K20,1*%
%TO.N,/col7*%
X192940500Y-90328750D03*
%TD*%
%TO.P,K21,2*%
%TO.N,Net-(D22-Pad2)*%
X224917500Y-87788750D03*
%TO.P,K21,1*%
%TO.N,/col8*%
X211990500Y-90328750D03*
%TD*%
%TO.P,K22,1*%
%TO.N,/col9*%
X231040500Y-90328750D03*
%TO.P,K22,2*%
%TO.N,Net-(D23-Pad2)*%
X243967500Y-87788750D03*
%TD*%
%TO.P,K23,1*%
%TO.N,/col10*%
X250090500Y-90328750D03*
%TO.P,K23,2*%
%TO.N,Net-(D24-Pad2)*%
X263017500Y-87788750D03*
%TD*%
%TO.P,K24,1*%
%TO.N,/col11*%
X269140500Y-90328750D03*
%TO.P,K24,2*%
%TO.N,Net-(D25-Pad2)*%
X282067500Y-87788750D03*
%TD*%
%TO.P,K25,2*%
%TO.N,Net-(D26-Pad2)*%
X301117500Y-87788750D03*
%TO.P,K25,1*%
%TO.N,/col12*%
X288190500Y-90328750D03*
%TD*%
%TO.P,K26,2*%
%TO.N,Net-(D27-Pad2)*%
X320167500Y-87788750D03*
%TO.P,K26,1*%
%TO.N,/col13*%
X307240500Y-90328750D03*
%TD*%
D18*
%TO.N,Net-(D29-Pad2)*%
X91095100Y-108174050D03*
%TO.N,/col4*%
X131743600Y-121803150D03*
%TO.N,/col5*%
X151561900Y-122275750D03*
%TO.N,/col6*%
X172973500Y-123007450D03*
%TO.N,/col7*%
X190656000Y-121024550D03*
%TO.N,/col8*%
X216752500Y-114458750D03*
%TO.N,/col9*%
X233454900Y-119730250D03*
%TO.N,/col10*%
X251160800Y-118905850D03*
%TO.N,/col11*%
X251884300Y-104240150D03*
%TO.N,/col12*%
X285268400Y-105010450D03*
%TO.N,/col14*%
X321634000Y-103081250D03*
%TO.N,/col0*%
X91739700Y-109342750D03*
%TO.N,/col13*%
X299883300Y-101922750D03*
%TD*%
D19*
%TO.N,Net-(D1-Pad2)*%
X73818700Y-66462750D02*
X78574000Y-71218050D01*
X78574000Y-71218050D02*
X82753200Y-71218050D01*
X82753200Y-71218050D02*
X85725000Y-74189850D01*
X85725000Y-74189850D02*
X85725000Y-74680750D01*
%TO.N,/row0*%
X71755000Y-104298750D02*
X71755000Y-89434050D01*
X71755000Y-89434050D02*
X78708300Y-82480750D01*
X78708300Y-82480750D02*
X85725000Y-82480750D01*
%TO.N,Net-(D2-Pad2)*%
X101092000Y-68738750D02*
X101092000Y-70314050D01*
X101092000Y-70314050D02*
X99079400Y-72326650D01*
X99079400Y-72326650D02*
X99079400Y-78510150D01*
X99079400Y-78510150D02*
X99150000Y-78580750D01*
%TO.N,Net-(D3-Pad2)*%
X120142000Y-68738750D02*
X120142000Y-70314050D01*
X120142000Y-70314050D02*
X118129400Y-72326650D01*
X118129400Y-72326650D02*
X118129400Y-78510150D01*
X118129400Y-78510150D02*
X118200000Y-78580750D01*
%TO.N,Net-(D4-Pad2)*%
X139192000Y-68738750D02*
X139192000Y-70314050D01*
X139192000Y-70314050D02*
X137179400Y-72326650D01*
X137179400Y-72326650D02*
X137179400Y-78510150D01*
X137179400Y-78510150D02*
X137250000Y-78580750D01*
%TO.N,Net-(D5-Pad2)*%
X158241500Y-68738750D02*
X158241500Y-70314050D01*
X158241500Y-70314050D02*
X156228900Y-72326650D01*
X156228900Y-72326650D02*
X156228900Y-78510150D01*
X156228900Y-78510150D02*
X156299500Y-78580750D01*
%TO.N,Net-(D6-Pad2)*%
X177291500Y-68738750D02*
X177291500Y-70314050D01*
X177291500Y-70314050D02*
X175278900Y-72326650D01*
X175278900Y-72326650D02*
X175278900Y-78510150D01*
X175278900Y-78510150D02*
X175349500Y-78580750D01*
%TO.N,Net-(D7-Pad2)*%
X196341500Y-68738750D02*
X196341500Y-70314050D01*
X196341500Y-70314050D02*
X194328900Y-72326650D01*
X194328900Y-72326650D02*
X194328900Y-78510150D01*
X194328900Y-78510150D02*
X194399500Y-78580750D01*
%TO.N,Net-(D8-Pad2)*%
X215391500Y-68738750D02*
X215391500Y-70314050D01*
X215391500Y-70314050D02*
X213378900Y-72326650D01*
X213378900Y-72326650D02*
X213378900Y-78510150D01*
X213378900Y-78510150D02*
X213449500Y-78580750D01*
%TO.N,Net-(D9-Pad2)*%
X234441500Y-68738750D02*
X234441500Y-70314050D01*
X234441500Y-70314050D02*
X232428900Y-72326650D01*
X232428900Y-72326650D02*
X232428900Y-78510150D01*
X232428900Y-78510150D02*
X232499500Y-78580750D01*
%TO.N,Net-(D10-Pad2)*%
X253491500Y-68738750D02*
X253491500Y-70314050D01*
X253491500Y-70314050D02*
X251478900Y-72326650D01*
X251478900Y-72326650D02*
X251478900Y-78510150D01*
X251478900Y-78510150D02*
X251549500Y-78580750D01*
%TO.N,Net-(D11-Pad2)*%
X272541500Y-68738750D02*
X272541500Y-70314050D01*
X272541500Y-70314050D02*
X270528900Y-72326650D01*
X270528900Y-72326650D02*
X270528900Y-78510150D01*
X270528900Y-78510150D02*
X270599500Y-78580750D01*
%TO.N,Net-(D12-Pad2)*%
X291591500Y-68738750D02*
X291591500Y-70314050D01*
X291591500Y-70314050D02*
X289578900Y-72326650D01*
X289578900Y-72326650D02*
X289578900Y-78510150D01*
X289578900Y-78510150D02*
X289649500Y-78580750D01*
%TO.N,Net-(D13-Pad2)*%
X310641500Y-68738750D02*
X310641500Y-70314050D01*
X310641500Y-70314050D02*
X308628900Y-72326650D01*
X308628900Y-72326650D02*
X308628900Y-78510150D01*
X308628900Y-78510150D02*
X308699500Y-78580750D01*
%TO.N,Net-(D14-Pad2)*%
X339217500Y-68738750D02*
X339217500Y-70314050D01*
X339217500Y-70314050D02*
X337204900Y-72326650D01*
X337204900Y-72326650D02*
X337204900Y-78510150D01*
X337204900Y-78510150D02*
X337275500Y-78580750D01*
%TO.N,Net-(D15-Pad2)*%
X86804500Y-87788750D02*
X86804500Y-89364050D01*
X86804500Y-89364050D02*
X84791900Y-91376650D01*
X84791900Y-91376650D02*
X84791900Y-97560150D01*
X84791900Y-97560150D02*
X84862500Y-97630750D01*
%TO.N,Net-(D16-Pad2)*%
X110617000Y-87788750D02*
X110617000Y-89364050D01*
X110617000Y-89364050D02*
X108604400Y-91376650D01*
X108604400Y-91376650D02*
X108604400Y-97560150D01*
X108604400Y-97560150D02*
X108675000Y-97630750D01*
%TO.N,Net-(D17-Pad2)*%
X129667000Y-87788750D02*
X129667000Y-89364050D01*
X129667000Y-89364050D02*
X127654400Y-91376650D01*
X127654400Y-91376650D02*
X127654400Y-97560150D01*
X127654400Y-97560150D02*
X127725000Y-97630750D01*
%TO.N,Net-(D18-Pad2)*%
X148717000Y-87788750D02*
X148717000Y-89364050D01*
X148717000Y-89364050D02*
X146704400Y-91376650D01*
X146704400Y-91376650D02*
X146704400Y-97560150D01*
X146704400Y-97560150D02*
X146775000Y-97630750D01*
%TO.N,Net-(D19-Pad2)*%
X167767500Y-87788750D02*
X167767500Y-89364050D01*
X167767500Y-89364050D02*
X165754900Y-91376650D01*
X165754900Y-91376650D02*
X165754900Y-97560150D01*
X165754900Y-97560150D02*
X165825500Y-97630750D01*
%TO.N,Net-(D20-Pad2)*%
X186817500Y-87788750D02*
X186817500Y-89364050D01*
X186817500Y-89364050D02*
X184804900Y-91376650D01*
X184804900Y-91376650D02*
X184804900Y-97560150D01*
X184804900Y-97560150D02*
X184875500Y-97630750D01*
%TO.N,Net-(D21-Pad2)*%
X205867500Y-87788750D02*
X205867500Y-89364050D01*
X205867500Y-89364050D02*
X203854900Y-91376650D01*
X203854900Y-91376650D02*
X203854900Y-97560150D01*
X203854900Y-97560150D02*
X203925500Y-97630750D01*
%TO.N,Net-(D22-Pad2)*%
X224917500Y-87788750D02*
X224917500Y-89364050D01*
X224917500Y-89364050D02*
X222904900Y-91376650D01*
X222904900Y-91376650D02*
X222904900Y-97560150D01*
X222904900Y-97560150D02*
X222975500Y-97630750D01*
%TO.N,Net-(D23-Pad2)*%
X243967500Y-87788750D02*
X243967500Y-89364050D01*
X243967500Y-89364050D02*
X241954900Y-91376650D01*
X241954900Y-91376650D02*
X241954900Y-97560150D01*
X241954900Y-97560150D02*
X242025500Y-97630750D01*
%TO.N,Net-(D24-Pad2)*%
X263017500Y-87788750D02*
X263017500Y-89364050D01*
X263017500Y-89364050D02*
X261004900Y-91376650D01*
X261004900Y-91376650D02*
X261004900Y-97560150D01*
X261004900Y-97560150D02*
X261075500Y-97630750D01*
%TO.N,Net-(D25-Pad2)*%
X282067500Y-87788750D02*
X282067500Y-89364050D01*
X282067500Y-89364050D02*
X280054900Y-91376650D01*
X280054900Y-91376650D02*
X280054900Y-97560150D01*
X280054900Y-97560150D02*
X280125500Y-97630750D01*
%TO.N,Net-(D26-Pad2)*%
X301117500Y-87788750D02*
X301117500Y-89364050D01*
X301117500Y-89364050D02*
X299104900Y-91376650D01*
X299104900Y-91376650D02*
X299104900Y-97560150D01*
X299104900Y-97560150D02*
X299175500Y-97630750D01*
%TO.N,Net-(D27-Pad2)*%
X320167500Y-87788750D02*
X320167500Y-89364050D01*
X320167500Y-89364050D02*
X318154900Y-91376650D01*
X318154900Y-91376650D02*
X318154900Y-97560150D01*
X318154900Y-97560150D02*
X318225500Y-97630750D01*
%TO.N,Net-(D28-Pad2)*%
X343979500Y-87788750D02*
X343979500Y-89364050D01*
X343979500Y-89364050D02*
X341966900Y-91376650D01*
X341966900Y-91376650D02*
X341966900Y-97560150D01*
X341966900Y-97560150D02*
X342037500Y-97630750D01*
%TO.N,Net-(D29-Pad2)*%
X89185700Y-106838750D02*
X90786000Y-106838750D01*
X90786000Y-106838750D02*
X90786000Y-107864950D01*
X90786000Y-107864950D02*
X91095100Y-108174050D01*
%TO.N,Net-(D30-Pad2)*%
X115379500Y-106838750D02*
X115379500Y-108414050D01*
X115379500Y-108414050D02*
X113366900Y-110426650D01*
X113366900Y-110426650D02*
X113366900Y-116610150D01*
X113366900Y-116610150D02*
X113437500Y-116680750D01*
%TO.N,Net-(D31-Pad2)*%
X134429500Y-106838750D02*
X134429500Y-108414050D01*
X134429500Y-108414050D02*
X132416900Y-110426650D01*
X132416900Y-110426650D02*
X132416900Y-116610150D01*
X132416900Y-116610150D02*
X132487500Y-116680750D01*
%TO.N,Net-(D32-Pad2)*%
X153479500Y-106838750D02*
X153479500Y-108414050D01*
X153479500Y-108414050D02*
X151466900Y-110426650D01*
X151466900Y-110426650D02*
X151466900Y-116610150D01*
X151466900Y-116610150D02*
X151537500Y-116680750D01*
%TO.N,Net-(D33-Pad2)*%
X172370500Y-106838750D02*
X172370500Y-108414050D01*
X172370500Y-108414050D02*
X170406600Y-110377950D01*
X170406600Y-110377950D02*
X170406600Y-116499850D01*
X170406600Y-116499850D02*
X170587500Y-116680750D01*
%TO.N,Net-(D34-Pad2)*%
X191579500Y-106838750D02*
X191579500Y-108414050D01*
X191579500Y-108414050D02*
X189566900Y-110426650D01*
X189566900Y-110426650D02*
X189566900Y-116610150D01*
X189566900Y-116610150D02*
X189637500Y-116680750D01*
%TO.N,Net-(D35-Pad2)*%
X210629500Y-106838750D02*
X210629500Y-108414050D01*
X210629500Y-108414050D02*
X208616900Y-110426650D01*
X208616900Y-110426650D02*
X208616900Y-116610150D01*
X208616900Y-116610150D02*
X208687500Y-116680750D01*
%TO.N,Net-(D36-Pad2)*%
X229679500Y-106838750D02*
X229679500Y-108414050D01*
X229679500Y-108414050D02*
X227666900Y-110426650D01*
X227666900Y-110426650D02*
X227666900Y-116610150D01*
X227666900Y-116610150D02*
X227737500Y-116680750D01*
%TO.N,Net-(D37-Pad2)*%
X248729500Y-106838750D02*
X248729500Y-108414050D01*
X248729500Y-108414050D02*
X246716900Y-110426650D01*
X246716900Y-110426650D02*
X246716900Y-116610150D01*
X246716900Y-116610150D02*
X246787500Y-116680750D01*
%TO.N,Net-(D38-Pad2)*%
X267779500Y-106838750D02*
X267779500Y-108414050D01*
X267779500Y-108414050D02*
X265766900Y-110426650D01*
X265766900Y-110426650D02*
X265766900Y-116610150D01*
X265766900Y-116610150D02*
X265837500Y-116680750D01*
%TO.N,Net-(D39-Pad2)*%
X286829500Y-106838750D02*
X286829500Y-108414050D01*
X286829500Y-108414050D02*
X284833400Y-110410150D01*
X284833400Y-110410150D02*
X284833400Y-116510650D01*
X284833400Y-116510650D02*
X285003500Y-116680750D01*
%TO.N,Net-(D40-Pad2)*%
X305879500Y-106838750D02*
X305879500Y-108414050D01*
X305879500Y-108414050D02*
X303866900Y-110426650D01*
X303866900Y-110426650D02*
X303866900Y-116610150D01*
X303866900Y-116610150D02*
X303937500Y-116680750D01*
%TO.N,Net-(D41-Pad2)*%
X336835500Y-106838750D02*
X336835500Y-108414050D01*
X336835500Y-108414050D02*
X334827400Y-110422150D01*
X334827400Y-110422150D02*
X334827400Y-116614650D01*
X334827400Y-116614650D02*
X334893500Y-116680750D01*
%TO.N,Net-(D42-Pad2)*%
X93948300Y-125888750D02*
X93948300Y-127464050D01*
X93948300Y-127464050D02*
X91935700Y-129476650D01*
X91935700Y-129476650D02*
X91935700Y-135660150D01*
X91935700Y-135660150D02*
X92006300Y-135730750D01*
%TO.N,/row3*%
X84206300Y-135730750D02*
X84206300Y-134605450D01*
X94615000Y-104298750D02*
X94615000Y-107552750D01*
X94615000Y-107552750D02*
X87923600Y-114244150D01*
X87923600Y-114244150D02*
X85503800Y-114244150D01*
X85503800Y-114244150D02*
X80645000Y-119102950D01*
X80645000Y-119102950D02*
X80645000Y-121553950D01*
X80645000Y-121553950D02*
X79420900Y-122778050D01*
X79420900Y-122778050D02*
X79420900Y-129820050D01*
X79420900Y-129820050D02*
X84206300Y-134605450D01*
%TO.N,Net-(D43-Pad2)*%
X124845700Y-125888750D02*
X124845700Y-127464050D01*
X124845700Y-127464050D02*
X122806700Y-129503050D01*
X122806700Y-129503050D02*
X122806700Y-135574950D01*
X122806700Y-135574950D02*
X122962500Y-135730750D01*
%TO.N,Net-(D44-Pad2)*%
X143954500Y-125888750D02*
X143954500Y-127464050D01*
X143954500Y-127464050D02*
X141941900Y-129476650D01*
X141941900Y-129476650D02*
X141941900Y-135660150D01*
X141941900Y-135660150D02*
X142012500Y-135730750D01*
%TO.N,Net-(D45-Pad2)*%
X163004500Y-125888750D02*
X163004500Y-127464050D01*
X163004500Y-127464050D02*
X160991900Y-129476650D01*
X160991900Y-129476650D02*
X160991900Y-135660150D01*
X160991900Y-135660150D02*
X161062500Y-135730750D01*
%TO.N,Net-(D46-Pad2)*%
X182054500Y-125888750D02*
X182054500Y-127464050D01*
X182054500Y-127464050D02*
X180041900Y-129476650D01*
X180041900Y-129476650D02*
X180041900Y-135660150D01*
X180041900Y-135660150D02*
X180112500Y-135730750D01*
%TO.N,Net-(D47-Pad2)*%
X201104500Y-125888750D02*
X201104500Y-127464050D01*
X201104500Y-127464050D02*
X199091900Y-129476650D01*
X199091900Y-129476650D02*
X199091900Y-135660150D01*
X199091900Y-135660150D02*
X199162500Y-135730750D01*
%TO.N,Net-(D48-Pad2)*%
X220154500Y-125888750D02*
X220154500Y-127464050D01*
X220154500Y-127464050D02*
X218141900Y-129476650D01*
X218141900Y-129476650D02*
X218141900Y-135660150D01*
X218141900Y-135660150D02*
X218212500Y-135730750D01*
%TO.N,Net-(D49-Pad2)*%
X239204500Y-125888750D02*
X239204500Y-127464050D01*
X239204500Y-127464050D02*
X237191900Y-129476650D01*
X237191900Y-129476650D02*
X237191900Y-135660150D01*
X237191900Y-135660150D02*
X237262500Y-135730750D01*
%TO.N,Net-(D50-Pad2)*%
X258254500Y-125888750D02*
X258254500Y-127464050D01*
X258254500Y-127464050D02*
X256241900Y-129476650D01*
X256241900Y-129476650D02*
X256241900Y-135660150D01*
X256241900Y-135660150D02*
X256312500Y-135730750D01*
%TO.N,Net-(D51-Pad2)*%
X277304500Y-125888750D02*
X277304500Y-127464050D01*
X277304500Y-127464050D02*
X275291900Y-129476650D01*
X275291900Y-129476650D02*
X275291900Y-135660150D01*
X275291900Y-135660150D02*
X275362500Y-135730750D01*
%TO.N,Net-(D52-Pad2)*%
X296354500Y-125888750D02*
X296354500Y-127464050D01*
X296354500Y-127464050D02*
X294341900Y-129476650D01*
X294341900Y-129476650D02*
X294341900Y-135660150D01*
X294341900Y-135660150D02*
X294412500Y-135730750D01*
%TO.N,Net-(D53-Pad2)*%
X332073500Y-125888750D02*
X332073500Y-127464050D01*
X332073500Y-127464050D02*
X330060900Y-129476650D01*
X330060900Y-129476650D02*
X330060900Y-135660150D01*
X330060900Y-135660150D02*
X330131500Y-135730750D01*
%TO.N,Net-(D54-Pad2)*%
X84423300Y-144938750D02*
X84423300Y-146514050D01*
X84423300Y-146514050D02*
X82410700Y-148526650D01*
X82410700Y-148526650D02*
X82410700Y-154710150D01*
X82410700Y-154710150D02*
X82481300Y-154780750D01*
%TO.N,/row4*%
X97155000Y-119538750D02*
X100411700Y-122795450D01*
X100411700Y-122795450D02*
X100411700Y-148671350D01*
X100411700Y-148671350D02*
X98493700Y-150589350D01*
X98493700Y-150589350D02*
X98493700Y-154780750D01*
%TO.N,Net-(D55-Pad2)*%
X108235700Y-144938750D02*
X108235700Y-146514050D01*
X108235700Y-146514050D02*
X106223100Y-148526650D01*
X106223100Y-148526650D02*
X106223100Y-154710150D01*
X106223100Y-154710150D02*
X106293700Y-154780750D01*
%TO.N,Net-(D56-Pad2)*%
X132048300Y-144938750D02*
X132048300Y-146514050D01*
X132048300Y-146514050D02*
X130035700Y-148526650D01*
X130035700Y-148526650D02*
X130035700Y-154710150D01*
X130035700Y-154710150D02*
X130106300Y-154780750D01*
%TO.N,Net-(D57-Pad2)*%
X203485500Y-144938750D02*
X203485500Y-146514050D01*
X203485500Y-146514050D02*
X201472900Y-148526650D01*
X201472900Y-148526650D02*
X201472900Y-154710150D01*
X201472900Y-154710150D02*
X201543500Y-154780750D01*
%TO.N,Net-(D58-Pad2)*%
X274923500Y-144938750D02*
X274923500Y-146514050D01*
X274923500Y-146514050D02*
X272910900Y-148526650D01*
X272910900Y-148526650D02*
X272910900Y-154710150D01*
X272910900Y-154710150D02*
X272981500Y-154780750D01*
%TO.N,Net-(D59-Pad2)*%
X298735500Y-144938750D02*
X298735500Y-146514050D01*
X298735500Y-146514050D02*
X296722900Y-148526650D01*
X296722900Y-148526650D02*
X296722900Y-154710150D01*
X296722900Y-154710150D02*
X296793500Y-154780750D01*
%TO.N,Net-(D60-Pad2)*%
X322548500Y-144938750D02*
X322548500Y-146514050D01*
X322548500Y-146514050D02*
X320535900Y-148526650D01*
X320535900Y-148526650D02*
X320535900Y-154710150D01*
X320535900Y-154710150D02*
X320606500Y-154780750D01*
%TO.N,Net-(D61-Pad2)*%
X346360500Y-144938750D02*
X346360500Y-146514050D01*
X346360500Y-146514050D02*
X344347900Y-148526650D01*
X344347900Y-148526650D02*
X344347900Y-154710150D01*
X344347900Y-154710150D02*
X344418500Y-154780750D01*
%TO.N,/col1*%
X99282700Y-103886350D02*
X95132800Y-99736550D01*
X95132800Y-99736550D02*
X95132800Y-85364950D01*
X95132800Y-85364950D02*
X88165000Y-78397150D01*
X88165000Y-78397150D02*
X88165000Y-71278750D01*
X99695000Y-104298750D02*
X99282700Y-103886350D01*
X81021300Y-126853450D02*
X83250900Y-124623850D01*
X83250900Y-124623850D02*
X83250900Y-118980850D01*
X83250900Y-118980850D02*
X86695500Y-115536250D01*
X86695500Y-115536250D02*
X87632800Y-115536250D01*
X87632800Y-115536250D02*
X99282700Y-103886350D01*
X81021300Y-128428750D02*
X81021300Y-126853450D01*
X95308700Y-147478750D02*
X95308700Y-144730850D01*
X95308700Y-144730850D02*
X84124400Y-133546550D01*
X84124400Y-133546550D02*
X83869300Y-133546550D01*
X83869300Y-133546550D02*
X81021300Y-130698550D01*
X81021300Y-130698550D02*
X81021300Y-128428750D01*
%TO.N,/col2*%
X101806400Y-116741050D02*
X101548700Y-116998750D01*
X101548700Y-116998750D02*
X99695000Y-116998750D01*
X102452500Y-109378750D02*
X102452500Y-116094950D01*
X102452500Y-116094950D02*
X101806400Y-116741050D01*
X97690000Y-90328750D02*
X97690000Y-96885550D01*
X97690000Y-96885550D02*
X102452500Y-101648050D01*
X102452500Y-101648050D02*
X102452500Y-109378750D01*
X97690000Y-90328750D02*
X97690000Y-88753450D01*
X97690000Y-88753450D02*
X107215000Y-79228450D01*
X107215000Y-79228450D02*
X107215000Y-71278750D01*
X111918700Y-126853450D02*
X101806400Y-116741050D01*
X111918700Y-128428750D02*
X111918700Y-126853450D01*
%TO.N,/col3*%
X131027500Y-128428750D02*
X131027500Y-130004050D01*
X119121300Y-140109750D02*
X117418200Y-140109750D01*
X117418200Y-140109750D02*
X102434000Y-125125550D01*
X102434000Y-125125550D02*
X102434000Y-124180850D01*
X102434000Y-124180850D02*
X98425000Y-120171850D01*
X98425000Y-120171850D02*
X98425000Y-119070750D01*
X98425000Y-119070750D02*
X97678500Y-118324250D01*
X97678500Y-118324250D02*
X85669500Y-118324250D01*
X85669500Y-118324250D02*
X84455000Y-119538750D01*
X131027500Y-130004050D02*
X120921800Y-140109750D01*
X120921800Y-140109750D02*
X119121300Y-140109750D01*
X119121300Y-140109750D02*
X119121300Y-145903450D01*
X116740000Y-90328750D02*
X116740000Y-103040950D01*
X116740000Y-103040950D02*
X121502500Y-107803450D01*
X119121300Y-147478750D02*
X119121300Y-145903450D01*
X131027500Y-127641050D02*
X131027500Y-128428750D01*
X131027500Y-127641050D02*
X131027500Y-126853450D01*
X116740000Y-90328750D02*
X116740000Y-88753450D01*
X126265000Y-71278750D02*
X126265000Y-79228450D01*
X126265000Y-79228450D02*
X116740000Y-88753450D01*
X131027500Y-126853450D02*
X121502500Y-117328450D01*
X121502500Y-117328450D02*
X121502500Y-110954050D01*
X121502500Y-109378750D02*
X121502500Y-110954050D01*
X121502500Y-109378750D02*
X121502500Y-107803450D01*
%TO.N,/col4*%
X140552500Y-118470850D02*
X135075900Y-118470850D01*
X135075900Y-118470850D02*
X131743600Y-121803150D01*
X150077500Y-126853450D02*
X141694900Y-118470850D01*
X141694900Y-118470850D02*
X140552500Y-118470850D01*
X140552500Y-118470850D02*
X140552500Y-110954050D01*
X135790000Y-90328750D02*
X135790000Y-88753450D01*
X135790000Y-88753450D02*
X145314500Y-79228950D01*
X145314500Y-79228950D02*
X145314500Y-71278750D01*
X140552500Y-107803450D02*
X135790000Y-103040950D01*
X135790000Y-103040950D02*
X135790000Y-90328750D01*
X150077500Y-128428750D02*
X150077500Y-126853450D01*
X140552500Y-109378750D02*
X140552500Y-110954050D01*
X140552500Y-109378750D02*
X140552500Y-107803450D01*
%TO.N,/col5*%
X159443500Y-118101450D02*
X155736200Y-118101450D01*
X155736200Y-118101450D02*
X151561900Y-122275750D01*
X159443500Y-118101450D02*
X168195500Y-126853450D01*
X168195500Y-126853450D02*
X169127500Y-126853450D01*
X154840500Y-90328750D02*
X154840500Y-88753450D01*
X154840500Y-88753450D02*
X164364500Y-79229450D01*
X164364500Y-79229450D02*
X164364500Y-71278750D01*
X159443500Y-107803450D02*
X154840500Y-103200450D01*
X154840500Y-103200450D02*
X154840500Y-90328750D01*
X159443500Y-118101450D02*
X159443500Y-110954050D01*
X169127500Y-128428750D02*
X169127500Y-126853450D01*
X159443500Y-109378750D02*
X159443500Y-110954050D01*
X159443500Y-109378750D02*
X159443500Y-107803450D01*
%TO.N,/col6*%
X178652500Y-117328450D02*
X172973500Y-123007450D01*
X178652500Y-117328450D02*
X188177500Y-126853450D01*
X178652500Y-109378750D02*
X178652500Y-117328450D01*
X188177500Y-128428750D02*
X188177500Y-126853450D01*
X178652500Y-108956650D02*
X178652500Y-109378750D01*
X178652500Y-108956650D02*
X178652500Y-107803450D01*
X190558500Y-147478750D02*
X190558500Y-145903450D01*
X188177500Y-128428750D02*
X188177500Y-143522450D01*
X188177500Y-143522450D02*
X190558500Y-145903450D01*
X173890500Y-90328750D02*
X173890500Y-88753450D01*
X173890500Y-88753450D02*
X183414500Y-79229450D01*
X183414500Y-79229450D02*
X183414500Y-71278750D01*
X178652500Y-107803450D02*
X173890500Y-103041450D01*
X173890500Y-103041450D02*
X173890500Y-90328750D01*
%TO.N,/col7*%
X197702500Y-118101450D02*
X193579100Y-118101450D01*
X193579100Y-118101450D02*
X190656000Y-121024550D01*
X207227500Y-126853450D02*
X198475500Y-118101450D01*
X198475500Y-118101450D02*
X197702500Y-118101450D01*
X197702500Y-118101450D02*
X197702500Y-109378750D01*
X192940500Y-90328750D02*
X192940500Y-88753450D01*
X192940500Y-88753450D02*
X202464500Y-79229450D01*
X202464500Y-79229450D02*
X202464500Y-71278750D01*
X197702500Y-107803450D02*
X192940500Y-103041450D01*
X192940500Y-103041450D02*
X192940500Y-90328750D01*
X197702500Y-109378750D02*
X197702500Y-107803450D01*
X207227500Y-128428750D02*
X207227500Y-126853450D01*
%TO.N,/col8*%
X211990500Y-90328750D02*
X211990500Y-88753450D01*
X211990500Y-88753450D02*
X221514500Y-79229450D01*
X221514500Y-79229450D02*
X221514500Y-71278750D01*
X216752500Y-107803450D02*
X211990500Y-103041450D01*
X211990500Y-103041450D02*
X211990500Y-90328750D01*
X216752500Y-109378750D02*
X216752500Y-107803450D01*
X216752500Y-110161150D02*
X216752500Y-109378750D01*
X216752500Y-110161150D02*
X216752500Y-110954050D01*
X226277500Y-128428750D02*
X226277500Y-126853450D01*
X216752500Y-114458750D02*
X216752500Y-110954050D01*
X226277500Y-126853450D02*
X216752500Y-117328450D01*
X216752500Y-117328450D02*
X216752500Y-114458750D01*
%TO.N,/col9*%
X231040500Y-90328750D02*
X231040500Y-88753450D01*
X231040500Y-88753450D02*
X240564500Y-79229450D01*
X240564500Y-79229450D02*
X240564500Y-71278750D01*
X235802500Y-107803450D02*
X231040500Y-103041450D01*
X231040500Y-103041450D02*
X231040500Y-90328750D01*
X235829600Y-117355550D02*
X233454900Y-119730250D01*
X245327500Y-126853450D02*
X235829600Y-117355550D01*
X235829600Y-117355550D02*
X235802500Y-117328450D01*
X235802500Y-117328450D02*
X235802500Y-109378750D01*
X245327500Y-128428750D02*
X245327500Y-126853450D01*
X235802500Y-109378750D02*
X235802500Y-107803450D01*
%TO.N,/col10*%
X250090500Y-90328750D02*
X250090500Y-88753450D01*
X250090500Y-88753450D02*
X259614500Y-79229450D01*
X259614500Y-79229450D02*
X259614500Y-71278750D01*
X254852500Y-107803450D02*
X254389800Y-107803450D01*
X254389800Y-107803450D02*
X250090500Y-103504150D01*
X250090500Y-103504150D02*
X250090500Y-90328750D01*
X254852500Y-117328450D02*
X264377500Y-126853450D01*
X254852500Y-109378750D02*
X254852500Y-117328450D01*
X251160800Y-118905850D02*
X253275100Y-118905850D01*
X253275100Y-118905850D02*
X254852500Y-117328450D01*
X264377500Y-128428750D02*
X264377500Y-126853450D01*
X254852500Y-108956650D02*
X254852500Y-109378750D01*
X254852500Y-108956650D02*
X254852500Y-107803450D01*
X264377500Y-128428750D02*
X264377500Y-130004050D01*
X261996500Y-147478750D02*
X261996500Y-132385050D01*
X261996500Y-132385050D02*
X264377500Y-130004050D01*
%TO.N,/col11*%
X269140500Y-103261050D02*
X269140500Y-90328750D01*
X273902500Y-107803450D02*
X273682900Y-107803450D01*
X273682900Y-107803450D02*
X269140500Y-103261050D01*
X269140500Y-103261050D02*
X252863400Y-103261050D01*
X252863400Y-103261050D02*
X251884300Y-104240150D01*
X269140500Y-90328750D02*
X269140500Y-88753450D01*
X269140500Y-88753450D02*
X278664500Y-79229450D01*
X278664500Y-79229450D02*
X278664500Y-71278750D01*
X283427500Y-128428750D02*
X283427500Y-126853450D01*
X283427500Y-126853450D02*
X273902500Y-117328450D01*
X273902500Y-117328450D02*
X273902500Y-109378750D01*
X285808500Y-145903450D02*
X283427500Y-143522450D01*
X283427500Y-143522450D02*
X283427500Y-128428750D01*
X285808500Y-147478750D02*
X285808500Y-145903450D01*
X273902500Y-109378750D02*
X273902500Y-107803450D01*
%TO.N,/col12*%
X288190500Y-103041450D02*
X286221500Y-105010450D01*
X286221500Y-105010450D02*
X285268400Y-105010450D01*
X288190500Y-90328750D02*
X288190500Y-88753450D01*
X288190500Y-88753450D02*
X297714500Y-79229450D01*
X297714500Y-79229450D02*
X297714500Y-71278750D01*
X288190500Y-103041450D02*
X288190500Y-90328750D01*
X288190500Y-103041450D02*
X292952500Y-107803450D01*
X292952500Y-109378750D02*
X292952500Y-107803450D01*
%TO.N,/col14*%
X333433500Y-147478750D02*
X333433500Y-145903450D01*
X333433500Y-145903450D02*
X333673800Y-145663150D01*
X333673800Y-145663150D02*
X333673800Y-111195350D01*
X333673800Y-111195350D02*
X325559700Y-103081250D01*
X325559700Y-103081250D02*
X321634000Y-103081250D01*
X331052500Y-90328750D02*
X331052500Y-91904050D01*
X331052500Y-91904050D02*
X321634000Y-101322550D01*
X321634000Y-101322550D02*
X321634000Y-103081250D01*
X331052500Y-88753450D02*
X326290500Y-83991450D01*
X326290500Y-83991450D02*
X326290500Y-71278750D01*
X331052500Y-90328750D02*
X331052500Y-88753450D01*
%TO.N,/col0*%
X91395600Y-108899350D02*
X93286400Y-107008550D01*
X93286400Y-107008550D02*
X93286400Y-84792350D01*
X93286400Y-84792350D02*
X86904900Y-78410850D01*
X86904900Y-78410850D02*
X86904900Y-74241150D01*
X86904900Y-74241150D02*
X79126500Y-66462750D01*
X79126500Y-66462750D02*
X78818700Y-66462750D01*
X80580900Y-107521150D02*
X81959100Y-108899350D01*
X81959100Y-108899350D02*
X91395600Y-108899350D01*
X91739700Y-109342750D02*
X91395600Y-108998650D01*
X91395600Y-108998650D02*
X91395600Y-108899350D01*
X80580900Y-107521150D02*
X76541000Y-107521150D01*
X76541000Y-107521150D02*
X76258700Y-107803450D01*
X73877500Y-90328750D02*
X73877500Y-96544550D01*
X73877500Y-96544550D02*
X80580900Y-103247950D01*
X80580900Y-103247950D02*
X80580900Y-107521150D01*
X76258700Y-109378750D02*
X76258700Y-107803450D01*
X76258700Y-109378750D02*
X76258700Y-110954050D01*
X71496300Y-147478750D02*
X71496300Y-145903450D01*
X71496300Y-145903450D02*
X73071600Y-144328150D01*
X73071600Y-144328150D02*
X73071600Y-114141150D01*
X73071600Y-114141150D02*
X76258700Y-110954050D01*
%TO.N,/col13*%
X307240500Y-95287250D02*
X311392300Y-95287250D01*
X311392300Y-95287250D02*
X323908500Y-107803450D01*
X307240500Y-91904050D02*
X307240500Y-95287250D01*
X307240500Y-95287250D02*
X306518800Y-95287250D01*
X306518800Y-95287250D02*
X299883300Y-101922750D01*
X319146500Y-128428750D02*
X319146500Y-130004050D01*
X319146500Y-130004050D02*
X309621500Y-139529050D01*
X309621500Y-139529050D02*
X309621500Y-147478750D01*
X319146500Y-128428750D02*
X319146500Y-115716050D01*
X319146500Y-115716050D02*
X323908500Y-110954050D01*
X323908500Y-109378750D02*
X323908500Y-110954050D01*
X323908500Y-109378750D02*
X323908500Y-107803450D01*
X307240500Y-90328750D02*
X307240500Y-91904050D01*
%TO.N,/rotA*%
X86995000Y-104298750D02*
X88404900Y-102888850D01*
X88404900Y-102888850D02*
X88404900Y-83033750D01*
X88404900Y-83033750D02*
X86333900Y-80962750D01*
X86333900Y-80962750D02*
X78818700Y-80962750D01*
%TO.N,/rotB*%
X89535000Y-104298750D02*
X89535000Y-83526950D01*
X89535000Y-83526950D02*
X85610000Y-79601950D01*
X85610000Y-79601950D02*
X75179500Y-79601950D01*
X75179500Y-79601950D02*
X73818700Y-80962750D01*
%TD*%
M02*
