M48
; DRILL file {KiCad (5.1.9)-1} date 02/15/21 19:25:59
; FORMAT={-:-/ absolute / inch / decimal}
; #@! TF.CreationDate,2021-02-15T19:25:59-05:00
; #@! TF.GenerationSoftware,Kicad,Pcbnew,(5.1.9)-1
; #@! TF.FileFunction,NonPlated,1,2,NPTH
FMAT,2
INCH
T1C0.0689
T2C0.1181
T3C0.1575
%
G90
G05
T1
X2.8938Y-5.9062
X2.9875Y-3.6562
X3.0812Y-4.4062
X3.2688Y-5.1562
X3.2938Y-5.9062
X3.3875Y-3.6562
X3.4812Y-4.4062
X3.55Y-2.9062
X3.6688Y-5.1562
X3.8312Y-5.9062
X3.925Y-3.6562
X3.95Y-2.9062
X4.1125Y-4.4062
X4.2312Y-5.9062
X4.3Y-2.9062
X4.325Y-3.6562
X4.4852Y-5.1562
X4.5125Y-4.4062
X4.675Y-3.6562
X4.7Y-2.9062
X4.7688Y-5.9062
X4.8625Y-4.4062
X4.8852Y-5.1562
X5.05Y-2.9062
X5.075Y-3.6562
X5.1688Y-5.9062
X5.2375Y-5.1562
X5.2625Y-4.4062
X5.425Y-3.6562
X5.45Y-2.9062
X5.6125Y-4.4062
X5.6375Y-5.1562
X5.8Y-2.9062
X5.825Y-3.6562
X5.9875Y-5.1562
X6.0125Y-4.4062
X6.175Y-3.6562
X6.2Y-2.9062
X6.3562Y-4.4062
X6.3875Y-5.1562
X6.55Y-2.9062
X6.575Y-3.6562
X6.7375Y-5.1562
X6.7562Y-4.4062
X6.925Y-3.6562
X6.95Y-2.9062
X7.1125Y-4.4062
X7.1375Y-5.1562
X7.3Y-2.9062
X7.325Y-3.6562
X7.4875Y-5.1562
X7.5125Y-4.4062
X7.5812Y-5.9062
X7.675Y-3.6562
X7.7Y-2.9062
X7.8625Y-4.4062
X7.8875Y-5.1562
X7.9812Y-5.9062
X8.05Y-2.9062
X8.075Y-3.6562
X8.2375Y-5.1562
X8.2625Y-4.4062
X8.425Y-3.6562
X8.45Y-2.9062
X8.6125Y-4.4062
X8.6375Y-5.1562
X8.8Y-2.9062
X8.825Y-3.6562
X8.9875Y-5.1562
X9.0125Y-4.4062
X9.175Y-3.6562
X9.2Y-2.9062
X9.3625Y-4.4062
X9.3875Y-5.1562
X9.55Y-2.9062
X9.575Y-3.6562
X9.7375Y-5.1562
X9.7625Y-4.4062
X9.925Y-3.6562
X9.95Y-2.9062
X10.1125Y-4.4062
X10.1375Y-5.1562
X10.3Y-2.9062
X10.325Y-3.6562
X10.3938Y-5.9062
X10.4875Y-5.1562
X10.5125Y-4.4062
X10.675Y-3.6562
X10.7Y-2.9062
X10.7938Y-5.9062
X10.8625Y-4.4062
X10.8875Y-5.1562
X11.05Y-2.9062
X11.075Y-3.6562
X11.2375Y-5.1562
X11.2625Y-4.4062
X11.3312Y-5.9062
X11.425Y-3.6562
X11.45Y-2.9062
X11.6125Y-4.4062
X11.6375Y-5.1562
X11.7312Y-5.9062
X11.8Y-2.9062
X11.825Y-3.6562
X12.0125Y-4.4062
X12.175Y-3.6562
X12.2Y-2.9062
X12.2688Y-5.9062
X12.575Y-3.6562
X12.6438Y-5.1562
X12.6688Y-5.9062
X12.8312Y-4.4062
X12.925Y-2.9062
X13.0438Y-5.1562
X13.1125Y-3.6562
X13.2062Y-5.9062
X13.2312Y-4.4062
X13.325Y-2.9062
X13.5125Y-3.6562
X13.6062Y-5.9062
T2
X2.9438Y-5.8062
X3.0375Y-3.5562
X3.1312Y-4.3062
X3.1938Y-5.7062
X3.2875Y-3.4562
X3.3188Y-5.0562
X3.3812Y-4.2062
X3.5688Y-4.9562
X3.6Y-2.8062
X3.85Y-2.7062
X3.8812Y-5.8062
X3.975Y-3.5562
X4.1312Y-5.7062
X4.1625Y-4.3062
X4.225Y-3.4562
X4.35Y-2.8062
X4.4125Y-4.2062
X4.5352Y-5.0562
X4.6Y-2.7062
X4.725Y-3.5562
X4.7852Y-4.9562
X4.8188Y-5.8062
X4.9125Y-4.3062
X4.975Y-3.4562
X5.0688Y-5.7062
X5.1Y-2.8062
X5.1625Y-4.2062
X5.2875Y-5.0562
X5.35Y-2.7062
X5.475Y-3.5562
X5.5375Y-4.9562
X5.6625Y-4.3062
X5.725Y-3.4562
X5.85Y-2.8062
X5.9125Y-4.2062
X6.0375Y-5.0562
X6.1Y-2.7062
X6.225Y-3.5562
X6.2875Y-4.9562
X6.4062Y-4.3062
X6.475Y-3.4562
X6.6Y-2.8062
X6.6562Y-4.2062
X6.7875Y-5.0562
X6.85Y-2.7062
X6.975Y-3.5562
X7.0375Y-4.9562
X7.1625Y-4.3062
X7.225Y-3.4562
X7.35Y-2.8062
X7.4125Y-4.2062
X7.5375Y-5.0562
X7.6Y-2.7062
X7.6312Y-5.8062
X7.725Y-3.5562
X7.7875Y-4.9562
X7.8812Y-5.7062
X7.9125Y-4.3062
X7.975Y-3.4562
X8.1Y-2.8062
X8.1625Y-4.2062
X8.2875Y-5.0562
X8.35Y-2.7062
X8.475Y-3.5562
X8.5375Y-4.9562
X8.6625Y-4.3062
X8.725Y-3.4562
X8.85Y-2.8062
X8.9125Y-4.2062
X9.0375Y-5.0562
X9.1Y-2.7062
X9.225Y-3.5562
X9.2875Y-4.9562
X9.4125Y-4.3062
X9.475Y-3.4562
X9.6Y-2.8062
X9.6625Y-4.2062
X9.7875Y-5.0562
X9.85Y-2.7062
X9.975Y-3.5562
X10.0375Y-4.9562
X10.1625Y-4.3062
X10.225Y-3.4562
X10.35Y-2.8062
X10.4125Y-4.2062
X10.4438Y-5.8062
X10.5375Y-5.0562
X10.6Y-2.7062
X10.6938Y-5.7062
X10.725Y-3.5562
X10.7875Y-4.9562
X10.9125Y-4.3062
X10.975Y-3.4562
X11.1Y-2.8062
X11.1625Y-4.2062
X11.2875Y-5.0562
X11.35Y-2.7062
X11.3812Y-5.8062
X11.475Y-3.5562
X11.5375Y-4.9562
X11.6312Y-5.7062
X11.6625Y-4.3062
X11.725Y-3.4562
X11.85Y-2.8062
X11.9125Y-4.2062
X12.1Y-2.7062
X12.225Y-3.5562
X12.3188Y-5.8062
X12.475Y-3.4562
X12.5688Y-5.7062
X12.6938Y-5.0562
X12.8812Y-4.3062
X12.9438Y-4.9562
X12.975Y-2.8062
X13.1312Y-4.2062
X13.1625Y-3.5562
X13.225Y-2.7062
X13.2562Y-5.8062
X13.4125Y-3.4562
X13.5062Y-5.7062
T3
X3.0938Y-5.9062
X3.1875Y-3.6562
X3.2812Y-4.4062
X3.4688Y-5.1562
X3.75Y-2.9062
X4.0312Y-5.9062
X4.125Y-3.6562
X4.3125Y-4.4062
X4.5Y-2.9062
X4.6852Y-5.1562
X4.875Y-3.6562
X4.9688Y-5.9062
X5.0625Y-4.4062
X5.25Y-2.9062
X5.4375Y-5.1562
X5.625Y-3.6562
X5.8125Y-4.4062
X6.0Y-2.9062
X6.1875Y-5.1562
X6.375Y-3.6562
X6.5562Y-4.4062
X6.75Y-2.9062
X6.9375Y-5.1562
X7.125Y-3.6562
X7.3125Y-4.4062
X7.5Y-2.9062
X7.6875Y-5.1562
X7.7812Y-5.9062
X7.875Y-3.6562
X8.0625Y-4.4062
X8.25Y-2.9062
X8.4375Y-5.1562
X8.625Y-3.6562
X8.8125Y-4.4062
X9.0Y-2.9062
X9.1875Y-5.1562
X9.375Y-3.6562
X9.5625Y-4.4062
X9.75Y-2.9062
X9.9375Y-5.1562
X10.125Y-3.6562
X10.3125Y-4.4062
X10.5Y-2.9062
X10.5938Y-5.9062
X10.6875Y-5.1562
X10.875Y-3.6562
X11.0625Y-4.4062
X11.25Y-2.9062
X11.4375Y-5.1562
X11.5312Y-5.9062
X11.625Y-3.6562
X11.8125Y-4.4062
X12.0Y-2.9062
X12.375Y-3.6562
X12.4688Y-5.9062
X12.8438Y-5.1562
X13.0312Y-4.4062
X13.125Y-2.9062
X13.3125Y-3.6562
X13.4062Y-5.9062
T0
M30
