%TF.GenerationSoftware,KiCad,Pcbnew,(5.1.9)-1*%
%TF.CreationDate,2021-02-15T19:25:35-05:00*%
%TF.ProjectId,60percent,36307065-7263-4656-9e74-2e6b69636164,rev?*%
%TF.SameCoordinates,Original*%
%TF.FileFunction,Copper,L1,Top*%
%TF.FilePolarity,Positive*%
%FSLAX46Y46*%
G04 Gerber Fmt 4.6, Leading zero omitted, Abs format (unit mm)*
G04 Created by KiCad (PCBNEW (5.1.9)-1) date 2021-02-15 19:25:35*
%MOMM*%
%LPD*%
G01*
G04 APERTURE LIST*
%TA.AperFunction,SMDPad,CuDef*%
%ADD10R,1.200000X1.200000*%
%TD*%
%TA.AperFunction,ComponentPad*%
%ADD11R,1.600000X1.600000*%
%TD*%
%TA.AperFunction,ComponentPad*%
%ADD12C,1.600000*%
%TD*%
%TA.AperFunction,SMDPad,CuDef*%
%ADD13R,0.500000X2.500000*%
%TD*%
%TA.AperFunction,SMDPad,CuDef*%
%ADD14R,2.500000X0.500000*%
%TD*%
%TA.AperFunction,ComponentPad*%
%ADD15C,2.000000*%
%TD*%
%TA.AperFunction,ComponentPad*%
%ADD16R,2.000000X3.200000*%
%TD*%
%TA.AperFunction,ComponentPad*%
%ADD17R,2.000000X2.000000*%
%TD*%
%TA.AperFunction,ComponentPad*%
%ADD18R,1.752600X1.752600*%
%TD*%
%TA.AperFunction,ComponentPad*%
%ADD19C,1.752600*%
%TD*%
%TA.AperFunction,ViaPad*%
%ADD20C,0.800000*%
%TD*%
%TA.AperFunction,Conductor*%
%ADD21C,0.250000*%
%TD*%
G04 APERTURE END LIST*
D10*
%TO.P,D1,2*%
%TO.N,Net-(D1-Pad2)*%
X85725000Y-77005750D03*
%TO.P,D1,1*%
%TO.N,/row0*%
X85725000Y-80155750D03*
D11*
X85725000Y-82480750D03*
D12*
%TO.P,D1,2*%
%TO.N,Net-(D1-Pad2)*%
X85725000Y-74680750D03*
D13*
%TO.P,D1,1*%
%TO.N,/row0*%
X85725000Y-81280750D03*
%TO.P,D1,2*%
%TO.N,Net-(D1-Pad2)*%
X85725000Y-75880750D03*
%TD*%
D10*
%TO.P,D2,2*%
%TO.N,Net-(D2-Pad2)*%
X96825000Y-78580750D03*
%TO.P,D2,1*%
%TO.N,/row0*%
X93675000Y-78580750D03*
D11*
X91350000Y-78580750D03*
D12*
%TO.P,D2,2*%
%TO.N,Net-(D2-Pad2)*%
X99150000Y-78580750D03*
D14*
%TO.P,D2,1*%
%TO.N,/row0*%
X92550000Y-78580750D03*
%TO.P,D2,2*%
%TO.N,Net-(D2-Pad2)*%
X97950000Y-78580750D03*
%TD*%
D10*
%TO.P,D3,2*%
%TO.N,Net-(D3-Pad2)*%
X115875000Y-78580750D03*
%TO.P,D3,1*%
%TO.N,/row0*%
X112725000Y-78580750D03*
D11*
X110400000Y-78580750D03*
D12*
%TO.P,D3,2*%
%TO.N,Net-(D3-Pad2)*%
X118200000Y-78580750D03*
D14*
%TO.P,D3,1*%
%TO.N,/row0*%
X111600000Y-78580750D03*
%TO.P,D3,2*%
%TO.N,Net-(D3-Pad2)*%
X117000000Y-78580750D03*
%TD*%
%TO.P,D4,2*%
%TO.N,Net-(D4-Pad2)*%
X136050000Y-78580750D03*
%TO.P,D4,1*%
%TO.N,/row0*%
X130650000Y-78580750D03*
D12*
%TO.P,D4,2*%
%TO.N,Net-(D4-Pad2)*%
X137250000Y-78580750D03*
D11*
%TO.P,D4,1*%
%TO.N,/row0*%
X129450000Y-78580750D03*
D10*
X131775000Y-78580750D03*
%TO.P,D4,2*%
%TO.N,Net-(D4-Pad2)*%
X134925000Y-78580750D03*
%TD*%
%TO.P,D5,2*%
%TO.N,Net-(D5-Pad2)*%
X153974500Y-78580750D03*
%TO.P,D5,1*%
%TO.N,/row0*%
X150824500Y-78580750D03*
D11*
X148499500Y-78580750D03*
D12*
%TO.P,D5,2*%
%TO.N,Net-(D5-Pad2)*%
X156299500Y-78580750D03*
D14*
%TO.P,D5,1*%
%TO.N,/row0*%
X149699500Y-78580750D03*
%TO.P,D5,2*%
%TO.N,Net-(D5-Pad2)*%
X155099500Y-78580750D03*
%TD*%
D10*
%TO.P,D6,2*%
%TO.N,Net-(D6-Pad2)*%
X173024500Y-78580750D03*
%TO.P,D6,1*%
%TO.N,/row0*%
X169874500Y-78580750D03*
D11*
X167549500Y-78580750D03*
D12*
%TO.P,D6,2*%
%TO.N,Net-(D6-Pad2)*%
X175349500Y-78580750D03*
D14*
%TO.P,D6,1*%
%TO.N,/row0*%
X168749500Y-78580750D03*
%TO.P,D6,2*%
%TO.N,Net-(D6-Pad2)*%
X174149500Y-78580750D03*
%TD*%
%TO.P,D7,2*%
%TO.N,Net-(D7-Pad2)*%
X193199500Y-78580750D03*
%TO.P,D7,1*%
%TO.N,/row0*%
X187799500Y-78580750D03*
D12*
%TO.P,D7,2*%
%TO.N,Net-(D7-Pad2)*%
X194399500Y-78580750D03*
D11*
%TO.P,D7,1*%
%TO.N,/row0*%
X186599500Y-78580750D03*
D10*
X188924500Y-78580750D03*
%TO.P,D7,2*%
%TO.N,Net-(D7-Pad2)*%
X192074500Y-78580750D03*
%TD*%
%TO.P,D8,2*%
%TO.N,Net-(D8-Pad2)*%
X211124500Y-78580750D03*
%TO.P,D8,1*%
%TO.N,/row0*%
X207974500Y-78580750D03*
D11*
X205649500Y-78580750D03*
D12*
%TO.P,D8,2*%
%TO.N,Net-(D8-Pad2)*%
X213449500Y-78580750D03*
D14*
%TO.P,D8,1*%
%TO.N,/row0*%
X206849500Y-78580750D03*
%TO.P,D8,2*%
%TO.N,Net-(D8-Pad2)*%
X212249500Y-78580750D03*
%TD*%
D10*
%TO.P,D9,2*%
%TO.N,Net-(D9-Pad2)*%
X230174500Y-78580750D03*
%TO.P,D9,1*%
%TO.N,/row0*%
X227024500Y-78580750D03*
D11*
X224699500Y-78580750D03*
D12*
%TO.P,D9,2*%
%TO.N,Net-(D9-Pad2)*%
X232499500Y-78580750D03*
D14*
%TO.P,D9,1*%
%TO.N,/row0*%
X225899500Y-78580750D03*
%TO.P,D9,2*%
%TO.N,Net-(D9-Pad2)*%
X231299500Y-78580750D03*
%TD*%
%TO.P,D10,2*%
%TO.N,Net-(D10-Pad2)*%
X250349500Y-78580750D03*
%TO.P,D10,1*%
%TO.N,/row0*%
X244949500Y-78580750D03*
D12*
%TO.P,D10,2*%
%TO.N,Net-(D10-Pad2)*%
X251549500Y-78580750D03*
D11*
%TO.P,D10,1*%
%TO.N,/row0*%
X243749500Y-78580750D03*
D10*
X246074500Y-78580750D03*
%TO.P,D10,2*%
%TO.N,Net-(D10-Pad2)*%
X249224500Y-78580750D03*
%TD*%
D14*
%TO.P,D11,2*%
%TO.N,Net-(D11-Pad2)*%
X269399500Y-78580750D03*
%TO.P,D11,1*%
%TO.N,/row0*%
X263999500Y-78580750D03*
D12*
%TO.P,D11,2*%
%TO.N,Net-(D11-Pad2)*%
X270599500Y-78580750D03*
D11*
%TO.P,D11,1*%
%TO.N,/row0*%
X262799500Y-78580750D03*
D10*
X265124500Y-78580750D03*
%TO.P,D11,2*%
%TO.N,Net-(D11-Pad2)*%
X268274500Y-78580750D03*
%TD*%
%TO.P,D12,2*%
%TO.N,Net-(D12-Pad2)*%
X287324500Y-78580750D03*
%TO.P,D12,1*%
%TO.N,/row0*%
X284174500Y-78580750D03*
D11*
X281849500Y-78580750D03*
D12*
%TO.P,D12,2*%
%TO.N,Net-(D12-Pad2)*%
X289649500Y-78580750D03*
D14*
%TO.P,D12,1*%
%TO.N,/row0*%
X283049500Y-78580750D03*
%TO.P,D12,2*%
%TO.N,Net-(D12-Pad2)*%
X288449500Y-78580750D03*
%TD*%
%TO.P,D13,2*%
%TO.N,Net-(D13-Pad2)*%
X307499500Y-78580750D03*
%TO.P,D13,1*%
%TO.N,/row0*%
X302099500Y-78580750D03*
D12*
%TO.P,D13,2*%
%TO.N,Net-(D13-Pad2)*%
X308699500Y-78580750D03*
D11*
%TO.P,D13,1*%
%TO.N,/row0*%
X300899500Y-78580750D03*
D10*
X303224500Y-78580750D03*
%TO.P,D13,2*%
%TO.N,Net-(D13-Pad2)*%
X306374500Y-78580750D03*
%TD*%
D14*
%TO.P,D14,2*%
%TO.N,Net-(D14-Pad2)*%
X336075500Y-78580750D03*
%TO.P,D14,1*%
%TO.N,/row0*%
X330675500Y-78580750D03*
D12*
%TO.P,D14,2*%
%TO.N,Net-(D14-Pad2)*%
X337275500Y-78580750D03*
D11*
%TO.P,D14,1*%
%TO.N,/row0*%
X329475500Y-78580750D03*
D10*
X331800500Y-78580750D03*
%TO.P,D14,2*%
%TO.N,Net-(D14-Pad2)*%
X334950500Y-78580750D03*
%TD*%
D14*
%TO.P,D15,2*%
%TO.N,Net-(D15-Pad2)*%
X83662500Y-97630750D03*
%TO.P,D15,1*%
%TO.N,/row1*%
X78262500Y-97630750D03*
D12*
%TO.P,D15,2*%
%TO.N,Net-(D15-Pad2)*%
X84862500Y-97630750D03*
D11*
%TO.P,D15,1*%
%TO.N,/row1*%
X77062500Y-97630750D03*
D10*
X79387500Y-97630750D03*
%TO.P,D15,2*%
%TO.N,Net-(D15-Pad2)*%
X82537500Y-97630750D03*
%TD*%
D14*
%TO.P,D16,2*%
%TO.N,Net-(D16-Pad2)*%
X107475000Y-97630750D03*
%TO.P,D16,1*%
%TO.N,/row1*%
X102075000Y-97630750D03*
D12*
%TO.P,D16,2*%
%TO.N,Net-(D16-Pad2)*%
X108675000Y-97630750D03*
D11*
%TO.P,D16,1*%
%TO.N,/row1*%
X100875000Y-97630750D03*
D10*
X103200000Y-97630750D03*
%TO.P,D16,2*%
%TO.N,Net-(D16-Pad2)*%
X106350000Y-97630750D03*
%TD*%
%TO.P,D17,2*%
%TO.N,Net-(D17-Pad2)*%
X125400000Y-97630750D03*
%TO.P,D17,1*%
%TO.N,/row1*%
X122250000Y-97630750D03*
D11*
X119925000Y-97630750D03*
D12*
%TO.P,D17,2*%
%TO.N,Net-(D17-Pad2)*%
X127725000Y-97630750D03*
D14*
%TO.P,D17,1*%
%TO.N,/row1*%
X121125000Y-97630750D03*
%TO.P,D17,2*%
%TO.N,Net-(D17-Pad2)*%
X126525000Y-97630750D03*
%TD*%
%TO.P,D18,2*%
%TO.N,Net-(D18-Pad2)*%
X145575000Y-97630750D03*
%TO.P,D18,1*%
%TO.N,/row1*%
X140175000Y-97630750D03*
D12*
%TO.P,D18,2*%
%TO.N,Net-(D18-Pad2)*%
X146775000Y-97630750D03*
D11*
%TO.P,D18,1*%
%TO.N,/row1*%
X138975000Y-97630750D03*
D10*
X141300000Y-97630750D03*
%TO.P,D18,2*%
%TO.N,Net-(D18-Pad2)*%
X144450000Y-97630750D03*
%TD*%
D14*
%TO.P,D19,2*%
%TO.N,Net-(D19-Pad2)*%
X164625500Y-97630750D03*
%TO.P,D19,1*%
%TO.N,/row1*%
X159225500Y-97630750D03*
D12*
%TO.P,D19,2*%
%TO.N,Net-(D19-Pad2)*%
X165825500Y-97630750D03*
D11*
%TO.P,D19,1*%
%TO.N,/row1*%
X158025500Y-97630750D03*
D10*
X160350500Y-97630750D03*
%TO.P,D19,2*%
%TO.N,Net-(D19-Pad2)*%
X163500500Y-97630750D03*
%TD*%
%TO.P,D20,2*%
%TO.N,Net-(D20-Pad2)*%
X182550500Y-97630750D03*
%TO.P,D20,1*%
%TO.N,/row1*%
X179400500Y-97630750D03*
D11*
X177075500Y-97630750D03*
D12*
%TO.P,D20,2*%
%TO.N,Net-(D20-Pad2)*%
X184875500Y-97630750D03*
D14*
%TO.P,D20,1*%
%TO.N,/row1*%
X178275500Y-97630750D03*
%TO.P,D20,2*%
%TO.N,Net-(D20-Pad2)*%
X183675500Y-97630750D03*
%TD*%
D10*
%TO.P,D21,2*%
%TO.N,Net-(D21-Pad2)*%
X201600500Y-97630750D03*
%TO.P,D21,1*%
%TO.N,/row1*%
X198450500Y-97630750D03*
D11*
X196125500Y-97630750D03*
D12*
%TO.P,D21,2*%
%TO.N,Net-(D21-Pad2)*%
X203925500Y-97630750D03*
D14*
%TO.P,D21,1*%
%TO.N,/row1*%
X197325500Y-97630750D03*
%TO.P,D21,2*%
%TO.N,Net-(D21-Pad2)*%
X202725500Y-97630750D03*
%TD*%
D10*
%TO.P,D22,2*%
%TO.N,Net-(D22-Pad2)*%
X220650500Y-97630750D03*
%TO.P,D22,1*%
%TO.N,/row1*%
X217500500Y-97630750D03*
D11*
X215175500Y-97630750D03*
D12*
%TO.P,D22,2*%
%TO.N,Net-(D22-Pad2)*%
X222975500Y-97630750D03*
D14*
%TO.P,D22,1*%
%TO.N,/row1*%
X216375500Y-97630750D03*
%TO.P,D22,2*%
%TO.N,Net-(D22-Pad2)*%
X221775500Y-97630750D03*
%TD*%
%TO.P,D23,2*%
%TO.N,Net-(D23-Pad2)*%
X240825500Y-97630750D03*
%TO.P,D23,1*%
%TO.N,/row1*%
X235425500Y-97630750D03*
D12*
%TO.P,D23,2*%
%TO.N,Net-(D23-Pad2)*%
X242025500Y-97630750D03*
D11*
%TO.P,D23,1*%
%TO.N,/row1*%
X234225500Y-97630750D03*
D10*
X236550500Y-97630750D03*
%TO.P,D23,2*%
%TO.N,Net-(D23-Pad2)*%
X239700500Y-97630750D03*
%TD*%
%TO.P,D24,2*%
%TO.N,Net-(D24-Pad2)*%
X258750500Y-97630750D03*
%TO.P,D24,1*%
%TO.N,/row1*%
X255600500Y-97630750D03*
D11*
X253275500Y-97630750D03*
D12*
%TO.P,D24,2*%
%TO.N,Net-(D24-Pad2)*%
X261075500Y-97630750D03*
D14*
%TO.P,D24,1*%
%TO.N,/row1*%
X254475500Y-97630750D03*
%TO.P,D24,2*%
%TO.N,Net-(D24-Pad2)*%
X259875500Y-97630750D03*
%TD*%
%TO.P,D25,2*%
%TO.N,Net-(D25-Pad2)*%
X278925500Y-97630750D03*
%TO.P,D25,1*%
%TO.N,/row1*%
X273525500Y-97630750D03*
D12*
%TO.P,D25,2*%
%TO.N,Net-(D25-Pad2)*%
X280125500Y-97630750D03*
D11*
%TO.P,D25,1*%
%TO.N,/row1*%
X272325500Y-97630750D03*
D10*
X274650500Y-97630750D03*
%TO.P,D25,2*%
%TO.N,Net-(D25-Pad2)*%
X277800500Y-97630750D03*
%TD*%
%TO.P,D26,2*%
%TO.N,Net-(D26-Pad2)*%
X296850500Y-97630750D03*
%TO.P,D26,1*%
%TO.N,/row1*%
X293700500Y-97630750D03*
D11*
X291375500Y-97630750D03*
D12*
%TO.P,D26,2*%
%TO.N,Net-(D26-Pad2)*%
X299175500Y-97630750D03*
D14*
%TO.P,D26,1*%
%TO.N,/row1*%
X292575500Y-97630750D03*
%TO.P,D26,2*%
%TO.N,Net-(D26-Pad2)*%
X297975500Y-97630750D03*
%TD*%
%TO.P,D27,2*%
%TO.N,Net-(D27-Pad2)*%
X317025500Y-97630750D03*
%TO.P,D27,1*%
%TO.N,/row1*%
X311625500Y-97630750D03*
D12*
%TO.P,D27,2*%
%TO.N,Net-(D27-Pad2)*%
X318225500Y-97630750D03*
D11*
%TO.P,D27,1*%
%TO.N,/row1*%
X310425500Y-97630750D03*
D10*
X312750500Y-97630750D03*
%TO.P,D27,2*%
%TO.N,Net-(D27-Pad2)*%
X315900500Y-97630750D03*
%TD*%
%TO.P,D28,2*%
%TO.N,Net-(D28-Pad2)*%
X339712500Y-97630750D03*
%TO.P,D28,1*%
%TO.N,/row1*%
X336562500Y-97630750D03*
D11*
X334237500Y-97630750D03*
D12*
%TO.P,D28,2*%
%TO.N,Net-(D28-Pad2)*%
X342037500Y-97630750D03*
D14*
%TO.P,D28,1*%
%TO.N,/row1*%
X335437500Y-97630750D03*
%TO.P,D28,2*%
%TO.N,Net-(D28-Pad2)*%
X340837500Y-97630750D03*
%TD*%
D10*
%TO.P,D29,2*%
%TO.N,Net-(D29-Pad2)*%
X84918700Y-116680750D03*
%TO.P,D29,1*%
%TO.N,/row2*%
X81768700Y-116680750D03*
D11*
X79443700Y-116680750D03*
D12*
%TO.P,D29,2*%
%TO.N,Net-(D29-Pad2)*%
X87243700Y-116680750D03*
D14*
%TO.P,D29,1*%
%TO.N,/row2*%
X80643700Y-116680750D03*
%TO.P,D29,2*%
%TO.N,Net-(D29-Pad2)*%
X86043700Y-116680750D03*
%TD*%
D10*
%TO.P,D30,2*%
%TO.N,Net-(D30-Pad2)*%
X111112500Y-116680750D03*
%TO.P,D30,1*%
%TO.N,/row2*%
X107962500Y-116680750D03*
D11*
X105637500Y-116680750D03*
D12*
%TO.P,D30,2*%
%TO.N,Net-(D30-Pad2)*%
X113437500Y-116680750D03*
D14*
%TO.P,D30,1*%
%TO.N,/row2*%
X106837500Y-116680750D03*
%TO.P,D30,2*%
%TO.N,Net-(D30-Pad2)*%
X112237500Y-116680750D03*
%TD*%
D10*
%TO.P,D31,2*%
%TO.N,Net-(D31-Pad2)*%
X130162500Y-116680750D03*
%TO.P,D31,1*%
%TO.N,/row2*%
X127012500Y-116680750D03*
D11*
X124687500Y-116680750D03*
D12*
%TO.P,D31,2*%
%TO.N,Net-(D31-Pad2)*%
X132487500Y-116680750D03*
D14*
%TO.P,D31,1*%
%TO.N,/row2*%
X125887500Y-116680750D03*
%TO.P,D31,2*%
%TO.N,Net-(D31-Pad2)*%
X131287500Y-116680750D03*
%TD*%
%TO.P,D32,2*%
%TO.N,Net-(D32-Pad2)*%
X150337500Y-116680750D03*
%TO.P,D32,1*%
%TO.N,/row2*%
X144937500Y-116680750D03*
D12*
%TO.P,D32,2*%
%TO.N,Net-(D32-Pad2)*%
X151537500Y-116680750D03*
D11*
%TO.P,D32,1*%
%TO.N,/row2*%
X143737500Y-116680750D03*
D10*
X146062500Y-116680750D03*
%TO.P,D32,2*%
%TO.N,Net-(D32-Pad2)*%
X149212500Y-116680750D03*
%TD*%
%TO.P,D33,2*%
%TO.N,Net-(D33-Pad2)*%
X168262500Y-116680750D03*
%TO.P,D33,1*%
%TO.N,/row2*%
X165112500Y-116680750D03*
D11*
X162787500Y-116680750D03*
D12*
%TO.P,D33,2*%
%TO.N,Net-(D33-Pad2)*%
X170587500Y-116680750D03*
D14*
%TO.P,D33,1*%
%TO.N,/row2*%
X163987500Y-116680750D03*
%TO.P,D33,2*%
%TO.N,Net-(D33-Pad2)*%
X169387500Y-116680750D03*
%TD*%
%TO.P,D34,2*%
%TO.N,Net-(D34-Pad2)*%
X188437500Y-116680750D03*
%TO.P,D34,1*%
%TO.N,/row2*%
X183037500Y-116680750D03*
D12*
%TO.P,D34,2*%
%TO.N,Net-(D34-Pad2)*%
X189637500Y-116680750D03*
D11*
%TO.P,D34,1*%
%TO.N,/row2*%
X181837500Y-116680750D03*
D10*
X184162500Y-116680750D03*
%TO.P,D34,2*%
%TO.N,Net-(D34-Pad2)*%
X187312500Y-116680750D03*
%TD*%
%TO.P,D35,2*%
%TO.N,Net-(D35-Pad2)*%
X206362500Y-116680750D03*
%TO.P,D35,1*%
%TO.N,/row2*%
X203212500Y-116680750D03*
D11*
X200887500Y-116680750D03*
D12*
%TO.P,D35,2*%
%TO.N,Net-(D35-Pad2)*%
X208687500Y-116680750D03*
D14*
%TO.P,D35,1*%
%TO.N,/row2*%
X202087500Y-116680750D03*
%TO.P,D35,2*%
%TO.N,Net-(D35-Pad2)*%
X207487500Y-116680750D03*
%TD*%
%TO.P,D36,2*%
%TO.N,Net-(D36-Pad2)*%
X226537500Y-116680750D03*
%TO.P,D36,1*%
%TO.N,/row2*%
X221137500Y-116680750D03*
D12*
%TO.P,D36,2*%
%TO.N,Net-(D36-Pad2)*%
X227737500Y-116680750D03*
D11*
%TO.P,D36,1*%
%TO.N,/row2*%
X219937500Y-116680750D03*
D10*
X222262500Y-116680750D03*
%TO.P,D36,2*%
%TO.N,Net-(D36-Pad2)*%
X225412500Y-116680750D03*
%TD*%
%TO.P,D37,2*%
%TO.N,Net-(D37-Pad2)*%
X244462500Y-116680750D03*
%TO.P,D37,1*%
%TO.N,/row2*%
X241312500Y-116680750D03*
D11*
X238987500Y-116680750D03*
D12*
%TO.P,D37,2*%
%TO.N,Net-(D37-Pad2)*%
X246787500Y-116680750D03*
D14*
%TO.P,D37,1*%
%TO.N,/row2*%
X240187500Y-116680750D03*
%TO.P,D37,2*%
%TO.N,Net-(D37-Pad2)*%
X245587500Y-116680750D03*
%TD*%
%TO.P,D38,2*%
%TO.N,Net-(D38-Pad2)*%
X264637500Y-116680750D03*
%TO.P,D38,1*%
%TO.N,/row2*%
X259237500Y-116680750D03*
D12*
%TO.P,D38,2*%
%TO.N,Net-(D38-Pad2)*%
X265837500Y-116680750D03*
D11*
%TO.P,D38,1*%
%TO.N,/row2*%
X258037500Y-116680750D03*
D10*
X260362500Y-116680750D03*
%TO.P,D38,2*%
%TO.N,Net-(D38-Pad2)*%
X263512500Y-116680750D03*
%TD*%
%TO.P,D39,2*%
%TO.N,Net-(D39-Pad2)*%
X282678500Y-116680750D03*
%TO.P,D39,1*%
%TO.N,/row2*%
X279528500Y-116680750D03*
D11*
X277203500Y-116680750D03*
D12*
%TO.P,D39,2*%
%TO.N,Net-(D39-Pad2)*%
X285003500Y-116680750D03*
D14*
%TO.P,D39,1*%
%TO.N,/row2*%
X278403500Y-116680750D03*
%TO.P,D39,2*%
%TO.N,Net-(D39-Pad2)*%
X283803500Y-116680750D03*
%TD*%
%TO.P,D40,2*%
%TO.N,Net-(D40-Pad2)*%
X302737500Y-116680750D03*
%TO.P,D40,1*%
%TO.N,/row2*%
X297337500Y-116680750D03*
D12*
%TO.P,D40,2*%
%TO.N,Net-(D40-Pad2)*%
X303937500Y-116680750D03*
D11*
%TO.P,D40,1*%
%TO.N,/row2*%
X296137500Y-116680750D03*
D10*
X298462500Y-116680750D03*
%TO.P,D40,2*%
%TO.N,Net-(D40-Pad2)*%
X301612500Y-116680750D03*
%TD*%
D14*
%TO.P,D41,2*%
%TO.N,Net-(D41-Pad2)*%
X333693500Y-116680750D03*
%TO.P,D41,1*%
%TO.N,/row2*%
X328293500Y-116680750D03*
D12*
%TO.P,D41,2*%
%TO.N,Net-(D41-Pad2)*%
X334893500Y-116680750D03*
D11*
%TO.P,D41,1*%
%TO.N,/row2*%
X327093500Y-116680750D03*
D10*
X329418500Y-116680750D03*
%TO.P,D41,2*%
%TO.N,Net-(D41-Pad2)*%
X332568500Y-116680750D03*
%TD*%
D14*
%TO.P,D42,2*%
%TO.N,Net-(D42-Pad2)*%
X90806300Y-135730750D03*
%TO.P,D42,1*%
%TO.N,/row3*%
X85406300Y-135730750D03*
D12*
%TO.P,D42,2*%
%TO.N,Net-(D42-Pad2)*%
X92006300Y-135730750D03*
D11*
%TO.P,D42,1*%
%TO.N,/row3*%
X84206300Y-135730750D03*
D10*
X86531300Y-135730750D03*
%TO.P,D42,2*%
%TO.N,Net-(D42-Pad2)*%
X89681300Y-135730750D03*
%TD*%
%TO.P,D43,2*%
%TO.N,Net-(D43-Pad2)*%
X120637500Y-135730750D03*
%TO.P,D43,1*%
%TO.N,/row3*%
X117487500Y-135730750D03*
D11*
X115162500Y-135730750D03*
D12*
%TO.P,D43,2*%
%TO.N,Net-(D43-Pad2)*%
X122962500Y-135730750D03*
D14*
%TO.P,D43,1*%
%TO.N,/row3*%
X116362500Y-135730750D03*
%TO.P,D43,2*%
%TO.N,Net-(D43-Pad2)*%
X121762500Y-135730750D03*
%TD*%
%TO.P,D44,2*%
%TO.N,Net-(D44-Pad2)*%
X140812500Y-135730750D03*
%TO.P,D44,1*%
%TO.N,/row3*%
X135412500Y-135730750D03*
D12*
%TO.P,D44,2*%
%TO.N,Net-(D44-Pad2)*%
X142012500Y-135730750D03*
D11*
%TO.P,D44,1*%
%TO.N,/row3*%
X134212500Y-135730750D03*
D10*
X136537500Y-135730750D03*
%TO.P,D44,2*%
%TO.N,Net-(D44-Pad2)*%
X139687500Y-135730750D03*
%TD*%
%TO.P,D45,2*%
%TO.N,Net-(D45-Pad2)*%
X158737500Y-135730750D03*
%TO.P,D45,1*%
%TO.N,/row3*%
X155587500Y-135730750D03*
D11*
X153262500Y-135730750D03*
D12*
%TO.P,D45,2*%
%TO.N,Net-(D45-Pad2)*%
X161062500Y-135730750D03*
D14*
%TO.P,D45,1*%
%TO.N,/row3*%
X154462500Y-135730750D03*
%TO.P,D45,2*%
%TO.N,Net-(D45-Pad2)*%
X159862500Y-135730750D03*
%TD*%
%TO.P,D46,2*%
%TO.N,Net-(D46-Pad2)*%
X178912500Y-135730750D03*
%TO.P,D46,1*%
%TO.N,/row3*%
X173512500Y-135730750D03*
D12*
%TO.P,D46,2*%
%TO.N,Net-(D46-Pad2)*%
X180112500Y-135730750D03*
D11*
%TO.P,D46,1*%
%TO.N,/row3*%
X172312500Y-135730750D03*
D10*
X174637500Y-135730750D03*
%TO.P,D46,2*%
%TO.N,Net-(D46-Pad2)*%
X177787500Y-135730750D03*
%TD*%
%TO.P,D47,2*%
%TO.N,Net-(D47-Pad2)*%
X196837500Y-135730750D03*
%TO.P,D47,1*%
%TO.N,/row3*%
X193687500Y-135730750D03*
D11*
X191362500Y-135730750D03*
D12*
%TO.P,D47,2*%
%TO.N,Net-(D47-Pad2)*%
X199162500Y-135730750D03*
D14*
%TO.P,D47,1*%
%TO.N,/row3*%
X192562500Y-135730750D03*
%TO.P,D47,2*%
%TO.N,Net-(D47-Pad2)*%
X197962500Y-135730750D03*
%TD*%
%TO.P,D48,2*%
%TO.N,Net-(D48-Pad2)*%
X217012500Y-135730750D03*
%TO.P,D48,1*%
%TO.N,/row3*%
X211612500Y-135730750D03*
D12*
%TO.P,D48,2*%
%TO.N,Net-(D48-Pad2)*%
X218212500Y-135730750D03*
D11*
%TO.P,D48,1*%
%TO.N,/row3*%
X210412500Y-135730750D03*
D10*
X212737500Y-135730750D03*
%TO.P,D48,2*%
%TO.N,Net-(D48-Pad2)*%
X215887500Y-135730750D03*
%TD*%
%TO.P,D49,2*%
%TO.N,Net-(D49-Pad2)*%
X234937500Y-135730750D03*
%TO.P,D49,1*%
%TO.N,/row3*%
X231787500Y-135730750D03*
D11*
X229462500Y-135730750D03*
D12*
%TO.P,D49,2*%
%TO.N,Net-(D49-Pad2)*%
X237262500Y-135730750D03*
D14*
%TO.P,D49,1*%
%TO.N,/row3*%
X230662500Y-135730750D03*
%TO.P,D49,2*%
%TO.N,Net-(D49-Pad2)*%
X236062500Y-135730750D03*
%TD*%
%TO.P,D50,2*%
%TO.N,Net-(D50-Pad2)*%
X255112500Y-135730750D03*
%TO.P,D50,1*%
%TO.N,/row3*%
X249712500Y-135730750D03*
D12*
%TO.P,D50,2*%
%TO.N,Net-(D50-Pad2)*%
X256312500Y-135730750D03*
D11*
%TO.P,D50,1*%
%TO.N,/row3*%
X248512500Y-135730750D03*
D10*
X250837500Y-135730750D03*
%TO.P,D50,2*%
%TO.N,Net-(D50-Pad2)*%
X253987500Y-135730750D03*
%TD*%
D14*
%TO.P,D51,2*%
%TO.N,Net-(D51-Pad2)*%
X274162500Y-135730750D03*
%TO.P,D51,1*%
%TO.N,/row3*%
X268762500Y-135730750D03*
D12*
%TO.P,D51,2*%
%TO.N,Net-(D51-Pad2)*%
X275362500Y-135730750D03*
D11*
%TO.P,D51,1*%
%TO.N,/row3*%
X267562500Y-135730750D03*
D10*
X269887500Y-135730750D03*
%TO.P,D51,2*%
%TO.N,Net-(D51-Pad2)*%
X273037500Y-135730750D03*
%TD*%
D14*
%TO.P,D52,2*%
%TO.N,Net-(D52-Pad2)*%
X293212500Y-135730750D03*
%TO.P,D52,1*%
%TO.N,/row3*%
X287812500Y-135730750D03*
D12*
%TO.P,D52,2*%
%TO.N,Net-(D52-Pad2)*%
X294412500Y-135730750D03*
D11*
%TO.P,D52,1*%
%TO.N,/row3*%
X286612500Y-135730750D03*
D10*
X288937500Y-135730750D03*
%TO.P,D52,2*%
%TO.N,Net-(D52-Pad2)*%
X292087500Y-135730750D03*
%TD*%
%TO.P,D53,2*%
%TO.N,Net-(D53-Pad2)*%
X327806500Y-135730750D03*
%TO.P,D53,1*%
%TO.N,/row3*%
X324656500Y-135730750D03*
D11*
X322331500Y-135730750D03*
D12*
%TO.P,D53,2*%
%TO.N,Net-(D53-Pad2)*%
X330131500Y-135730750D03*
D14*
%TO.P,D53,1*%
%TO.N,/row3*%
X323531500Y-135730750D03*
%TO.P,D53,2*%
%TO.N,Net-(D53-Pad2)*%
X328931500Y-135730750D03*
%TD*%
%TO.P,D54,2*%
%TO.N,Net-(D54-Pad2)*%
X81281300Y-154780750D03*
%TO.P,D54,1*%
%TO.N,/row4*%
X75881300Y-154780750D03*
D12*
%TO.P,D54,2*%
%TO.N,Net-(D54-Pad2)*%
X82481300Y-154780750D03*
D11*
%TO.P,D54,1*%
%TO.N,/row4*%
X74681300Y-154780750D03*
D10*
X77006300Y-154780750D03*
%TO.P,D54,2*%
%TO.N,Net-(D54-Pad2)*%
X80156300Y-154780750D03*
%TD*%
%TO.P,D55,2*%
%TO.N,Net-(D55-Pad2)*%
X103968700Y-154780750D03*
%TO.P,D55,1*%
%TO.N,/row4*%
X100818700Y-154780750D03*
D11*
X98493700Y-154780750D03*
D12*
%TO.P,D55,2*%
%TO.N,Net-(D55-Pad2)*%
X106293700Y-154780750D03*
D14*
%TO.P,D55,1*%
%TO.N,/row4*%
X99693700Y-154780750D03*
%TO.P,D55,2*%
%TO.N,Net-(D55-Pad2)*%
X105093700Y-154780750D03*
%TD*%
%TO.P,D56,2*%
%TO.N,Net-(D56-Pad2)*%
X128906300Y-154780750D03*
%TO.P,D56,1*%
%TO.N,/row4*%
X123506300Y-154780750D03*
D12*
%TO.P,D56,2*%
%TO.N,Net-(D56-Pad2)*%
X130106300Y-154780750D03*
D11*
%TO.P,D56,1*%
%TO.N,/row4*%
X122306300Y-154780750D03*
D10*
X124631300Y-154780750D03*
%TO.P,D56,2*%
%TO.N,Net-(D56-Pad2)*%
X127781300Y-154780750D03*
%TD*%
%TO.P,D57,2*%
%TO.N,Net-(D57-Pad2)*%
X199218500Y-154780750D03*
%TO.P,D57,1*%
%TO.N,/row4*%
X196068500Y-154780750D03*
D11*
X193743500Y-154780750D03*
D12*
%TO.P,D57,2*%
%TO.N,Net-(D57-Pad2)*%
X201543500Y-154780750D03*
D14*
%TO.P,D57,1*%
%TO.N,/row4*%
X194943500Y-154780750D03*
%TO.P,D57,2*%
%TO.N,Net-(D57-Pad2)*%
X200343500Y-154780750D03*
%TD*%
%TO.P,D58,2*%
%TO.N,Net-(D58-Pad2)*%
X271781500Y-154780750D03*
%TO.P,D58,1*%
%TO.N,/row4*%
X266381500Y-154780750D03*
D12*
%TO.P,D58,2*%
%TO.N,Net-(D58-Pad2)*%
X272981500Y-154780750D03*
D11*
%TO.P,D58,1*%
%TO.N,/row4*%
X265181500Y-154780750D03*
D10*
X267506500Y-154780750D03*
%TO.P,D58,2*%
%TO.N,Net-(D58-Pad2)*%
X270656500Y-154780750D03*
%TD*%
%TO.P,D59,2*%
%TO.N,Net-(D59-Pad2)*%
X294468500Y-154780750D03*
%TO.P,D59,1*%
%TO.N,/row4*%
X291318500Y-154780750D03*
D11*
X288993500Y-154780750D03*
D12*
%TO.P,D59,2*%
%TO.N,Net-(D59-Pad2)*%
X296793500Y-154780750D03*
D14*
%TO.P,D59,1*%
%TO.N,/row4*%
X290193500Y-154780750D03*
%TO.P,D59,2*%
%TO.N,Net-(D59-Pad2)*%
X295593500Y-154780750D03*
%TD*%
%TO.P,D60,2*%
%TO.N,Net-(D60-Pad2)*%
X319406500Y-154780750D03*
%TO.P,D60,1*%
%TO.N,/row4*%
X314006500Y-154780750D03*
D12*
%TO.P,D60,2*%
%TO.N,Net-(D60-Pad2)*%
X320606500Y-154780750D03*
D11*
%TO.P,D60,1*%
%TO.N,/row4*%
X312806500Y-154780750D03*
D10*
X315131500Y-154780750D03*
%TO.P,D60,2*%
%TO.N,Net-(D60-Pad2)*%
X318281500Y-154780750D03*
%TD*%
%TO.P,D61,2*%
%TO.N,Net-(D61-Pad2)*%
X342093500Y-154780750D03*
%TO.P,D61,1*%
%TO.N,/row4*%
X338943500Y-154780750D03*
D11*
X336618500Y-154780750D03*
D12*
%TO.P,D61,2*%
%TO.N,Net-(D61-Pad2)*%
X344418500Y-154780750D03*
D14*
%TO.P,D61,1*%
%TO.N,/row4*%
X337818500Y-154780750D03*
%TO.P,D61,2*%
%TO.N,Net-(D61-Pad2)*%
X343218500Y-154780750D03*
%TD*%
D15*
%TO.P,SW1,S1*%
%TO.N,/col0*%
X78818700Y-66462750D03*
%TO.P,SW1,S2*%
%TO.N,Net-(D1-Pad2)*%
X73818700Y-66462750D03*
D16*
%TO.P,SW1,MP*%
%TO.N,N/C*%
X81918700Y-73462750D03*
X70718700Y-73462750D03*
D15*
%TO.P,SW1,B*%
%TO.N,/rotA*%
X78818700Y-80962750D03*
%TO.P,SW1,C*%
%TO.N,/vcc*%
X76318700Y-80962750D03*
D17*
%TO.P,SW1,A*%
%TO.N,/rotB*%
X73818700Y-80962750D03*
%TD*%
D18*
%TO.P,U1,1*%
%TO.N,/col6*%
X71755000Y-119538750D03*
D19*
%TO.P,U1,2*%
%TO.N,/col5*%
X74295000Y-119538750D03*
%TO.P,U1,3*%
%TO.N,+5V*%
X76835000Y-119538750D03*
%TO.P,U1,4*%
%TO.N,Net-(U1-Pad4)*%
X79375000Y-119538750D03*
%TO.P,U1,5*%
%TO.N,/col4*%
X81915000Y-119538750D03*
%TO.P,U1,6*%
%TO.N,/col3*%
X84455000Y-119538750D03*
%TO.P,U1,7*%
%TO.N,/col7*%
X86995000Y-119538750D03*
%TO.P,U1,8*%
%TO.N,/col9*%
X89535000Y-119538750D03*
%TO.P,U1,9*%
%TO.N,/col10*%
X92075000Y-119538750D03*
%TO.P,U1,10*%
%TO.N,Net-(U1-Pad10)*%
X94615000Y-119538750D03*
%TO.P,U1,11*%
%TO.N,/row4*%
X97155000Y-119538750D03*
%TO.P,U1,13*%
%TO.N,/col1*%
X99695000Y-104298750D03*
%TO.P,U1,14*%
%TO.N,/row2*%
X97155000Y-104298750D03*
%TO.P,U1,15*%
%TO.N,/row3*%
X94615000Y-104298750D03*
%TO.P,U1,16*%
%TO.N,/row1*%
X92075000Y-104298750D03*
%TO.P,U1,17*%
%TO.N,/rotB*%
X89535000Y-104298750D03*
%TO.P,U1,18*%
%TO.N,/rotA*%
X86995000Y-104298750D03*
%TO.P,U1,19*%
%TO.N,/col14*%
X84455000Y-104298750D03*
%TO.P,U1,20*%
%TO.N,/col13*%
X81915000Y-104298750D03*
%TO.P,U1,21*%
%TO.N,/vcc*%
X79375000Y-104298750D03*
%TO.P,U1,22*%
%TO.N,Net-(U1-Pad22)*%
X76835000Y-104298750D03*
%TO.P,U1,23*%
%TO.N,Net-(U1-Pad23)*%
X74295000Y-104298750D03*
%TO.P,U1,12*%
%TO.N,/col0*%
X99695000Y-119310150D03*
%TO.P,U1,24*%
%TO.N,/row0*%
X71755000Y-104298750D03*
%TO.P,U1,29*%
%TO.N,/col11*%
X99695000Y-106838750D03*
%TO.P,U1,28*%
%TO.N,/col12*%
X99695000Y-109378750D03*
%TO.P,U1,27*%
%TO.N,Net-(U1-Pad27)*%
X99695000Y-111918750D03*
%TO.P,U1,26*%
%TO.N,/col8*%
X99695000Y-114458750D03*
%TO.P,U1,25*%
%TO.N,/col2*%
X99695000Y-116998750D03*
%TD*%
D20*
%TO.N,Net-(D29-Pad2)*%
X91095100Y-108174050D03*
%TO.N,/col4*%
X131743600Y-121803150D03*
%TO.N,/col5*%
X151561900Y-122275750D03*
%TO.N,/col6*%
X172973500Y-123007450D03*
%TO.N,/col7*%
X190656000Y-121024550D03*
%TO.N,/col8*%
X216752500Y-114458750D03*
%TO.N,/col9*%
X233454900Y-119730250D03*
%TO.N,/col10*%
X251160800Y-118905850D03*
%TO.N,/col11*%
X251884300Y-104240150D03*
%TO.N,/col12*%
X285268400Y-105010450D03*
%TO.N,/col14*%
X321634000Y-103081250D03*
%TO.N,/col0*%
X91739700Y-109342750D03*
%TO.N,/col13*%
X299883300Y-101922750D03*
%TD*%
D21*
%TO.N,Net-(D1-Pad2)*%
X85725000Y-75880750D02*
X85725000Y-77005750D01*
X85725000Y-74680750D02*
X85725000Y-75880750D01*
%TO.N,/row0*%
X186599500Y-78580750D02*
X185474200Y-78580750D01*
X169874500Y-78580750D02*
X170799800Y-78580750D01*
X170799800Y-78580750D02*
X171925100Y-79706050D01*
X171925100Y-79706050D02*
X184348900Y-79706050D01*
X184348900Y-79706050D02*
X185474200Y-78580750D01*
X169593300Y-78580750D02*
X169874500Y-78580750D01*
X169312000Y-78580750D02*
X169593300Y-78580750D01*
X148499500Y-78580750D02*
X147374200Y-78580750D01*
X131775000Y-78580750D02*
X132700300Y-78580750D01*
X132700300Y-78580750D02*
X133825600Y-79706050D01*
X133825600Y-79706050D02*
X146248900Y-79706050D01*
X146248900Y-79706050D02*
X147374200Y-78580750D01*
X131212500Y-78580750D02*
X131775000Y-78580750D01*
X130650000Y-78580750D02*
X131212500Y-78580750D01*
X227024500Y-78580750D02*
X227949800Y-78580750D01*
X227949800Y-78580750D02*
X229075100Y-77455450D01*
X229075100Y-77455450D02*
X241498900Y-77455450D01*
X241498900Y-77455450D02*
X242624200Y-78580750D01*
X227024500Y-78580750D02*
X225899500Y-78580750D01*
X243749500Y-78580750D02*
X242624200Y-78580750D01*
X303224500Y-78580750D02*
X304149800Y-78580750D01*
X304149800Y-78580750D02*
X305275100Y-77455450D01*
X305275100Y-77455450D02*
X327224900Y-77455450D01*
X327224900Y-77455450D02*
X328350200Y-78580750D01*
X303224500Y-78580750D02*
X302099500Y-78580750D01*
X329475500Y-78580750D02*
X328350200Y-78580750D01*
X284174500Y-78580750D02*
X285099800Y-78580750D01*
X285099800Y-78580750D02*
X286225100Y-77455450D01*
X286225100Y-77455450D02*
X298648900Y-77455450D01*
X298648900Y-77455450D02*
X299774200Y-78580750D01*
X284174500Y-78580750D02*
X283049500Y-78580750D01*
X300899500Y-78580750D02*
X299774200Y-78580750D01*
X207974500Y-78580750D02*
X208899800Y-78580750D01*
X208899800Y-78580750D02*
X210025100Y-77455450D01*
X210025100Y-77455450D02*
X222448900Y-77455450D01*
X222448900Y-77455450D02*
X223574200Y-78580750D01*
X207974500Y-78580750D02*
X206849500Y-78580750D01*
X224699500Y-78580750D02*
X223574200Y-78580750D01*
X188924500Y-78580750D02*
X189849800Y-78580750D01*
X189849800Y-78580750D02*
X190975100Y-77455450D01*
X190975100Y-77455450D02*
X203398900Y-77455450D01*
X203398900Y-77455450D02*
X204524200Y-78580750D01*
X188924500Y-78580750D02*
X187799500Y-78580750D01*
X205649500Y-78580750D02*
X204524200Y-78580750D01*
X150824500Y-78580750D02*
X151749800Y-78580750D01*
X151749800Y-78580750D02*
X152875100Y-77455450D01*
X152875100Y-77455450D02*
X165298900Y-77455450D01*
X165298900Y-77455450D02*
X166424200Y-78580750D01*
X149699500Y-78580750D02*
X150824500Y-78580750D01*
X167549500Y-78580750D02*
X166424200Y-78580750D01*
X112725000Y-78580750D02*
X113650300Y-78580750D01*
X113650300Y-78580750D02*
X114775600Y-77455450D01*
X114775600Y-77455450D02*
X127199400Y-77455450D01*
X127199400Y-77455450D02*
X128324700Y-78580750D01*
X111600000Y-78580750D02*
X112725000Y-78580750D01*
X129450000Y-78580750D02*
X128324700Y-78580750D01*
X93675000Y-78580750D02*
X94125300Y-78580750D01*
X92550000Y-78580750D02*
X93675000Y-78580750D01*
X130650000Y-78580750D02*
X129450000Y-78580750D01*
X94125300Y-78580750D02*
X95250600Y-77455450D01*
X95250600Y-77455450D02*
X108149400Y-77455450D01*
X108149400Y-77455450D02*
X109274700Y-78580750D01*
X110400000Y-78580750D02*
X109274700Y-78580750D01*
X92550000Y-78580750D02*
X91350000Y-78580750D01*
X91350000Y-78580750D02*
X90224700Y-78580750D01*
X85725000Y-80155750D02*
X88649700Y-80155750D01*
X88649700Y-80155750D02*
X90224700Y-78580750D01*
X85725000Y-80493050D02*
X85725000Y-80155750D01*
X85725000Y-81280750D02*
X85725000Y-82480750D01*
X85725000Y-80886850D02*
X85725000Y-81280750D01*
X85725000Y-80886850D02*
X85725000Y-80493050D01*
X111600000Y-78580750D02*
X110400000Y-78580750D01*
X168749500Y-78580750D02*
X167549500Y-78580750D01*
X169312000Y-78580750D02*
X168749500Y-78580750D01*
X206849500Y-78580750D02*
X205649500Y-78580750D01*
X225899500Y-78580750D02*
X224699500Y-78580750D01*
X244949500Y-78580750D02*
X243749500Y-78580750D01*
X149699500Y-78580750D02*
X148499500Y-78580750D01*
X187799500Y-78580750D02*
X186599500Y-78580750D01*
X246074500Y-78580750D02*
X246999800Y-78580750D01*
X246999800Y-78580750D02*
X248125100Y-77455450D01*
X248125100Y-77455450D02*
X260548900Y-77455450D01*
X260548900Y-77455450D02*
X261674200Y-78580750D01*
X246074500Y-78580750D02*
X244949500Y-78580750D01*
X262799500Y-78580750D02*
X261674200Y-78580750D01*
X265124500Y-78580750D02*
X266049800Y-78580750D01*
X266049800Y-78580750D02*
X267175100Y-77455450D01*
X267175100Y-77455450D02*
X279598900Y-77455450D01*
X279598900Y-77455450D02*
X280724200Y-78580750D01*
X265124500Y-78580750D02*
X263999500Y-78580750D01*
X281849500Y-78580750D02*
X280724200Y-78580750D01*
X302099500Y-78580750D02*
X300899500Y-78580750D01*
X330675500Y-78580750D02*
X329475500Y-78580750D01*
X283049500Y-78580750D02*
X281849500Y-78580750D01*
X263999500Y-78580750D02*
X262799500Y-78580750D01*
X331800500Y-78580750D02*
X330675500Y-78580750D01*
%TO.N,Net-(D2-Pad2)*%
X97950000Y-78580750D02*
X96825000Y-78580750D01*
X99150000Y-78580750D02*
X97950000Y-78580750D01*
%TO.N,Net-(D3-Pad2)*%
X117000000Y-78580750D02*
X115875000Y-78580750D01*
X118200000Y-78580750D02*
X117000000Y-78580750D01*
%TO.N,Net-(D4-Pad2)*%
X134925000Y-78580750D02*
X136050000Y-78580750D01*
X137250000Y-78580750D02*
X136050000Y-78580750D01*
%TO.N,Net-(D5-Pad2)*%
X155099500Y-78580750D02*
X153974500Y-78580750D01*
X156299500Y-78580750D02*
X155099500Y-78580750D01*
%TO.N,Net-(D6-Pad2)*%
X174149500Y-78580750D02*
X173024500Y-78580750D01*
X175349500Y-78580750D02*
X174149500Y-78580750D01*
%TO.N,Net-(D7-Pad2)*%
X192074500Y-78580750D02*
X193199500Y-78580750D01*
X194399500Y-78580750D02*
X193199500Y-78580750D01*
%TO.N,Net-(D8-Pad2)*%
X212249500Y-78580750D02*
X211124500Y-78580750D01*
X213449500Y-78580750D02*
X212249500Y-78580750D01*
%TO.N,Net-(D9-Pad2)*%
X231299500Y-78580750D02*
X230174500Y-78580750D01*
X232499500Y-78580750D02*
X231299500Y-78580750D01*
%TO.N,Net-(D10-Pad2)*%
X249224500Y-78580750D02*
X250349500Y-78580750D01*
X251549500Y-78580750D02*
X250349500Y-78580750D01*
%TO.N,Net-(D11-Pad2)*%
X270599500Y-78580750D02*
X269399500Y-78580750D01*
X268274500Y-78580750D02*
X269399500Y-78580750D01*
%TO.N,Net-(D12-Pad2)*%
X288449500Y-78580750D02*
X287324500Y-78580750D01*
X289649500Y-78580750D02*
X288449500Y-78580750D01*
%TO.N,Net-(D13-Pad2)*%
X306374500Y-78580750D02*
X307499500Y-78580750D01*
X308699500Y-78580750D02*
X307499500Y-78580750D01*
%TO.N,Net-(D14-Pad2)*%
X334950500Y-78580750D02*
X336075500Y-78580750D01*
X337275500Y-78580750D02*
X336075500Y-78580750D01*
%TO.N,Net-(D15-Pad2)*%
X82537500Y-97630750D02*
X83662500Y-97630750D01*
X84862500Y-97630750D02*
X83662500Y-97630750D01*
%TO.N,/row1*%
X92075000Y-101219450D02*
X96161000Y-101219450D01*
X96161000Y-101219450D02*
X99749700Y-97630750D01*
X80312800Y-97630750D02*
X83901500Y-101219450D01*
X83901500Y-101219450D02*
X92075000Y-101219450D01*
X92075000Y-104298750D02*
X92075000Y-101219450D01*
X100875000Y-97630750D02*
X99749700Y-97630750D01*
X79387500Y-97630750D02*
X80312800Y-97630750D01*
X334237500Y-97630750D02*
X333112200Y-97630750D01*
X312750500Y-97630750D02*
X313675800Y-97630750D01*
X313675800Y-97630750D02*
X314801100Y-98756050D01*
X314801100Y-98756050D02*
X331986900Y-98756050D01*
X331986900Y-98756050D02*
X333112200Y-97630750D01*
X311625500Y-97630750D02*
X312750500Y-97630750D01*
X310425500Y-97630750D02*
X309300200Y-97630750D01*
X293700500Y-97630750D02*
X294625800Y-97630750D01*
X294625800Y-97630750D02*
X295751100Y-98756050D01*
X295751100Y-98756050D02*
X308174900Y-98756050D01*
X308174900Y-98756050D02*
X309300200Y-97630750D01*
X292575500Y-97630750D02*
X293700500Y-97630750D01*
X291375500Y-97630750D02*
X290250200Y-97630750D01*
X274650500Y-97630750D02*
X275575800Y-97630750D01*
X275575800Y-97630750D02*
X276701100Y-98756050D01*
X276701100Y-98756050D02*
X289124900Y-98756050D01*
X289124900Y-98756050D02*
X290250200Y-97630750D01*
X273525500Y-97630750D02*
X274650500Y-97630750D01*
X272325500Y-97630750D02*
X271200200Y-97630750D01*
X255600500Y-97630750D02*
X256525800Y-97630750D01*
X256525800Y-97630750D02*
X257651100Y-98756050D01*
X257651100Y-98756050D02*
X270074900Y-98756050D01*
X270074900Y-98756050D02*
X271200200Y-97630750D01*
X254475500Y-97630750D02*
X255600500Y-97630750D01*
X234225500Y-97630750D02*
X233100200Y-97630750D01*
X217500500Y-97630750D02*
X218425800Y-97630750D01*
X218425800Y-97630750D02*
X219551100Y-98756050D01*
X219551100Y-98756050D02*
X231974900Y-98756050D01*
X231974900Y-98756050D02*
X233100200Y-97630750D01*
X216375500Y-97630750D02*
X217500500Y-97630750D01*
X215175500Y-97630750D02*
X214050200Y-97630750D01*
X198450500Y-97630750D02*
X199375800Y-97630750D01*
X199375800Y-97630750D02*
X200501100Y-98756050D01*
X200501100Y-98756050D02*
X212924900Y-98756050D01*
X212924900Y-98756050D02*
X214050200Y-97630750D01*
X197325500Y-97630750D02*
X198450500Y-97630750D01*
X196125500Y-97630750D02*
X195000200Y-97630750D01*
X179400500Y-97630750D02*
X180325800Y-97630750D01*
X180325800Y-97630750D02*
X181451100Y-98756050D01*
X181451100Y-98756050D02*
X193874900Y-98756050D01*
X193874900Y-98756050D02*
X195000200Y-97630750D01*
X178275500Y-97630750D02*
X179400500Y-97630750D01*
X138975000Y-97630750D02*
X137849700Y-97630750D01*
X122250000Y-97630750D02*
X123175300Y-97630750D01*
X123175300Y-97630750D02*
X124300600Y-98756050D01*
X124300600Y-98756050D02*
X136724400Y-98756050D01*
X136724400Y-98756050D02*
X137849700Y-97630750D01*
X121125000Y-97630750D02*
X122250000Y-97630750D01*
X103200000Y-97630750D02*
X103650300Y-97630750D01*
X102075000Y-97630750D02*
X103200000Y-97630750D01*
X78262500Y-97630750D02*
X77062500Y-97630750D01*
X78825000Y-97630750D02*
X78262500Y-97630750D01*
X118799700Y-97630750D02*
X117674300Y-96505350D01*
X117674300Y-96505350D02*
X104775700Y-96505350D01*
X104775700Y-96505350D02*
X103650300Y-97630750D01*
X119925000Y-97630750D02*
X118799700Y-97630750D01*
X121125000Y-97630750D02*
X119925000Y-97630750D01*
X140175000Y-97630750D02*
X138975000Y-97630750D01*
X178275500Y-97630750D02*
X177075500Y-97630750D01*
X196331700Y-97630750D02*
X196125500Y-97630750D01*
X196537900Y-97630750D02*
X196331700Y-97630750D01*
X215381700Y-97630750D02*
X215175500Y-97630750D01*
X215587900Y-97630750D02*
X215381700Y-97630750D01*
X235425500Y-97630750D02*
X234225500Y-97630750D01*
X291675500Y-97630750D02*
X291375500Y-97630750D01*
X291975500Y-97630750D02*
X291675500Y-97630750D01*
X78825000Y-97630750D02*
X79387500Y-97630750D01*
X335437500Y-97630750D02*
X334237500Y-97630750D01*
X102075000Y-97630750D02*
X100875000Y-97630750D01*
X158025500Y-97630750D02*
X156900200Y-97630750D01*
X141300000Y-97630750D02*
X142225300Y-97630750D01*
X142225300Y-97630750D02*
X143350600Y-98756050D01*
X143350600Y-98756050D02*
X155774900Y-98756050D01*
X155774900Y-98756050D02*
X156900200Y-97630750D01*
X140175000Y-97630750D02*
X141300000Y-97630750D01*
X177075500Y-97630750D02*
X175950200Y-97630750D01*
X160350500Y-97630750D02*
X161275800Y-97630750D01*
X161275800Y-97630750D02*
X162401100Y-98756050D01*
X162401100Y-98756050D02*
X174824900Y-98756050D01*
X174824900Y-98756050D02*
X175950200Y-97630750D01*
X159225500Y-97630750D02*
X160350500Y-97630750D01*
X159225500Y-97630750D02*
X158025500Y-97630750D01*
X253275500Y-97630750D02*
X252150200Y-97630750D01*
X236550500Y-97630750D02*
X237475800Y-97630750D01*
X237475800Y-97630750D02*
X238601100Y-98756050D01*
X238601100Y-98756050D02*
X251024900Y-98756050D01*
X251024900Y-98756050D02*
X252150200Y-97630750D01*
X235425500Y-97630750D02*
X236550500Y-97630750D01*
X273525500Y-97630750D02*
X272325500Y-97630750D01*
X311025500Y-97630750D02*
X310425500Y-97630750D01*
X311625500Y-97630750D02*
X311025500Y-97630750D01*
X196537900Y-97630750D02*
X197325500Y-97630750D01*
X215587900Y-97630750D02*
X216375500Y-97630750D01*
X253687900Y-97630750D02*
X253275500Y-97630750D01*
X253687900Y-97630750D02*
X254475500Y-97630750D01*
X291975500Y-97630750D02*
X292575500Y-97630750D01*
X336562500Y-97630750D02*
X335437500Y-97630750D01*
%TO.N,Net-(D16-Pad2)*%
X106350000Y-97630750D02*
X107475000Y-97630750D01*
X108675000Y-97630750D02*
X107475000Y-97630750D01*
%TO.N,Net-(D17-Pad2)*%
X126525000Y-97630750D02*
X125400000Y-97630750D01*
X127725000Y-97630750D02*
X126525000Y-97630750D01*
%TO.N,Net-(D18-Pad2)*%
X144450000Y-97630750D02*
X145575000Y-97630750D01*
X146775000Y-97630750D02*
X145575000Y-97630750D01*
%TO.N,Net-(D19-Pad2)*%
X163500500Y-97630750D02*
X164625500Y-97630750D01*
X165825500Y-97630750D02*
X164625500Y-97630750D01*
%TO.N,Net-(D20-Pad2)*%
X183675500Y-97630750D02*
X182550500Y-97630750D01*
X184875500Y-97630750D02*
X183675500Y-97630750D01*
%TO.N,Net-(D21-Pad2)*%
X202725500Y-97630750D02*
X201600500Y-97630750D01*
X203925500Y-97630750D02*
X202725500Y-97630750D01*
%TO.N,Net-(D22-Pad2)*%
X221775500Y-97630750D02*
X220650500Y-97630750D01*
X222975500Y-97630750D02*
X221775500Y-97630750D01*
%TO.N,Net-(D23-Pad2)*%
X239700500Y-97630750D02*
X240825500Y-97630750D01*
X242025500Y-97630750D02*
X240825500Y-97630750D01*
%TO.N,Net-(D24-Pad2)*%
X259875500Y-97630750D02*
X258750500Y-97630750D01*
X261075500Y-97630750D02*
X259875500Y-97630750D01*
%TO.N,Net-(D25-Pad2)*%
X277800500Y-97630750D02*
X278925500Y-97630750D01*
X280125500Y-97630750D02*
X278925500Y-97630750D01*
%TO.N,Net-(D26-Pad2)*%
X297975500Y-97630750D02*
X296850500Y-97630750D01*
X299175500Y-97630750D02*
X297975500Y-97630750D01*
%TO.N,Net-(D27-Pad2)*%
X315900500Y-97630750D02*
X317025500Y-97630750D01*
X318225500Y-97630750D02*
X317025500Y-97630750D01*
%TO.N,Net-(D28-Pad2)*%
X340837500Y-97630750D02*
X339712500Y-97630750D01*
X342037500Y-97630750D02*
X340837500Y-97630750D01*
%TO.N,Net-(D29-Pad2)*%
X91095100Y-108174050D02*
X91014400Y-108254750D01*
X91014400Y-108254750D02*
X91014400Y-112910050D01*
X91014400Y-112910050D02*
X87243700Y-116680750D01*
X86043700Y-116680750D02*
X84918700Y-116680750D01*
X87243700Y-116680750D02*
X86043700Y-116680750D01*
%TO.N,/row2*%
X94420200Y-107419650D02*
X94420200Y-107033550D01*
X94420200Y-107033550D02*
X97155000Y-104298750D01*
X104512200Y-116680750D02*
X103619800Y-115788350D01*
X103619800Y-115788350D02*
X99300600Y-115788350D01*
X99300600Y-115788350D02*
X94420200Y-110907950D01*
X94420200Y-110907950D02*
X94420200Y-107419650D01*
X82694000Y-116680750D02*
X87223300Y-112151450D01*
X87223300Y-112151450D02*
X87223300Y-110962450D01*
X87223300Y-110962450D02*
X90766100Y-107419650D01*
X90766100Y-107419650D02*
X94420200Y-107419650D01*
X105637500Y-116680750D02*
X104512200Y-116680750D01*
X106837500Y-116680750D02*
X105637500Y-116680750D01*
X81768700Y-116680750D02*
X82694000Y-116680750D01*
X143737500Y-116680750D02*
X142612200Y-116680750D01*
X127012500Y-116680750D02*
X127937800Y-116680750D01*
X127937800Y-116680750D02*
X129063100Y-115555450D01*
X129063100Y-115555450D02*
X141486900Y-115555450D01*
X141486900Y-115555450D02*
X142612200Y-116680750D01*
X125887500Y-116680750D02*
X127012500Y-116680750D01*
X298462500Y-116680750D02*
X299387800Y-116680750D01*
X299387800Y-116680750D02*
X300513100Y-115555450D01*
X300513100Y-115555450D02*
X324842900Y-115555450D01*
X324842900Y-115555450D02*
X325968200Y-116680750D01*
X297337500Y-116680750D02*
X298462500Y-116680750D01*
X327093500Y-116680750D02*
X325968200Y-116680750D01*
X279528500Y-116680750D02*
X280453800Y-116680750D01*
X280453800Y-116680750D02*
X281579100Y-115555450D01*
X281579100Y-115555450D02*
X293886900Y-115555450D01*
X293886900Y-115555450D02*
X295012200Y-116680750D01*
X278403500Y-116680750D02*
X279528500Y-116680750D01*
X296137500Y-116680750D02*
X295012200Y-116680750D01*
X260362500Y-116680750D02*
X261287800Y-116680750D01*
X261287800Y-116680750D02*
X262413100Y-115555450D01*
X262413100Y-115555450D02*
X274952900Y-115555450D01*
X274952900Y-115555450D02*
X276078200Y-116680750D01*
X260362500Y-116680750D02*
X259237500Y-116680750D01*
X277203500Y-116680750D02*
X276078200Y-116680750D01*
X258037500Y-116680750D02*
X256912200Y-116680750D01*
X241312500Y-116680750D02*
X242237800Y-116680750D01*
X242237800Y-116680750D02*
X243363100Y-117806050D01*
X243363100Y-117806050D02*
X255786900Y-117806050D01*
X255786900Y-117806050D02*
X256912200Y-116680750D01*
X240187500Y-116680750D02*
X241312500Y-116680750D01*
X219937500Y-116680750D02*
X218812200Y-116680750D01*
X203212500Y-116680750D02*
X204137800Y-116680750D01*
X204137800Y-116680750D02*
X205263100Y-117806050D01*
X205263100Y-117806050D02*
X217686900Y-117806050D01*
X217686900Y-117806050D02*
X218812200Y-116680750D01*
X202087500Y-116680750D02*
X203212500Y-116680750D01*
X181837500Y-116680750D02*
X180712200Y-116680750D01*
X165112500Y-116680750D02*
X166037800Y-116680750D01*
X166037800Y-116680750D02*
X167163100Y-117806050D01*
X167163100Y-117806050D02*
X179586900Y-117806050D01*
X179586900Y-117806050D02*
X180712200Y-116680750D01*
X163987500Y-116680750D02*
X165112500Y-116680750D01*
X144937500Y-116680750D02*
X143737500Y-116680750D01*
X146062500Y-116680750D02*
X144937500Y-116680750D01*
X80643700Y-116680750D02*
X79443700Y-116680750D01*
X107962500Y-116680750D02*
X108412800Y-116680750D01*
X106837500Y-116680750D02*
X107962500Y-116680750D01*
X124687500Y-116680750D02*
X123562200Y-116680750D01*
X123562200Y-116680750D02*
X122395100Y-115513650D01*
X122395100Y-115513650D02*
X109579900Y-115513650D01*
X109579900Y-115513650D02*
X108412800Y-116680750D01*
X125887500Y-116680750D02*
X124687500Y-116680750D01*
X163987500Y-116680750D02*
X162787500Y-116680750D01*
X182437500Y-116680750D02*
X181837500Y-116680750D01*
X183037500Y-116680750D02*
X182437500Y-116680750D01*
X220537500Y-116680750D02*
X219937500Y-116680750D01*
X221137500Y-116680750D02*
X220537500Y-116680750D01*
X277409700Y-116680750D02*
X277203500Y-116680750D01*
X277615900Y-116680750D02*
X277409700Y-116680750D01*
X162787500Y-116680750D02*
X161662200Y-116680750D01*
X146062500Y-116680750D02*
X146987800Y-116680750D01*
X146987800Y-116680750D02*
X148113100Y-117806050D01*
X148113100Y-117806050D02*
X160536900Y-117806050D01*
X160536900Y-117806050D02*
X161662200Y-116680750D01*
X200887500Y-116680750D02*
X199762200Y-116680750D01*
X184162500Y-116680750D02*
X185087800Y-116680750D01*
X185087800Y-116680750D02*
X186213100Y-117806050D01*
X186213100Y-117806050D02*
X198636900Y-117806050D01*
X198636900Y-117806050D02*
X199762200Y-116680750D01*
X183037500Y-116680750D02*
X184162500Y-116680750D01*
X238987500Y-116680750D02*
X237862200Y-116680750D01*
X222262500Y-116680750D02*
X223187800Y-116680750D01*
X223187800Y-116680750D02*
X224313100Y-117806050D01*
X224313100Y-117806050D02*
X236736900Y-117806050D01*
X236736900Y-117806050D02*
X237862200Y-116680750D01*
X221137500Y-116680750D02*
X222262500Y-116680750D01*
X258637500Y-116680750D02*
X258037500Y-116680750D01*
X259237500Y-116680750D02*
X258637500Y-116680750D01*
X296737500Y-116680750D02*
X296137500Y-116680750D01*
X297337500Y-116680750D02*
X296737500Y-116680750D01*
X328293500Y-116680750D02*
X327093500Y-116680750D01*
X81768700Y-116680750D02*
X80643700Y-116680750D01*
X201299900Y-116680750D02*
X200887500Y-116680750D01*
X201299900Y-116680750D02*
X202087500Y-116680750D01*
X239399900Y-116680750D02*
X238987500Y-116680750D01*
X239399900Y-116680750D02*
X240187500Y-116680750D01*
X277615900Y-116680750D02*
X278403500Y-116680750D01*
X329418500Y-116680750D02*
X328293500Y-116680750D01*
%TO.N,Net-(D30-Pad2)*%
X112237500Y-116680750D02*
X111112500Y-116680750D01*
X113437500Y-116680750D02*
X112237500Y-116680750D01*
%TO.N,Net-(D31-Pad2)*%
X131287500Y-116680750D02*
X130162500Y-116680750D01*
X132487500Y-116680750D02*
X131287500Y-116680750D01*
%TO.N,Net-(D32-Pad2)*%
X150337500Y-116680750D02*
X149212500Y-116680750D01*
X151537500Y-116680750D02*
X150337500Y-116680750D01*
%TO.N,Net-(D33-Pad2)*%
X170587500Y-116680750D02*
X169387500Y-116680750D01*
X169387500Y-116680750D02*
X168262500Y-116680750D01*
%TO.N,Net-(D34-Pad2)*%
X187312500Y-116680750D02*
X188437500Y-116680750D01*
X189637500Y-116680750D02*
X188437500Y-116680750D01*
%TO.N,Net-(D35-Pad2)*%
X207487500Y-116680750D02*
X206362500Y-116680750D01*
X208687500Y-116680750D02*
X207487500Y-116680750D01*
%TO.N,Net-(D36-Pad2)*%
X225412500Y-116680750D02*
X226537500Y-116680750D01*
X227737500Y-116680750D02*
X226537500Y-116680750D01*
%TO.N,Net-(D37-Pad2)*%
X245587500Y-116680750D02*
X244462500Y-116680750D01*
X246787500Y-116680750D02*
X245587500Y-116680750D01*
%TO.N,Net-(D38-Pad2)*%
X263512500Y-116680750D02*
X264637500Y-116680750D01*
X265837500Y-116680750D02*
X264637500Y-116680750D01*
%TO.N,Net-(D39-Pad2)*%
X285003500Y-116680750D02*
X283803500Y-116680750D01*
X283803500Y-116680750D02*
X282678500Y-116680750D01*
%TO.N,Net-(D40-Pad2)*%
X301612500Y-116680750D02*
X302737500Y-116680750D01*
X303937500Y-116680750D02*
X302737500Y-116680750D01*
%TO.N,Net-(D41-Pad2)*%
X332568500Y-116680750D02*
X333693500Y-116680750D01*
X334893500Y-116680750D02*
X333693500Y-116680750D01*
%TO.N,Net-(D42-Pad2)*%
X89681300Y-135730750D02*
X90806300Y-135730750D01*
X92006300Y-135730750D02*
X90806300Y-135730750D01*
%TO.N,/row3*%
X193687500Y-135730750D02*
X194612800Y-135730750D01*
X194612800Y-135730750D02*
X195738100Y-134605450D01*
X195738100Y-134605450D02*
X208161900Y-134605450D01*
X208161900Y-134605450D02*
X209287200Y-135730750D01*
X192562500Y-135730750D02*
X193687500Y-135730750D01*
X210412500Y-135730750D02*
X209287200Y-135730750D01*
X288937500Y-135730750D02*
X289862800Y-135730750D01*
X289862800Y-135730750D02*
X290988100Y-134605450D01*
X290988100Y-134605450D02*
X320080900Y-134605450D01*
X320080900Y-134605450D02*
X321206200Y-135730750D01*
X288937500Y-135730750D02*
X287812500Y-135730750D01*
X322331500Y-135730750D02*
X321206200Y-135730750D01*
X269887500Y-135730750D02*
X270812800Y-135730750D01*
X270812800Y-135730750D02*
X271938100Y-134605450D01*
X271938100Y-134605450D02*
X284361900Y-134605450D01*
X284361900Y-134605450D02*
X285487200Y-135730750D01*
X269887500Y-135730750D02*
X268762500Y-135730750D01*
X286612500Y-135730750D02*
X285487200Y-135730750D01*
X250837500Y-135730750D02*
X251762800Y-135730750D01*
X251762800Y-135730750D02*
X252888100Y-134605450D01*
X252888100Y-134605450D02*
X265311900Y-134605450D01*
X265311900Y-134605450D02*
X266437200Y-135730750D01*
X250837500Y-135730750D02*
X249712500Y-135730750D01*
X267562500Y-135730750D02*
X266437200Y-135730750D01*
X231787500Y-135730750D02*
X232712800Y-135730750D01*
X232712800Y-135730750D02*
X233838100Y-134605450D01*
X233838100Y-134605450D02*
X246261900Y-134605450D01*
X246261900Y-134605450D02*
X247387200Y-135730750D01*
X230662500Y-135730750D02*
X231787500Y-135730750D01*
X248512500Y-135730750D02*
X247387200Y-135730750D01*
X212737500Y-135730750D02*
X213662800Y-135730750D01*
X213662800Y-135730750D02*
X214788100Y-134605450D01*
X214788100Y-134605450D02*
X227211900Y-134605450D01*
X227211900Y-134605450D02*
X228337200Y-135730750D01*
X212737500Y-135730750D02*
X211612500Y-135730750D01*
X229462500Y-135730750D02*
X228337200Y-135730750D01*
X211612500Y-135730750D02*
X210412500Y-135730750D01*
X155587500Y-135730750D02*
X156512800Y-135730750D01*
X156512800Y-135730750D02*
X157638100Y-134605450D01*
X157638100Y-134605450D02*
X170061900Y-134605450D01*
X170061900Y-134605450D02*
X171187200Y-135730750D01*
X155587500Y-135730750D02*
X154462500Y-135730750D01*
X172312500Y-135730750D02*
X171187200Y-135730750D01*
X136537500Y-135730750D02*
X137462800Y-135730750D01*
X137462800Y-135730750D02*
X138588100Y-134605450D01*
X138588100Y-134605450D02*
X151011900Y-134605450D01*
X151011900Y-134605450D02*
X152137200Y-135730750D01*
X136537500Y-135730750D02*
X135412500Y-135730750D01*
X153262500Y-135730750D02*
X152137200Y-135730750D01*
X117487500Y-135730750D02*
X118412800Y-135730750D01*
X118412800Y-135730750D02*
X119538100Y-134605450D01*
X119538100Y-134605450D02*
X131961900Y-134605450D01*
X131961900Y-134605450D02*
X133087200Y-135730750D01*
X116362500Y-135730750D02*
X117487500Y-135730750D01*
X134212500Y-135730750D02*
X133087200Y-135730750D01*
X154462500Y-135730750D02*
X153262500Y-135730750D01*
X229762500Y-135730750D02*
X229462500Y-135730750D01*
X230062500Y-135730750D02*
X229762500Y-135730750D01*
X86531300Y-135730750D02*
X86981600Y-135730750D01*
X85406300Y-135730750D02*
X86531300Y-135730750D01*
X323531500Y-135730750D02*
X322331500Y-135730750D01*
X86981600Y-135730750D02*
X88131800Y-134580550D01*
X88131800Y-134580550D02*
X113637000Y-134580550D01*
X113637000Y-134580550D02*
X114787200Y-135730750D01*
X115162500Y-135730750D02*
X114787200Y-135730750D01*
X116362500Y-135730750D02*
X115162500Y-135730750D01*
X134812500Y-135730750D02*
X134212500Y-135730750D01*
X135412500Y-135730750D02*
X134812500Y-135730750D01*
X191362500Y-135730750D02*
X190237200Y-135730750D01*
X174637500Y-135730750D02*
X175562800Y-135730750D01*
X175562800Y-135730750D02*
X176688100Y-136856050D01*
X176688100Y-136856050D02*
X189111900Y-136856050D01*
X189111900Y-136856050D02*
X190237200Y-135730750D01*
X173512500Y-135730750D02*
X174637500Y-135730750D01*
X268162500Y-135730750D02*
X267562500Y-135730750D01*
X268762500Y-135730750D02*
X268162500Y-135730750D01*
X287212500Y-135730750D02*
X286612500Y-135730750D01*
X287812500Y-135730750D02*
X287212500Y-135730750D01*
X84206300Y-135730750D02*
X85406300Y-135730750D01*
X191774900Y-135730750D02*
X191362500Y-135730750D01*
X191774900Y-135730750D02*
X192562500Y-135730750D01*
X230062500Y-135730750D02*
X230662500Y-135730750D01*
X324656500Y-135730750D02*
X323531500Y-135730750D01*
X173512500Y-135730750D02*
X172312500Y-135730750D01*
X249712500Y-135730750D02*
X248512500Y-135730750D01*
%TO.N,Net-(D43-Pad2)*%
X121762500Y-135730750D02*
X120637500Y-135730750D01*
X122962500Y-135730750D02*
X121762500Y-135730750D01*
%TO.N,Net-(D44-Pad2)*%
X139687500Y-135730750D02*
X140812500Y-135730750D01*
X142012500Y-135730750D02*
X140812500Y-135730750D01*
%TO.N,Net-(D45-Pad2)*%
X159862500Y-135730750D02*
X161062500Y-135730750D01*
X159862500Y-135730750D02*
X158737500Y-135730750D01*
%TO.N,Net-(D46-Pad2)*%
X178912500Y-135730750D02*
X180112500Y-135730750D01*
X177787500Y-135730750D02*
X178912500Y-135730750D01*
%TO.N,Net-(D47-Pad2)*%
X197962500Y-135730750D02*
X196837500Y-135730750D01*
X199162500Y-135730750D02*
X197962500Y-135730750D01*
%TO.N,Net-(D48-Pad2)*%
X217012500Y-135730750D02*
X218212500Y-135730750D01*
X215887500Y-135730750D02*
X217012500Y-135730750D01*
%TO.N,Net-(D49-Pad2)*%
X236062500Y-135730750D02*
X234937500Y-135730750D01*
X237262500Y-135730750D02*
X236062500Y-135730750D01*
%TO.N,Net-(D50-Pad2)*%
X253987500Y-135730750D02*
X255112500Y-135730750D01*
X256312500Y-135730750D02*
X255112500Y-135730750D01*
%TO.N,Net-(D51-Pad2)*%
X273037500Y-135730750D02*
X274162500Y-135730750D01*
X275362500Y-135730750D02*
X274162500Y-135730750D01*
%TO.N,Net-(D52-Pad2)*%
X292087500Y-135730750D02*
X293212500Y-135730750D01*
X294412500Y-135730750D02*
X293212500Y-135730750D01*
%TO.N,Net-(D53-Pad2)*%
X328931500Y-135730750D02*
X327806500Y-135730750D01*
X330131500Y-135730750D02*
X328931500Y-135730750D01*
%TO.N,Net-(D54-Pad2)*%
X80156300Y-154780750D02*
X81281300Y-154780750D01*
X82481300Y-154780750D02*
X81281300Y-154780750D01*
%TO.N,/row4*%
X337818500Y-154780750D02*
X338943500Y-154780750D01*
X336618500Y-154780750D02*
X337818500Y-154780750D01*
X291318500Y-154780750D02*
X292243800Y-154780750D01*
X292243800Y-154780750D02*
X293369100Y-153655450D01*
X293369100Y-153655450D02*
X310555900Y-153655450D01*
X310555900Y-153655450D02*
X311681200Y-154780750D01*
X291318500Y-154780750D02*
X290193500Y-154780750D01*
X312806500Y-154780750D02*
X311681200Y-154780750D01*
X196068500Y-154780750D02*
X196993800Y-154780750D01*
X196993800Y-154780750D02*
X198119100Y-153655450D01*
X198119100Y-153655450D02*
X262930900Y-153655450D01*
X262930900Y-153655450D02*
X264056200Y-154780750D01*
X196068500Y-154780750D02*
X194943500Y-154780750D01*
X265181500Y-154780750D02*
X264056200Y-154780750D01*
X77006300Y-154780750D02*
X77931600Y-154780750D01*
X98493700Y-154780750D02*
X97368400Y-154780750D01*
X97368400Y-154780750D02*
X96212300Y-153624650D01*
X96212300Y-153624650D02*
X79087700Y-153624650D01*
X79087700Y-153624650D02*
X77931600Y-154780750D01*
X99693700Y-154780750D02*
X98493700Y-154780750D01*
X100818700Y-154780750D02*
X101744000Y-154780750D01*
X101744000Y-154780750D02*
X102869300Y-153655450D01*
X102869300Y-153655450D02*
X120055700Y-153655450D01*
X120055700Y-153655450D02*
X121181000Y-154780750D01*
X100818700Y-154780750D02*
X99693700Y-154780750D01*
X122306300Y-154780750D02*
X121181000Y-154780750D01*
X124631300Y-154780750D02*
X125556600Y-154780750D01*
X193743500Y-154780750D02*
X192618200Y-154780750D01*
X192618200Y-154780750D02*
X191492800Y-155906150D01*
X191492800Y-155906150D02*
X126682000Y-155906150D01*
X126682000Y-155906150D02*
X125556600Y-154780750D01*
X194943500Y-154780750D02*
X193743500Y-154780750D01*
X265781500Y-154780750D02*
X265181500Y-154780750D01*
X266381500Y-154780750D02*
X265781500Y-154780750D01*
X75881300Y-154780750D02*
X77006300Y-154780750D01*
X313406500Y-154780750D02*
X312806500Y-154780750D01*
X314006500Y-154780750D02*
X313406500Y-154780750D01*
X123506300Y-154780750D02*
X122306300Y-154780750D01*
X75881300Y-154780750D02*
X74681300Y-154780750D01*
X123706000Y-154780750D02*
X123506300Y-154780750D01*
X267506500Y-154780750D02*
X268431800Y-154780750D01*
X268431800Y-154780750D02*
X269557100Y-153655450D01*
X269557100Y-153655450D02*
X286742900Y-153655450D01*
X286742900Y-153655450D02*
X287868200Y-154780750D01*
X267506500Y-154780750D02*
X266381500Y-154780750D01*
X288993500Y-154780750D02*
X287868200Y-154780750D01*
X315131500Y-154780750D02*
X316056800Y-154780750D01*
X316056800Y-154780750D02*
X317182100Y-153655450D01*
X317182100Y-153655450D02*
X334367900Y-153655450D01*
X334367900Y-153655450D02*
X335493200Y-154780750D01*
X315131500Y-154780750D02*
X314006500Y-154780750D01*
X336618500Y-154780750D02*
X335493200Y-154780750D01*
X124631300Y-154780750D02*
X123706000Y-154780750D01*
X290193500Y-154780750D02*
X288993500Y-154780750D01*
%TO.N,Net-(D55-Pad2)*%
X105093700Y-154780750D02*
X103968700Y-154780750D01*
X106293700Y-154780750D02*
X105093700Y-154780750D01*
%TO.N,Net-(D56-Pad2)*%
X127781300Y-154780750D02*
X128906300Y-154780750D01*
X130106300Y-154780750D02*
X128906300Y-154780750D01*
%TO.N,Net-(D57-Pad2)*%
X200343500Y-154780750D02*
X199218500Y-154780750D01*
X201543500Y-154780750D02*
X200343500Y-154780750D01*
%TO.N,Net-(D58-Pad2)*%
X270656500Y-154780750D02*
X271781500Y-154780750D01*
X272981500Y-154780750D02*
X271781500Y-154780750D01*
%TO.N,Net-(D59-Pad2)*%
X295593500Y-154780750D02*
X294468500Y-154780750D01*
X296793500Y-154780750D02*
X295593500Y-154780750D01*
%TO.N,Net-(D60-Pad2)*%
X318281500Y-154780750D02*
X319406500Y-154780750D01*
X320606500Y-154780750D02*
X319406500Y-154780750D01*
%TO.N,Net-(D61-Pad2)*%
X343218500Y-154780750D02*
X342093500Y-154780750D01*
X344418500Y-154780750D02*
X343218500Y-154780750D01*
%TO.N,/col4*%
X131743600Y-121803150D02*
X131439900Y-122106850D01*
X131439900Y-122106850D02*
X84483100Y-122106850D01*
X84483100Y-122106850D02*
X81915000Y-119538750D01*
%TO.N,/col5*%
X74295000Y-119538750D02*
X77313400Y-122557150D01*
X77313400Y-122557150D02*
X151280500Y-122557150D01*
X151280500Y-122557150D02*
X151561900Y-122275750D01*
%TO.N,/col6*%
X72956600Y-119538750D02*
X72956600Y-119914250D01*
X72956600Y-119914250D02*
X76049800Y-123007450D01*
X76049800Y-123007450D02*
X172973500Y-123007450D01*
X71755000Y-119538750D02*
X72956600Y-119538750D01*
%TO.N,/col7*%
X190656000Y-121024550D02*
X131496400Y-121024550D01*
X131496400Y-121024550D02*
X130864500Y-121656450D01*
X130864500Y-121656450D02*
X89112700Y-121656450D01*
X89112700Y-121656450D02*
X86995000Y-119538750D01*
%TO.N,/col8*%
X216752500Y-114458750D02*
X99695000Y-114458750D01*
%TO.N,/col9*%
X233454900Y-119730250D02*
X105251400Y-119730250D01*
X105251400Y-119730250D02*
X103783300Y-121198350D01*
X103783300Y-121198350D02*
X91194600Y-121198350D01*
X91194600Y-121198350D02*
X89535000Y-119538750D01*
%TO.N,/col10*%
X92075000Y-119538750D02*
X93284200Y-120747950D01*
X93284200Y-120747950D02*
X102543900Y-120747950D01*
X102543900Y-120747950D02*
X104386000Y-118905850D01*
X104386000Y-118905850D02*
X251160800Y-118905850D01*
%TO.N,/col11*%
X251884300Y-104240150D02*
X102293600Y-104240150D01*
X102293600Y-104240150D02*
X99695000Y-106838750D01*
%TO.N,/col12*%
X99695000Y-109378750D02*
X104063300Y-105010450D01*
X104063300Y-105010450D02*
X285268400Y-105010450D01*
%TO.N,/col14*%
X84455000Y-104298750D02*
X85664100Y-103089650D01*
X85664100Y-103089650D02*
X87486700Y-103089650D01*
X87486700Y-103089650D02*
X88265000Y-103867950D01*
X88265000Y-103867950D02*
X88265000Y-104786350D01*
X88265000Y-104786350D02*
X89475800Y-105997150D01*
X89475800Y-105997150D02*
X94699200Y-105997150D01*
X94699200Y-105997150D02*
X95885000Y-104811350D01*
X95885000Y-104811350D02*
X95885000Y-103846950D01*
X95885000Y-103846950D02*
X96650700Y-103081250D01*
X96650700Y-103081250D02*
X321634000Y-103081250D01*
%TO.N,/col0*%
X99695000Y-119310150D02*
X91739700Y-111354850D01*
X91739700Y-111354850D02*
X91739700Y-109342750D01*
%TO.N,/col13*%
X299883300Y-101922750D02*
X95247600Y-101922750D01*
X95247600Y-101922750D02*
X93345000Y-103825350D01*
X93345000Y-103825350D02*
X93345000Y-104786450D01*
X93345000Y-104786450D02*
X92610000Y-105521450D01*
X92610000Y-105521450D02*
X91523200Y-105521450D01*
X91523200Y-105521450D02*
X90805000Y-104803250D01*
X90805000Y-104803250D02*
X90805000Y-103829250D01*
X90805000Y-103829250D02*
X89563100Y-102587350D01*
X89563100Y-102587350D02*
X83626400Y-102587350D01*
X83626400Y-102587350D02*
X81915000Y-104298750D01*
%TO.N,/vcc*%
X79375000Y-104298750D02*
X74680400Y-99604150D01*
X74680400Y-99604150D02*
X74680400Y-82601050D01*
X74680400Y-82601050D02*
X76318700Y-80962750D01*
%TD*%
M02*
