%TF.GenerationSoftware,KiCad,Pcbnew,(5.1.9)-1*%
%TF.CreationDate,2021-02-15T19:25:36-05:00*%
%TF.ProjectId,60percent,36307065-7263-4656-9e74-2e6b69636164,rev?*%
%TF.SameCoordinates,Original*%
%TF.FileFunction,Legend,Bot*%
%TF.FilePolarity,Positive*%
%FSLAX46Y46*%
G04 Gerber Fmt 4.6, Leading zero omitted, Abs format (unit mm)*
G04 Created by KiCad (PCBNEW (5.1.9)-1) date 2021-02-15 19:25:36*
%MOMM*%
%LPD*%
G01*
G04 APERTURE LIST*
%ADD10C,0.120000*%
%ADD11C,0.381000*%
%ADD12C,0.150000*%
G04 APERTURE END LIST*
D10*
%TO.C,K1*%
X95050000Y-71118750D02*
X100150000Y-71118750D01*
X91150000Y-66918750D02*
X96250000Y-66918750D01*
X93050000Y-73118750D02*
G75*
G02*
X95050000Y-71118750I2000000J0D01*
G01*
X89150000Y-68918750D02*
G75*
G02*
X91150000Y-66918750I2000000J0D01*
G01*
%TO.C,K2*%
X110200000Y-66918750D02*
X115300000Y-66918750D01*
X114100000Y-71118750D02*
X119200000Y-71118750D01*
X108200000Y-68918750D02*
G75*
G02*
X110200000Y-66918750I2000000J0D01*
G01*
X112100000Y-73118750D02*
G75*
G02*
X114100000Y-71118750I2000000J0D01*
G01*
%TO.C,K3*%
X129250000Y-66918750D02*
X134350000Y-66918750D01*
X133150000Y-71118750D02*
X138250000Y-71118750D01*
X127250000Y-68918750D02*
G75*
G02*
X129250000Y-66918750I2000000J0D01*
G01*
X131150000Y-73118750D02*
G75*
G02*
X133150000Y-71118750I2000000J0D01*
G01*
%TO.C,K4*%
X152199500Y-71118750D02*
X157299500Y-71118750D01*
X148299500Y-66918750D02*
X153399500Y-66918750D01*
X150199500Y-73118750D02*
G75*
G02*
X152199500Y-71118750I2000000J0D01*
G01*
X146299500Y-68918750D02*
G75*
G02*
X148299500Y-66918750I2000000J0D01*
G01*
%TO.C,K5*%
X167349500Y-66918750D02*
X172449500Y-66918750D01*
X171249500Y-71118750D02*
X176349500Y-71118750D01*
X165349500Y-68918750D02*
G75*
G02*
X167349500Y-66918750I2000000J0D01*
G01*
X169249500Y-73118750D02*
G75*
G02*
X171249500Y-71118750I2000000J0D01*
G01*
%TO.C,K6*%
X190299500Y-71118750D02*
X195399500Y-71118750D01*
X186399500Y-66918750D02*
X191499500Y-66918750D01*
X188299500Y-73118750D02*
G75*
G02*
X190299500Y-71118750I2000000J0D01*
G01*
X184399500Y-68918750D02*
G75*
G02*
X186399500Y-66918750I2000000J0D01*
G01*
%TO.C,K7*%
X209349500Y-71118750D02*
X214449500Y-71118750D01*
X205449500Y-66918750D02*
X210549500Y-66918750D01*
X207349500Y-73118750D02*
G75*
G02*
X209349500Y-71118750I2000000J0D01*
G01*
X203449500Y-68918750D02*
G75*
G02*
X205449500Y-66918750I2000000J0D01*
G01*
%TO.C,K8*%
X228399500Y-71118750D02*
X233499500Y-71118750D01*
X224499500Y-66918750D02*
X229599500Y-66918750D01*
X226399500Y-73118750D02*
G75*
G02*
X228399500Y-71118750I2000000J0D01*
G01*
X222499500Y-68918750D02*
G75*
G02*
X224499500Y-66918750I2000000J0D01*
G01*
%TO.C,K9*%
X243549500Y-66918750D02*
X248649500Y-66918750D01*
X247449500Y-71118750D02*
X252549500Y-71118750D01*
X241549500Y-68918750D02*
G75*
G02*
X243549500Y-66918750I2000000J0D01*
G01*
X245449500Y-73118750D02*
G75*
G02*
X247449500Y-71118750I2000000J0D01*
G01*
%TO.C,K10*%
X262599500Y-66918750D02*
X267699500Y-66918750D01*
X266499500Y-71118750D02*
X271599500Y-71118750D01*
X260599500Y-68918750D02*
G75*
G02*
X262599500Y-66918750I2000000J0D01*
G01*
X264499500Y-73118750D02*
G75*
G02*
X266499500Y-71118750I2000000J0D01*
G01*
%TO.C,K11*%
X285549500Y-71118750D02*
X290649500Y-71118750D01*
X281649500Y-66918750D02*
X286749500Y-66918750D01*
X283549500Y-73118750D02*
G75*
G02*
X285549500Y-71118750I2000000J0D01*
G01*
X279649500Y-68918750D02*
G75*
G02*
X281649500Y-66918750I2000000J0D01*
G01*
%TO.C,K12*%
X304599500Y-71118750D02*
X309699500Y-71118750D01*
X300699500Y-66918750D02*
X305799500Y-66918750D01*
X302599500Y-73118750D02*
G75*
G02*
X304599500Y-71118750I2000000J0D01*
G01*
X298699500Y-68918750D02*
G75*
G02*
X300699500Y-66918750I2000000J0D01*
G01*
%TO.C,K13*%
X329275500Y-66918750D02*
X334375500Y-66918750D01*
X333175500Y-71118750D02*
X338275500Y-71118750D01*
X327275500Y-68918750D02*
G75*
G02*
X329275500Y-66918750I2000000J0D01*
G01*
X331175500Y-73118750D02*
G75*
G02*
X333175500Y-71118750I2000000J0D01*
G01*
%TO.C,K14*%
X76862500Y-85968750D02*
X81962500Y-85968750D01*
X80762500Y-90168750D02*
X85862500Y-90168750D01*
X74862500Y-87968750D02*
G75*
G02*
X76862500Y-85968750I2000000J0D01*
G01*
X78762500Y-92168750D02*
G75*
G02*
X80762500Y-90168750I2000000J0D01*
G01*
%TO.C,K27*%
X337937500Y-90168750D02*
X343037500Y-90168750D01*
X334037500Y-85968750D02*
X339137500Y-85968750D01*
X335937500Y-92168750D02*
G75*
G02*
X337937500Y-90168750I2000000J0D01*
G01*
X332037500Y-87968750D02*
G75*
G02*
X334037500Y-85968750I2000000J0D01*
G01*
%TO.C,K28*%
X79243700Y-105018750D02*
X84343700Y-105018750D01*
X83143700Y-109218750D02*
X88243700Y-109218750D01*
X77243700Y-107018750D02*
G75*
G02*
X79243700Y-105018750I2000000J0D01*
G01*
X81143700Y-111218750D02*
G75*
G02*
X83143700Y-109218750I2000000J0D01*
G01*
%TO.C,K29*%
X105437500Y-105018750D02*
X110537500Y-105018750D01*
X109337500Y-109218750D02*
X114437500Y-109218750D01*
X103437500Y-107018750D02*
G75*
G02*
X105437500Y-105018750I2000000J0D01*
G01*
X107337500Y-111218750D02*
G75*
G02*
X109337500Y-109218750I2000000J0D01*
G01*
%TO.C,K30*%
X128387500Y-109218750D02*
X133487500Y-109218750D01*
X124487500Y-105018750D02*
X129587500Y-105018750D01*
X126387500Y-111218750D02*
G75*
G02*
X128387500Y-109218750I2000000J0D01*
G01*
X122487500Y-107018750D02*
G75*
G02*
X124487500Y-105018750I2000000J0D01*
G01*
%TO.C,K31*%
X147437500Y-109218750D02*
X152537500Y-109218750D01*
X143537500Y-105018750D02*
X148637500Y-105018750D01*
X145437500Y-111218750D02*
G75*
G02*
X147437500Y-109218750I2000000J0D01*
G01*
X141537500Y-107018750D02*
G75*
G02*
X143537500Y-105018750I2000000J0D01*
G01*
%TO.C,K32*%
X166328500Y-109218750D02*
X171428500Y-109218750D01*
X162428500Y-105018750D02*
X167528500Y-105018750D01*
X164328500Y-111218750D02*
G75*
G02*
X166328500Y-109218750I2000000J0D01*
G01*
X160428500Y-107018750D02*
G75*
G02*
X162428500Y-105018750I2000000J0D01*
G01*
%TO.C,K33*%
X181637500Y-105018750D02*
X186737500Y-105018750D01*
X185537500Y-109218750D02*
X190637500Y-109218750D01*
X179637500Y-107018750D02*
G75*
G02*
X181637500Y-105018750I2000000J0D01*
G01*
X183537500Y-111218750D02*
G75*
G02*
X185537500Y-109218750I2000000J0D01*
G01*
%TO.C,K34*%
X204587500Y-109218750D02*
X209687500Y-109218750D01*
X200687500Y-105018750D02*
X205787500Y-105018750D01*
X202587500Y-111218750D02*
G75*
G02*
X204587500Y-109218750I2000000J0D01*
G01*
X198687500Y-107018750D02*
G75*
G02*
X200687500Y-105018750I2000000J0D01*
G01*
%TO.C,K35*%
X223637500Y-109218750D02*
X228737500Y-109218750D01*
X219737500Y-105018750D02*
X224837500Y-105018750D01*
X221637500Y-111218750D02*
G75*
G02*
X223637500Y-109218750I2000000J0D01*
G01*
X217737500Y-107018750D02*
G75*
G02*
X219737500Y-105018750I2000000J0D01*
G01*
%TO.C,K36*%
X238787500Y-105018750D02*
X243887500Y-105018750D01*
X242687500Y-109218750D02*
X247787500Y-109218750D01*
X236787500Y-107018750D02*
G75*
G02*
X238787500Y-105018750I2000000J0D01*
G01*
X240687500Y-111218750D02*
G75*
G02*
X242687500Y-109218750I2000000J0D01*
G01*
%TO.C,K37*%
X257837500Y-105018750D02*
X262937500Y-105018750D01*
X261737500Y-109218750D02*
X266837500Y-109218750D01*
X255837500Y-107018750D02*
G75*
G02*
X257837500Y-105018750I2000000J0D01*
G01*
X259737500Y-111218750D02*
G75*
G02*
X261737500Y-109218750I2000000J0D01*
G01*
%TO.C,K38*%
X276887500Y-105018750D02*
X281987500Y-105018750D01*
X280787500Y-109218750D02*
X285887500Y-109218750D01*
X274887500Y-107018750D02*
G75*
G02*
X276887500Y-105018750I2000000J0D01*
G01*
X278787500Y-111218750D02*
G75*
G02*
X280787500Y-109218750I2000000J0D01*
G01*
%TO.C,K39*%
X295937500Y-105018750D02*
X301037500Y-105018750D01*
X299837500Y-109218750D02*
X304937500Y-109218750D01*
X293937500Y-107018750D02*
G75*
G02*
X295937500Y-105018750I2000000J0D01*
G01*
X297837500Y-111218750D02*
G75*
G02*
X299837500Y-109218750I2000000J0D01*
G01*
%TO.C,K40*%
X326893500Y-105018750D02*
X331993500Y-105018750D01*
X330793500Y-109218750D02*
X335893500Y-109218750D01*
X324893500Y-107018750D02*
G75*
G02*
X326893500Y-105018750I2000000J0D01*
G01*
X328793500Y-111218750D02*
G75*
G02*
X330793500Y-109218750I2000000J0D01*
G01*
%TO.C,K41*%
X87906300Y-128268750D02*
X93006300Y-128268750D01*
X84006300Y-124068750D02*
X89106300Y-124068750D01*
X85906300Y-130268750D02*
G75*
G02*
X87906300Y-128268750I2000000J0D01*
G01*
X82006300Y-126068750D02*
G75*
G02*
X84006300Y-124068750I2000000J0D01*
G01*
%TO.C,K42*%
X114903700Y-124068750D02*
X120003700Y-124068750D01*
X118803700Y-128268750D02*
X123903700Y-128268750D01*
X112903700Y-126068750D02*
G75*
G02*
X114903700Y-124068750I2000000J0D01*
G01*
X116803700Y-130268750D02*
G75*
G02*
X118803700Y-128268750I2000000J0D01*
G01*
%TO.C,K43*%
X134012500Y-124068750D02*
X139112500Y-124068750D01*
X137912500Y-128268750D02*
X143012500Y-128268750D01*
X132012500Y-126068750D02*
G75*
G02*
X134012500Y-124068750I2000000J0D01*
G01*
X135912500Y-130268750D02*
G75*
G02*
X137912500Y-128268750I2000000J0D01*
G01*
%TO.C,K44*%
X153062500Y-124068750D02*
X158162500Y-124068750D01*
X156962500Y-128268750D02*
X162062500Y-128268750D01*
X151062500Y-126068750D02*
G75*
G02*
X153062500Y-124068750I2000000J0D01*
G01*
X154962500Y-130268750D02*
G75*
G02*
X156962500Y-128268750I2000000J0D01*
G01*
%TO.C,K45*%
X176012500Y-128268750D02*
X181112500Y-128268750D01*
X172112500Y-124068750D02*
X177212500Y-124068750D01*
X174012500Y-130268750D02*
G75*
G02*
X176012500Y-128268750I2000000J0D01*
G01*
X170112500Y-126068750D02*
G75*
G02*
X172112500Y-124068750I2000000J0D01*
G01*
%TO.C,K46*%
X195062500Y-128268750D02*
X200162500Y-128268750D01*
X191162500Y-124068750D02*
X196262500Y-124068750D01*
X193062500Y-130268750D02*
G75*
G02*
X195062500Y-128268750I2000000J0D01*
G01*
X189162500Y-126068750D02*
G75*
G02*
X191162500Y-124068750I2000000J0D01*
G01*
%TO.C,K47*%
X214112500Y-128268750D02*
X219212500Y-128268750D01*
X210212500Y-124068750D02*
X215312500Y-124068750D01*
X212112500Y-130268750D02*
G75*
G02*
X214112500Y-128268750I2000000J0D01*
G01*
X208212500Y-126068750D02*
G75*
G02*
X210212500Y-124068750I2000000J0D01*
G01*
%TO.C,K48*%
X233162500Y-128268750D02*
X238262500Y-128268750D01*
X229262500Y-124068750D02*
X234362500Y-124068750D01*
X231162500Y-130268750D02*
G75*
G02*
X233162500Y-128268750I2000000J0D01*
G01*
X227262500Y-126068750D02*
G75*
G02*
X229262500Y-124068750I2000000J0D01*
G01*
%TO.C,K49*%
X248312500Y-124068750D02*
X253412500Y-124068750D01*
X252212500Y-128268750D02*
X257312500Y-128268750D01*
X246312500Y-126068750D02*
G75*
G02*
X248312500Y-124068750I2000000J0D01*
G01*
X250212500Y-130268750D02*
G75*
G02*
X252212500Y-128268750I2000000J0D01*
G01*
%TO.C,K50*%
X267362500Y-124068750D02*
X272462500Y-124068750D01*
X271262500Y-128268750D02*
X276362500Y-128268750D01*
X265362500Y-126068750D02*
G75*
G02*
X267362500Y-124068750I2000000J0D01*
G01*
X269262500Y-130268750D02*
G75*
G02*
X271262500Y-128268750I2000000J0D01*
G01*
%TO.C,K51*%
X286412500Y-124068750D02*
X291512500Y-124068750D01*
X290312500Y-128268750D02*
X295412500Y-128268750D01*
X284412500Y-126068750D02*
G75*
G02*
X286412500Y-124068750I2000000J0D01*
G01*
X288312500Y-130268750D02*
G75*
G02*
X290312500Y-128268750I2000000J0D01*
G01*
%TO.C,K52*%
X322131500Y-124068750D02*
X327231500Y-124068750D01*
X326031500Y-128268750D02*
X331131500Y-128268750D01*
X320131500Y-126068750D02*
G75*
G02*
X322131500Y-124068750I2000000J0D01*
G01*
X324031500Y-130268750D02*
G75*
G02*
X326031500Y-128268750I2000000J0D01*
G01*
%TO.C,K53*%
X78381300Y-147318750D02*
X83481300Y-147318750D01*
X74481300Y-143118750D02*
X79581300Y-143118750D01*
X76381300Y-149318750D02*
G75*
G02*
X78381300Y-147318750I2000000J0D01*
G01*
X72481300Y-145118750D02*
G75*
G02*
X74481300Y-143118750I2000000J0D01*
G01*
%TO.C,K54*%
X98293700Y-143118750D02*
X103393700Y-143118750D01*
X102193700Y-147318750D02*
X107293700Y-147318750D01*
X96293700Y-145118750D02*
G75*
G02*
X98293700Y-143118750I2000000J0D01*
G01*
X100193700Y-149318750D02*
G75*
G02*
X102193700Y-147318750I2000000J0D01*
G01*
%TO.C,K55*%
X122106300Y-143118750D02*
X127206300Y-143118750D01*
X126006300Y-147318750D02*
X131106300Y-147318750D01*
X120106300Y-145118750D02*
G75*
G02*
X122106300Y-143118750I2000000J0D01*
G01*
X124006300Y-149318750D02*
G75*
G02*
X126006300Y-147318750I2000000J0D01*
G01*
%TO.C,K56*%
X193543500Y-143118750D02*
X198643500Y-143118750D01*
X197443500Y-147318750D02*
X202543500Y-147318750D01*
X191543500Y-145118750D02*
G75*
G02*
X193543500Y-143118750I2000000J0D01*
G01*
X195443500Y-149318750D02*
G75*
G02*
X197443500Y-147318750I2000000J0D01*
G01*
%TO.C,K57*%
X264981500Y-143118750D02*
X270081500Y-143118750D01*
X268881500Y-147318750D02*
X273981500Y-147318750D01*
X262981500Y-145118750D02*
G75*
G02*
X264981500Y-143118750I2000000J0D01*
G01*
X266881500Y-149318750D02*
G75*
G02*
X268881500Y-147318750I2000000J0D01*
G01*
%TO.C,K58*%
X292693500Y-147318750D02*
X297793500Y-147318750D01*
X288793500Y-143118750D02*
X293893500Y-143118750D01*
X290693500Y-149318750D02*
G75*
G02*
X292693500Y-147318750I2000000J0D01*
G01*
X286793500Y-145118750D02*
G75*
G02*
X288793500Y-143118750I2000000J0D01*
G01*
%TO.C,K59*%
X312606500Y-143118750D02*
X317706500Y-143118750D01*
X316506500Y-147318750D02*
X321606500Y-147318750D01*
X310606500Y-145118750D02*
G75*
G02*
X312606500Y-143118750I2000000J0D01*
G01*
X314506500Y-149318750D02*
G75*
G02*
X316506500Y-147318750I2000000J0D01*
G01*
%TO.C,K60*%
X340318500Y-147318750D02*
X345418500Y-147318750D01*
X336418500Y-143118750D02*
X341518500Y-143118750D01*
X338318500Y-149318750D02*
G75*
G02*
X340318500Y-147318750I2000000J0D01*
G01*
X334418500Y-145118750D02*
G75*
G02*
X336418500Y-143118750I2000000J0D01*
G01*
D11*
%TO.C,U1*%
X73025000Y-118268750D02*
X73025000Y-120808750D01*
X70485000Y-118268750D02*
X73025000Y-118268750D01*
D12*
G36*
X76774030Y-105874115D02*
G01*
X76874030Y-105874115D01*
X76874030Y-105774115D01*
X76774030Y-105774115D01*
X76774030Y-105874115D01*
G37*
X76774030Y-105874115D02*
X76874030Y-105874115D01*
X76874030Y-105774115D01*
X76774030Y-105774115D01*
X76774030Y-105874115D01*
G36*
X76374030Y-105674115D02*
G01*
X77174030Y-105674115D01*
X77174030Y-105574115D01*
X76374030Y-105574115D01*
X76374030Y-105674115D01*
G37*
X76374030Y-105674115D02*
X77174030Y-105674115D01*
X77174030Y-105574115D01*
X76374030Y-105574115D01*
X76374030Y-105674115D01*
G36*
X76974030Y-106074115D02*
G01*
X77174030Y-106074115D01*
X77174030Y-105974115D01*
X76974030Y-105974115D01*
X76974030Y-106074115D01*
G37*
X76974030Y-106074115D02*
X77174030Y-106074115D01*
X77174030Y-105974115D01*
X76974030Y-105974115D01*
X76974030Y-106074115D01*
G36*
X76374030Y-106074115D02*
G01*
X76674030Y-106074115D01*
X76674030Y-105974115D01*
X76374030Y-105974115D01*
X76374030Y-106074115D01*
G37*
X76374030Y-106074115D02*
X76674030Y-106074115D01*
X76674030Y-105974115D01*
X76374030Y-105974115D01*
X76374030Y-106074115D01*
G36*
X76374030Y-106074115D02*
G01*
X76474030Y-106074115D01*
X76474030Y-105574115D01*
X76374030Y-105574115D01*
X76374030Y-106074115D01*
G37*
X76374030Y-106074115D02*
X76474030Y-106074115D01*
X76474030Y-105574115D01*
X76374030Y-105574115D01*
X76374030Y-106074115D01*
D11*
X100965000Y-103028750D02*
X67945000Y-103028750D01*
X100965000Y-120808750D02*
X100965000Y-103028750D01*
X67945000Y-120808750D02*
X100965000Y-120808750D01*
X67945000Y-103028750D02*
X67945000Y-120808750D01*
X70485000Y-118268750D02*
X70485000Y-120808750D01*
D10*
%TO.C,K15*%
X102575000Y-92168750D02*
G75*
G02*
X104575000Y-90168750I2000000J0D01*
G01*
X98675000Y-87968750D02*
G75*
G02*
X100675000Y-85968750I2000000J0D01*
G01*
X100675000Y-85968750D02*
X105775000Y-85968750D01*
X104575000Y-90168750D02*
X109675000Y-90168750D01*
%TO.C,K16*%
X123625000Y-90168750D02*
X128725000Y-90168750D01*
X119725000Y-85968750D02*
X124825000Y-85968750D01*
X117725000Y-87968750D02*
G75*
G02*
X119725000Y-85968750I2000000J0D01*
G01*
X121625000Y-92168750D02*
G75*
G02*
X123625000Y-90168750I2000000J0D01*
G01*
%TO.C,K17*%
X140675000Y-92168750D02*
G75*
G02*
X142675000Y-90168750I2000000J0D01*
G01*
X136775000Y-87968750D02*
G75*
G02*
X138775000Y-85968750I2000000J0D01*
G01*
X138775000Y-85968750D02*
X143875000Y-85968750D01*
X142675000Y-90168750D02*
X147775000Y-90168750D01*
%TO.C,K18*%
X161725500Y-90168750D02*
X166825500Y-90168750D01*
X157825500Y-85968750D02*
X162925500Y-85968750D01*
X155825500Y-87968750D02*
G75*
G02*
X157825500Y-85968750I2000000J0D01*
G01*
X159725500Y-92168750D02*
G75*
G02*
X161725500Y-90168750I2000000J0D01*
G01*
%TO.C,K19*%
X180775500Y-90168750D02*
X185875500Y-90168750D01*
X176875500Y-85968750D02*
X181975500Y-85968750D01*
X174875500Y-87968750D02*
G75*
G02*
X176875500Y-85968750I2000000J0D01*
G01*
X178775500Y-92168750D02*
G75*
G02*
X180775500Y-90168750I2000000J0D01*
G01*
%TO.C,K20*%
X197825500Y-92168750D02*
G75*
G02*
X199825500Y-90168750I2000000J0D01*
G01*
X193925500Y-87968750D02*
G75*
G02*
X195925500Y-85968750I2000000J0D01*
G01*
X195925500Y-85968750D02*
X201025500Y-85968750D01*
X199825500Y-90168750D02*
X204925500Y-90168750D01*
%TO.C,K21*%
X216875500Y-92168750D02*
G75*
G02*
X218875500Y-90168750I2000000J0D01*
G01*
X212975500Y-87968750D02*
G75*
G02*
X214975500Y-85968750I2000000J0D01*
G01*
X214975500Y-85968750D02*
X220075500Y-85968750D01*
X218875500Y-90168750D02*
X223975500Y-90168750D01*
%TO.C,K22*%
X237925500Y-90168750D02*
X243025500Y-90168750D01*
X234025500Y-85968750D02*
X239125500Y-85968750D01*
X232025500Y-87968750D02*
G75*
G02*
X234025500Y-85968750I2000000J0D01*
G01*
X235925500Y-92168750D02*
G75*
G02*
X237925500Y-90168750I2000000J0D01*
G01*
%TO.C,K23*%
X256975500Y-90168750D02*
X262075500Y-90168750D01*
X253075500Y-85968750D02*
X258175500Y-85968750D01*
X251075500Y-87968750D02*
G75*
G02*
X253075500Y-85968750I2000000J0D01*
G01*
X254975500Y-92168750D02*
G75*
G02*
X256975500Y-90168750I2000000J0D01*
G01*
%TO.C,K24*%
X276025500Y-90168750D02*
X281125500Y-90168750D01*
X272125500Y-85968750D02*
X277225500Y-85968750D01*
X270125500Y-87968750D02*
G75*
G02*
X272125500Y-85968750I2000000J0D01*
G01*
X274025500Y-92168750D02*
G75*
G02*
X276025500Y-90168750I2000000J0D01*
G01*
%TO.C,K25*%
X293075500Y-92168750D02*
G75*
G02*
X295075500Y-90168750I2000000J0D01*
G01*
X289175500Y-87968750D02*
G75*
G02*
X291175500Y-85968750I2000000J0D01*
G01*
X291175500Y-85968750D02*
X296275500Y-85968750D01*
X295075500Y-90168750D02*
X300175500Y-90168750D01*
%TO.C,K26*%
X312125500Y-92168750D02*
G75*
G02*
X314125500Y-90168750I2000000J0D01*
G01*
X308225500Y-87968750D02*
G75*
G02*
X310225500Y-85968750I2000000J0D01*
G01*
X310225500Y-85968750D02*
X315325500Y-85968750D01*
X314125500Y-90168750D02*
X319225500Y-90168750D01*
%TO.C,K1*%
D12*
X95988095Y-66271130D02*
X95988095Y-65271130D01*
X95416666Y-66271130D02*
X95845238Y-65699702D01*
X95416666Y-65271130D02*
X95988095Y-65842559D01*
X94464285Y-66271130D02*
X95035714Y-66271130D01*
X94750000Y-66271130D02*
X94750000Y-65271130D01*
X94845238Y-65413988D01*
X94940476Y-65509226D01*
X95035714Y-65556845D01*
%TO.C,K2*%
X115038095Y-66271130D02*
X115038095Y-65271130D01*
X114466666Y-66271130D02*
X114895238Y-65699702D01*
X114466666Y-65271130D02*
X115038095Y-65842559D01*
X114085714Y-65366369D02*
X114038095Y-65318750D01*
X113942857Y-65271130D01*
X113704761Y-65271130D01*
X113609523Y-65318750D01*
X113561904Y-65366369D01*
X113514285Y-65461607D01*
X113514285Y-65556845D01*
X113561904Y-65699702D01*
X114133333Y-66271130D01*
X113514285Y-66271130D01*
%TO.C,K3*%
X134088095Y-66271130D02*
X134088095Y-65271130D01*
X133516666Y-66271130D02*
X133945238Y-65699702D01*
X133516666Y-65271130D02*
X134088095Y-65842559D01*
X133183333Y-65271130D02*
X132564285Y-65271130D01*
X132897619Y-65652083D01*
X132754761Y-65652083D01*
X132659523Y-65699702D01*
X132611904Y-65747321D01*
X132564285Y-65842559D01*
X132564285Y-66080654D01*
X132611904Y-66175892D01*
X132659523Y-66223511D01*
X132754761Y-66271130D01*
X133040476Y-66271130D01*
X133135714Y-66223511D01*
X133183333Y-66175892D01*
%TO.C,K4*%
X153137595Y-66271130D02*
X153137595Y-65271130D01*
X152566166Y-66271130D02*
X152994738Y-65699702D01*
X152566166Y-65271130D02*
X153137595Y-65842559D01*
X151709023Y-65604464D02*
X151709023Y-66271130D01*
X151947119Y-65223511D02*
X152185214Y-65937797D01*
X151566166Y-65937797D01*
%TO.C,K5*%
X172187595Y-66271130D02*
X172187595Y-65271130D01*
X171616166Y-66271130D02*
X172044738Y-65699702D01*
X171616166Y-65271130D02*
X172187595Y-65842559D01*
X170711404Y-65271130D02*
X171187595Y-65271130D01*
X171235214Y-65747321D01*
X171187595Y-65699702D01*
X171092357Y-65652083D01*
X170854261Y-65652083D01*
X170759023Y-65699702D01*
X170711404Y-65747321D01*
X170663785Y-65842559D01*
X170663785Y-66080654D01*
X170711404Y-66175892D01*
X170759023Y-66223511D01*
X170854261Y-66271130D01*
X171092357Y-66271130D01*
X171187595Y-66223511D01*
X171235214Y-66175892D01*
%TO.C,K6*%
X191237595Y-66271130D02*
X191237595Y-65271130D01*
X190666166Y-66271130D02*
X191094738Y-65699702D01*
X190666166Y-65271130D02*
X191237595Y-65842559D01*
X189809023Y-65271130D02*
X189999500Y-65271130D01*
X190094738Y-65318750D01*
X190142357Y-65366369D01*
X190237595Y-65509226D01*
X190285214Y-65699702D01*
X190285214Y-66080654D01*
X190237595Y-66175892D01*
X190189976Y-66223511D01*
X190094738Y-66271130D01*
X189904261Y-66271130D01*
X189809023Y-66223511D01*
X189761404Y-66175892D01*
X189713785Y-66080654D01*
X189713785Y-65842559D01*
X189761404Y-65747321D01*
X189809023Y-65699702D01*
X189904261Y-65652083D01*
X190094738Y-65652083D01*
X190189976Y-65699702D01*
X190237595Y-65747321D01*
X190285214Y-65842559D01*
%TO.C,K7*%
X210287595Y-66271130D02*
X210287595Y-65271130D01*
X209716166Y-66271130D02*
X210144738Y-65699702D01*
X209716166Y-65271130D02*
X210287595Y-65842559D01*
X209382833Y-65271130D02*
X208716166Y-65271130D01*
X209144738Y-66271130D01*
%TO.C,K8*%
X229337595Y-66271130D02*
X229337595Y-65271130D01*
X228766166Y-66271130D02*
X229194738Y-65699702D01*
X228766166Y-65271130D02*
X229337595Y-65842559D01*
X228194738Y-65699702D02*
X228289976Y-65652083D01*
X228337595Y-65604464D01*
X228385214Y-65509226D01*
X228385214Y-65461607D01*
X228337595Y-65366369D01*
X228289976Y-65318750D01*
X228194738Y-65271130D01*
X228004261Y-65271130D01*
X227909023Y-65318750D01*
X227861404Y-65366369D01*
X227813785Y-65461607D01*
X227813785Y-65509226D01*
X227861404Y-65604464D01*
X227909023Y-65652083D01*
X228004261Y-65699702D01*
X228194738Y-65699702D01*
X228289976Y-65747321D01*
X228337595Y-65794940D01*
X228385214Y-65890178D01*
X228385214Y-66080654D01*
X228337595Y-66175892D01*
X228289976Y-66223511D01*
X228194738Y-66271130D01*
X228004261Y-66271130D01*
X227909023Y-66223511D01*
X227861404Y-66175892D01*
X227813785Y-66080654D01*
X227813785Y-65890178D01*
X227861404Y-65794940D01*
X227909023Y-65747321D01*
X228004261Y-65699702D01*
%TO.C,K9*%
X248387595Y-66271130D02*
X248387595Y-65271130D01*
X247816166Y-66271130D02*
X248244738Y-65699702D01*
X247816166Y-65271130D02*
X248387595Y-65842559D01*
X247339976Y-66271130D02*
X247149500Y-66271130D01*
X247054261Y-66223511D01*
X247006642Y-66175892D01*
X246911404Y-66033035D01*
X246863785Y-65842559D01*
X246863785Y-65461607D01*
X246911404Y-65366369D01*
X246959023Y-65318750D01*
X247054261Y-65271130D01*
X247244738Y-65271130D01*
X247339976Y-65318750D01*
X247387595Y-65366369D01*
X247435214Y-65461607D01*
X247435214Y-65699702D01*
X247387595Y-65794940D01*
X247339976Y-65842559D01*
X247244738Y-65890178D01*
X247054261Y-65890178D01*
X246959023Y-65842559D01*
X246911404Y-65794940D01*
X246863785Y-65699702D01*
%TO.C,K10*%
X267913785Y-66271130D02*
X267913785Y-65271130D01*
X267342357Y-66271130D02*
X267770928Y-65699702D01*
X267342357Y-65271130D02*
X267913785Y-65842559D01*
X266389976Y-66271130D02*
X266961404Y-66271130D01*
X266675690Y-66271130D02*
X266675690Y-65271130D01*
X266770928Y-65413988D01*
X266866166Y-65509226D01*
X266961404Y-65556845D01*
X265770928Y-65271130D02*
X265675690Y-65271130D01*
X265580452Y-65318750D01*
X265532833Y-65366369D01*
X265485214Y-65461607D01*
X265437595Y-65652083D01*
X265437595Y-65890178D01*
X265485214Y-66080654D01*
X265532833Y-66175892D01*
X265580452Y-66223511D01*
X265675690Y-66271130D01*
X265770928Y-66271130D01*
X265866166Y-66223511D01*
X265913785Y-66175892D01*
X265961404Y-66080654D01*
X266009023Y-65890178D01*
X266009023Y-65652083D01*
X265961404Y-65461607D01*
X265913785Y-65366369D01*
X265866166Y-65318750D01*
X265770928Y-65271130D01*
%TO.C,K11*%
X286963785Y-66271130D02*
X286963785Y-65271130D01*
X286392357Y-66271130D02*
X286820928Y-65699702D01*
X286392357Y-65271130D02*
X286963785Y-65842559D01*
X285439976Y-66271130D02*
X286011404Y-66271130D01*
X285725690Y-66271130D02*
X285725690Y-65271130D01*
X285820928Y-65413988D01*
X285916166Y-65509226D01*
X286011404Y-65556845D01*
X284487595Y-66271130D02*
X285059023Y-66271130D01*
X284773309Y-66271130D02*
X284773309Y-65271130D01*
X284868547Y-65413988D01*
X284963785Y-65509226D01*
X285059023Y-65556845D01*
%TO.C,K12*%
X306013785Y-66271130D02*
X306013785Y-65271130D01*
X305442357Y-66271130D02*
X305870928Y-65699702D01*
X305442357Y-65271130D02*
X306013785Y-65842559D01*
X304489976Y-66271130D02*
X305061404Y-66271130D01*
X304775690Y-66271130D02*
X304775690Y-65271130D01*
X304870928Y-65413988D01*
X304966166Y-65509226D01*
X305061404Y-65556845D01*
X304109023Y-65366369D02*
X304061404Y-65318750D01*
X303966166Y-65271130D01*
X303728071Y-65271130D01*
X303632833Y-65318750D01*
X303585214Y-65366369D01*
X303537595Y-65461607D01*
X303537595Y-65556845D01*
X303585214Y-65699702D01*
X304156642Y-66271130D01*
X303537595Y-66271130D01*
%TO.C,K13*%
X334589785Y-66271130D02*
X334589785Y-65271130D01*
X334018357Y-66271130D02*
X334446928Y-65699702D01*
X334018357Y-65271130D02*
X334589785Y-65842559D01*
X333065976Y-66271130D02*
X333637404Y-66271130D01*
X333351690Y-66271130D02*
X333351690Y-65271130D01*
X333446928Y-65413988D01*
X333542166Y-65509226D01*
X333637404Y-65556845D01*
X332732642Y-65271130D02*
X332113595Y-65271130D01*
X332446928Y-65652083D01*
X332304071Y-65652083D01*
X332208833Y-65699702D01*
X332161214Y-65747321D01*
X332113595Y-65842559D01*
X332113595Y-66080654D01*
X332161214Y-66175892D01*
X332208833Y-66223511D01*
X332304071Y-66271130D01*
X332589785Y-66271130D01*
X332685023Y-66223511D01*
X332732642Y-66175892D01*
%TO.C,K14*%
X82176785Y-85321130D02*
X82176785Y-84321130D01*
X81605357Y-85321130D02*
X82033928Y-84749702D01*
X81605357Y-84321130D02*
X82176785Y-84892559D01*
X80652976Y-85321130D02*
X81224404Y-85321130D01*
X80938690Y-85321130D02*
X80938690Y-84321130D01*
X81033928Y-84463988D01*
X81129166Y-84559226D01*
X81224404Y-84606845D01*
X79795833Y-84654464D02*
X79795833Y-85321130D01*
X80033928Y-84273511D02*
X80272023Y-84987797D01*
X79652976Y-84987797D01*
%TO.C,K27*%
X339351785Y-85321130D02*
X339351785Y-84321130D01*
X338780357Y-85321130D02*
X339208928Y-84749702D01*
X338780357Y-84321130D02*
X339351785Y-84892559D01*
X338399404Y-84416369D02*
X338351785Y-84368750D01*
X338256547Y-84321130D01*
X338018452Y-84321130D01*
X337923214Y-84368750D01*
X337875595Y-84416369D01*
X337827976Y-84511607D01*
X337827976Y-84606845D01*
X337875595Y-84749702D01*
X338447023Y-85321130D01*
X337827976Y-85321130D01*
X337494642Y-84321130D02*
X336827976Y-84321130D01*
X337256547Y-85321130D01*
%TO.C,K28*%
X84557985Y-104371130D02*
X84557985Y-103371130D01*
X83986557Y-104371130D02*
X84415128Y-103799702D01*
X83986557Y-103371130D02*
X84557985Y-103942559D01*
X83605604Y-103466369D02*
X83557985Y-103418750D01*
X83462747Y-103371130D01*
X83224652Y-103371130D01*
X83129414Y-103418750D01*
X83081795Y-103466369D01*
X83034176Y-103561607D01*
X83034176Y-103656845D01*
X83081795Y-103799702D01*
X83653223Y-104371130D01*
X83034176Y-104371130D01*
X82462747Y-103799702D02*
X82557985Y-103752083D01*
X82605604Y-103704464D01*
X82653223Y-103609226D01*
X82653223Y-103561607D01*
X82605604Y-103466369D01*
X82557985Y-103418750D01*
X82462747Y-103371130D01*
X82272271Y-103371130D01*
X82177033Y-103418750D01*
X82129414Y-103466369D01*
X82081795Y-103561607D01*
X82081795Y-103609226D01*
X82129414Y-103704464D01*
X82177033Y-103752083D01*
X82272271Y-103799702D01*
X82462747Y-103799702D01*
X82557985Y-103847321D01*
X82605604Y-103894940D01*
X82653223Y-103990178D01*
X82653223Y-104180654D01*
X82605604Y-104275892D01*
X82557985Y-104323511D01*
X82462747Y-104371130D01*
X82272271Y-104371130D01*
X82177033Y-104323511D01*
X82129414Y-104275892D01*
X82081795Y-104180654D01*
X82081795Y-103990178D01*
X82129414Y-103894940D01*
X82177033Y-103847321D01*
X82272271Y-103799702D01*
%TO.C,K29*%
X110751785Y-104371130D02*
X110751785Y-103371130D01*
X110180357Y-104371130D02*
X110608928Y-103799702D01*
X110180357Y-103371130D02*
X110751785Y-103942559D01*
X109799404Y-103466369D02*
X109751785Y-103418750D01*
X109656547Y-103371130D01*
X109418452Y-103371130D01*
X109323214Y-103418750D01*
X109275595Y-103466369D01*
X109227976Y-103561607D01*
X109227976Y-103656845D01*
X109275595Y-103799702D01*
X109847023Y-104371130D01*
X109227976Y-104371130D01*
X108751785Y-104371130D02*
X108561309Y-104371130D01*
X108466071Y-104323511D01*
X108418452Y-104275892D01*
X108323214Y-104133035D01*
X108275595Y-103942559D01*
X108275595Y-103561607D01*
X108323214Y-103466369D01*
X108370833Y-103418750D01*
X108466071Y-103371130D01*
X108656547Y-103371130D01*
X108751785Y-103418750D01*
X108799404Y-103466369D01*
X108847023Y-103561607D01*
X108847023Y-103799702D01*
X108799404Y-103894940D01*
X108751785Y-103942559D01*
X108656547Y-103990178D01*
X108466071Y-103990178D01*
X108370833Y-103942559D01*
X108323214Y-103894940D01*
X108275595Y-103799702D01*
%TO.C,K30*%
X129801785Y-104371130D02*
X129801785Y-103371130D01*
X129230357Y-104371130D02*
X129658928Y-103799702D01*
X129230357Y-103371130D02*
X129801785Y-103942559D01*
X128897023Y-103371130D02*
X128277976Y-103371130D01*
X128611309Y-103752083D01*
X128468452Y-103752083D01*
X128373214Y-103799702D01*
X128325595Y-103847321D01*
X128277976Y-103942559D01*
X128277976Y-104180654D01*
X128325595Y-104275892D01*
X128373214Y-104323511D01*
X128468452Y-104371130D01*
X128754166Y-104371130D01*
X128849404Y-104323511D01*
X128897023Y-104275892D01*
X127658928Y-103371130D02*
X127563690Y-103371130D01*
X127468452Y-103418750D01*
X127420833Y-103466369D01*
X127373214Y-103561607D01*
X127325595Y-103752083D01*
X127325595Y-103990178D01*
X127373214Y-104180654D01*
X127420833Y-104275892D01*
X127468452Y-104323511D01*
X127563690Y-104371130D01*
X127658928Y-104371130D01*
X127754166Y-104323511D01*
X127801785Y-104275892D01*
X127849404Y-104180654D01*
X127897023Y-103990178D01*
X127897023Y-103752083D01*
X127849404Y-103561607D01*
X127801785Y-103466369D01*
X127754166Y-103418750D01*
X127658928Y-103371130D01*
%TO.C,K31*%
X148851785Y-104371130D02*
X148851785Y-103371130D01*
X148280357Y-104371130D02*
X148708928Y-103799702D01*
X148280357Y-103371130D02*
X148851785Y-103942559D01*
X147947023Y-103371130D02*
X147327976Y-103371130D01*
X147661309Y-103752083D01*
X147518452Y-103752083D01*
X147423214Y-103799702D01*
X147375595Y-103847321D01*
X147327976Y-103942559D01*
X147327976Y-104180654D01*
X147375595Y-104275892D01*
X147423214Y-104323511D01*
X147518452Y-104371130D01*
X147804166Y-104371130D01*
X147899404Y-104323511D01*
X147947023Y-104275892D01*
X146375595Y-104371130D02*
X146947023Y-104371130D01*
X146661309Y-104371130D02*
X146661309Y-103371130D01*
X146756547Y-103513988D01*
X146851785Y-103609226D01*
X146947023Y-103656845D01*
%TO.C,K32*%
X167742785Y-104371130D02*
X167742785Y-103371130D01*
X167171357Y-104371130D02*
X167599928Y-103799702D01*
X167171357Y-103371130D02*
X167742785Y-103942559D01*
X166838023Y-103371130D02*
X166218976Y-103371130D01*
X166552309Y-103752083D01*
X166409452Y-103752083D01*
X166314214Y-103799702D01*
X166266595Y-103847321D01*
X166218976Y-103942559D01*
X166218976Y-104180654D01*
X166266595Y-104275892D01*
X166314214Y-104323511D01*
X166409452Y-104371130D01*
X166695166Y-104371130D01*
X166790404Y-104323511D01*
X166838023Y-104275892D01*
X165838023Y-103466369D02*
X165790404Y-103418750D01*
X165695166Y-103371130D01*
X165457071Y-103371130D01*
X165361833Y-103418750D01*
X165314214Y-103466369D01*
X165266595Y-103561607D01*
X165266595Y-103656845D01*
X165314214Y-103799702D01*
X165885642Y-104371130D01*
X165266595Y-104371130D01*
%TO.C,K33*%
X186951785Y-104371130D02*
X186951785Y-103371130D01*
X186380357Y-104371130D02*
X186808928Y-103799702D01*
X186380357Y-103371130D02*
X186951785Y-103942559D01*
X186047023Y-103371130D02*
X185427976Y-103371130D01*
X185761309Y-103752083D01*
X185618452Y-103752083D01*
X185523214Y-103799702D01*
X185475595Y-103847321D01*
X185427976Y-103942559D01*
X185427976Y-104180654D01*
X185475595Y-104275892D01*
X185523214Y-104323511D01*
X185618452Y-104371130D01*
X185904166Y-104371130D01*
X185999404Y-104323511D01*
X186047023Y-104275892D01*
X185094642Y-103371130D02*
X184475595Y-103371130D01*
X184808928Y-103752083D01*
X184666071Y-103752083D01*
X184570833Y-103799702D01*
X184523214Y-103847321D01*
X184475595Y-103942559D01*
X184475595Y-104180654D01*
X184523214Y-104275892D01*
X184570833Y-104323511D01*
X184666071Y-104371130D01*
X184951785Y-104371130D01*
X185047023Y-104323511D01*
X185094642Y-104275892D01*
%TO.C,K34*%
X206001785Y-104371130D02*
X206001785Y-103371130D01*
X205430357Y-104371130D02*
X205858928Y-103799702D01*
X205430357Y-103371130D02*
X206001785Y-103942559D01*
X205097023Y-103371130D02*
X204477976Y-103371130D01*
X204811309Y-103752083D01*
X204668452Y-103752083D01*
X204573214Y-103799702D01*
X204525595Y-103847321D01*
X204477976Y-103942559D01*
X204477976Y-104180654D01*
X204525595Y-104275892D01*
X204573214Y-104323511D01*
X204668452Y-104371130D01*
X204954166Y-104371130D01*
X205049404Y-104323511D01*
X205097023Y-104275892D01*
X203620833Y-103704464D02*
X203620833Y-104371130D01*
X203858928Y-103323511D02*
X204097023Y-104037797D01*
X203477976Y-104037797D01*
%TO.C,K35*%
X225051785Y-104371130D02*
X225051785Y-103371130D01*
X224480357Y-104371130D02*
X224908928Y-103799702D01*
X224480357Y-103371130D02*
X225051785Y-103942559D01*
X224147023Y-103371130D02*
X223527976Y-103371130D01*
X223861309Y-103752083D01*
X223718452Y-103752083D01*
X223623214Y-103799702D01*
X223575595Y-103847321D01*
X223527976Y-103942559D01*
X223527976Y-104180654D01*
X223575595Y-104275892D01*
X223623214Y-104323511D01*
X223718452Y-104371130D01*
X224004166Y-104371130D01*
X224099404Y-104323511D01*
X224147023Y-104275892D01*
X222623214Y-103371130D02*
X223099404Y-103371130D01*
X223147023Y-103847321D01*
X223099404Y-103799702D01*
X223004166Y-103752083D01*
X222766071Y-103752083D01*
X222670833Y-103799702D01*
X222623214Y-103847321D01*
X222575595Y-103942559D01*
X222575595Y-104180654D01*
X222623214Y-104275892D01*
X222670833Y-104323511D01*
X222766071Y-104371130D01*
X223004166Y-104371130D01*
X223099404Y-104323511D01*
X223147023Y-104275892D01*
%TO.C,K36*%
X244101785Y-104371130D02*
X244101785Y-103371130D01*
X243530357Y-104371130D02*
X243958928Y-103799702D01*
X243530357Y-103371130D02*
X244101785Y-103942559D01*
X243197023Y-103371130D02*
X242577976Y-103371130D01*
X242911309Y-103752083D01*
X242768452Y-103752083D01*
X242673214Y-103799702D01*
X242625595Y-103847321D01*
X242577976Y-103942559D01*
X242577976Y-104180654D01*
X242625595Y-104275892D01*
X242673214Y-104323511D01*
X242768452Y-104371130D01*
X243054166Y-104371130D01*
X243149404Y-104323511D01*
X243197023Y-104275892D01*
X241720833Y-103371130D02*
X241911309Y-103371130D01*
X242006547Y-103418750D01*
X242054166Y-103466369D01*
X242149404Y-103609226D01*
X242197023Y-103799702D01*
X242197023Y-104180654D01*
X242149404Y-104275892D01*
X242101785Y-104323511D01*
X242006547Y-104371130D01*
X241816071Y-104371130D01*
X241720833Y-104323511D01*
X241673214Y-104275892D01*
X241625595Y-104180654D01*
X241625595Y-103942559D01*
X241673214Y-103847321D01*
X241720833Y-103799702D01*
X241816071Y-103752083D01*
X242006547Y-103752083D01*
X242101785Y-103799702D01*
X242149404Y-103847321D01*
X242197023Y-103942559D01*
%TO.C,K37*%
X263151785Y-104371130D02*
X263151785Y-103371130D01*
X262580357Y-104371130D02*
X263008928Y-103799702D01*
X262580357Y-103371130D02*
X263151785Y-103942559D01*
X262247023Y-103371130D02*
X261627976Y-103371130D01*
X261961309Y-103752083D01*
X261818452Y-103752083D01*
X261723214Y-103799702D01*
X261675595Y-103847321D01*
X261627976Y-103942559D01*
X261627976Y-104180654D01*
X261675595Y-104275892D01*
X261723214Y-104323511D01*
X261818452Y-104371130D01*
X262104166Y-104371130D01*
X262199404Y-104323511D01*
X262247023Y-104275892D01*
X261294642Y-103371130D02*
X260627976Y-103371130D01*
X261056547Y-104371130D01*
%TO.C,K38*%
X282201785Y-104371130D02*
X282201785Y-103371130D01*
X281630357Y-104371130D02*
X282058928Y-103799702D01*
X281630357Y-103371130D02*
X282201785Y-103942559D01*
X281297023Y-103371130D02*
X280677976Y-103371130D01*
X281011309Y-103752083D01*
X280868452Y-103752083D01*
X280773214Y-103799702D01*
X280725595Y-103847321D01*
X280677976Y-103942559D01*
X280677976Y-104180654D01*
X280725595Y-104275892D01*
X280773214Y-104323511D01*
X280868452Y-104371130D01*
X281154166Y-104371130D01*
X281249404Y-104323511D01*
X281297023Y-104275892D01*
X280106547Y-103799702D02*
X280201785Y-103752083D01*
X280249404Y-103704464D01*
X280297023Y-103609226D01*
X280297023Y-103561607D01*
X280249404Y-103466369D01*
X280201785Y-103418750D01*
X280106547Y-103371130D01*
X279916071Y-103371130D01*
X279820833Y-103418750D01*
X279773214Y-103466369D01*
X279725595Y-103561607D01*
X279725595Y-103609226D01*
X279773214Y-103704464D01*
X279820833Y-103752083D01*
X279916071Y-103799702D01*
X280106547Y-103799702D01*
X280201785Y-103847321D01*
X280249404Y-103894940D01*
X280297023Y-103990178D01*
X280297023Y-104180654D01*
X280249404Y-104275892D01*
X280201785Y-104323511D01*
X280106547Y-104371130D01*
X279916071Y-104371130D01*
X279820833Y-104323511D01*
X279773214Y-104275892D01*
X279725595Y-104180654D01*
X279725595Y-103990178D01*
X279773214Y-103894940D01*
X279820833Y-103847321D01*
X279916071Y-103799702D01*
%TO.C,K39*%
X301251785Y-104371130D02*
X301251785Y-103371130D01*
X300680357Y-104371130D02*
X301108928Y-103799702D01*
X300680357Y-103371130D02*
X301251785Y-103942559D01*
X300347023Y-103371130D02*
X299727976Y-103371130D01*
X300061309Y-103752083D01*
X299918452Y-103752083D01*
X299823214Y-103799702D01*
X299775595Y-103847321D01*
X299727976Y-103942559D01*
X299727976Y-104180654D01*
X299775595Y-104275892D01*
X299823214Y-104323511D01*
X299918452Y-104371130D01*
X300204166Y-104371130D01*
X300299404Y-104323511D01*
X300347023Y-104275892D01*
X299251785Y-104371130D02*
X299061309Y-104371130D01*
X298966071Y-104323511D01*
X298918452Y-104275892D01*
X298823214Y-104133035D01*
X298775595Y-103942559D01*
X298775595Y-103561607D01*
X298823214Y-103466369D01*
X298870833Y-103418750D01*
X298966071Y-103371130D01*
X299156547Y-103371130D01*
X299251785Y-103418750D01*
X299299404Y-103466369D01*
X299347023Y-103561607D01*
X299347023Y-103799702D01*
X299299404Y-103894940D01*
X299251785Y-103942559D01*
X299156547Y-103990178D01*
X298966071Y-103990178D01*
X298870833Y-103942559D01*
X298823214Y-103894940D01*
X298775595Y-103799702D01*
%TO.C,K40*%
X332207785Y-104371130D02*
X332207785Y-103371130D01*
X331636357Y-104371130D02*
X332064928Y-103799702D01*
X331636357Y-103371130D02*
X332207785Y-103942559D01*
X330779214Y-103704464D02*
X330779214Y-104371130D01*
X331017309Y-103323511D02*
X331255404Y-104037797D01*
X330636357Y-104037797D01*
X330064928Y-103371130D02*
X329969690Y-103371130D01*
X329874452Y-103418750D01*
X329826833Y-103466369D01*
X329779214Y-103561607D01*
X329731595Y-103752083D01*
X329731595Y-103990178D01*
X329779214Y-104180654D01*
X329826833Y-104275892D01*
X329874452Y-104323511D01*
X329969690Y-104371130D01*
X330064928Y-104371130D01*
X330160166Y-104323511D01*
X330207785Y-104275892D01*
X330255404Y-104180654D01*
X330303023Y-103990178D01*
X330303023Y-103752083D01*
X330255404Y-103561607D01*
X330207785Y-103466369D01*
X330160166Y-103418750D01*
X330064928Y-103371130D01*
%TO.C,K41*%
X89320585Y-123421130D02*
X89320585Y-122421130D01*
X88749157Y-123421130D02*
X89177728Y-122849702D01*
X88749157Y-122421130D02*
X89320585Y-122992559D01*
X87892014Y-122754464D02*
X87892014Y-123421130D01*
X88130109Y-122373511D02*
X88368204Y-123087797D01*
X87749157Y-123087797D01*
X86844395Y-123421130D02*
X87415823Y-123421130D01*
X87130109Y-123421130D02*
X87130109Y-122421130D01*
X87225347Y-122563988D01*
X87320585Y-122659226D01*
X87415823Y-122706845D01*
%TO.C,K42*%
X120217985Y-123421130D02*
X120217985Y-122421130D01*
X119646557Y-123421130D02*
X120075128Y-122849702D01*
X119646557Y-122421130D02*
X120217985Y-122992559D01*
X118789414Y-122754464D02*
X118789414Y-123421130D01*
X119027509Y-122373511D02*
X119265604Y-123087797D01*
X118646557Y-123087797D01*
X118313223Y-122516369D02*
X118265604Y-122468750D01*
X118170366Y-122421130D01*
X117932271Y-122421130D01*
X117837033Y-122468750D01*
X117789414Y-122516369D01*
X117741795Y-122611607D01*
X117741795Y-122706845D01*
X117789414Y-122849702D01*
X118360842Y-123421130D01*
X117741795Y-123421130D01*
%TO.C,K43*%
X139326785Y-123421130D02*
X139326785Y-122421130D01*
X138755357Y-123421130D02*
X139183928Y-122849702D01*
X138755357Y-122421130D02*
X139326785Y-122992559D01*
X137898214Y-122754464D02*
X137898214Y-123421130D01*
X138136309Y-122373511D02*
X138374404Y-123087797D01*
X137755357Y-123087797D01*
X137469642Y-122421130D02*
X136850595Y-122421130D01*
X137183928Y-122802083D01*
X137041071Y-122802083D01*
X136945833Y-122849702D01*
X136898214Y-122897321D01*
X136850595Y-122992559D01*
X136850595Y-123230654D01*
X136898214Y-123325892D01*
X136945833Y-123373511D01*
X137041071Y-123421130D01*
X137326785Y-123421130D01*
X137422023Y-123373511D01*
X137469642Y-123325892D01*
%TO.C,K44*%
X158376785Y-123421130D02*
X158376785Y-122421130D01*
X157805357Y-123421130D02*
X158233928Y-122849702D01*
X157805357Y-122421130D02*
X158376785Y-122992559D01*
X156948214Y-122754464D02*
X156948214Y-123421130D01*
X157186309Y-122373511D02*
X157424404Y-123087797D01*
X156805357Y-123087797D01*
X155995833Y-122754464D02*
X155995833Y-123421130D01*
X156233928Y-122373511D02*
X156472023Y-123087797D01*
X155852976Y-123087797D01*
%TO.C,K45*%
X177426785Y-123421130D02*
X177426785Y-122421130D01*
X176855357Y-123421130D02*
X177283928Y-122849702D01*
X176855357Y-122421130D02*
X177426785Y-122992559D01*
X175998214Y-122754464D02*
X175998214Y-123421130D01*
X176236309Y-122373511D02*
X176474404Y-123087797D01*
X175855357Y-123087797D01*
X174998214Y-122421130D02*
X175474404Y-122421130D01*
X175522023Y-122897321D01*
X175474404Y-122849702D01*
X175379166Y-122802083D01*
X175141071Y-122802083D01*
X175045833Y-122849702D01*
X174998214Y-122897321D01*
X174950595Y-122992559D01*
X174950595Y-123230654D01*
X174998214Y-123325892D01*
X175045833Y-123373511D01*
X175141071Y-123421130D01*
X175379166Y-123421130D01*
X175474404Y-123373511D01*
X175522023Y-123325892D01*
%TO.C,K46*%
X196476785Y-123421130D02*
X196476785Y-122421130D01*
X195905357Y-123421130D02*
X196333928Y-122849702D01*
X195905357Y-122421130D02*
X196476785Y-122992559D01*
X195048214Y-122754464D02*
X195048214Y-123421130D01*
X195286309Y-122373511D02*
X195524404Y-123087797D01*
X194905357Y-123087797D01*
X194095833Y-122421130D02*
X194286309Y-122421130D01*
X194381547Y-122468750D01*
X194429166Y-122516369D01*
X194524404Y-122659226D01*
X194572023Y-122849702D01*
X194572023Y-123230654D01*
X194524404Y-123325892D01*
X194476785Y-123373511D01*
X194381547Y-123421130D01*
X194191071Y-123421130D01*
X194095833Y-123373511D01*
X194048214Y-123325892D01*
X194000595Y-123230654D01*
X194000595Y-122992559D01*
X194048214Y-122897321D01*
X194095833Y-122849702D01*
X194191071Y-122802083D01*
X194381547Y-122802083D01*
X194476785Y-122849702D01*
X194524404Y-122897321D01*
X194572023Y-122992559D01*
%TO.C,K47*%
X215526785Y-123421130D02*
X215526785Y-122421130D01*
X214955357Y-123421130D02*
X215383928Y-122849702D01*
X214955357Y-122421130D02*
X215526785Y-122992559D01*
X214098214Y-122754464D02*
X214098214Y-123421130D01*
X214336309Y-122373511D02*
X214574404Y-123087797D01*
X213955357Y-123087797D01*
X213669642Y-122421130D02*
X213002976Y-122421130D01*
X213431547Y-123421130D01*
%TO.C,K48*%
X234576785Y-123421130D02*
X234576785Y-122421130D01*
X234005357Y-123421130D02*
X234433928Y-122849702D01*
X234005357Y-122421130D02*
X234576785Y-122992559D01*
X233148214Y-122754464D02*
X233148214Y-123421130D01*
X233386309Y-122373511D02*
X233624404Y-123087797D01*
X233005357Y-123087797D01*
X232481547Y-122849702D02*
X232576785Y-122802083D01*
X232624404Y-122754464D01*
X232672023Y-122659226D01*
X232672023Y-122611607D01*
X232624404Y-122516369D01*
X232576785Y-122468750D01*
X232481547Y-122421130D01*
X232291071Y-122421130D01*
X232195833Y-122468750D01*
X232148214Y-122516369D01*
X232100595Y-122611607D01*
X232100595Y-122659226D01*
X232148214Y-122754464D01*
X232195833Y-122802083D01*
X232291071Y-122849702D01*
X232481547Y-122849702D01*
X232576785Y-122897321D01*
X232624404Y-122944940D01*
X232672023Y-123040178D01*
X232672023Y-123230654D01*
X232624404Y-123325892D01*
X232576785Y-123373511D01*
X232481547Y-123421130D01*
X232291071Y-123421130D01*
X232195833Y-123373511D01*
X232148214Y-123325892D01*
X232100595Y-123230654D01*
X232100595Y-123040178D01*
X232148214Y-122944940D01*
X232195833Y-122897321D01*
X232291071Y-122849702D01*
%TO.C,K49*%
X253626785Y-123421130D02*
X253626785Y-122421130D01*
X253055357Y-123421130D02*
X253483928Y-122849702D01*
X253055357Y-122421130D02*
X253626785Y-122992559D01*
X252198214Y-122754464D02*
X252198214Y-123421130D01*
X252436309Y-122373511D02*
X252674404Y-123087797D01*
X252055357Y-123087797D01*
X251626785Y-123421130D02*
X251436309Y-123421130D01*
X251341071Y-123373511D01*
X251293452Y-123325892D01*
X251198214Y-123183035D01*
X251150595Y-122992559D01*
X251150595Y-122611607D01*
X251198214Y-122516369D01*
X251245833Y-122468750D01*
X251341071Y-122421130D01*
X251531547Y-122421130D01*
X251626785Y-122468750D01*
X251674404Y-122516369D01*
X251722023Y-122611607D01*
X251722023Y-122849702D01*
X251674404Y-122944940D01*
X251626785Y-122992559D01*
X251531547Y-123040178D01*
X251341071Y-123040178D01*
X251245833Y-122992559D01*
X251198214Y-122944940D01*
X251150595Y-122849702D01*
%TO.C,K50*%
X272676785Y-123421130D02*
X272676785Y-122421130D01*
X272105357Y-123421130D02*
X272533928Y-122849702D01*
X272105357Y-122421130D02*
X272676785Y-122992559D01*
X271200595Y-122421130D02*
X271676785Y-122421130D01*
X271724404Y-122897321D01*
X271676785Y-122849702D01*
X271581547Y-122802083D01*
X271343452Y-122802083D01*
X271248214Y-122849702D01*
X271200595Y-122897321D01*
X271152976Y-122992559D01*
X271152976Y-123230654D01*
X271200595Y-123325892D01*
X271248214Y-123373511D01*
X271343452Y-123421130D01*
X271581547Y-123421130D01*
X271676785Y-123373511D01*
X271724404Y-123325892D01*
X270533928Y-122421130D02*
X270438690Y-122421130D01*
X270343452Y-122468750D01*
X270295833Y-122516369D01*
X270248214Y-122611607D01*
X270200595Y-122802083D01*
X270200595Y-123040178D01*
X270248214Y-123230654D01*
X270295833Y-123325892D01*
X270343452Y-123373511D01*
X270438690Y-123421130D01*
X270533928Y-123421130D01*
X270629166Y-123373511D01*
X270676785Y-123325892D01*
X270724404Y-123230654D01*
X270772023Y-123040178D01*
X270772023Y-122802083D01*
X270724404Y-122611607D01*
X270676785Y-122516369D01*
X270629166Y-122468750D01*
X270533928Y-122421130D01*
%TO.C,K51*%
X291726785Y-123421130D02*
X291726785Y-122421130D01*
X291155357Y-123421130D02*
X291583928Y-122849702D01*
X291155357Y-122421130D02*
X291726785Y-122992559D01*
X290250595Y-122421130D02*
X290726785Y-122421130D01*
X290774404Y-122897321D01*
X290726785Y-122849702D01*
X290631547Y-122802083D01*
X290393452Y-122802083D01*
X290298214Y-122849702D01*
X290250595Y-122897321D01*
X290202976Y-122992559D01*
X290202976Y-123230654D01*
X290250595Y-123325892D01*
X290298214Y-123373511D01*
X290393452Y-123421130D01*
X290631547Y-123421130D01*
X290726785Y-123373511D01*
X290774404Y-123325892D01*
X289250595Y-123421130D02*
X289822023Y-123421130D01*
X289536309Y-123421130D02*
X289536309Y-122421130D01*
X289631547Y-122563988D01*
X289726785Y-122659226D01*
X289822023Y-122706845D01*
%TO.C,K52*%
X327445785Y-123421130D02*
X327445785Y-122421130D01*
X326874357Y-123421130D02*
X327302928Y-122849702D01*
X326874357Y-122421130D02*
X327445785Y-122992559D01*
X325969595Y-122421130D02*
X326445785Y-122421130D01*
X326493404Y-122897321D01*
X326445785Y-122849702D01*
X326350547Y-122802083D01*
X326112452Y-122802083D01*
X326017214Y-122849702D01*
X325969595Y-122897321D01*
X325921976Y-122992559D01*
X325921976Y-123230654D01*
X325969595Y-123325892D01*
X326017214Y-123373511D01*
X326112452Y-123421130D01*
X326350547Y-123421130D01*
X326445785Y-123373511D01*
X326493404Y-123325892D01*
X325541023Y-122516369D02*
X325493404Y-122468750D01*
X325398166Y-122421130D01*
X325160071Y-122421130D01*
X325064833Y-122468750D01*
X325017214Y-122516369D01*
X324969595Y-122611607D01*
X324969595Y-122706845D01*
X325017214Y-122849702D01*
X325588642Y-123421130D01*
X324969595Y-123421130D01*
%TO.C,K53*%
X79795585Y-142471130D02*
X79795585Y-141471130D01*
X79224157Y-142471130D02*
X79652728Y-141899702D01*
X79224157Y-141471130D02*
X79795585Y-142042559D01*
X78319395Y-141471130D02*
X78795585Y-141471130D01*
X78843204Y-141947321D01*
X78795585Y-141899702D01*
X78700347Y-141852083D01*
X78462252Y-141852083D01*
X78367014Y-141899702D01*
X78319395Y-141947321D01*
X78271776Y-142042559D01*
X78271776Y-142280654D01*
X78319395Y-142375892D01*
X78367014Y-142423511D01*
X78462252Y-142471130D01*
X78700347Y-142471130D01*
X78795585Y-142423511D01*
X78843204Y-142375892D01*
X77938442Y-141471130D02*
X77319395Y-141471130D01*
X77652728Y-141852083D01*
X77509871Y-141852083D01*
X77414633Y-141899702D01*
X77367014Y-141947321D01*
X77319395Y-142042559D01*
X77319395Y-142280654D01*
X77367014Y-142375892D01*
X77414633Y-142423511D01*
X77509871Y-142471130D01*
X77795585Y-142471130D01*
X77890823Y-142423511D01*
X77938442Y-142375892D01*
%TO.C,K54*%
X103607985Y-142471130D02*
X103607985Y-141471130D01*
X103036557Y-142471130D02*
X103465128Y-141899702D01*
X103036557Y-141471130D02*
X103607985Y-142042559D01*
X102131795Y-141471130D02*
X102607985Y-141471130D01*
X102655604Y-141947321D01*
X102607985Y-141899702D01*
X102512747Y-141852083D01*
X102274652Y-141852083D01*
X102179414Y-141899702D01*
X102131795Y-141947321D01*
X102084176Y-142042559D01*
X102084176Y-142280654D01*
X102131795Y-142375892D01*
X102179414Y-142423511D01*
X102274652Y-142471130D01*
X102512747Y-142471130D01*
X102607985Y-142423511D01*
X102655604Y-142375892D01*
X101227033Y-141804464D02*
X101227033Y-142471130D01*
X101465128Y-141423511D02*
X101703223Y-142137797D01*
X101084176Y-142137797D01*
%TO.C,K55*%
X127420585Y-142471130D02*
X127420585Y-141471130D01*
X126849157Y-142471130D02*
X127277728Y-141899702D01*
X126849157Y-141471130D02*
X127420585Y-142042559D01*
X125944395Y-141471130D02*
X126420585Y-141471130D01*
X126468204Y-141947321D01*
X126420585Y-141899702D01*
X126325347Y-141852083D01*
X126087252Y-141852083D01*
X125992014Y-141899702D01*
X125944395Y-141947321D01*
X125896776Y-142042559D01*
X125896776Y-142280654D01*
X125944395Y-142375892D01*
X125992014Y-142423511D01*
X126087252Y-142471130D01*
X126325347Y-142471130D01*
X126420585Y-142423511D01*
X126468204Y-142375892D01*
X124992014Y-141471130D02*
X125468204Y-141471130D01*
X125515823Y-141947321D01*
X125468204Y-141899702D01*
X125372966Y-141852083D01*
X125134871Y-141852083D01*
X125039633Y-141899702D01*
X124992014Y-141947321D01*
X124944395Y-142042559D01*
X124944395Y-142280654D01*
X124992014Y-142375892D01*
X125039633Y-142423511D01*
X125134871Y-142471130D01*
X125372966Y-142471130D01*
X125468204Y-142423511D01*
X125515823Y-142375892D01*
%TO.C,K56*%
X198857785Y-142471130D02*
X198857785Y-141471130D01*
X198286357Y-142471130D02*
X198714928Y-141899702D01*
X198286357Y-141471130D02*
X198857785Y-142042559D01*
X197381595Y-141471130D02*
X197857785Y-141471130D01*
X197905404Y-141947321D01*
X197857785Y-141899702D01*
X197762547Y-141852083D01*
X197524452Y-141852083D01*
X197429214Y-141899702D01*
X197381595Y-141947321D01*
X197333976Y-142042559D01*
X197333976Y-142280654D01*
X197381595Y-142375892D01*
X197429214Y-142423511D01*
X197524452Y-142471130D01*
X197762547Y-142471130D01*
X197857785Y-142423511D01*
X197905404Y-142375892D01*
X196476833Y-141471130D02*
X196667309Y-141471130D01*
X196762547Y-141518750D01*
X196810166Y-141566369D01*
X196905404Y-141709226D01*
X196953023Y-141899702D01*
X196953023Y-142280654D01*
X196905404Y-142375892D01*
X196857785Y-142423511D01*
X196762547Y-142471130D01*
X196572071Y-142471130D01*
X196476833Y-142423511D01*
X196429214Y-142375892D01*
X196381595Y-142280654D01*
X196381595Y-142042559D01*
X196429214Y-141947321D01*
X196476833Y-141899702D01*
X196572071Y-141852083D01*
X196762547Y-141852083D01*
X196857785Y-141899702D01*
X196905404Y-141947321D01*
X196953023Y-142042559D01*
%TO.C,K57*%
X270295785Y-142471130D02*
X270295785Y-141471130D01*
X269724357Y-142471130D02*
X270152928Y-141899702D01*
X269724357Y-141471130D02*
X270295785Y-142042559D01*
X268819595Y-141471130D02*
X269295785Y-141471130D01*
X269343404Y-141947321D01*
X269295785Y-141899702D01*
X269200547Y-141852083D01*
X268962452Y-141852083D01*
X268867214Y-141899702D01*
X268819595Y-141947321D01*
X268771976Y-142042559D01*
X268771976Y-142280654D01*
X268819595Y-142375892D01*
X268867214Y-142423511D01*
X268962452Y-142471130D01*
X269200547Y-142471130D01*
X269295785Y-142423511D01*
X269343404Y-142375892D01*
X268438642Y-141471130D02*
X267771976Y-141471130D01*
X268200547Y-142471130D01*
%TO.C,K58*%
X294107785Y-142471130D02*
X294107785Y-141471130D01*
X293536357Y-142471130D02*
X293964928Y-141899702D01*
X293536357Y-141471130D02*
X294107785Y-142042559D01*
X292631595Y-141471130D02*
X293107785Y-141471130D01*
X293155404Y-141947321D01*
X293107785Y-141899702D01*
X293012547Y-141852083D01*
X292774452Y-141852083D01*
X292679214Y-141899702D01*
X292631595Y-141947321D01*
X292583976Y-142042559D01*
X292583976Y-142280654D01*
X292631595Y-142375892D01*
X292679214Y-142423511D01*
X292774452Y-142471130D01*
X293012547Y-142471130D01*
X293107785Y-142423511D01*
X293155404Y-142375892D01*
X292012547Y-141899702D02*
X292107785Y-141852083D01*
X292155404Y-141804464D01*
X292203023Y-141709226D01*
X292203023Y-141661607D01*
X292155404Y-141566369D01*
X292107785Y-141518750D01*
X292012547Y-141471130D01*
X291822071Y-141471130D01*
X291726833Y-141518750D01*
X291679214Y-141566369D01*
X291631595Y-141661607D01*
X291631595Y-141709226D01*
X291679214Y-141804464D01*
X291726833Y-141852083D01*
X291822071Y-141899702D01*
X292012547Y-141899702D01*
X292107785Y-141947321D01*
X292155404Y-141994940D01*
X292203023Y-142090178D01*
X292203023Y-142280654D01*
X292155404Y-142375892D01*
X292107785Y-142423511D01*
X292012547Y-142471130D01*
X291822071Y-142471130D01*
X291726833Y-142423511D01*
X291679214Y-142375892D01*
X291631595Y-142280654D01*
X291631595Y-142090178D01*
X291679214Y-141994940D01*
X291726833Y-141947321D01*
X291822071Y-141899702D01*
%TO.C,K59*%
X317920785Y-142471130D02*
X317920785Y-141471130D01*
X317349357Y-142471130D02*
X317777928Y-141899702D01*
X317349357Y-141471130D02*
X317920785Y-142042559D01*
X316444595Y-141471130D02*
X316920785Y-141471130D01*
X316968404Y-141947321D01*
X316920785Y-141899702D01*
X316825547Y-141852083D01*
X316587452Y-141852083D01*
X316492214Y-141899702D01*
X316444595Y-141947321D01*
X316396976Y-142042559D01*
X316396976Y-142280654D01*
X316444595Y-142375892D01*
X316492214Y-142423511D01*
X316587452Y-142471130D01*
X316825547Y-142471130D01*
X316920785Y-142423511D01*
X316968404Y-142375892D01*
X315920785Y-142471130D02*
X315730309Y-142471130D01*
X315635071Y-142423511D01*
X315587452Y-142375892D01*
X315492214Y-142233035D01*
X315444595Y-142042559D01*
X315444595Y-141661607D01*
X315492214Y-141566369D01*
X315539833Y-141518750D01*
X315635071Y-141471130D01*
X315825547Y-141471130D01*
X315920785Y-141518750D01*
X315968404Y-141566369D01*
X316016023Y-141661607D01*
X316016023Y-141899702D01*
X315968404Y-141994940D01*
X315920785Y-142042559D01*
X315825547Y-142090178D01*
X315635071Y-142090178D01*
X315539833Y-142042559D01*
X315492214Y-141994940D01*
X315444595Y-141899702D01*
%TO.C,K60*%
X341732785Y-142471130D02*
X341732785Y-141471130D01*
X341161357Y-142471130D02*
X341589928Y-141899702D01*
X341161357Y-141471130D02*
X341732785Y-142042559D01*
X340304214Y-141471130D02*
X340494690Y-141471130D01*
X340589928Y-141518750D01*
X340637547Y-141566369D01*
X340732785Y-141709226D01*
X340780404Y-141899702D01*
X340780404Y-142280654D01*
X340732785Y-142375892D01*
X340685166Y-142423511D01*
X340589928Y-142471130D01*
X340399452Y-142471130D01*
X340304214Y-142423511D01*
X340256595Y-142375892D01*
X340208976Y-142280654D01*
X340208976Y-142042559D01*
X340256595Y-141947321D01*
X340304214Y-141899702D01*
X340399452Y-141852083D01*
X340589928Y-141852083D01*
X340685166Y-141899702D01*
X340732785Y-141947321D01*
X340780404Y-142042559D01*
X339589928Y-141471130D02*
X339494690Y-141471130D01*
X339399452Y-141518750D01*
X339351833Y-141566369D01*
X339304214Y-141661607D01*
X339256595Y-141852083D01*
X339256595Y-142090178D01*
X339304214Y-142280654D01*
X339351833Y-142375892D01*
X339399452Y-142423511D01*
X339494690Y-142471130D01*
X339589928Y-142471130D01*
X339685166Y-142423511D01*
X339732785Y-142375892D01*
X339780404Y-142280654D01*
X339828023Y-142090178D01*
X339828023Y-141852083D01*
X339780404Y-141661607D01*
X339732785Y-141566369D01*
X339685166Y-141518750D01*
X339589928Y-141471130D01*
%TO.C,U1*%
X74656904Y-116789273D02*
X73856904Y-116789273D01*
X73856904Y-116979750D01*
X73895000Y-117094035D01*
X73971190Y-117170226D01*
X74047380Y-117208321D01*
X74199761Y-117246416D01*
X74314047Y-117246416D01*
X74466428Y-117208321D01*
X74542619Y-117170226D01*
X74618809Y-117094035D01*
X74656904Y-116979750D01*
X74656904Y-116789273D01*
X73933095Y-117551178D02*
X73895000Y-117589273D01*
X73856904Y-117665464D01*
X73856904Y-117855940D01*
X73895000Y-117932130D01*
X73933095Y-117970226D01*
X74009285Y-118008321D01*
X74085476Y-118008321D01*
X74199761Y-117970226D01*
X74656904Y-117513083D01*
X74656904Y-118008321D01*
X84816904Y-116789273D02*
X84016904Y-116789273D01*
X84016904Y-116979750D01*
X84055000Y-117094035D01*
X84131190Y-117170226D01*
X84207380Y-117208321D01*
X84359761Y-117246416D01*
X84474047Y-117246416D01*
X84626428Y-117208321D01*
X84702619Y-117170226D01*
X84778809Y-117094035D01*
X84816904Y-116979750D01*
X84816904Y-116789273D01*
X84016904Y-117741654D02*
X84016904Y-117817845D01*
X84055000Y-117894035D01*
X84093095Y-117932130D01*
X84169285Y-117970226D01*
X84321666Y-118008321D01*
X84512142Y-118008321D01*
X84664523Y-117970226D01*
X84740714Y-117932130D01*
X84778809Y-117894035D01*
X84816904Y-117817845D01*
X84816904Y-117741654D01*
X84778809Y-117665464D01*
X84740714Y-117627369D01*
X84664523Y-117589273D01*
X84512142Y-117551178D01*
X84321666Y-117551178D01*
X84169285Y-117589273D01*
X84093095Y-117627369D01*
X84055000Y-117665464D01*
X84016904Y-117741654D01*
X82276904Y-116789273D02*
X81476904Y-116789273D01*
X81476904Y-116979750D01*
X81515000Y-117094035D01*
X81591190Y-117170226D01*
X81667380Y-117208321D01*
X81819761Y-117246416D01*
X81934047Y-117246416D01*
X82086428Y-117208321D01*
X82162619Y-117170226D01*
X82238809Y-117094035D01*
X82276904Y-116979750D01*
X82276904Y-116789273D01*
X82276904Y-118008321D02*
X82276904Y-117551178D01*
X82276904Y-117779750D02*
X81476904Y-117779750D01*
X81591190Y-117703559D01*
X81667380Y-117627369D01*
X81705476Y-117551178D01*
X78975000Y-116770226D02*
X78936904Y-116694035D01*
X78936904Y-116579750D01*
X78975000Y-116465464D01*
X79051190Y-116389273D01*
X79127380Y-116351178D01*
X79279761Y-116313083D01*
X79394047Y-116313083D01*
X79546428Y-116351178D01*
X79622619Y-116389273D01*
X79698809Y-116465464D01*
X79736904Y-116579750D01*
X79736904Y-116655940D01*
X79698809Y-116770226D01*
X79660714Y-116808321D01*
X79394047Y-116808321D01*
X79394047Y-116655940D01*
X79736904Y-117151178D02*
X78936904Y-117151178D01*
X79736904Y-117608321D01*
X78936904Y-117608321D01*
X79736904Y-117989273D02*
X78936904Y-117989273D01*
X78936904Y-118179750D01*
X78975000Y-118294035D01*
X79051190Y-118370226D01*
X79127380Y-118408321D01*
X79279761Y-118446416D01*
X79394047Y-118446416D01*
X79546428Y-118408321D01*
X79622619Y-118370226D01*
X79698809Y-118294035D01*
X79736904Y-118179750D01*
X79736904Y-117989273D01*
X76435000Y-116770226D02*
X76396904Y-116694035D01*
X76396904Y-116579750D01*
X76435000Y-116465464D01*
X76511190Y-116389273D01*
X76587380Y-116351178D01*
X76739761Y-116313083D01*
X76854047Y-116313083D01*
X77006428Y-116351178D01*
X77082619Y-116389273D01*
X77158809Y-116465464D01*
X77196904Y-116579750D01*
X77196904Y-116655940D01*
X77158809Y-116770226D01*
X77120714Y-116808321D01*
X76854047Y-116808321D01*
X76854047Y-116655940D01*
X77196904Y-117151178D02*
X76396904Y-117151178D01*
X77196904Y-117608321D01*
X76396904Y-117608321D01*
X77196904Y-117989273D02*
X76396904Y-117989273D01*
X76396904Y-118179750D01*
X76435000Y-118294035D01*
X76511190Y-118370226D01*
X76587380Y-118408321D01*
X76739761Y-118446416D01*
X76854047Y-118446416D01*
X77006428Y-118408321D01*
X77082619Y-118370226D01*
X77158809Y-118294035D01*
X77196904Y-118179750D01*
X77196904Y-117989273D01*
X87356904Y-116789273D02*
X86556904Y-116789273D01*
X86556904Y-116979750D01*
X86595000Y-117094035D01*
X86671190Y-117170226D01*
X86747380Y-117208321D01*
X86899761Y-117246416D01*
X87014047Y-117246416D01*
X87166428Y-117208321D01*
X87242619Y-117170226D01*
X87318809Y-117094035D01*
X87356904Y-116979750D01*
X87356904Y-116789273D01*
X86823571Y-117932130D02*
X87356904Y-117932130D01*
X86518809Y-117741654D02*
X87090238Y-117551178D01*
X87090238Y-118046416D01*
X89820714Y-117246416D02*
X89858809Y-117208321D01*
X89896904Y-117094035D01*
X89896904Y-117017845D01*
X89858809Y-116903559D01*
X89782619Y-116827369D01*
X89706428Y-116789273D01*
X89554047Y-116751178D01*
X89439761Y-116751178D01*
X89287380Y-116789273D01*
X89211190Y-116827369D01*
X89135000Y-116903559D01*
X89096904Y-117017845D01*
X89096904Y-117094035D01*
X89135000Y-117208321D01*
X89173095Y-117246416D01*
X89096904Y-117932130D02*
X89096904Y-117779750D01*
X89135000Y-117703559D01*
X89173095Y-117665464D01*
X89287380Y-117589273D01*
X89439761Y-117551178D01*
X89744523Y-117551178D01*
X89820714Y-117589273D01*
X89858809Y-117627369D01*
X89896904Y-117703559D01*
X89896904Y-117855940D01*
X89858809Y-117932130D01*
X89820714Y-117970226D01*
X89744523Y-118008321D01*
X89554047Y-118008321D01*
X89477857Y-117970226D01*
X89439761Y-117932130D01*
X89401666Y-117855940D01*
X89401666Y-117703559D01*
X89439761Y-117627369D01*
X89477857Y-117589273D01*
X89554047Y-117551178D01*
X92436904Y-116789273D02*
X91636904Y-116789273D01*
X91636904Y-116979750D01*
X91675000Y-117094035D01*
X91751190Y-117170226D01*
X91827380Y-117208321D01*
X91979761Y-117246416D01*
X92094047Y-117246416D01*
X92246428Y-117208321D01*
X92322619Y-117170226D01*
X92398809Y-117094035D01*
X92436904Y-116979750D01*
X92436904Y-116789273D01*
X91636904Y-117513083D02*
X91636904Y-118046416D01*
X92436904Y-117703559D01*
X94557857Y-116827369D02*
X94557857Y-117094035D01*
X94976904Y-117208321D02*
X94976904Y-116827369D01*
X94176904Y-116827369D01*
X94176904Y-117208321D01*
X94176904Y-117894035D02*
X94176904Y-117741654D01*
X94215000Y-117665464D01*
X94253095Y-117627369D01*
X94367380Y-117551178D01*
X94519761Y-117513083D01*
X94824523Y-117513083D01*
X94900714Y-117551178D01*
X94938809Y-117589273D01*
X94976904Y-117665464D01*
X94976904Y-117817845D01*
X94938809Y-117894035D01*
X94900714Y-117932130D01*
X94824523Y-117970226D01*
X94634047Y-117970226D01*
X94557857Y-117932130D01*
X94519761Y-117894035D01*
X94481666Y-117817845D01*
X94481666Y-117665464D01*
X94519761Y-117589273D01*
X94557857Y-117551178D01*
X94634047Y-117513083D01*
X97097857Y-117055940D02*
X97135952Y-117170226D01*
X97174047Y-117208321D01*
X97250238Y-117246416D01*
X97364523Y-117246416D01*
X97440714Y-117208321D01*
X97478809Y-117170226D01*
X97516904Y-117094035D01*
X97516904Y-116789273D01*
X96716904Y-116789273D01*
X96716904Y-117055940D01*
X96755000Y-117132130D01*
X96793095Y-117170226D01*
X96869285Y-117208321D01*
X96945476Y-117208321D01*
X97021666Y-117170226D01*
X97059761Y-117132130D01*
X97097857Y-117055940D01*
X97097857Y-116789273D01*
X96983571Y-117932130D02*
X97516904Y-117932130D01*
X96678809Y-117741654D02*
X97250238Y-117551178D01*
X97250238Y-118046416D01*
X98589991Y-118083047D02*
X98542851Y-118177328D01*
X98542851Y-118224469D01*
X98566421Y-118295179D01*
X98637132Y-118365890D01*
X98707842Y-118389460D01*
X98754983Y-118389460D01*
X98825693Y-118365890D01*
X99014255Y-118177328D01*
X98519280Y-117682353D01*
X98354289Y-117847345D01*
X98330719Y-117918056D01*
X98330719Y-117965196D01*
X98354289Y-118035907D01*
X98401429Y-118083047D01*
X98472140Y-118106617D01*
X98519280Y-118106617D01*
X98589991Y-118083047D01*
X98754983Y-117918056D01*
X97788603Y-118413030D02*
X98024306Y-118177328D01*
X98283578Y-118389460D01*
X98236438Y-118389460D01*
X98165727Y-118413030D01*
X98047876Y-118530882D01*
X98024306Y-118601592D01*
X98024306Y-118648733D01*
X98047876Y-118719443D01*
X98165727Y-118837294D01*
X98236438Y-118860865D01*
X98283578Y-118860865D01*
X98354289Y-118837294D01*
X98472140Y-118719443D01*
X98495710Y-118648733D01*
X98495710Y-118601592D01*
X94557857Y-106133940D02*
X94595952Y-106248226D01*
X94634047Y-106286321D01*
X94710238Y-106324416D01*
X94824523Y-106324416D01*
X94900714Y-106286321D01*
X94938809Y-106248226D01*
X94976904Y-106172035D01*
X94976904Y-105867273D01*
X94176904Y-105867273D01*
X94176904Y-106133940D01*
X94215000Y-106210130D01*
X94253095Y-106248226D01*
X94329285Y-106286321D01*
X94405476Y-106286321D01*
X94481666Y-106248226D01*
X94519761Y-106210130D01*
X94557857Y-106133940D01*
X94557857Y-105867273D01*
X94176904Y-106591083D02*
X94176904Y-107086321D01*
X94481666Y-106819654D01*
X94481666Y-106933940D01*
X94519761Y-107010130D01*
X94557857Y-107048226D01*
X94634047Y-107086321D01*
X94824523Y-107086321D01*
X94900714Y-107048226D01*
X94938809Y-107010130D01*
X94976904Y-106933940D01*
X94976904Y-106705369D01*
X94938809Y-106629178D01*
X94900714Y-106591083D01*
X92017857Y-106133940D02*
X92055952Y-106248226D01*
X92094047Y-106286321D01*
X92170238Y-106324416D01*
X92284523Y-106324416D01*
X92360714Y-106286321D01*
X92398809Y-106248226D01*
X92436904Y-106172035D01*
X92436904Y-105867273D01*
X91636904Y-105867273D01*
X91636904Y-106133940D01*
X91675000Y-106210130D01*
X91713095Y-106248226D01*
X91789285Y-106286321D01*
X91865476Y-106286321D01*
X91941666Y-106248226D01*
X91979761Y-106210130D01*
X92017857Y-106133940D01*
X92017857Y-105867273D01*
X92436904Y-107086321D02*
X92436904Y-106629178D01*
X92436904Y-106857750D02*
X91636904Y-106857750D01*
X91751190Y-106781559D01*
X91827380Y-106705369D01*
X91865476Y-106629178D01*
X81857857Y-106191083D02*
X81857857Y-105924416D01*
X82276904Y-105924416D02*
X81476904Y-105924416D01*
X81476904Y-106305369D01*
X81743571Y-106952988D02*
X82276904Y-106952988D01*
X81438809Y-106762511D02*
X82010238Y-106572035D01*
X82010238Y-107067273D01*
X78936904Y-105391083D02*
X79736904Y-105657750D01*
X78936904Y-105924416D01*
X79660714Y-106648226D02*
X79698809Y-106610130D01*
X79736904Y-106495845D01*
X79736904Y-106419654D01*
X79698809Y-106305369D01*
X79622619Y-106229178D01*
X79546428Y-106191083D01*
X79394047Y-106152988D01*
X79279761Y-106152988D01*
X79127380Y-106191083D01*
X79051190Y-106229178D01*
X78975000Y-106305369D01*
X78936904Y-106419654D01*
X78936904Y-106495845D01*
X78975000Y-106610130D01*
X79013095Y-106648226D01*
X79660714Y-107448226D02*
X79698809Y-107410130D01*
X79736904Y-107295845D01*
X79736904Y-107219654D01*
X79698809Y-107105369D01*
X79622619Y-107029178D01*
X79546428Y-106991083D01*
X79394047Y-106952988D01*
X79279761Y-106952988D01*
X79127380Y-106991083D01*
X79051190Y-107029178D01*
X78975000Y-107105369D01*
X78936904Y-107219654D01*
X78936904Y-107295845D01*
X78975000Y-107410130D01*
X79013095Y-107448226D01*
X73895000Y-105848226D02*
X73856904Y-105772035D01*
X73856904Y-105657750D01*
X73895000Y-105543464D01*
X73971190Y-105467273D01*
X74047380Y-105429178D01*
X74199761Y-105391083D01*
X74314047Y-105391083D01*
X74466428Y-105429178D01*
X74542619Y-105467273D01*
X74618809Y-105543464D01*
X74656904Y-105657750D01*
X74656904Y-105733940D01*
X74618809Y-105848226D01*
X74580714Y-105886321D01*
X74314047Y-105886321D01*
X74314047Y-105733940D01*
X74656904Y-106229178D02*
X73856904Y-106229178D01*
X74656904Y-106686321D01*
X73856904Y-106686321D01*
X74656904Y-107067273D02*
X73856904Y-107067273D01*
X73856904Y-107257750D01*
X73895000Y-107372035D01*
X73971190Y-107448226D01*
X74047380Y-107486321D01*
X74199761Y-107524416D01*
X74314047Y-107524416D01*
X74466428Y-107486321D01*
X74542619Y-107448226D01*
X74618809Y-107372035D01*
X74656904Y-107257750D01*
X74656904Y-107067273D01*
X71697857Y-106133940D02*
X71735952Y-106248226D01*
X71774047Y-106286321D01*
X71850238Y-106324416D01*
X71964523Y-106324416D01*
X72040714Y-106286321D01*
X72078809Y-106248226D01*
X72116904Y-106172035D01*
X72116904Y-105867273D01*
X71316904Y-105867273D01*
X71316904Y-106133940D01*
X71355000Y-106210130D01*
X71393095Y-106248226D01*
X71469285Y-106286321D01*
X71545476Y-106286321D01*
X71621666Y-106248226D01*
X71659761Y-106210130D01*
X71697857Y-106133940D01*
X71697857Y-105867273D01*
X71316904Y-106819654D02*
X71316904Y-106895845D01*
X71355000Y-106972035D01*
X71393095Y-107010130D01*
X71469285Y-107048226D01*
X71621666Y-107086321D01*
X71812142Y-107086321D01*
X71964523Y-107048226D01*
X72040714Y-107010130D01*
X72078809Y-106972035D01*
X72116904Y-106895845D01*
X72116904Y-106819654D01*
X72078809Y-106743464D01*
X72040714Y-106705369D01*
X71964523Y-106667273D01*
X71812142Y-106629178D01*
X71621666Y-106629178D01*
X71469285Y-106667273D01*
X71393095Y-106705369D01*
X71355000Y-106743464D01*
X71316904Y-106819654D01*
X84397857Y-106191083D02*
X84397857Y-105924416D01*
X84816904Y-105924416D02*
X84016904Y-105924416D01*
X84016904Y-106305369D01*
X84016904Y-106991083D02*
X84016904Y-106610130D01*
X84397857Y-106572035D01*
X84359761Y-106610130D01*
X84321666Y-106686321D01*
X84321666Y-106876797D01*
X84359761Y-106952988D01*
X84397857Y-106991083D01*
X84474047Y-107029178D01*
X84664523Y-107029178D01*
X84740714Y-106991083D01*
X84778809Y-106952988D01*
X84816904Y-106876797D01*
X84816904Y-106686321D01*
X84778809Y-106610130D01*
X84740714Y-106572035D01*
X86937857Y-106191083D02*
X86937857Y-105924416D01*
X87356904Y-105924416D02*
X86556904Y-105924416D01*
X86556904Y-106305369D01*
X86556904Y-106952988D02*
X86556904Y-106800607D01*
X86595000Y-106724416D01*
X86633095Y-106686321D01*
X86747380Y-106610130D01*
X86899761Y-106572035D01*
X87204523Y-106572035D01*
X87280714Y-106610130D01*
X87318809Y-106648226D01*
X87356904Y-106724416D01*
X87356904Y-106876797D01*
X87318809Y-106952988D01*
X87280714Y-106991083D01*
X87204523Y-107029178D01*
X87014047Y-107029178D01*
X86937857Y-106991083D01*
X86899761Y-106952988D01*
X86861666Y-106876797D01*
X86861666Y-106724416D01*
X86899761Y-106648226D01*
X86937857Y-106610130D01*
X87014047Y-106572035D01*
X89477857Y-106191083D02*
X89477857Y-105924416D01*
X89896904Y-105924416D02*
X89096904Y-105924416D01*
X89096904Y-106305369D01*
X89096904Y-106533940D02*
X89096904Y-107067273D01*
X89896904Y-106724416D01*
X97097857Y-106133940D02*
X97135952Y-106248226D01*
X97174047Y-106286321D01*
X97250238Y-106324416D01*
X97364523Y-106324416D01*
X97440714Y-106286321D01*
X97478809Y-106248226D01*
X97516904Y-106172035D01*
X97516904Y-105867273D01*
X96716904Y-105867273D01*
X96716904Y-106133940D01*
X96755000Y-106210130D01*
X96793095Y-106248226D01*
X96869285Y-106286321D01*
X96945476Y-106286321D01*
X97021666Y-106248226D01*
X97059761Y-106210130D01*
X97097857Y-106133940D01*
X97097857Y-105867273D01*
X96793095Y-106629178D02*
X96755000Y-106667273D01*
X96716904Y-106743464D01*
X96716904Y-106933940D01*
X96755000Y-107010130D01*
X96793095Y-107048226D01*
X96869285Y-107086321D01*
X96945476Y-107086321D01*
X97059761Y-107048226D01*
X97516904Y-106591083D01*
X97516904Y-107086321D01*
X71316904Y-113300145D02*
X71316904Y-113757288D01*
X72116904Y-113528717D02*
X71316904Y-113528717D01*
X71316904Y-113947764D02*
X72116904Y-114481098D01*
X71316904Y-114481098D02*
X72116904Y-113947764D01*
X71316904Y-114938241D02*
X71316904Y-115014431D01*
X71355000Y-115090622D01*
X71393095Y-115128717D01*
X71469285Y-115166812D01*
X71621666Y-115204907D01*
X71812142Y-115204907D01*
X71964523Y-115166812D01*
X72040714Y-115128717D01*
X72078809Y-115090622D01*
X72116904Y-115014431D01*
X72116904Y-114938241D01*
X72078809Y-114862050D01*
X72040714Y-114823955D01*
X71964523Y-114785860D01*
X71812142Y-114747764D01*
X71621666Y-114747764D01*
X71469285Y-114785860D01*
X71393095Y-114823955D01*
X71355000Y-114862050D01*
X71316904Y-114938241D01*
X71278809Y-116119193D02*
X72307380Y-115433479D01*
X72116904Y-116385860D02*
X71316904Y-116385860D01*
X71316904Y-116576336D01*
X71355000Y-116690622D01*
X71431190Y-116766812D01*
X71507380Y-116804907D01*
X71659761Y-116843002D01*
X71774047Y-116843002D01*
X71926428Y-116804907D01*
X72002619Y-116766812D01*
X72078809Y-116690622D01*
X72116904Y-116576336D01*
X72116904Y-116385860D01*
X71316904Y-117109669D02*
X71316904Y-117604907D01*
X71621666Y-117338241D01*
X71621666Y-117452526D01*
X71659761Y-117528717D01*
X71697857Y-117566812D01*
X71774047Y-117604907D01*
X71964523Y-117604907D01*
X72040714Y-117566812D01*
X72078809Y-117528717D01*
X72116904Y-117452526D01*
X72116904Y-117223955D01*
X72078809Y-117147764D01*
X72040714Y-117109669D01*
X77138809Y-106345416D02*
X77176904Y-106459702D01*
X77176904Y-106650178D01*
X77138809Y-106726369D01*
X77100714Y-106764464D01*
X77024523Y-106802559D01*
X76948333Y-106802559D01*
X76872142Y-106764464D01*
X76834047Y-106726369D01*
X76795952Y-106650178D01*
X76757857Y-106497797D01*
X76719761Y-106421607D01*
X76681666Y-106383511D01*
X76605476Y-106345416D01*
X76529285Y-106345416D01*
X76453095Y-106383511D01*
X76415000Y-106421607D01*
X76376904Y-106497797D01*
X76376904Y-106688273D01*
X76415000Y-106802559D01*
X76376904Y-107031130D02*
X76376904Y-107488273D01*
X77176904Y-107259702D02*
X76376904Y-107259702D01*
X98275000Y-116135416D02*
X98308333Y-116235416D01*
X98341666Y-116268750D01*
X98408333Y-116302083D01*
X98508333Y-116302083D01*
X98575000Y-116268750D01*
X98608333Y-116235416D01*
X98641666Y-116168750D01*
X98641666Y-115902083D01*
X97941666Y-115902083D01*
X97941666Y-116135416D01*
X97975000Y-116202083D01*
X98008333Y-116235416D01*
X98075000Y-116268750D01*
X98141666Y-116268750D01*
X98208333Y-116235416D01*
X98241666Y-116202083D01*
X98275000Y-116135416D01*
X98275000Y-115902083D01*
X97941666Y-116535416D02*
X97941666Y-117002083D01*
X98641666Y-116702083D01*
X98275000Y-107185416D02*
X98275000Y-106952083D01*
X98641666Y-106952083D02*
X97941666Y-106952083D01*
X97941666Y-107285416D01*
X97941666Y-107685416D02*
X97941666Y-107752083D01*
X97975000Y-107818750D01*
X98008333Y-107852083D01*
X98075000Y-107885416D01*
X98208333Y-107918750D01*
X98375000Y-107918750D01*
X98508333Y-107885416D01*
X98575000Y-107852083D01*
X98608333Y-107818750D01*
X98641666Y-107752083D01*
X98641666Y-107685416D01*
X98608333Y-107618750D01*
X98575000Y-107585416D01*
X98508333Y-107552083D01*
X98375000Y-107518750D01*
X98208333Y-107518750D01*
X98075000Y-107552083D01*
X98008333Y-107585416D01*
X97975000Y-107618750D01*
X97941666Y-107685416D01*
X98189297Y-105353758D02*
X98283578Y-105400898D01*
X98330719Y-105400898D01*
X98401429Y-105377328D01*
X98472140Y-105306617D01*
X98495710Y-105235907D01*
X98495710Y-105188766D01*
X98472140Y-105118056D01*
X98283578Y-104929494D01*
X97788603Y-105424469D01*
X97953595Y-105589460D01*
X98024306Y-105613030D01*
X98071446Y-105613030D01*
X98142157Y-105589460D01*
X98189297Y-105542320D01*
X98212867Y-105471609D01*
X98212867Y-105424469D01*
X98189297Y-105353758D01*
X98024306Y-105188766D01*
X98495710Y-106131575D02*
X98401429Y-106037294D01*
X98377859Y-105966584D01*
X98377859Y-105919443D01*
X98401429Y-105801592D01*
X98472140Y-105683741D01*
X98660702Y-105495179D01*
X98731412Y-105471609D01*
X98778553Y-105471609D01*
X98849264Y-105495179D01*
X98943544Y-105589460D01*
X98967115Y-105660171D01*
X98967115Y-105707311D01*
X98943544Y-105778022D01*
X98825693Y-105895873D01*
X98754983Y-105919443D01*
X98707842Y-105919443D01*
X98637132Y-105895873D01*
X98542851Y-105801592D01*
X98519280Y-105730882D01*
X98519280Y-105683741D01*
X98542851Y-105613030D01*
X98410714Y-111785416D02*
X98448809Y-111747321D01*
X98486904Y-111633035D01*
X98486904Y-111556845D01*
X98448809Y-111442559D01*
X98372619Y-111366369D01*
X98296428Y-111328273D01*
X98144047Y-111290178D01*
X98029761Y-111290178D01*
X97877380Y-111328273D01*
X97801190Y-111366369D01*
X97725000Y-111442559D01*
X97686904Y-111556845D01*
X97686904Y-111633035D01*
X97725000Y-111747321D01*
X97763095Y-111785416D01*
X97686904Y-112052083D02*
X97686904Y-112585416D01*
X98486904Y-112242559D01*
X98067857Y-109112083D02*
X98067857Y-108845416D01*
X98486904Y-108845416D02*
X97686904Y-108845416D01*
X97686904Y-109226369D01*
X98486904Y-109950178D02*
X98486904Y-109493035D01*
X98486904Y-109721607D02*
X97686904Y-109721607D01*
X97801190Y-109645416D01*
X97877380Y-109569226D01*
X97915476Y-109493035D01*
X98486904Y-113868273D02*
X97686904Y-113868273D01*
X97686904Y-114058750D01*
X97725000Y-114173035D01*
X97801190Y-114249226D01*
X97877380Y-114287321D01*
X98029761Y-114325416D01*
X98144047Y-114325416D01*
X98296428Y-114287321D01*
X98372619Y-114249226D01*
X98448809Y-114173035D01*
X98486904Y-114058750D01*
X98486904Y-113868273D01*
X97686904Y-115049226D02*
X97686904Y-114668273D01*
X98067857Y-114630178D01*
X98029761Y-114668273D01*
X97991666Y-114744464D01*
X97991666Y-114934940D01*
X98029761Y-115011130D01*
X98067857Y-115049226D01*
X98144047Y-115087321D01*
X98334523Y-115087321D01*
X98410714Y-115049226D01*
X98448809Y-115011130D01*
X98486904Y-114934940D01*
X98486904Y-114744464D01*
X98448809Y-114668273D01*
X98410714Y-114630178D01*
%TO.C,K15*%
X105989285Y-85321130D02*
X105989285Y-84321130D01*
X105417857Y-85321130D02*
X105846428Y-84749702D01*
X105417857Y-84321130D02*
X105989285Y-84892559D01*
X104465476Y-85321130D02*
X105036904Y-85321130D01*
X104751190Y-85321130D02*
X104751190Y-84321130D01*
X104846428Y-84463988D01*
X104941666Y-84559226D01*
X105036904Y-84606845D01*
X103560714Y-84321130D02*
X104036904Y-84321130D01*
X104084523Y-84797321D01*
X104036904Y-84749702D01*
X103941666Y-84702083D01*
X103703571Y-84702083D01*
X103608333Y-84749702D01*
X103560714Y-84797321D01*
X103513095Y-84892559D01*
X103513095Y-85130654D01*
X103560714Y-85225892D01*
X103608333Y-85273511D01*
X103703571Y-85321130D01*
X103941666Y-85321130D01*
X104036904Y-85273511D01*
X104084523Y-85225892D01*
%TO.C,K16*%
X125039285Y-85321130D02*
X125039285Y-84321130D01*
X124467857Y-85321130D02*
X124896428Y-84749702D01*
X124467857Y-84321130D02*
X125039285Y-84892559D01*
X123515476Y-85321130D02*
X124086904Y-85321130D01*
X123801190Y-85321130D02*
X123801190Y-84321130D01*
X123896428Y-84463988D01*
X123991666Y-84559226D01*
X124086904Y-84606845D01*
X122658333Y-84321130D02*
X122848809Y-84321130D01*
X122944047Y-84368750D01*
X122991666Y-84416369D01*
X123086904Y-84559226D01*
X123134523Y-84749702D01*
X123134523Y-85130654D01*
X123086904Y-85225892D01*
X123039285Y-85273511D01*
X122944047Y-85321130D01*
X122753571Y-85321130D01*
X122658333Y-85273511D01*
X122610714Y-85225892D01*
X122563095Y-85130654D01*
X122563095Y-84892559D01*
X122610714Y-84797321D01*
X122658333Y-84749702D01*
X122753571Y-84702083D01*
X122944047Y-84702083D01*
X123039285Y-84749702D01*
X123086904Y-84797321D01*
X123134523Y-84892559D01*
%TO.C,K17*%
X144089285Y-85321130D02*
X144089285Y-84321130D01*
X143517857Y-85321130D02*
X143946428Y-84749702D01*
X143517857Y-84321130D02*
X144089285Y-84892559D01*
X142565476Y-85321130D02*
X143136904Y-85321130D01*
X142851190Y-85321130D02*
X142851190Y-84321130D01*
X142946428Y-84463988D01*
X143041666Y-84559226D01*
X143136904Y-84606845D01*
X142232142Y-84321130D02*
X141565476Y-84321130D01*
X141994047Y-85321130D01*
%TO.C,K18*%
X163139785Y-85321130D02*
X163139785Y-84321130D01*
X162568357Y-85321130D02*
X162996928Y-84749702D01*
X162568357Y-84321130D02*
X163139785Y-84892559D01*
X161615976Y-85321130D02*
X162187404Y-85321130D01*
X161901690Y-85321130D02*
X161901690Y-84321130D01*
X161996928Y-84463988D01*
X162092166Y-84559226D01*
X162187404Y-84606845D01*
X161044547Y-84749702D02*
X161139785Y-84702083D01*
X161187404Y-84654464D01*
X161235023Y-84559226D01*
X161235023Y-84511607D01*
X161187404Y-84416369D01*
X161139785Y-84368750D01*
X161044547Y-84321130D01*
X160854071Y-84321130D01*
X160758833Y-84368750D01*
X160711214Y-84416369D01*
X160663595Y-84511607D01*
X160663595Y-84559226D01*
X160711214Y-84654464D01*
X160758833Y-84702083D01*
X160854071Y-84749702D01*
X161044547Y-84749702D01*
X161139785Y-84797321D01*
X161187404Y-84844940D01*
X161235023Y-84940178D01*
X161235023Y-85130654D01*
X161187404Y-85225892D01*
X161139785Y-85273511D01*
X161044547Y-85321130D01*
X160854071Y-85321130D01*
X160758833Y-85273511D01*
X160711214Y-85225892D01*
X160663595Y-85130654D01*
X160663595Y-84940178D01*
X160711214Y-84844940D01*
X160758833Y-84797321D01*
X160854071Y-84749702D01*
%TO.C,K19*%
X182189785Y-85321130D02*
X182189785Y-84321130D01*
X181618357Y-85321130D02*
X182046928Y-84749702D01*
X181618357Y-84321130D02*
X182189785Y-84892559D01*
X180665976Y-85321130D02*
X181237404Y-85321130D01*
X180951690Y-85321130D02*
X180951690Y-84321130D01*
X181046928Y-84463988D01*
X181142166Y-84559226D01*
X181237404Y-84606845D01*
X180189785Y-85321130D02*
X179999309Y-85321130D01*
X179904071Y-85273511D01*
X179856452Y-85225892D01*
X179761214Y-85083035D01*
X179713595Y-84892559D01*
X179713595Y-84511607D01*
X179761214Y-84416369D01*
X179808833Y-84368750D01*
X179904071Y-84321130D01*
X180094547Y-84321130D01*
X180189785Y-84368750D01*
X180237404Y-84416369D01*
X180285023Y-84511607D01*
X180285023Y-84749702D01*
X180237404Y-84844940D01*
X180189785Y-84892559D01*
X180094547Y-84940178D01*
X179904071Y-84940178D01*
X179808833Y-84892559D01*
X179761214Y-84844940D01*
X179713595Y-84749702D01*
%TO.C,K20*%
X201239785Y-85321130D02*
X201239785Y-84321130D01*
X200668357Y-85321130D02*
X201096928Y-84749702D01*
X200668357Y-84321130D02*
X201239785Y-84892559D01*
X200287404Y-84416369D02*
X200239785Y-84368750D01*
X200144547Y-84321130D01*
X199906452Y-84321130D01*
X199811214Y-84368750D01*
X199763595Y-84416369D01*
X199715976Y-84511607D01*
X199715976Y-84606845D01*
X199763595Y-84749702D01*
X200335023Y-85321130D01*
X199715976Y-85321130D01*
X199096928Y-84321130D02*
X199001690Y-84321130D01*
X198906452Y-84368750D01*
X198858833Y-84416369D01*
X198811214Y-84511607D01*
X198763595Y-84702083D01*
X198763595Y-84940178D01*
X198811214Y-85130654D01*
X198858833Y-85225892D01*
X198906452Y-85273511D01*
X199001690Y-85321130D01*
X199096928Y-85321130D01*
X199192166Y-85273511D01*
X199239785Y-85225892D01*
X199287404Y-85130654D01*
X199335023Y-84940178D01*
X199335023Y-84702083D01*
X199287404Y-84511607D01*
X199239785Y-84416369D01*
X199192166Y-84368750D01*
X199096928Y-84321130D01*
%TO.C,K21*%
X220289785Y-85321130D02*
X220289785Y-84321130D01*
X219718357Y-85321130D02*
X220146928Y-84749702D01*
X219718357Y-84321130D02*
X220289785Y-84892559D01*
X219337404Y-84416369D02*
X219289785Y-84368750D01*
X219194547Y-84321130D01*
X218956452Y-84321130D01*
X218861214Y-84368750D01*
X218813595Y-84416369D01*
X218765976Y-84511607D01*
X218765976Y-84606845D01*
X218813595Y-84749702D01*
X219385023Y-85321130D01*
X218765976Y-85321130D01*
X217813595Y-85321130D02*
X218385023Y-85321130D01*
X218099309Y-85321130D02*
X218099309Y-84321130D01*
X218194547Y-84463988D01*
X218289785Y-84559226D01*
X218385023Y-84606845D01*
%TO.C,K22*%
X239339785Y-85321130D02*
X239339785Y-84321130D01*
X238768357Y-85321130D02*
X239196928Y-84749702D01*
X238768357Y-84321130D02*
X239339785Y-84892559D01*
X238387404Y-84416369D02*
X238339785Y-84368750D01*
X238244547Y-84321130D01*
X238006452Y-84321130D01*
X237911214Y-84368750D01*
X237863595Y-84416369D01*
X237815976Y-84511607D01*
X237815976Y-84606845D01*
X237863595Y-84749702D01*
X238435023Y-85321130D01*
X237815976Y-85321130D01*
X237435023Y-84416369D02*
X237387404Y-84368750D01*
X237292166Y-84321130D01*
X237054071Y-84321130D01*
X236958833Y-84368750D01*
X236911214Y-84416369D01*
X236863595Y-84511607D01*
X236863595Y-84606845D01*
X236911214Y-84749702D01*
X237482642Y-85321130D01*
X236863595Y-85321130D01*
%TO.C,K23*%
X258389785Y-85321130D02*
X258389785Y-84321130D01*
X257818357Y-85321130D02*
X258246928Y-84749702D01*
X257818357Y-84321130D02*
X258389785Y-84892559D01*
X257437404Y-84416369D02*
X257389785Y-84368750D01*
X257294547Y-84321130D01*
X257056452Y-84321130D01*
X256961214Y-84368750D01*
X256913595Y-84416369D01*
X256865976Y-84511607D01*
X256865976Y-84606845D01*
X256913595Y-84749702D01*
X257485023Y-85321130D01*
X256865976Y-85321130D01*
X256532642Y-84321130D02*
X255913595Y-84321130D01*
X256246928Y-84702083D01*
X256104071Y-84702083D01*
X256008833Y-84749702D01*
X255961214Y-84797321D01*
X255913595Y-84892559D01*
X255913595Y-85130654D01*
X255961214Y-85225892D01*
X256008833Y-85273511D01*
X256104071Y-85321130D01*
X256389785Y-85321130D01*
X256485023Y-85273511D01*
X256532642Y-85225892D01*
%TO.C,K24*%
X277439785Y-85321130D02*
X277439785Y-84321130D01*
X276868357Y-85321130D02*
X277296928Y-84749702D01*
X276868357Y-84321130D02*
X277439785Y-84892559D01*
X276487404Y-84416369D02*
X276439785Y-84368750D01*
X276344547Y-84321130D01*
X276106452Y-84321130D01*
X276011214Y-84368750D01*
X275963595Y-84416369D01*
X275915976Y-84511607D01*
X275915976Y-84606845D01*
X275963595Y-84749702D01*
X276535023Y-85321130D01*
X275915976Y-85321130D01*
X275058833Y-84654464D02*
X275058833Y-85321130D01*
X275296928Y-84273511D02*
X275535023Y-84987797D01*
X274915976Y-84987797D01*
%TO.C,K25*%
X296489785Y-85321130D02*
X296489785Y-84321130D01*
X295918357Y-85321130D02*
X296346928Y-84749702D01*
X295918357Y-84321130D02*
X296489785Y-84892559D01*
X295537404Y-84416369D02*
X295489785Y-84368750D01*
X295394547Y-84321130D01*
X295156452Y-84321130D01*
X295061214Y-84368750D01*
X295013595Y-84416369D01*
X294965976Y-84511607D01*
X294965976Y-84606845D01*
X295013595Y-84749702D01*
X295585023Y-85321130D01*
X294965976Y-85321130D01*
X294061214Y-84321130D02*
X294537404Y-84321130D01*
X294585023Y-84797321D01*
X294537404Y-84749702D01*
X294442166Y-84702083D01*
X294204071Y-84702083D01*
X294108833Y-84749702D01*
X294061214Y-84797321D01*
X294013595Y-84892559D01*
X294013595Y-85130654D01*
X294061214Y-85225892D01*
X294108833Y-85273511D01*
X294204071Y-85321130D01*
X294442166Y-85321130D01*
X294537404Y-85273511D01*
X294585023Y-85225892D01*
%TO.C,K26*%
X315539785Y-85321130D02*
X315539785Y-84321130D01*
X314968357Y-85321130D02*
X315396928Y-84749702D01*
X314968357Y-84321130D02*
X315539785Y-84892559D01*
X314587404Y-84416369D02*
X314539785Y-84368750D01*
X314444547Y-84321130D01*
X314206452Y-84321130D01*
X314111214Y-84368750D01*
X314063595Y-84416369D01*
X314015976Y-84511607D01*
X314015976Y-84606845D01*
X314063595Y-84749702D01*
X314635023Y-85321130D01*
X314015976Y-85321130D01*
X313158833Y-84321130D02*
X313349309Y-84321130D01*
X313444547Y-84368750D01*
X313492166Y-84416369D01*
X313587404Y-84559226D01*
X313635023Y-84749702D01*
X313635023Y-85130654D01*
X313587404Y-85225892D01*
X313539785Y-85273511D01*
X313444547Y-85321130D01*
X313254071Y-85321130D01*
X313158833Y-85273511D01*
X313111214Y-85225892D01*
X313063595Y-85130654D01*
X313063595Y-84892559D01*
X313111214Y-84797321D01*
X313158833Y-84749702D01*
X313254071Y-84702083D01*
X313444547Y-84702083D01*
X313539785Y-84749702D01*
X313587404Y-84797321D01*
X313635023Y-84892559D01*
%TD*%
M02*
