%TF.GenerationSoftware,KiCad,Pcbnew,(5.1.9)-1*%
%TF.CreationDate,2021-02-15T21:30:29-05:00*%
%TF.ProjectId,60percent - Copy,36307065-7263-4656-9e74-202d20436f70,rev?*%
%TF.SameCoordinates,Original*%
%TF.FileFunction,Copper,L2,Bot*%
%TF.FilePolarity,Positive*%
%FSLAX46Y46*%
G04 Gerber Fmt 4.6, Leading zero omitted, Abs format (unit mm)*
G04 Created by KiCad (PCBNEW (5.1.9)-1) date 2021-02-15 21:30:29*
%MOMM*%
%LPD*%
G01*
G04 APERTURE LIST*
%TA.AperFunction,ComponentPad*%
%ADD10R,1.600000X1.600000*%
%TD*%
%TA.AperFunction,ComponentPad*%
%ADD11C,1.600000*%
%TD*%
%TA.AperFunction,SMDPad,CuDef*%
%ADD12R,2.550000X2.500000*%
%TD*%
%TA.AperFunction,ComponentPad*%
%ADD13C,2.000000*%
%TD*%
%TA.AperFunction,ComponentPad*%
%ADD14R,2.000000X3.200000*%
%TD*%
%TA.AperFunction,ComponentPad*%
%ADD15R,2.000000X2.000000*%
%TD*%
%TA.AperFunction,ComponentPad*%
%ADD16R,1.752600X1.752600*%
%TD*%
%TA.AperFunction,ComponentPad*%
%ADD17C,1.752600*%
%TD*%
%TA.AperFunction,ViaPad*%
%ADD18C,0.800000*%
%TD*%
%TA.AperFunction,Conductor*%
%ADD19C,0.250000*%
%TD*%
G04 APERTURE END LIST*
D10*
%TO.P,D1,1*%
%TO.N,/row0*%
X85725000Y-82480800D03*
D11*
%TO.P,D1,2*%
%TO.N,Net-(D1-Pad2)*%
X85725000Y-74680800D03*
%TD*%
D10*
%TO.P,D2,1*%
%TO.N,/row0*%
X91350000Y-78580800D03*
D11*
%TO.P,D2,2*%
%TO.N,Net-(D2-Pad2)*%
X99150000Y-78580800D03*
%TD*%
D10*
%TO.P,D3,1*%
%TO.N,/row0*%
X110400000Y-78580800D03*
D11*
%TO.P,D3,2*%
%TO.N,Net-(D3-Pad2)*%
X118200000Y-78580800D03*
%TD*%
%TO.P,D4,2*%
%TO.N,Net-(D4-Pad2)*%
X137250000Y-78580800D03*
D10*
%TO.P,D4,1*%
%TO.N,/row0*%
X129450000Y-78580800D03*
%TD*%
%TO.P,D5,1*%
%TO.N,/row0*%
X148500000Y-78580800D03*
D11*
%TO.P,D5,2*%
%TO.N,Net-(D5-Pad2)*%
X156300000Y-78580800D03*
%TD*%
D10*
%TO.P,D6,1*%
%TO.N,/row0*%
X167550000Y-78580800D03*
D11*
%TO.P,D6,2*%
%TO.N,Net-(D6-Pad2)*%
X175350000Y-78580800D03*
%TD*%
%TO.P,D7,2*%
%TO.N,Net-(D7-Pad2)*%
X194400000Y-78580800D03*
D10*
%TO.P,D7,1*%
%TO.N,/row0*%
X186600000Y-78580800D03*
%TD*%
%TO.P,D8,1*%
%TO.N,/row0*%
X205650000Y-78580800D03*
D11*
%TO.P,D8,2*%
%TO.N,Net-(D8-Pad2)*%
X213450000Y-78580800D03*
%TD*%
D10*
%TO.P,D9,1*%
%TO.N,/row0*%
X224700000Y-78580800D03*
D11*
%TO.P,D9,2*%
%TO.N,Net-(D9-Pad2)*%
X232500000Y-78580800D03*
%TD*%
%TO.P,D10,2*%
%TO.N,Net-(D10-Pad2)*%
X251550000Y-78580800D03*
D10*
%TO.P,D10,1*%
%TO.N,/row0*%
X243750000Y-78580800D03*
%TD*%
D11*
%TO.P,D11,2*%
%TO.N,Net-(D11-Pad2)*%
X270600000Y-78580800D03*
D10*
%TO.P,D11,1*%
%TO.N,/row0*%
X262800000Y-78580800D03*
%TD*%
%TO.P,D12,1*%
%TO.N,/row0*%
X281850000Y-78580800D03*
D11*
%TO.P,D12,2*%
%TO.N,Net-(D12-Pad2)*%
X289650000Y-78580800D03*
%TD*%
%TO.P,D13,2*%
%TO.N,Net-(D13-Pad2)*%
X308700000Y-78580800D03*
D10*
%TO.P,D13,1*%
%TO.N,/row0*%
X300900000Y-78580800D03*
%TD*%
D11*
%TO.P,D14,2*%
%TO.N,Net-(D14-Pad2)*%
X337276000Y-78580800D03*
D10*
%TO.P,D14,1*%
%TO.N,/row0*%
X329476000Y-78580800D03*
%TD*%
D11*
%TO.P,D15,2*%
%TO.N,Net-(D15-Pad2)*%
X84862500Y-97630800D03*
D10*
%TO.P,D15,1*%
%TO.N,/row1*%
X77062500Y-97630800D03*
%TD*%
D11*
%TO.P,D16,2*%
%TO.N,Net-(D16-Pad2)*%
X108675000Y-97630800D03*
D10*
%TO.P,D16,1*%
%TO.N,/row1*%
X100875000Y-97630800D03*
%TD*%
%TO.P,D17,1*%
%TO.N,/row1*%
X119925000Y-97630800D03*
D11*
%TO.P,D17,2*%
%TO.N,Net-(D17-Pad2)*%
X127725000Y-97630800D03*
%TD*%
%TO.P,D18,2*%
%TO.N,Net-(D18-Pad2)*%
X146775000Y-97630800D03*
D10*
%TO.P,D18,1*%
%TO.N,/row1*%
X138975000Y-97630800D03*
%TD*%
D11*
%TO.P,D19,2*%
%TO.N,Net-(D19-Pad2)*%
X165826000Y-97630800D03*
D10*
%TO.P,D19,1*%
%TO.N,/row1*%
X158026000Y-97630800D03*
%TD*%
%TO.P,D20,1*%
%TO.N,/row1*%
X177076000Y-97630800D03*
D11*
%TO.P,D20,2*%
%TO.N,Net-(D20-Pad2)*%
X184876000Y-97630800D03*
%TD*%
D10*
%TO.P,D21,1*%
%TO.N,/row1*%
X196126000Y-97630800D03*
D11*
%TO.P,D21,2*%
%TO.N,Net-(D21-Pad2)*%
X203926000Y-97630800D03*
%TD*%
D10*
%TO.P,D22,1*%
%TO.N,/row1*%
X215176000Y-97630800D03*
D11*
%TO.P,D22,2*%
%TO.N,Net-(D22-Pad2)*%
X222976000Y-97630800D03*
%TD*%
%TO.P,D23,2*%
%TO.N,Net-(D23-Pad2)*%
X242026000Y-97630800D03*
D10*
%TO.P,D23,1*%
%TO.N,/row1*%
X234226000Y-97630800D03*
%TD*%
%TO.P,D24,1*%
%TO.N,/row1*%
X253276000Y-97630800D03*
D11*
%TO.P,D24,2*%
%TO.N,Net-(D24-Pad2)*%
X261076000Y-97630800D03*
%TD*%
%TO.P,D25,2*%
%TO.N,Net-(D25-Pad2)*%
X280126000Y-97630800D03*
D10*
%TO.P,D25,1*%
%TO.N,/row1*%
X272326000Y-97630800D03*
%TD*%
%TO.P,D26,1*%
%TO.N,/row1*%
X291376000Y-97630800D03*
D11*
%TO.P,D26,2*%
%TO.N,Net-(D26-Pad2)*%
X299176000Y-97630800D03*
%TD*%
%TO.P,D27,2*%
%TO.N,Net-(D27-Pad2)*%
X318226000Y-97630800D03*
D10*
%TO.P,D27,1*%
%TO.N,/row1*%
X310426000Y-97630800D03*
%TD*%
%TO.P,D28,1*%
%TO.N,/row1*%
X334238000Y-97630800D03*
D11*
%TO.P,D28,2*%
%TO.N,Net-(D28-Pad2)*%
X342038000Y-97630800D03*
%TD*%
D10*
%TO.P,D29,1*%
%TO.N,/row2*%
X79443700Y-116681000D03*
D11*
%TO.P,D29,2*%
%TO.N,Net-(D29-Pad2)*%
X87243700Y-116681000D03*
%TD*%
D10*
%TO.P,D30,1*%
%TO.N,/row2*%
X105638000Y-116681000D03*
D11*
%TO.P,D30,2*%
%TO.N,Net-(D30-Pad2)*%
X113438000Y-116681000D03*
%TD*%
D10*
%TO.P,D31,1*%
%TO.N,/row2*%
X124688000Y-116681000D03*
D11*
%TO.P,D31,2*%
%TO.N,Net-(D31-Pad2)*%
X132488000Y-116681000D03*
%TD*%
%TO.P,D32,2*%
%TO.N,Net-(D32-Pad2)*%
X151538000Y-116681000D03*
D10*
%TO.P,D32,1*%
%TO.N,/row2*%
X143738000Y-116681000D03*
%TD*%
%TO.P,D33,1*%
%TO.N,/row2*%
X162788000Y-116681000D03*
D11*
%TO.P,D33,2*%
%TO.N,Net-(D33-Pad2)*%
X170588000Y-116681000D03*
%TD*%
%TO.P,D34,2*%
%TO.N,Net-(D34-Pad2)*%
X189638000Y-116681000D03*
D10*
%TO.P,D34,1*%
%TO.N,/row2*%
X181838000Y-116681000D03*
%TD*%
%TO.P,D35,1*%
%TO.N,/row2*%
X200888000Y-116681000D03*
D11*
%TO.P,D35,2*%
%TO.N,Net-(D35-Pad2)*%
X208688000Y-116681000D03*
%TD*%
%TO.P,D36,2*%
%TO.N,Net-(D36-Pad2)*%
X227738000Y-116681000D03*
D10*
%TO.P,D36,1*%
%TO.N,/row2*%
X219938000Y-116681000D03*
%TD*%
%TO.P,D37,1*%
%TO.N,/row2*%
X238988000Y-116681000D03*
D11*
%TO.P,D37,2*%
%TO.N,Net-(D37-Pad2)*%
X246788000Y-116681000D03*
%TD*%
%TO.P,D38,2*%
%TO.N,Net-(D38-Pad2)*%
X265838000Y-116681000D03*
D10*
%TO.P,D38,1*%
%TO.N,/row2*%
X258038000Y-116681000D03*
%TD*%
%TO.P,D39,1*%
%TO.N,/row2*%
X277204000Y-116681000D03*
D11*
%TO.P,D39,2*%
%TO.N,Net-(D39-Pad2)*%
X285004000Y-116681000D03*
%TD*%
%TO.P,D40,2*%
%TO.N,Net-(D40-Pad2)*%
X303938000Y-116681000D03*
D10*
%TO.P,D40,1*%
%TO.N,/row2*%
X296138000Y-116681000D03*
%TD*%
D11*
%TO.P,D41,2*%
%TO.N,Net-(D41-Pad2)*%
X334894000Y-116681000D03*
D10*
%TO.P,D41,1*%
%TO.N,/row2*%
X327094000Y-116681000D03*
%TD*%
D11*
%TO.P,D42,2*%
%TO.N,Net-(D42-Pad2)*%
X92006300Y-135731000D03*
D10*
%TO.P,D42,1*%
%TO.N,/row3*%
X84206300Y-135731000D03*
%TD*%
%TO.P,D43,1*%
%TO.N,/row3*%
X115162000Y-135731000D03*
D11*
%TO.P,D43,2*%
%TO.N,Net-(D43-Pad2)*%
X122962000Y-135731000D03*
%TD*%
%TO.P,D44,2*%
%TO.N,Net-(D44-Pad2)*%
X142012000Y-135731000D03*
D10*
%TO.P,D44,1*%
%TO.N,/row3*%
X134212000Y-135731000D03*
%TD*%
%TO.P,D45,1*%
%TO.N,/row3*%
X153262000Y-135731000D03*
D11*
%TO.P,D45,2*%
%TO.N,Net-(D45-Pad2)*%
X161062000Y-135731000D03*
%TD*%
%TO.P,D46,2*%
%TO.N,Net-(D46-Pad2)*%
X180112000Y-135731000D03*
D10*
%TO.P,D46,1*%
%TO.N,/row3*%
X172312000Y-135731000D03*
%TD*%
%TO.P,D47,1*%
%TO.N,/row3*%
X191362000Y-135731000D03*
D11*
%TO.P,D47,2*%
%TO.N,Net-(D47-Pad2)*%
X199162000Y-135731000D03*
%TD*%
%TO.P,D48,2*%
%TO.N,Net-(D48-Pad2)*%
X218212000Y-135731000D03*
D10*
%TO.P,D48,1*%
%TO.N,/row3*%
X210412000Y-135731000D03*
%TD*%
%TO.P,D49,1*%
%TO.N,/row3*%
X229462000Y-135731000D03*
D11*
%TO.P,D49,2*%
%TO.N,Net-(D49-Pad2)*%
X237262000Y-135731000D03*
%TD*%
%TO.P,D50,2*%
%TO.N,Net-(D50-Pad2)*%
X256312000Y-135731000D03*
D10*
%TO.P,D50,1*%
%TO.N,/row3*%
X248512000Y-135731000D03*
%TD*%
D11*
%TO.P,D51,2*%
%TO.N,Net-(D51-Pad2)*%
X275362000Y-135731000D03*
D10*
%TO.P,D51,1*%
%TO.N,/row3*%
X267562000Y-135731000D03*
%TD*%
D11*
%TO.P,D52,2*%
%TO.N,Net-(D52-Pad2)*%
X294412000Y-135731000D03*
D10*
%TO.P,D52,1*%
%TO.N,/row3*%
X286612000Y-135731000D03*
%TD*%
%TO.P,D53,1*%
%TO.N,/row3*%
X322332000Y-135731000D03*
D11*
%TO.P,D53,2*%
%TO.N,Net-(D53-Pad2)*%
X330132000Y-135731000D03*
%TD*%
%TO.P,D54,2*%
%TO.N,Net-(D54-Pad2)*%
X82481300Y-154781000D03*
D10*
%TO.P,D54,1*%
%TO.N,/row4*%
X74681300Y-154781000D03*
%TD*%
%TO.P,D55,1*%
%TO.N,/row4*%
X98494000Y-154781000D03*
D11*
%TO.P,D55,2*%
%TO.N,Net-(D55-Pad2)*%
X106294000Y-154781000D03*
%TD*%
%TO.P,D56,2*%
%TO.N,Net-(D56-Pad2)*%
X130106000Y-154781000D03*
D10*
%TO.P,D56,1*%
%TO.N,/row4*%
X122306000Y-154781000D03*
%TD*%
%TO.P,D57,1*%
%TO.N,/row4*%
X193744000Y-154781000D03*
D11*
%TO.P,D57,2*%
%TO.N,Net-(D57-Pad2)*%
X201544000Y-154781000D03*
%TD*%
%TO.P,D58,2*%
%TO.N,Net-(D58-Pad2)*%
X272982000Y-154781000D03*
D10*
%TO.P,D58,1*%
%TO.N,/row4*%
X265182000Y-154781000D03*
%TD*%
%TO.P,D59,1*%
%TO.N,/row4*%
X288994000Y-154781000D03*
D11*
%TO.P,D59,2*%
%TO.N,Net-(D59-Pad2)*%
X296794000Y-154781000D03*
%TD*%
%TO.P,D60,2*%
%TO.N,Net-(D60-Pad2)*%
X320606000Y-154781000D03*
D10*
%TO.P,D60,1*%
%TO.N,/row4*%
X312806000Y-154781000D03*
%TD*%
%TO.P,D61,1*%
%TO.N,/row4*%
X336618000Y-154781000D03*
D11*
%TO.P,D61,2*%
%TO.N,Net-(D61-Pad2)*%
X344418000Y-154781000D03*
%TD*%
D12*
%TO.P,K1,2*%
%TO.N,Net-(D2-Pad2)*%
X101092000Y-68738800D03*
%TO.P,K1,1*%
%TO.N,/col1*%
X88165000Y-71278800D03*
%TD*%
%TO.P,K2,1*%
%TO.N,/col2*%
X107215000Y-71278800D03*
%TO.P,K2,2*%
%TO.N,Net-(D3-Pad2)*%
X120142000Y-68738800D03*
%TD*%
%TO.P,K3,1*%
%TO.N,/col3*%
X126265000Y-71278800D03*
%TO.P,K3,2*%
%TO.N,Net-(D4-Pad2)*%
X139192000Y-68738800D03*
%TD*%
%TO.P,K4,2*%
%TO.N,Net-(D5-Pad2)*%
X158242000Y-68738800D03*
%TO.P,K4,1*%
%TO.N,/col4*%
X145315000Y-71278800D03*
%TD*%
%TO.P,K5,1*%
%TO.N,/col5*%
X164365000Y-71278800D03*
%TO.P,K5,2*%
%TO.N,Net-(D6-Pad2)*%
X177292000Y-68738800D03*
%TD*%
%TO.P,K6,2*%
%TO.N,Net-(D7-Pad2)*%
X196342000Y-68738800D03*
%TO.P,K6,1*%
%TO.N,/col6*%
X183415000Y-71278800D03*
%TD*%
%TO.P,K7,2*%
%TO.N,Net-(D8-Pad2)*%
X215392000Y-68738800D03*
%TO.P,K7,1*%
%TO.N,/col7*%
X202465000Y-71278800D03*
%TD*%
%TO.P,K8,2*%
%TO.N,Net-(D9-Pad2)*%
X234442000Y-68738800D03*
%TO.P,K8,1*%
%TO.N,/col8*%
X221515000Y-71278800D03*
%TD*%
%TO.P,K9,1*%
%TO.N,/col9*%
X240565000Y-71278800D03*
%TO.P,K9,2*%
%TO.N,Net-(D10-Pad2)*%
X253492000Y-68738800D03*
%TD*%
%TO.P,K10,1*%
%TO.N,/col10*%
X259615000Y-71278800D03*
%TO.P,K10,2*%
%TO.N,Net-(D11-Pad2)*%
X272542000Y-68738800D03*
%TD*%
%TO.P,K11,2*%
%TO.N,Net-(D12-Pad2)*%
X291592000Y-68738800D03*
%TO.P,K11,1*%
%TO.N,/col11*%
X278665000Y-71278800D03*
%TD*%
%TO.P,K12,2*%
%TO.N,Net-(D13-Pad2)*%
X310642000Y-68738800D03*
%TO.P,K12,1*%
%TO.N,/col12*%
X297715000Y-71278800D03*
%TD*%
%TO.P,K13,1*%
%TO.N,/col14*%
X326291000Y-71278800D03*
%TO.P,K13,2*%
%TO.N,Net-(D14-Pad2)*%
X339218000Y-68738800D03*
%TD*%
%TO.P,K14,1*%
%TO.N,/col0*%
X73877500Y-90328800D03*
%TO.P,K14,2*%
%TO.N,Net-(D15-Pad2)*%
X86804500Y-87788800D03*
%TD*%
%TO.P,K27,2*%
%TO.N,Net-(D28-Pad2)*%
X343980000Y-87788800D03*
%TO.P,K27,1*%
%TO.N,/col14*%
X331053000Y-90328800D03*
%TD*%
%TO.P,K28,1*%
%TO.N,/col0*%
X76258700Y-109379000D03*
%TO.P,K28,2*%
%TO.N,Net-(D29-Pad2)*%
X89185700Y-106839000D03*
%TD*%
%TO.P,K29,1*%
%TO.N,/col2*%
X102453000Y-109379000D03*
%TO.P,K29,2*%
%TO.N,Net-(D30-Pad2)*%
X115380000Y-106839000D03*
%TD*%
%TO.P,K30,2*%
%TO.N,Net-(D31-Pad2)*%
X134430000Y-106839000D03*
%TO.P,K30,1*%
%TO.N,/col3*%
X121503000Y-109379000D03*
%TD*%
%TO.P,K31,2*%
%TO.N,Net-(D32-Pad2)*%
X153480000Y-106839000D03*
%TO.P,K31,1*%
%TO.N,/col4*%
X140553000Y-109379000D03*
%TD*%
%TO.P,K32,2*%
%TO.N,Net-(D33-Pad2)*%
X172370000Y-106839000D03*
%TO.P,K32,1*%
%TO.N,/col5*%
X159443000Y-109379000D03*
%TD*%
%TO.P,K33,1*%
%TO.N,/col6*%
X178653000Y-109379000D03*
%TO.P,K33,2*%
%TO.N,Net-(D34-Pad2)*%
X191580000Y-106839000D03*
%TD*%
%TO.P,K34,2*%
%TO.N,Net-(D35-Pad2)*%
X210630000Y-106839000D03*
%TO.P,K34,1*%
%TO.N,/col7*%
X197703000Y-109379000D03*
%TD*%
%TO.P,K35,2*%
%TO.N,Net-(D36-Pad2)*%
X229680000Y-106839000D03*
%TO.P,K35,1*%
%TO.N,/col8*%
X216753000Y-109379000D03*
%TD*%
%TO.P,K36,1*%
%TO.N,/col9*%
X235803000Y-109379000D03*
%TO.P,K36,2*%
%TO.N,Net-(D37-Pad2)*%
X248730000Y-106839000D03*
%TD*%
%TO.P,K37,1*%
%TO.N,/col10*%
X254853000Y-109379000D03*
%TO.P,K37,2*%
%TO.N,Net-(D38-Pad2)*%
X267780000Y-106839000D03*
%TD*%
%TO.P,K38,1*%
%TO.N,/col11*%
X273903000Y-109379000D03*
%TO.P,K38,2*%
%TO.N,Net-(D39-Pad2)*%
X286830000Y-106839000D03*
%TD*%
%TO.P,K39,1*%
%TO.N,/col12*%
X292953000Y-109379000D03*
%TO.P,K39,2*%
%TO.N,Net-(D40-Pad2)*%
X305880000Y-106839000D03*
%TD*%
%TO.P,K40,1*%
%TO.N,/col13*%
X323909000Y-109379000D03*
%TO.P,K40,2*%
%TO.N,Net-(D41-Pad2)*%
X336836000Y-106839000D03*
%TD*%
%TO.P,K41,2*%
%TO.N,Net-(D42-Pad2)*%
X93948300Y-125889000D03*
%TO.P,K41,1*%
%TO.N,/col1*%
X81021300Y-128429000D03*
%TD*%
%TO.P,K42,1*%
%TO.N,/col2*%
X111919000Y-128429000D03*
%TO.P,K42,2*%
%TO.N,Net-(D43-Pad2)*%
X124846000Y-125889000D03*
%TD*%
%TO.P,K43,1*%
%TO.N,/col3*%
X131027000Y-128429000D03*
%TO.P,K43,2*%
%TO.N,Net-(D44-Pad2)*%
X143954000Y-125889000D03*
%TD*%
%TO.P,K44,1*%
%TO.N,/col4*%
X150077000Y-128429000D03*
%TO.P,K44,2*%
%TO.N,Net-(D45-Pad2)*%
X163004000Y-125889000D03*
%TD*%
%TO.P,K45,2*%
%TO.N,Net-(D46-Pad2)*%
X182054000Y-125889000D03*
%TO.P,K45,1*%
%TO.N,/col5*%
X169127000Y-128429000D03*
%TD*%
%TO.P,K46,2*%
%TO.N,Net-(D47-Pad2)*%
X201104000Y-125889000D03*
%TO.P,K46,1*%
%TO.N,/col6*%
X188177000Y-128429000D03*
%TD*%
%TO.P,K47,2*%
%TO.N,Net-(D48-Pad2)*%
X220154000Y-125889000D03*
%TO.P,K47,1*%
%TO.N,/col7*%
X207227000Y-128429000D03*
%TD*%
%TO.P,K48,2*%
%TO.N,Net-(D49-Pad2)*%
X239204000Y-125889000D03*
%TO.P,K48,1*%
%TO.N,/col8*%
X226277000Y-128429000D03*
%TD*%
%TO.P,K49,1*%
%TO.N,/col9*%
X245327000Y-128429000D03*
%TO.P,K49,2*%
%TO.N,Net-(D50-Pad2)*%
X258254000Y-125889000D03*
%TD*%
%TO.P,K50,1*%
%TO.N,/col10*%
X264377000Y-128429000D03*
%TO.P,K50,2*%
%TO.N,Net-(D51-Pad2)*%
X277304000Y-125889000D03*
%TD*%
%TO.P,K51,1*%
%TO.N,/col11*%
X283427000Y-128429000D03*
%TO.P,K51,2*%
%TO.N,Net-(D52-Pad2)*%
X296354000Y-125889000D03*
%TD*%
%TO.P,K52,1*%
%TO.N,/col13*%
X319147000Y-128429000D03*
%TO.P,K52,2*%
%TO.N,Net-(D53-Pad2)*%
X332074000Y-125889000D03*
%TD*%
%TO.P,K53,2*%
%TO.N,Net-(D54-Pad2)*%
X84423300Y-144939000D03*
%TO.P,K53,1*%
%TO.N,/col0*%
X71496300Y-147479000D03*
%TD*%
%TO.P,K54,1*%
%TO.N,/col1*%
X95309000Y-147479000D03*
%TO.P,K54,2*%
%TO.N,Net-(D55-Pad2)*%
X108236000Y-144939000D03*
%TD*%
%TO.P,K55,1*%
%TO.N,/col3*%
X119121000Y-147479000D03*
%TO.P,K55,2*%
%TO.N,Net-(D56-Pad2)*%
X132048000Y-144939000D03*
%TD*%
%TO.P,K56,1*%
%TO.N,/col6*%
X190559000Y-147479000D03*
%TO.P,K56,2*%
%TO.N,Net-(D57-Pad2)*%
X203486000Y-144939000D03*
%TD*%
%TO.P,K57,1*%
%TO.N,/col10*%
X261997000Y-147479000D03*
%TO.P,K57,2*%
%TO.N,Net-(D58-Pad2)*%
X274924000Y-144939000D03*
%TD*%
%TO.P,K58,2*%
%TO.N,Net-(D59-Pad2)*%
X298736000Y-144939000D03*
%TO.P,K58,1*%
%TO.N,/col11*%
X285809000Y-147479000D03*
%TD*%
%TO.P,K59,1*%
%TO.N,/col13*%
X309621000Y-147479000D03*
%TO.P,K59,2*%
%TO.N,Net-(D60-Pad2)*%
X322548000Y-144939000D03*
%TD*%
%TO.P,K60,2*%
%TO.N,Net-(D61-Pad2)*%
X346360000Y-144939000D03*
%TO.P,K60,1*%
%TO.N,/col14*%
X333433000Y-147479000D03*
%TD*%
D13*
%TO.P,SW1,S1*%
%TO.N,/col0*%
X78818700Y-66462800D03*
%TO.P,SW1,S2*%
%TO.N,Net-(D1-Pad2)*%
X73818700Y-66462800D03*
D14*
%TO.P,SW1,MP*%
%TO.N,N/C*%
X81918700Y-73462800D03*
X70718700Y-73462800D03*
D13*
%TO.P,SW1,B*%
%TO.N,/rotA*%
X78818700Y-80962800D03*
%TO.P,SW1,C*%
%TO.N,/vcc*%
X76318700Y-80962800D03*
D15*
%TO.P,SW1,A*%
%TO.N,/rotB*%
X73818700Y-80962800D03*
%TD*%
D16*
%TO.P,U1,1*%
%TO.N,/col6*%
X219392000Y-157639000D03*
D17*
%TO.P,U1,2*%
%TO.N,/col5*%
X221932000Y-157639000D03*
%TO.P,U1,3*%
%TO.N,+5V*%
X224472000Y-157639000D03*
%TO.P,U1,4*%
%TO.N,Net-(U1-Pad4)*%
X227012000Y-157639000D03*
%TO.P,U1,5*%
%TO.N,/col4*%
X229552000Y-157639000D03*
%TO.P,U1,6*%
%TO.N,/col3*%
X232092000Y-157639000D03*
%TO.P,U1,7*%
%TO.N,/col7*%
X234632000Y-157639000D03*
%TO.P,U1,8*%
%TO.N,/col9*%
X237172000Y-157639000D03*
%TO.P,U1,9*%
%TO.N,/col10*%
X239712000Y-157639000D03*
%TO.P,U1,10*%
%TO.N,Net-(U1-Pad10)*%
X242252000Y-157639000D03*
%TO.P,U1,11*%
%TO.N,/row4*%
X244792000Y-157639000D03*
%TO.P,U1,13*%
%TO.N,/col1*%
X247332000Y-142399000D03*
%TO.P,U1,14*%
%TO.N,/row2*%
X244792000Y-142399000D03*
%TO.P,U1,15*%
%TO.N,/row3*%
X242252000Y-142399000D03*
%TO.P,U1,16*%
%TO.N,/row1*%
X239712000Y-142399000D03*
%TO.P,U1,17*%
%TO.N,/rotB*%
X237172000Y-142399000D03*
%TO.P,U1,18*%
%TO.N,/rotA*%
X234632000Y-142399000D03*
%TO.P,U1,19*%
%TO.N,/col14*%
X232092000Y-142399000D03*
%TO.P,U1,20*%
%TO.N,/col13*%
X229552000Y-142399000D03*
%TO.P,U1,21*%
%TO.N,/vcc*%
X227012000Y-142399000D03*
%TO.P,U1,22*%
%TO.N,Net-(U1-Pad22)*%
X224472000Y-142399000D03*
%TO.P,U1,23*%
%TO.N,Net-(U1-Pad23)*%
X221932000Y-142399000D03*
%TO.P,U1,12*%
%TO.N,/col0*%
X247332000Y-157410400D03*
%TO.P,U1,24*%
%TO.N,/row0*%
X219392000Y-142399000D03*
%TO.P,U1,29*%
%TO.N,/col11*%
X247332000Y-144939000D03*
%TO.P,U1,28*%
%TO.N,/col12*%
X247332000Y-147479000D03*
%TO.P,U1,27*%
%TO.N,Net-(U1-Pad27)*%
X247332000Y-150019000D03*
%TO.P,U1,26*%
%TO.N,/col8*%
X247332000Y-152559000D03*
%TO.P,U1,25*%
%TO.N,/col2*%
X247332000Y-155099000D03*
%TD*%
D12*
%TO.P,K15,2*%
%TO.N,Net-(D16-Pad2)*%
X110617000Y-87788800D03*
%TO.P,K15,1*%
%TO.N,/col2*%
X97690000Y-90328800D03*
%TD*%
%TO.P,K16,1*%
%TO.N,/col3*%
X116740000Y-90328800D03*
%TO.P,K16,2*%
%TO.N,Net-(D17-Pad2)*%
X129667000Y-87788800D03*
%TD*%
%TO.P,K17,2*%
%TO.N,Net-(D18-Pad2)*%
X148717000Y-87788800D03*
%TO.P,K17,1*%
%TO.N,/col4*%
X135790000Y-90328800D03*
%TD*%
%TO.P,K18,1*%
%TO.N,/col5*%
X154841000Y-90328800D03*
%TO.P,K18,2*%
%TO.N,Net-(D19-Pad2)*%
X167768000Y-87788800D03*
%TD*%
%TO.P,K19,1*%
%TO.N,/col6*%
X173891000Y-90328800D03*
%TO.P,K19,2*%
%TO.N,Net-(D20-Pad2)*%
X186818000Y-87788800D03*
%TD*%
%TO.P,K20,2*%
%TO.N,Net-(D21-Pad2)*%
X205868000Y-87788800D03*
%TO.P,K20,1*%
%TO.N,/col7*%
X192941000Y-90328800D03*
%TD*%
%TO.P,K21,2*%
%TO.N,Net-(D22-Pad2)*%
X224918000Y-87788800D03*
%TO.P,K21,1*%
%TO.N,/col8*%
X211991000Y-90328800D03*
%TD*%
%TO.P,K22,1*%
%TO.N,/col9*%
X231041000Y-90328800D03*
%TO.P,K22,2*%
%TO.N,Net-(D23-Pad2)*%
X243968000Y-87788800D03*
%TD*%
%TO.P,K23,1*%
%TO.N,/col10*%
X250091000Y-90328800D03*
%TO.P,K23,2*%
%TO.N,Net-(D24-Pad2)*%
X263018000Y-87788800D03*
%TD*%
%TO.P,K24,1*%
%TO.N,/col11*%
X269141000Y-90328800D03*
%TO.P,K24,2*%
%TO.N,Net-(D25-Pad2)*%
X282068000Y-87788800D03*
%TD*%
%TO.P,K25,2*%
%TO.N,Net-(D26-Pad2)*%
X301118000Y-87788800D03*
%TO.P,K25,1*%
%TO.N,/col12*%
X288191000Y-90328800D03*
%TD*%
%TO.P,K26,2*%
%TO.N,Net-(D27-Pad2)*%
X320168000Y-87788800D03*
%TO.P,K26,1*%
%TO.N,/col13*%
X307241000Y-90328800D03*
%TD*%
D18*
%TO.N,/col1*%
X98776600Y-144857300D03*
%TO.N,/col2*%
X122968500Y-141762800D03*
%TO.N,/col3*%
X152772600Y-156437400D03*
%TO.N,/col5*%
X173389800Y-158150400D03*
%TO.N,/col8*%
X240037100Y-148534900D03*
%TO.N,/col11*%
X267372000Y-144939000D03*
%TO.N,/col14*%
X333707100Y-141123300D03*
%TO.N,/col0*%
X72317100Y-144951000D03*
%TD*%
D19*
%TO.N,/row0*%
X205650000Y-79706100D02*
X207482600Y-81538700D01*
X207482600Y-81538700D02*
X207482600Y-99805800D01*
X207482600Y-99805800D02*
X212959600Y-105282800D01*
X212959600Y-105282800D02*
X212959600Y-125453000D01*
X212959600Y-125453000D02*
X217033900Y-129527300D01*
X217033900Y-129527300D02*
X217033900Y-140040900D01*
X217033900Y-140040900D02*
X219392000Y-142399000D01*
X205650000Y-78580800D02*
X205650000Y-79706100D01*
%TO.N,Net-(D2-Pad2)*%
X101092000Y-68738800D02*
X101092000Y-70314100D01*
X101092000Y-70314100D02*
X99079400Y-72326700D01*
X99079400Y-72326700D02*
X99079400Y-78510200D01*
X99079400Y-78510200D02*
X99150000Y-78580800D01*
%TO.N,Net-(D3-Pad2)*%
X120142000Y-68738800D02*
X120142000Y-70314100D01*
X120142000Y-70314100D02*
X118129400Y-72326700D01*
X118129400Y-72326700D02*
X118129400Y-78510200D01*
X118129400Y-78510200D02*
X118200000Y-78580800D01*
%TO.N,Net-(D4-Pad2)*%
X139192000Y-68738800D02*
X139192000Y-70314100D01*
X139192000Y-70314100D02*
X137179400Y-72326700D01*
X137179400Y-72326700D02*
X137179400Y-78510200D01*
X137179400Y-78510200D02*
X137250000Y-78580800D01*
%TO.N,Net-(D5-Pad2)*%
X158242000Y-68738800D02*
X158242000Y-70314100D01*
X158242000Y-70314100D02*
X156229400Y-72326700D01*
X156229400Y-72326700D02*
X156229400Y-78510200D01*
X156229400Y-78510200D02*
X156300000Y-78580800D01*
%TO.N,Net-(D6-Pad2)*%
X177292000Y-68738800D02*
X177292000Y-70314100D01*
X177292000Y-70314100D02*
X175279400Y-72326700D01*
X175279400Y-72326700D02*
X175279400Y-78510200D01*
X175279400Y-78510200D02*
X175350000Y-78580800D01*
%TO.N,Net-(D7-Pad2)*%
X196342000Y-68738800D02*
X196342000Y-70314100D01*
X196342000Y-70314100D02*
X194329400Y-72326700D01*
X194329400Y-72326700D02*
X194329400Y-78510200D01*
X194329400Y-78510200D02*
X194400000Y-78580800D01*
%TO.N,Net-(D8-Pad2)*%
X215392000Y-68738800D02*
X215392000Y-70314100D01*
X215392000Y-70314100D02*
X213379400Y-72326700D01*
X213379400Y-72326700D02*
X213379400Y-78510200D01*
X213379400Y-78510200D02*
X213450000Y-78580800D01*
%TO.N,Net-(D9-Pad2)*%
X234442000Y-68738800D02*
X234442000Y-70314100D01*
X234442000Y-70314100D02*
X232429400Y-72326700D01*
X232429400Y-72326700D02*
X232429400Y-78510200D01*
X232429400Y-78510200D02*
X232500000Y-78580800D01*
%TO.N,Net-(D10-Pad2)*%
X253492000Y-68738800D02*
X253492000Y-70314100D01*
X253492000Y-70314100D02*
X251479400Y-72326700D01*
X251479400Y-72326700D02*
X251479400Y-78510200D01*
X251479400Y-78510200D02*
X251550000Y-78580800D01*
%TO.N,Net-(D11-Pad2)*%
X272542000Y-68738800D02*
X272542000Y-70314100D01*
X272542000Y-70314100D02*
X270529400Y-72326700D01*
X270529400Y-72326700D02*
X270529400Y-78510200D01*
X270529400Y-78510200D02*
X270600000Y-78580800D01*
%TO.N,Net-(D12-Pad2)*%
X291592000Y-68738800D02*
X291592000Y-70314100D01*
X291592000Y-70314100D02*
X289579400Y-72326700D01*
X289579400Y-72326700D02*
X289579400Y-78510200D01*
X289579400Y-78510200D02*
X289650000Y-78580800D01*
%TO.N,Net-(D13-Pad2)*%
X310642000Y-68738800D02*
X310642000Y-70314100D01*
X310642000Y-70314100D02*
X308629400Y-72326700D01*
X308629400Y-72326700D02*
X308629400Y-78510200D01*
X308629400Y-78510200D02*
X308700000Y-78580800D01*
%TO.N,Net-(D14-Pad2)*%
X339218000Y-68738800D02*
X339218000Y-70314100D01*
X339218000Y-70314100D02*
X337205400Y-72326700D01*
X337205400Y-72326700D02*
X337205400Y-78510200D01*
X337205400Y-78510200D02*
X337276000Y-78580800D01*
%TO.N,Net-(D15-Pad2)*%
X86804500Y-87788800D02*
X86804500Y-89364100D01*
X86804500Y-89364100D02*
X84801900Y-91366700D01*
X84801900Y-91366700D02*
X84801900Y-97570200D01*
X84801900Y-97570200D02*
X84862500Y-97630800D01*
%TO.N,/row1*%
X100875000Y-97630800D02*
X102000300Y-97630800D01*
X119925000Y-97630800D02*
X118799700Y-97630800D01*
X118799700Y-97630800D02*
X117674400Y-98756100D01*
X117674400Y-98756100D02*
X103125600Y-98756100D01*
X103125600Y-98756100D02*
X102000300Y-97630800D01*
X234226000Y-97630800D02*
X234226000Y-98756100D01*
X239712000Y-142399000D02*
X235856500Y-138543500D01*
X235856500Y-138543500D02*
X235856500Y-129583000D01*
X235856500Y-129583000D02*
X234058200Y-127784700D01*
X234058200Y-127784700D02*
X234058200Y-98923900D01*
X234058200Y-98923900D02*
X234226000Y-98756100D01*
%TO.N,Net-(D16-Pad2)*%
X110617000Y-87788800D02*
X110617000Y-89364100D01*
X110617000Y-89364100D02*
X108604400Y-91376700D01*
X108604400Y-91376700D02*
X108604400Y-97560200D01*
X108604400Y-97560200D02*
X108675000Y-97630800D01*
%TO.N,Net-(D17-Pad2)*%
X129667000Y-87788800D02*
X129667000Y-89364100D01*
X129667000Y-89364100D02*
X127654400Y-91376700D01*
X127654400Y-91376700D02*
X127654400Y-97560200D01*
X127654400Y-97560200D02*
X127725000Y-97630800D01*
%TO.N,Net-(D18-Pad2)*%
X148717000Y-87788800D02*
X148717000Y-89364100D01*
X148717000Y-89364100D02*
X146704400Y-91376700D01*
X146704400Y-91376700D02*
X146704400Y-97560200D01*
X146704400Y-97560200D02*
X146775000Y-97630800D01*
%TO.N,Net-(D19-Pad2)*%
X167768000Y-87788800D02*
X167768000Y-89364100D01*
X167768000Y-89364100D02*
X165755400Y-91376700D01*
X165755400Y-91376700D02*
X165755400Y-97560200D01*
X165755400Y-97560200D02*
X165826000Y-97630800D01*
%TO.N,Net-(D20-Pad2)*%
X186818000Y-87788800D02*
X186818000Y-89364100D01*
X186818000Y-89364100D02*
X184805400Y-91376700D01*
X184805400Y-91376700D02*
X184805400Y-97560200D01*
X184805400Y-97560200D02*
X184876000Y-97630800D01*
%TO.N,Net-(D21-Pad2)*%
X205868000Y-87788800D02*
X205868000Y-89364100D01*
X205868000Y-89364100D02*
X203855400Y-91376700D01*
X203855400Y-91376700D02*
X203855400Y-97560200D01*
X203855400Y-97560200D02*
X203926000Y-97630800D01*
%TO.N,Net-(D22-Pad2)*%
X224918000Y-87788800D02*
X224918000Y-89364100D01*
X224918000Y-89364100D02*
X222905400Y-91376700D01*
X222905400Y-91376700D02*
X222905400Y-97560200D01*
X222905400Y-97560200D02*
X222976000Y-97630800D01*
%TO.N,Net-(D23-Pad2)*%
X243968000Y-87788800D02*
X243968000Y-89364100D01*
X243968000Y-89364100D02*
X241955400Y-91376700D01*
X241955400Y-91376700D02*
X241955400Y-97560200D01*
X241955400Y-97560200D02*
X242026000Y-97630800D01*
%TO.N,Net-(D24-Pad2)*%
X263018000Y-87788800D02*
X263018000Y-89364100D01*
X263018000Y-89364100D02*
X261005400Y-91376700D01*
X261005400Y-91376700D02*
X261005400Y-97560200D01*
X261005400Y-97560200D02*
X261076000Y-97630800D01*
%TO.N,Net-(D25-Pad2)*%
X282068000Y-87788800D02*
X282068000Y-89364100D01*
X282068000Y-89364100D02*
X280055400Y-91376700D01*
X280055400Y-91376700D02*
X280055400Y-97560200D01*
X280055400Y-97560200D02*
X280126000Y-97630800D01*
%TO.N,Net-(D26-Pad2)*%
X301118000Y-87788800D02*
X301118000Y-89364100D01*
X301118000Y-89364100D02*
X299105400Y-91376700D01*
X299105400Y-91376700D02*
X299105400Y-97560200D01*
X299105400Y-97560200D02*
X299176000Y-97630800D01*
%TO.N,Net-(D27-Pad2)*%
X320168000Y-87788800D02*
X320168000Y-89364100D01*
X320168000Y-89364100D02*
X318155400Y-91376700D01*
X318155400Y-91376700D02*
X318155400Y-97560200D01*
X318155400Y-97560200D02*
X318226000Y-97630800D01*
%TO.N,Net-(D28-Pad2)*%
X343980000Y-87788800D02*
X343980000Y-89364100D01*
X343980000Y-89364100D02*
X341967400Y-91376700D01*
X341967400Y-91376700D02*
X341967400Y-97560200D01*
X341967400Y-97560200D02*
X342038000Y-97630800D01*
%TO.N,Net-(D29-Pad2)*%
X89185700Y-106839000D02*
X89185700Y-108414300D01*
X89185700Y-108414300D02*
X87163600Y-110436400D01*
X87163600Y-110436400D02*
X87163600Y-116600900D01*
X87163600Y-116600900D02*
X87243700Y-116681000D01*
%TO.N,/row2*%
X143738000Y-116681000D02*
X144863300Y-116681000D01*
X162788000Y-116681000D02*
X161662700Y-116681000D01*
X161662700Y-116681000D02*
X160537400Y-117806300D01*
X160537400Y-117806300D02*
X145988600Y-117806300D01*
X145988600Y-117806300D02*
X144863300Y-116681000D01*
%TO.N,Net-(D30-Pad2)*%
X115380000Y-106839000D02*
X115380000Y-108414300D01*
X115380000Y-108414300D02*
X113367400Y-110426900D01*
X113367400Y-110426900D02*
X113367400Y-116610400D01*
X113367400Y-116610400D02*
X113438000Y-116681000D01*
%TO.N,Net-(D31-Pad2)*%
X134430000Y-106839000D02*
X134430000Y-108414300D01*
X134430000Y-108414300D02*
X132417400Y-110426900D01*
X132417400Y-110426900D02*
X132417400Y-116610400D01*
X132417400Y-116610400D02*
X132488000Y-116681000D01*
%TO.N,Net-(D32-Pad2)*%
X153480000Y-106839000D02*
X153480000Y-108414300D01*
X153480000Y-108414300D02*
X151467400Y-110426900D01*
X151467400Y-110426900D02*
X151467400Y-116610400D01*
X151467400Y-116610400D02*
X151538000Y-116681000D01*
%TO.N,Net-(D33-Pad2)*%
X172370000Y-106839000D02*
X172370000Y-108414300D01*
X172370000Y-108414300D02*
X170406900Y-110377400D01*
X170406900Y-110377400D02*
X170406900Y-116499900D01*
X170406900Y-116499900D02*
X170588000Y-116681000D01*
%TO.N,Net-(D34-Pad2)*%
X191580000Y-106839000D02*
X191580000Y-108414300D01*
X191580000Y-108414300D02*
X189567400Y-110426900D01*
X189567400Y-110426900D02*
X189567400Y-116610400D01*
X189567400Y-116610400D02*
X189638000Y-116681000D01*
%TO.N,Net-(D35-Pad2)*%
X210630000Y-106839000D02*
X210630000Y-108414300D01*
X210630000Y-108414300D02*
X208617400Y-110426900D01*
X208617400Y-110426900D02*
X208617400Y-116610400D01*
X208617400Y-116610400D02*
X208688000Y-116681000D01*
%TO.N,Net-(D36-Pad2)*%
X229680000Y-106839000D02*
X229680000Y-108414300D01*
X229680000Y-108414300D02*
X227667400Y-110426900D01*
X227667400Y-110426900D02*
X227667400Y-116610400D01*
X227667400Y-116610400D02*
X227738000Y-116681000D01*
%TO.N,Net-(D37-Pad2)*%
X248730000Y-106839000D02*
X248730000Y-108414300D01*
X248730000Y-108414300D02*
X246717400Y-110426900D01*
X246717400Y-110426900D02*
X246717400Y-116610400D01*
X246717400Y-116610400D02*
X246788000Y-116681000D01*
%TO.N,Net-(D38-Pad2)*%
X267780000Y-106839000D02*
X267780000Y-108414300D01*
X267780000Y-108414300D02*
X265767400Y-110426900D01*
X265767400Y-110426900D02*
X265767400Y-116610400D01*
X265767400Y-116610400D02*
X265838000Y-116681000D01*
%TO.N,Net-(D39-Pad2)*%
X286830000Y-106839000D02*
X286830000Y-108414300D01*
X286830000Y-108414300D02*
X284833900Y-110410400D01*
X284833900Y-110410400D02*
X284833900Y-116510900D01*
X284833900Y-116510900D02*
X285004000Y-116681000D01*
%TO.N,Net-(D40-Pad2)*%
X305880000Y-106839000D02*
X305880000Y-108414300D01*
X305880000Y-108414300D02*
X303867400Y-110426900D01*
X303867400Y-110426900D02*
X303867400Y-116610400D01*
X303867400Y-116610400D02*
X303938000Y-116681000D01*
%TO.N,Net-(D41-Pad2)*%
X336836000Y-106839000D02*
X336836000Y-108414300D01*
X336836000Y-108414300D02*
X334826800Y-110423500D01*
X334826800Y-110423500D02*
X334826800Y-116613800D01*
X334826800Y-116613800D02*
X334894000Y-116681000D01*
%TO.N,Net-(D42-Pad2)*%
X93948300Y-125889000D02*
X93948300Y-127464300D01*
X93948300Y-127464300D02*
X91935700Y-129476900D01*
X91935700Y-129476900D02*
X91935700Y-135660400D01*
X91935700Y-135660400D02*
X92006300Y-135731000D01*
%TO.N,/row3*%
X191362000Y-135731000D02*
X192487300Y-135731000D01*
X210412000Y-135731000D02*
X209286700Y-135731000D01*
X209286700Y-135731000D02*
X208161400Y-136856300D01*
X208161400Y-136856300D02*
X193612600Y-136856300D01*
X193612600Y-136856300D02*
X192487300Y-135731000D01*
X248512000Y-135731000D02*
X248512000Y-136856300D01*
X242252000Y-142399000D02*
X247794700Y-136856300D01*
X247794700Y-136856300D02*
X248512000Y-136856300D01*
%TO.N,Net-(D43-Pad2)*%
X124846000Y-125889000D02*
X124846000Y-127464300D01*
X124846000Y-127464300D02*
X122806400Y-129503900D01*
X122806400Y-129503900D02*
X122806400Y-135575400D01*
X122806400Y-135575400D02*
X122962000Y-135731000D01*
%TO.N,Net-(D44-Pad2)*%
X143954000Y-125889000D02*
X143954000Y-127464300D01*
X143954000Y-127464300D02*
X141941400Y-129476900D01*
X141941400Y-129476900D02*
X141941400Y-135660400D01*
X141941400Y-135660400D02*
X142012000Y-135731000D01*
%TO.N,Net-(D45-Pad2)*%
X163004000Y-125889000D02*
X163004000Y-127464300D01*
X163004000Y-127464300D02*
X160991400Y-129476900D01*
X160991400Y-129476900D02*
X160991400Y-135660400D01*
X160991400Y-135660400D02*
X161062000Y-135731000D01*
%TO.N,Net-(D46-Pad2)*%
X182054000Y-125889000D02*
X182054000Y-127464300D01*
X182054000Y-127464300D02*
X180041400Y-129476900D01*
X180041400Y-129476900D02*
X180041400Y-135660400D01*
X180041400Y-135660400D02*
X180112000Y-135731000D01*
%TO.N,Net-(D47-Pad2)*%
X201104000Y-125889000D02*
X201104000Y-127464300D01*
X201104000Y-127464300D02*
X199091400Y-129476900D01*
X199091400Y-129476900D02*
X199091400Y-135660400D01*
X199091400Y-135660400D02*
X199162000Y-135731000D01*
%TO.N,Net-(D48-Pad2)*%
X220154000Y-125889000D02*
X220154000Y-127464300D01*
X220154000Y-127464300D02*
X218145300Y-129473000D01*
X218145300Y-129473000D02*
X218145300Y-135664300D01*
X218145300Y-135664300D02*
X218212000Y-135731000D01*
%TO.N,Net-(D49-Pad2)*%
X239204000Y-125889000D02*
X239204000Y-127464300D01*
X239204000Y-127464300D02*
X237191400Y-129476900D01*
X237191400Y-129476900D02*
X237191400Y-135660400D01*
X237191400Y-135660400D02*
X237262000Y-135731000D01*
%TO.N,Net-(D50-Pad2)*%
X258254000Y-125889000D02*
X258254000Y-127464300D01*
X258254000Y-127464300D02*
X258693600Y-127903900D01*
X258693600Y-127903900D02*
X258693600Y-133349400D01*
X258693600Y-133349400D02*
X256312000Y-135731000D01*
%TO.N,Net-(D51-Pad2)*%
X277304000Y-125889000D02*
X277304000Y-127464300D01*
X277304000Y-127464300D02*
X275291400Y-129476900D01*
X275291400Y-129476900D02*
X275291400Y-135660400D01*
X275291400Y-135660400D02*
X275362000Y-135731000D01*
%TO.N,Net-(D52-Pad2)*%
X296354000Y-125889000D02*
X296354000Y-127464300D01*
X296354000Y-127464300D02*
X294341400Y-129476900D01*
X294341400Y-129476900D02*
X294341400Y-135660400D01*
X294341400Y-135660400D02*
X294412000Y-135731000D01*
%TO.N,Net-(D53-Pad2)*%
X332074000Y-125889000D02*
X332074000Y-127464300D01*
X332074000Y-127464300D02*
X332517500Y-127907800D01*
X332517500Y-127907800D02*
X332517500Y-133345500D01*
X332517500Y-133345500D02*
X330132000Y-135731000D01*
%TO.N,Net-(D54-Pad2)*%
X84423300Y-144939000D02*
X84423300Y-146514300D01*
X84423300Y-146514300D02*
X82410700Y-148526900D01*
X82410700Y-148526900D02*
X82410700Y-154710400D01*
X82410700Y-154710400D02*
X82481300Y-154781000D01*
%TO.N,Net-(D55-Pad2)*%
X108236000Y-144939000D02*
X108236000Y-146514300D01*
X108236000Y-146514300D02*
X106223400Y-148526900D01*
X106223400Y-148526900D02*
X106223400Y-154710400D01*
X106223400Y-154710400D02*
X106294000Y-154781000D01*
%TO.N,Net-(D56-Pad2)*%
X132048000Y-144939000D02*
X132048000Y-146514300D01*
X132048000Y-146514300D02*
X130035400Y-148526900D01*
X130035400Y-148526900D02*
X130035400Y-154710400D01*
X130035400Y-154710400D02*
X130106000Y-154781000D01*
%TO.N,Net-(D57-Pad2)*%
X203486000Y-144939000D02*
X203486000Y-146514300D01*
X203486000Y-146514300D02*
X201473400Y-148526900D01*
X201473400Y-148526900D02*
X201473400Y-154710400D01*
X201473400Y-154710400D02*
X201544000Y-154781000D01*
%TO.N,Net-(D58-Pad2)*%
X274924000Y-144939000D02*
X274924000Y-146514300D01*
X274924000Y-146514300D02*
X272911400Y-148526900D01*
X272911400Y-148526900D02*
X272911400Y-154710400D01*
X272911400Y-154710400D02*
X272982000Y-154781000D01*
%TO.N,Net-(D59-Pad2)*%
X298736000Y-144939000D02*
X298736000Y-146514300D01*
X298736000Y-146514300D02*
X296723400Y-148526900D01*
X296723400Y-148526900D02*
X296723400Y-154710400D01*
X296723400Y-154710400D02*
X296794000Y-154781000D01*
%TO.N,Net-(D60-Pad2)*%
X322548000Y-144939000D02*
X322548000Y-146514300D01*
X322548000Y-146514300D02*
X320535400Y-148526900D01*
X320535400Y-148526900D02*
X320535400Y-154710400D01*
X320535400Y-154710400D02*
X320606000Y-154781000D01*
%TO.N,Net-(D61-Pad2)*%
X346360000Y-144939000D02*
X346360000Y-146514300D01*
X346360000Y-146514300D02*
X344347400Y-148526900D01*
X344347400Y-148526900D02*
X344347400Y-154710400D01*
X344347400Y-154710400D02*
X344418000Y-154781000D01*
%TO.N,/col1*%
X98776600Y-144857300D02*
X95689100Y-144857300D01*
X95689100Y-144857300D02*
X95576100Y-144970300D01*
X95576100Y-144970300D02*
X95576100Y-145636600D01*
X95576100Y-145636600D02*
X95309000Y-145903700D01*
X81021300Y-128429000D02*
X81021300Y-130684000D01*
X81021300Y-130684000D02*
X83856100Y-133518800D01*
X83856100Y-133518800D02*
X84124600Y-133518800D01*
X84124600Y-133518800D02*
X95576100Y-144970300D01*
X95309000Y-147479000D02*
X95309000Y-145903700D01*
X81021300Y-128429000D02*
X81021300Y-126853700D01*
X81021300Y-126853700D02*
X85696300Y-122178700D01*
X85696300Y-122178700D02*
X85696300Y-110307100D01*
X85696300Y-110307100D02*
X84058200Y-108669000D01*
X84058200Y-108669000D02*
X84058200Y-100690300D01*
X84058200Y-100690300D02*
X88421700Y-96326800D01*
X88421700Y-96326800D02*
X88421700Y-73110800D01*
X88421700Y-73110800D02*
X88165000Y-72854100D01*
X88165000Y-71278800D02*
X88165000Y-72854100D01*
%TO.N,/col2*%
X111919000Y-128429000D02*
X111919000Y-126853700D01*
X102453000Y-109379000D02*
X102453000Y-117387700D01*
X102453000Y-117387700D02*
X111919000Y-126853700D01*
X102453000Y-108956900D02*
X102453000Y-109379000D01*
X111919000Y-128429000D02*
X111919000Y-130680900D01*
X111919000Y-130680900D02*
X115052900Y-133814800D01*
X115052900Y-133814800D02*
X115367200Y-133814800D01*
X115367200Y-133814800D02*
X122968500Y-141416100D01*
X122968500Y-141416100D02*
X122968500Y-141762800D01*
X102453000Y-108956900D02*
X102453000Y-107803700D01*
X97690000Y-90328800D02*
X97690000Y-88753500D01*
X97690000Y-88753500D02*
X107215000Y-79228500D01*
X107215000Y-79228500D02*
X107215000Y-71278800D01*
X97690000Y-90328800D02*
X97690000Y-103040700D01*
X97690000Y-103040700D02*
X102453000Y-107803700D01*
%TO.N,/col3*%
X116740000Y-90328800D02*
X116740000Y-88753500D01*
X116740000Y-88753500D02*
X126265000Y-79228500D01*
X126265000Y-79228500D02*
X126265000Y-71278800D01*
X121503000Y-109379000D02*
X121503000Y-97136500D01*
X121503000Y-97136500D02*
X119952900Y-95586400D01*
X119952900Y-95586400D02*
X119699500Y-95586400D01*
X119699500Y-95586400D02*
X116740000Y-92626900D01*
X116740000Y-92626900D02*
X116740000Y-90328800D01*
X131027000Y-128429000D02*
X131027000Y-126853700D01*
X121503000Y-109379000D02*
X121503000Y-117329700D01*
X121503000Y-117329700D02*
X131027000Y-126853700D01*
X131027000Y-134785300D02*
X119908600Y-145903700D01*
X119908600Y-145903700D02*
X119121000Y-145903700D01*
X131027000Y-128429000D02*
X131027000Y-134785300D01*
X131027000Y-134785300D02*
X131120500Y-134785300D01*
X131120500Y-134785300D02*
X152772600Y-156437400D01*
X119121000Y-147479000D02*
X119121000Y-145903700D01*
%TO.N,/col4*%
X150077000Y-128429000D02*
X150077000Y-126853700D01*
X140553000Y-109379000D02*
X140553000Y-117329700D01*
X140553000Y-117329700D02*
X150077000Y-126853700D01*
X140553000Y-108956900D02*
X140553000Y-109379000D01*
X229552000Y-157639000D02*
X228296000Y-158895000D01*
X228296000Y-158895000D02*
X173086600Y-158895000D01*
X173086600Y-158895000D02*
X163442400Y-149250800D01*
X163442400Y-149250800D02*
X163442400Y-143847000D01*
X163442400Y-143847000D02*
X152889800Y-133294400D01*
X152889800Y-133294400D02*
X152668900Y-133294400D01*
X152668900Y-133294400D02*
X150077000Y-130702500D01*
X150077000Y-130702500D02*
X150077000Y-128429000D01*
X140553000Y-108956900D02*
X140553000Y-107803700D01*
X135790000Y-90328800D02*
X135790000Y-88753500D01*
X135790000Y-88753500D02*
X145315000Y-79228500D01*
X145315000Y-79228500D02*
X145315000Y-71278800D01*
X140553000Y-107803700D02*
X135790000Y-103040700D01*
X135790000Y-103040700D02*
X135790000Y-90328800D01*
%TO.N,/col5*%
X159443000Y-109379000D02*
X159443000Y-111636500D01*
X159443000Y-111636500D02*
X162423100Y-114616600D01*
X162423100Y-114616600D02*
X162832100Y-114616600D01*
X162832100Y-114616600D02*
X169127000Y-120911500D01*
X169127000Y-120911500D02*
X169127000Y-128429000D01*
X159443000Y-108956900D02*
X159443000Y-109379000D01*
X154841000Y-90328800D02*
X154841000Y-88753500D01*
X154841000Y-88753500D02*
X164365000Y-79229500D01*
X164365000Y-79229500D02*
X164365000Y-71278800D01*
X159443000Y-107803700D02*
X154841000Y-103201700D01*
X154841000Y-103201700D02*
X154841000Y-90328800D01*
X173389800Y-158150400D02*
X169127000Y-153887600D01*
X169127000Y-153887600D02*
X169127000Y-128429000D01*
X159443000Y-108956900D02*
X159443000Y-107803700D01*
%TO.N,/col6*%
X188177000Y-128429000D02*
X188177000Y-126853700D01*
X178653000Y-109379000D02*
X178653000Y-117329700D01*
X178653000Y-117329700D02*
X188177000Y-126853700D01*
X178653000Y-108956900D02*
X178653000Y-109379000D01*
X190559000Y-147479000D02*
X190559000Y-145903700D01*
X188177000Y-128429000D02*
X188177000Y-143521700D01*
X188177000Y-143521700D02*
X190559000Y-145903700D01*
X178653000Y-108956900D02*
X178653000Y-107803700D01*
X183415000Y-71278800D02*
X183415000Y-79229500D01*
X183415000Y-79229500D02*
X173891000Y-88753500D01*
X219392000Y-157639000D02*
X201777600Y-157639000D01*
X201777600Y-157639000D02*
X196483000Y-152344400D01*
X196483000Y-152344400D02*
X193191200Y-152344400D01*
X193191200Y-152344400D02*
X190559000Y-149712200D01*
X190559000Y-149712200D02*
X190559000Y-147479000D01*
X173891000Y-90328800D02*
X173891000Y-88753500D01*
X173891000Y-90328800D02*
X173891000Y-103041700D01*
X173891000Y-103041700D02*
X178653000Y-107803700D01*
%TO.N,/col7*%
X207227000Y-128429000D02*
X207227000Y-130727100D01*
X207227000Y-130727100D02*
X210505100Y-134005200D01*
X210505100Y-134005200D02*
X210758500Y-134005200D01*
X210758500Y-134005200D02*
X211897600Y-135144300D01*
X211897600Y-135144300D02*
X211897600Y-136604300D01*
X211897600Y-136604300D02*
X231530800Y-156237500D01*
X231530800Y-156237500D02*
X233230500Y-156237500D01*
X233230500Y-156237500D02*
X234632000Y-157639000D01*
X207227000Y-128006900D02*
X207227000Y-128429000D01*
X197703000Y-107803700D02*
X192941000Y-103041700D01*
X192941000Y-103041700D02*
X192941000Y-90328800D01*
X207227000Y-126853700D02*
X197703000Y-117329700D01*
X197703000Y-117329700D02*
X197703000Y-109379000D01*
X192941000Y-90328800D02*
X192941000Y-88753500D01*
X192941000Y-88753500D02*
X202465000Y-79229500D01*
X202465000Y-79229500D02*
X202465000Y-71278800D01*
X207227000Y-128006900D02*
X207227000Y-126853700D01*
X197703000Y-109379000D02*
X197703000Y-107803700D01*
%TO.N,/col8*%
X226277000Y-128429000D02*
X226277000Y-126853700D01*
X216753000Y-109379000D02*
X216753000Y-117329700D01*
X216753000Y-117329700D02*
X226277000Y-126853700D01*
X216753000Y-108956900D02*
X216753000Y-109379000D01*
X211991000Y-90328800D02*
X211991000Y-88753500D01*
X211991000Y-88753500D02*
X221515000Y-79229500D01*
X221515000Y-79229500D02*
X221515000Y-71278800D01*
X216753000Y-107803700D02*
X216753000Y-105361800D01*
X216753000Y-105361800D02*
X211991000Y-100599800D01*
X211991000Y-100599800D02*
X211991000Y-90328800D01*
X226277000Y-128429000D02*
X226277000Y-130728900D01*
X226277000Y-130728900D02*
X228611900Y-133063800D01*
X228611900Y-133063800D02*
X228899100Y-133063800D01*
X228899100Y-133063800D02*
X235902000Y-140066700D01*
X235902000Y-140066700D02*
X235902000Y-144399800D01*
X235902000Y-144399800D02*
X240037100Y-148534900D01*
X216753000Y-108956900D02*
X216753000Y-107803700D01*
%TO.N,/col9*%
X245327000Y-128429000D02*
X245327000Y-130004300D01*
X237172000Y-157639000D02*
X240981900Y-153829100D01*
X240981900Y-153829100D02*
X240981900Y-134349400D01*
X240981900Y-134349400D02*
X245327000Y-130004300D01*
X245327000Y-128429000D02*
X245327000Y-126853700D01*
X235803000Y-109379000D02*
X235803000Y-117329700D01*
X235803000Y-117329700D02*
X245327000Y-126853700D01*
X231041000Y-90328800D02*
X231041000Y-92626900D01*
X231041000Y-92626900D02*
X234000500Y-95586400D01*
X234000500Y-95586400D02*
X234253900Y-95586400D01*
X234253900Y-95586400D02*
X235803000Y-97135500D01*
X235803000Y-97135500D02*
X235803000Y-109379000D01*
X231041000Y-90328800D02*
X231041000Y-88753500D01*
X231041000Y-88753500D02*
X240565000Y-79229500D01*
X240565000Y-79229500D02*
X240565000Y-71278800D01*
%TO.N,/col10*%
X250091000Y-90328800D02*
X250091000Y-88753500D01*
X250091000Y-88753500D02*
X259615000Y-79229500D01*
X259615000Y-79229500D02*
X259615000Y-71278800D01*
X254853000Y-107803700D02*
X250091000Y-103041700D01*
X250091000Y-103041700D02*
X250091000Y-90328800D01*
X246834300Y-148680600D02*
X259195100Y-148680600D01*
X259195100Y-148680600D02*
X260396700Y-147479000D01*
X254853000Y-109379000D02*
X254853000Y-111677100D01*
X254853000Y-111677100D02*
X257812500Y-114636600D01*
X257812500Y-114636600D02*
X258065900Y-114636600D01*
X258065900Y-114636600D02*
X259163400Y-115734100D01*
X259163400Y-115734100D02*
X259163400Y-118869800D01*
X259163400Y-118869800D02*
X253113100Y-124920100D01*
X253113100Y-124920100D02*
X253113100Y-128287700D01*
X253113100Y-128287700D02*
X254748000Y-129922600D01*
X254748000Y-129922600D02*
X254748000Y-133079900D01*
X254748000Y-133079900D02*
X246126900Y-141701000D01*
X246126900Y-141701000D02*
X246126900Y-147973200D01*
X246126900Y-147973200D02*
X246834300Y-148680600D01*
X239712000Y-157639000D02*
X239712000Y-155802900D01*
X239712000Y-155802900D02*
X246834300Y-148680600D01*
X261997000Y-147479000D02*
X260396700Y-147479000D01*
X254853000Y-108956900D02*
X254853000Y-109379000D01*
X254853000Y-108956900D02*
X254853000Y-107803700D01*
X261997000Y-147479000D02*
X261997000Y-145903700D01*
X261997000Y-145903700D02*
X264377000Y-143523700D01*
X264377000Y-143523700D02*
X264377000Y-128429000D01*
%TO.N,/col11*%
X269141000Y-90328800D02*
X269141000Y-88753500D01*
X269141000Y-88753500D02*
X278665000Y-79229500D01*
X278665000Y-79229500D02*
X278665000Y-71278800D01*
X273903000Y-107803700D02*
X269141000Y-103041700D01*
X269141000Y-103041700D02*
X269141000Y-90328800D01*
X283427000Y-143106400D02*
X283427000Y-128429000D01*
X285809000Y-145903700D02*
X283427000Y-143521700D01*
X283427000Y-143521700D02*
X283427000Y-143106400D01*
X283427000Y-143106400D02*
X269204600Y-143106400D01*
X269204600Y-143106400D02*
X267372000Y-144939000D01*
X273903000Y-110954300D02*
X273903000Y-115221000D01*
X273903000Y-115221000D02*
X259200300Y-129923700D01*
X259200300Y-129923700D02*
X259200300Y-133847600D01*
X259200300Y-133847600D02*
X258750000Y-134297900D01*
X258750000Y-134297900D02*
X258750000Y-134934800D01*
X258750000Y-134934800D02*
X248745800Y-144939000D01*
X248745800Y-144939000D02*
X247332000Y-144939000D01*
X273903000Y-109379000D02*
X273903000Y-110954300D01*
X273903000Y-109379000D02*
X273903000Y-107803700D01*
X285809000Y-147479000D02*
X285809000Y-145903700D01*
%TO.N,/col12*%
X286466700Y-101317300D02*
X279769300Y-108014700D01*
X279769300Y-108014700D02*
X279769300Y-109369300D01*
X279769300Y-109369300D02*
X278373200Y-110765400D01*
X278373200Y-110765400D02*
X278373200Y-111204400D01*
X278373200Y-111204400D02*
X277652600Y-111925000D01*
X277652600Y-111925000D02*
X277652600Y-112103100D01*
X277652600Y-112103100D02*
X276078600Y-113677100D01*
X276078600Y-113677100D02*
X276078600Y-113682300D01*
X276078600Y-113682300D02*
X262375800Y-127385100D01*
X262375800Y-127385100D02*
X262375800Y-128022000D01*
X262375800Y-128022000D02*
X261651000Y-128746800D01*
X261651000Y-128746800D02*
X261651000Y-132220400D01*
X261651000Y-132220400D02*
X259425400Y-134446000D01*
X259425400Y-134446000D02*
X259425400Y-135385600D01*
X259425400Y-135385600D02*
X247332000Y-147479000D01*
X288191000Y-90328800D02*
X288191000Y-99593000D01*
X288191000Y-99593000D02*
X286466700Y-101317300D01*
X288191000Y-90328800D02*
X288191000Y-88753500D01*
X288191000Y-88753500D02*
X297715000Y-79229500D01*
X297715000Y-79229500D02*
X297715000Y-71278800D01*
X286466700Y-101317300D02*
X292953000Y-107803700D01*
X292953000Y-109379000D02*
X292953000Y-107803700D01*
%TO.N,/col14*%
X333707100Y-141123300D02*
X333707100Y-145629600D01*
X333707100Y-145629600D02*
X333433000Y-145903700D01*
X331053000Y-90328800D02*
X331053000Y-108481200D01*
X331053000Y-108481200D02*
X333707100Y-111135300D01*
X333707100Y-111135300D02*
X333707100Y-141123300D01*
X331053000Y-90328800D02*
X331053000Y-88753500D01*
X331053000Y-88753500D02*
X326291000Y-83991500D01*
X326291000Y-83991500D02*
X326291000Y-71278800D01*
X333433000Y-147479000D02*
X333433000Y-145903700D01*
%TO.N,/col0*%
X72317100Y-144951000D02*
X72317100Y-114895900D01*
X72317100Y-114895900D02*
X76258700Y-110954300D01*
X71496300Y-145903700D02*
X71496300Y-145771800D01*
X71496300Y-145771800D02*
X72317100Y-144951000D01*
X71496300Y-147479000D02*
X71496300Y-145903700D01*
X73877500Y-90328800D02*
X73877500Y-88753500D01*
X73877500Y-88753500D02*
X72493300Y-87369300D01*
X72493300Y-87369300D02*
X72493300Y-72788200D01*
X72493300Y-72788200D02*
X78818700Y-66462800D01*
X76258700Y-107803700D02*
X73877500Y-105422500D01*
X73877500Y-105422500D02*
X73877500Y-90328800D01*
X76258700Y-109379000D02*
X76258700Y-107803700D01*
X76258700Y-109379000D02*
X76258700Y-110954300D01*
%TO.N,/col13*%
X309621000Y-147479000D02*
X309621000Y-149054300D01*
X309621000Y-149054300D02*
X299824800Y-158850500D01*
X299824800Y-158850500D02*
X236682000Y-158850500D01*
X236682000Y-158850500D02*
X235902100Y-158070600D01*
X235902100Y-158070600D02*
X235902100Y-148749100D01*
X235902100Y-148749100D02*
X229552000Y-142399000D01*
X319147000Y-130004300D02*
X309621000Y-139530300D01*
X309621000Y-139530300D02*
X309621000Y-147479000D01*
X319147000Y-128429000D02*
X319147000Y-130004300D01*
X319147000Y-128429000D02*
X319147000Y-115716300D01*
X319147000Y-115716300D02*
X323909000Y-110954300D01*
X323909000Y-109379000D02*
X323909000Y-107803700D01*
X307241000Y-90328800D02*
X307241000Y-92626900D01*
X307241000Y-92626900D02*
X310200500Y-95586400D01*
X310200500Y-95586400D02*
X311691700Y-95586400D01*
X311691700Y-95586400D02*
X323909000Y-107803700D01*
X323909000Y-109379000D02*
X323909000Y-110954300D01*
%TD*%
M02*
