%TF.GenerationSoftware,KiCad,Pcbnew,(5.1.9)-1*%
%TF.CreationDate,2021-02-15T21:30:30-05:00*%
%TF.ProjectId,60percent - Copy,36307065-7263-4656-9e74-202d20436f70,rev?*%
%TF.SameCoordinates,Original*%
%TF.FileFunction,Soldermask,Bot*%
%TF.FilePolarity,Negative*%
%FSLAX46Y46*%
G04 Gerber Fmt 4.6, Leading zero omitted, Abs format (unit mm)*
G04 Created by KiCad (PCBNEW (5.1.9)-1) date 2021-02-15 21:30:30*
%MOMM*%
%LPD*%
G01*
G04 APERTURE LIST*
%ADD10R,1.600000X1.600000*%
%ADD11C,1.600000*%
%ADD12R,2.550000X2.500000*%
%ADD13C,1.750000*%
%ADD14C,4.000000*%
%ADD15C,3.000000*%
%ADD16C,2.000000*%
%ADD17R,2.000000X3.200000*%
%ADD18R,2.000000X2.000000*%
%ADD19R,1.752600X1.752600*%
%ADD20C,1.752600*%
G04 APERTURE END LIST*
D10*
%TO.C,D1*%
X85725000Y-82480800D03*
D11*
X85725000Y-74680800D03*
%TD*%
D10*
%TO.C,D2*%
X91350000Y-78580800D03*
D11*
X99150000Y-78580800D03*
%TD*%
D10*
%TO.C,D3*%
X110400000Y-78580800D03*
D11*
X118200000Y-78580800D03*
%TD*%
%TO.C,D4*%
X137250000Y-78580800D03*
D10*
X129450000Y-78580800D03*
%TD*%
%TO.C,D5*%
X148500000Y-78580800D03*
D11*
X156300000Y-78580800D03*
%TD*%
D10*
%TO.C,D6*%
X167550000Y-78580800D03*
D11*
X175350000Y-78580800D03*
%TD*%
%TO.C,D7*%
X194400000Y-78580800D03*
D10*
X186600000Y-78580800D03*
%TD*%
%TO.C,D8*%
X205650000Y-78580800D03*
D11*
X213450000Y-78580800D03*
%TD*%
D10*
%TO.C,D9*%
X224700000Y-78580800D03*
D11*
X232500000Y-78580800D03*
%TD*%
%TO.C,D10*%
X251550000Y-78580800D03*
D10*
X243750000Y-78580800D03*
%TD*%
D11*
%TO.C,D11*%
X270600000Y-78580800D03*
D10*
X262800000Y-78580800D03*
%TD*%
%TO.C,D12*%
X281850000Y-78580800D03*
D11*
X289650000Y-78580800D03*
%TD*%
%TO.C,D13*%
X308700000Y-78580800D03*
D10*
X300900000Y-78580800D03*
%TD*%
D11*
%TO.C,D14*%
X337276000Y-78580800D03*
D10*
X329476000Y-78580800D03*
%TD*%
D11*
%TO.C,D15*%
X84862500Y-97630800D03*
D10*
X77062500Y-97630800D03*
%TD*%
D11*
%TO.C,D16*%
X108675000Y-97630800D03*
D10*
X100875000Y-97630800D03*
%TD*%
%TO.C,D17*%
X119925000Y-97630800D03*
D11*
X127725000Y-97630800D03*
%TD*%
%TO.C,D18*%
X146775000Y-97630800D03*
D10*
X138975000Y-97630800D03*
%TD*%
D11*
%TO.C,D19*%
X165826000Y-97630800D03*
D10*
X158026000Y-97630800D03*
%TD*%
%TO.C,D20*%
X177076000Y-97630800D03*
D11*
X184876000Y-97630800D03*
%TD*%
D10*
%TO.C,D21*%
X196126000Y-97630800D03*
D11*
X203926000Y-97630800D03*
%TD*%
D10*
%TO.C,D22*%
X215176000Y-97630800D03*
D11*
X222976000Y-97630800D03*
%TD*%
%TO.C,D23*%
X242026000Y-97630800D03*
D10*
X234226000Y-97630800D03*
%TD*%
%TO.C,D24*%
X253276000Y-97630800D03*
D11*
X261076000Y-97630800D03*
%TD*%
%TO.C,D25*%
X280126000Y-97630800D03*
D10*
X272326000Y-97630800D03*
%TD*%
%TO.C,D26*%
X291376000Y-97630800D03*
D11*
X299176000Y-97630800D03*
%TD*%
%TO.C,D27*%
X318226000Y-97630800D03*
D10*
X310426000Y-97630800D03*
%TD*%
%TO.C,D28*%
X334238000Y-97630800D03*
D11*
X342038000Y-97630800D03*
%TD*%
D10*
%TO.C,D29*%
X79443700Y-116681000D03*
D11*
X87243700Y-116681000D03*
%TD*%
D10*
%TO.C,D30*%
X105638000Y-116681000D03*
D11*
X113438000Y-116681000D03*
%TD*%
D10*
%TO.C,D31*%
X124688000Y-116681000D03*
D11*
X132488000Y-116681000D03*
%TD*%
%TO.C,D32*%
X151538000Y-116681000D03*
D10*
X143738000Y-116681000D03*
%TD*%
%TO.C,D33*%
X162788000Y-116681000D03*
D11*
X170588000Y-116681000D03*
%TD*%
%TO.C,D34*%
X189638000Y-116681000D03*
D10*
X181838000Y-116681000D03*
%TD*%
%TO.C,D35*%
X200888000Y-116681000D03*
D11*
X208688000Y-116681000D03*
%TD*%
%TO.C,D36*%
X227738000Y-116681000D03*
D10*
X219938000Y-116681000D03*
%TD*%
%TO.C,D37*%
X238988000Y-116681000D03*
D11*
X246788000Y-116681000D03*
%TD*%
%TO.C,D38*%
X265838000Y-116681000D03*
D10*
X258038000Y-116681000D03*
%TD*%
%TO.C,D39*%
X277204000Y-116681000D03*
D11*
X285004000Y-116681000D03*
%TD*%
%TO.C,D40*%
X303938000Y-116681000D03*
D10*
X296138000Y-116681000D03*
%TD*%
D11*
%TO.C,D41*%
X334894000Y-116681000D03*
D10*
X327094000Y-116681000D03*
%TD*%
D11*
%TO.C,D42*%
X92006300Y-135731000D03*
D10*
X84206300Y-135731000D03*
%TD*%
%TO.C,D43*%
X115162000Y-135731000D03*
D11*
X122962000Y-135731000D03*
%TD*%
%TO.C,D44*%
X142012000Y-135731000D03*
D10*
X134212000Y-135731000D03*
%TD*%
%TO.C,D45*%
X153262000Y-135731000D03*
D11*
X161062000Y-135731000D03*
%TD*%
%TO.C,D46*%
X180112000Y-135731000D03*
D10*
X172312000Y-135731000D03*
%TD*%
%TO.C,D47*%
X191362000Y-135731000D03*
D11*
X199162000Y-135731000D03*
%TD*%
%TO.C,D48*%
X218212000Y-135731000D03*
D10*
X210412000Y-135731000D03*
%TD*%
%TO.C,D49*%
X229462000Y-135731000D03*
D11*
X237262000Y-135731000D03*
%TD*%
%TO.C,D50*%
X256312000Y-135731000D03*
D10*
X248512000Y-135731000D03*
%TD*%
D11*
%TO.C,D51*%
X275362000Y-135731000D03*
D10*
X267562000Y-135731000D03*
%TD*%
D11*
%TO.C,D52*%
X294412000Y-135731000D03*
D10*
X286612000Y-135731000D03*
%TD*%
%TO.C,D53*%
X322332000Y-135731000D03*
D11*
X330132000Y-135731000D03*
%TD*%
%TO.C,D54*%
X82481300Y-154781000D03*
D10*
X74681300Y-154781000D03*
%TD*%
%TO.C,D55*%
X98494000Y-154781000D03*
D11*
X106294000Y-154781000D03*
%TD*%
%TO.C,D56*%
X130106000Y-154781000D03*
D10*
X122306000Y-154781000D03*
%TD*%
%TO.C,D57*%
X193744000Y-154781000D03*
D11*
X201544000Y-154781000D03*
%TD*%
%TO.C,D58*%
X272982000Y-154781000D03*
D10*
X265182000Y-154781000D03*
%TD*%
%TO.C,D59*%
X288994000Y-154781000D03*
D11*
X296794000Y-154781000D03*
%TD*%
%TO.C,D60*%
X320606000Y-154781000D03*
D10*
X312806000Y-154781000D03*
%TD*%
%TO.C,D61*%
X336618000Y-154781000D03*
D11*
X344418000Y-154781000D03*
%TD*%
D12*
%TO.C,K1*%
X101092000Y-68738800D03*
X88165000Y-71278800D03*
D13*
X100330000Y-73818800D03*
X90170000Y-73818800D03*
D14*
X95250000Y-73818800D03*
D15*
X97790000Y-68738800D03*
X91440000Y-71278800D03*
%TD*%
%TO.C,K2*%
X110490000Y-71278800D03*
X116840000Y-68738800D03*
D14*
X114300000Y-73818800D03*
D13*
X109220000Y-73818800D03*
X119380000Y-73818800D03*
D12*
X107215000Y-71278800D03*
X120142000Y-68738800D03*
%TD*%
D15*
%TO.C,K3*%
X129540000Y-71278800D03*
X135890000Y-68738800D03*
D14*
X133350000Y-73818800D03*
D13*
X128270000Y-73818800D03*
X138430000Y-73818800D03*
D12*
X126265000Y-71278800D03*
X139192000Y-68738800D03*
%TD*%
%TO.C,K4*%
X158242000Y-68738800D03*
X145315000Y-71278800D03*
D13*
X157480000Y-73818800D03*
X147320000Y-73818800D03*
D14*
X152400000Y-73818800D03*
D15*
X154940000Y-68738800D03*
X148590000Y-71278800D03*
%TD*%
%TO.C,K5*%
X167640000Y-71278800D03*
X173990000Y-68738800D03*
D14*
X171450000Y-73818800D03*
D13*
X166370000Y-73818800D03*
X176530000Y-73818800D03*
D12*
X164365000Y-71278800D03*
X177292000Y-68738800D03*
%TD*%
%TO.C,K6*%
X196342000Y-68738800D03*
X183415000Y-71278800D03*
D13*
X195580000Y-73818800D03*
X185420000Y-73818800D03*
D14*
X190500000Y-73818800D03*
D15*
X193040000Y-68738800D03*
X186690000Y-71278800D03*
%TD*%
D12*
%TO.C,K7*%
X215392000Y-68738800D03*
X202465000Y-71278800D03*
D13*
X214630000Y-73818800D03*
X204470000Y-73818800D03*
D14*
X209550000Y-73818800D03*
D15*
X212090000Y-68738800D03*
X205740000Y-71278800D03*
%TD*%
D12*
%TO.C,K8*%
X234442000Y-68738800D03*
X221515000Y-71278800D03*
D13*
X233680000Y-73818800D03*
X223520000Y-73818800D03*
D14*
X228600000Y-73818800D03*
D15*
X231140000Y-68738800D03*
X224790000Y-71278800D03*
%TD*%
%TO.C,K9*%
X243840000Y-71278800D03*
X250190000Y-68738800D03*
D14*
X247650000Y-73818800D03*
D13*
X242570000Y-73818800D03*
X252730000Y-73818800D03*
D12*
X240565000Y-71278800D03*
X253492000Y-68738800D03*
%TD*%
D15*
%TO.C,K10*%
X262890000Y-71278800D03*
X269240000Y-68738800D03*
D14*
X266700000Y-73818800D03*
D13*
X261620000Y-73818800D03*
X271780000Y-73818800D03*
D12*
X259615000Y-71278800D03*
X272542000Y-68738800D03*
%TD*%
%TO.C,K11*%
X291592000Y-68738800D03*
X278665000Y-71278800D03*
D13*
X290830000Y-73818800D03*
X280670000Y-73818800D03*
D14*
X285750000Y-73818800D03*
D15*
X288290000Y-68738800D03*
X281940000Y-71278800D03*
%TD*%
D12*
%TO.C,K12*%
X310642000Y-68738800D03*
X297715000Y-71278800D03*
D13*
X309880000Y-73818800D03*
X299720000Y-73818800D03*
D14*
X304800000Y-73818800D03*
D15*
X307340000Y-68738800D03*
X300990000Y-71278800D03*
%TD*%
%TO.C,K13*%
X329566000Y-71278800D03*
X335916000Y-68738800D03*
D14*
X333376000Y-73818800D03*
D13*
X328296000Y-73818800D03*
X338456000Y-73818800D03*
D12*
X326291000Y-71278800D03*
X339218000Y-68738800D03*
%TD*%
D15*
%TO.C,K14*%
X77152500Y-90328800D03*
X83502500Y-87788800D03*
D14*
X80962500Y-92868800D03*
D13*
X75882500Y-92868800D03*
X86042500Y-92868800D03*
D12*
X73877500Y-90328800D03*
X86804500Y-87788800D03*
%TD*%
%TO.C,K27*%
X343980000Y-87788800D03*
X331053000Y-90328800D03*
D13*
X343218000Y-92868800D03*
X333058000Y-92868800D03*
D14*
X338138000Y-92868800D03*
D15*
X340678000Y-87788800D03*
X334328000Y-90328800D03*
%TD*%
%TO.C,K28*%
X79533700Y-109379000D03*
X85883700Y-106839000D03*
D14*
X83343700Y-111919000D03*
D13*
X78263700Y-111919000D03*
X88423700Y-111919000D03*
D12*
X76258700Y-109379000D03*
X89185700Y-106839000D03*
%TD*%
D15*
%TO.C,K29*%
X105728000Y-109379000D03*
X112078000Y-106839000D03*
D14*
X109538000Y-111919000D03*
D13*
X104458000Y-111919000D03*
X114618000Y-111919000D03*
D12*
X102453000Y-109379000D03*
X115380000Y-106839000D03*
%TD*%
%TO.C,K30*%
X134430000Y-106839000D03*
X121503000Y-109379000D03*
D13*
X133668000Y-111919000D03*
X123508000Y-111919000D03*
D14*
X128588000Y-111919000D03*
D15*
X131128000Y-106839000D03*
X124778000Y-109379000D03*
%TD*%
D12*
%TO.C,K31*%
X153480000Y-106839000D03*
X140553000Y-109379000D03*
D13*
X152718000Y-111919000D03*
X142558000Y-111919000D03*
D14*
X147638000Y-111919000D03*
D15*
X150178000Y-106839000D03*
X143828000Y-109379000D03*
%TD*%
D12*
%TO.C,K32*%
X172370000Y-106839000D03*
X159443000Y-109379000D03*
D13*
X171608000Y-111919000D03*
X161448000Y-111919000D03*
D14*
X166528000Y-111919000D03*
D15*
X169068000Y-106839000D03*
X162718000Y-109379000D03*
%TD*%
%TO.C,K33*%
X181928000Y-109379000D03*
X188278000Y-106839000D03*
D14*
X185738000Y-111919000D03*
D13*
X180658000Y-111919000D03*
X190818000Y-111919000D03*
D12*
X178653000Y-109379000D03*
X191580000Y-106839000D03*
%TD*%
%TO.C,K34*%
X210630000Y-106839000D03*
X197703000Y-109379000D03*
D13*
X209868000Y-111919000D03*
X199708000Y-111919000D03*
D14*
X204788000Y-111919000D03*
D15*
X207328000Y-106839000D03*
X200978000Y-109379000D03*
%TD*%
D12*
%TO.C,K35*%
X229680000Y-106839000D03*
X216753000Y-109379000D03*
D13*
X228918000Y-111919000D03*
X218758000Y-111919000D03*
D14*
X223838000Y-111919000D03*
D15*
X226378000Y-106839000D03*
X220028000Y-109379000D03*
%TD*%
%TO.C,K36*%
X239078000Y-109379000D03*
X245428000Y-106839000D03*
D14*
X242888000Y-111919000D03*
D13*
X237808000Y-111919000D03*
X247968000Y-111919000D03*
D12*
X235803000Y-109379000D03*
X248730000Y-106839000D03*
%TD*%
D15*
%TO.C,K37*%
X258128000Y-109379000D03*
X264478000Y-106839000D03*
D14*
X261938000Y-111919000D03*
D13*
X256858000Y-111919000D03*
X267018000Y-111919000D03*
D12*
X254853000Y-109379000D03*
X267780000Y-106839000D03*
%TD*%
D15*
%TO.C,K38*%
X277178000Y-109379000D03*
X283528000Y-106839000D03*
D14*
X280988000Y-111919000D03*
D13*
X275908000Y-111919000D03*
X286068000Y-111919000D03*
D12*
X273903000Y-109379000D03*
X286830000Y-106839000D03*
%TD*%
D15*
%TO.C,K39*%
X296228000Y-109379000D03*
X302578000Y-106839000D03*
D14*
X300038000Y-111919000D03*
D13*
X294958000Y-111919000D03*
X305118000Y-111919000D03*
D12*
X292953000Y-109379000D03*
X305880000Y-106839000D03*
%TD*%
D15*
%TO.C,K40*%
X327184000Y-109379000D03*
X333534000Y-106839000D03*
D14*
X330994000Y-111919000D03*
D13*
X325914000Y-111919000D03*
X336074000Y-111919000D03*
D12*
X323909000Y-109379000D03*
X336836000Y-106839000D03*
%TD*%
%TO.C,K41*%
X93948300Y-125889000D03*
X81021300Y-128429000D03*
D13*
X93186300Y-130969000D03*
X83026300Y-130969000D03*
D14*
X88106300Y-130969000D03*
D15*
X90646300Y-125889000D03*
X84296300Y-128429000D03*
%TD*%
%TO.C,K42*%
X115194000Y-128429000D03*
X121544000Y-125889000D03*
D14*
X119004000Y-130969000D03*
D13*
X113924000Y-130969000D03*
X124084000Y-130969000D03*
D12*
X111919000Y-128429000D03*
X124846000Y-125889000D03*
%TD*%
D15*
%TO.C,K43*%
X134302000Y-128429000D03*
X140652000Y-125889000D03*
D14*
X138112000Y-130969000D03*
D13*
X133032000Y-130969000D03*
X143192000Y-130969000D03*
D12*
X131027000Y-128429000D03*
X143954000Y-125889000D03*
%TD*%
D15*
%TO.C,K44*%
X153352000Y-128429000D03*
X159702000Y-125889000D03*
D14*
X157162000Y-130969000D03*
D13*
X152082000Y-130969000D03*
X162242000Y-130969000D03*
D12*
X150077000Y-128429000D03*
X163004000Y-125889000D03*
%TD*%
%TO.C,K45*%
X182054000Y-125889000D03*
X169127000Y-128429000D03*
D13*
X181292000Y-130969000D03*
X171132000Y-130969000D03*
D14*
X176212000Y-130969000D03*
D15*
X178752000Y-125889000D03*
X172402000Y-128429000D03*
%TD*%
D12*
%TO.C,K46*%
X201104000Y-125889000D03*
X188177000Y-128429000D03*
D13*
X200342000Y-130969000D03*
X190182000Y-130969000D03*
D14*
X195262000Y-130969000D03*
D15*
X197802000Y-125889000D03*
X191452000Y-128429000D03*
%TD*%
D12*
%TO.C,K47*%
X220154000Y-125889000D03*
X207227000Y-128429000D03*
D13*
X219392000Y-130969000D03*
X209232000Y-130969000D03*
D14*
X214312000Y-130969000D03*
D15*
X216852000Y-125889000D03*
X210502000Y-128429000D03*
%TD*%
D12*
%TO.C,K48*%
X239204000Y-125889000D03*
X226277000Y-128429000D03*
D13*
X238442000Y-130969000D03*
X228282000Y-130969000D03*
D14*
X233362000Y-130969000D03*
D15*
X235902000Y-125889000D03*
X229552000Y-128429000D03*
%TD*%
%TO.C,K49*%
X248602000Y-128429000D03*
X254952000Y-125889000D03*
D14*
X252412000Y-130969000D03*
D13*
X247332000Y-130969000D03*
X257492000Y-130969000D03*
D12*
X245327000Y-128429000D03*
X258254000Y-125889000D03*
%TD*%
D15*
%TO.C,K50*%
X267652000Y-128429000D03*
X274002000Y-125889000D03*
D14*
X271462000Y-130969000D03*
D13*
X266382000Y-130969000D03*
X276542000Y-130969000D03*
D12*
X264377000Y-128429000D03*
X277304000Y-125889000D03*
%TD*%
D15*
%TO.C,K51*%
X286702000Y-128429000D03*
X293052000Y-125889000D03*
D14*
X290512000Y-130969000D03*
D13*
X285432000Y-130969000D03*
X295592000Y-130969000D03*
D12*
X283427000Y-128429000D03*
X296354000Y-125889000D03*
%TD*%
D15*
%TO.C,K52*%
X322422000Y-128429000D03*
X328772000Y-125889000D03*
D14*
X326232000Y-130969000D03*
D13*
X321152000Y-130969000D03*
X331312000Y-130969000D03*
D12*
X319147000Y-128429000D03*
X332074000Y-125889000D03*
%TD*%
%TO.C,K53*%
X84423300Y-144939000D03*
X71496300Y-147479000D03*
D13*
X83661300Y-150019000D03*
X73501300Y-150019000D03*
D14*
X78581300Y-150019000D03*
D15*
X81121300Y-144939000D03*
X74771300Y-147479000D03*
%TD*%
%TO.C,K54*%
X98584000Y-147479000D03*
X104934000Y-144939000D03*
D14*
X102394000Y-150019000D03*
D13*
X97314000Y-150019000D03*
X107474000Y-150019000D03*
D12*
X95309000Y-147479000D03*
X108236000Y-144939000D03*
%TD*%
D15*
%TO.C,K55*%
X122396000Y-147479000D03*
X128746000Y-144939000D03*
D14*
X126206000Y-150019000D03*
D13*
X121126000Y-150019000D03*
X131286000Y-150019000D03*
D12*
X119121000Y-147479000D03*
X132048000Y-144939000D03*
%TD*%
D15*
%TO.C,K56*%
X193834000Y-147479000D03*
X200184000Y-144939000D03*
D14*
X197644000Y-150019000D03*
D13*
X192564000Y-150019000D03*
X202724000Y-150019000D03*
D12*
X190559000Y-147479000D03*
X203486000Y-144939000D03*
%TD*%
D15*
%TO.C,K57*%
X265272000Y-147479000D03*
X271622000Y-144939000D03*
D14*
X269082000Y-150019000D03*
D13*
X264002000Y-150019000D03*
X274162000Y-150019000D03*
D12*
X261997000Y-147479000D03*
X274924000Y-144939000D03*
%TD*%
%TO.C,K58*%
X298736000Y-144939000D03*
X285809000Y-147479000D03*
D13*
X297974000Y-150019000D03*
X287814000Y-150019000D03*
D14*
X292894000Y-150019000D03*
D15*
X295434000Y-144939000D03*
X289084000Y-147479000D03*
%TD*%
%TO.C,K59*%
X312896000Y-147479000D03*
X319246000Y-144939000D03*
D14*
X316706000Y-150019000D03*
D13*
X311626000Y-150019000D03*
X321786000Y-150019000D03*
D12*
X309621000Y-147479000D03*
X322548000Y-144939000D03*
%TD*%
%TO.C,K60*%
X346360000Y-144939000D03*
X333433000Y-147479000D03*
D13*
X345598000Y-150019000D03*
X335438000Y-150019000D03*
D14*
X340518000Y-150019000D03*
D15*
X343058000Y-144939000D03*
X336708000Y-147479000D03*
%TD*%
D16*
%TO.C,SW1*%
X78818700Y-66462800D03*
X73818700Y-66462800D03*
D17*
X81918700Y-73462800D03*
X70718700Y-73462800D03*
D16*
X78818700Y-80962800D03*
X76318700Y-80962800D03*
D18*
X73818700Y-80962800D03*
%TD*%
D19*
%TO.C,U1*%
X219392000Y-157639000D03*
D20*
X221932000Y-157639000D03*
X224472000Y-157639000D03*
X227012000Y-157639000D03*
X229552000Y-157639000D03*
X232092000Y-157639000D03*
X234632000Y-157639000D03*
X237172000Y-157639000D03*
X239712000Y-157639000D03*
X242252000Y-157639000D03*
X244792000Y-157639000D03*
X247332000Y-142399000D03*
X244792000Y-142399000D03*
X242252000Y-142399000D03*
X239712000Y-142399000D03*
X237172000Y-142399000D03*
X234632000Y-142399000D03*
X232092000Y-142399000D03*
X229552000Y-142399000D03*
X227012000Y-142399000D03*
X224472000Y-142399000D03*
X221932000Y-142399000D03*
X247332000Y-157410400D03*
X219392000Y-142399000D03*
X247332000Y-144939000D03*
X247332000Y-147479000D03*
X247332000Y-150019000D03*
X247332000Y-152559000D03*
X247332000Y-155099000D03*
%TD*%
D12*
%TO.C,K15*%
X110617000Y-87788800D03*
X97690000Y-90328800D03*
D13*
X109855000Y-92868800D03*
X99695000Y-92868800D03*
D14*
X104775000Y-92868800D03*
D15*
X107315000Y-87788800D03*
X100965000Y-90328800D03*
%TD*%
%TO.C,K16*%
X120015000Y-90328800D03*
X126365000Y-87788800D03*
D14*
X123825000Y-92868800D03*
D13*
X118745000Y-92868800D03*
X128905000Y-92868800D03*
D12*
X116740000Y-90328800D03*
X129667000Y-87788800D03*
%TD*%
%TO.C,K17*%
X148717000Y-87788800D03*
X135790000Y-90328800D03*
D13*
X147955000Y-92868800D03*
X137795000Y-92868800D03*
D14*
X142875000Y-92868800D03*
D15*
X145415000Y-87788800D03*
X139065000Y-90328800D03*
%TD*%
%TO.C,K18*%
X158116000Y-90328800D03*
X164466000Y-87788800D03*
D14*
X161926000Y-92868800D03*
D13*
X156846000Y-92868800D03*
X167006000Y-92868800D03*
D12*
X154841000Y-90328800D03*
X167768000Y-87788800D03*
%TD*%
D15*
%TO.C,K19*%
X177166000Y-90328800D03*
X183516000Y-87788800D03*
D14*
X180976000Y-92868800D03*
D13*
X175896000Y-92868800D03*
X186056000Y-92868800D03*
D12*
X173891000Y-90328800D03*
X186818000Y-87788800D03*
%TD*%
%TO.C,K20*%
X205868000Y-87788800D03*
X192941000Y-90328800D03*
D13*
X205106000Y-92868800D03*
X194946000Y-92868800D03*
D14*
X200026000Y-92868800D03*
D15*
X202566000Y-87788800D03*
X196216000Y-90328800D03*
%TD*%
D12*
%TO.C,K21*%
X224918000Y-87788800D03*
X211991000Y-90328800D03*
D13*
X224156000Y-92868800D03*
X213996000Y-92868800D03*
D14*
X219076000Y-92868800D03*
D15*
X221616000Y-87788800D03*
X215266000Y-90328800D03*
%TD*%
%TO.C,K22*%
X234316000Y-90328800D03*
X240666000Y-87788800D03*
D14*
X238126000Y-92868800D03*
D13*
X233046000Y-92868800D03*
X243206000Y-92868800D03*
D12*
X231041000Y-90328800D03*
X243968000Y-87788800D03*
%TD*%
D15*
%TO.C,K23*%
X253366000Y-90328800D03*
X259716000Y-87788800D03*
D14*
X257176000Y-92868800D03*
D13*
X252096000Y-92868800D03*
X262256000Y-92868800D03*
D12*
X250091000Y-90328800D03*
X263018000Y-87788800D03*
%TD*%
D15*
%TO.C,K24*%
X272416000Y-90328800D03*
X278766000Y-87788800D03*
D14*
X276226000Y-92868800D03*
D13*
X271146000Y-92868800D03*
X281306000Y-92868800D03*
D12*
X269141000Y-90328800D03*
X282068000Y-87788800D03*
%TD*%
%TO.C,K25*%
X301118000Y-87788800D03*
X288191000Y-90328800D03*
D13*
X300356000Y-92868800D03*
X290196000Y-92868800D03*
D14*
X295276000Y-92868800D03*
D15*
X297816000Y-87788800D03*
X291466000Y-90328800D03*
%TD*%
D12*
%TO.C,K26*%
X320168000Y-87788800D03*
X307241000Y-90328800D03*
D13*
X319406000Y-92868800D03*
X309246000Y-92868800D03*
D14*
X314326000Y-92868800D03*
D15*
X316866000Y-87788800D03*
X310516000Y-90328800D03*
%TD*%
M02*
