%TF.GenerationSoftware,KiCad,Pcbnew,(5.1.9)-1*%
%TF.CreationDate,2021-02-15T21:30:29-05:00*%
%TF.ProjectId,60percent - Copy,36307065-7263-4656-9e74-202d20436f70,rev?*%
%TF.SameCoordinates,Original*%
%TF.FileFunction,Paste,Top*%
%TF.FilePolarity,Positive*%
%FSLAX46Y46*%
G04 Gerber Fmt 4.6, Leading zero omitted, Abs format (unit mm)*
G04 Created by KiCad (PCBNEW (5.1.9)-1) date 2021-02-15 21:30:29*
%MOMM*%
%LPD*%
G01*
G04 APERTURE LIST*
%ADD10R,1.200000X1.200000*%
G04 APERTURE END LIST*
D10*
%TO.C,D1*%
X85725000Y-77005800D03*
X85725000Y-80155800D03*
%TD*%
%TO.C,D2*%
X96825000Y-78580800D03*
X93675000Y-78580800D03*
%TD*%
%TO.C,D3*%
X115875000Y-78580800D03*
X112725000Y-78580800D03*
%TD*%
%TO.C,D4*%
X131775000Y-78580800D03*
X134925000Y-78580800D03*
%TD*%
%TO.C,D5*%
X153975000Y-78580800D03*
X150825000Y-78580800D03*
%TD*%
%TO.C,D6*%
X173025000Y-78580800D03*
X169875000Y-78580800D03*
%TD*%
%TO.C,D7*%
X188925000Y-78580800D03*
X192075000Y-78580800D03*
%TD*%
%TO.C,D8*%
X211125000Y-78580800D03*
X207975000Y-78580800D03*
%TD*%
%TO.C,D9*%
X230175000Y-78580800D03*
X227025000Y-78580800D03*
%TD*%
%TO.C,D10*%
X246075000Y-78580800D03*
X249225000Y-78580800D03*
%TD*%
%TO.C,D11*%
X265125000Y-78580800D03*
X268275000Y-78580800D03*
%TD*%
%TO.C,D12*%
X287325000Y-78580800D03*
X284175000Y-78580800D03*
%TD*%
%TO.C,D13*%
X303225000Y-78580800D03*
X306375000Y-78580800D03*
%TD*%
%TO.C,D14*%
X331801000Y-78580800D03*
X334951000Y-78580800D03*
%TD*%
%TO.C,D15*%
X79387500Y-97630800D03*
X82537500Y-97630800D03*
%TD*%
%TO.C,D16*%
X103200000Y-97630800D03*
X106350000Y-97630800D03*
%TD*%
%TO.C,D17*%
X125400000Y-97630800D03*
X122250000Y-97630800D03*
%TD*%
%TO.C,D18*%
X141300000Y-97630800D03*
X144450000Y-97630800D03*
%TD*%
%TO.C,D19*%
X160351000Y-97630800D03*
X163501000Y-97630800D03*
%TD*%
%TO.C,D20*%
X182551000Y-97630800D03*
X179401000Y-97630800D03*
%TD*%
%TO.C,D21*%
X201601000Y-97630800D03*
X198451000Y-97630800D03*
%TD*%
%TO.C,D22*%
X220651000Y-97630800D03*
X217501000Y-97630800D03*
%TD*%
%TO.C,D23*%
X236551000Y-97630800D03*
X239701000Y-97630800D03*
%TD*%
%TO.C,D24*%
X258751000Y-97630800D03*
X255601000Y-97630800D03*
%TD*%
%TO.C,D25*%
X274651000Y-97630800D03*
X277801000Y-97630800D03*
%TD*%
%TO.C,D26*%
X296851000Y-97630800D03*
X293701000Y-97630800D03*
%TD*%
%TO.C,D27*%
X312751000Y-97630800D03*
X315901000Y-97630800D03*
%TD*%
%TO.C,D28*%
X339713000Y-97630800D03*
X336563000Y-97630800D03*
%TD*%
%TO.C,D29*%
X84918700Y-116681000D03*
X81768700Y-116681000D03*
%TD*%
%TO.C,D30*%
X111113000Y-116681000D03*
X107963000Y-116681000D03*
%TD*%
%TO.C,D31*%
X130163000Y-116681000D03*
X127013000Y-116681000D03*
%TD*%
%TO.C,D32*%
X146063000Y-116681000D03*
X149213000Y-116681000D03*
%TD*%
%TO.C,D33*%
X168263000Y-116681000D03*
X165113000Y-116681000D03*
%TD*%
%TO.C,D34*%
X184163000Y-116681000D03*
X187313000Y-116681000D03*
%TD*%
%TO.C,D35*%
X206363000Y-116681000D03*
X203213000Y-116681000D03*
%TD*%
%TO.C,D36*%
X222263000Y-116681000D03*
X225413000Y-116681000D03*
%TD*%
%TO.C,D37*%
X244463000Y-116681000D03*
X241313000Y-116681000D03*
%TD*%
%TO.C,D38*%
X260363000Y-116681000D03*
X263513000Y-116681000D03*
%TD*%
%TO.C,D39*%
X282679000Y-116681000D03*
X279529000Y-116681000D03*
%TD*%
%TO.C,D40*%
X298463000Y-116681000D03*
X301613000Y-116681000D03*
%TD*%
%TO.C,D41*%
X329419000Y-116681000D03*
X332569000Y-116681000D03*
%TD*%
%TO.C,D42*%
X86531300Y-135731000D03*
X89681300Y-135731000D03*
%TD*%
%TO.C,D43*%
X120637000Y-135731000D03*
X117487000Y-135731000D03*
%TD*%
%TO.C,D44*%
X136537000Y-135731000D03*
X139687000Y-135731000D03*
%TD*%
%TO.C,D45*%
X158737000Y-135731000D03*
X155587000Y-135731000D03*
%TD*%
%TO.C,D46*%
X174637000Y-135731000D03*
X177787000Y-135731000D03*
%TD*%
%TO.C,D47*%
X196837000Y-135731000D03*
X193687000Y-135731000D03*
%TD*%
%TO.C,D48*%
X212737000Y-135731000D03*
X215887000Y-135731000D03*
%TD*%
%TO.C,D49*%
X234937000Y-135731000D03*
X231787000Y-135731000D03*
%TD*%
%TO.C,D50*%
X250837000Y-135731000D03*
X253987000Y-135731000D03*
%TD*%
%TO.C,D51*%
X269887000Y-135731000D03*
X273037000Y-135731000D03*
%TD*%
%TO.C,D52*%
X288937000Y-135731000D03*
X292087000Y-135731000D03*
%TD*%
%TO.C,D53*%
X327807000Y-135731000D03*
X324657000Y-135731000D03*
%TD*%
%TO.C,D54*%
X77006300Y-154781000D03*
X80156300Y-154781000D03*
%TD*%
%TO.C,D55*%
X103969000Y-154781000D03*
X100819000Y-154781000D03*
%TD*%
%TO.C,D56*%
X124631000Y-154781000D03*
X127781000Y-154781000D03*
%TD*%
%TO.C,D57*%
X199219000Y-154781000D03*
X196069000Y-154781000D03*
%TD*%
%TO.C,D58*%
X267507000Y-154781000D03*
X270657000Y-154781000D03*
%TD*%
%TO.C,D59*%
X294469000Y-154781000D03*
X291319000Y-154781000D03*
%TD*%
%TO.C,D60*%
X315131000Y-154781000D03*
X318281000Y-154781000D03*
%TD*%
%TO.C,D61*%
X342093000Y-154781000D03*
X338943000Y-154781000D03*
%TD*%
M02*
