M48
; DRILL file {KiCad (5.1.9)-1} date 02/14/21 16:54:47
; FORMAT={-:-/ absolute / inch / decimal}
; #@! TF.CreationDate,2021-02-14T16:54:47-05:00
; #@! TF.GenerationSoftware,Kicad,Pcbnew,(5.1.9)-1
; #@! TF.FileFunction,Plated,1,2,PTH
FMAT,2
INCH
T1C0.0157
T2C0.0276
T3C0.0430
T4C0.0591
%
G90
G05
T1
X4.1305Y-5.8114
T2
X3.8777Y-5.3438
X3.8777Y-6.1875
X4.1848Y-5.3438
X4.1848Y-6.1875
X4.7215Y-5.3438
X4.7215Y-6.1875
X5.0285Y-5.3438
X5.0285Y-6.1875
T3
X5.4188Y-4.8875
X5.4188Y-4.9875
X5.4188Y-5.0875
X5.4188Y-5.1875
X5.4188Y-5.2875
X5.4188Y-5.3875
X5.4188Y-5.4875
X5.4188Y-5.5875
X5.4188Y-5.6875
X5.4188Y-5.7875
X5.4188Y-5.8875
X5.4277Y-5.9875
X5.5187Y-5.9875
X5.6187Y-5.9875
X5.7188Y-5.9875
X5.8187Y-5.9875
X5.9188Y-5.9875
X6.0187Y-4.8875
X6.0187Y-4.9875
X6.0187Y-5.0875
X6.0187Y-5.1875
X6.0187Y-5.2875
X6.0187Y-5.3875
X6.0187Y-5.4875
X6.0187Y-5.5875
X6.0187Y-5.6875
X6.0187Y-5.7875
X6.0187Y-5.8875
X6.0187Y-5.9875
T4
G00X3.9269Y-4.9803
M15
G01X3.8793Y-5.055
M16
G05
G00X3.9269Y-5.8241
M15
G01X3.8793Y-5.8988
M16
G05
G00X4.1312Y-4.9563
M15
G01X4.1297Y-4.9791
M16
G05
G00X4.1312Y-5.8
M15
G01X4.1297Y-5.8228
M16
G05
G00X4.7706Y-4.9803
M15
G01X4.7231Y-5.055
M16
G05
G00X4.7706Y-5.8241
M15
G01X4.7231Y-5.8988
M16
G05
G00X4.975Y-4.9563
M15
G01X4.9734Y-4.9791
M16
G05
G00X4.975Y-5.8
M15
G01X4.9734Y-5.8228
M16
G05
T0
M30
