%TF.GenerationSoftware,KiCad,Pcbnew,(5.1.9)-1*%
%TF.CreationDate,2021-02-14T16:54:30-05:00*%
%TF.ProjectId,keeb,6b656562-2e6b-4696-9361-645f70636258,rev?*%
%TF.SameCoordinates,Original*%
%TF.FileFunction,Copper,L2,Bot*%
%TF.FilePolarity,Positive*%
%FSLAX46Y46*%
G04 Gerber Fmt 4.6, Leading zero omitted, Abs format (unit mm)*
G04 Created by KiCad (PCBNEW (5.1.9)-1) date 2021-02-14 16:54:30*
%MOMM*%
%LPD*%
G01*
G04 APERTURE LIST*
%TA.AperFunction,ComponentPad*%
%ADD10C,1.600000*%
%TD*%
%TA.AperFunction,ComponentPad*%
%ADD11R,1.600000X1.600000*%
%TD*%
%TA.AperFunction,ComponentPad*%
%ADD12R,1.752600X1.752600*%
%TD*%
%TA.AperFunction,ComponentPad*%
%ADD13C,1.752600*%
%TD*%
%TA.AperFunction,ViaPad*%
%ADD14C,0.800000*%
%TD*%
%TA.AperFunction,Conductor*%
%ADD15C,0.250000*%
%TD*%
G04 APERTURE END LIST*
D10*
%TO.P,D1,2*%
%TO.N,Net-(D1-Pad2)*%
X106293750Y-135731250D03*
D11*
%TO.P,D1,1*%
%TO.N,Net-(D1-Pad1)*%
X98493750Y-135731250D03*
%TD*%
%TO.P,D2,1*%
%TO.N,Net-(D1-Pad1)*%
X119925000Y-135731250D03*
D10*
%TO.P,D2,2*%
%TO.N,Net-(D2-Pad2)*%
X127725000Y-135731250D03*
%TD*%
%TO.P,D3,2*%
%TO.N,Net-(D3-Pad2)*%
X106293750Y-157162500D03*
D11*
%TO.P,D3,1*%
%TO.N,Net-(D3-Pad1)*%
X98493750Y-157162500D03*
%TD*%
%TO.P,D4,1*%
%TO.N,Net-(D3-Pad1)*%
X119925000Y-157162500D03*
D10*
%TO.P,D4,2*%
%TO.N,Net-(D4-Pad2)*%
X127725000Y-157162500D03*
%TD*%
%TO.P,K1,2*%
%TO.N,Net-(D1-Pad2)*%
%TA.AperFunction,ComponentPad*%
G36*
G01*
X103646921Y-147814309D02*
X103686369Y-147235653D01*
G75*
G02*
X105018493Y-146073567I1247105J-85019D01*
G01*
X105018493Y-146073567D01*
G75*
G02*
X106180579Y-147405691I-85019J-1247105D01*
G01*
X106141131Y-147984347D01*
G75*
G02*
X104809007Y-149146433I-1247105J85019D01*
G01*
X104809007Y-149146433D01*
G75*
G02*
X103646921Y-147814309I85019J1247105D01*
G01*
G37*
%TD.AperFunction*%
%TO.P,K1,1*%
%TO.N,Net-(K1-Pad1)*%
%TA.AperFunction,ComponentPad*%
G36*
G01*
X97480049Y-149157190D02*
X98688973Y-147259560D01*
G75*
G02*
X100414837Y-146876946I1054239J-671625D01*
G01*
X100414837Y-146876946D01*
G75*
G02*
X100797451Y-148602810I-671625J-1054239D01*
G01*
X99588527Y-150500440D01*
G75*
G02*
X97862663Y-150883054I-1054239J671625D01*
G01*
X97862663Y-150883054D01*
G75*
G02*
X97480049Y-149157190I671625J1054239D01*
G01*
G37*
%TD.AperFunction*%
%TD*%
%TO.P,K2,1*%
%TO.N,Net-(K2-Pad1)*%
%TA.AperFunction,ComponentPad*%
G36*
G01*
X118911299Y-149157190D02*
X120120223Y-147259560D01*
G75*
G02*
X121846087Y-146876946I1054239J-671625D01*
G01*
X121846087Y-146876946D01*
G75*
G02*
X122228701Y-148602810I-671625J-1054239D01*
G01*
X121019777Y-150500440D01*
G75*
G02*
X119293913Y-150883054I-1054239J671625D01*
G01*
X119293913Y-150883054D01*
G75*
G02*
X118911299Y-149157190I671625J1054239D01*
G01*
G37*
%TD.AperFunction*%
%TO.P,K2,2*%
%TO.N,Net-(D2-Pad2)*%
%TA.AperFunction,ComponentPad*%
G36*
G01*
X125078171Y-147814309D02*
X125117619Y-147235653D01*
G75*
G02*
X126449743Y-146073567I1247105J-85019D01*
G01*
X126449743Y-146073567D01*
G75*
G02*
X127611829Y-147405691I-85019J-1247105D01*
G01*
X127572381Y-147984347D01*
G75*
G02*
X126240257Y-149146433I-1247105J85019D01*
G01*
X126240257Y-149146433D01*
G75*
G02*
X125078171Y-147814309I85019J1247105D01*
G01*
G37*
%TD.AperFunction*%
%TD*%
%TO.P,K3,2*%
%TO.N,Net-(D3-Pad2)*%
%TA.AperFunction,ComponentPad*%
G36*
G01*
X103646921Y-126383059D02*
X103686369Y-125804403D01*
G75*
G02*
X105018493Y-124642317I1247105J-85019D01*
G01*
X105018493Y-124642317D01*
G75*
G02*
X106180579Y-125974441I-85019J-1247105D01*
G01*
X106141131Y-126553097D01*
G75*
G02*
X104809007Y-127715183I-1247105J85019D01*
G01*
X104809007Y-127715183D01*
G75*
G02*
X103646921Y-126383059I85019J1247105D01*
G01*
G37*
%TD.AperFunction*%
%TO.P,K3,1*%
%TO.N,Net-(K1-Pad1)*%
%TA.AperFunction,ComponentPad*%
G36*
G01*
X97480049Y-127725940D02*
X98688973Y-125828310D01*
G75*
G02*
X100414837Y-125445696I1054239J-671625D01*
G01*
X100414837Y-125445696D01*
G75*
G02*
X100797451Y-127171560I-671625J-1054239D01*
G01*
X99588527Y-129069190D01*
G75*
G02*
X97862663Y-129451804I-1054239J671625D01*
G01*
X97862663Y-129451804D01*
G75*
G02*
X97480049Y-127725940I671625J1054239D01*
G01*
G37*
%TD.AperFunction*%
%TD*%
%TO.P,K4,1*%
%TO.N,Net-(K2-Pad1)*%
%TA.AperFunction,ComponentPad*%
G36*
G01*
X118911299Y-127725940D02*
X120120223Y-125828310D01*
G75*
G02*
X121846087Y-125445696I1054239J-671625D01*
G01*
X121846087Y-125445696D01*
G75*
G02*
X122228701Y-127171560I-671625J-1054239D01*
G01*
X121019777Y-129069190D01*
G75*
G02*
X119293913Y-129451804I-1054239J671625D01*
G01*
X119293913Y-129451804D01*
G75*
G02*
X118911299Y-127725940I671625J1054239D01*
G01*
G37*
%TD.AperFunction*%
%TO.P,K4,2*%
%TO.N,Net-(D4-Pad2)*%
%TA.AperFunction,ComponentPad*%
G36*
G01*
X125078171Y-126383059D02*
X125117619Y-125804403D01*
G75*
G02*
X126449743Y-124642317I1247105J-85019D01*
G01*
X126449743Y-124642317D01*
G75*
G02*
X127611829Y-125974441I-85019J-1247105D01*
G01*
X127572381Y-126553097D01*
G75*
G02*
X126240257Y-127715183I-1247105J85019D01*
G01*
X126240257Y-127715183D01*
G75*
G02*
X125078171Y-126383059I85019J1247105D01*
G01*
G37*
%TD.AperFunction*%
%TD*%
D12*
%TO.P,U1,1*%
%TO.N,Net-(U1-Pad1)*%
X137636250Y-124142500D03*
D13*
%TO.P,U1,2*%
%TO.N,Net-(U1-Pad2)*%
X137636250Y-126682500D03*
%TO.P,U1,3*%
%TO.N,GND*%
X137636250Y-129222500D03*
%TO.P,U1,4*%
%TO.N,Net-(U1-Pad4)*%
X137636250Y-131762500D03*
%TO.P,U1,5*%
%TO.N,Net-(U1-Pad5)*%
X137636250Y-134302500D03*
%TO.P,U1,6*%
%TO.N,Net-(U1-Pad6)*%
X137636250Y-136842500D03*
%TO.P,U1,7*%
%TO.N,Net-(U1-Pad7)*%
X137636250Y-139382500D03*
%TO.P,U1,8*%
%TO.N,Net-(U1-Pad8)*%
X137636250Y-141922500D03*
%TO.P,U1,9*%
%TO.N,Net-(U1-Pad9)*%
X137636250Y-144462500D03*
%TO.P,U1,10*%
%TO.N,Net-(U1-Pad10)*%
X137636250Y-147002500D03*
%TO.P,U1,11*%
%TO.N,Net-(U1-Pad11)*%
X137636250Y-149542500D03*
%TO.P,U1,13*%
%TO.N,Net-(U1-Pad13)*%
X152876250Y-152082500D03*
%TO.P,U1,14*%
%TO.N,Net-(U1-Pad14)*%
X152876250Y-149542500D03*
%TO.P,U1,15*%
%TO.N,Net-(U1-Pad15)*%
X152876250Y-147002500D03*
%TO.P,U1,16*%
%TO.N,Net-(U1-Pad16)*%
X152876250Y-144462500D03*
%TO.P,U1,17*%
%TO.N,Net-(K2-Pad1)*%
X152876250Y-141922500D03*
%TO.P,U1,18*%
%TO.N,Net-(K1-Pad1)*%
X152876250Y-139382500D03*
%TO.P,U1,19*%
%TO.N,Net-(D3-Pad1)*%
X152876250Y-136842500D03*
%TO.P,U1,20*%
%TO.N,Net-(D1-Pad1)*%
X152876250Y-134302500D03*
%TO.P,U1,21*%
%TO.N,Net-(U1-Pad21)*%
X152876250Y-131762500D03*
%TO.P,U1,22*%
%TO.N,Net-(U1-Pad22)*%
X152876250Y-129222500D03*
%TO.P,U1,23*%
%TO.N,Net-(U1-Pad23)*%
X152876250Y-126682500D03*
%TO.P,U1,12*%
%TO.N,Net-(U1-Pad12)*%
X137864850Y-152082500D03*
%TO.P,U1,24*%
%TO.N,Net-(U1-Pad24)*%
X152876250Y-124142500D03*
%TO.P,U1,29*%
%TO.N,Net-(U1-Pad29)*%
X150336250Y-152082500D03*
%TO.P,U1,28*%
%TO.N,Net-(U1-Pad28)*%
X147796250Y-152082500D03*
%TO.P,U1,27*%
%TO.N,Net-(U1-Pad27)*%
X145256250Y-152082500D03*
%TO.P,U1,26*%
%TO.N,Net-(U1-Pad26)*%
X142716250Y-152082500D03*
%TO.P,U1,25*%
%TO.N,Net-(U1-Pad25)*%
X140176250Y-152082500D03*
%TD*%
D14*
%TO.N,Net-(D1-Pad2)*%
X104913750Y-147610000D03*
%TD*%
D15*
%TO.N,Net-(D1-Pad2)*%
X104802500Y-147610000D02*
X104913750Y-147610000D01*
%TO.N,Net-(D1-Pad1)*%
X99618751Y-134606249D02*
X98493750Y-135731250D01*
X123619475Y-134606249D02*
X99618751Y-134606249D01*
X125124525Y-133101199D02*
X123619475Y-134606249D01*
X151674949Y-133101199D02*
X125124525Y-133101199D01*
X152876250Y-134302500D02*
X151674949Y-133101199D01*
X118799999Y-136856251D02*
X119925000Y-135731250D01*
X99618751Y-136856251D02*
X118799999Y-136856251D01*
X98493750Y-135731250D02*
X99618751Y-136856251D01*
%TD*%
M02*
