%TF.GenerationSoftware,KiCad,Pcbnew,(5.1.9)-1*%
%TF.CreationDate,2021-02-14T16:54:30-05:00*%
%TF.ProjectId,keeb,6b656562-2e6b-4696-9361-645f70636258,rev?*%
%TF.SameCoordinates,Original*%
%TF.FileFunction,Soldermask,Bot*%
%TF.FilePolarity,Negative*%
%FSLAX46Y46*%
G04 Gerber Fmt 4.6, Leading zero omitted, Abs format (unit mm)*
G04 Created by KiCad (PCBNEW (5.1.9)-1) date 2021-02-14 16:54:30*
%MOMM*%
%LPD*%
G01*
G04 APERTURE LIST*
%ADD10C,1.600000*%
%ADD11R,1.600000X1.600000*%
%ADD12C,1.701800*%
%ADD13C,3.987800*%
%ADD14R,1.752600X1.752600*%
%ADD15C,1.752600*%
G04 APERTURE END LIST*
D10*
%TO.C,D1*%
X106293750Y-135731250D03*
D11*
X98493750Y-135731250D03*
%TD*%
%TO.C,D2*%
X119925000Y-135731250D03*
D10*
X127725000Y-135731250D03*
%TD*%
%TO.C,D3*%
X106293750Y-157162500D03*
D11*
X98493750Y-157162500D03*
%TD*%
%TO.C,D4*%
X119925000Y-157162500D03*
D10*
X127725000Y-157162500D03*
%TD*%
%TO.C,K1*%
G36*
G01*
X103646921Y-147814309D02*
X103686369Y-147235653D01*
G75*
G02*
X105018493Y-146073567I1247105J-85019D01*
G01*
X105018493Y-146073567D01*
G75*
G02*
X106180579Y-147405691I-85019J-1247105D01*
G01*
X106141131Y-147984347D01*
G75*
G02*
X104809007Y-149146433I-1247105J85019D01*
G01*
X104809007Y-149146433D01*
G75*
G02*
X103646921Y-147814309I85019J1247105D01*
G01*
G37*
G36*
G01*
X97480049Y-149157190D02*
X98688973Y-147259560D01*
G75*
G02*
X100414837Y-146876946I1054239J-671625D01*
G01*
X100414837Y-146876946D01*
G75*
G02*
X100797451Y-148602810I-671625J-1054239D01*
G01*
X99588527Y-150500440D01*
G75*
G02*
X97862663Y-150883054I-1054239J671625D01*
G01*
X97862663Y-150883054D01*
G75*
G02*
X97480049Y-149157190I671625J1054239D01*
G01*
G37*
D12*
X107473750Y-152400000D03*
X97313750Y-152400000D03*
D13*
X102393750Y-152400000D03*
%TD*%
%TO.C,K2*%
X123825000Y-152400000D03*
D12*
X118745000Y-152400000D03*
X128905000Y-152400000D03*
G36*
G01*
X118911299Y-149157190D02*
X120120223Y-147259560D01*
G75*
G02*
X121846087Y-146876946I1054239J-671625D01*
G01*
X121846087Y-146876946D01*
G75*
G02*
X122228701Y-148602810I-671625J-1054239D01*
G01*
X121019777Y-150500440D01*
G75*
G02*
X119293913Y-150883054I-1054239J671625D01*
G01*
X119293913Y-150883054D01*
G75*
G02*
X118911299Y-149157190I671625J1054239D01*
G01*
G37*
G36*
G01*
X125078171Y-147814309D02*
X125117619Y-147235653D01*
G75*
G02*
X126449743Y-146073567I1247105J-85019D01*
G01*
X126449743Y-146073567D01*
G75*
G02*
X127611829Y-147405691I-85019J-1247105D01*
G01*
X127572381Y-147984347D01*
G75*
G02*
X126240257Y-149146433I-1247105J85019D01*
G01*
X126240257Y-149146433D01*
G75*
G02*
X125078171Y-147814309I85019J1247105D01*
G01*
G37*
%TD*%
%TO.C,K3*%
G36*
G01*
X103646921Y-126383059D02*
X103686369Y-125804403D01*
G75*
G02*
X105018493Y-124642317I1247105J-85019D01*
G01*
X105018493Y-124642317D01*
G75*
G02*
X106180579Y-125974441I-85019J-1247105D01*
G01*
X106141131Y-126553097D01*
G75*
G02*
X104809007Y-127715183I-1247105J85019D01*
G01*
X104809007Y-127715183D01*
G75*
G02*
X103646921Y-126383059I85019J1247105D01*
G01*
G37*
G36*
G01*
X97480049Y-127725940D02*
X98688973Y-125828310D01*
G75*
G02*
X100414837Y-125445696I1054239J-671625D01*
G01*
X100414837Y-125445696D01*
G75*
G02*
X100797451Y-127171560I-671625J-1054239D01*
G01*
X99588527Y-129069190D01*
G75*
G02*
X97862663Y-129451804I-1054239J671625D01*
G01*
X97862663Y-129451804D01*
G75*
G02*
X97480049Y-127725940I671625J1054239D01*
G01*
G37*
X107473750Y-130968750D03*
X97313750Y-130968750D03*
D13*
X102393750Y-130968750D03*
%TD*%
%TO.C,K4*%
X123825000Y-130968750D03*
D12*
X118745000Y-130968750D03*
X128905000Y-130968750D03*
G36*
G01*
X118911299Y-127725940D02*
X120120223Y-125828310D01*
G75*
G02*
X121846087Y-125445696I1054239J-671625D01*
G01*
X121846087Y-125445696D01*
G75*
G02*
X122228701Y-127171560I-671625J-1054239D01*
G01*
X121019777Y-129069190D01*
G75*
G02*
X119293913Y-129451804I-1054239J671625D01*
G01*
X119293913Y-129451804D01*
G75*
G02*
X118911299Y-127725940I671625J1054239D01*
G01*
G37*
G36*
G01*
X125078171Y-126383059D02*
X125117619Y-125804403D01*
G75*
G02*
X126449743Y-124642317I1247105J-85019D01*
G01*
X126449743Y-124642317D01*
G75*
G02*
X127611829Y-125974441I-85019J-1247105D01*
G01*
X127572381Y-126553097D01*
G75*
G02*
X126240257Y-127715183I-1247105J85019D01*
G01*
X126240257Y-127715183D01*
G75*
G02*
X125078171Y-126383059I85019J1247105D01*
G01*
G37*
%TD*%
D14*
%TO.C,U1*%
X137636250Y-124142500D03*
D15*
X137636250Y-126682500D03*
X137636250Y-129222500D03*
X137636250Y-131762500D03*
X137636250Y-134302500D03*
X137636250Y-136842500D03*
X137636250Y-139382500D03*
X137636250Y-141922500D03*
X137636250Y-144462500D03*
X137636250Y-147002500D03*
X137636250Y-149542500D03*
X152876250Y-152082500D03*
X152876250Y-149542500D03*
X152876250Y-147002500D03*
X152876250Y-144462500D03*
X152876250Y-141922500D03*
X152876250Y-139382500D03*
X152876250Y-136842500D03*
X152876250Y-134302500D03*
X152876250Y-131762500D03*
X152876250Y-129222500D03*
X152876250Y-126682500D03*
X137864850Y-152082500D03*
X152876250Y-124142500D03*
X150336250Y-152082500D03*
X147796250Y-152082500D03*
X145256250Y-152082500D03*
X142716250Y-152082500D03*
X140176250Y-152082500D03*
%TD*%
M02*
